<svg version="1.1" xmlns="http://www.w3.org/2000/svg" viewBox="0 0 1487.0311301259087 536.5291133038454" width="1487.0311301259087" height="536.5291133038454">
  <!-- svg-source:excalidraw -->
  
  <defs>
    <style class="style-fonts">
      
    </style>
    
  </defs>
  <g stroke-linecap="round" transform="translate(10 10) rotate(0 733.5155650629544 29.721659908090714)"><path d="M2.63 2.06 L1470.64 -1.76 L1463.73 60.65 L0.38 58.03" stroke="none" stroke-width="0" fill="#b2f2bb"></path><path d="M-0.23 -0.8 C433.89 2.22, 866.6 2.94, 1467.65 -1.13 M0.7 -0.62 C405.89 -9.46, 811.06 -10.58, 1467.24 -0.64 M1465.4 -2.69 C1469.53 19.18, 1464.45 30.13, 1465.49 59.93 M1465.68 -1.24 C1466.5 12.04, 1466.58 29.18, 1468.78 58.88 M1467.32 58.76 C890.31 55.97, 316.71 57.99, -1.43 59.08 M1467.8 58.65 C945.15 63.12, 424.26 63.23, 0.51 59.89 M3.36 58.24 C0.9 43.16, 2.26 32.58, -0.8 0.04 M-1.29 59.67 C-1.93 42.39, 0.4 22.84, 0.45 0.17" stroke="#1e1e1e" stroke-width="2" fill="none"></path></g><g transform="translate(154.47694337260782 21.804720877537875) rotate(0 49.8271484375 16.09999999999991)"><text x="0" y="23.660546874999998" font-family="Helvetica, Segoe UI Emoji" font-size="28px" fill="#1e1e1e" text-anchor="start" style="white-space: pre;" direction="ltr" dominant-baseline="alphabetic">boolean</text></g><g transform="translate(627.8595292345494 21.474951782861353) rotate(0 316.7021484375001 16.09999999999991)"><text x="0" y="23.660546874999998" font-family="Helvetica, Segoe UI Emoji" font-size="28px" fill="#1e1e1e" text-anchor="start" style="white-space: pre;" direction="ltr" dominant-baseline="alphabetic">Physical layout - Primitive Layout, data as a bitmap</text></g><g stroke-linecap="round"><g transform="translate(421.3092886513864 12.36900470704768) rotate(0 0 22.21342481206557)"><path d="M0.77 -1.41 C-0.71 8.7, 1.47 22.03, -1.54 44.95 M0.26 -0.8 C-0.57 17.05, 0.14 32.58, -0.67 44.89" stroke="#1e1e1e" stroke-width="2" fill="none"></path></g></g><mask></mask><g stroke-linecap="round" transform="translate(94.25409431008529 121.39083576329904) rotate(0 114.83098947020017 202.56913877027318)"><path d="M-0.4 -1.4 L229.23 1.48 L227.85 405.14 L1.86 403.83" stroke="none" stroke-width="0" fill="#ffc9c9"></path><path d="M0 0 C83.69 -2.02, 170.22 -0.13, 229.66 0 M0 0 C76.92 -0.73, 154.41 -1.73, 229.66 0 M229.66 0 C232.18 140.03, 231.93 281.79, 229.66 405.14 M229.66 0 C230.22 102.57, 230.63 204.94, 229.66 405.14 M229.66 405.14 C140.51 403.33, 51.43 402.77, 0 405.14 M229.66 405.14 C171.69 403.89, 112.76 403.29, 0 405.14 M0 405.14 C-0.34 306.9, -0.6 208.83, 0 0 M0 405.14 C0.84 249.81, 0.48 94.9, 0 0" stroke="#1e1e1e" stroke-width="2" fill="none"></path></g><g stroke-linecap="round"><g transform="translate(100.54278369167832 184.48456944878853) rotate(0 109.3466975284407 -0.44841878747593)"><path d="M0 0 C49.31 0.5, 98.22 -1.72, 218.69 -0.9 M0 0 C71.98 2.1, 143.24 1.67, 218.69 -0.9" stroke="#1e1e1e" stroke-width="2" fill="none"></path></g></g><mask></mask><g transform="translate(152.27844315528546 135.2617319352612) rotate(0 64.5927734375 16.09999999999991)"><text x="0" y="23.660546874999998" font-family="Helvetica, Segoe UI Emoji" font-size="28px" fill="#1e1e1e" text-anchor="start" style="white-space: pre;" direction="ltr" dominant-baseline="alphabetic">column 10</text></g><g transform="translate(181.06555253028546 204.69258131841525) rotate(0 28.2734375 16.09999999999991)"><text x="0" y="23.660546874999998" font-family="Helvetica, Segoe UI Emoji" font-size="28px" fill="#1e1e1e" text-anchor="start" style="white-space: pre;" direction="ltr" dominant-baseline="alphabetic">True</text></g><g transform="translate(181.06555253028546 257.88563455274743) rotate(0 28.2734375 16.09999999999991)"><text x="0" y="23.660546874999998" font-family="Helvetica, Segoe UI Emoji" font-size="28px" fill="#1e1e1e" text-anchor="start" style="white-space: pre;" direction="ltr" dominant-baseline="alphabetic">True</text></g><g transform="translate(175.10461503028546 311.0786877870796) rotate(0 34.234375 16.09999999999991)"><text x="0" y="23.660546874999998" font-family="Helvetica, Segoe UI Emoji" font-size="28px" fill="#1e1e1e" text-anchor="start" style="white-space: pre;" direction="ltr" dominant-baseline="alphabetic">False</text></g><g transform="translate(175.10461503028546 417.464794255744) rotate(0 34.234375 16.09999999999991)"><text x="0" y="23.660546874999998" font-family="Helvetica, Segoe UI Emoji" font-size="28px" fill="#1e1e1e" text-anchor="start" style="white-space: pre;" direction="ltr" dominant-baseline="alphabetic">False</text></g><g transform="translate(181.06555253028546 364.2717410214118) rotate(0 21.79296875 16.09999999999991)"><text x="0" y="23.660546874999998" font-family="Helvetica, Segoe UI Emoji" font-size="28px" fill="#1e1e1e" text-anchor="start" style="white-space: pre;" direction="ltr" dominant-baseline="alphabetic">null</text></g><g stroke-linecap="round"><g transform="translate(339.9160732504856 164.83441564660916) rotate(0 92.20263905451998 -0.058168186841157876)"><path d="M1.08 0.38 C43.59 1.21, 85.31 0.88, 187.7 -0.64" stroke="#e03131" stroke-width="2.5" fill="none" stroke-dasharray="8 10"></path></g><g transform="translate(339.9160732504856 164.83441564660916) rotate(0 92.20263905451998 -0.058168186841157876)"><path d="M164.87 8.41 C170.27 5.85, 175.21 3.65, 189.35 -0.91" stroke="#e03131" stroke-width="2.5" fill="none"></path></g><g transform="translate(339.9160732504856 164.83441564660916) rotate(0 92.20263905451998 -0.058168186841157876)"><path d="M164.63 -8.69 C169.97 -7.29, 174.97 -5.54, 189.35 -0.91" stroke="#e03131" stroke-width="2.5" fill="none"></path></g></g><mask></mask><g stroke-linecap="round" transform="translate(539.1948903855287 142.4730475951219) rotate(0 82.53455997438596 21.0267129438148)"><path d="M0 0 C0 0, 0 0, 0 0 M0 0 C0 0, 0 0, 0 0 M-0.1 5.33 C2.72 5.11, 4.56 2.06, 4.97 0.82 M-0.33 6.64 C2.31 3.55, 3.76 2.12, 5.76 0.6 M0.97 11.48 C1.79 4.74, 10.43 5.9, 12.98 2.22 M1.73 12.54 C2.59 7.41, 4.96 6.73, 9.76 1.56 M-4.08 16.64 C0.72 16.84, 4.73 6.66, 11.72 -3.35 M0.29 17.19 C6.34 13.73, 10.24 6.68, 13.8 1.64 M3.98 21.99 C5.49 17.24, 8.1 9.45, 20.98 -0.35 M-1.01 24.84 C9.22 13.86, 15.9 6.36, 21.36 -1.55 M0.49 29.8 C11.62 16.97, 16.6 12.29, 29.66 -2.88 M-0.33 29.15 C10.21 22.06, 16.2 9.74, 26.77 1.79 M1.95 39.92 C5.73 28.68, 16.3 19.06, 31.37 3.85 M-1.74 36.35 C10.99 22.82, 25.89 9.89, 32.05 -1.39 M1.48 38.74 C6.73 37.63, 13.19 28.25, 36.93 0.9 M0.52 44.24 C11.81 32.2, 22.01 19.52, 38.85 0.08 M6 45.31 C17.14 32.81, 26.35 17.5, 40.97 -3.7 M7.43 42.29 C14.12 29.32, 23.91 21.43, 43.08 0.15 M7.1 42.8 C24.11 32.93, 32.18 18.59, 49.84 1.84 M10.06 40.84 C22.69 29.97, 32.34 19.25, 47.01 -1.77 M15.96 40.77 C28.64 29.77, 33.03 18.99, 56.17 -2.21 M16.73 43.4 C32.15 24.56, 44.14 11.92, 53.89 1.79 M22.75 41.34 C36.38 29.21, 52.24 7.26, 58.83 -2.34 M20.47 42.52 C33.57 27.79, 41.6 16.13, 60.12 1.01 M27.17 43.81 C31.93 31.18, 41.54 23.88, 61.45 -3.03 M25.72 42.48 C35.66 32.98, 45.54 22.35, 61.84 -0.64 M34.41 45.52 C36.94 35.47, 49.17 25, 68.44 -2.03 M32.37 41.84 C39.49 34.05, 49.09 20.95, 67.04 0.27 M37.69 38.52 C48.76 35.03, 54.24 28.46, 75.43 -1.61 M38.47 40.12 C52.94 25.48, 64.05 11.84, 74.22 1.72 M46.21 42.38 C56.05 32.16, 61.59 20.78, 81.36 0.23 M44.3 40.41 C55.09 30.89, 64.99 13.6, 80.51 -1.1 M51.69 44.89 C55.19 30.02, 67.37 19.64, 86.87 -1.55 M47.01 43.98 C59.5 28.35, 73.78 12.7, 84.27 -1.19 M56.38 42.84 C63.29 32.73, 73.25 22.1, 90.39 -2.21 M52.75 40.93 C64.53 32.04, 74.93 18.63, 89.25 -1.12 M55.5 38.76 C73.82 25.58, 84.58 13.9, 94.61 1.45 M59.3 40.78 C72.77 27.72, 85.01 11.69, 95.18 1.62 M65.29 41.68 C79.64 24.68, 89.91 9.66, 102.47 3.89 M64.15 43.14 C76.58 27.46, 91.14 11.22, 101.91 1.24 M72.87 40.61 C80.04 25.44, 101.48 5.14, 107.67 3.55 M70.56 41.04 C82.41 29.32, 97.47 11.35, 108.04 -1.78 M75.45 41.55 C83.52 36.51, 88.58 26.72, 114.66 3.62 M74.86 43.85 C83.91 32.57, 92.28 21.62, 111.06 -1.95 M79.68 40.53 C93.79 31.99, 102.04 19.94, 112.5 1.53 M77.94 44.11 C92.13 25.32, 107.62 9.25, 117.26 -1.52 M83.47 45.01 C99.42 25.79, 109 15.46, 122.13 1.95 M87.18 40.93 C92.79 31.25, 104.01 18.42, 121.22 0.48 M87.96 42.75 C103.17 30.5, 110.2 16.96, 123.66 -2.19 M88.56 42.62 C99.97 31.7, 112.57 17.59, 125.14 -0.92 M96.08 38.46 C105.51 27.63, 111.7 17.99, 134.2 -0.26 M97.34 41.31 C111.06 24.82, 123.43 8.81, 132.85 -1.25 M100.51 38.62 C108.12 30.8, 122.24 21.9, 139.86 -3.08 M102.12 43.56 C112.02 29, 119.51 17.31, 137.93 0.02 M106.18 40.18 C118.07 32.57, 121.28 26.61, 142.29 1.71 M107.52 41 C117.77 29.25, 127.45 14.82, 142.34 -1.88 M110.27 39.37 C123.73 29.34, 140.1 5.75, 146.6 2.52 M110.26 40.96 C122.69 30.49, 129.14 22.22, 148.51 1.61 M116.73 44.35 C132.44 24.94, 145.27 7.56, 151.96 0.46 M117.83 41.05 C123.94 34.27, 135.61 23.1, 154.02 -1.05 M124.28 44.09 C136.3 26.72, 147.07 17.39, 155.5 2.15 M120.57 43.89 C137.11 28.31, 148.49 12.5, 159.68 1.21 M124.88 44.99 C133.37 30.17, 146.45 21.67, 166.89 0.46 M126.33 43.59 C135.76 32.29, 143.25 23.15, 164.17 0.63 M131.74 39.76 C143.67 29.07, 158.2 15.39, 168.36 3.76 M132.56 40.52 C139.65 34.54, 148.52 26.25, 164.23 5.8 M137.85 44.03 C147.07 36.05, 152.23 32.87, 163.05 13.38 M136.99 43.8 C147.3 32.91, 154.23 21.22, 167.14 12.95 M143.95 41.22 C151.16 36.83, 151.68 31.43, 166.43 13.65 M141.7 42.05 C147.28 34.86, 154.51 29.25, 166.22 17.89 M149.02 43.24 C154.62 38.4, 153.6 30.1, 165.56 24.89 M147.75 41.93 C156.06 35.88, 162.78 27.84, 164.27 22.88 M154.28 43.09 C159.18 37.1, 161.83 35.91, 165.53 28.39 M155.15 42.72 C156.5 38.92, 163.47 33.26, 164.3 30.99 M160.62 43.03 C160.68 40.1, 161.12 38.61, 165.33 34.81 M159.09 42.58 C160.58 40.1, 163.12 38.61, 164.95 34.78 M164.47 42.46 C164.85 42.21, 164.8 42.26, 165.14 41.57 M164.59 42.45 C164.72 42.08, 164.96 41.8, 165.27 41.63" stroke="#ffc9c9" stroke-width="0.5" fill="none"></path><path d="M0.95 -0.91 C39.95 -1.52, 83.14 -0.84, 162.92 3.89 M-0.4 -1.4 C37.33 3.72, 73.71 2.25, 166.93 -1.31 M162 -0.41 C162.61 12.61, 168.93 33.53, 163.84 41.04 M163.18 1.1 C165.98 12.04, 164.31 21.37, 164.62 41.4 M167.19 41.16 C128.13 44.75, 93.24 46.3, 2.61 46.01 M165.23 42.41 C105.93 42.31, 42.73 43.16, 0.68 42.9 M2.72 38.08 C0.65 29.08, -0.75 23.93, 3.75 2.89 M-0.18 43.08 C0.4 26.39, 0.26 13.62, 0.54 -1.3" stroke="#e03131" stroke-width="1" fill="none"></path></g><g transform="translate(555.7085214425415 148.29772832926574) rotate(0 64.5927734375 16.09999999999991)"><text x="0" y="23.660546874999998" font-family="Helvetica, Segoe UI Emoji" font-size="28px" fill="#1e1e1e" text-anchor="start" style="white-space: pre;" direction="ltr" dominant-baseline="alphabetic">column 10</text></g><g transform="translate(743.224897934439 247.87139425531132) rotate(0 127.1279296875 16.09999999999991)"><text x="0" y="23.660546874999998" font-family="Helvetica, Segoe UI Emoji" font-size="28px" fill="#1e1e1e" text-anchor="start" style="white-space: pre;" direction="ltr" dominant-baseline="alphabetic">Values bitmap buffer</text></g><g transform="translate(743.224897934439 144.26557309097007) rotate(0 129.4521484375 16.09999999999991)"><text x="0" y="23.660546874999998" font-family="Helvetica, Segoe UI Emoji" font-size="28px" fill="#1e1e1e" text-anchor="start" style="white-space: pre;" direction="ltr" dominant-baseline="alphabetic">Validity bitmap buffer</text></g><g stroke-linecap="round" transform="translate(1080.2886378901774 132.66656071541001) rotate(0 99.54516044630918 35.322987763148376)"><path d="M0.68 0.85 L197.66 0.93 L199.23 72.01 L-1.99 71.16" stroke="none" stroke-width="0" fill="#a5d8ff"></path><path d="M0 0 C55.68 -1.29, 112.85 -2.34, 199.09 0 M0 0 C44.88 -1.47, 92.5 -2.13, 199.09 0 M199.09 0 C197.56 26.66, 197.86 52.03, 199.09 70.65 M199.09 0 C199.11 27.57, 198.68 55.95, 199.09 70.65 M199.09 70.65 C159.44 71.95, 117.08 71.68, 0 70.65 M199.09 70.65 C146.44 71.15, 92.48 70.41, 0 70.65 M0 70.65 C1.24 49.87, 1.32 26.44, 0 0 M0 70.65 C0.83 45.86, -0.31 22.08, 0 0" stroke="#1e1e1e" stroke-width="2" fill="none"></path></g><g transform="translate(1110.2528584798163 151.5067143575725) rotate(0 59.1923828125 16.09999999999991)"><text x="0" y="23.660546874999998" font-family="Helvetica, Segoe UI Emoji" font-size="28px" fill="#1e1e1e" text-anchor="start" style="white-space: pre;" direction="ltr" dominant-baseline="alphabetic">00110111</text></g><g stroke-linecap="round" transform="translate(1080.2886378901774 233.8265846100221) rotate(0 96.58661642297238 34.28585676716284)"><path d="M1.44 0.6 L192.08 -0.65 L192.99 69.6 L-0.06 66.79" stroke="none" stroke-width="0" fill="#a5d8ff"></path><path d="M0 0 C75.94 -0.6, 150.32 -1.75, 193.17 0 M0 0 C46.46 -2.17, 91.89 -2.29, 193.17 0 M193.17 0 C194.23 17.35, 194.36 31.56, 193.17 68.57 M193.17 0 C192.21 19.72, 193.57 40, 193.17 68.57 M193.17 68.57 C139.72 70.22, 87.23 70.97, 0 68.57 M193.17 68.57 C121.97 69.57, 51.49 68.82, 0 68.57 M0 68.57 C0.95 48.3, 1.03 31.04, 0 0 M0 68.57 C-0.16 43.25, 0.95 19.04, 0 0" stroke="#1e1e1e" stroke-width="2" fill="none"></path></g><g transform="translate(1110.2528584798163 252.0124413771864) rotate(0 62.001953125 16.09999999999991)"><text x="0" y="23.660546874999998" font-family="Helvetica, Segoe UI Emoji" font-size="28px" fill="#1e1e1e" text-anchor="start" style="white-space: pre;" direction="ltr" dominant-baseline="alphabetic">11000100</text></g><g transform="translate(181.06555253028546 470.65784749007616) rotate(0 28.2734375 16.09999999999991)"><text x="0" y="23.660546874999998" font-family="Helvetica, Segoe UI Emoji" font-size="28px" fill="#1e1e1e" text-anchor="start" style="white-space: pre;" direction="ltr" dominant-baseline="alphabetic">True</text></g></svg>