<svg version="1.1" xmlns="http://www.w3.org/2000/svg" viewBox="0 0 690.1456502907071 311.0564381927252" width="690.1456502907071" height="311.0564381927252">
  <!-- svg-source:excalidraw -->
  
  <defs>
    <style class="style-fonts">
      @font-face {
        font-family: "Virgil";
        src: url("https://excalidraw.com/Virgil.woff2");
      }
      @font-face {
        font-family: "Cascadia";
        src: url("https://excalidraw.com/Cascadia.woff2");
      }
      @font-face {
        font-family: "Assistant";
        src: url("https://excalidraw.com/Assistant-Regular.woff2");
      }
    </style>
    
  </defs>
  <g stroke-linecap="round" transform="translate(99.43623868525026 102.80643819272518) rotate(0 65.5 22.5)"><path d="M11.25 0 C50.75 -2.78, 89.74 3.83, 119.75 0 C128.42 -2.37, 129.02 5.08, 131 11.25 C129.47 20.04, 133.13 26.89, 131 33.75 C128.51 40.02, 130.63 43.49, 119.75 45 C99.59 44.84, 72.22 42.43, 11.25 45 C6.52 45.47, -0.54 40.07, 0 33.75 C-3.31 26.87, -3.35 16.81, 0 11.25 C-1.38 1.24, 2.76 -1.14, 11.25 0" stroke="none" stroke-width="0" fill="#b2f2bb"></path><path d="M11.25 0 C42.65 0.51, 75.72 -1.07, 119.75 0 M11.25 0 C50.67 1.3, 88.51 1.13, 119.75 0 M119.75 0 C126.81 1.53, 130.26 2.83, 131 11.25 M119.75 0 C125.52 -2.14, 131.79 4.15, 131 11.25 M131 11.25 C132.58 18.13, 132.88 22.69, 131 33.75 M131 11.25 C130.73 18.72, 131.91 27.2, 131 33.75 M131 33.75 C130.4 39.37, 125.47 43.4, 119.75 45 M131 33.75 C132.4 43.02, 128.87 43.18, 119.75 45 M119.75 45 C83.09 45.37, 46.43 43.57, 11.25 45 M119.75 45 C87.22 44.23, 55.32 45.02, 11.25 45 M11.25 45 C2.26 46.44, 1.38 42.42, 0 33.75 M11.25 45 C3.32 46, -0.81 42.51, 0 33.75 M0 33.75 C1.13 28.02, -0.98 26.53, 0 11.25 M0 33.75 C0.46 29.31, -0.74 23.13, 0 11.25 M0 11.25 C-0.78 3.14, 3.02 -0.13, 11.25 0 M0 11.25 C-1.26 2.2, 4.56 -1.7, 11.25 0" stroke="#1e1e1e" stroke-width="2" fill="none"></path></g><g transform="translate(162.2279054313898 112.80643819272518) rotate(0 2.7083332538604736 12.5)"><text x="2.7083332538604736" y="17.52" font-family="Virgil, Segoe UI Emoji" font-size="20px" fill="#1e1e1e" text-anchor="middle" style="white-space: pre;" direction="ltr" dominant-baseline="alphabetic">1</text></g><g stroke-linecap="round" transform="translate(232.93623868525026 101.30643819272518) rotate(0 65.5 22.5)"><path d="M11.25 0 C34.71 -4.11, 53.85 -0.41, 119.75 0 C128.5 -1.75, 127.54 2.42, 131 11.25 C128.77 17.55, 134.64 24.82, 131 33.75 C128.02 42.97, 126.24 48.4, 119.75 45 C88.8 44.37, 51.76 42.73, 11.25 45 C5.36 46.36, -2.93 38.09, 0 33.75 C-1.02 23.94, -0.63 18.02, 0 11.25 C0.37 2.47, 6.37 3.18, 11.25 0" stroke="none" stroke-width="0" fill="#a5d8ff"></path><path d="M11.25 0 C50.15 1.51, 85.47 1.45, 119.75 0 M11.25 0 C50.38 0.28, 89.59 -0.95, 119.75 0 M119.75 0 C125.74 -1.86, 131.69 4.1, 131 11.25 M119.75 0 C127.19 1.15, 131.56 5.44, 131 11.25 M131 11.25 C132.19 19.97, 133.06 24.25, 131 33.75 M131 11.25 C130.86 16.15, 130.27 22.14, 131 33.75 M131 33.75 C132.22 42.79, 128.66 43.41, 119.75 45 M131 33.75 C132.06 40.1, 125.56 46.02, 119.75 45 M119.75 45 C80.89 43.5, 40.97 44.59, 11.25 45 M119.75 45 C88.52 46.38, 59.47 46.24, 11.25 45 M11.25 45 C3.38 45.87, -0.7 42.35, 0 33.75 M11.25 45 C1.52 43.91, 0.87 42.42, 0 33.75 M0 33.75 C-1.15 29.55, 1.22 24.04, 0 11.25 M0 33.75 C-0.25 24.72, -0.23 16.23, 0 11.25 M0 11.25 C-1.1 2.41, 4.45 -1.48, 11.25 0 M0 11.25 C1.61 4.15, 3.02 -0.41, 11.25 0" stroke="#1e1e1e" stroke-width="2" fill="none"></path></g><g transform="translate(265.6112379223108 111.30643819272518) rotate(0 32.82500076293945 12.5)"><text x="32.82500076293945" y="17.52" font-family="Virgil, Segoe UI Emoji" font-size="20px" fill="#1e1e1e" text-anchor="middle" style="white-space: pre;" direction="ltr" dominant-baseline="alphabetic">Robert</text></g><g stroke-linecap="round" transform="translate(366.93623868525026 101.30643819272518) rotate(0 65.5 22.5)"><path d="M11.25 0 C37.91 -2.47, 58.61 -2.06, 119.75 0 C128.51 2.32, 131.58 1.26, 131 11.25 C128.4 18.95, 130.37 26.61, 131 33.75 C131.39 40.85, 125.23 47.77, 119.75 45 C87.4 45.72, 48.89 41.2, 11.25 45 C4.63 41.81, -1.43 39.87, 0 33.75 C0.48 27.29, 2.74 26.56, 0 11.25 C2.37 4.32, 2.89 -1.7, 11.25 0" stroke="none" stroke-width="0" fill="#ffc9c9"></path><path d="M11.25 0 C51.42 -1.54, 89.99 -1.05, 119.75 0 M11.25 0 C51.32 -0.44, 93.24 0.67, 119.75 0 M119.75 0 C127.2 1, 131.49 5.22, 131 11.25 M119.75 0 C127.47 2.03, 128.77 4.89, 131 11.25 M131 11.25 C130.41 21.4, 131.64 28.11, 131 33.75 M131 11.25 C131.41 16.65, 131.5 19.72, 131 33.75 M131 33.75 C131.92 40.25, 125.78 45.89, 119.75 45 M131 33.75 C132.34 43.3, 126.52 44.99, 119.75 45 M119.75 45 C93.1 46.08, 68.42 43.47, 11.25 45 M119.75 45 C79.19 46.07, 38.66 46.18, 11.25 45 M11.25 45 C1.81 44.05, 0.76 42.27, 0 33.75 M11.25 45 C2.42 43.75, 2.21 39.79, 0 33.75 M0 33.75 C1.63 24.39, -0.09 16.67, 0 11.25 M0 33.75 C-0.47 27.02, 0.43 20.89, 0 11.25 M0 11.25 C1.4 4.1, 3.11 -0.36, 11.25 0 M0 11.25 C-2.17 2.6, 5.8 0.74, 11.25 0" stroke="#1e1e1e" stroke-width="2" fill="none"></path></g><g transform="translate(419.16123906672 111.30643819272518) rotate(0 13.274999618530273 12.5)"><text x="13.274999618530273" y="17.52" font-family="Virgil, Segoe UI Emoji" font-size="20px" fill="#1e1e1e" text-anchor="middle" style="white-space: pre;" direction="ltr" dominant-baseline="alphabetic">UK</text></g><g stroke-linecap="round" transform="translate(501.93623868525026 102.30643819272518) rotate(0 65.5 22.5)"><path d="M11.25 0 C39.78 3.05, 66.37 -1.76, 119.75 0 C126.02 3.38, 129.49 0.77, 131 11.25 C131.27 18.68, 128.86 29.67, 131 33.75 C131.47 40.71, 126.07 46.61, 119.75 45 C83.99 40.09, 45.04 41.91, 11.25 45 C1.24 44.01, -1.14 41.62, 0 33.75 C2.07 28.37, -1.15 20.16, 0 11.25 C1.74 5.95, 2.27 2.98, 11.25 0" stroke="none" stroke-width="0" fill="#ffec99"></path><path d="M11.25 0 C40.22 -0.49, 65.23 -1.27, 119.75 0 M11.25 0 C33.66 0.31, 56.37 0.55, 119.75 0 M119.75 0 C127.44 1.77, 129.06 4.74, 131 11.25 M119.75 0 C129.27 2.14, 129.93 2.83, 131 11.25 M131 11.25 C129.17 17.82, 129.45 29.17, 131 33.75 M131 11.25 C131.62 19.23, 130.43 28.66, 131 33.75 M131 33.75 C132.16 43.03, 126.62 44.99, 119.75 45 M131 33.75 C129.67 40.01, 127.17 44.56, 119.75 45 M119.75 45 C82.6 45.57, 43.73 43.82, 11.25 45 M119.75 45 C81.54 45.12, 45.64 46.11, 11.25 45 M11.25 45 C2.59 43.91, 1.92 39.98, 0 33.75 M11.25 45 C5.18 46.27, 1.37 43.27, 0 33.75 M0 33.75 C-0.62 27.63, -0.13 21.86, 0 11.25 M0 33.75 C0.62 28.69, -0.4 23.1, 0 11.25 M0 11.25 C-1.89 2.75, 5.53 0.65, 11.25 0 M0 11.25 C-1.51 2.49, 4.6 0.8, 11.25 0" stroke="#1e1e1e" stroke-width="2" fill="none"></path></g><g transform="translate(544.8945726543665 112.30643819272518) rotate(0 22.54166603088379 12.5)"><text x="22.54166603088379" y="17.52" font-family="Virgil, Segoe UI Emoji" font-size="20px" fill="#1e1e1e" text-anchor="middle" style="white-space: pre;" direction="ltr" dominant-baseline="alphabetic">33.5</text></g><g stroke-linecap="round" transform="translate(102.68623868525026 153.05643819272518) rotate(0 65.5 22.5)"><path d="M11.25 0 C49.57 4.73, 88.84 -1.63, 119.75 0 C128.97 -1.01, 134.4 4.14, 131 11.25 C131.24 17.21, 129.59 25.86, 131 33.75 C132.36 38.32, 124.09 45.88, 119.75 45 C94.32 43.26, 72.77 44.62, 11.25 45 C2.47 47.62, 3.18 43.62, 0 33.75 C1.84 28.85, -1.38 22.52, 0 11.25 C-0.33 2.49, 4.1 3.09, 11.25 0" stroke="none" stroke-width="0" fill="#b2f2bb"></path><path d="M11.25 0 C37.94 1.51, 68.71 0.76, 119.75 0 M11.25 0 C49.3 0.09, 86.2 -0.3, 119.75 0 M119.75 0 C129.01 1.86, 130.07 2.95, 131 11.25 M119.75 0 C128.89 0.5, 130.31 1.58, 131 11.25 M131 11.25 C132.36 17.4, 129.23 21.66, 131 33.75 M131 11.25 C131.42 17.77, 130.52 22.5, 131 33.75 M131 33.75 C129.84 40.18, 127.18 44.62, 119.75 45 M131 33.75 C132.28 42.64, 125.54 46.66, 119.75 45 M119.75 45 C80.57 44.09, 40.76 42.86, 11.25 45 M119.75 45 C91.77 45.01, 65.9 44.92, 11.25 45 M11.25 45 C5 46.1, 1.19 43.01, 0 33.75 M11.25 45 C2.37 45.04, -0.9 40.54, 0 33.75 M0 33.75 C-1.33 28.52, -1.47 23.29, 0 11.25 M0 33.75 C-0.87 26.11, 0.96 19.79, 0 11.25 M0 11.25 C-1.32 2.65, 4.49 0.7, 11.25 0 M0 11.25 C-1.12 1.54, 2.9 0.8, 11.25 0" stroke="#1e1e1e" stroke-width="2" fill="none"></path></g><g transform="translate(161.06957189142702 163.05643819272518) rotate(0 7.116666793823242 12.5)"><text x="7.116666793823242" y="17.52" font-family="Virgil, Segoe UI Emoji" font-size="20px" fill="#1e1e1e" text-anchor="middle" style="white-space: pre;" direction="ltr" dominant-baseline="alphabetic">2</text></g><g stroke-linecap="round" transform="translate(236.18623868525026 151.55643819272518) rotate(0 65.5 22.5)"><path d="M11.25 0 C55.7 0.61, 100.11 2.01, 119.75 0 C126.85 -2.02, 133.77 4.22, 131 11.25 C132.22 14.73, 127.71 24.94, 131 33.75 C127.81 39.82, 125.87 42.49, 119.75 45 C88.9 47.82, 63.79 47.57, 11.25 45 C4.32 44.14, -1.7 42.99, 0 33.75 C-0.16 24.36, 0.52 20.59, 0 11.25 C1.37 6.58, 4.83 2.07, 11.25 0" stroke="none" stroke-width="0" fill="#a5d8ff"></path><path d="M11.25 0 C48.54 0.52, 85.31 0.22, 119.75 0 M11.25 0 C54.27 0.39, 95.07 -0.94, 119.75 0 M119.75 0 C128.67 0.43, 130.4 1.87, 131 11.25 M119.75 0 C125.2 -1.84, 132.4 5.52, 131 11.25 M131 11.25 C129.82 18.12, 131.71 29.08, 131 33.75 M131 11.25 C130.35 19.47, 130.89 28.57, 131 33.75 M131 33.75 C132.11 42.46, 125.76 46.44, 119.75 45 M131 33.75 C132.59 42.6, 126.82 46, 119.75 45 M119.75 45 C90.07 44.71, 63.31 42.79, 11.25 45 M119.75 45 C93.74 44.86, 67.07 45.19, 11.25 45 M11.25 45 C2.55 45.03, -0.78 40.64, 0 33.75 M11.25 45 C2.91 44.85, -1.26 39.7, 0 33.75 M0 33.75 C0.52 25.57, -0.19 16.78, 0 11.25 M0 33.75 C-0.86 27.57, 0.17 22.84, 0 11.25 M0 11.25 C-0.97 1.83, 3.01 0.7, 11.25 0 M0 11.25 C1.48 4.12, 2.16 -0.79, 11.25 0" stroke="#1e1e1e" stroke-width="2" fill="none"></path></g><g transform="translate(266.4529050976038 161.55643819272518) rotate(0 35.233333587646484 12.5)"><text x="35.233333587646484" y="17.52" font-family="Virgil, Segoe UI Emoji" font-size="20px" fill="#1e1e1e" text-anchor="middle" style="white-space: pre;" direction="ltr" dominant-baseline="alphabetic">Alberto</text></g><g stroke-linecap="round" transform="translate(370.18623868525026 151.55643819272518) rotate(0 65.5 22.5)"><path d="M11.25 0 C40.35 -2.23, 73.02 0.26, 119.75 0 C126.71 -1.18, 132.61 5.11, 131 11.25 C127.45 14.74, 129.26 18.57, 131 33.75 C130.01 40.11, 127.62 43.72, 119.75 45 C79.86 45.43, 37.13 48.03, 11.25 45 C5.95 43.52, 2.98 40.92, 0 33.75 C1.33 30.62, 1.04 23.9, 0 11.25 C1.71 5.26, 4.97 -0.67, 11.25 0" stroke="none" stroke-width="0" fill="#ffc9c9"></path><path d="M11.25 0 C48.22 -2.04, 82.65 1.65, 119.75 0 M11.25 0 C54.61 0.65, 96.24 -0.51, 119.75 0 M119.75 0 C125.47 -1.6, 132.22 5.29, 131 11.25 M119.75 0 C128.87 -1.82, 132.06 2.6, 131 11.25 M131 11.25 C132.88 15.72, 131.09 20.29, 131 33.75 M131 11.25 C131.55 17.4, 130.25 23.05, 131 33.75 M131 33.75 C132.38 42.42, 126.88 45.87, 119.75 45 M131 33.75 C130.19 42.51, 125.02 43.91, 119.75 45 M119.75 45 C81.99 46.3, 45.14 45.62, 11.25 45 M119.75 45 C80.63 45.97, 42.31 45.65, 11.25 45 M11.25 45 C3.02 44.87, -1.1 39.91, 0 33.75 M11.25 45 C4.56 43.3, 1.61 41.65, 0 33.75 M0 33.75 C-0.96 29.5, 0.69 20.36, 0 11.25 M0 33.75 C-0.57 27.28, -0.45 23.07, 0 11.25 M0 11.25 C1.29 4.07, 2.37 -0.68, 11.25 0 M0 11.25 C2.16 2.79, 1.85 1.1, 11.25 0" stroke="#1e1e1e" stroke-width="2" fill="none"></path></g><g transform="translate(393.5945715099573 161.55643819272518) rotate(0 42.09166717529297 12.5)"><text x="42.09166717529297" y="17.52" font-family="Virgil, Segoe UI Emoji" font-size="20px" fill="#1e1e1e" text-anchor="middle" style="white-space: pre;" direction="ltr" dominant-baseline="alphabetic">Portugal</text></g><g stroke-linecap="round" transform="translate(505.18623868525026 152.55643819272518) rotate(0 65.5 22.5)"><path d="M11.25 0 C37.16 -1.43, 65.77 1.1, 119.75 0 C124.32 -3.16, 131.88 0.56, 131 11.25 C129.86 15.97, 131.21 21.68, 131 33.75 C133.62 44.43, 129.62 45.57, 119.75 45 C91.98 44.47, 62.79 45.62, 11.25 45 C2.49 45.35, 3.09 42.62, 0 33.75 C1.59 26.74, 1.1 16.03, 0 11.25 C-0.37 3.07, 1.86 -2.62, 11.25 0" stroke="none" stroke-width="0" fill="#ffec99"></path><path d="M11.25 0 C35.16 -1.89, 54.55 0.47, 119.75 0 M11.25 0 C45.26 0.22, 81.67 1.79, 119.75 0 M119.75 0 C128.66 -1.59, 131.92 2.75, 131 11.25 M119.75 0 C125.56 1.02, 132.34 5.8, 131 11.25 M131 11.25 C129.92 17.22, 130.62 24.44, 131 33.75 M131 11.25 C131.52 19.95, 130.65 27.9, 131 33.75 M131 33.75 C130.3 42.35, 125.31 44.05, 119.75 45 M131 33.75 C131.87 42.42, 125.92 43.75, 119.75 45 M119.75 45 C77.86 46.87, 35.52 44.47, 11.25 45 M119.75 45 C86.65 44.6, 53.73 44, 11.25 45 M11.25 45 C4.45 43.52, 1.4 41.6, 0 33.75 M11.25 45 C3.02 44.59, -2.17 40.1, 0 33.75 M0 33.75 C-1.17 25.73, 0.62 15.26, 0 11.25 M0 33.75 C0.73 29.32, -0.61 24.23, 0 11.25 M0 11.25 C1.88 2.91, 2.09 0.96, 11.25 0 M0 11.25 C-0.65 5.92, 4 -0.25, 11.25 0" stroke="#1e1e1e" stroke-width="2" fill="none"></path></g><g transform="translate(541.3612379223108 162.55643819272518) rotate(0 29.325000762939453 12.5)"><text x="29.325000762939453" y="17.52" font-family="Virgil, Segoe UI Emoji" font-size="20px" fill="#1e1e1e" text-anchor="middle" style="white-space: pre;" direction="ltr" dominant-baseline="alphabetic">54.02</text></g><g stroke-linecap="round" transform="translate(102.68623868525026 205.05643819272518) rotate(0 65.5 22.5)"><path d="M11.25 0 C37.32 -3.89, 70.12 -3.93, 119.75 0 C125.82 -1.38, 128.49 2.76, 131 11.25 C133.67 20.47, 133.41 23.9, 131 33.75 C130.14 39.55, 128.99 47.2, 119.75 45 C90.4 45.17, 66.66 46.19, 11.25 45 C6.58 46.08, 2.07 42.96, 0 33.75 C-0.51 25.38, -2.03 15.75, 0 11.25 C-1.91 0.54, 4.1 1.92, 11.25 0" stroke="none" stroke-width="0" fill="#b2f2bb"></path><path d="M11.25 0 C39.18 -1.37, 64.36 -2.56, 119.75 0 M11.25 0 C35.82 -1.63, 59.44 -1.34, 119.75 0 M119.75 0 C125.78 0.89, 132.16 5.53, 131 11.25 M119.75 0 C126.52 -0.01, 129.67 2.51, 131 11.25 M131 11.25 C132.17 16.43, 132.4 25.98, 131 33.75 M131 11.25 C130.61 19.87, 129.99 26.91, 131 33.75 M131 33.75 C131.76 42.27, 126.09 43.91, 119.75 45 M131 33.75 C133.21 39.79, 128.68 46.27, 119.75 45 M119.75 45 C80.76 43.57, 41.08 43.62, 11.25 45 M119.75 45 C88.25 43.53, 56.75 44.45, 11.25 45 M11.25 45 C3.11 44.64, -1.89 40.25, 0 33.75 M11.25 45 C5.8 45.74, -1.51 39.99, 0 33.75 M0 33.75 C-2 25.43, 0.62 19.88, 0 11.25 M0 33.75 C1.09 26.22, -0.67 20.01, 0 11.25 M0 11.25 C-0.56 5.64, 3.97 -0.22, 11.25 0 M0 11.25 C-1.29 5.52, 4.05 -0.35, 11.25 0" stroke="#1e1e1e" stroke-width="2" fill="none"></path></g><g transform="translate(161.37790528833864 215.05643819272518) rotate(0 6.808333396911621 12.5)"><text x="6.808333396911621" y="17.52" font-family="Virgil, Segoe UI Emoji" font-size="20px" fill="#1e1e1e" text-anchor="middle" style="white-space: pre;" direction="ltr" dominant-baseline="alphabetic">3</text></g><g stroke-linecap="round" transform="translate(236.18623868525026 203.55643819272518) rotate(0 65.5 22.5)"><path d="M11.25 0 C32.86 0.35, 54.82 0.74, 119.75 0 C126.11 0.37, 129.72 6.37, 131 11.25 C130.41 18.29, 133.01 30.92, 131 33.75 C129.52 44.23, 126.92 43.74, 119.75 45 C88.98 46.82, 54.62 47.45, 11.25 45 C5.26 46.22, -0.67 40.88, 0 33.75 C-1.7 24.21, 0.57 23.02, 0 11.25 C-3.07 1.32, 2.75 0.2, 11.25 0" stroke="none" stroke-width="0" fill="#a5d8ff"></path><path d="M11.25 0 C38.96 2.19, 71.4 2.38, 119.75 0 M11.25 0 C34.46 0.99, 59.72 1.43, 119.75 0 M119.75 0 C126.62 -0.01, 129.84 2.68, 131 11.25 M119.75 0 C127.17 -0.44, 132.28 5.14, 131 11.25 M131 11.25 C132.33 15.95, 132.03 20.69, 131 33.75 M131 11.25 C131.16 19.75, 130.2 26.67, 131 33.75 M131 33.75 C132.92 39.98, 128.5 46.1, 119.75 45 M131 33.75 C132.37 43.27, 125.87 45.04, 119.75 45 M119.75 45 C91.3 43.51, 61.77 45.31, 11.25 45 M119.75 45 C94.91 45.01, 69.76 44.69, 11.25 45 M11.25 45 C5.53 45.65, -1.32 40.15, 0 33.75 M11.25 45 C4.6 45.8, -1.12 39.04, 0 33.75 M0 33.75 C0.24 26.45, -0.76 23.79, 0 11.25 M0 33.75 C-0.09 28.89, 0.29 22.02, 0 11.25 M0 11.25 C-1.12 5.29, 4.01 -0.3, 11.25 0 M0 11.25 C-0.75 4.78, 4.62 -1.87, 11.25 0" stroke="#1e1e1e" stroke-width="2" fill="none"></path></g><g transform="translate(277.39457265436647 213.55643819272518) rotate(0 24.29166603088379 12.5)"><text x="24.29166603088379" y="17.52" font-family="Virgil, Segoe UI Emoji" font-size="20px" fill="#1e1e1e" text-anchor="middle" style="white-space: pre;" direction="ltr" dominant-baseline="alphabetic">Piotr</text></g><g stroke-linecap="round" transform="translate(370.18623868525026 203.55643819272518) rotate(0 65.5 22.5)"><path d="M11.25 0 C38.5 0.9, 66.73 3.16, 119.75 0 C130.43 2.37, 131.57 2.89, 131 11.25 C129.72 19.91, 130.87 21.36, 131 33.75 C131.35 44.34, 128.62 47.83, 119.75 45 C85.44 47.15, 47.44 45.56, 11.25 45 C3.07 43.11, -2.62 39.34, 0 33.75 C-3.11 26.58, -1.04 24.46, 0 11.25 C0 5.03, 7.29 -3.01, 11.25 0" stroke="none" stroke-width="0" fill="#ffc9c9"></path><path d="M11.25 0 C48.83 0.16, 88.58 -2.23, 119.75 0 M11.25 0 C48.32 -0.97, 85.44 -1.51, 119.75 0 M119.75 0 C127.18 -0.38, 132.11 4.96, 131 11.25 M119.75 0 C125.54 1.66, 132.59 5.1, 131 11.25 M131 11.25 C132.19 15.65, 130.15 24.68, 131 33.75 M131 11.25 C131.83 18.51, 131.49 27.6, 131 33.75 M131 33.75 C132.19 43.01, 126.05 45.03, 119.75 45 M131 33.75 C130.1 40.54, 126.41 44.85, 119.75 45 M119.75 45 C91.66 46.78, 66.89 44.75, 11.25 45 M119.75 45 C90.03 44.78, 57.87 43.91, 11.25 45 M11.25 45 C4.49 45.7, -0.97 39.33, 0 33.75 M11.25 45 C2.9 45.8, 1.48 41.62, 0 33.75 M0 33.75 C-0.76 26.9, 1.03 22.8, 0 11.25 M0 33.75 C-0.59 25.64, 0.11 15.84, 0 11.25 M0 11.25 C-0.65 4.64, 4.5 -1.63, 11.25 0 M0 11.25 C-2.02 4.31, 1.71 -0.91, 11.25 0" stroke="#1e1e1e" stroke-width="2" fill="none"></path></g><g transform="translate(403.87790624201295 213.55643819272518) rotate(0 31.808332443237305 12.5)"><text x="31.808332443237305" y="17.52" font-family="Virgil, Segoe UI Emoji" font-size="20px" fill="#1e1e1e" text-anchor="middle" style="white-space: pre;" direction="ltr" dominant-baseline="alphabetic">Poland</text></g><g stroke-linecap="round" transform="translate(505.18623868525026 204.55643819272518) rotate(0 65.5 22.5)"><path d="M11.25 0 C48.09 0.95, 79.13 -2.28, 119.75 0 C125.55 1.74, 133.2 2.27, 131 11.25 C131.31 22.95, 132.33 31.3, 131 33.75 C132.08 43.32, 128.96 46.51, 119.75 45 C82.84 42.91, 44.67 42.89, 11.25 45 C0.54 45.35, 1.92 38.18, 0 33.75 C0.12 29.8, 3.65 20.28, 0 11.25 C0.85 7.23, 2.48 0.23, 11.25 0" stroke="none" stroke-width="0" fill="#ffec99"></path><path d="M11.25 0 C49.69 1.96, 88.14 0.16, 119.75 0 M11.25 0 C43.71 0.39, 76.79 1.19, 119.75 0 M119.75 0 C125.76 1.44, 132.38 4.92, 131 11.25 M119.75 0 C126.82 1, 130.19 5.01, 131 11.25 M131 11.25 C131.91 14.67, 129.8 22.32, 131 33.75 M131 11.25 C131.74 17.45, 130.54 21.91, 131 33.75 M131 33.75 C130.22 40.64, 126.52 44.87, 119.75 45 M131 33.75 C129.74 39.7, 128.06 43.3, 119.75 45 M119.75 45 C79.25 42.76, 38.46 46.44, 11.25 45 M119.75 45 C84.06 44.75, 47.14 43.44, 11.25 45 M11.25 45 C3.01 45.7, 1.29 41.57, 0 33.75 M11.25 45 C2.16 44.21, 2.16 40.29, 0 33.75 M0 33.75 C1.78 29.08, -0.33 22.85, 0 11.25 M0 33.75 C-0.36 25.71, 0.35 15.97, 0 11.25 M0 11.25 C-1.75 4.24, 1.98 -0.79, 11.25 0 M0 11.25 C-0.88 2.15, 3.12 -0.73, 11.25 0" stroke="#1e1e1e" stroke-width="2" fill="none"></path></g><g transform="translate(548.5529054790735 214.55643819272518) rotate(0 22.133333206176758 12.5)"><text x="22.133333206176758" y="17.52" font-family="Virgil, Segoe UI Emoji" font-size="20px" fill="#1e1e1e" text-anchor="middle" style="white-space: pre;" direction="ltr" dominant-baseline="alphabetic">45.3</text></g><g stroke-linecap="round" transform="translate(103.68623868525026 256.0564381927252) rotate(0 65.5 22.5)"><path d="M11.25 0 C49.24 2.21, 92.83 -1.02, 119.75 0 C130.23 -0.33, 129.74 4.1, 131 11.25 C132.24 22, 132.87 30.12, 131 33.75 C132.22 40.58, 126.88 44.32, 119.75 45 C89.68 44.32, 67.96 40.89, 11.25 45 C1.32 44, 0.2 41.25, 0 33.75 C0.45 29.68, -1.67 18.88, 0 11.25 C-2.96 6.64, 5.92 -0.58, 11.25 0" stroke="none" stroke-width="0" fill="#b2f2bb"></path><path d="M11.25 0 C50.09 -0.81, 87.88 0.28, 119.75 0 M11.25 0 C40.99 0.06, 72.91 -0.07, 119.75 0 M119.75 0 C126.88 0.87, 130.3 4.85, 131 11.25 M119.75 0 C125.02 -1.09, 131.87 4.92, 131 11.25 M131 11.25 C129.61 17.95, 131.98 23.34, 131 33.75 M131 11.25 C130.47 19.67, 130.5 28.64, 131 33.75 M131 33.75 C129.9 39.91, 127.95 43.52, 119.75 45 M131 33.75 C132.61 41.65, 126.52 44.59, 119.75 45 M119.75 45 C98.11 44.65, 74.07 46.71, 11.25 45 M119.75 45 C83.05 44.31, 47.74 44.12, 11.25 45 M11.25 45 C2.37 44.32, 1.88 40.41, 0 33.75 M11.25 45 C1.85 46.1, -0.65 43.42, 0 33.75 M0 33.75 C1.56 27.02, -0.28 19.11, 0 11.25 M0 33.75 C-0.96 26.24, -0.97 17.85, 0 11.25 M0 11.25 C-0.77 2.36, 3.2 -0.63, 11.25 0 M0 11.25 C0.23 2.93, 5.43 2.03, 11.25 0" stroke="#1e1e1e" stroke-width="2" fill="none"></path></g><g transform="translate(162.78623858988283 266.0564381927252) rotate(0 6.400000095367432 12.5)"><text x="6.400000095367432" y="17.52" font-family="Virgil, Segoe UI Emoji" font-size="20px" fill="#1e1e1e" text-anchor="middle" style="white-space: pre;" direction="ltr" dominant-baseline="alphabetic">4</text></g><g stroke-linecap="round" transform="translate(237.18623868525026 254.55643819272518) rotate(0 65.5 22.5)"><path d="M11.25 0 C52.03 0.47, 85.6 1.15, 119.75 0 C130.34 1.37, 133.83 4.83, 131 11.25 C132.41 18.62, 130.82 26.66, 131 33.75 C129.11 38.63, 125.34 41.79, 119.75 45 C83.7 42.33, 52.72 43.34, 11.25 45 C5.03 48.54, -3.01 42.1, 0 33.75 C-2.82 27.72, 2.32 15.32, 0 11.25 C-2.61 5.12, 3.26 1.59, 11.25 0" stroke="none" stroke-width="0" fill="#a5d8ff"></path><path d="M11.25 0 C37.14 1.15, 65 -1.45, 119.75 0 M11.25 0 C51.44 -0.2, 91.64 -0.09, 119.75 0 M119.75 0 C125.31 -0.95, 131.76 4.77, 131 11.25 M119.75 0 C125.92 -1.25, 133.21 2.29, 131 11.25 M131 11.25 C132.88 18.2, 131.16 26.77, 131 33.75 M131 11.25 C130.37 16.64, 131.27 22.63, 131 33.75 M131 33.75 C132.4 41.6, 126.61 44.64, 119.75 45 M131 33.75 C128.83 40.1, 129.3 45.74, 119.75 45 M119.75 45 C95.04 44.43, 67.01 44.66, 11.25 45 M119.75 45 C82.72 44.83, 48 44.76, 11.25 45 M11.25 45 C2.09 45.96, -0.56 43.14, 0 33.75 M11.25 45 C4 44.75, -1.29 43.02, 0 33.75 M0 33.75 C0.93 27.46, -1.6 17.91, 0 11.25 M0 33.75 C-0.18 25.76, -0.08 18.84, 0 11.25 M0 11.25 C0.2 3.04, 5.21 1.77, 11.25 0 M0 11.25 C1.51 4.11, 3.2 -1.08, 11.25 0" stroke="#1e1e1e" stroke-width="2" fill="none"></path></g><g transform="translate(273.50290624201295 264.5564381927252) rotate(0 29.183332443237305 12.5)"><text x="29.183332443237305" y="17.52" font-family="Virgil, Segoe UI Emoji" font-size="20px" fill="#1e1e1e" text-anchor="middle" style="white-space: pre;" direction="ltr" dominant-baseline="alphabetic">Marco</text></g><g stroke-linecap="round" transform="translate(371.18623868525026 254.55643819272518) rotate(0 65.5 22.5)"><path d="M11.25 0 C45.89 1.18, 77.19 0.89, 119.75 0 C129.32 1.71, 132.51 4.97, 131 11.25 C129.07 14.96, 129.05 20.69, 131 33.75 C131.35 43.17, 124.18 42.57, 119.75 45 C91.5 48.54, 57.69 45.85, 11.25 45 C7.23 43.73, 0.23 38.29, 0 33.75 C-2.85 26.56, -0.73 18.23, 0 11.25 C0.39 0.48, 5.8 2.53, 11.25 0" stroke="none" stroke-width="0" fill="#ffc9c9"></path><path d="M11.25 0 C51.29 2.19, 89.61 0.44, 119.75 0 M11.25 0 C47.53 -1.07, 86.12 -0.08, 119.75 0 M119.75 0 C126.09 -1.09, 132.92 2.48, 131 11.25 M119.75 0 C128.68 1.27, 132.37 5.77, 131 11.25 M131 11.25 C130.39 15.92, 130.87 20.95, 131 33.75 M131 11.25 C131.78 16.66, 130.76 21.55, 131 33.75 M131 33.75 C129.11 40.25, 129.03 45.65, 119.75 45 M131 33.75 C129.49 39.99, 128.1 45.8, 119.75 45 M119.75 45 C93.18 45.89, 65.53 43.22, 11.25 45 M119.75 45 C90.09 45.02, 61.8 45.49, 11.25 45 M11.25 45 C3.97 44.78, -1.12 42.79, 0 33.75 M11.25 45 C4.05 44.65, -0.75 42.28, 0 33.75 M0 33.75 C0.67 24.38, -0.61 17.79, 0 11.25 M0 33.75 C0.16 28.21, 0.79 24.27, 0 11.25 M0 11.25 C1.32 4.06, 3.27 -0.94, 11.25 0 M0 11.25 C1.11 5.16, 2.8 1.9, 11.25 0" stroke="#1e1e1e" stroke-width="2" fill="none"></path></g><g transform="translate(411.5945715099573 264.5564381927252) rotate(0 25.09166717529297 12.5)"><text x="25.09166717529297" y="17.52" font-family="Virgil, Segoe UI Emoji" font-size="20px" fill="#1e1e1e" text-anchor="middle" style="white-space: pre;" direction="ltr" dominant-baseline="alphabetic">Italy</text></g><g stroke-linecap="round" transform="translate(506.18623868525026 255.55643819272518) rotate(0 65.5 22.5)"><path d="M11.25 0 C49.99 1.12, 86.1 0.63, 119.75 0 C126.58 -0.37, 130.32 1.86, 131 11.25 C131.14 18.28, 127.71 19.04, 131 33.75 C130 41.45, 127.25 46.28, 119.75 45 C80.02 44.19, 33.55 42.5, 11.25 45 C6.64 47.17, -0.58 38.64, 0 33.75 C0.45 22.88, 2.1 21.07, 0 11.25 C1.35 0.89, 7.28 1.18, 11.25 0" stroke="none" stroke-width="0" fill="#ffec99"></path><path d="M11.25 0 C52.16 -0.5, 92.44 -1.73, 119.75 0 M11.25 0 C38.08 -1.1, 67.02 -1.19, 119.75 0 M119.75 0 C128.5 1.1, 132.19 5.51, 131 11.25 M119.75 0 C125.87 0.04, 130.1 3.04, 131 11.25 M131 11.25 C129.64 17.89, 129.51 24.51, 131 33.75 M131 11.25 C129.98 17.89, 131.82 25.86, 131 33.75 M131 33.75 C129.68 40.15, 127.99 45.7, 119.75 45 M131 33.75 C129.88 39.04, 126.4 45.8, 119.75 45 M119.75 45 C79.52 46.13, 39.81 42.59, 11.25 45 M119.75 45 C82.13 45.92, 43.72 46.8, 11.25 45 M11.25 45 C4.01 44.7, -0.65 42.14, 0 33.75 M11.25 45 C4.62 43.13, -2.02 41.81, 0 33.75 M0 33.75 C-1.3 28.45, -0.54 24.45, 0 11.25 M0 33.75 C0.49 27.96, -0.4 21.38, 0 11.25 M0 11.25 C0.97 4.97, 2.93 1.65, 11.25 0 M0 11.25 C-0.21 2.94, 3.97 1.97, 11.25 0" stroke="#1e1e1e" stroke-width="2" fill="none"></path></g><g transform="translate(542.0445722728967 265.5564381927252) rotate(0 29.641666412353516 12.5)"><text x="29.641666412353516" y="17.52" font-family="Virgil, Segoe UI Emoji" font-size="20px" fill="#1e1e1e" text-anchor="middle" style="white-space: pre;" direction="ltr" dominant-baseline="alphabetic">23.09</text></g><g stroke-linecap="round" transform="translate(104.68623868525026 15.056438192725182) rotate(0 65.5 22.5)"><path d="M11.25 0 C48.29 -1.03, 85.99 -2.55, 119.75 0 C124.63 -1.91, 127.79 4.1, 131 11.25 C129.65 19.4, 130.66 28.43, 131 33.75 C134.54 38.24, 128.1 48.48, 119.75 45 C93.91 45.57, 61.72 40.79, 11.25 45 C5.12 44.51, 1.59 41.64, 0 33.75 C1.12 26.18, 3.3 25.52, 0 11.25 C-0.34 3.25, 5.51 -0.37, 11.25 0" stroke="none" stroke-width="0" fill="#b2f2bb"></path><path d="M11.25 0 C39.03 1.81, 69.73 -0.11, 119.75 0 M11.25 0 C38.51 1.24, 65.12 1.57, 119.75 0 M119.75 0 C126.05 0.03, 130.22 3.14, 131 11.25 M119.75 0 C126.41 -0.15, 129.74 2.2, 131 11.25 M131 11.25 C131.18 18.16, 130.48 24.44, 131 33.75 M131 11.25 C130.54 16.33, 131.57 22.86, 131 33.75 M131 33.75 C130.03 39.33, 126.51 45.7, 119.75 45 M131 33.75 C132.48 41.62, 125.66 44.21, 119.75 45 M119.75 45 C77.98 43.54, 36.18 44.32, 11.25 45 M119.75 45 C88.53 45.68, 56.72 46.28, 11.25 45 M11.25 45 C4.5 43.37, -1.75 41.74, 0 33.75 M11.25 45 C1.71 44.09, -0.88 39.65, 0 33.75 M0 33.75 C-0.64 29.08, 1.84 22.8, 0 11.25 M0 33.75 C0.54 27.26, -0.36 20.37, 0 11.25 M0 11.25 C-0.18 3.05, 3.94 1.72, 11.25 0 M0 11.25 C0.87 5.56, 4.44 1.33, 11.25 0" stroke="#1e1e1e" stroke-width="2" fill="none"></path></g><g transform="translate(162.3029054790735 25.05643819272518) rotate(0 7.883333206176758 12.5)"><text x="7.883333206176758" y="17.52" font-family="Virgil, Segoe UI Emoji" font-size="20px" fill="#1e1e1e" text-anchor="middle" style="white-space: pre;" direction="ltr" dominant-baseline="alphabetic">id</text></g><g stroke-linecap="round" transform="translate(238.18623868525026 13.556438192725182) rotate(0 65.5 22.5)"><path d="M11.25 0 C40.06 -0.88, 70.9 1.38, 119.75 0 C129.17 -3.07, 128.57 2.75, 131 11.25 C134.54 15.11, 131.85 28.48, 131 33.75 C129.73 41.48, 124.29 47.89, 119.75 45 C82.02 43.1, 43.14 43.98, 11.25 45 C0.48 47.05, 2.53 42.6, 0 33.75 C-0.74 28.29, 1.36 23.46, 0 11.25 C-1.28 0.44, 2.33 3.11, 11.25 0" stroke="none" stroke-width="0" fill="#a5d8ff"></path><path d="M11.25 0 C46.83 2.55, 83.32 1.87, 119.75 0 M11.25 0 C49.17 -0.94, 87.91 -1.26, 119.75 0 M119.75 0 C126.52 -0.13, 129.9 2.41, 131 11.25 M119.75 0 C128.06 -1.7, 132.61 4.15, 131 11.25 M131 11.25 C129.96 19.07, 131.61 22, 131 33.75 M131 11.25 C130.6 15.8, 130.71 22.63, 131 33.75 M131 33.75 C132.29 41.57, 125.87 44.32, 119.75 45 M131 33.75 C133.16 40.29, 125.35 46.1, 119.75 45 M119.75 45 C90.03 43.99, 62.29 45.38, 11.25 45 M119.75 45 C89.22 44.67, 57.06 45.73, 11.25 45 M11.25 45 C1.98 44.21, -0.77 39.86, 0 33.75 M11.25 45 C3.12 44.27, 0.23 40.43, 0 33.75 M0 33.75 C0.12 24.88, -1.14 17.94, 0 11.25 M0 33.75 C0 25.27, 0.19 18.36, 0 11.25 M0 11.25 C0.76 5.32, 4.35 1.15, 11.25 0 M0 11.25 C1.09 4.71, 4.53 -0.43, 11.25 0" stroke="#1e1e1e" stroke-width="2" fill="none"></path></g><g transform="translate(278.7779058605432 23.55643819272518) rotate(0 24.90833282470703 12.5)"><text x="24.90833282470703" y="17.52" font-family="Virgil, Segoe UI Emoji" font-size="20px" fill="#1e1e1e" text-anchor="middle" style="white-space: pre;" direction="ltr" dominant-baseline="alphabetic">Name</text></g><g stroke-linecap="round" transform="translate(372.18623868525026 13.556438192725182) rotate(0 65.5 22.5)"><path d="M11.25 0 C39.97 -3.27, 62.42 -1.2, 119.75 0 C127.45 0, 132.28 7.29, 131 11.25 C129.83 16.35, 128.13 23.87, 131 33.75 C133.17 40.67, 124.64 46.37, 119.75 45 C85.4 47.26, 60.13 46.57, 11.25 45 C0.89 48.53, 1.18 40.91, 0 33.75 C-1.48 24, -1.62 23.98, 0 11.25 C-1.17 2.87, 3.65 -1.58, 11.25 0" stroke="none" stroke-width="0" fill="#ffc9c9"></path><path d="M11.25 0 C55.34 0.52, 98.99 -1.88, 119.75 0 M11.25 0 C43.62 0.27, 76.18 -0.34, 119.75 0 M119.75 0 C127.95 -1.48, 132.4 4.1, 131 11.25 M119.75 0 C126.52 -0.41, 128.83 2.6, 131 11.25 M131 11.25 C129.97 20.75, 131.77 27.79, 131 33.75 M131 11.25 C131.56 16, 130.23 20.08, 131 33.75 M131 33.75 C132.88 40.41, 125.59 45.96, 119.75 45 M131 33.75 C130.35 43.42, 127.5 44.75, 119.75 45 M119.75 45 C92.99 44.49, 67.73 45.9, 11.25 45 M119.75 45 C95.16 44.87, 71.95 44.57, 11.25 45 M11.25 45 C3.2 44.37, 0.2 40.54, 0 33.75 M11.25 45 C5.43 47.03, 1.51 41.61, 0 33.75 M0 33.75 C1.33 26.71, 1.76 21.14, 0 11.25 M0 33.75 C0.36 28.58, 0.28 22.41, 0 11.25 M0 11.25 C0.95 4.59, 4.43 -0.37, 11.25 0 M0 11.25 C-0.24 3.32, 2.54 -1.67, 11.25 0" stroke="#1e1e1e" stroke-width="2" fill="none"></path></g><g transform="translate(400.71124021112917 23.55643819272518) rotate(0 36.974998474121094 12.5)"><text x="36.974998474121094" y="17.52" font-family="Virgil, Segoe UI Emoji" font-size="20px" fill="#1e1e1e" text-anchor="middle" style="white-space: pre;" direction="ltr" dominant-baseline="alphabetic">Country</text></g><g stroke-linecap="round" transform="translate(507.18623868525026 14.556438192725182) rotate(0 65.5 22.5)"><path d="M11.25 0 C34.73 0.55, 59.1 4.08, 119.75 0 C124.24 0.85, 134.48 2.48, 131 11.25 C132.84 17.57, 128.06 26.41, 131 33.75 C130.51 42.84, 127.64 41.73, 119.75 45 C78.17 49.26, 43.49 45.39, 11.25 45 C3.25 46.76, -0.37 39.97, 0 33.75 C-1.01 28.18, 0.06 22.8, 0 11.25 C-2.91 2.49, 5.01 -2.91, 11.25 0" stroke="none" stroke-width="0" fill="#ffec99"></path><path d="M11.25 0 C50.31 -0.13, 88.69 -0.07, 119.75 0 M11.25 0 C43.45 -0.01, 75.65 0.9, 119.75 0 M119.75 0 C126.61 -0.36, 129.11 2.75, 131 11.25 M119.75 0 C129.3 0.74, 129.49 2.49, 131 11.25 M131 11.25 C129.16 18.09, 131.78 27.71, 131 33.75 M131 11.25 C131.78 17.94, 130.02 25.95, 131 33.75 M131 33.75 C130.44 43.14, 127.47 44.78, 119.75 45 M131 33.75 C129.71 43.02, 127.55 44.65, 119.75 45 M119.75 45 C89.12 43.66, 62.24 43.63, 11.25 45 M119.75 45 C91.23 43.93, 63.36 43.89, 11.25 45 M11.25 45 C5.21 46.77, 1.32 41.56, 0 33.75 M11.25 45 C3.2 43.92, 1.11 42.66, 0 33.75 M0 33.75 C-0.89 28.12, 1.53 22.86, 0 11.25 M0 33.75 C0.41 25.65, 0.27 16.52, 0 11.25 M0 11.25 C-0.21 3.37, 2.7 -1.46, 11.25 0 M0 11.25 C-1.22 1.7, 3.98 1.23, 11.25 0" stroke="#1e1e1e" stroke-width="2" fill="none"></path></g><g transform="translate(549.6195711284876 24.55643819272518) rotate(0 23.066667556762695 12.5)"><text x="23.066667556762695" y="17.52" font-family="Virgil, Segoe UI Emoji" font-size="20px" fill="#1e1e1e" text-anchor="middle" style="white-space: pre;" direction="ltr" dominant-baseline="alphabetic">Cost</text></g><g stroke-linecap="round"><g transform="translate(10.43623868525026 80.80643819272518) rotate(0 334 1.5)"><path d="M-0.44 -0.08 C110.87 0.35, 555.87 1.83, 667.34 2.19 M1.54 -1.16 C113.27 -0.57, 558.65 2.62, 669.71 3.31" stroke="#1e1e1e" stroke-width="2" fill="none"></path></g></g><mask></mask><g stroke-linecap="round"><g transform="translate(81.43623868525026 10.806438192725182) rotate(0 -1 144)"><path d="M-0.66 -0.81 C-0.85 47.06, -1.49 238.94, -1.58 287.11 M1.2 1.38 C0.93 49.38, -1.86 240.14, -2.3 288.18" stroke="#1e1e1e" stroke-width="2" fill="none"></path></g></g><mask></mask></svg>