<svg version="1.1" xmlns="http://www.w3.org/2000/svg" viewBox="0 0 1001.5000000000001 44.332324548691304" width="1001.5000000000001" height="44.332324548691304">
  <!-- svg-source:excalidraw -->
  
  <defs>
    <style class="style-fonts">
      @font-face {
        font-family: "Virgil";
        src: url("https://excalidraw.com/Virgil.woff2");
      }
      @font-face {
        font-family: "Cascadia";
        src: url("https://excalidraw.com/Cascadia.woff2");
      }
      @font-face {
        font-family: "Assistant";
        src: url("https://excalidraw.com/Assistant-Regular.woff2");
      }
    </style>
    
  </defs>
  <g stroke-linecap="round" transform="translate(10 11.657679799899825) rotate(0 30.442437446757367 11.046034554472271)"><path d="M5.52 0 C21.88 -2.65, 40.67 2.49, 55.36 0 C58.46 -2.61, 62.26 1.35, 60.88 5.52 C62.04 10.72, 61.65 11.55, 60.88 16.57 C64.42 21.44, 58.7 21.6, 55.36 22.09 C34.67 20.35, 23.7 20.6, 5.52 22.09 C0.96 21.99, -1.58 17.34, 0 16.57 C0.98 12.47, 1.18 10.39, 0 5.52 C-3.14 3.82, 1.19 1.61, 5.52 0" stroke="none" stroke-width="0" fill="#b2f2bb"></path><path d="M5.52 0 C16.26 1.22, 30.32 -0.81, 55.36 0 M5.52 0 C20.48 0.57, 32.98 -0.3, 55.36 0 M55.36 0 C59.78 0.7, 59.91 -0.08, 60.88 5.52 M55.36 0 C58.19 0.8, 62.37 2.21, 60.88 5.52 M60.88 5.52 C60.38 7.16, 61.37 10.31, 60.88 16.57 M60.88 5.52 C60.59 10.31, 60.97 14.16, 60.88 16.57 M60.88 16.57 C60.23 21.14, 59.8 20.46, 55.36 22.09 M60.88 16.57 C58.87 20.81, 57 21.18, 55.36 22.09 M55.36 22.09 C41.69 22.16, 28.57 23.41, 5.52 22.09 M55.36 22.09 C35.77 21.7, 17.15 22.78, 5.52 22.09 M5.52 22.09 C1.02 23.75, -0.18 19.55, 0 16.57 M5.52 22.09 C2.06 24.06, 0.87 22.06, 0 16.57 M0 16.57 C0.4 13.3, -0.27 9.16, 0 5.52 M0 16.57 C-0.23 12.97, 0.11 10.65, 0 5.52 M0 5.52 C-1.71 0.49, 1.28 0.11, 5.52 0 M0 5.52 C0 2.66, 4.1 -1.93, 5.52 0" stroke="#1e1e1e" stroke-width="2" fill="none"></path></g><g transform="translate(39.19243744675737 16.894088887433668) rotate(0 1.25 5.809625466938428)"><text x="1.25" y="8.142771054460898" font-family="Virgil, Segoe UI Emoji" font-size="9.29540074710148px" fill="#1e1e1e" text-anchor="middle" style="white-space: pre;" direction="ltr" dominant-baseline="alphabetic">1</text></g><g stroke-linecap="round" transform="translate(72.04679998690233 10.960524743867154) rotate(0 30.442437446757367 11.046034554472271)"><path d="M5.52 0 C15.8 -3.15, 28.6 -1.03, 55.36 0 C60.64 0.39, 57.62 3.89, 60.88 5.52 C62.91 10.27, 60.77 13.43, 60.88 16.57 C62.64 19.88, 57.77 18.78, 55.36 22.09 C41.49 21.7, 27.81 18.89, 5.52 22.09 C0.58 23.35, -2.91 22.15, 0 16.57 C-1.86 15, -0.48 12.14, 0 5.52 C-1.54 -0.08, 2.08 3.09, 5.52 0" stroke="none" stroke-width="0" fill="#a5d8ff"></path><path d="M5.52 0 C23.61 -1.73, 41.41 1.94, 55.36 0 M5.52 0 C22.46 0.62, 38.17 -0.69, 55.36 0 M55.36 0 C58.3 0.7, 62.18 2.16, 60.88 5.52 M55.36 0 C57.45 -0.79, 63.04 0.88, 60.88 5.52 M60.88 5.52 C61.98 8.04, 60.82 9.7, 60.88 16.57 M60.88 5.52 C60.72 9.93, 61.11 13.4, 60.88 16.57 M60.88 16.57 C59.13 20.74, 57.27 21.3, 55.36 22.09 M60.88 16.57 C60 18.65, 58.41 21.37, 55.36 22.09 M55.36 22.09 C41.67 23.77, 24.75 21.98, 5.52 22.09 M55.36 22.09 C42.35 23.22, 30.07 22.05, 5.52 22.09 M5.52 22.09 C2.03 23.81, 0.76 21.83, 0 16.57 M5.52 22.09 C2.53 23.42, 1.09 21.21, 0 16.57 M0 16.57 C-0.19 12.3, -0.78 8.61, 0 5.52 M0 16.57 C-0.48 13.87, -0.16 11.94, 0 5.52 M0 5.52 C0 2.55, 3.81 -1.67, 5.52 0 M0 5.52 C0.54 4.07, 1.03 0.15, 5.52 0" stroke="#1e1e1e" stroke-width="2" fill="none"></path></g><g transform="translate(87.30590403674807 16.196933831400997) rotate(0 15.183333396911621 5.809625466938428)"><text x="15.183333396911621" y="8.142771054460898" font-family="Virgil, Segoe UI Emoji" font-size="9.29540074710148px" fill="#1e1e1e" text-anchor="middle" style="white-space: pre;" direction="ltr" dominant-baseline="alphabetic">Robert</text></g><g stroke-linecap="round" transform="translate(134.3259849924823 10.960524743867154) rotate(0 30.442437446757367 11.046034554472271)"><path d="M5.52 0 C18.46 0.51, 24.94 2.17, 55.36 0 C61.58 1.35, 58.02 5.37, 60.88 5.52 C61.84 9, 60.16 11.05, 60.88 16.57 C59.47 23.36, 57.87 21.21, 55.36 22.09 C39.29 22.63, 22.83 23.26, 5.52 22.09 C-0.29 24.35, -0.6 17.11, 0 16.57 C-0.82 11.59, 0.17 10.43, 0 5.52 C-1.58 -0.23, 4.1 -0.81, 5.52 0" stroke="none" stroke-width="0" fill="#ffc9c9"></path><path d="M5.52 0 C16.41 -1.76, 24.9 0.3, 55.36 0 M5.52 0 C21.84 0.83, 39.54 0.64, 55.36 0 M55.36 0 C57.66 -0.68, 62.76 1, 60.88 5.52 M55.36 0 C57.14 1.1, 60.24 4.02, 60.88 5.52 M60.88 5.52 C61.72 9.1, 60.71 12.03, 60.88 16.57 M60.88 5.52 C60.44 9.46, 60.44 12.92, 60.88 16.57 M60.88 16.57 C60.12 18.86, 58.49 21.46, 55.36 22.09 M60.88 16.57 C61.12 19.43, 60.72 24.12, 55.36 22.09 M55.36 22.09 C36.19 22.94, 20.12 21.15, 5.52 22.09 M55.36 22.09 C36.39 22.77, 17.6 22.7, 5.52 22.09 M5.52 22.09 C2.44 23.24, 0.95 21.09, 0 16.57 M5.52 22.09 C2.62 21.66, -0.24 19.82, 0 16.57 M0 16.57 C-0.91 13.94, 0.67 10.16, 0 5.52 M0 16.57 C0.03 14.2, 0.57 10.97, 0 5.52 M0 5.52 C0.47 3.78, 1.14 0.13, 5.52 0 M0 5.52 C-1.89 3.69, 3.23 -0.37, 5.52 0" stroke="#1e1e1e" stroke-width="2" fill="none"></path></g><g transform="translate(158.6350892330629 16.196933831400997) rotate(0 6.133333206176758 5.809625466938428)"><text x="6.133333206176758" y="8.142771054460898" font-family="Virgil, Segoe UI Emoji" font-size="9.29540074710148px" fill="#1e1e1e" text-anchor="middle" style="white-space: pre;" direction="ltr" dominant-baseline="alphabetic">UK</text></g><g stroke-linecap="round" transform="translate(197.0699400354173 11.425294781222192) rotate(0 30.442437446757367 11.046034554472271)"><path d="M5.52 0 C23.55 0.84, 33.65 3.02, 55.36 0 C60.23 -0.34, 60.39 3.6, 60.88 5.52 C60.03 10.44, 60.17 11.44, 60.88 16.57 C60.78 18.67, 56.14 20.83, 55.36 22.09 C36.54 24.82, 21.38 19.42, 5.52 22.09 C3.82 21.45, 1.61 18.71, 0 16.57 C-0.89 12.7, 1.24 10.67, 0 5.52 C-0.29 3.89, 1.47 2.79, 5.52 0" stroke="none" stroke-width="0" fill="#ffec99"></path><path d="M5.52 0 C17.89 -1.16, 26.94 -0.93, 55.36 0 M5.52 0 C21.53 -0.42, 39.85 -0.5, 55.36 0 M55.36 0 C57.39 0.96, 60.32 3.73, 60.88 5.52 M55.36 0 C59.29 -0.25, 59.59 3.61, 60.88 5.52 M60.88 5.52 C61.36 9.4, 59.97 11.47, 60.88 16.57 M60.88 5.52 C60.57 8.72, 60.64 12.51, 60.88 16.57 M60.88 16.57 C61.09 19.54, 60.5 23.86, 55.36 22.09 M60.88 16.57 C62.4 20.61, 58.5 21.01, 55.36 22.09 M55.36 22.09 C39.65 21.7, 19.93 22.08, 5.52 22.09 M55.36 22.09 C36.44 23.06, 17.39 22.9, 5.52 22.09 M5.52 22.09 C2.52 21.72, -0.21 19.87, 0 16.57 M5.52 22.09 C0.63 20.42, -1.22 18.2, 0 16.57 M0 16.57 C-0.81 12.84, 0 9.73, 0 5.52 M0 16.57 C0.02 13.4, -0.3 9.19, 0 5.52 M0 5.52 C-1.65 3.45, 3.05 -0.32, 5.52 0 M0 5.52 C-1.66 2.72, 1.53 1.02, 5.52 0" stroke="#1e1e1e" stroke-width="2" fill="none"></path></g><g transform="translate(217.0873772914398 16.661703868756035) rotate(0 10.425000190734863 5.809625466938428)"><text x="10.425000190734863" y="8.142771054460898" font-family="Virgil, Segoe UI Emoji" font-size="9.29540074710148px" fill="#1e1e1e" text-anchor="middle" style="white-space: pre;" direction="ltr" dominant-baseline="alphabetic">33.5</text></g><g stroke-linecap="round" transform="translate(261.657482893194 10.700813976663994) rotate(0 30.602210314331728 11.815755286013655)"><path d="M5.91 0 C23.77 -1.22, 38.76 0.89, 55.3 0 C58.87 -1.28, 57.9 0.55, 61.2 5.91 C61.07 9.54, 59.42 14.3, 61.2 17.72 C62.46 18.75, 61.13 21.5, 55.3 23.63 C39.36 22.21, 21.07 21.31, 5.91 23.63 C0.05 23.87, 3.09 20.08, 0 17.72 C-0.31 16.07, -0.35 13.64, 0 5.91 C2.16 1.66, -0.25 1.13, 5.91 0" stroke="none" stroke-width="0" fill="#b2f2bb"></path><path d="M5.91 0 C19.02 1.47, 31.06 -1.2, 55.3 0 M5.91 0 C18.21 0.68, 31.88 1.15, 55.3 0 M55.3 0 C59.45 -0.22, 60.08 3.51, 61.2 5.91 M55.3 0 C59.53 -0.35, 60.45 3, 61.2 5.91 M61.2 5.91 C61.4 8.85, 60.64 13.43, 61.2 17.72 M61.2 5.91 C61.23 8.42, 61.6 11.87, 61.2 17.72 M61.2 17.72 C62.52 21.98, 58.76 22.69, 55.3 23.63 M61.2 17.72 C62.32 23.07, 58.29 25.53, 55.3 23.63 M55.3 23.63 C42.65 24.44, 28.15 24.28, 5.91 23.63 M55.3 23.63 C37.97 23.65, 19.87 23.65, 5.91 23.63 M5.91 23.63 C0.92 22.18, -1.06 19.88, 0 17.72 M5.91 23.63 C2.19 24.86, -1.96 20.11, 0 17.72 M0 17.72 C0.41 15.67, -1 11.57, 0 5.91 M0 17.72 C-0.44 13.51, 0.4 8.25, 0 5.91 M0 5.91 C-1.45 2.73, 1.7 0.88, 5.91 0 M0 5.91 C0.25 -0.12, 3.28 1.62, 5.91 0" stroke="#1e1e1e" stroke-width="2" fill="none"></path></g><g transform="translate(288.91802650906993 16.676452790476958) rotate(0 3.3416666984558105 5.8401164722007195)"><text x="3.3416666984558105" y="8.185507247436512" font-family="Virgil, Segoe UI Emoji" font-size="9.344186355521131px" fill="#1e1e1e" text-anchor="middle" style="white-space: pre;" direction="ltr" dominant-baseline="alphabetic">2</text></g><g stroke-linecap="round" transform="translate(324.0299268162976 10) rotate(0 30.6022103143317 11.815755286013655)"><path d="M5.91 0 C19.88 -1.71, 31.29 -1.85, 55.3 0 C62.35 -1.17, 60.32 1.87, 61.2 5.91 C61.78 7.21, 62.15 10.7, 61.2 17.72 C63.46 21.07, 56.09 25.61, 55.3 23.63 C39.45 23.49, 30.53 21.67, 5.91 23.63 C-0.1 25.89, -0.81 21.37, 0 17.72 C1.3 13.32, -1.29 9.96, 0 5.91 C2.44 -0.35, 0.99 -1, 5.91 0" stroke="none" stroke-width="0" fill="#a5d8ff"></path><path d="M5.91 0 C23.23 2.22, 41.08 -1.31, 55.3 0 M5.91 0 C23.19 -0.58, 39.7 0.3, 55.3 0 M55.3 0 C59.5 -0.3, 60.55 2.86, 61.2 5.91 M55.3 0 C60.1 -1.87, 59.19 2.53, 61.2 5.91 M61.2 5.91 C60.33 8.08, 60.78 11.02, 61.2 17.72 M61.2 5.91 C61.68 9.12, 61.15 11.88, 61.2 17.72 M61.2 17.72 C62.17 22.89, 58.41 25.28, 55.3 23.63 M61.2 17.72 C60.99 20.85, 59.46 25.6, 55.3 23.63 M55.3 23.63 C39.76 24.73, 22.75 24.46, 5.91 23.63 M55.3 23.63 C40.88 22.81, 26.98 22.65, 5.91 23.63 M5.91 23.63 C2.17 24.7, -1.71 20.31, 0 17.72 M5.91 23.63 C1.33 23.76, 0 22.48, 0 17.72 M0 17.72 C1.24 12.6, 0.17 7.34, 0 5.91 M0 17.72 C-0.5 13.45, -0.15 9, 0 5.91 M0 5.91 C0.22 0.15, 3.11 1.41, 5.91 0 M0 5.91 C0.86 0.14, 4.22 0.76, 5.91 0" stroke="#1e1e1e" stroke-width="2" fill="none"></path></g><g transform="translate(338.10713751209903 15.975638813812964) rotate(0 16.524999618530273 5.8401164722007195)"><text x="16.524999618530273" y="8.185507247436512" font-family="Virgil, Segoe UI Emoji" font-size="9.344186355521131px" fill="#1e1e1e" text-anchor="middle" style="white-space: pre;" direction="ltr" dominant-baseline="alphabetic">Alberto</text></g><g stroke-linecap="round" transform="translate(386.63597539828925 10) rotate(0 30.6022103143317 11.815755286013655)"><path d="M5.91 0 C22.08 -0.82, 31.15 0.25, 55.3 0 C57.65 -2.91, 59.94 3.23, 61.2 5.91 C62.65 8.14, 59.46 12.26, 61.2 17.72 C60.56 23.27, 57.69 21.71, 55.3 23.63 C38.08 25.5, 24.2 22.95, 5.91 23.63 C4.02 23.26, 2.79 23.82, 0 17.72 C1.57 12.91, -0.45 10.25, 0 5.91 C1.27 0.74, 4.47 -2.86, 5.91 0" stroke="none" stroke-width="0" fill="#ffc9c9"></path><path d="M5.91 0 C26.31 -0.15, 46.7 0.62, 55.3 0 M5.91 0 C20.31 -0.53, 34.12 0.07, 55.3 0 M55.3 0 C59.99 -1.63, 59.45 2.46, 61.2 5.91 M55.3 0 C57.19 -0.91, 60.32 0.37, 61.2 5.91 M61.2 5.91 C60.75 9.99, 62.21 13.13, 61.2 17.72 M61.2 5.91 C61.46 10, 60.93 13.86, 61.2 17.72 M61.2 17.72 C61.02 20.96, 59.43 25.35, 55.3 23.63 M61.2 17.72 C62.08 23.47, 59.93 24.96, 55.3 23.63 M55.3 23.63 C37.76 23.59, 20.59 22.75, 5.91 23.63 M55.3 23.63 C44.17 23.72, 32 22.51, 5.91 23.63 M5.91 23.63 C1.41 23.74, 0 22.37, 0 17.72 M5.91 23.63 C4.23 21.71, 0.54 23.89, 0 17.72 M0 17.72 C0.94 15.31, -0.2 10.61, 0 5.91 M0 17.72 C0.08 13.19, 0.35 10.15, 0 5.91 M0 5.91 C0.75 0.38, 3.93 0.66, 5.91 0 M0 5.91 C-0.22 1.65, 3.09 -0.24, 5.91 0" stroke="#1e1e1e" stroke-width="2" fill="none"></path></g><g transform="translate(397.488185712621 15.975638813812964) rotate(0 19.75 5.8401164722007195)"><text x="19.75" y="8.185507247436512" font-family="Virgil, Segoe UI Emoji" font-size="9.344186355521131px" fill="#1e1e1e" text-anchor="middle" style="white-space: pre;" direction="ltr" dominant-baseline="alphabetic">Portugal</text></g><g stroke-linecap="round" transform="translate(449.7092332980568 10.467209317775996) rotate(0 30.6022103143317 11.815755286013655)"><path d="M5.91 0 C17.53 -2.88, 31.06 1.28, 55.3 0 C56.32 1.9, 59.08 4.23, 61.2 5.91 C60.64 10.21, 60.11 11.47, 61.2 17.72 C61.44 24.75, 57.65 21.56, 55.3 23.63 C39.42 23.19, 22.24 25.72, 5.91 23.63 C1.66 21.41, 1.13 24.1, 0 17.72 C0.81 14.21, 1.53 10.47, 0 5.91 C3.44 3.65, -1.02 -0.56, 5.91 0" stroke="none" stroke-width="0" fill="#ffec99"></path><path d="M5.91 0 C19.12 -1.18, 34.3 0.21, 55.3 0 M5.91 0 C20.35 -1.04, 33.17 0.02, 55.3 0 M55.3 0 C57.46 -0.79, 60.44 0.58, 61.2 5.91 M55.3 0 C58.6 -0.73, 61.44 1.15, 61.2 5.91 M61.2 5.91 C61.49 10.03, 60.75 15.29, 61.2 17.72 M61.2 5.91 C61.1 9.97, 61.21 14.95, 61.2 17.72 M61.2 17.72 C61.96 23.24, 59.84 24.78, 55.3 23.63 M61.2 17.72 C62.3 22.63, 60.02 23.2, 55.3 23.63 M55.3 23.63 C39.53 22.31, 24.89 23.57, 5.91 23.63 M55.3 23.63 C37.56 23.35, 20.39 23.65, 5.91 23.63 M5.91 23.63 C3.94 21.96, 0.47 23.6, 0 17.72 M5.91 23.63 C1.16 23.78, -1.89 23.51, 0 17.72 M0 17.72 C0.47 13.31, 0.54 9.34, 0 5.91 M0 17.72 C0.15 14.78, 0.51 12.97, 0 5.91 M0 5.91 C-0.19 1.69, 2.95 -0.2, 5.91 0 M0 5.91 C-0.82 -0.14, 1.06 1.99, 5.91 0" stroke="#1e1e1e" stroke-width="2" fill="none"></path></g><g transform="translate(466.56144361238853 16.44284813158896) rotate(0 13.75 5.8401164722007195)"><text x="13.75" y="8.185507247436512" font-family="Virgil, Segoe UI Emoji" font-size="9.344186355521131px" fill="#1e1e1e" text-anchor="middle" style="white-space: pre;" direction="ltr" dominant-baseline="alphabetic">54.02</text></g><g stroke-linecap="round" transform="translate(514 10.684629803186454) rotate(0 29.895501405810677 11)"><path d="M5.5 0 C13.28 1.59, 24.77 1.95, 54.29 0 C57.36 -3.14, 61.77 1.19, 59.79 5.5 C59.84 10.99, 58.83 11.95, 59.79 16.5 C62.05 19.36, 57.66 24.05, 54.29 22 C39.85 20.31, 27.16 24.96, 5.5 22 C-0.49 21.02, -1 21.44, 0 16.5 C1.76 14.5, -1.78 10.34, 0 5.5 C3.36 2.9, -1.16 -1.47, 5.5 0" stroke="none" stroke-width="0" fill="#b2f2bb"></path><path d="M5.5 0 C17.09 -0.72, 30.19 0.69, 54.29 0 M5.5 0 C15.27 -0.52, 26.44 -0.82, 54.29 0 M54.29 0 C57.41 -0.63, 60 1.12, 59.79 5.5 M54.29 0 C59.63 2.03, 61.3 2.19, 59.79 5.5 M59.79 5.5 C60.41 8.09, 60.65 11.48, 59.79 16.5 M59.79 5.5 C60.01 8.85, 59.97 11.64, 59.79 16.5 M59.79 16.5 C60.74 21, 58.64 21.63, 54.29 22 M59.79 16.5 C59.55 19.73, 56.75 20.33, 54.29 22 M54.29 22 C43.31 20.34, 28.84 21.49, 5.5 22 M54.29 22 C40.37 21.34, 24.72 23.14, 5.5 22 M5.5 22 C1.13 22.13, -1.65 21.77, 0 16.5 M5.5 22 C3.22 21.63, -1.66 21.04, 0 16.5 M0 16.5 C-1.05 13.97, 0.73 10.61, 0 5.5 M0 16.5 C-0.16 14, 0.16 11.59, 0 5.5 M0 5.5 C-0.71 0, 1.05 1.73, 5.5 0 M0 5.5 C-0.75 1.27, 1.77 -1.01, 5.5 0" stroke="#1e1e1e" stroke-width="2" fill="none"></path></g><g transform="translate(540.7871680565828 15.979381443298905) rotate(0 3.1083333492279053 5.705248359887548)"><text x="3.1083333492279053" y="7.99647610121837" font-family="Virgil, Segoe UI Emoji" font-size="9.128397375820057px" fill="#1e1e1e" text-anchor="middle" style="white-space: pre;" direction="ltr" dominant-baseline="alphabetic">3</text></g><g stroke-linecap="round" transform="translate(574.9320524835989 10) rotate(0 29.895501405810677 11)"><path d="M5.5 0 C22.11 -3.69, 41.9 -1.2, 54.29 0 C59.57 -1.54, 57.87 2.07, 59.79 5.5 C60.95 9.3, 59.54 15.12, 59.79 16.5 C59.42 22.96, 60.11 21.69, 54.29 22 C40.34 21.61, 30.04 23.87, 5.5 22 C0.6 24.5, -2.86 23.61, 0 16.5 C2.01 13.28, -1.48 8.06, 0 5.5 C-0.49 3.79, 1.23 -2.6, 5.5 0" stroke="none" stroke-width="0" fill="#a5d8ff"></path><path d="M5.5 0 C16.91 -1.94, 32.07 -1.96, 54.29 0 M5.5 0 C17.93 0.02, 31.01 -0.02, 54.29 0 M54.29 0 C59.42 1.77, 61.11 2.15, 59.79 5.5 M54.29 0 C57.41 -1.08, 60.91 3.24, 59.79 5.5 M59.79 5.5 C59.5 8.45, 60.83 11.61, 59.79 16.5 M59.79 5.5 C60.09 9.9, 60.01 13.73, 59.79 16.5 M59.79 16.5 C59.59 19.79, 56.91 20.54, 54.29 22 M59.79 16.5 C58.57 18.11, 58.18 23.23, 54.29 22 M54.29 22 C43.93 21.87, 34.06 23.83, 5.5 22 M54.29 22 C43.39 22.54, 32.36 23.28, 5.5 22 M5.5 22 C3.04 21.68, -1.45 20.93, 0 16.5 M5.5 22 C1.52 23.02, 0.25 18.08, 0 16.5 M0 16.5 C-0.95 13.65, 0.28 8.54, 0 5.5 M0 16.5 C-0.25 12.85, -0.27 10.68, 0 5.5 M0 5.5 C-0.65 1.34, 1.78 -0.88, 5.5 0 M0 5.5 C-1.86 1.03, 2.64 -1.86, 5.5 0" stroke="#1e1e1e" stroke-width="2" fill="none"></path></g><g transform="translate(593.7275535079399 15.294751640112452) rotate(0 11.100000381469727 5.705248359887548)"><text x="11.100000381469727" y="7.99647610121837" font-family="Virgil, Segoe UI Emoji" font-size="9.128397375820057px" fill="#1e1e1e" text-anchor="middle" style="white-space: pre;" direction="ltr" dominant-baseline="alphabetic">Piotr</text></g><g stroke-linecap="round" transform="translate(636.0923149015932 10) rotate(0 29.895501405810677 11)"><path d="M5.5 0 C17.49 -1.38, 24.34 0.4, 54.29 0 C61.05 -1.58, 57.72 4.1, 59.79 5.5 C59.57 10.09, 60.96 11.43, 59.79 16.5 C57.57 21.3, 60.39 19.68, 54.29 22 C39.75 24.81, 24.81 25.75, 5.5 22 C3.51 19.01, -0.56 23.53, 0 16.5 C-0.1 13.95, -0.17 7.82, 0 5.5 C1.62 -0.07, -0.26 2.19, 5.5 0" stroke="none" stroke-width="0" fill="#ffc9c9"></path><path d="M5.5 0 C15.07 -0.34, 24.83 -0.12, 54.29 0 M5.5 0 C19.33 1.06, 32.35 0.33, 54.29 0 M54.29 0 C57.48 -0.94, 60.76 3.06, 59.79 5.5 M54.29 0 C57.01 1.9, 59.58 1.03, 59.79 5.5 M59.79 5.5 C60.75 9.24, 60.52 12.84, 59.79 16.5 M59.79 5.5 C59.77 9.16, 59.54 12.62, 59.79 16.5 M59.79 16.5 C58.73 18.38, 58.15 23.07, 54.29 22 M59.79 16.5 C57.83 18.61, 57.32 22.13, 54.29 22 M54.29 22 C37.97 22.95, 26.94 21.78, 5.5 22 M54.29 22 C39.94 22.23, 23.66 22.77, 5.5 22 M5.5 22 C1.56 22.88, 0.22 18.35, 0 16.5 M5.5 22 C3.14 23.62, 0.86 18.34, 0 16.5 M0 16.5 C-0.19 12.66, -0.15 7.35, 0 5.5 M0 16.5 C-0.14 14.08, 0.03 11.68, 0 5.5 M0 5.5 C-1.62 1.13, 2.53 -1.62, 5.5 0 M0 5.5 C1.21 0.47, 3.28 -0.38, 5.5 0" stroke="#1e1e1e" stroke-width="2" fill="none"></path></g><g transform="translate(651.4544825290226 15.294751640112452) rotate(0 14.533333778381348 5.705248359887548)"><text x="14.533333778381348" y="7.99647610121837" font-family="Virgil, Segoe UI Emoji" font-size="9.128397375820057px" fill="#1e1e1e" text-anchor="middle" style="white-space: pre;" direction="ltr" dominant-baseline="alphabetic">Poland</text></g><g stroke-linecap="round" transform="translate(697.7089971883786 10.456419868791045) rotate(0 29.895501405810677 11)"><path d="M5.5 0 C21.14 -1.64, 28.53 2.21, 54.29 0 C57.15 -0.29, 61.84 1.46, 59.79 5.5 C58.69 10.27, 61.25 12.53, 59.79 16.5 C58.81 19.17, 59.23 20.77, 54.29 22 C37.95 19.85, 17.68 26.2, 5.5 22 C2.9 19.01, -1.47 19.68, 0 16.5 C0.92 11.56, -1.12 9.91, 0 5.5 C1.85 2.65, -0.61 0.6, 5.5 0" stroke="none" stroke-width="0" fill="#ffec99"></path><path d="M5.5 0 C17.63 0.34, 30.31 1.59, 54.29 0 M5.5 0 C24.21 -0.55, 43.87 0.53, 54.29 0 M54.29 0 C57.13 1.65, 59.61 1.13, 59.79 5.5 M54.29 0 C58.18 1.97, 60.66 3.64, 59.79 5.5 M59.79 5.5 C60.31 9.5, 59.65 12.65, 59.79 16.5 M59.79 5.5 C59.44 8.1, 59.79 11.98, 59.79 16.5 M59.79 16.5 C58.08 18.82, 57.4 22.11, 54.29 22 M59.79 16.5 C59.79 20.98, 60.22 20.07, 54.29 22 M54.29 22 C38.63 20.18, 24.32 23.04, 5.5 22 M54.29 22 C40.3 22.63, 26.69 21.28, 5.5 22 M5.5 22 C2.97 23.41, 0.75 18.58, 0 16.5 M5.5 22 C4.09 22.76, -0.22 19.85, 0 16.5 M0 16.5 C-1 12.23, 0.96 8.47, 0 5.5 M0 16.5 C-0.44 13.28, 0.2 10, 0 5.5 M0 5.5 C1.05 0.65, 3.09 -0.33, 5.5 0 M0 5.5 C-2.01 3.1, 1.42 1.03, 5.5 0" stroke="#1e1e1e" stroke-width="2" fill="none"></path></g><g transform="translate(717.4961650065428 15.751171508903496) rotate(0 10.108333587646484 5.705248359887548)"><text x="10.108333587646484" y="7.99647610121837" font-family="Virgil, Segoe UI Emoji" font-size="9.128397375820057px" fill="#1e1e1e" text-anchor="middle" style="white-space: pre;" direction="ltr" dominant-baseline="alphabetic">45.3</text></g><g stroke-linecap="round" transform="translate(761 10.648078725398364) rotate(0 28.299437675726338 10.5)"><path d="M5.25 0 C16.24 -0.81, 30.9 -0.89, 51.35 0 C57.64 2.16, 56.29 -0.47, 56.6 5.25 C56.21 8.21, 57.4 11.56, 56.6 15.75 C59.1 16.39, 58.29 22.68, 51.35 21 C42.42 18.78, 29.87 21.29, 5.25 21 C3.7 20.39, -2.6 20.87, 0 15.75 C1.08 13.58, -1.17 10.87, 0 5.25 C-3.57 4.71, 1.94 -2.15, 5.25 0" stroke="none" stroke-width="0" fill="#b2f2bb"></path><path d="M5.25 0 C21.32 0.98, 34.17 -0.81, 51.35 0 M5.25 0 C16.49 0.54, 28.47 -0.63, 51.35 0 M51.35 0 C55.04 1.72, 57.36 3.32, 56.6 5.25 M51.35 0 C55.54 1.33, 57.69 2.71, 56.6 5.25 M56.6 5.25 C56.38 8.21, 55.81 11.71, 56.6 15.75 M56.6 5.25 C56.16 7.11, 56.46 9.7, 56.6 15.75 M56.6 15.75 C56.6 19.96, 56.82 19.33, 51.35 21 M56.6 15.75 C57.14 21.48, 54.04 21.15, 51.35 21 M51.35 21 C40.99 19.83, 32.04 21.01, 5.25 21 M51.35 21 C36.05 21.29, 19.99 19.79, 5.25 21 M5.25 21 C3.71 21.66, -0.19 18.97, 0 15.75 M5.25 21 C2.87 20.76, -0.82 17.14, 0 15.75 M0 15.75 C-0.35 12.98, -0.55 9.43, 0 5.25 M0 15.75 C0.24 12.66, 0.29 10.1, 0 5.25 M0 5.25 C-1.74 2.85, 1.39 0.89, 5.25 0 M0 5.25 C-0.99 0.52, 1.9 1.98, 5.25 0" stroke="#1e1e1e" stroke-width="2" fill="none"></path></g><g transform="translate(786.5327710249543 15.747422680412399) rotate(0 2.7666666507720947 5.400656044985936)"><text x="2.7666666507720947" y="7.569559512652296" font-family="Virgil, Segoe UI Emoji" font-size="8.641049671977507px" fill="#1e1e1e" text-anchor="middle" style="white-space: pre;" direction="ltr" dominant-baseline="alphabetic">4</text></g><g stroke-linecap="round" transform="translate(818.6790065604498 10) rotate(0 28.299437675726335 10.5)"><path d="M5.25 0 C21.49 2.24, 31.85 -2.13, 51.35 0 C55.98 2.44, 54.28 0.77, 56.6 5.25 C57.98 6.61, 58.47 11.85, 56.6 15.75 C53.61 18.69, 58.21 22.07, 51.35 21 C43.3 20.28, 28.75 22.5, 5.25 21 C-0.15 18.91, 2.19 21.1, 0 15.75 C-1.75 13.92, 0.23 7.84, 0 5.25 C0.04 2.31, -0.94 2.33, 5.25 0" stroke="none" stroke-width="0" fill="#a5d8ff"></path><path d="M5.25 0 C21.17 1.08, 40.2 -0.71, 51.35 0 M5.25 0 C22.99 1.02, 40.91 0.95, 51.35 0 M51.35 0 C55.45 1.15, 57.55 2.59, 56.6 5.25 M51.35 0 C55.63 -0.43, 56.36 1.32, 56.6 5.25 M56.6 5.25 C55.58 7.95, 57.08 9.55, 56.6 15.75 M56.6 5.25 C56.57 7.88, 57.09 9.69, 56.6 15.75 M56.6 15.75 C57.07 21.18, 54.14 21.13, 51.35 21 M56.6 15.75 C54.71 21.1, 56.24 20.63, 51.35 21 M51.35 21 C41.74 21.15, 28.55 22.08, 5.25 21 M51.35 21 C35.26 20.96, 17.1 20.5, 5.25 21 M5.25 21 C2.73 20.8, -0.71 17.41, 0 15.75 M5.25 21 C0.84 22.99, -0.75 18.69, 0 15.75 M0 15.75 C-0.32 13, -0.8 10.06, 0 5.25 M0 15.75 C-0.52 13.51, -0.16 10.93, 0 5.25 M0 5.25 C-0.86 0.68, 1.88 1.72, 5.25 0 M0 5.25 C-1.01 0.43, 3.2 -0.52, 5.25 0" stroke="#1e1e1e" stroke-width="2" fill="none"></path></g><g transform="translate(834.3701106485297 15.099343955014035) rotate(0 12.608333587646484 5.400656044985936)"><text x="12.608333587646484" y="7.569559512652296" font-family="Virgil, Segoe UI Emoji" font-size="8.641049671977507px" fill="#1e1e1e" text-anchor="middle" style="white-space: pre;" direction="ltr" dominant-baseline="alphabetic">Marco</text></g><g stroke-linecap="round" transform="translate(876.5740393626993 10) rotate(0 28.299437675726335 10.5)"><path d="M5.25 0 C22.97 2.95, 36.11 -0.47, 51.35 0 C53.85 1.27, 55.37 4.25, 56.6 5.25 C55.21 7.27, 58.54 10.44, 56.6 15.75 C53.61 17.78, 54.36 22.95, 51.35 21 C36.4 19.28, 27.44 23.22, 5.25 21 C2.56 18.56, 0.6 15.68, 0 15.75 C0.01 12.03, -1.42 8.95, 0 5.25 C2.59 1.72, 0.6 -3.21, 5.25 0" stroke="none" stroke-width="0" fill="#ffc9c9"></path><path d="M5.25 0 C22.97 0.01, 36.67 0.38, 51.35 0 M5.25 0 C23.33 0.21, 41.29 0.06, 51.35 0 M51.35 0 C55.53 -0.37, 56.39 1.37, 56.6 5.25 M51.35 0 C53.64 -1.67, 55.38 -0.3, 56.6 5.25 M56.6 5.25 C55.95 8.21, 56.71 11.76, 56.6 15.75 M56.6 5.25 C56.83 9.28, 56.52 12.33, 56.6 15.75 M56.6 15.75 C54.95 20.86, 56.06 20.68, 51.35 21 M56.6 15.75 C54.93 20.13, 54.54 22.02, 51.35 21 M51.35 21 C38.43 22.01, 21.1 23.22, 5.25 21 M51.35 21 C36.49 20.83, 20.3 20.02, 5.25 21 M5.25 21 C0.96 22.73, -0.65 18.76, 0 15.75 M5.25 21 C1.68 19.99, -1.86 18.44, 0 15.75 M0 15.75 C-0.54 12.89, -0.09 7.8, 0 5.25 M0 15.75 C-0.21 11.74, 0.05 8.74, 0 5.25 M0 5.25 C-0.88 0.6, 3.01 -0.45, 5.25 0 M0 5.25 C-0.19 3.06, 1.51 1.78, 5.25 0" stroke="#1e1e1e" stroke-width="2" fill="none"></path></g><g transform="translate(894.0401440229838 15.099343955014035) rotate(0 10.833333015441895 5.400656044985936)"><text x="10.833333015441895" y="7.569559512652296" font-family="Virgil, Segoe UI Emoji" font-size="8.641049671977507px" fill="#1e1e1e" text-anchor="middle" style="white-space: pre;" direction="ltr" dominant-baseline="alphabetic">Italy</text></g><g stroke-linecap="round" transform="translate(934.9011246485475 10.432052483598909) rotate(0 28.299437675726338 10.5)"><path d="M5.25 0 C21.2 1.5, 37.92 2.72, 51.35 0 C51.99 3.44, 58.28 -1.24, 56.6 5.25 C55.21 7.46, 56.52 12.25, 56.6 15.75 C55.99 16.65, 56.47 19.1, 51.35 21 C41.01 18.99, 29.64 17.85, 5.25 21 C4.71 21.19, -2.15 19.29, 0 15.75 C1.5 12.42, -0.46 7.44, 0 5.25 C-1.92 5.26, -1.03 3.12, 5.25 0" stroke="none" stroke-width="0" fill="#ffec99"></path><path d="M5.25 0 C20.37 0.71, 33.64 0.56, 51.35 0 M5.25 0 C22.07 -0.38, 38.12 -0.38, 51.35 0 M51.35 0 C53.8 -1.46, 55.54 -0.04, 56.6 5.25 M51.35 0 C55.07 1.23, 54.63 0.2, 56.6 5.25 M56.6 5.25 C56.98 9.14, 55.73 11.21, 56.6 15.75 M56.6 5.25 C56.13 9.84, 56.88 13.5, 56.6 15.75 M56.6 15.75 C55.15 20.01, 54.58 21.88, 51.35 21 M56.6 15.75 C56.85 17.16, 56.16 22.62, 51.35 21 M51.35 21 C36.44 21.26, 19.95 22.43, 5.25 21 M51.35 21 C37.6 21.44, 24.31 20.33, 5.25 21 M5.25 21 C1.69 20.12, -1.62 18.55, 0 15.75 M5.25 21 C2.55 19.14, 1.21 17.89, 0 15.75 M0 15.75 C0.6 11.75, 0.49 7.68, 0 5.25 M0 15.75 C-0.24 12.86, 0.32 10.45, 0 5.25 M0 5.25 C-0.16 2.89, 1.54 1.55, 5.25 0 M0 5.25 C1.38 1.55, 0.33 0.72, 5.25 0" stroke="#1e1e1e" stroke-width="2" fill="none"></path></g><g transform="translate(950.4088953397157 15.531396438612944) rotate(0 12.791666984558105 5.400656044985936)"><text x="12.791666984558105" y="7.569559512652296" font-family="Virgil, Segoe UI Emoji" font-size="8.641049671977507px" fill="#1e1e1e" text-anchor="middle" style="white-space: pre;" direction="ltr" dominant-baseline="alphabetic">23.09</text></g></svg>