<svg version="1.1" xmlns="http://www.w3.org/2000/svg" viewBox="0 0 1011.5000000000007 43.63151057202731" width="1011.5000000000007" height="43.63151057202731">
  <!-- svg-source:excalidraw -->
  
  <defs>
    <style class="style-fonts">
      @font-face {
        font-family: "Virgil";
        src: url("https://excalidraw.com/Virgil.woff2");
      }
      @font-face {
        font-family: "Cascadia";
        src: url("https://excalidraw.com/Cascadia.woff2");
      }
      @font-face {
        font-family: "Assistant";
        src: url("https://excalidraw.com/Assistant-Regular.woff2");
      }
    </style>
    
  </defs>
  <g stroke-linecap="round" transform="translate(10 10.769720731541383) rotate(0 30.442437446757367 11.046034554472257)"><path d="M5.52 0 C19.38 2.82, 40.63 -3.61, 55.36 0 C58.48 3.36, 61.95 -1.15, 60.88 5.52 C60.52 6.95, 61.75 10.2, 60.88 16.57 C58.79 22.44, 60.89 22.91, 55.36 22.09 C46.75 21.39, 30.06 21.24, 5.52 22.09 C2.4 19.4, 2.33 22.84, 0 16.57 C-1 15.2, -1.47 11.68, 0 5.52 C-1.1 4.07, 5.12 3.14, 5.52 0" stroke="none" stroke-width="0" fill="#b2f2bb"></path><path d="M5.52 0 C23.52 0.8, 40.05 0.53, 55.36 0 M5.52 0 C19.02 -0.63, 33.03 -0.8, 55.36 0 M55.36 0 C59.24 1.07, 59.18 0.49, 60.88 5.52 M55.36 0 C58.4 0.13, 60.89 2.66, 60.88 5.52 M60.88 5.52 C61.86 9.53, 60.86 13.41, 60.88 16.57 M60.88 5.52 C60.55 9.93, 60.88 14.17, 60.88 16.57 M60.88 16.57 C61.1 18.44, 60.18 23.5, 55.36 22.09 M60.88 16.57 C61.75 18.42, 61.3 22.85, 55.36 22.09 M55.36 22.09 C40.68 21.63, 24.57 21.55, 5.52 22.09 M55.36 22.09 C36.07 21.53, 16.03 21.62, 5.52 22.09 M5.52 22.09 C2.54 20.47, 1.05 19.07, 0 16.57 M5.52 22.09 C3.28 21.71, -2.01 21.52, 0 16.57 M0 16.57 C-0.64 13.53, 0.9 9.85, 0 5.52 M0 16.57 C-0.11 14.2, -0.13 11.64, 0 5.52 M0 5.52 C1.2 1.67, 0.61 0.63, 5.52 0 M0 5.52 C1.56 0.36, 1.21 -0.64, 5.52 0" stroke="#1e1e1e" stroke-width="2" fill="none"></path></g><g transform="translate(39.19243744675737 16.006129819075227) rotate(0 1.25 5.809625466938428)"><text x="1.25" y="8.142771054460898" font-family="Virgil, Segoe UI Emoji" font-size="9.29540074710148px" fill="#1e1e1e" text-anchor="middle" style="white-space: pre;" direction="ltr" dominant-baseline="alphabetic">1</text></g><g stroke-linecap="round" transform="translate(258.5013884209832 10.769720731541383) rotate(0 30.442437446757367 11.046034554472257)"><path d="M5.52 0 C24.67 4.11, 46.02 -2.25, 55.36 0 C57.57 -0.49, 62.84 1.23, 60.88 5.52 C59.82 9.25, 61.99 11, 60.88 16.57 C58.44 20.85, 55.47 25.06, 55.36 22.09 C40.71 19.41, 27.26 24.69, 5.52 22.09 C1.81 20.94, -3.21 18.33, 0 16.57 C-0.45 13.41, 1.96 9.52, 0 5.52 C-0.04 -0.61, 4.95 3.45, 5.52 0" stroke="none" stroke-width="0" fill="#a5d8ff"></path><path d="M5.52 0 C22.47 -0.37, 39.79 -1.22, 55.36 0 M5.52 0 C16.94 0.98, 27.31 -0.23, 55.36 0 M55.36 0 C58.49 0.11, 60.89 2.55, 60.88 5.52 M55.36 0 C61.3 -1.93, 61.43 4.07, 60.88 5.52 M60.88 5.52 C61.78 9.11, 60.71 10.57, 60.88 16.57 M60.88 5.52 C60.93 8.76, 61.18 13.38, 60.88 16.57 M60.88 16.57 C61.64 18.66, 61.01 22.75, 55.36 22.09 M60.88 16.57 C60.66 19.93, 60.17 21.86, 55.36 22.09 M55.36 22.09 C43.91 21.24, 28.51 21.84, 5.52 22.09 M55.36 22.09 C42.95 21.11, 30.36 21.33, 5.52 22.09 M5.52 22.09 C3.1 21.76, -1.74 21.35, 0 16.57 M5.52 22.09 C1.43 23.12, -0.99 19.03, 0 16.57 M0 16.57 C-0.73 13.88, -0.34 9.71, 0 5.52 M0 16.57 C0.34 12.58, -0.33 8.86, 0 5.52 M0 5.52 C1.35 0.55, 1.3 -0.55, 5.52 0 M0 5.52 C0.81 1.05, 3.44 -1.83, 5.52 0" stroke="#1e1e1e" stroke-width="2" fill="none"></path></g><g transform="translate(273.7604924708289 16.006129819075227) rotate(0 15.183333396911621 5.809625466938428)"><text x="15.183333396911621" y="8.142771054460898" font-family="Virgil, Segoe UI Emoji" font-size="9.29540074710148px" fill="#1e1e1e" text-anchor="middle" style="white-space: pre;" direction="ltr" dominant-baseline="alphabetic">Robert</text></g><g stroke-linecap="round" transform="translate(507.0027768419666 10.769720731541383) rotate(0 30.44243744675734 11.046034554472257)"><path d="M5.52 0 C23.66 0.26, 46.69 0.14, 55.36 0 C56.44 1.62, 58.98 -0.25, 60.88 5.52 C59.64 9.84, 59.01 15.13, 60.88 16.57 C61.08 18.1, 59.08 22.66, 55.36 22.09 C44.11 21.59, 29.71 20.81, 5.52 22.09 C5.35 19.32, 3.12 19.16, 0 16.57 C-0.2 11.22, 1.54 10.48, 0 5.52 C0.16 3.08, 3.11 -0.6, 5.52 0" stroke="none" stroke-width="0" fill="#ffc9c9"></path><path d="M5.52 0 C18.51 -0.8, 32.61 0.46, 55.36 0 M5.52 0 C22.86 0.39, 40.75 0.69, 55.36 0 M55.36 0 C61.01 -1.67, 61.36 3.78, 60.88 5.52 M55.36 0 C58.23 0.15, 58.99 3.69, 60.88 5.52 M60.88 5.52 C61.29 9.35, 61.36 13.6, 60.88 16.57 M60.88 5.52 C61.16 7.4, 61.49 10.33, 60.88 16.57 M60.88 16.57 C60.69 19.98, 60.02 21.89, 55.36 22.09 M60.88 16.57 C60.07 18.14, 58.14 24.08, 55.36 22.09 M55.36 22.09 C41.16 20.46, 28.01 22.78, 5.52 22.09 M55.36 22.09 C45.07 21.63, 32.65 22.35, 5.52 22.09 M5.52 22.09 C1.48 22.99, -0.86 19.19, 0 16.57 M5.52 22.09 C1.99 24.07, -1.01 18.93, 0 16.57 M0 16.57 C0.65 12.45, 0.88 9.21, 0 5.52 M0 16.57 C0.44 12.99, -0.08 9.98, 0 5.52 M0 5.52 C0.71 1.16, 3.23 -1.59, 5.52 0 M0 5.52 C2.2 2.91, -0.07 -0.36, 5.52 0" stroke="#1e1e1e" stroke-width="2" fill="none"></path></g><g transform="translate(531.3118810825472 16.006129819075227) rotate(0 6.133333206176758 5.809625466938428)"><text x="6.133333206176758" y="8.142771054460898" font-family="Virgil, Segoe UI Emoji" font-size="9.29540074710148px" fill="#1e1e1e" text-anchor="middle" style="white-space: pre;" direction="ltr" dominant-baseline="alphabetic">UK</text></g><g stroke-linecap="round" transform="translate(755.5041652629501 10.769720731541383) rotate(0 30.442437446757353 11.046034554472257)"><path d="M5.52 0 C17.2 1.77, 32.18 -1.94, 55.36 0 C61.24 1.85, 61.7 -0.6, 60.88 5.52 C60.79 7.83, 60.71 12.83, 60.88 16.57 C58.19 22.58, 61.64 22.06, 55.36 22.09 C45.51 18.84, 31.76 20.52, 5.52 22.09 C4.07 25.37, 3.14 20.21, 0 16.57 C-0.09 14.69, 0.53 11.11, 0 5.52 C2.48 1.25, 1 -3.35, 5.52 0" stroke="none" stroke-width="0" fill="#ffec99"></path><path d="M5.52 0 C18.9 -1.76, 28.79 -0.61, 55.36 0 M5.52 0 C21.73 -1.01, 36.2 0.79, 55.36 0 M55.36 0 C58.34 0.13, 59.24 3.45, 60.88 5.52 M55.36 0 C60.43 -0.37, 59.22 2.72, 60.88 5.52 M60.88 5.52 C59.93 9.32, 61.71 12.27, 60.88 16.57 M60.88 5.52 C60.94 7.88, 61.26 10.34, 60.88 16.57 M60.88 16.57 C60.17 18.41, 58.26 23.82, 55.36 22.09 M60.88 16.57 C60.13 19.69, 58.98 21.08, 55.36 22.09 M55.36 22.09 C42.82 23.32, 32.33 23.52, 5.52 22.09 M55.36 22.09 C41.06 22.81, 26.68 21.83, 5.52 22.09 M5.52 22.09 C1.97 23.81, -0.88 19.1, 0 16.57 M5.52 22.09 C3.29 21.57, -0.19 21.56, 0 16.57 M0 16.57 C-0.18 12.69, 0.26 10.92, 0 5.52 M0 16.57 C0.23 13.78, 0.41 10.93, 0 5.52 M0 5.52 C1.91 2.77, 0.18 -0.31, 5.52 0 M0 5.52 C2.15 2.52, -0.07 -0.94, 5.52 0" stroke="#1e1e1e" stroke-width="2" fill="none"></path></g><g transform="translate(775.5216025189726 16.006129819075227) rotate(0 10.425000190734863 5.809625466938428)"><text x="10.425000190734863" y="8.142771054460898" font-family="Virgil, Segoe UI Emoji" font-size="9.29540074710148px" fill="#1e1e1e" text-anchor="middle" style="white-space: pre;" direction="ltr" dominant-baseline="alphabetic">33.5</text></g><g stroke-linecap="round" transform="translate(73.39042857744744 10) rotate(0 30.602210314331728 11.815755286013655)"><path d="M5.91 0 C25.13 2.36, 40.79 -1.92, 55.3 0 C59.83 -3.57, 64.17 2.16, 61.2 5.91 C59.61 10.12, 62.74 11.57, 61.2 17.72 C60.05 18.46, 57.31 27.14, 55.3 23.63 C46.52 26.64, 36.42 23.32, 5.91 23.63 C-0.48 26.74, 3.45 21.82, 0 17.72 C1.39 13.42, -0.57 7.84, 0 5.91 C-0.46 4.88, 4.19 -3.14, 5.91 0" stroke="none" stroke-width="0" fill="#b2f2bb"></path><path d="M5.91 0 C16.62 0.14, 27.82 2.1, 55.3 0 M5.91 0 C16.24 -0.41, 26.45 0.33, 55.3 0 M55.3 0 C60.44 -0.32, 59.76 2.73, 61.2 5.91 M55.3 0 C58.92 1.02, 61.45 -0.12, 61.2 5.91 M61.2 5.91 C60.35 11.28, 61.68 14.23, 61.2 17.72 M61.2 5.91 C61.05 8.75, 61.03 13.18, 61.2 17.72 M61.2 17.72 C60.55 21.17, 59.18 22.75, 55.3 23.63 M61.2 17.72 C59.35 20.86, 60.04 21.77, 55.3 23.63 M55.3 23.63 C37.55 22.2, 21.56 23.58, 5.91 23.63 M55.3 23.63 C38.34 24.23, 20.81 22.79, 5.91 23.63 M5.91 23.63 C3.23 23.18, -0.16 22.8, 0 17.72 M5.91 23.63 C1.73 25.41, 1.38 21.47, 0 17.72 M0 17.72 C-0.8 14.59, -0.36 12.51, 0 5.91 M0 17.72 C0.48 14.86, -0.57 11.35, 0 5.91 M0 5.91 C1.87 2.56, 0.31 -0.82, 5.91 0 M0 5.91 C-0.31 3.22, 1.58 -1.66, 5.91 0" stroke="#1e1e1e" stroke-width="2" fill="none"></path></g><g transform="translate(100.65097219332335 15.975638813812964) rotate(0 3.3416666984558105 5.840116472200705)"><text x="3.3416666984558105" y="8.185507247436512" font-family="Virgil, Segoe UI Emoji" font-size="9.344186355521131px" fill="#1e1e1e" text-anchor="middle" style="white-space: pre;" direction="ltr" dominant-baseline="alphabetic">2</text></g><g stroke-linecap="round" transform="translate(321.8918169984306 10) rotate(0 30.6022103143317 11.815755286013655)"><path d="M5.91 0 C23.85 -2.97, 43.57 0.79, 55.3 0 C57.08 0.04, 61.77 -0.73, 61.2 5.91 C60.68 8.32, 60.22 16.6, 61.2 17.72 C58.43 24.78, 58.14 25.86, 55.3 23.63 C33.54 26.73, 20.13 23.78, 5.91 23.63 C3.21 24.9, -0.6 24.14, 0 17.72 C-0.22 16.09, 1.36 9.17, 0 5.91 C2.42 -1.06, 0.32 -2.39, 5.91 0" stroke="none" stroke-width="0" fill="#a5d8ff"></path><path d="M5.91 0 C19.05 -0.01, 37.48 -1.19, 55.3 0 M5.91 0 C21.65 -0.56, 35.45 -0.02, 55.3 0 M55.3 0 C58.96 0.88, 61.42 0.15, 61.2 5.91 M55.3 0 C60.54 1.62, 62.07 0.14, 61.2 5.91 M61.2 5.91 C61.08 11.19, 61.12 14.9, 61.2 17.72 M61.2 5.91 C60.97 8.22, 61.14 10.57, 61.2 17.72 M61.2 17.72 C59.59 20.96, 59.93 22.01, 55.3 23.63 M61.2 17.72 C62.42 20.3, 60.68 23.25, 55.3 23.63 M55.3 23.63 C45.68 22.69, 33.22 23.68, 5.91 23.63 M55.3 23.63 C36.87 23.12, 17.1 23.92, 5.91 23.63 M5.91 23.63 C1.76 25.18, 1.2 21.49, 0 17.72 M5.91 23.63 C0.55 24.35, 1.56 20.18, 0 17.72 M0 17.72 C-0.37 15.32, -0.91 12.41, 0 5.91 M0 17.72 C0.65 13.8, -0.39 9.29, 0 5.91 M0 5.91 C-0.27 3.06, 1.63 -1.45, 5.91 0 M0 5.91 C1.03 0.75, 0.63 1.4, 5.91 0" stroke="#1e1e1e" stroke-width="2" fill="none"></path></g><g transform="translate(335.96902769423207 15.975638813812964) rotate(0 16.524999618530273 5.840116472200705)"><text x="16.524999618530273" y="8.185507247436512" font-family="Virgil, Segoe UI Emoji" font-size="9.344186355521131px" fill="#1e1e1e" text-anchor="middle" style="white-space: pre;" direction="ltr" dominant-baseline="alphabetic">Alberto</text></g><g stroke-linecap="round" transform="translate(570.3932054194141 10) rotate(0 30.6022103143317 11.815755286013655)"><path d="M5.91 0 C13.67 -0.01, 26.31 -2.74, 55.3 0 C61.57 2.59, 61.18 0.82, 61.2 5.91 C59.45 10.24, 60.44 12.21, 61.2 17.72 C64.48 24.8, 59.19 21.18, 55.3 23.63 C37.45 24.94, 16.53 26.15, 5.91 23.63 C1.37 22.79, -3.35 21.2, 0 17.72 C1.3 11.43, -1.1 7.31, 0 5.91 C-2.55 0.72, 3.08 -0.35, 5.91 0" stroke="none" stroke-width="0" fill="#ffc9c9"></path><path d="M5.91 0 C22.02 -1.47, 39.48 1.38, 55.3 0 M5.91 0 C19.79 0.25, 34.06 -1.1, 55.3 0 M55.3 0 C60.37 1.41, 61.96 0.38, 61.2 5.91 M55.3 0 C61.49 0.76, 60.98 1.65, 61.2 5.91 M61.2 5.91 C60.11 9.56, 62.21 13.77, 61.2 17.72 M61.2 5.91 C60.72 8.96, 61.41 11.94, 61.2 17.72 M61.2 17.72 C62.26 20.48, 60.49 23.3, 55.3 23.63 M61.2 17.72 C59.2 22.93, 58.82 24.66, 55.3 23.63 M55.3 23.63 C44.31 22.78, 28.75 24.92, 5.91 23.63 M55.3 23.63 C41.49 24.69, 28.49 23.83, 5.91 23.63 M5.91 23.63 C0.74 24.26, 1.35 20.37, 0 17.72 M5.91 23.63 C1.34 22.99, 0.81 20.88, 0 17.72 M0 17.72 C0.64 12.38, -0.09 10.1, 0 5.91 M0 17.72 C0.02 14.15, 0 9.51, 0 5.91 M0 5.91 C0.9 0.91, 0.81 1.22, 5.91 0 M0 5.91 C1.18 2.49, 0.41 0.38, 5.91 0" stroke="#1e1e1e" stroke-width="2" fill="none"></path></g><g transform="translate(581.2454157337459 15.975638813812964) rotate(0 19.75 5.840116472200705)"><text x="19.75" y="8.185507247436512" font-family="Virgil, Segoe UI Emoji" font-size="9.344186355521131px" fill="#1e1e1e" text-anchor="middle" style="white-space: pre;" direction="ltr" dominant-baseline="alphabetic">Portugal</text></g><g stroke-linecap="round" transform="translate(818.8945938403976 10) rotate(0 30.6022103143317 11.815755286013655)"><path d="M5.91 0 C23.11 3.26, 35.61 -0.48, 55.3 0 C56.03 -1.92, 64.71 -0.81, 61.2 5.91 C63.08 12.33, 61.11 13.6, 61.2 17.72 C64.31 25.12, 59.39 24.87, 55.3 23.63 C38.15 23.4, 18.83 23.78, 5.91 23.63 C4.88 25.85, -3.14 24.09, 0 17.72 C-1.41 14.43, 0.76 12.41, 0 5.91 C-3.4 1.73, 1.27 -0.35, 5.91 0" stroke="none" stroke-width="0" fill="#ffec99"></path><path d="M5.91 0 C16.34 -1.75, 28.18 -0.57, 55.3 0 M5.91 0 C23.48 1.15, 40.29 -0.35, 55.3 0 M55.3 0 C61.2 0.66, 61.01 1.69, 61.2 5.91 M55.3 0 C60.36 -0.24, 60.39 -0.14, 61.2 5.91 M61.2 5.91 C61.02 8.95, 60.79 11.11, 61.2 17.72 M61.2 5.91 C61.56 8.69, 61.62 12.07, 61.2 17.72 M61.2 17.72 C59.46 22.76, 58.88 24.53, 55.3 23.63 M61.2 17.72 C60.22 20.44, 59.39 25.61, 55.3 23.63 M55.3 23.63 C42.2 23.78, 31.15 23.73, 5.91 23.63 M55.3 23.63 C36.04 23.9, 18.69 22.94, 5.91 23.63 M5.91 23.63 C1.42 23.08, 0.71 20.98, 0 17.72 M5.91 23.63 C3.56 21.8, 2.2 22.73, 0 17.72 M0 17.72 C0.37 14.18, -0.47 12.44, 0 5.91 M0 17.72 C0.29 13.23, -0.32 9.71, 0 5.91 M0 5.91 C1.03 2.42, 0.61 0.33, 5.91 0 M0 5.91 C-2.28 3.86, 2.09 -1.38, 5.91 0" stroke="#1e1e1e" stroke-width="2" fill="none"></path></g><g transform="translate(835.7468041547294 15.975638813812964) rotate(0 13.75 5.840116472200705)"><text x="13.75" y="8.185507247436512" font-family="Virgil, Segoe UI Emoji" font-size="9.344186355521131px" fill="#1e1e1e" text-anchor="middle" style="white-space: pre;" direction="ltr" dominant-baseline="alphabetic">54.02</text></g><g stroke-linecap="round" transform="translate(137.1004028900436 10.815755286013655) rotate(0 29.895501405810705 11)"><path d="M5.5 0 C20.45 -1.64, 45.31 -2.5, 54.29 0 C61.08 -1.1, 62.02 5.11, 59.79 5.5 C61.5 11.66, 59.87 14.7, 59.79 16.5 C61.06 19.56, 60.43 21.41, 54.29 22 C43.71 24.1, 24.17 24.31, 5.5 22 C-1.19 20.35, -2.39 17.62, 0 16.5 C-1.93 13.45, -0.45 10.47, 0 5.5 C1.48 3.7, 1.99 -2.54, 5.5 0" stroke="none" stroke-width="0" fill="#b2f2bb"></path><path d="M5.5 0 C17.49 0.28, 25.9 1.2, 54.29 0 M5.5 0 C24.55 0.72, 41.55 0.25, 54.29 0 M54.29 0 C58.93 -0.2, 59.08 0, 59.79 5.5 M54.29 0 C57.05 1.99, 59.04 1.27, 59.79 5.5 M59.79 5.5 C59.36 9.15, 58.85 12.62, 59.79 16.5 M59.79 5.5 C59.38 8.45, 59.76 11.05, 59.79 16.5 M59.79 16.5 C58.93 19.1, 58.09 23.72, 54.29 22 M59.79 16.5 C58.78 18.85, 59.4 21.48, 54.29 22 M54.29 22 C41.6 23.15, 25.64 20.72, 5.5 22 M54.29 22 C37.85 21.41, 22.31 21.34, 5.5 22 M5.5 22 C3.22 20.41, 1.91 21.1, 0 16.5 M5.5 22 C-0.08 21.64, 2.15 20.85, 0 16.5 M0 16.5 C0.64 13.93, -0.75 12.22, 0 5.5 M0 16.5 C0.35 13.91, -0.31 11.15, 0 5.5 M0 5.5 C-1.98 3.48, 1.94 -1.2, 5.5 0 M0 5.5 C0.02 2.19, 0.11 1.49, 5.5 0" stroke="#1e1e1e" stroke-width="2" fill="none"></path></g><g transform="translate(163.8875709466264 16.110506926126106) rotate(0 3.1083333492279053 5.705248359887534)"><text x="3.1083333492279053" y="7.99647610121837" font-family="Virgil, Segoe UI Emoji" font-size="9.128397375820057px" fill="#1e1e1e" text-anchor="middle" style="white-space: pre;" direction="ltr" dominant-baseline="alphabetic">3</text></g><g stroke-linecap="round" transform="translate(385.6017913110269 10.815755286013655) rotate(0 29.895501405810677 11)"><path d="M5.5 0 C20.65 -0.42, 31.79 3.95, 54.29 0 C61.1 -0.04, 57.34 4.94, 59.79 5.5 C60.5 9.52, 61.16 13.88, 59.79 16.5 C58.95 16.82, 57.5 24.91, 54.29 22 C33.62 20.95, 16.62 20.04, 5.5 22 C0.58 23.12, -0.35 16.76, 0 16.5 C0.86 14.3, 0.13 8.65, 0 5.5 C3.39 4.71, 2.42 3.26, 5.5 0" stroke="none" stroke-width="0" fill="#a5d8ff"></path><path d="M5.5 0 C22.07 0.47, 34.24 1.68, 54.29 0 M5.5 0 C22.23 -0.04, 37.63 -0.85, 54.29 0 M54.29 0 C57.17 1.73, 59.14 1.34, 59.79 5.5 M54.29 0 C57.89 -1.01, 57.93 1.03, 59.79 5.5 M59.79 5.5 C59.05 9.87, 59.52 11.91, 59.79 16.5 M59.79 5.5 C59.54 9.11, 59.81 13.78, 59.79 16.5 M59.79 16.5 C58.91 19.02, 59.22 21.55, 54.29 22 M59.79 16.5 C59.6 21.47, 57.72 23.78, 54.29 22 M54.29 22 C37.36 23.05, 17.88 21.15, 5.5 22 M54.29 22 C41.7 21.04, 28.68 22.3, 5.5 22 M5.5 22 C0.17 21.69, 1.87 20.76, 0 16.5 M5.5 22 C-0.08 21.06, -0.31 21.42, 0 16.5 M0 16.5 C-0.5 12.75, 0.75 10.84, 0 5.5 M0 16.5 C-0.47 13.4, 0.1 9.07, 0 5.5 M0 5.5 C0.02 2.15, 0.34 1.3, 5.5 0 M0 5.5 C1.66 1.82, 1.1 -2.05, 5.5 0" stroke="#1e1e1e" stroke-width="2" fill="none"></path></g><g transform="translate(404.39729233536787 16.110506926126106) rotate(0 11.100000381469727 5.705248359887534)"><text x="11.100000381469727" y="7.99647610121837" font-family="Virgil, Segoe UI Emoji" font-size="9.128397375820057px" fill="#1e1e1e" text-anchor="middle" style="white-space: pre;" direction="ltr" dominant-baseline="alphabetic">Piotr</text></g><g stroke-linecap="round" transform="translate(634.1031797320104 10.815755286013655) rotate(0 29.895501405810677 11)"><path d="M5.5 0 C21.79 -0.84, 29.36 2.31, 54.29 0 C61.41 0.16, 61.03 3.1, 59.79 5.5 C59.46 6.77, 59.67 13.33, 59.79 16.5 C62.01 17.03, 60.38 18.97, 54.29 22 C40.64 22.49, 29.12 17.98, 5.5 22 C1.59 21.3, -0.35 21.65, 0 16.5 C1.85 14.21, 0.32 10.55, 0 5.5 C-2.37 -1.61, 3.37 1.6, 5.5 0" stroke="none" stroke-width="0" fill="#ffc9c9"></path><path d="M5.5 0 C22.63 -0.67, 38.17 0.5, 54.29 0 M5.5 0 C19.24 1.31, 33.45 0.2, 54.29 0 M54.29 0 C57.9 -0.88, 58.18 1.13, 59.79 5.5 M54.29 0 C58.76 -1.86, 61 0.47, 59.79 5.5 M59.79 5.5 C60.38 9.29, 60.26 13.01, 59.79 16.5 M59.79 5.5 C59.56 7.9, 60.14 10.8, 59.79 16.5 M59.79 16.5 C59.63 21.3, 57.75 23.55, 54.29 22 M59.79 16.5 C61.17 19.97, 56.54 22.72, 54.29 22 M54.29 22 C35.8 22.57, 17.73 23.25, 5.5 22 M54.29 22 C42.7 22.07, 33.7 22.52, 5.5 22 M5.5 22 C0.17 21.18, -0.27 21.25, 0 16.5 M5.5 22 C1.45 20.34, 1.03 18.95, 0 16.5 M0 16.5 C0.18 13.09, 0.12 10.09, 0 5.5 M0 16.5 C0 12.38, -0.42 8.44, 0 5.5 M0 5.5 C1.44 1.82, 1.19 -1.78, 5.5 0 M0 5.5 C-1.23 4.07, 0.06 1.99, 5.5 0" stroke="#1e1e1e" stroke-width="2" fill="none"></path></g><g transform="translate(649.4653473594398 16.110506926126106) rotate(0 14.533333778381348 5.705248359887534)"><text x="14.533333778381348" y="7.99647610121837" font-family="Virgil, Segoe UI Emoji" font-size="9.128397375820057px" fill="#1e1e1e" text-anchor="middle" style="white-space: pre;" direction="ltr" dominant-baseline="alphabetic">Poland</text></g><g stroke-linecap="round" transform="translate(882.6045681529939 10.815755286013655) rotate(0 29.895501405810684 11)"><path d="M5.5 0 C23.53 -0.6, 35.9 0.51, 54.29 0 C57.35 2.48, 59.2 0.99, 59.79 5.5 C60.98 6.05, 61.1 8.39, 59.79 16.5 C58.14 17.78, 55.41 20.75, 54.29 22 C37.9 20.47, 21.64 22.65, 5.5 22 C3.7 22.16, -2.54 23.56, 0 16.5 C-1.33 10.43, 0.82 9.02, 0 5.5 C-2.01 3.25, 2.65 1.76, 5.5 0" stroke="none" stroke-width="0" fill="#ffec99"></path><path d="M5.5 0 C19.47 -0.95, 32 -1.03, 54.29 0 M5.5 0 C24.33 -0.32, 42.41 -0.23, 54.29 0 M54.29 0 C58.66 -1.62, 60.84 0.65, 59.79 5.5 M54.29 0 C59.4 -0.38, 57.78 3.1, 59.79 5.5 M59.79 5.5 C59.25 8.68, 60.78 11.22, 59.79 16.5 M59.79 5.5 C59.82 8.48, 59.8 11.26, 59.79 16.5 M59.79 16.5 C60.99 20, 56.72 22.63, 54.29 22 M59.79 16.5 C61.35 18.68, 57.33 21.36, 54.29 22 M54.29 22 C36.34 24.25, 22.5 20.68, 5.5 22 M54.29 22 C39.59 21.74, 26.41 22.69, 5.5 22 M5.5 22 C1.5 20.55, 0.9 19.11, 0 16.5 M5.5 22 C0.5 23.4, 1.18 20.69, 0 16.5 M0 16.5 C0.89 14, -0.68 11.4, 0 5.5 M0 16.5 C0.48 13.02, -0.09 9.07, 0 5.5 M0 5.5 C-1.07 3.78, 0.29 1.73, 5.5 0 M0 5.5 C-0.7 3.26, 3.93 2.01, 5.5 0" stroke="#1e1e1e" stroke-width="2" fill="none"></path></g><g transform="translate(902.3917359711581 16.110506926126106) rotate(0 10.108333587646484 5.705248359887534)"><text x="10.108333587646484" y="7.99647610121837" font-family="Virgil, Segoe UI Emoji" font-size="9.128397375820057px" fill="#1e1e1e" text-anchor="middle" style="white-space: pre;" direction="ltr" dominant-baseline="alphabetic">45.3</text></g><g stroke-linecap="round" transform="translate(199.3969593855977 11.315755286013655) rotate(0 28.299437675726324 10.5)"><path d="M5.25 0 C18.67 2.18, 32.71 -1.14, 51.35 0 C51.5 -0.46, 59.51 3.97, 56.6 5.25 C55.86 6.23, 55.39 9.06, 56.6 15.75 C57.71 18.9, 51.45 20.76, 51.35 21 C40.28 21.5, 22.94 24.73, 5.25 21 C4.62 21.59, 3.26 16.88, 0 15.75 C-1.14 14.35, 0.35 12.38, 0 5.25 C0.69 4.88, 2.01 1.78, 5.25 0" stroke="none" stroke-width="0" fill="#b2f2bb"></path><path d="M5.25 0 C19.17 -0.47, 29.14 0.12, 51.35 0 M5.25 0 C17.4 -0.65, 29.39 -0.43, 51.35 0 M51.35 0 C56.1 -0.33, 54.85 2.85, 56.6 5.25 M51.35 0 C54.44 1.03, 55.61 0.52, 56.6 5.25 M56.6 5.25 C56.09 9.13, 56.45 11.6, 56.6 15.75 M56.6 5.25 C56.9 8.95, 56.26 12.91, 56.6 15.75 M56.6 15.75 C57.95 17.96, 54.3 20.45, 51.35 21 M56.6 15.75 C57.41 18.46, 56.44 19.17, 51.35 21 M51.35 21 C32.8 22.49, 15.47 18.96, 5.25 21 M51.35 21 C39.24 20.53, 27.91 20.72, 5.25 21 M5.25 21 C0.59 22.22, 1.03 19.7, 0 15.75 M5.25 21 C0.19 21.38, -2.28 21.14, 0 15.75 M0 15.75 C0.23 11.76, 0.74 10.09, 0 5.25 M0 15.75 C-0.25 13.12, -0.37 9.92, 0 5.25 M0 5.25 C-0.61 2.99, 3.57 1.75, 5.25 0 M0 5.25 C-0.03 0.19, 3.74 2.21, 5.25 0" stroke="#1e1e1e" stroke-width="2" fill="none"></path></g><g transform="translate(224.929730410552 16.41509924102769) rotate(0 2.7666666507720947 5.400656044985936)"><text x="2.7666666507720947" y="7.569559512652296" font-family="Virgil, Segoe UI Emoji" font-size="8.641049671977507px" fill="#1e1e1e" text-anchor="middle" style="white-space: pre;" direction="ltr" dominant-baseline="alphabetic">4</text></g><g stroke-linecap="round" transform="translate(447.8983478065811 11.315755286013655) rotate(0 28.299437675726324 10.5)"><path d="M5.25 0 C18.9 -0.27, 42.16 2.41, 51.35 0 C51.71 2.42, 53.57 0.1, 56.6 5.25 C57.05 7.52, 54.68 10.03, 56.6 15.75 C55.9 18.9, 56.33 22.86, 51.35 21 C40.19 22.37, 26.54 19.41, 5.25 21 C-1.69 22.54, 1.6 17.24, 0 15.75 C0.32 13.83, 0.09 9.55, 0 5.25 C-1.2 -0.54, 0.32 2.84, 5.25 0" stroke="none" stroke-width="0" fill="#a5d8ff"></path><path d="M5.25 0 C16.7 -1.6, 29.2 0.71, 51.35 0 M5.25 0 C15.98 0.11, 24.58 0.82, 51.35 0 M51.35 0 C54.49 0.89, 55.74 0.68, 56.6 5.25 M51.35 0 C55 1.98, 55.59 0.43, 56.6 5.25 M56.6 5.25 C57.17 8.95, 57.39 13.5, 56.6 15.75 M56.6 5.25 C56.89 7.97, 56.39 11.22, 56.6 15.75 M56.6 15.75 C57.31 18.57, 56.24 19.41, 51.35 21 M56.6 15.75 C58.8 20.32, 52.94 20.64, 51.35 21 M51.35 21 C32.39 20.35, 16.16 20.28, 5.25 21 M51.35 21 C40.27 21.37, 30.86 20.98, 5.25 21 M5.25 21 C0.39 21.33, -1.98 20.9, 0 15.75 M5.25 21 C1.87 19.62, 0.02 19.61, 0 15.75 M0 15.75 C-0.08 13.05, -1 10.46, 0 5.25 M0 15.75 C-0.08 11.9, 0.56 7.86, 0 5.25 M0 5.25 C-0.02 0.39, 3.48 1.92, 5.25 0 M0 5.25 C0.1 2.54, 2.56 -0.39, 5.25 0" stroke="#1e1e1e" stroke-width="2" fill="none"></path></g><g transform="translate(463.58945189466095 16.41509924102769) rotate(0 12.608333587646484 5.400656044985936)"><text x="12.608333587646484" y="7.569559512652296" font-family="Virgil, Segoe UI Emoji" font-size="8.641049671977507px" fill="#1e1e1e" text-anchor="middle" style="white-space: pre;" direction="ltr" dominant-baseline="alphabetic">Marco</text></g><g stroke-linecap="round" transform="translate(696.3997362275646 11.315755286013655) rotate(0 28.299437675726338 10.5)"><path d="M5.25 0 C15.35 1.91, 28.7 -2.16, 51.35 0 C52.46 -2.55, 55.35 2.87, 56.6 5.25 C56.05 8.11, 57.2 12.32, 56.6 15.75 C56.76 16.71, 58.24 23.87, 51.35 21 C33.32 22, 23.78 18.45, 5.25 21 C3.17 21.81, 1.76 19.94, 0 15.75 C-0.64 10.48, -0.77 9.12, 0 5.25 C-3.35 0.45, 0.24 2.1, 5.25 0" stroke="none" stroke-width="0" fill="#ffc9c9"></path><path d="M5.25 0 C13.74 0.89, 24.28 1.09, 51.35 0 M5.25 0 C18.14 0.19, 30.95 -0.79, 51.35 0 M51.35 0 C54.98 1.72, 55.72 0.6, 56.6 5.25 M51.35 0 C56.29 -0.52, 56.41 3.06, 56.6 5.25 M56.6 5.25 C56.59 7.64, 57.01 12.04, 56.6 15.75 M56.6 5.25 C56.76 7.54, 56.93 9.78, 56.6 15.75 M56.6 15.75 C58.51 20.18, 53.19 20.69, 51.35 21 M56.6 15.75 C58.75 19.93, 52.94 20.06, 51.35 21 M51.35 21 C36.7 21.82, 23.88 19.76, 5.25 21 M51.35 21 C34.03 21.27, 17.08 21.93, 5.25 21 M5.25 21 C1.86 19.8, 0.02 19.56, 0 15.75 M5.25 21 C0.03 22.49, 1.66 19.23, 0 15.75 M0 15.75 C1.12 12.13, 1 9.8, 0 5.25 M0 15.75 C-0.1 11.59, 0.36 8.65, 0 5.25 M0 5.25 C0.09 2.44, 2.45 -0.34, 5.25 0 M0 5.25 C1.58 1.37, 1.21 -2.14, 5.25 0" stroke="#1e1e1e" stroke-width="2" fill="none"></path></g><g transform="translate(713.8658408878491 16.41509924102769) rotate(0 10.833333015441895 5.400656044985936)"><text x="10.833333015441895" y="7.569559512652296" font-family="Virgil, Segoe UI Emoji" font-size="8.641049671977507px" fill="#1e1e1e" text-anchor="middle" style="white-space: pre;" direction="ltr" dominant-baseline="alphabetic">Italy</text></g><g stroke-linecap="round" transform="translate(944.901124648548 11.315755286013655) rotate(0 28.299437675726338 10.5)"><path d="M5.25 0 C19.8 -2.17, 37.87 1.5, 51.35 0 C54.5 -3.4, 56.36 1.05, 56.6 5.25 C56.76 6.96, 58.46 12.85, 56.6 15.75 C57.19 22.51, 52.48 17.56, 51.35 21 C36.97 21.35, 21.5 21.23, 5.25 21 C4.88 21.26, 1.78 18.05, 0 15.75 C-1.68 12.59, -0.71 11.89, 0 5.25 C2.61 2.99, 1.39 -0.17, 5.25 0" stroke="none" stroke-width="0" fill="#ffec99"></path><path d="M5.25 0 C21.18 -2.03, 38.87 -0.65, 51.35 0 M5.25 0 C21.21 1.1, 36.59 -0.33, 51.35 0 M51.35 0 C56.11 -0.45, 56.44 2.89, 56.6 5.25 M51.35 0 C54.61 1.78, 57.98 1.55, 56.6 5.25 M56.6 5.25 C55.95 7.47, 56.34 10.63, 56.6 15.75 M56.6 5.25 C57.17 8.29, 56.24 10.75, 56.6 15.75 M56.6 15.75 C58.47 19.84, 53.19 20.18, 51.35 21 M56.6 15.75 C56.29 20.5, 54.46 19.34, 51.35 21 M51.35 21 C36.67 21.76, 20 19.38, 5.25 21 M51.35 21 C36.81 20.78, 22.17 21.54, 5.25 21 M5.25 21 C0.25 22.3, 1.44 19.23, 0 15.75 M5.25 21 C1.02 18.95, -1.23 21.49, 0 15.75 M0 15.75 C0.56 14.37, 0.83 11.06, 0 5.25 M0 15.75 C-0.07 13.49, 0.09 10.79, 0 5.25 M0 5.25 C1.38 1.42, 1.28 -1.86, 5.25 0 M0 5.25 C-0.29 3.61, 3.17 -2, 5.25 0" stroke="#1e1e1e" stroke-width="2" fill="none"></path></g><g transform="translate(960.4088953397163 16.41509924102769) rotate(0 12.791666984558105 5.400656044985936)"><text x="12.791666984558105" y="7.569559512652296" font-family="Virgil, Segoe UI Emoji" font-size="8.641049671977507px" fill="#1e1e1e" text-anchor="middle" style="white-space: pre;" direction="ltr" dominant-baseline="alphabetic">23.09</text></g></svg>