<svg version="1.1" xmlns="http://www.w3.org/2000/svg" viewBox="0 0 1487.031130125909 1301.0285072437619" width="1487.031130125909" height="1301.0285072437619">
  <!-- svg-source:excalidraw -->
  
  <defs>
    <style class="style-fonts">
      @font-face {
        font-family: "Virgil";
        src: url("https://excalidraw.com/Virgil.woff2");
      }
      @font-face {
        font-family: "Cascadia";
        src: url("https://excalidraw.com/Cascadia.woff2");
      }
      @font-face {
        font-family: "Assistant";
        src: url("https://excalidraw.com/Assistant-Regular.woff2");
      }
    </style>
    
  </defs>
  <rect x="0" y="0" width="1487.031130125909" height="1301.0285072437619" fill="#ffffff"></rect><g stroke-linecap="round" transform="translate(10 10) rotate(0 733.5155650629545 29.721659908090714)"><path d="M-2.7 3.59 L1465.64 0.4 L1466.62 59.3 L3.31 56.68" stroke="none" stroke-width="0" fill="#b2f2bb"></path><path d="M-1.16 0.94 C558.06 -4.73, 1120.05 -3.71, 1465.85 0.18 M-0.36 -0.58 C521.98 -1.01, 1044.34 -0.57, 1467.03 -0.26 M1467.68 -0.32 C1470.41 13.58, 1469.49 31.85, 1468.45 55.86 M1465.81 -0.46 C1465.22 17.17, 1464.39 34.31, 1465.65 58.41 M1467.14 61.04 C920.18 57.8, 374.65 59.06, -1.08 58.98 M1467.63 58.77 C982.72 60.2, 499.93 59.49, 0.54 59.87 M1.45 61.18 C-1.55 48.97, -4.79 37.66, -3.92 2.21 M-0.77 58.35 C0.93 43.31, 0.11 32.9, 0.55 -0.61" stroke="#1e1e1e" stroke-width="2" fill="none"></path></g><g transform="translate(31.04725587260782 21.804720877538784) rotate(0 180.5439453125 16.09999999999991)"><text x="0" y="25.760546874999996" font-family="Helvetica, Segoe UI Emoji" font-size="28px" fill="#1e1e1e" text-anchor="start" style="white-space: pre;" direction="ltr" dominant-baseline="alphabetic">dense union (int, float, string)</text></g><g transform="translate(644.2892167345492 21.474951782862263) rotate(0 232.681640625 16.09999999999991)"><text x="0" y="25.760546874999996" font-family="Helvetica, Segoe UI Emoji" font-size="28px" fill="#1e1e1e" text-anchor="start" style="white-space: pre;" direction="ltr" dominant-baseline="alphabetic">Physical layout - Dense Union Layout</text></g><g stroke-linecap="round" transform="translate(54.810658030723516 138.14836494904375) rotate(0 115.17752649052022 239.43339658277364)"><path d="M1.05 -1.11 L231.71 1.06 L228.49 480.75 L-0.1 479.59" stroke="none" stroke-width="0" fill="#ffc9c9"></path><path d="M0 0 C58.32 -0.24, 120.11 -1.15, 230.36 0 M0 0 C71 1.59, 142.39 2.06, 230.36 0 M230.36 0 C229.34 143.79, 229.82 287.63, 230.36 478.87 M230.36 0 C228.79 189.78, 228.5 379.23, 230.36 478.87 M230.36 478.87 C182.17 477.07, 134.56 476.37, 0 478.87 M230.36 478.87 C167.73 478.53, 103.82 477.91, 0 478.87 M0 478.87 C0.93 287.74, 0.74 95.99, 0 0 M0 478.87 C1.2 320.59, 0.57 163.2, 0 0" stroke="#1e1e1e" stroke-width="2" fill="none"></path></g><g stroke-linecap="round"><g transform="translate(54.86217207957657 199.00932355957957) rotate(0 114.22118285940815 0)"><path d="M0 0 C74.56 -0.94, 147.38 -0.99, 228.44 0 M0 0 C51.5 0.27, 103.8 -0.65, 228.44 0" stroke="#1e1e1e" stroke-width="2" fill="none"></path></g></g><mask></mask><g transform="translate(111.51747699688349 151.72176431718253) rotate(0 56.806640625 16.09999999999991)"><text x="0" y="25.760546874999996" font-family="Helvetica, Segoe UI Emoji" font-size="28px" fill="#1e1e1e" text-anchor="start" style="white-space: pre;" direction="ltr" dominant-baseline="alphabetic">column 8</text></g><g stroke-linecap="round" transform="translate(421.0604756576631 126.84424969478641) rotate(0 72.28797794313596 18.9832559125648)"><path d="M0 0 C0 0, 0 0, 0 0 M0 0 C0 0, 0 0, 0 0 M0.65 5.29 C-0.01 6.03, 1.83 1.43, 5.21 -0.68 M-1.04 6.09 C1.79 5.09, 1.94 3.57, 5.42 0.92 M-2.82 13.17 C4.36 7.92, 5.3 6.98, 9.43 -1.46 M1.25 11.43 C3.79 6.83, 9.45 2.41, 11.01 -0.18 M3.18 17.93 C0.68 16.12, 10.88 7.93, 16.97 -0.19 M-0.06 19.99 C5.27 13.32, 11.03 6.9, 15.47 0.22 M-2.42 25.44 C6.97 13.17, 15.76 8.93, 23.87 -0.31 M-0.24 23.35 C2.89 19.43, 6.5 12.21, 21.82 1.63 M-3.97 30.91 C3.43 21.37, 13.88 13.01, 28.9 -1.82 M1.43 29.03 C4.63 25.32, 10.06 16.21, 26.94 0.29 M-2.25 37.21 C9.55 29.83, 16.79 21.48, 33.88 3.59 M1.12 36.13 C9.75 23.54, 23.75 10.59, 32.38 0.75 M4.02 39.7 C15.52 22.71, 29.06 5.21, 39.39 0.99 M6.06 37.52 C12.93 30.75, 17.81 19.3, 36.55 -1.46 M6.99 35.28 C20.53 25.99, 31.72 7.26, 43.27 -3.08 M7.44 38.86 C17.88 28.85, 24.94 23.08, 41.36 -1.25 M11.37 34.82 C19.55 29.94, 34.04 20.6, 44.62 4.19 M14.26 36.81 C23.96 27, 28.67 19.89, 48.33 -1.36 M22.46 39.93 C28.98 24.88, 35.88 16.31, 50.29 -1.41 M21.45 37.76 C32.55 25.06, 42.84 10.91, 53.23 -1.69 M27.29 41.22 C34.29 22.98, 49.29 13.46, 54.9 -0.35 M27.2 37.88 C38.36 23.18, 49.77 10.34, 58.22 -0.7 M30.66 35.04 C35.47 29.38, 46.69 19.76, 63.31 3.39 M29.05 37.81 C37.93 27.13, 48.92 19.09, 62.42 -0.8 M37.63 36.21 C47.6 27.86, 57.81 19.94, 70.65 -0.91 M34.56 37.24 C47.93 22.93, 60.63 6.23, 70.12 -1.7 M41.51 38.81 C52.06 27.13, 55.85 21.31, 76.81 -2.01 M41.38 37.54 C49.03 29.08, 58.88 17.63, 73.3 -1.8 M46.39 36.92 C60.88 26.36, 70.32 13.86, 82.44 2.1 M47.95 36.43 C57.71 26.4, 68.3 12.09, 79.86 0.47 M55.08 41.36 C62.41 27.63, 72.64 15, 87.42 0.91 M53.53 38.54 C62.16 28.16, 68.76 18.94, 84.16 1.21 M59.69 36.42 C63.79 32.93, 69.94 20.46, 86.94 -3.84 M56.92 38.08 C65.47 28.4, 72.3 23.13, 91.21 1.72 M61.55 36.65 C67.1 27.58, 78.41 21.5, 93.89 -1.43 M60.51 37.46 C73.51 24.44, 85.63 10.36, 95.24 -0.86 M69.77 35.6 C80.02 24.13, 89.48 8.58, 102.96 -3.38 M68.96 37.88 C75.66 31.81, 82.6 22.61, 99.88 1.03 M73.21 38.54 C86.8 26.13, 93.92 17.08, 105.08 1.26 M73.28 38.02 C85.11 24.22, 100.09 8.95, 104.72 0 M79 35.25 C82.91 29.98, 96.99 18.84, 107.44 -1.29 M77.49 36.58 C89.38 27.1, 98.97 16.92, 109.5 0.4 M84.51 40.75 C90.11 26.87, 100.17 21.67, 115.33 3.9 M82.73 38.99 C95.27 24.82, 101.98 15.17, 116.05 1.61 M91.88 36.04 C102.93 23.45, 114.41 17.16, 123.43 1.52 M89.88 35.98 C96.37 28.28, 107.03 15.54, 123.67 0.95 M96 40.87 C104.2 25.98, 108.48 16.53, 123.07 -1 M95.7 38.22 C102.15 26.99, 112.75 16.25, 128.59 0.57 M99.02 38.5 C108.66 33.29, 112.83 19.11, 132.11 0.02 M99.42 38.95 C107.66 29.87, 115.95 20.9, 133.89 -1.19 M106.36 40.39 C117.2 23.41, 125.89 18.49, 134.89 -2.75 M102.94 36.61 C114.84 24.17, 128.44 12.76, 137.67 0.83 M108.52 35.79 C115.29 30, 124.27 19.78, 144.79 1.08 M108.7 38.19 C122.53 24.29, 135.2 9.08, 143.63 1.21 M112.4 36.66 C126.18 31.84, 135.06 18.02, 149.54 3.44 M115.17 38.12 C127.3 25.95, 139.19 13.58, 146.6 1.65 M116.56 34.71 C121.53 30.94, 128.69 27.02, 146.37 9.22 M120.21 37.17 C131.58 26.78, 140.06 14.69, 143.75 8.24 M125.05 38.89 C135.03 31.59, 140.04 30.28, 148.6 18.04 M127.04 37.79 C131.81 30, 139.54 20.93, 145.34 15.13 M127.46 36.16 C140.4 31.54, 140.01 29.94, 142.97 23.5 M132.39 38.73 C136.29 31.78, 141.73 24.33, 144.15 21.68 M137.11 36.81 C139.64 32.67, 144.28 33.11, 146.27 30.64 M136.94 37.78 C139.22 37.05, 139.77 34.75, 144.96 28.74 M141.23 38.86 C142.17 37.87, 145.44 35.3, 144.55 34.48 M141.82 38.2 C143 37.69, 143.79 35.75, 145.7 34.34" stroke="#ffc9c9" stroke-width="0.5" fill="none"></path><path d="M0.65 -0.32 C43.7 -2.62, 82.65 -0.73, 146 -3.58 M-1.22 -0.46 C41.63 0.26, 83.15 -0.01, 143.19 -1.04 M144.85 3.98 C142.64 11.84, 143.38 29.12, 141.87 36.82 M146.07 -1.68 C142.89 13.21, 145.31 23.93, 145.93 39.02 M146.03 39.7 C114.22 39.65, 81.07 40.64, -3.92 40.17 M143.8 36.87 C110.99 34.62, 75.66 38.4, 0.55 37.35 M0.4 37.55 C-0.83 32.45, -3.45 17.42, 0.67 0.32 M-0.58 39.44 C-0.7 22.37, 0.11 7.55, 1.64 0.21" stroke="#e03131" stroke-width="1" fill="none"></path></g><g transform="translate(439.4095459156033 130.42595450807676) rotate(0 56.806640625 16.09999999999991)"><text x="0" y="25.760546874999996" font-family="Helvetica, Segoe UI Emoji" font-size="28px" fill="#1e1e1e" text-anchor="start" style="white-space: pre;" direction="ltr" dominant-baseline="alphabetic">column 8</text></g><g transform="translate(606.0676128467153 225.53077337535615) rotate(0 76.5419921875 16.09999999999991)"><text x="0" y="25.760546874999996" font-family="Helvetica, Segoe UI Emoji" font-size="28px" fill="#1e1e1e" text-anchor="start" style="white-space: pre;" direction="ltr" dominant-baseline="alphabetic">Offset buffer</text></g><g transform="translate(606.0676128467153 129.7275056073522) rotate(0 76.8017578125 16.09999999999991)"><text x="0" y="25.760546874999996" font-family="Helvetica, Segoe UI Emoji" font-size="28px" fill="#1e1e1e" text-anchor="start" style="white-space: pre;" direction="ltr" dominant-baseline="alphabetic">Types buffer</text></g><g stroke-linecap="round"><g transform="translate(402.87960115138594 12.369004707048589) rotate(0 0 22.21342481206557)"><path d="M-0.14 -1.85 C-0.18 11.09, -0.3 23.89, -0.24 42.89 M0.72 0.8 C-0.37 12.27, 0.69 23.76, -0.57 43.98" stroke="#1e1e1e" stroke-width="2" fill="none"></path></g></g><mask></mask><g stroke-linecap="round" transform="translate(897.5769910715576 112.15688321518792) rotate(0 139.5016991641135 35.6951908648889)"><path d="M-1.35 1.79 L278.31 0.2 L278.8 71.32 L1.66 70.01" stroke="none" stroke-width="0" fill="#a5d8ff"></path><path d="M0 0 C58.45 1.05, 117.07 1.43, 279 0 M0 0 C79.86 0.15, 161.34 1.16, 279 0 M279 0 C277.78 19.83, 278.15 42.38, 279 71.39 M279 0 C278.38 16.64, 279.55 32.35, 279 71.39 M279 71.39 C213.54 73.55, 150.59 71.09, 0 71.39 M279 71.39 C169.43 72.09, 59.53 71.46, 0 71.39 M0 71.39 C-0.53 44.94, -0.27 17.71, 0 0 M0 71.39 C-0.27 54.8, -0.05 36.06, 0 0" stroke="#1e1e1e" stroke-width="2" fill="none"></path></g><g transform="translate(937.8659988753473 130.55514248647705) rotate(0 101.1787109375 16.09999999999991)"><text x="0" y="25.760546874999996" font-family="Helvetica, Segoe UI Emoji" font-size="28px" fill="#1e1e1e" text-anchor="start" style="white-space: pre;" direction="ltr" dominant-baseline="alphabetic">0  0  1  2  1  0  2</text></g><g stroke-linecap="round" transform="translate(897.5769910715576 204.76972480411314) rotate(0 140.72484893138858 36.86104857124201)"><path d="M0.01 -1.95 L280.87 1.47 L280.76 72.76 L0.11 72.57" stroke="none" stroke-width="0" fill="#a5d8ff"></path><path d="M0 0 C104.82 1.65, 208.46 -0.74, 281.45 0 M0 0 C71.53 1.68, 143.17 1.48, 281.45 0 M281.45 0 C281.52 28.67, 279.72 56.6, 281.45 73.72 M281.45 0 C280.71 26.38, 281.2 51.92, 281.45 73.72 M281.45 73.72 C182.63 76.08, 85.88 75.24, 0 73.72 M281.45 73.72 C211.03 71.8, 139.94 73.25, 0 73.72 M0 73.72 C2.02 48.86, 0.42 25.19, 0 0 M0 73.72 C-1.33 52.04, -0.53 30.88, 0 0" stroke="#1e1e1e" stroke-width="2" fill="none"></path></g><g transform="translate(938.8613298882077 225.53077337535615) rotate(0 101.1787109375 16.09999999999991)"><text x="0" y="25.760546874999996" font-family="Helvetica, Segoe UI Emoji" font-size="28px" fill="#1e1e1e" text-anchor="start" style="white-space: pre;" direction="ltr" dominant-baseline="alphabetic">0  1  0  0  1  2  1</text></g><g stroke-linecap="round"><g transform="translate(297.9245756596001 167.37568426625876) rotate(0 53.730838705466596 -11.019955164917064)"><path d="M-0.82 0.41 C17.04 -3.2, 89.91 -19.07, 108.09 -22.71" stroke="#e03131" stroke-width="1.5" fill="none" stroke-dasharray="8 9"></path></g><g transform="translate(297.9245756596001 167.37568426625876) rotate(0 53.730838705466596 -11.019955164917064)"><path d="M86.86 -9.51 C95.61 -13.26, 101.77 -17.9, 108.09 -22.71" stroke="#e03131" stroke-width="1.5" fill="none"></path></g><g transform="translate(297.9245756596001 167.37568426625876) rotate(0 53.730838705466596 -11.019955164917064)"><path d="M83.34 -26.25 C93.27 -23.7, 100.75 -22.07, 108.09 -22.71" stroke="#e03131" stroke-width="1.5" fill="none"></path></g></g><mask></mask><g stroke-linecap="round" transform="translate(357.03365459631584 710.1225508488769) rotate(0 133.384752834786 23.262219579720295)"><path d="M0 0 C0 0, 0 0, 0 0 M0 0 C0 0, 0 0, 0 0 M0.82 7.67 C0.13 5.13, 0.93 5.26, 3.9 1.55 M-0.8 6.99 C1.7 3.73, 3.79 1.72, 4.81 1.06 M2.52 12.45 C1.87 7.19, 5.99 0.97, 12.01 -0.99 M1.22 12.07 C1.79 10.31, 6.45 6.08, 10.25 0.21 M-3.63 21.1 C1.48 10.9, 12.06 10.61, 17.24 -2.34 M-0.77 17.88 C5.25 13.21, 10.04 3.45, 15.84 0.79 M-1.72 27.52 C1.57 19.72, 10.11 12.98, 22.71 -1.27 M-1.59 23.49 C3.69 18.88, 7.92 15.8, 21.2 -2.04 M2.19 30.36 C7.9 21.07, 13.43 16.66, 23.06 -0.29 M1.41 31.31 C9.62 18.76, 18.07 9.92, 25.87 -0.09 M0.56 39.92 C11.52 24.04, 23.35 5.72, 31.59 2.08 M0.24 35.3 C11.06 24.74, 19.78 12.35, 32.07 -0.81 M0.22 43.21 C11.72 31.51, 20.45 16.29, 36.61 3.79 M-0.12 43.87 C12.07 24.91, 28.03 9.82, 36.79 -0.55 M-0.37 46.77 C15.41 31.93, 36.91 11.68, 39.93 -3.95 M3.69 48.48 C9.96 34.21, 18.84 23.99, 42.39 -2 M7.44 45.84 C21.83 29.51, 35.56 15.24, 44.88 4.06 M8.09 46.8 C21.28 29.2, 33.68 14.57, 48.72 0.48 M13.87 49.95 C30.16 26.3, 41.75 10.78, 54.78 3.75 M14.02 46.06 C23.94 32.02, 34.92 17.69, 51.75 -0.53 M13.79 46.86 C28.14 38.98, 34.68 22.77, 60.98 2.56 M18.25 48.96 C28 37.85, 34.48 28.46, 59.7 1.12 M25.37 43.8 C36.28 32.45, 44.61 21.06, 65.32 -3.85 M24.01 44.71 C32.11 35.74, 40.65 25.55, 63.67 -0.23 M30.01 44.27 C36.19 31.62, 50.85 24.34, 68.16 1.2 M29.19 47.77 C37.56 32.38, 49.21 20.09, 69.73 0.56 M34.88 44.73 C43.89 39.2, 50.69 22.54, 74.86 -3.9 M32.89 48.37 C49.94 26.9, 66.61 10.4, 73.6 -1.91 M36.91 43.42 C55.68 33.37, 63.65 15.37, 75.79 1.77 M39.62 47.22 C54.04 29.88, 69.82 10.18, 80.73 -0.96 M45.28 45.04 C55.45 32.36, 69.35 20.4, 84.83 -1.68 M45.84 46.04 C58.44 31.8, 72.56 16.8, 84.95 0.74 M45.42 45.55 C59.4 31.62, 79.54 17.57, 87.36 -2.08 M48.18 46.31 C63.06 35.01, 73.87 19.21, 88.57 1.87 M53.54 44.88 C64.07 37.2, 72.26 26.13, 94.78 1.42 M53.97 47.78 C67.32 30.34, 79.52 18.36, 97.03 1.03 M56.6 47.74 C71.95 28.68, 92.9 9.63, 100.49 -0.8 M61.45 47.15 C75.62 27.18, 92.8 10.53, 99.03 -0.58 M66.14 45.05 C76.77 29.17, 89.44 17.25, 102.41 -0.14 M65.67 45.46 C73.24 37.24, 83.49 25.54, 105.12 -0.61 M69.62 42.98 C83.25 36.04, 95.04 21.66, 114.94 -0.99 M69.95 46.89 C87.08 29.57, 98.11 15.54, 111.87 -0.87 M77.64 43.94 C86.11 34.43, 99.1 23.12, 118.85 0.75 M77.24 45.75 C84.98 37.03, 92.37 25.44, 115.78 0.02 M81.8 44.1 C90.77 38.47, 100.95 23.11, 124.55 -1.34 M80.14 45.75 C92.67 38.23, 101.53 27.98, 120.74 1.5 M82.74 50.11 C90.62 34.18, 106.82 28.18, 123.36 -3.19 M84.96 46.67 C100.04 32.38, 111.56 19.21, 125.44 -0.04 M88.57 43.85 C103.55 38.21, 112.97 25.74, 133.34 -0.72 M90.41 46.99 C102.41 34.66, 109.79 25.86, 133.28 0.08 M94.93 47.21 C106.85 40.25, 115.24 28.6, 139.33 2.89 M95.68 46.51 C111.8 29.65, 125.87 13.2, 136.54 1.53 M99.48 46.81 C117.82 29.73, 136.59 9.04, 139.42 1.94 M103.09 44.97 C113.27 30.17, 128.56 18.58, 143.02 1.5 M105.85 50.78 C114.13 33.61, 125.71 26.92, 148.95 -3.03 M106.2 48.66 C116.19 36.88, 126.95 26.79, 148.1 1.4 M114.21 45.46 C129.36 34.08, 136.35 14.58, 151.02 -0.47 M112.45 45.08 C129.37 30.17, 146.73 9.81, 153.45 1.44 M117.23 44.22 C126.59 32.32, 146.41 17.61, 156.51 0.89 M119.27 45.55 C131.27 33.1, 145 15.14, 159.08 -0.72 M122.58 44.15 C133.78 26.86, 149 17.89, 162.53 0.84 M124.7 47.8 C137.93 29.97, 152.41 17.32, 166 0.65 M124.94 50.84 C140.16 30.31, 155.04 16.48, 172.47 0.39 M127.55 46.66 C139.08 34.11, 153.84 19.13, 168.36 1.96 M136.51 43.11 C145.48 35.84, 157.6 18.2, 178.44 -1.46 M133.98 44.64 C145.6 29.92, 161.45 17.4, 176.03 0.93 M142.98 45.79 C149.73 35.86, 156.14 25.83, 181.36 1.05 M137.65 46.57 C153.81 31.82, 167.97 15.22, 178.78 -0.74 M142.06 46.43 C156.82 30.06, 171.24 18.14, 189.36 1.16 M146.36 46.21 C159.6 31.25, 174.29 12.77, 184.84 1.17 M147.46 44.11 C160.63 38.65, 168.82 22.8, 189.87 -3.64 M150.14 48.9 C163.76 28.22, 179.92 12.13, 189.1 0.1 M155.41 46.1 C169.84 29.67, 184.52 16.27, 196.05 1.11 M155.88 46.15 C172.42 29.31, 188.7 12.46, 195.67 1.29 M164.63 44.7 C174.48 34.29, 180.12 21.35, 202.81 -0.34 M159.49 46.32 C170.97 36.35, 179.98 22.55, 202.04 0.44 M166.87 45.95 C179.26 29.17, 192.49 18.29, 209.36 -1.31 M164.48 45.18 C177.79 34.23, 183.79 24.48, 205.69 -1.71 M174.86 46.37 C183.35 36.02, 187.36 25.18, 215.12 -3.83 M170.13 48.59 C186.4 31.01, 199.92 16.33, 212.23 -0.69 M180.87 45.71 C183.99 37.53, 194.36 19.89, 218.29 2.05 M178.06 47.08 C188.74 29.3, 206.46 14.11, 218.02 -1.76 M184.65 47.76 C190.26 32.1, 210.97 14.44, 219.83 -0.99 M180.42 46.52 C196.2 30.88, 206.34 16.19, 222.26 -1.2 M183.31 49.75 C193.63 34.2, 208.09 26.52, 229.97 3.23 M185.8 47.45 C200.16 29.81, 213.26 16.02, 229.7 0.24 M194.6 47.42 C201.88 35.57, 214.51 18.3, 232.15 1.14 M190.67 47.97 C207.05 28.15, 222.77 11.11, 234.65 0.06 M200.18 48.02 C206.71 36.86, 215.84 27.33, 236.97 2.9 M198.77 46.67 C209.95 34.89, 223.35 17.83, 239.06 1.25 M199.47 43.76 C219.99 31.53, 232.91 14.07, 241.38 -0.59 M203.1 45.89 C213.62 36.31, 220.65 25.62, 243.85 -0.7 M205.64 44.62 C222 31.1, 240.76 9.88, 251.99 -0.66 M210.02 46.47 C221.99 31.29, 239.3 13.47, 248.35 1 M212.12 43.06 C234.65 30.29, 244.98 11.08, 250.93 2.55 M213.9 46.27 C227 28.83, 244.37 11.7, 256.26 -0.18 M220.61 46.79 C229.87 32.23, 240.6 19.64, 255.85 0.95 M217.21 46.88 C233.29 31.06, 243.89 16.72, 259.77 -1.44 M223.56 43.49 C234.36 30.85, 247.88 19.58, 262.39 -0.84 M225.17 48.17 C235.7 32.59, 247.27 20.99, 266.2 -0.06 M232.16 49.62 C243.36 28.75, 259.43 14.22, 269.56 2.31 M229.9 46.98 C237.45 39.18, 244.34 29.54, 267.49 4.31 M234.89 43.08 C247.63 35.92, 256.37 25.74, 266.89 7.52 M236.97 47.71 C245.02 37.95, 249.97 29.26, 267.41 10.89 M241.46 44.08 C249.25 36.73, 250.82 32.56, 265.61 16.85 M241.62 48.94 C250.47 33.44, 260.07 23.15, 269 16.73 M249.36 47.76 C252.79 37.99, 259.75 30.61, 268.8 24.43 M247.29 46.07 C254.8 35.29, 261.24 28.49, 268.67 21.58 M247.83 49.03 C254.56 46.96, 255.09 41.14, 263.09 27.57 M249.82 45.96 C256.28 39.71, 258.99 36.11, 268.2 29.01 M256.34 47.19 C258.89 41.74, 263.27 37.27, 266.24 32.14 M256.08 45.67 C259.47 43.8, 260.44 40.8, 266.3 33.34 M262.82 47.05 C261.88 46.28, 263.95 42.66, 268.15 40.13 M260.67 46.66 C262.91 45.46, 263.69 43.54, 268.01 39.27" stroke="#ffc9c9" stroke-width="0.5" fill="none"></path><path d="M-2.16 0.62 C83.74 2.26, 165.53 3.7, 265.18 -2.98 M-0.55 -0.62 C61.11 2.66, 122.23 1.08, 267.2 -0.16 M266.73 0.19 C268.41 6.9, 263.44 16.78, 266.12 46.83 M266.47 1.08 C266.48 17.64, 264.49 37.66, 266.56 45.87 M267.72 44.49 C198.58 49.23, 133.75 51.71, 1.54 47.09 M265.29 46.9 C188.85 41.24, 114.22 42.82, -0.87 45.94 M-0.9 45.14 C0.31 34.35, 0.01 24.72, -3.65 1.04 M-0.35 46.77 C-0.79 35.94, 1.34 24.2, -1.96 1.35" stroke="#e03131" stroke-width="1" fill="none"></path></g><g transform="translate(388.57465743110185 717.2847704285978) rotate(0 91.8134765625 16.09999999999991)"><text x="0" y="25.760546874999996" font-family="Helvetica, Segoe UI Emoji" font-size="28px" fill="#1e1e1e" text-anchor="start" style="white-space: pre;" direction="ltr" dominant-baseline="alphabetic">children arrays</text></g><g stroke-linecap="round"><g transform="translate(498.9670757485416 179.00179699992987) rotate(0 -6.004727594764944 257.6070652603912)"><path d="M0.71 1.44 C-2.45 163.16, -6.62 328.43, -12.61 514.65" stroke="#e03131" stroke-width="1.5" fill="none" stroke-dasharray="8 9"></path></g><g transform="translate(498.9670757485416 179.00179699992987) rotate(0 -6.004727594764944 257.6070652603912)"><path d="M-19.56 492.72 C-18.83 496.58, -16.75 504.96, -13.37 513.96" stroke="#e03131" stroke-width="1.5" fill="none"></path></g><g transform="translate(498.9670757485416 179.00179699992987) rotate(0 -6.004727594764944 257.6070652603912)"><path d="M-2.47 493.24 C-7.2 497, -10.58 505.22, -13.37 513.96" stroke="#e03131" stroke-width="1.5" fill="none"></path></g></g><mask></mask><g stroke-linecap="round"><g transform="translate(614.221978795089 700.3480653601127) rotate(0 55.42373753562926 -139.43233383760662)"><path d="M-1.15 0.41 C30.73 -67.01, 54.98 -135.46, 110.55 -281.66" stroke="#1971c2" stroke-width="2.5" fill="none" stroke-dasharray="8 10"></path></g><g transform="translate(614.221978795089 700.3480653601127) rotate(0 55.42373753562926 -139.43233383760662)"><path d="M109.46 -256.39 C111.77 -262.23, 109.83 -268.38, 110.35 -283.57" stroke="#1971c2" stroke-width="2.5" fill="none"></path></g><g transform="translate(614.221978795089 700.3480653601127) rotate(0 55.42373753562926 -139.43233383760662)"><path d="M93.46 -262.44 C99.67 -266.74, 101.67 -271.41, 110.35 -283.57" stroke="#1971c2" stroke-width="2.5" fill="none"></path></g></g><mask></mask><g transform="translate(732.1250824839207 664.0656732043108) rotate(0 245.8271484375 16.09999999999991)"><text x="0" y="25.760546874999996" font-family="Helvetica, Segoe UI Emoji" font-size="28px" fill="#1971c2" text-anchor="start" style="white-space: pre;" direction="ltr" dominant-baseline="alphabetic">Fixed-size Primitive child array (Field-1)</text></g><g stroke-linecap="round"><g transform="translate(637.8702331890039 728.5948644074906) rotate(0 40.09463414376923 -24.645326576247044)"><path d="M-0.4 -3.82 C27.45 -15.76, 52.97 -32.65, 81.65 -51.9" stroke="#1971c2" stroke-width="2.5" fill="none" stroke-dasharray="8 10"></path></g><g transform="translate(637.8702331890039 728.5948644074906) rotate(0 40.09463414376923 -24.645326576247044)"><path d="M66.58 -33.72 C72.13 -38.01, 76.6 -44.96, 82.38 -53.21" stroke="#1971c2" stroke-width="2.5" fill="none"></path></g><g transform="translate(637.8702331890039 728.5948644074906) rotate(0 40.09463414376923 -24.645326576247044)"><path d="M57.14 -47.97 C65.74 -47.61, 73.32 -49.88, 82.38 -53.21" stroke="#1971c2" stroke-width="2.5" fill="none"></path></g></g><mask></mask><g transform="translate(851.7665724591637 556.9649197715898) rotate(0 81.2177734375 16.09999999999991)"><text x="0" y="25.760546874999996" font-family="Helvetica, Segoe UI Emoji" font-size="28px" fill="#1e1e1e" text-anchor="start" style="white-space: pre;" direction="ltr" dominant-baseline="alphabetic">Values buffer</text></g><g transform="translate(851.7665724591637 460.7637234829035) rotate(0 129.4521484375 16.09999999999991)"><text x="0" y="25.760546874999996" font-family="Helvetica, Segoe UI Emoji" font-size="28px" fill="#1e1e1e" text-anchor="start" style="white-space: pre;" direction="ltr" dominant-baseline="alphabetic">Validity bitmap buffer</text></g><g stroke-linecap="round" transform="translate(1153.4292110316014 536.5190170504975) rotate(0 85.18347522822359 35.990728694052905)"><path d="M-1.96 1.35 L170.9 1.22 L168.88 70.49 L-0.25 72.67" stroke="none" stroke-width="0" fill="#a5d8ff"></path><path d="M0 0 C43.39 -1.34, 84.51 -0.43, 170.37 0 M0 0 C59.48 1.09, 120.56 0.25, 170.37 0 M170.37 0 C171.62 16.47, 169.51 34.7, 170.37 71.98 M170.37 0 C170.82 18.2, 169.79 35.76, 170.37 71.98 M170.37 71.98 C133.24 72.05, 100.06 69.66, 0 71.98 M170.37 71.98 C124.95 70.26, 80.49 70.36, 0 71.98 M0 71.98 C-1.68 53.08, -0.87 31.16, 0 0 M0 71.98 C-0.73 50.55, 0.33 28.55, 0 0" stroke="#1e1e1e" stroke-width="2" fill="none"></path></g><g transform="translate(851.2587599591637 853.1185156589663) rotate(0 81.2177734375 16.09999999999991)"><text x="0" y="25.760546874999996" font-family="Helvetica, Segoe UI Emoji" font-size="28px" fill="#1e1e1e" text-anchor="start" style="white-space: pre;" direction="ltr" dominant-baseline="alphabetic">Values buffer</text></g><g transform="translate(851.2587599591637 760.5339292145854) rotate(0 129.4521484375 16.09999999999991)"><text x="0" y="25.760546874999996" font-family="Helvetica, Segoe UI Emoji" font-size="28px" fill="#1e1e1e" text-anchor="start" style="white-space: pre;" direction="ltr" dominant-baseline="alphabetic">Validity bitmap buffer</text></g><g stroke-linecap="round" transform="translate(1152.6397037141912 834.0708153740798) rotate(0 94.98705202405637 35.04220680752178)"><path d="M-0.1 1.53 L188.83 1.44 L190.85 71.05 L1.5 68.73" stroke="none" stroke-width="0" fill="#a5d8ff"></path><path d="M0 0 C40.07 -0.86, 83.26 2.09, 189.97 0 M0 0 C62.3 0.99, 125.78 1.93, 189.97 0 M189.97 0 C188.11 20.42, 190.36 43.15, 189.97 70.08 M189.97 0 C189.88 13.82, 189.78 27.52, 189.97 70.08 M189.97 70.08 C145.14 68.82, 100.41 69.48, 0 70.08 M189.97 70.08 C149.34 69.17, 110.52 69.24, 0 70.08 M0 70.08 C0.51 53.11, 1 40.57, 0 0 M0 70.08 C0.4 45.11, 1.02 18.85, 0 0" stroke="#1e1e1e" stroke-width="2" fill="none"></path></g><g transform="translate(1193.4320012739618 852.6502989673163) rotate(0 50.5927734375 16.09999999999991)"><text x="0" y="25.760546874999996" font-family="Helvetica, Segoe UI Emoji" font-size="28px" fill="#1e1e1e" text-anchor="start" style="white-space: pre;" direction="ltr" dominant-baseline="alphabetic">1.2   3.4</text></g><g transform="translate(1187.7613487169247 556.8560312986283) rotate(0 46.6962890625 16.09999999999991)"><text x="0" y="25.760546874999996" font-family="Helvetica, Segoe UI Emoji" font-size="28px" fill="#1e1e1e" text-anchor="start" style="white-space: pre;" direction="ltr" dominant-baseline="alphabetic">5   _   4</text></g><g transform="translate(732.1250824839207 383.72844467571485) rotate(0 245.8271484375 16.09999999999991)"><text x="0" y="25.760546874999996" font-family="Helvetica, Segoe UI Emoji" font-size="28px" fill="#1971c2" text-anchor="start" style="white-space: pre;" direction="ltr" dominant-baseline="alphabetic">Fixed-size Primitive child array (Field-0)</text></g><g stroke-linecap="round" transform="translate(1152.2769804999057 440.81047714039505) rotate(0 102.28569975707381 34.80312378531971)"><path d="M-0.5 0.87 L202.98 -0.96 L206.27 68.16 L0.52 71.11" stroke="none" stroke-width="0" fill="#a5d8ff"></path><path d="M0 0 C75.26 -1.2, 150.56 1.2, 204.57 0 M0 0 C41.58 -1.99, 84.18 -2.43, 204.57 0 M204.57 0 C203.18 26.31, 204.26 48.31, 204.57 69.61 M204.57 0 C204.54 16.42, 206.05 31.78, 204.57 69.61 M204.57 69.61 C127.62 69.08, 49.35 71.34, 0 69.61 M204.57 69.61 C130.59 70.88, 57.09 69.71, 0 69.61 M0 69.61 C-0.94 49.72, 1.8 30.7, 0 0 M0 69.61 C0.23 45.63, -0.33 20.17, 0 0" stroke="#1e1e1e" stroke-width="2" fill="none"></path></g><g transform="translate(1190.6702856660318 459.5162387965456) rotate(0 62.2890625 16.09999999999991)"><text x="0" y="25.760546874999996" font-family="Helvetica, Segoe UI Emoji" font-size="28px" fill="#1e1e1e" text-anchor="start" style="white-space: pre;" direction="ltr" dominant-baseline="alphabetic">00000101</text></g><g transform="translate(1159.344055369709 759.3358037716944) rotate(0 30.967987060546875 17.5)"><text x="0" y="24.528" font-family="Virgil, Segoe UI Emoji" font-size="28px" fill="#1971c2" text-anchor="start" style="white-space: pre;" direction="ltr" dominant-baseline="alphabetic">None</text></g><g transform="translate(732.1250824839207 953.8668676263642) rotate(0 247.939453125 16.09999999999991)"><text x="0" y="25.760546874999996" font-family="Helvetica, Segoe UI Emoji" font-size="28px" fill="#1971c2" text-anchor="start" style="white-space: pre;" direction="ltr" dominant-baseline="alphabetic">Variable-size Binary child array (Field-2)</text></g><g transform="translate(162.20205170874374 226.98752245205287) rotate(0 7.7861328125 16.09999999999991)"><text x="0" y="25.760546874999996" font-family="Helvetica, Segoe UI Emoji" font-size="28px" fill="#1e1e1e" text-anchor="start" style="white-space: pre;" direction="ltr" dominant-baseline="alphabetic">5</text></g><g transform="translate(150.52627045874374 333.94318782986556) rotate(0 19.4619140625 16.09999999999991)"><text x="0" y="25.760546874999996" font-family="Helvetica, Segoe UI Emoji" font-size="28px" fill="#1e1e1e" text-anchor="start" style="white-space: pre;" direction="ltr" dominant-baseline="alphabetic">1.2</text></g><g transform="translate(141.36611420874374 387.4210205187719) rotate(0 28.6220703125 16.09999999999991)"><text x="0" y="25.760546874999996" font-family="Helvetica, Segoe UI Emoji" font-size="28px" fill="#1e1e1e" text-anchor="start" style="white-space: pre;" direction="ltr" dominant-baseline="alphabetic">"joe"</text></g><g transform="translate(162.20205170874374 494.3766858965846) rotate(0 7.7861328125 16.09999999999991)"><text x="0" y="25.760546874999996" font-family="Helvetica, Segoe UI Emoji" font-size="28px" fill="#1e1e1e" text-anchor="start" style="white-space: pre;" direction="ltr" dominant-baseline="alphabetic">4</text></g><g transform="translate(150.52627045874374 440.89885320767826) rotate(0 19.4619140625 16.09999999999991)"><text x="0" y="25.760546874999996" font-family="Helvetica, Segoe UI Emoji" font-size="28px" fill="#1e1e1e" text-anchor="start" style="white-space: pre;" direction="ltr" dominant-baseline="alphabetic">3.4</text></g><g transform="translate(128.93837983374374 547.854518585491) rotate(0 41.0498046875 16.09999999999991)"><text x="0" y="25.760546874999996" font-family="Helvetica, Segoe UI Emoji" font-size="28px" fill="#1e1e1e" text-anchor="start" style="white-space: pre;" direction="ltr" dominant-baseline="alphabetic">"mark"</text></g><g transform="translate(148.19521577124374 280.4653551409592) rotate(0 21.79296875 16.09999999999991)"><text x="0" y="25.760546874999996" font-family="Helvetica, Segoe UI Emoji" font-size="28px" fill="#1e1e1e" text-anchor="start" style="white-space: pre;" direction="ltr" dominant-baseline="alphabetic">null</text></g><g transform="translate(1152.6397037141915 1047.9162950687478) rotate(0 30.967987060546875 17.5)"><text x="0" y="24.528" font-family="Virgil, Segoe UI Emoji" font-size="28px" fill="#1971c2" text-anchor="start" style="white-space: pre;" direction="ltr" dominant-baseline="alphabetic">None</text></g><g transform="translate(851.2587599591637 1144.5254754895586) rotate(0 83.5419921875 16.09999999999991)"><text x="0" y="25.760546874999996" font-family="Helvetica, Segoe UI Emoji" font-size="28px" fill="#1e1e1e" text-anchor="start" style="white-space: pre;" direction="ltr" dominant-baseline="alphabetic">Offsets buffer</text></g><g transform="translate(851.2587599591637 1051.9408890451787) rotate(0 129.4521484375 16.09999999999991)"><text x="0" y="25.760546874999996" font-family="Helvetica, Segoe UI Emoji" font-size="28px" fill="#1e1e1e" text-anchor="start" style="white-space: pre;" direction="ltr" dominant-baseline="alphabetic">Validity bitmap buffer</text></g><g stroke-linecap="round" transform="translate(1152.6397037141915 1125.477775204673) rotate(0 81.86553974727099 35.04220680752178)"><path d="M-0.13 0.7 L162.98 -1.5 L162.78 71.5 L0.61 71.31" stroke="none" stroke-width="0" fill="#a5d8ff"></path><path d="M0 0 C41.58 -1.3, 86.82 -1.75, 163.73 0 M0 0 C38.57 -1.12, 74.54 -1.85, 163.73 0 M163.73 0 C164.71 23.64, 162.82 45.91, 163.73 70.08 M163.73 0 C164.06 20.7, 163.29 41.91, 163.73 70.08 M163.73 70.08 C128.6 67.42, 94.25 69.44, 0 70.08 M163.73 70.08 C103.39 69.44, 43.65 70.49, 0 70.08 M0 70.08 C2.39 51.81, -0.7 31.21, 0 0 M0 70.08 C1.03 50.01, 0.49 29.75, 0 0" stroke="#1e1e1e" stroke-width="2" fill="none"></path></g><g transform="translate(1193.0636977025338 1144.0572587979086) rotate(0 38.9169921875 16.09999999999991)"><text x="0" y="25.760546874999996" font-family="Helvetica, Segoe UI Emoji" font-size="28px" fill="#1e1e1e" text-anchor="start" style="white-space: pre;" direction="ltr" dominant-baseline="alphabetic">0  3  7</text></g><g transform="translate(851.2587599591637 1239.991793913604) rotate(0 81.2177734375 16.09999999999991)"><text x="0" y="25.760546874999996" font-family="Helvetica, Segoe UI Emoji" font-size="28px" fill="#1e1e1e" text-anchor="start" style="white-space: pre;" direction="ltr" dominant-baseline="alphabetic">Values buffer</text></g><g stroke-linecap="round" transform="translate(1152.6397037141915 1220.9440936287183) rotate(0 100.15306764905642 35.04220680752178)"><path d="M-1.44 -1.73 L199.23 -1.26 L198.64 69.27 L-0.44 71.04" stroke="none" stroke-width="0" fill="#a5d8ff"></path><path d="M0 0 C79.32 1.84, 161.17 2.41, 200.31 0 M0 0 C64.08 1.21, 128.99 2.05, 200.31 0 M200.31 0 C202.02 26.28, 199.39 54.25, 200.31 70.08 M200.31 0 C200.2 22.83, 199.19 44.1, 200.31 70.08 M200.31 70.08 C147.05 69.96, 89.93 71.07, 0 70.08 M200.31 70.08 C121.11 68.96, 40.34 69.3, 0 70.08 M0 70.08 C-0.17 43.68, 0.66 16.78, 0 0 M0 70.08 C0.64 54.94, 0.22 37.85, 0 0" stroke="#1e1e1e" stroke-width="2" fill="none"></path></g><g transform="translate(1202.4058991434836 1239.523577221954) rotate(0 49.79296875 16.09999999999991)"><text x="0" y="25.760546874999996" font-family="Helvetica, Segoe UI Emoji" font-size="28px" fill="#1e1e1e" text-anchor="start" style="white-space: pre;" direction="ltr" dominant-baseline="alphabetic">joemark</text></g><g stroke-linecap="round"><g transform="translate(629.9009632147115 760.2879177633931) rotate(0 44.7785495929901 106.89594293581922)"><path d="M-0.96 -1.08 C28.96 64.6, 54.39 127.59, 91.44 215.6" stroke="#1971c2" stroke-width="2.5" fill="none" stroke-dasharray="8 10"></path></g><g transform="translate(629.9009632147115 760.2879177633931) rotate(0 44.7785495929901 106.89594293581922)"><path d="M73.92 196.6 C79.25 202.73, 83.2 206.71, 92.55 216.67" stroke="#1971c2" stroke-width="2.5" fill="none"></path></g><g transform="translate(629.9009632147115 760.2879177633931) rotate(0 44.7785495929901 106.89594293581922)"><path d="M89.69 189.99 C90.21 198.28, 89.31 204.3, 92.55 216.67" stroke="#1971c2" stroke-width="2.5" fill="none"></path></g></g><mask></mask></svg>