<svg version="1.1" xmlns="http://www.w3.org/2000/svg" viewBox="0 0 1562.414263431941 532.5616745076773" width="1562.414263431941" height="532.5616745076773">
  <!-- svg-source:excalidraw -->
  
  <defs>
    <style class="style-fonts">
      @font-face {
        font-family: "Virgil";
        src: url("https://excalidraw.com/Virgil.woff2");
      }
      @font-face {
        font-family: "Cascadia";
        src: url("https://excalidraw.com/Cascadia.woff2");
      }
      @font-face {
        font-family: "Assistant";
        src: url("https://excalidraw.com/Assistant-Regular.woff2");
      }
    </style>
    
  </defs>
  <g stroke-linecap="round" transform="translate(10 10) rotate(0 733.5155650629545 29.721659908090714)"><path d="M2.54 3.74 L1470.49 -2.71 L1467.93 62.65 L1.56 56.85" stroke="none" stroke-width="0" fill="#b2f2bb"></path><path d="M0.94 -0.79 C427.88 7.82, 857.07 7.69, 1467.55 -0.07 M0.03 -0.41 C361.87 -5.79, 723.06 -6.61, 1467.04 -0.4 M1463.97 -3.85 C1467.9 17.36, 1466.25 40.35, 1465.21 58.41 M1466.33 -1.02 C1465.32 16.12, 1467.54 32.58, 1468.93 57.61 M1466.67 59.1 C1083.84 60.71, 701.4 61.11, 1.42 57.99 M1467.36 59.66 C1171.68 50.78, 876.31 52.16, 0.17 59.61 M-2.08 60.46 C-0.38 36.98, -0.13 13.79, 3.04 -3.51 M1.47 58.53 C-1.1 36.95, 0.83 14.86, -1.06 0.15" stroke="#1e1e1e" stroke-width="2" fill="none"></path></g><g transform="translate(104.04725587260782 21.804720877538784) rotate(0 59.9169921875 16.09999999999991)"><text x="0" y="25.760546874999996" font-family="Helvetica, Segoe UI Emoji" font-size="28px" fill="#1e1e1e" text-anchor="start" style="white-space: pre;" direction="ltr" dominant-baseline="alphabetic">dictionary</text></g><g transform="translate(644.2892167345492 21.474951782862263) rotate(0 272.3642578125 16.09999999999991)"><text x="0" y="25.760546874999996" font-family="Helvetica, Segoe UI Emoji" font-size="28px" fill="#1e1e1e" text-anchor="start" style="white-space: pre;" direction="ltr" dominant-baseline="alphabetic">Physical layout - Dictionary-encoded Layout</text></g><g stroke-linecap="round" transform="translate(54.507923655723516 138.14836494904284) rotate(0 115.17752649052022 173.13945127027296)"><path d="M0.55 1.93 L230.77 0.41 L232.13 346.77 L-1.67 345.24" stroke="none" stroke-width="0" fill="#ffc9c9"></path><path d="M0 0 C87.48 -1.44, 172.96 0.19, 230.36 0 M0 0 C81.92 1.61, 163.12 0.75, 230.36 0 M230.36 0 C228.38 103.95, 228.22 207.58, 230.36 346.28 M230.36 0 C230.46 117.69, 229.67 235.7, 230.36 346.28 M230.36 346.28 C165.38 344.36, 102.8 346.25, 0 346.28 M230.36 346.28 C138.52 345.31, 47.45 344.29, 0 346.28 M0 346.28 C0.66 250.03, 0.84 152.25, 0 0 M0 346.28 C-1.21 276.72, -1.38 206.29, 0 0" stroke="#1e1e1e" stroke-width="2" fill="none"></path></g><g stroke-linecap="round"><g transform="translate(54.86217207957657 199.00932355957866) rotate(0 114.22118285940815 0)"><path d="M0 0 C83.51 1.65, 169.77 0.16, 228.44 0 M0 0 C56.79 -1.66, 113.81 -1.83, 228.44 0" stroke="#1e1e1e" stroke-width="2" fill="none"></path></g></g><mask></mask><g transform="translate(106.99403949688349 151.72176431718208) rotate(0 56.806640625 16.09999999999991)"><text x="0" y="25.760546874999996" font-family="Helvetica, Segoe UI Emoji" font-size="28px" fill="#1e1e1e" text-anchor="start" style="white-space: pre;" direction="ltr" dominant-baseline="alphabetic">column 5</text></g><g transform="translate(116.16005952124374 223.62477851737367) rotate(0 53.525390625 16.09999999999991)"><text x="0" y="25.760546874999996" font-family="Helvetica, Segoe UI Emoji" font-size="28px" fill="#1e1e1e" text-anchor="start" style="white-space: pre;" direction="ltr" dominant-baseline="alphabetic">"Python"</text></g><g transform="translate(130.17373139624374 275.6863313429212) rotate(0 39.51171875 16.09999999999991)"><text x="0" y="25.760546874999996" font-family="Helvetica, Segoe UI Emoji" font-size="28px" fill="#1e1e1e" text-anchor="start" style="white-space: pre;" direction="ltr" dominant-baseline="alphabetic">"Data"</text></g><g transform="translate(116.16005952124374 327.7478841684688) rotate(0 53.525390625 16.09999999999991)"><text x="0" y="25.760546874999996" font-family="Helvetica, Segoe UI Emoji" font-size="28px" fill="#1e1e1e" text-anchor="start" style="white-space: pre;" direction="ltr" dominant-baseline="alphabetic">"Python"</text></g><g transform="translate(123.95302827124374 431.23622419456433) rotate(0 45.732421875 16.09999999999991)"><text x="0" y="25.760546874999996" font-family="Helvetica, Segoe UI Emoji" font-size="28px" fill="#1e1e1e" text-anchor="start" style="white-space: pre;" direction="ltr" dominant-baseline="alphabetic">"Berlin"</text></g><g transform="translate(147.89248139624374 379.8094369940163) rotate(0 21.79296875 16.100000000000136)"><text x="0" y="25.760546874999996" font-family="Helvetica, Segoe UI Emoji" font-size="28px" fill="#1e1e1e" text-anchor="start" style="white-space: pre;" direction="ltr" dominant-baseline="alphabetic">null</text></g><g stroke-linecap="round" transform="translate(421.0604756576631 126.84424969478641) rotate(0 72.28797794313596 18.9832559125648)"><path d="M0 0 C0 0, 0 0, 0 0 M0 0 C0 0, 0 0, 0 0 M1.33 7.08 C1.12 3.73, 1.44 4.13, 6.39 1.42 M0.23 7.15 C2.01 3.81, 2.73 2.83, 4.83 0.35 M0.13 12.1 C0.05 7.57, 7.17 4.71, 8.86 -0.81 M0.53 12.73 C3.66 9.02, 3.98 4.51, 10.32 0.37 M2.04 20.65 C5.82 13.56, 9.26 5.45, 16.29 0.61 M1.47 17.66 C5.21 12.5, 10.46 7.02, 17.19 0.3 M-0.04 20.27 C8.05 17.17, 14.72 8.67, 24.53 -0.32 M0.76 23.16 C4.46 16.8, 10.66 13.24, 21.96 0.61 M-1.62 34.15 C2.59 27.01, 14.51 19.65, 24.74 3.37 M1.53 30.57 C5.63 22.52, 15.49 13.49, 28.22 -0.61 M3.54 33.48 C10.46 30.18, 20.41 12.33, 28.21 0.84 M-0.4 35.94 C7.61 23.03, 18.92 13.84, 30.41 1.38 M0.71 35.97 C13.34 26.66, 21.08 19.31, 35.95 -1.9 M3.82 39.58 C11.47 27.51, 23.54 16.61, 38.86 -0.26 M12.96 36.97 C15.01 28.2, 26.39 15.24, 43.13 0.69 M10.08 40.02 C15.3 29.04, 23.37 22.35, 43.46 1.66 M16.84 39.83 C22.99 28.51, 41.1 11.82, 49.15 0.47 M16.09 39.31 C23.31 28.06, 31.95 19.27, 46.74 2.02 M16.42 34.73 C27.75 25.32, 39.75 9.12, 54.08 -1.65 M18.55 36.65 C28.78 28.76, 37.84 20.82, 51.48 0.93 M22.48 38.88 C31.77 27.42, 46.33 16.9, 60.69 -0.95 M23.39 39.51 C35.36 29.17, 42.97 16.05, 57.9 1.46 M30.48 35.32 C37.18 29.66, 49.04 13.41, 62.97 1.82 M31 37.31 C43.81 22.73, 58.17 8.12, 63.23 -0.81 M33.06 35.61 C40.5 28.93, 56.01 15.23, 72.06 3.25 M35.74 38.96 C45.37 25.22, 56.98 13.39, 66.85 -0.12 M38.09 34.67 C48.77 32.25, 59.51 22.21, 72.84 -4.04 M39.17 38.57 C46.76 27.7, 56.62 19.92, 73.92 1.04 M49.12 41.4 C59.29 29.02, 66.25 12.14, 81.86 3.38 M45.6 36.99 C55.18 26.77, 62.87 18.42, 80.51 1.63 M51.38 41.58 C56.96 24.19, 73.47 12.98, 87.87 -1.5 M51.26 39.53 C59.68 30.4, 66.14 24.15, 85.21 -0.38 M56.32 36.48 C68.07 25.43, 79.73 17.96, 93.81 2.62 M55.88 37.49 C68.55 25.03, 77.99 13.21, 90.26 1.64 M63.56 37.73 C70.29 28, 85.98 9.32, 97.33 -3.93 M63.87 37.87 C75.21 22.76, 84.53 10.08, 97.19 0.63 M65.45 33.97 C70.7 29.95, 79.75 20.21, 100.77 1.02 M67.91 36.93 C77.65 28.75, 88.83 16.49, 99.91 1.41 M72.99 41.68 C89.32 26.24, 100.25 10.17, 107.65 0.16 M74.07 37.84 C85.49 24.88, 97.97 11.67, 104.38 -1.65 M80.43 39.86 C86.97 32.6, 92.83 20.27, 108.71 3.51 M77.46 36.32 C90.58 20.7, 104.37 7.3, 109.7 0.98 M83.16 36.84 C93.64 26.82, 107.65 7.09, 117.71 -0.12 M83.35 38.23 C92.47 27.5, 103.22 15.09, 115.09 0.36 M90.3 37 C96.98 23.58, 111.96 14.43, 120.75 3.88 M90.76 37.24 C100.41 28.2, 109.83 16.83, 120.31 -1.04 M94.65 35.53 C103.61 27.46, 109.14 19.92, 129.5 -1.04 M93.65 36.41 C105.99 24.18, 119.78 9.73, 126.03 0.55 M101.22 41.16 C112.18 21.22, 127.63 5.82, 129.1 0.83 M100.46 37.85 C113.61 23.33, 122.45 11.33, 132.86 0.54 M105.21 38.92 C116.69 29.63, 121.98 16.53, 136.14 4.28 M103.32 36.31 C115.65 26.11, 124.75 19.29, 138.4 -0.36 M111.84 37.68 C116.86 31.64, 124.02 20.37, 147.13 -2.1 M108.98 37.59 C121.2 24.56, 131.43 14.76, 144.91 1.45 M117.68 37.07 C127.45 21.51, 138.72 14.85, 145.92 1.84 M115.2 36.41 C122.98 29.4, 130.03 22.87, 145.83 5.16 M123.88 34.56 C126.24 31.02, 137.47 22.31, 144.78 13.32 M119.17 38.25 C127.43 27.13, 139.68 17.82, 145.93 9.81 M124.04 40.89 C131.28 29.89, 138.84 29.58, 148.99 14.31 M124.5 37.76 C130.97 33.99, 137.23 28.71, 145.14 16.99 M130.22 34.91 C134.93 31.42, 142.45 24.15, 144.21 20.86 M130.33 36.4 C136.48 33.36, 139.3 29.74, 144.91 22.94 M137.13 35.51 C138.26 34.56, 139.29 34.31, 144.2 30.55 M135.52 36.67 C138.96 33.3, 142.71 30.55, 146.13 26.88 M141.59 39.4 C143.68 37.38, 144.03 34.46, 145.12 34.57 M141.39 37.74 C143.42 36.56, 144.02 35.53, 145.89 33.83" stroke="#ffc9c9" stroke-width="0.5" fill="none"></path><path d="M-3.06 -3.85 C46.06 0.14, 88.84 4.86, 142.75 -1.03 M-0.7 -1.02 C35.81 0.32, 75.29 1.46, 146.48 -1.83 M143.68 -0.86 C145.88 9.45, 148.32 20.36, 148.14 34.34 M145.41 0.55 C145.39 6.12, 145.62 17.23, 144.99 38.38 M142.49 38.98 C88.26 36.22, 32.27 36.14, 3.04 34.45 M146.05 37.05 C91.74 36.51, 41.78 35.75, -1.06 38.11 M-2.71 38.87 C2.5 25.72, -3.3 6.68, -0.25 2.03 M-1.07 38.13 C-0.28 29.68, -1.27 23.77, -1.62 -0.68" stroke="#e03131" stroke-width="1" fill="none"></path></g><g transform="translate(439.4095459156033 130.42595450807676) rotate(0 56.806640625 16.09999999999991)"><text x="0" y="25.760546874999996" font-family="Helvetica, Segoe UI Emoji" font-size="28px" fill="#1e1e1e" text-anchor="start" style="white-space: pre;" direction="ltr" dominant-baseline="alphabetic">column 5</text></g><g transform="translate(606.0676128467153 225.5307733753557) rotate(0 81.2177734375 16.09999999999991)"><text x="0" y="25.760546874999996" font-family="Helvetica, Segoe UI Emoji" font-size="28px" fill="#1e1e1e" text-anchor="start" style="white-space: pre;" direction="ltr" dominant-baseline="alphabetic">Values buffer</text></g><g transform="translate(606.0676128467153 129.7275056073513) rotate(0 129.4521484375 16.09999999999991)"><text x="0" y="25.760546874999996" font-family="Helvetica, Segoe UI Emoji" font-size="28px" fill="#1e1e1e" text-anchor="start" style="white-space: pre;" direction="ltr" dominant-baseline="alphabetic">Validity bitmap buffer</text></g><g stroke-linecap="round"><g transform="translate(372.87960115138594 12.369004707048589) rotate(0 0 22.213424812065796)"><path d="M1.94 1.9 C-1.66 9.33, 2.11 20.45, -0.45 44 M0.13 0.89 C-0.96 12.98, 0.6 27.24, 0.41 44.7" stroke="#1e1e1e" stroke-width="2" fill="none"></path></g></g><mask></mask><g stroke-linecap="round" transform="translate(897.5769910715576 112.15688321518792) rotate(0 100.50755853911349 35.69519086488913)"><path d="M-1.84 -0.12 L202.03 -1.87 L200.62 70.09 L-1.07 71.56" stroke="none" stroke-width="0" fill="#a5d8ff"></path><path d="M0 0 C66.4 -2.41, 137.83 -1.49, 201.02 0 M0 0 C55.67 0.42, 111.67 0.54, 201.02 0 M201.02 0 C198.94 15.78, 200.86 30.22, 201.02 71.39 M201.02 0 C201.42 16.18, 202.1 32.19, 201.02 71.39 M201.02 71.39 C157.42 72.15, 113.98 72.11, 0 71.39 M201.02 71.39 C125.54 72.36, 50.51 72.04, 0 71.39 M0 71.39 C-1.51 52.31, 0.56 36.61, 0 0 M0 71.39 C-0.39 44.11, -0.23 14.57, 0 0" stroke="#1e1e1e" stroke-width="2" fill="none"></path></g><g transform="translate(937.8659988753473 130.55514248647705) rotate(0 60.224609375 16.09999999999991)"><text x="0" y="25.760546874999996" font-family="Helvetica, Segoe UI Emoji" font-size="28px" fill="#1e1e1e" text-anchor="start" style="white-space: pre;" direction="ltr" dominant-baseline="alphabetic">00010111</text></g><g stroke-linecap="round" transform="translate(421.0604756576631 371.7177633260703) rotate(0 287.83201845978596 23.262219579720295)"><path d="M0 0 C0 0, 0 0, 0 0 M0 0 C0 0, 0 0, 0 0 M-0.26 6.43 C-0.3 4.16, 3.26 2.73, 4.1 -0.03 M-0.06 6.74 C1.5 4.89, 1.66 2.63, 4.83 0.56 M1.87 13.81 C4.23 8.87, 6.32 3.14, 11.17 0.19 M1.41 11.42 C3.76 8.06, 7.33 4.42, 11.89 -0.06 M-0.43 14.63 C5.96 13.32, 11.02 6.67, 18.88 0.08 M0.36 17.52 C2.68 12.58, 7.59 10.51, 16.32 1.01 M-1.36 27.76 C1.61 21.95, 12.33 15.98, 19.75 3.01 M1.8 24.18 C4.54 17.78, 12.99 10.35, 23.23 -0.97 M3.8 27.08 C8.95 25.69, 17.23 9.76, 22.57 1.23 M-0.14 29.54 C6.1 18.83, 15.57 11.76, 24.76 1.77 M-3.62 34.86 C8.86 25.72, 16.45 18.53, 30.96 -2.26 M-0.51 38.47 C6.96 26.61, 18.84 15.92, 33.88 -0.62 M4.03 41.14 C6.99 31.29, 19.33 17.23, 37.49 1.08 M1.16 44.19 C7.14 32.46, 15.89 24.97, 37.82 2.06 M3.98 48.52 C12.97 34.17, 33.75 14.41, 44.16 0.11 M3.24 48.01 C12.38 34.66, 22.96 23.64, 41.75 1.66 M3.56 43.42 C17.2 31.2, 31.55 12.29, 48.44 -1.25 M5.69 45.34 C17.75 35.65, 28.47 25.8, 45.84 1.32 M9.62 47.57 C20.96 33.7, 37.55 20.85, 55.71 -1.31 M10.53 48.21 C24.68 35.41, 34.53 19.71, 52.91 1.1 M17.62 44.01 C26.34 35.88, 40.33 17.19, 57.32 2.21 M18.14 46.01 C33.86 28.1, 51.02 10.28, 57.58 -0.41 M20.2 44.31 C29.69 35.26, 47.35 19.07, 67.08 2.89 M22.88 47.66 C35.12 30.79, 49.52 15.76, 61.86 -0.48 M25.23 43.36 C37.42 38.92, 49.81 26.98, 67.2 -3.65 M26.31 47.26 C35.49 34.47, 46.96 24.83, 68.28 1.43 M36.26 50.1 C48.98 34.87, 58.35 15.21, 76.87 3.02 M32.74 45.69 C44.18 33.25, 53.72 22.78, 75.52 1.27 M38.52 50.28 C46.11 30.55, 64.67 16.98, 82.22 -1.1 M38.4 48.23 C48.47 37.44, 56.46 29.43, 79.57 0.01 M43.46 45.18 C57.71 31.55, 71.7 21.4, 88.82 2.26 M43.02 46.19 C58.41 30.64, 70.51 15.77, 85.28 1.28 M50.7 46.43 C59.76 33.84, 77.89 12.36, 91.69 -3.53 M51.01 46.57 C65.01 28.48, 76.84 12.91, 91.54 1.02 M52.59 42.67 C59.35 36.66, 70 25.09, 95.78 0.66 M55.05 45.63 C67.04 34.82, 80.59 19.83, 94.92 1.05 M60.13 50.37 C79.3 31.7, 93.02 12.43, 102.01 0.55 M61.21 46.54 C75.27 30.63, 90.38 14.4, 98.73 -1.26 M66.91 49.31 C75.4 39.81, 83.08 25.39, 103.72 3.15 M63.95 45.77 C80.43 26.22, 97.57 8.97, 104.71 0.62 M70.3 45.54 C83.59 32.19, 100.35 9.29, 112.73 -0.48 M70.49 46.93 C81.96 33.39, 95.17 18.13, 110.1 0 M76.78 46.46 C85.94 29.96, 103.54 17.8, 115.1 4.28 M77.25 46.69 C89.25 35.02, 101.09 20.88, 114.66 -0.64 M81.79 44.23 C93.03 33.58, 100.7 23.56, 124.51 -1.4 M80.79 45.11 C96.15 29.48, 112.94 11.58, 121.05 0.19 M87.71 50.61 C101.88 27.18, 120.38 8.26, 123.46 1.22 M86.94 47.3 C103.12 29.44, 114.84 14.15, 127.22 0.94 M92.35 47.62 C106.14 35.51, 113.91 19.56, 131.15 3.92 M90.46 45 C105.14 32.42, 116.43 23.08, 133.41 -0.72 M98.98 46.38 C105.65 38.3, 114.47 25.12, 141.48 -1.71 M96.12 46.29 C110.68 30.61, 123.21 18.17, 139.27 1.85 M104.82 45.76 C118.43 25.73, 133.54 14.65, 143.56 -1.53 M102.34 45.1 C112.91 35.34, 122.51 25.87, 143.46 1.78 M111.02 43.25 C118.4 33.68, 134.85 18.97, 147.66 3.91 M106.31 46.95 C120.04 29.57, 137.78 13.94, 148.82 0.4 M111.18 49.59 C123.65 33.2, 136.2 27.15, 157.78 -1.9 M111.64 46.46 C123.5 36.43, 135.13 24.97, 153.93 0.78 M117.36 43.6 C131.71 28.68, 149.3 9.83, 157.59 -0.63 M117.47 45.09 C130.59 33.9, 140.24 22.43, 158.29 1.44 M124.54 42.9 C133.35 34.28, 141.53 26.29, 162.98 3.57 M122.07 44.69 C137.37 27.46, 153.79 11, 165.95 -2.08 M128.67 50.67 C143.95 33.83, 153.44 14.51, 168.01 2.87 M128.01 45.13 C143.34 31.93, 153.34 19.27, 170.57 0.42 M131.13 46.37 C148.51 31.66, 151.15 26.04, 173.45 0.48 M133.74 45.96 C146.93 33.76, 156.8 20.18, 175.12 -0.59 M140.74 44.56 C150.46 34.02, 160.88 25.76, 180.76 -2.55 M138.76 48.01 C150.54 33.29, 161.94 16.84, 180.95 -0.69 M146.29 45.56 C151.92 39.01, 165.44 25.65, 188.6 -0.67 M143.2 47.02 C157.67 33.4, 167.12 21.44, 187.46 0.02 M150.49 46.28 C159.4 28.11, 170.94 13.35, 186.83 3.04 M149 47.26 C163.57 28.08, 181.29 11.28, 189.18 -1.34 M158.51 46.89 C164.19 31.4, 175.58 24.02, 192.98 3.49 M155.46 47.17 C168.87 32.38, 180.38 19.71, 195.44 -0.91 M163.96 45.67 C174.94 27.06, 191.58 12.77, 198.31 -3.56 M160.44 44.96 C171.19 36.56, 182.91 24.32, 199.45 1.6 M169.39 45.67 C181.51 31.46, 197.11 11.34, 204.25 1.18 M167.94 48.27 C176.5 31.9, 188.03 19.11, 205.96 0.5 M172.31 49.5 C182.73 32.09, 193.24 19.41, 208.44 -0.67 M173.24 47.76 C182.03 31.89, 193.75 19.18, 212.37 1.79 M177.66 50.07 C187.7 32.33, 201.95 13.24, 217.21 -2.47 M178.52 46.74 C188.49 33.62, 196.59 25.61, 216.36 0.72 M183.84 49.36 C190.59 34.49, 205.45 21.75, 223.58 -1.74 M181.99 46.85 C193.21 38, 199.96 26.6, 221 -0.52 M186.52 49.89 C198.14 31.13, 210.94 14.75, 227.76 -1.47 M188.85 46.35 C203.25 31.16, 218.68 11.46, 226.41 0.77 M191.96 45.75 C205.55 38.09, 213.81 23.72, 231.19 0.67 M191.7 46.03 C204.01 31.42, 217.29 19.92, 234.84 1.48 M198.26 45.57 C202.74 37.2, 211.23 32.41, 240.3 3.79 M198.98 47.11 C211.8 32.62, 221.18 18.01, 237.67 -1.01 M199.21 48.04 C211.19 30.29, 225.38 15.84, 239.88 2.84 M201.85 45.61 C214.54 34.14, 225.18 21.31, 243.81 1.13 M210.32 44.66 C220.76 35.28, 229.79 20.3, 246.3 3.56 M207.43 45.92 C221.66 29.09, 236.58 11.8, 248.11 0.01 M217.26 50.46 C225.38 33.22, 238.26 11.68, 255.39 -2.03 M214.34 46.49 C226.44 33.33, 239.89 17.48, 254.3 -1.63 M217.93 50.82 C234.86 30.31, 240.67 20.04, 260.4 -0.81 M217.84 45.43 C236.04 27.93, 250.86 12.87, 260.16 -0.71 M226.9 48.14 C231.33 38.27, 244.78 21.04, 264.56 0.11 M225.5 46.13 C232.46 37.76, 243.78 26.72, 265.1 -0.3 M229.45 48.63 C243.58 34.71, 251 22.79, 267.01 0.18 M230.26 46.89 C242.74 29.83, 258.08 14.28, 271.34 0.11 M234.04 45.05 C242.56 38.29, 248.59 24.82, 275.37 -3.83 M234.11 46.55 C251.24 28.9, 264.54 14.06, 275.47 -1.85 M242.35 43.5 C247.03 31.9, 262.42 21, 283.68 0.9 M241.18 46.11 C256.09 27.41, 270.02 13.07, 281.62 -1.71 M245.73 46.08 C257.65 32.28, 275.32 13.02, 284.93 1.97 M245.39 46.34 C258.02 32.27, 269.04 18.65, 285.08 1.35 M251.25 45.73 C263.26 36.92, 271.34 22.4, 289.06 -3.43 M251.54 45.44 C260.4 32.75, 271.39 20.43, 289.4 -1.76 M254.14 48.94 C265.48 34.16, 273.35 29.63, 295.46 -1.82 M254.98 44.64 C272.07 30.65, 283.88 16.17, 298.05 -0.52 M263.86 46.51 C276.12 32.53, 288.95 8.73, 302.96 -0.67 M262.7 45.82 C270.87 36.52, 281.14 24.8, 303.52 0.91 M268.54 44.27 C280.01 31.27, 285.61 25.6, 306.32 2.36 M264.98 45.15 C277.65 32.59, 291.37 16.82, 306.95 1.26 M269.04 49.89 C284.78 34.19, 294.27 20.83, 314.28 -1.84 M272.48 46.73 C282.7 33.84, 297.28 20.42, 311.25 -0.18 M275.37 47.56 C287.61 35.52, 299.9 15.5, 321.99 -3.08 M275.91 48.15 C288.24 36, 298.36 23.49, 316.76 -1.99 M284.77 48.8 C294.61 33.92, 297.89 22.28, 321.07 -1.08 M283.12 46.22 C297.33 29.77, 311.01 14.2, 322.32 1.06 M286.16 43.16 C301.77 31.59, 312.14 12.26, 328.08 1.19 M286.73 46.48 C297.13 37.35, 306.58 26.33, 328.93 -0.42 M294.15 49.03 C310.4 26.18, 326.55 12.14, 330.5 0.35 M293.29 44.91 C304.82 32.44, 313.37 20.12, 332.86 -0.74 M296.91 49.07 C305.74 37.64, 316.99 18.51, 339.3 -0.68 M298.2 46.27 C312.09 33.11, 323.69 15.91, 341.31 -1.59 M301.42 45.26 C320.75 30.15, 335.29 16.56, 342.85 2.08 M302.13 45.98 C317.37 30.22, 332.89 11.08, 345.48 1.65 M306.75 49.9 C327.27 25.8, 342.04 7.79, 350.85 -2.86 M307.46 47.99 C317.36 37.37, 327.78 28.75, 347.57 2.24 M315.92 45.06 C327.83 36.5, 334.01 28.77, 351.55 -3.42 M313.19 47.16 C325.41 36.01, 338.97 21.89, 353.19 -0.02 M321.91 49.4 C337.37 27.45, 347.68 10.83, 357.04 3.06 M320.13 46.9 C332.26 34.75, 340.84 23.17, 359.75 -0.89 M328.13 44.84 C335.9 35.69, 343.59 24.05, 367.12 1.24 M326.47 44.75 C338.28 34.58, 347.58 19.2, 367.45 -1.4 M326.45 43.42 C342.19 30.88, 357.92 16.3, 371.29 0.63 M328.93 46.08 C340.71 35.16, 351.4 20.39, 372.39 1.88 M333.66 45.92 C348.48 39.58, 352.78 25.51, 377.25 2.27 M334.39 45.63 C345.03 36.39, 357.17 23.41, 378.18 -1.61 M337.53 44.71 C356.49 31.67, 370.27 16.31, 380.86 1.53 M341 45.2 C350.47 35.21, 359.27 27.48, 381.11 1.25 M349.24 46.45 C357.18 36.21, 363.5 29.31, 386.71 2.81 M345.82 47.22 C359.5 27.99, 374.34 13.68, 385.71 0.82 M349.44 50.88 C361.73 36.27, 369.84 24.77, 394.08 -1.67 M349.94 48.44 C362.81 33.5, 377.08 16.81, 393.96 -1.57 M356.71 49.51 C361.19 35.43, 370.03 29.14, 401.43 -1.16 M358.08 45.5 C371.49 31.21, 384.46 12.5, 396.82 -0.09 M365.6 44.43 C372.56 31.85, 387.99 14.01, 400.43 -3.57 M363.77 48.58 C371.71 39.4, 380.89 28.28, 403.44 1.25 M367.07 47.02 C383.36 32.63, 399.32 10.48, 404.44 3.23 M368.91 47.03 C379.31 36, 388.77 21.16, 408.72 -1.77 M374.54 48.72 C385.54 33.57, 402.58 13.95, 410.52 -1.84 M372.96 46.96 C381.45 35.92, 388.63 28.02, 414.47 0.06 M380.4 43.77 C392.22 31.72, 408.54 17.74, 419.92 -2.29 M376.5 44.92 C387.8 37.15, 398.21 25.76, 417.05 -1.06 M381.95 47.99 C394.68 27.7, 409.95 11.31, 424.08 2.68 M382.41 45.47 C390.77 34.74, 399.54 26.25, 424.44 -0.22 M385.94 49.45 C398.14 33.79, 413.91 16.07, 433.15 -3.1 M387.45 46.85 C397.89 35.98, 406.8 25.68, 427.92 -2.26 M394.59 43.35 C406.19 31.97, 415.38 20.57, 437.96 -1.96 M395.45 46.57 C408.44 29.49, 422.2 14.47, 435.15 -0.08 M402.05 46.62 C417.16 28.3, 430.15 14.64, 438.55 0.3 M400.84 47.06 C413.17 29.34, 430.52 10.44, 441.84 -1.09 M404.4 44.79 C411.6 37.03, 422.66 21.39, 446.14 1.19 M405.86 45.28 C415.7 35.74, 424.34 26.87, 444.85 -1.49 M411.54 47.44 C418.7 31.65, 434.25 18.33, 447.66 0.26 M407.5 47.11 C422.48 31.06, 437.53 15.79, 449.79 -0.73 M412.41 47.19 C428.6 27.96, 442.34 17.57, 455.73 1.91 M413.87 45.18 C432.32 29.7, 448.13 8.17, 456.21 0.17 M420.33 50.73 C433.08 31.58, 448.6 17.05, 465.15 -1.97 M420.67 48.84 C433.05 30.09, 445.32 17.22, 461.16 0.22 M428.8 46.28 C441.57 32.72, 456.55 10.75, 462.94 2.88 M426.11 46.42 C436.29 33.58, 448.21 21.93, 468.35 0.09 M429.5 46.4 C444.73 33.04, 450.74 26.44, 472.15 -3.52 M432.06 46.95 C446.67 28.76, 461.32 9.85, 471.13 0.48 M432.84 46.67 C450.09 32.48, 467.53 14.78, 477.14 3.67 M435.68 45.71 C449.77 30.1, 463.23 14.1, 476.84 -0.01 M437.89 44.51 C451.26 36.37, 464.97 21.95, 484.89 -2.91 M442.5 45.92 C452.18 34.65, 459.4 24.25, 483.29 1.05 M444.95 45.86 C456.19 32.17, 468.81 22.21, 488.8 0.69 M446.1 48.31 C457.6 33.4, 469.18 20.19, 489.67 0.19 M449.49 43.99 C465.07 35.67, 474.39 22.6, 494.75 -3.53 M453.21 48.79 C466.84 29.6, 484.79 9.97, 493.71 1.77 M454.68 50.21 C464.43 36.6, 477.54 27.11, 501.53 3.25 M459.34 48.06 C470.7 31.23, 487.59 13.9, 499.27 -0.46 M465.4 48.64 C476.32 27.78, 489.06 8.14, 502.9 -0.62 M461.89 45.2 C479.83 29.99, 493.42 9.61, 501.52 -1.7 M468.7 42.96 C484.59 32.4, 496.81 17.71, 508.06 1.52 M467.8 47.35 C482.55 28.5, 497.36 10.89, 510.52 -0.52 M475.84 43.15 C483.12 32.88, 487.65 22.7, 511.64 3.42 M474.65 47.31 C487.1 30.16, 503.45 13.03, 512.33 -1.17 M478.79 48.23 C490.61 28.06, 506.61 16.44, 522.23 -1.43 M478.31 45.15 C490.27 36.97, 496.29 24.95, 520.71 -0.02 M484.18 49.05 C495.39 34.83, 510.03 12.31, 524.37 -0.92 M482.05 45.86 C492.46 37.54, 499.84 25.9, 526.16 0.13 M485.87 43 C507.5 25.58, 519.07 8.82, 531.03 2.31 M488.16 44.97 C504.91 31.52, 515.49 14.97, 531.6 -0.39 M490.89 44.79 C506.62 30.5, 523.88 21.11, 537.64 1.73 M495.09 46.16 C504.86 36.79, 516.21 24.41, 533.47 -0.45 M499.98 45.15 C512.73 34.42, 527.47 16.2, 542.57 1.56 M501.06 46.89 C511.95 30.28, 527.13 17.24, 541.36 -0.52 M501.57 45.66 C512.1 31.42, 523.96 23.47, 549.12 3.61 M505.2 48.06 C516.62 34.7, 528.17 24.33, 547.16 -1.03 M508.28 49.41 C516.92 39.91, 531.34 29.43, 554.06 -2.02 M511.16 47.57 C520.63 35.24, 530.59 21.84, 552.63 -0.74 M518.95 47.83 C522.69 39.12, 529.39 23.4, 557.59 -2.17 M516.24 46 C523.18 36.71, 533.83 26.68, 554.57 0.86 M523.08 43.4 C527.04 38.27, 539.39 21.16, 559.86 -1.87 M523.04 48.21 C537.74 28.15, 550 13.94, 560.44 1.2 M526.88 44.38 C537.19 32.47, 556.19 16.58, 570.97 2.39 M524.54 44.97 C541.98 32.92, 552.5 17.22, 565.48 0.23 M533.12 48.35 C544.41 27.27, 559.67 17.76, 575.46 -2.56 M531.08 47.33 C546.59 28.2, 561.08 12.65, 572.31 -1.91 M538.35 49.21 C553.25 31.53, 563.37 18.71, 573 -2.34 M538.82 48.51 C544.55 37.14, 556.06 25.82, 574.79 2.18 M538.26 44.14 C552.23 40.09, 560.35 24.2, 574.24 4.51 M542.06 45.76 C549.35 39.05, 559.12 27.73, 576.95 9.6 M547.46 49.14 C558.36 34.48, 570.21 22.41, 573.3 13.19 M548.28 46.74 C555.15 39.67, 559.12 33.83, 576.62 12.66 M553.52 45.75 C560.66 40.08, 575.12 29.06, 577.85 20 M551.22 47.15 C559.33 39.3, 564.75 30.67, 574.65 21.13 M561.44 43.83 C568.71 41.34, 575.9 31.66, 577.67 25.53 M558.53 48.34 C560.49 41.26, 566.24 38.56, 574.56 28.31 M563.67 44.3 C572 45.24, 576.09 37.19, 572.45 34.17 M564.89 46.96 C568.51 41.29, 572.4 39.06, 577.52 33.4 M568.76 46.23 C570.61 43.05, 570.29 44.15, 574.88 39.77 M568.21 47.72 C570.5 45.35, 571.58 42.71, 575.77 38.81 M573.41 47.16 C574.89 46.2, 575.45 44.97, 576.09 45.08 M574.2 46.78 C574.59 46.11, 575.42 45.71, 575.61 45" stroke="#ffc9c9" stroke-width="0.5" fill="none"></path><path d="M-0.36 -0.34 C150.68 -0.76, 302.11 -0.37, 577.09 -1.45 M0.33 0.22 C116.07 2.55, 232.11 3.93, 575.83 0.16 M573.58 1.02 C575.8 18.76, 576.05 36.78, 578.7 43.01 M577.13 -0.91 C574.83 15.54, 576.75 31.47, 574.61 46.67 M574.58 46.89 C367.66 51.13, 156.06 49.04, -0.1 47.34 M575.24 46.59 C456.59 43.36, 337.3 44.14, -0.65 46.25 M-3.31 48.75 C-0.27 36.9, 0.69 24.37, 3.14 -2.67 M-0.54 48.41 C-2.04 32.86, 0.08 13.43, 0.78 1.77" stroke="#e03131" stroke-width="1" fill="none"></path></g><g transform="translate(444.6014784924491 378.8799829057907) rotate(0 264.291015625 16.100000000000136)"><text x="0" y="25.760546874999996" font-family="Helvetica, Segoe UI Emoji" font-size="28px" fill="#1e1e1e" text-anchor="start" style="white-space: pre;" direction="ltr" dominant-baseline="alphabetic">dictionary - Variable-size Binary child array</text></g><g stroke-linecap="round"><g transform="translate(512.0075301402235 179.7259157271219) rotate(0 4.0726754059201085 87.99769026039075)"><path d="M3.01 0.51 C6.34 45.4, 1.1 100.65, 5.4 177.65" stroke="#e03131" stroke-width="1.5" fill="none" stroke-dasharray="8 9"></path></g><g transform="translate(512.0075301402235 179.7259157271219) rotate(0 4.0726754059201085 87.99769026039075)"><path d="M-2.3 154.66 C0.57 159.08, -0.62 168.67, 4.03 178.48" stroke="#e03131" stroke-width="1.5" fill="none"></path></g><g transform="translate(512.0075301402235 179.7259157271219) rotate(0 4.0726754059201085 87.99769026039075)"><path d="M14.79 154.19 C12.91 158.72, 6.96 168.44, 4.03 178.48" stroke="#e03131" stroke-width="1.5" fill="none"></path></g></g><mask></mask><g transform="translate(1054.6512915216579 471.8876843918074) rotate(0 81.2177734375 16.09999999999991)"><text x="0" y="25.760546874999996" font-family="Helvetica, Segoe UI Emoji" font-size="28px" fill="#1e1e1e" text-anchor="start" style="white-space: pre;" direction="ltr" dominant-baseline="alphabetic">Values buffer</text></g><g stroke-linecap="round" transform="translate(897.5769910715576 204.76972480411314) rotate(0 108.20816694165012 36.861048571242236)"><path d="M-1.62 -0.68 L216 0.22 L218.34 72.07 L1.11 73.64" stroke="none" stroke-width="0" fill="#a5d8ff"></path><path d="M0 0 C65.97 2.85, 134.17 2.43, 216.42 0 M0 0 C71.09 2.28, 141.88 1.62, 216.42 0 M216.42 0 C215.55 29.18, 216.55 57.68, 216.42 73.72 M216.42 0 C215.65 23, 216.65 44.73, 216.42 73.72 M216.42 73.72 C134.57 73.67, 53.07 71.9, 0 73.72 M216.42 73.72 C150.65 74.9, 83.57 76.19, 0 73.72 M0 73.72 C0.35 49.75, -1.39 23.35, 0 0 M0 73.72 C0.18 56.16, -0.32 39.79, 0 0" stroke="#1e1e1e" stroke-width="2" fill="none"></path></g><g transform="translate(938.8613298882077 225.5307733753557) rotate(0 70.0478515625 16.09999999999991)"><text x="0" y="25.760546874999996" font-family="Helvetica, Segoe UI Emoji" font-size="28px" fill="#1e1e1e" text-anchor="start" style="white-space: pre;" direction="ltr" dominant-baseline="alphabetic">0  1  0  _  2</text></g><g transform="translate(1054.6512915216579 378.54137919742425) rotate(0 76.5419921875 16.100000000000136)"><text x="0" y="25.760546874999996" font-family="Helvetica, Segoe UI Emoji" font-size="28px" fill="#1e1e1e" text-anchor="start" style="white-space: pre;" direction="ltr" dominant-baseline="alphabetic">Offset buffer</text></g><g stroke-linecap="round" transform="translate(1255.6695120624 360.3555224302618) rotate(0 117.80276225630564 34.28585676716261)"><path d="M0.28 -0.39 L235.06 1.88 L233.7 70.48 L0.21 66.62" stroke="none" stroke-width="0" fill="#a5d8ff"></path><path d="M0 0 C90.76 2.08, 183.24 1.93, 235.61 0 M0 0 C70.89 -1.01, 143.37 -1.59, 235.61 0 M235.61 0 C234.13 26.59, 233.37 50.17, 235.61 68.57 M235.61 0 C236.91 20.4, 236.27 42.96, 235.61 68.57 M235.61 68.57 C155.64 67.6, 74.31 66.42, 0 68.57 M235.61 68.57 C180.01 68.55, 124.19 69.36, 0 68.57 M0 68.57 C0.46 55.49, -1.42 39.67, 0 0 M0 68.57 C0.38 49.07, -1.24 28.34, 0 0" stroke="#1e1e1e" stroke-width="2" fill="none"></path></g><g transform="translate(1292.2284592145388 378.54137919742425) rotate(0 70.0546875 16.100000000000136)"><text x="0" y="25.760546874999996" font-family="Helvetica, Segoe UI Emoji" font-size="28px" fill="#1e1e1e" text-anchor="start" style="white-space: pre;" direction="ltr" dominant-baseline="alphabetic">0  6  10  16</text></g><g stroke-linecap="round" transform="translate(1255.6695120624 452.4772608926337) rotate(0 148.3723756847706 35.04220680752178)"><path d="M-1.37 -1.28 L298.06 1.93 L298.74 70.94 L0.27 68.66" stroke="none" stroke-width="0" fill="#a5d8ff"></path><path d="M0 0 C62.8 0.82, 125.23 -0.97, 296.74 0 M0 0 C71.44 2.16, 144.13 2.8, 296.74 0 M296.74 0 C297.88 27.87, 294.98 52.35, 296.74 70.08 M296.74 0 C296.91 19.94, 296.57 41.26, 296.74 70.08 M296.74 70.08 C215.2 67.33, 130.96 68.22, 0 70.08 M296.74 70.08 C204.84 68.24, 112.73 68.42, 0 70.08 M0 70.08 C0.14 42.65, -0.94 14.1, 0 0 M0 70.08 C0.77 41.49, 1.06 15.72, 0 0" stroke="#1e1e1e" stroke-width="2" fill="none"></path></g><g transform="translate(1293.6209893096707 471.41946770015556) rotate(0 108.951171875 16.09999999999991)"><text x="0" y="25.760546874999996" font-family="Helvetica, Segoe UI Emoji" font-size="28px" fill="#1e1e1e" text-anchor="start" style="white-space: pre;" direction="ltr" dominant-baseline="alphabetic">PythonDataBerlin</text></g><g stroke-linecap="round"><g transform="translate(297.6218412846001 158.8881576652443) rotate(0 53.88220589296657 -8.09990696495629)"><path d="M-0.57 -0.7 C17.34 -3.5, 90.4 -14.78, 108.35 -17.35" stroke="#e03131" stroke-width="1.5" fill="none" stroke-dasharray="8 9"></path></g><g transform="translate(297.6218412846001 158.8881576652443) rotate(0 53.88220589296657 -8.09990696495629)"><path d="M86.38 -5.42 C93.48 -8.8, 100.92 -15.29, 108.35 -17.35" stroke="#e03131" stroke-width="1.5" fill="none"></path></g><g transform="translate(297.6218412846001 158.8881576652443) rotate(0 53.88220589296657 -8.09990696495629)"><path d="M83.85 -22.33 C91.82 -19.38, 100.21 -19.55, 108.35 -17.35" stroke="#e03131" stroke-width="1.5" fill="none"></path></g></g><mask></mask></svg>