<svg version="1.1" xmlns="http://www.w3.org/2000/svg" viewBox="0 0 1110.702151340734 382.15429186395613" width="1110.702151340734" height="382.15429186395613">
  <!-- svg-source:excalidraw -->
  
  <defs>
    <style class="style-fonts">
      @font-face {
        font-family: "Virgil";
        src: url("https://excalidraw.com/Virgil.woff2");
      }
      @font-face {
        font-family: "Cascadia";
        src: url("https://excalidraw.com/Cascadia.woff2");
      }
      @font-face {
        font-family: "Assistant";
        src: url("https://excalidraw.com/Assistant-Regular.woff2");
      }
    </style>
    
  </defs>
  <g stroke-linecap="round" transform="translate(10 10) rotate(0 545.351075670367 29.721659908090714)"><path d="M0.62 -3.77 L1089.62 2.92 L1090.79 57.88 L-3.84 56.59" stroke="none" stroke-width="0" fill="#b2f2bb"></path><path d="M0.91 1.18 C317.81 -5.78, 636.49 -4.35, 1090.78 0.15 M0.18 0.4 C406.08 0.46, 811.67 0.67, 1091.5 0.33 M1092.46 1.77 C1088.27 13.3, 1088.32 32.24, 1087.21 55.97 M1089.04 -1.82 C1091.44 19.53, 1091.53 36.75, 1088.73 57.52 M1091.64 58.21 C842.22 59.1, 593.08 57.69, -0.41 59.13 M1091.32 60.17 C778.44 63.46, 467.99 63.11, 0.75 58.82 M-0.41 60.05 C-0.27 41.88, -3.8 34.43, -2.81 2.48 M0.47 60.57 C-0.06 38.73, 1.37 18.04, 1.27 -1.13" stroke="#1e1e1e" stroke-width="2" fill="none"></path></g><g transform="translate(60.40760743510782 21.210908624333115) rotate(0 120.626953125 16.09999999999991)"><text x="0" y="25.760546874999996" font-family="Helvetica, Segoe UI Emoji" font-size="28px" fill="#1e1e1e" text-anchor="start" style="white-space: pre;" direction="ltr" dominant-baseline="alphabetic">binary with length 2</text></g><g transform="translate(442.13592335039493 20.7376470953609) rotate(0 257.5576171875 16.09999999999991)"><text x="0" y="25.760546874999996" font-family="Helvetica, Segoe UI Emoji" font-size="28px" fill="#1e1e1e" text-anchor="start" style="white-space: pre;" direction="ltr" dominant-baseline="alphabetic">Physical layout - Fixed-size binary Layout</text></g><g stroke-linecap="round" transform="translate(109.6237777347983 136.93333203174325) rotate(0 69.19198593796239 117.61047991610644)"><path d="M0.67 -1.18 L140.26 -1.57 L137.05 236.11 L-1.68 235.01" stroke="none" stroke-width="0" fill="#ffc9c9"></path><path d="M0 0 C39.94 -0.88, 81.13 -2.2, 138.38 0 M0 0 C40.78 -1.24, 80.94 -0.97, 138.38 0 M138.38 0 C140.56 92.93, 139.94 188.67, 138.38 235.22 M138.38 0 C137.4 49.88, 136.48 101.4, 138.38 235.22 M138.38 235.22 C100.9 235.31, 67.62 235.4, 0 235.22 M138.38 235.22 C104.4 234.53, 71.79 234.48, 0 235.22 M0 235.22 C-0.31 181.52, -0.96 130.06, 0 0 M0 235.22 C-0.48 168.81, -1.95 100.74, 0 0" stroke="#1e1e1e" stroke-width="2" fill="none"></path></g><g stroke-linecap="round"><g transform="translate(112.62075298722107 197.14975939227907) rotate(0 65.28792115044882 0.3806997662982212)"><path d="M0 0 C50.7 -0.96, 98.32 0.9, 130.58 0.76 M0 0 C46.51 0.7, 92.52 1.66, 130.58 0.76" stroke="#1e1e1e" stroke-width="2" fill="none"></path></g></g><mask></mask><g transform="translate(118.92257271047447 151.44875945370404) rotate(0 56.900001525878906 16.09999999999991)"><text x="0" y="25.760546874999996" font-family="Helvetica, Segoe UI Emoji" font-size="28px" fill="#1e1e1e" text-anchor="start" style="white-space: pre;" direction="ltr" dominant-baseline="alphabetic">column 4</text></g><g transform="translate(152.53841992276057 223.08794217019204) rotate(0 26.299999237060547 16.09999999999991)"><text x="0" y="25.760546874999996" font-family="Helvetica, Segoe UI Emoji" font-size="28px" fill="#1e1e1e" text-anchor="start" style="white-space: pre;" direction="ltr" dominant-baseline="alphabetic">"Py"</text></g><g transform="translate(157.20052929776057 269.58568726837575) rotate(0 21.524999618530273 16.09999999999991)"><text x="0" y="25.760546874999996" font-family="Helvetica, Segoe UI Emoji" font-size="28px" fill="#1e1e1e" text-anchor="start" style="white-space: pre;" direction="ltr" dominant-baseline="alphabetic">"th"</text></g><g transform="translate(153.30404492276057 316.08343236655946) rotate(0 25.5 16.09999999999991)"><text x="0" y="25.760546874999996" font-family="Helvetica, Segoe UI Emoji" font-size="28px" fill="#1e1e1e" text-anchor="start" style="white-space: pre;" direction="ltr" dominant-baseline="alphabetic">"on"</text></g><g stroke-linecap="round" transform="translate(410.48424358094303 151.8522778176689) rotate(0 72.28797794313596 18.9832559125648)"><path d="M0 0 C0 0, 0 0, 0 0 M0 0 C0 0, 0 0, 0 0 M0.51 4.8 C0.23 5.49, 4.24 1.89, 5.68 1.38 M0.02 6.03 C2.23 3.7, 2.83 1.68, 5.67 0.8 M-2.22 14.66 C1.05 12.1, 2.62 3.81, 10.49 0.45 M-0.6 11.65 C4.53 5.58, 7.79 1.52, 10.77 -0.79 M-0.1 17.27 C8.37 10.81, 15.18 6.7, 15.24 -3.43 M1.82 16.51 C5.54 10.8, 10.94 4.28, 13.65 -1.34 M0.12 26.87 C6.22 14.92, 15.06 8.62, 20.77 -1.7 M-0.51 23.29 C7.56 14.33, 14.37 8.84, 20.52 1.25 M0.1 28.35 C7.22 21, 16.2 5.99, 29.83 -0.45 M0.78 32.38 C8.74 22.25, 18.95 9.83, 24.36 0.8 M-0.22 37.06 C7.62 27.79, 18.14 9.94, 34.85 -2.77 M-0.47 35.11 C10.78 22.02, 25.93 8.06, 30.46 1.04 M4.05 39.93 C16.81 25.39, 27.7 8.44, 33.88 4.1 M4.19 38.06 C17.56 24.84, 32.46 9.64, 38.5 0.13 M7.55 40.57 C18.36 24.99, 29.8 19.24, 41.14 1.56 M8.75 39.96 C19.14 22.25, 31.52 8.24, 43.25 -0.82 M12.34 35.68 C20.93 27.54, 34.79 12.17, 46.94 0.35 M16.55 36.06 C26.74 25.72, 39.37 9.36, 48.65 -1.03 M19.93 35.84 C31.02 31.61, 33.75 25.19, 52.24 1.36 M18.46 38.72 C26.75 28.73, 36.09 22.63, 52.46 0.52 M24.48 35.72 C38.07 21.68, 46.39 6.31, 60.63 0.31 M24.12 39.55 C35.86 26.39, 49.92 9.15, 56.36 1.73 M28.77 34.88 C40.61 20.45, 53.39 5.53, 64.85 -3.44 M32.13 38.04 C36.17 28.74, 42.9 23, 62.6 -2.01 M38.7 38.49 C48.92 22.84, 57.19 12.26, 70.76 -2.15 M34.64 38.19 C47.9 24.09, 63.15 8.85, 68.1 -1.16 M39.33 38.08 C53.03 28.39, 58.04 15.37, 75.83 -3 M39.49 37.12 C51.21 28.11, 60 17.66, 73.1 0.56 M45.33 36.31 C49.06 32.33, 56.9 24.36, 77.2 0.73 M46.81 37.71 C54.98 31.52, 62.79 21.13, 79.27 -1.18 M53.02 35.69 C61.06 22.73, 71.58 15.85, 82.12 -1.64 M51.19 37.22 C58.25 28.44, 68.79 16.44, 86.34 1.28 M58.83 39.37 C66.14 28.77, 77.94 17.41, 91.99 -1.41 M58.26 35.9 C65.61 27.99, 74.7 16.56, 90.22 0.24 M59.36 39.85 C71.1 28.19, 81.63 14.61, 96.82 -1.78 M62.84 37.66 C74.71 25.03, 85.84 13.19, 95.63 1.26 M69.8 35.74 C79.42 21.47, 91.64 13.33, 99.28 2.93 M69.55 38.63 C75.75 28.65, 82.67 18.05, 102.24 -0.25 M76 36.55 C80.32 28.32, 90.25 16.83, 109.15 -4 M70.96 39.84 C86.78 23.31, 96.58 9.34, 105.24 -2.34 M76.94 39.37 C82.62 25.97, 95.88 18.93, 111.34 -0.88 M80.19 35.81 C92.72 22.91, 105.04 5.57, 109.54 0.04 M84.73 41.69 C92.04 29.21, 99.62 16.43, 115.77 1.8 M85.03 39.21 C95.88 27.7, 102.87 15.55, 117.69 0.47 M87.1 34.08 C101.96 23.15, 107.73 17.55, 120.58 2.43 M88.61 37.43 C99.85 28.01, 106.58 15.43, 123.29 1.88 M95.43 37.01 C100.3 32.81, 106.83 24.26, 123.47 1.29 M95.46 37.27 C102.29 28.6, 111.6 17.73, 128.42 1.47 M99.23 37.55 C113.41 19.71, 127.81 11.15, 131.52 1.99 M100.19 37.52 C112.38 26.95, 120.32 13.4, 131.59 0.08 M106.13 34.15 C119.74 26.6, 127.04 12.59, 137.18 0.29 M105.59 37.61 C113.79 26.7, 125.75 15.03, 137.85 -1.21 M111.76 38.11 C118.31 25.97, 131.92 15.36, 144.8 0.8 M110.6 38.95 C118.08 28.51, 130.44 15.35, 143.46 -0.46 M118.99 34.61 C122.64 29.69, 132.53 22.06, 143.99 0.77 M115.71 37.85 C122.33 31.21, 129.9 24.28, 147.35 4.84 M117.24 39.69 C127.97 30.37, 136.73 15.29, 148.69 9.55 M120.39 38.38 C130.28 28.23, 138.15 14.97, 144.36 9.02 M124.28 37.77 C134.49 35.21, 134.48 21.27, 143.83 18.34 M127.04 37.71 C130.47 30.86, 138.4 23.41, 145.96 15.92 M130.32 34.37 C139.54 31.71, 137.7 31.18, 142.63 19.46 M131.11 38.79 C133.08 33.69, 139.07 31.97, 143.74 21.99 M139.08 39.86 C136.87 32.86, 142.21 30.15, 144.3 28.77 M137.35 38.59 C137.63 35.85, 140.18 32.68, 144.88 27.39 M141.87 38.61 C143.33 37.48, 144.84 36.16, 144.37 33.5 M141.09 38.35 C142.97 36.48, 144.89 34.67, 146.11 34.22" stroke="#ffc9c9" stroke-width="0.5" fill="none"></path><path d="M1.75 1.77 C34.71 -0.6, 72.87 2.68, 141.08 -3.47 M-1.66 -1.82 C47.38 0.36, 93.6 -1.39, 142.6 -1.92 M146.92 -3.09 C146.13 9.14, 145.58 14.27, 143.54 37.18 M146.12 1.82 C143.07 10.54, 145.68 20.51, 146.46 36.4 M144.16 38.57 C111.07 31.85, 73.79 38.28, -2.81 40.45 M145.05 39.1 C96.84 37.43, 50.15 36.52, 1.27 36.84 M2.92 38.05 C-0.84 22.15, -2.14 10.35, -0.61 -1.35 M0.44 38.97 C-0.81 26.06, 1.39 15.11, -1.6 -1.55" stroke="#e03131" stroke-width="1" fill="none"></path></g><g transform="translate(427.50572214723184 155.43398263096014) rotate(0 56.900001525878906 16.09999999999991)"><text x="0" y="25.760546874999996" font-family="Helvetica, Segoe UI Emoji" font-size="28px" fill="#1e1e1e" text-anchor="start" style="white-space: pre;" direction="ltr" dominant-baseline="alphabetic">column 4</text></g><g transform="translate(614.0388311044846 239.72763023201014) rotate(0 81.60832977294922 16.09999999999991)"><text x="0" y="25.760546874999996" font-family="Helvetica, Segoe UI Emoji" font-size="28px" fill="#1e1e1e" text-anchor="start" style="white-space: pre;" direction="ltr" dominant-baseline="alphabetic">Values buffer</text></g><g transform="translate(614.0388311044846 154.2743239111087) rotate(0 130.03334045410156 16.09999999999991)"><text x="0" y="25.760546874999996" font-family="Helvetica, Segoe UI Emoji" font-size="28px" fill="#1e1e1e" text-anchor="start" style="white-space: pre;" direction="ltr" dominant-baseline="alphabetic">Validity bitmap buffer</text></g><g stroke-linecap="round"><g transform="translate(349.2399527138864 11.63170001954768) rotate(0 0 22.213424812065796)"><path d="M0.56 1.33 C-1.6 7.67, -2.33 17.86, 1.27 44.3 M0.12 0.13 C-1.11 15.67, -0.54 31.71, 0.57 44.9" stroke="#1e1e1e" stroke-width="2" fill="none"></path></g></g><mask></mask><g stroke-linecap="round"><g transform="translate(269.8036233325074 164.27482907483545) rotate(0 62.551164210757065 6.184067231962217)"><path d="M-2.38 -3.95 C41.52 -0.05, 93.2 7.05, 127.44 9.28" stroke="#e03131" stroke-width="2.5" fill="none" stroke-dasharray="8 10"></path></g><g transform="translate(269.8036233325074 164.27482907483545) rotate(0 62.551164210757065 6.184067231962217)"><path d="M102.09 13.74 C110.09 11.79, 122.03 10.77, 128.61 7.74" stroke="#e03131" stroke-width="2.5" fill="none"></path></g><g transform="translate(269.8036233325074 164.27482907483545) rotate(0 62.551164210757065 6.184067231962217)"><path d="M103.61 -3.3 C111.11 0.93, 122.5 6.08, 128.61 7.74" stroke="#e03131" stroke-width="2.5" fill="none"></path></g></g><mask></mask><g stroke-linecap="round" transform="translate(950.2431960602228 223.3638295947435) rotate(0 72.4088820479725 34.28585676716284)"><path d="M0.91 1.68 L145.26 1.01 L144.35 67.83 L1.74 68.05" stroke="none" stroke-width="0" fill="#a5d8ff"></path><path d="M0 0 C34.22 -1.45, 66.63 0.33, 144.82 0 M0 0 C45.14 0.23, 91.24 0.85, 144.82 0 M144.82 0 C145.14 26.51, 144.26 53.58, 144.82 68.57 M144.82 0 C143.52 15.09, 144.51 30.44, 144.82 68.57 M144.82 68.57 C113.3 70.81, 85.26 70.32, 0 68.57 M144.82 68.57 C99.63 68.93, 54.97 68.48, 0 68.57 M0 68.57 C-1.5 43.11, 1.85 18.78, 0 0 M0 68.57 C-0.26 50.52, 0.32 32.72, 0 0" stroke="#1e1e1e" stroke-width="2" fill="none"></path></g><g transform="translate(980.6371041498626 241.97937386190597) rotate(0 43.52500152587902 16.09999999999991)"><text x="0" y="25.760546874999996" font-family="Helvetica, Segoe UI Emoji" font-size="28px" fill="#1e1e1e" text-anchor="start" style="white-space: pre;" direction="ltr" dominant-baseline="alphabetic">Python</text></g><g transform="translate(954.3354695057876 154.2743239111087) rotate(0 30.975000381469727 17.5)"><text x="0" y="24.528" font-family="Virgil, Segoe UI Emoji" font-size="28px" fill="#1971c2" text-anchor="start" style="white-space: pre;" direction="ltr" dominant-baseline="alphabetic">None</text></g></svg>