<svg version="1.1" xmlns="http://www.w3.org/2000/svg" viewBox="0 0 1171.3426535634085 500.629901274448" width="1171.3426535634085" height="500.629901274448">
  <!-- svg-source:excalidraw -->
  
  <defs>
    <style class="style-fonts">
      @font-face {
        font-family: "Virgil";
        src: url("https://excalidraw.com/Virgil.woff2");
      }
      @font-face {
        font-family: "Cascadia";
        src: url("https://excalidraw.com/Cascadia.woff2");
      }
      @font-face {
        font-family: "Assistant";
        src: url("https://excalidraw.com/Assistant-Regular.woff2");
      }
    </style>
    
  </defs>
  <g stroke-linecap="round" transform="translate(10 10) rotate(0 575.6713267817042 27.293180622390082)"><path d="M2.22 0.07 L1152.11 2.79 L1153.28 56.88 L1.03 52.85" stroke="none" stroke-width="0" fill="#b2f2bb"></path><path d="M-0.1 -0.48 C287.86 -5.6, 578.23 -5.42, 1152.3 -0.17 M0.54 -0.47 C420.69 -3.37, 839.68 -3.07, 1150.73 -0.32 M1154.68 -2.59 C1149.62 21.94, 1152.35 42.01, 1154.3 56.71 M1149.81 -1.96 C1150.12 16.03, 1148.94 35.16, 1152.91 54.34 M1152.07 55.89 C697.42 47.72, 243.81 47.12, 1.4 55.69 M1151.91 54.52 C820.46 60.95, 488.55 60.9, 0.78 54.26 M0.52 53.45 C-2.22 36.05, -0.06 12.7, -1.85 1.32 M1.13 54.92 C-1.19 44.33, -0.93 30.63, -1.16 1.27" stroke="#1e1e1e" stroke-width="2" fill="none"></path></g><g transform="translate(29.04725587260782 19.557231951025642) rotate(0 161.8544921875 16.100000000000023)"><text x="0" y="25.760546874999996" font-family="Helvetica, Segoe UI Emoji" font-size="28px" fill="#1e1e1e" text-anchor="start" style="white-space: pre;" direction="ltr" dominant-baseline="alphabetic">fixed size list with length 2</text></g><g transform="translate(549.4298417345495 19.8369418952243) rotate(0 241.212890625 16.100000000000023)"><text x="0" y="25.760546874999996" font-family="Helvetica, Segoe UI Emoji" font-size="28px" fill="#1e1e1e" text-anchor="start" style="white-space: pre;" direction="ltr" dominant-baseline="alphabetic">Physical layout - Fixed-size List Layout</text></g><g stroke-linecap="round" transform="translate(31.556161734468674 138.09368396534637) rotate(0 132.19540239859825 125.02118203600389)"><path d="M1.42 1.03 L266.35 -0.81 L265.82 251.23 L1.44 250.3" stroke="none" stroke-width="0" fill="#ffc9c9"></path><path d="M0 0 C90.08 -1.19, 179.3 -0.12, 264.39 0 M0 0 C87.82 0.67, 173.97 0.97, 264.39 0 M264.39 0 C264.32 54.36, 264.92 110.75, 264.39 250.04 M264.39 0 C266.37 61.72, 266.14 122.34, 264.39 250.04 M264.39 250.04 C203.98 248.13, 145.87 247.19, 0 250.04 M264.39 250.04 C171.94 249.7, 77.46 250.15, 0 250.04 M0 250.04 C0.21 153.44, 1.62 60.53, 0 0 M0 250.04 C-0.44 177.94, -0.21 106.45, 0 0" stroke="#1e1e1e" stroke-width="2" fill="none"></path></g><g stroke-linecap="round"><g transform="translate(39.21653124472141 197.08177580927895) rotate(0 125.80054181061894 -0.4718183585096085)"><path d="M0 0 C88.76 0.81, 175.91 0.65, 251.6 -0.94 M0 0 C59.84 0.96, 120.54 0.69, 251.6 -0.94" stroke="#1e1e1e" stroke-width="2" fill="none"></path></g></g><mask></mask><g transform="translate(105.17929850806706 151.6742866672039) rotate(0 56.806640625 16.100000000000023)"><text x="0" y="25.760546874999996" font-family="Helvetica, Segoe UI Emoji" font-size="28px" fill="#1e1e1e" text-anchor="start" style="white-space: pre;" direction="ltr" dominant-baseline="alphabetic">column 2</text></g><g transform="translate(119.70424587891614 223.02541112531162) rotate(0 43.5791015625 16.100000000000023)"><text x="0" y="25.760546874999996" font-family="Helvetica, Segoe UI Emoji" font-size="28px" fill="#1e1e1e" text-anchor="start" style="white-space: pre;" direction="ltr" dominant-baseline="alphabetic">[12, -7]</text></g><g transform="translate(141.49037869141614 274.01526575016715) rotate(0 21.79296875 16.100000000000023)"><text x="0" y="25.760546874999996" font-family="Helvetica, Segoe UI Emoji" font-size="28px" fill="#1e1e1e" text-anchor="start" style="white-space: pre;" direction="ltr" dominant-baseline="alphabetic">null</text></g><g transform="translate(118.61386882056695 325.7411283336919) rotate(0 45.1376953125 16.100000000000023)"><text x="0" y="25.760546874999996" font-family="Helvetica, Segoe UI Emoji" font-size="28px" fill="#1e1e1e" text-anchor="start" style="white-space: pre;" direction="ltr" dominant-baseline="alphabetic">[0, null]</text></g><g stroke-linecap="round" transform="translate(429.445156105072 122.06418179227603) rotate(0 72.28797794313596 18.9832559125648)"><path d="M0 0 C0 0, 0 0, 0 0 M0 0 C0 0, 0 0, 0 0 M-0.37 5.16 C0.28 3.57, 3.77 1.08, 3.63 -0.19 M0.2 6.74 C1.16 5.43, 1.68 3.17, 4.31 -0.05 M-0.24 12.61 C1.48 9.36, 5.24 3.8, 8.42 -0.76 M0.5 11.23 C3.92 10.33, 6.27 4.64, 11.27 -0.42 M2.55 20.94 C6.57 10.76, 8.59 8.72, 19.08 -3.38 M-1.55 17.1 C4 13.09, 8.97 5.99, 17.26 -1.29 M-3.16 26.48 C9.7 12.8, 13.05 4.87, 23.54 -1.41 M0.91 22.63 C7 14.92, 12.8 8.72, 21.73 0.66 M0.01 28.51 C4.18 23.66, 18.44 9.09, 27.01 3.69 M1.91 32.19 C4.75 22.61, 10.27 18.33, 24.96 -1.17 M-2.38 34.67 C10.1 28.11, 17.03 19.99, 32.77 1.6 M-1.9 35.9 C6.76 25.51, 17.78 17.83, 30.04 1.87 M6.07 42.34 C9.09 31.12, 19.27 28.32, 35.08 0.31 M3.49 40.82 C12.98 25.07, 26.11 10.13, 36.45 -1.01 M11.39 40.42 C22.47 25.61, 37.58 5.61, 39.19 1.28 M8.13 38.81 C15.55 30.6, 25.53 17.48, 43.93 1.35 M13.42 41.59 C23.33 34.45, 23.03 22.2, 46.86 2.77 M14.09 40.96 C26.89 28.45, 35.42 12.5, 45.84 -0.59 M18.32 36.28 C29.31 30.16, 40.91 10.28, 52.32 -1.01 M19.96 41.62 C29.4 26.36, 42.31 10.12, 53.04 0.3 M21.53 38.92 C29.9 30.8, 39.64 13.78, 59.79 -0.54 M23.57 38.85 C37.65 23.12, 51.46 9.51, 59.29 1.24 M27.72 39.19 C42.86 26.21, 55.44 13.44, 63.52 -3.82 M29.88 39.75 C40.1 24.22, 54.57 11.08, 65.08 -1.15 M36.3 37.29 C48.44 23.17, 61.34 6.66, 65.2 -1.08 M32.37 41.87 C45.79 25.08, 57.39 12.91, 67.04 -1.42 M37.42 43.17 C47.26 25.18, 59.58 14.06, 78.05 2.44 M40.88 38.55 C49.59 26.88, 60.79 15.88, 73.8 0.06 M45.47 39.79 C51.67 32.44, 62.58 18.19, 80.27 -2.21 M43.01 40.34 C56.74 25.05, 71.31 9.33, 79.38 -1.53 M47.1 38.36 C55.68 27.86, 60.4 24.33, 83.05 3.49 M51.99 40.31 C58.7 30.45, 69.92 17.6, 87.04 -2.07 M58.68 41.62 C66.77 26.78, 81.24 16.89, 92.08 -3.16 M56.06 39.51 C68.76 25.88, 81.37 9.66, 90.67 0.88 M58.33 43.05 C70.96 28.22, 77.15 25.51, 95.52 1.15 M62.33 40.25 C75.9 25.88, 86.24 12.26, 94.67 1.41 M67.42 38.13 C77.65 29.8, 87.2 14.61, 97.56 0.99 M66.16 39.57 C76.7 29.17, 88.48 15.62, 99.32 -1.28 M74.56 39.63 C85.53 27.01, 96.35 13.52, 106.34 -2.59 M71.06 38.53 C81.83 25.35, 95.9 13.28, 104.65 -1.62 M77.09 40.79 C81.6 33.65, 90.78 27.58, 111.54 3.25 M78.01 39.65 C87.53 29.85, 95.66 18.44, 111.82 1.83 M85.11 38.62 C92.91 27.83, 106.02 11.23, 119.62 3.09 M81.41 40.24 C89.22 29.46, 99.52 22.77, 114.34 0.4 M90.94 37.17 C99.43 27.1, 111.8 8.56, 118.7 0.77 M86.38 41.81 C98.63 28.38, 109.62 14.96, 122.71 0.99 M88.51 39.44 C104.71 29.94, 112.78 20.07, 123.29 2.9 M92.03 40.17 C101.35 26.87, 111.56 14.31, 125.12 -0.29 M94.09 38.99 C109.19 30.43, 112.7 17.65, 129.62 2.83 M96.09 39.06 C108.77 27.94, 122.57 12.9, 130.6 -0.06 M103.14 43.35 C116.49 27.91, 128.34 14.16, 141.2 -0.06 M103.58 39.79 C111.75 30.51, 122.51 18.95, 138.47 1.77 M109.56 42.08 C114.08 32.37, 119.94 23.34, 140.75 -1.16 M110.02 39.34 C121.1 25.07, 130.21 13.45, 142.16 -0.67 M115.29 42 C130.36 23.46, 142.13 14.19, 146.43 -1.83 M114.82 39.76 C121.08 32.62, 131.82 22.84, 145.29 3.71 M118.23 42.42 C126.83 28.16, 139.77 15.77, 143.17 6.6 M117.13 41.52 C130.38 28.69, 137.38 17.32, 144.89 9.05 M121.78 38.43 C133.03 29.93, 139.93 23.56, 143.35 17.25 M125.24 40.93 C128.45 32.61, 136.05 25.8, 147.95 13.15 M130.85 36.09 C132.68 35.05, 134.57 34.55, 149.03 19.26 M128.43 39.43 C137.26 34.45, 143.09 27.36, 145.54 19.12 M137.04 39.81 C142.35 35.25, 139.36 27.99, 143.01 26.12 M134.41 40.98 C139.72 34.76, 144.2 30.16, 147.24 25.86 M140.17 41.56 C143.98 36.97, 146.13 35.66, 147.26 33.54 M140.65 40.81 C142.36 37.98, 142.88 35.38, 146.55 32.75" stroke="#ffc9c9" stroke-width="0.5" fill="none"></path><path d="M1.85 -3.77 C35.66 -4.17, 62.43 0.99, 145.08 3.29 M-1.55 -1.96 C52.54 -2.32, 107.77 -1.38, 143.01 1.05 M144.15 -2.7 C146.3 17.61, 144.11 27.07, 144.62 34.83 M145.58 1.28 C146.52 14.55, 147.08 30.58, 146 39 M146.96 40.84 C87.57 38.9, 27.95 41.78, 0.59 36.65 M143.6 39.76 C109.03 35.84, 69.52 36.98, -1.46 37.48 M0.07 38.74 C2.31 30.71, 1.81 20.61, -1.73 -3.61 M0.81 39.41 C1.14 26.26, 1.23 9.23, 1.62 -1.25" stroke="#e03131" stroke-width="1" fill="none"></path></g><g transform="translate(447.40306805466287 123.99659765410365) rotate(0 56.806640625 16.100000000000023)"><text x="0" y="25.760546874999996" font-family="Helvetica, Segoe UI Emoji" font-size="28px" fill="#1e1e1e" text-anchor="start" style="white-space: pre;" direction="ltr" dominant-baseline="alphabetic">column 2</text></g><g transform="translate(619.2547385962401 124.9474377048407) rotate(0 129.4521484375 16.100000000000023)"><text x="0" y="25.760546874999996" font-family="Helvetica, Segoe UI Emoji" font-size="28px" fill="#1e1e1e" text-anchor="start" style="white-space: pre;" direction="ltr" dominant-baseline="alphabetic">Validity bitmap buffer</text></g><g stroke-linecap="round"><g transform="translate(382.8796011513863 9.973240265097957) rotate(0 0 22.213424812065796)"><path d="M0.25 1.64 C1.23 11.52, 0 19.36, -1.96 42.89 M-0.78 0.52 C0.7 8.84, 0.86 17.83, -0.67 44.88" stroke="#1e1e1e" stroke-width="2" fill="none"></path></g></g><mask></mask><g stroke-linecap="round"><g transform="translate(313.9850482489279 161.11178758311758) rotate(0 51.230279509267916 -10.30238743840414)"><path d="M2.96 2.13 C37.77 -12.29, 70.69 -19.77, 98.53 -21.37" stroke="#e03131" stroke-width="2.5" fill="none" stroke-dasharray="8 10"></path></g><g transform="translate(313.9850482489279 161.11178758311758) rotate(0 51.230279509267916 -10.30238743840414)"><path d="M77.66 -9.11 C84.56 -15.98, 90.5 -20.05, 96.57 -21.75" stroke="#e03131" stroke-width="2.5" fill="none"></path></g><g transform="translate(313.9850482489279 161.11178758311758) rotate(0 51.230279509267916 -10.30238743840414)"><path d="M75.69 -26.09 C83.33 -26.8, 89.98 -24.68, 96.57 -21.75" stroke="#e03131" stroke-width="2.5" fill="none"></path></g></g><mask></mask><g stroke-linecap="round" transform="translate(914.9010086626382 106.11704968767799) rotate(0 103.44688047317061 34.60812239216284)"><path d="M-1.16 1.27 L208 0.04 L207.28 70.61 L0.97 70.36" stroke="none" stroke-width="0" fill="#a5d8ff"></path><path d="M0 0 C79.29 -2.35, 156.4 -2.34, 206.89 0 M0 0 C41.06 1.41, 84.21 0.83, 206.89 0 M206.89 0 C207.73 28.9, 206.63 53.74, 206.89 69.22 M206.89 0 C207.04 20.73, 206.85 42.34, 206.89 69.22 M206.89 69.22 C131.15 72.31, 54.27 72.78, 0 69.22 M206.89 69.22 C153.8 70.43, 99.18 69.96, 0 69.22 M0 69.22 C-1.03 46.09, -1.8 20.67, 0 0 M0 69.22 C-1.25 42.97, -1.12 15.01, 0 0" stroke="#1e1e1e" stroke-width="2" fill="none"></path></g><g transform="translate(962.2763620647771 124.9474377048407) rotate(0 62.2890625 16.100000000000023)"><text x="0" y="25.760546874999996" font-family="Helvetica, Segoe UI Emoji" font-size="28px" fill="#1e1e1e" text-anchor="start" style="white-space: pre;" direction="ltr" dominant-baseline="alphabetic">00000101</text></g><g stroke-linecap="round"><g transform="translate(499.6431167882603 170.9792320029219) rotate(0 13.85022516413558 28.97348762370507)"><path d="M2.1 3.13 C6.7 20.47, 14.55 30.29, 29.51 61.2" stroke="#e03131" stroke-width="2.5" fill="none" stroke-dasharray="8 10"></path></g><g transform="translate(499.6431167882603 170.9792320029219) rotate(0 13.85022516413558 28.97348762370507)"><path d="M12.29 45.7 C16.04 50.95, 21.21 52.51, 30.42 62.82" stroke="#e03131" stroke-width="2.5" fill="none"></path></g><g transform="translate(499.6431167882603 170.9792320029219) rotate(0 13.85022516413558 28.97348762370507)"><path d="M27.53 37.94 C26.96 45.26, 27.85 49, 30.42 62.82" stroke="#e03131" stroke-width="2.5" fill="none"></path></g></g><mask></mask><g transform="translate(499.3952779293445 431.9061857290412) rotate(0 81.2177734375 16.100000000000023)"><text x="0" y="25.760546874999996" font-family="Helvetica, Segoe UI Emoji" font-size="28px" fill="#1e1e1e" text-anchor="start" style="white-space: pre;" direction="ltr" dominant-baseline="alphabetic">Values buffer</text></g><g transform="translate(499.3952779293445 340.21080489901055) rotate(0 129.4521484375 16.100000000000023)"><text x="0" y="25.760546874999996" font-family="Helvetica, Segoe UI Emoji" font-size="28px" fill="#1e1e1e" text-anchor="start" style="white-space: pre;" direction="ltr" dominant-baseline="alphabetic">Validity bitmap buffer</text></g><g stroke-linecap="round" transform="translate(847.8367636634584 411.6205571831679) rotate(0 135.9846286416152 39.50467204564006)"><path d="M1.62 -1.25 L273.94 -0.36 L270.93 79.99 L0.22 78.62" stroke="none" stroke-width="0" fill="#a5d8ff"></path><path d="M0 0 C71.76 2.74, 140.6 2.45, 271.97 0 M0 0 C99.78 0.62, 198.56 0.57, 271.97 0 M271.97 0 C272.84 32.87, 271.91 62.31, 271.97 79.01 M271.97 0 C271.98 20.13, 272.64 40.35, 271.97 79.01 M271.97 79.01 C203.89 78.87, 136.45 79.07, 0 79.01 M271.97 79.01 C197.44 80.37, 122.19 80.9, 0 79.01 M0 79.01 C-1.32 49.68, 0.7 22.75, 0 0 M0 79.01 C0.02 52.99, 0.07 24.31, 0 0" stroke="#1e1e1e" stroke-width="2" fill="none"></path></g><g transform="translate(882.8457118551086 431.9061857290412) rotate(0 98.0615234375 16.100000000000023)"><text x="0" y="25.760546874999996" font-family="Helvetica, Segoe UI Emoji" font-size="28px" fill="#1e1e1e" text-anchor="start" style="white-space: pre;" direction="ltr" dominant-baseline="alphabetic">12  -7  _  _  0  _</text></g><g stroke-linecap="round" transform="translate(847.8367636634584 319.6406446712872) rotate(0 111.43866443186846 36.63774522599351)"><path d="M1.89 0.28 L221.7 -0.88 L224.56 72.33 L-0.99 71.78" stroke="none" stroke-width="0" fill="#a5d8ff"></path><path d="M0 0 C69.27 1.23, 136.9 -1.43, 222.88 0 M0 0 C51.36 -0.88, 102.58 0.43, 222.88 0 M222.88 0 C220.59 19.09, 223.54 40.22, 222.88 73.28 M222.88 0 C223.8 17.4, 222.1 34.85, 222.88 73.28 M222.88 73.28 C174.16 72.42, 121.53 72.52, 0 73.28 M222.88 73.28 C169.33 72.38, 114.35 72.51, 0 73.28 M0 73.28 C-0.53 56.08, 1.08 37.14, 0 0 M0 73.28 C-0.12 51.12, 0.29 27.95, 0 0" stroke="#1e1e1e" stroke-width="2" fill="none"></path></g><g transform="translate(895.5294998780973 340.67902159066125) rotate(0 58.16015625 16.100000000000023)"><text x="0" y="25.760546874999996" font-family="Helvetica, Segoe UI Emoji" font-size="28px" fill="#1e1e1e" text-anchor="start" style="white-space: pre;" direction="ltr" dominant-baseline="alphabetic">00011111</text></g><g stroke-linecap="round" transform="translate(459.4751790783214 244.06451201644109) rotate(0 309.57588006692885 23.725389222577405)"><path d="M0 0 C0 0, 0 0, 0 0 M0 0 C0 0, 0 0, 0 0 M-0.14 6 C0.97 5.92, 2.17 2.96, 6.42 1.27 M-1.03 5.66 C1.73 4.31, 2.25 3.9, 5.15 0.59 M-1.12 10.1 C1.88 6.83, 6.89 5.42, 10.68 -0.83 M-0.18 11.32 C4.85 6.47, 7.43 5.24, 10.57 0.4 M3.28 22.19 C2.32 10.22, 12.2 6.57, 16.25 -3.24 M-2 18.76 C5.78 11.59, 12.08 5.15, 15.89 1.57 M3.63 27.56 C7.48 17.75, 14.9 5.29, 24.09 2.14 M-1.49 22.99 C3.98 19.23, 10.07 11.82, 22.82 -0.39 M-1.49 27.2 C4.29 21.46, 14.81 12.42, 27.73 1.1 M-0.76 29.69 C5.99 23.49, 12.04 17.33, 26.18 1.09 M0.09 39.13 C8.53 25.26, 17.84 19.74, 27.9 -1.85 M1.13 37.38 C12.28 22.1, 25.88 6.97, 33.83 0.95 M-0.86 40.92 C10.15 33.49, 14.63 21.48, 34.51 3.11 M0.54 43.1 C11.82 30.37, 20.54 15.88, 35.77 0.32 M2.9 47.98 C16.94 28.91, 27.87 10.72, 39.17 -2.15 M2.29 47.58 C14.81 29.97, 32.64 13.01, 43.8 0.1 M9.62 45.94 C21.24 27.51, 32.37 13.6, 49.18 3.08 M5.27 46.53 C14.55 36.81, 25.49 24.7, 48.59 -1.38 M14.69 47.1 C26.34 33.54, 32.83 18.33, 52.05 -3 M11.72 49.9 C20.53 36.51, 33.59 24.58, 51.38 1.22 M20.3 49.99 C30.85 36.76, 38.31 26.37, 57.48 -1.82 M16.03 48.38 C32.05 29.61, 47.39 12.26, 57.02 1.92 M24.84 47.49 C33.79 31.83, 52.57 13.05, 61.85 0.2 M21.2 48.34 C36.63 30.62, 51.6 14.62, 65.66 1 M27.39 49.49 C41.7 34.63, 57.9 10.76, 66.25 -1.52 M26.55 49.41 C40.48 31.98, 56.94 12.1, 69.86 -1.3 M29.72 45.71 C44.17 37.92, 55.9 26.3, 72.97 -3.05 M32.78 46.14 C47.34 32.02, 64.51 13.76, 74.18 0.73 M40.79 44.41 C47.94 34.46, 62.83 15.83, 79.48 2.89 M37.62 49.61 C55.38 29.45, 70.77 9.81, 80.35 0.02 M46.79 51.18 C55.49 35.11, 71.05 19.84, 82.95 1.61 M44.95 49.09 C55.8 31.88, 68.87 18.23, 86.88 -1.77 M46.9 52.38 C56.85 35.74, 75.87 18.96, 90.26 -0.77 M47.79 50.35 C60.7 36.25, 72.77 19.1, 90.18 -0.51 M50.66 46.2 C68.59 27.14, 89 10.93, 98.47 -2.58 M52.66 49.57 C67.8 32.51, 79.23 19.24, 96.18 -0.1 M59.19 49.63 C67.28 34.28, 83.09 16.57, 96.84 -3.84 M60.03 47.24 C73.8 30.78, 87.41 16.15, 101.47 1.29 M61.06 49.96 C77.75 27.24, 94.9 10.11, 103.31 0.49 M63.26 46.5 C75.1 34.37, 82.72 25.24, 104.92 0.7 M66.29 47.53 C81.8 33.29, 96.12 13.15, 110.55 -0.75 M69.76 46.76 C82.94 33.27, 92.78 19.67, 112.78 0.15 M78.84 46.5 C91.37 30.72, 105.32 14.71, 113.74 -3.42 M76.57 49.36 C84.05 33.9, 96.68 23.04, 117.7 0.9 M82.62 49.57 C95.75 30.64, 107.7 12.65, 123.89 2.92 M79.52 47.18 C97.45 28.29, 112.2 12.69, 123.1 1.39 M85.99 48.76 C96 38.06, 100.07 27.78, 125.11 2.04 M84.84 46.22 C95.52 34.8, 107.96 21.28, 127.57 -0.92 M91.73 52.12 C101.26 33.3, 120.28 15.1, 134.45 -1.53 M90.27 47.32 C100.53 35.21, 112.43 24.29, 131.86 0.86 M93.6 50.53 C111.73 36.17, 117.36 18.73, 139.92 -3.65 M96.74 47.68 C103.85 39.33, 111.58 29.04, 136 0.64 M102.28 44.41 C119.66 33.38, 130.81 14.93, 144.96 -1.91 M101.41 46.58 C112.18 38.87, 121.83 27.05, 142.93 0.99 M109.9 50.49 C123.7 34.9, 136.7 15.97, 146.46 -0.85 M105.39 46.92 C120.96 29.75, 136.11 12.13, 147.61 -1.22 M108.06 48.56 C120.31 34.15, 136.41 15.99, 155.27 2.81 M110.79 48.92 C127.23 32.59, 141.92 13.98, 152.63 -1.23 M116.26 44.2 C131.25 32.84, 145.04 17.28, 158.17 -1.09 M116.36 47.69 C127.82 34.81, 141.09 22.29, 157.4 -0.73 M119.98 47.56 C133.87 34.98, 145.22 17.86, 162.37 2.58 M122.66 46.87 C132.96 36.11, 145.12 24.48, 165.69 1.75 M131.14 48.08 C137.41 31.31, 149.85 22.91, 165.56 1.01 M127.64 48.27 C144.84 29.11, 157.89 14.98, 170.84 0.46 M134.09 49.28 C141.24 36.73, 151.73 19.89, 176.36 0.19 M131.76 49.5 C143.28 36.73, 150.81 29.14, 175.31 0.05 M138.14 51.44 C155.19 33.03, 169.85 15.19, 176.32 3.68 M137.65 49.54 C154.14 29.87, 169.82 10.23, 179.84 1.22 M147.55 46.45 C158.72 33.41, 175.52 14.18, 188.46 3.32 M143.23 46.46 C157.08 32.79, 170.15 15.94, 187.09 -1.66 M150.01 48.46 C160.53 33.65, 170.68 21.65, 191.23 -1.97 M149.28 46.93 C160.18 35.84, 169.85 25.52, 190.73 1.03 M150.66 48.69 C172.25 33.13, 185.59 14.85, 195.03 0.52 M152.65 47.96 C167.95 34.49, 183.38 16.65, 195.1 -0.14 M160.59 46.18 C169.96 35.2, 176.39 29.84, 204.21 0.07 M161.83 46.42 C172.49 31.37, 187.79 16.79, 200.29 -0.1 M166.83 50.5 C175.36 37.13, 180.19 28.8, 205.55 1.23 M166.07 48.76 C177.61 31.82, 194.84 16.14, 205.83 -1.59 M168.2 49.29 C179 31.84, 190.73 20.49, 210.29 2.65 M170.38 49.32 C185.67 29.51, 201.04 10.37, 211.74 -1.58 M172.6 47.23 C192.67 28.86, 210.03 14.41, 218.62 -4.26 M175.93 48.21 C190.72 29.55, 210.62 8.41, 218.22 -1.64 M178.26 49.08 C189.89 36.35, 200.06 26.83, 221.66 -0.49 M180.44 49.23 C191.94 32.23, 207.12 18.32, 222.72 1.73 M185.63 51.13 C199.91 28.13, 216.2 16, 229.97 3.24 M185.15 46.19 C197.07 32.61, 208.7 21.86, 227.63 -1.36 M191.34 51.99 C203.99 34.22, 216.17 17.16, 235.58 1.28 M191.96 48.59 C201.32 34.82, 213.78 19.39, 233.33 -0.47 M200.72 51.31 C206.73 33.85, 219.69 23.16, 239.8 0.52 M195.05 47.17 C214.61 26.39, 231.32 9.36, 237.21 1.48 M205.8 44.56 C213.86 29.07, 225.85 21.16, 242.49 3.43 M202.01 47.63 C213.96 38.12, 225.29 25.29, 242.08 -1.89 M205.79 45.76 C223.99 31.14, 240.08 14.07, 247.39 -0.98 M209.43 48.17 C217.86 33.99, 227.41 21.42, 248.54 1.44 M209.11 50.24 C232.54 30.71, 245.83 7.14, 257.92 2.34 M212.07 49.16 C224.79 37.16, 232.05 25.68, 253.95 0.29 M221.88 49.35 C229.66 38.87, 235.52 24.91, 263.2 1.28 M218.48 46.76 C233.23 31.69, 245.78 15.33, 257.62 1.88 M225.88 49.31 C236.26 29.39, 256.43 13.31, 266.55 3.24 M224.09 46.54 C232.77 34.08, 247.54 22.83, 264.34 1.46 M231.14 45.82 C242.14 38.8, 250.77 27.41, 271.46 -2.02 M226.86 49.1 C242.07 27.42, 260.49 10.52, 269.58 -0.03 M229.84 50.95 C245.07 32.48, 258.85 21.1, 278.15 -3.74 M232.43 47.7 C243.11 37.17, 254.4 26.63, 275.08 1.59 M240.88 43.79 C249.51 33.01, 264.41 21.1, 277.51 0.67 M237.67 45.88 C252.91 32.69, 264.22 17.21, 281.98 -0.54 M247.84 45.23 C255.56 37.55, 264.37 22.59, 287.64 -3.63 M243.89 47.12 C260.07 31.17, 274.13 13.58, 286.45 1.2 M251.5 44.73 C258.41 39.1, 270.44 24, 291.84 1.8 M248.42 48.4 C262.24 32.75, 276.99 18.45, 292.81 -1.36 M255.85 51.06 C264.97 36.9, 276.83 23.69, 299.08 3.45 M253.74 49.87 C262.86 39.32, 272.98 29.08, 297.16 1.37 M264.56 51.03 C271 34.59, 279.59 31.5, 298.05 -1.36 M259.09 48.46 C269.3 36.98, 280.27 25.13, 300.51 -1.61 M266.99 44.25 C276.92 35.34, 291.97 23.27, 309.62 2.23 M265.64 47.54 C280.89 34.62, 292.33 17.54, 308.38 -0.26 M274.7 49.91 C281.71 34.88, 291.73 23.83, 308.86 1.4 M272.07 46.48 C281.17 35.9, 290.99 22.93, 311.94 -1.88 M275.47 45.48 C286.1 34.12, 304.95 18.08, 317.55 2.34 M275.71 46.33 C288.19 34.24, 299.63 23.59, 319.67 -1.48 M285.08 46.25 C290.99 34.77, 301.29 30.42, 326.14 1.11 M279.54 48.16 C291.59 35.78, 303.58 24.75, 322.42 -0.16 M288.66 48.3 C297.36 38.99, 306.14 23.46, 330.29 -1.74 M288.52 46.96 C298.24 36.46, 305.9 21.5, 329.08 0.49 M293.92 51.53 C304.26 31.79, 321.03 18.27, 332.85 1.7 M290.09 49.52 C305.08 32.79, 322.24 17.07, 335.69 0.08 M295.03 51.14 C315.81 32.83, 327.76 12.36, 340.38 1.36 M297.07 48.75 C310.49 30.73, 327.15 14.15, 341.06 0.97 M298.6 48.37 C310.92 39.52, 327.62 19.28, 341.11 3.98 M300.79 49.38 C311.58 39.21, 319.45 29.87, 343.93 1.97 M304.19 49.29 C318.74 30.55, 333.49 18.75, 348.84 0.62 M306.77 49.55 C320.38 36.16, 333.75 21.46, 349.87 0.63 M314.29 51.51 C333.12 30.09, 344.83 12.45, 352.15 -2.37 M311.78 46.41 C321.91 34.93, 332.8 24.58, 355.75 -0.83 M314.86 50.95 C326.76 34.73, 340.91 26.27, 359.75 -0.33 M319.51 49.79 C330.54 34.69, 343.61 19.65, 358.14 -1.61 M325.28 44.57 C336.12 31.81, 350.85 18.5, 364.3 1.19 M325.65 47.8 C339.62 30.68, 354.99 13.42, 364.23 -0.06 M330.9 45.15 C337.42 38.65, 344.54 25.91, 368.4 -2.77 M329.58 48.46 C339.17 36.94, 348.31 25.36, 369.01 0.05 M332.99 52.03 C345.24 29.1, 366.03 12.29, 373.07 -1.9 M335.44 49.33 C342.84 37.87, 355.66 25.28, 374.85 -0.93 M337.28 49.83 C354.45 25.56, 370.34 12.54, 379.8 0.19 M339.75 47.12 C353.27 33.05, 363.98 20.88, 380.68 -0.82 M347.95 51.26 C359.74 31.88, 364.81 24.36, 387.04 0.66 M344.59 47.33 C354.72 35.52, 366.31 22.62, 385.55 -2.07 M348.12 47.8 C358.19 32.56, 372.86 23.14, 392.14 0.27 M349.18 45.87 C362.05 33.05, 375.75 19.31, 393.81 1.93 M357.84 44.5 C363.94 38.15, 375.98 26.69, 395.94 2.05 M355.01 46.69 C370.52 34.7, 380.47 21.61, 398.7 0.43 M358.63 50.72 C374.05 35.73, 385.82 17.83, 404.7 -1.9 M361.5 47.4 C370.76 36.07, 379.78 24.3, 403.49 -1 M367.44 50.87 C383.11 33.1, 394.22 13.35, 410.64 0.31 M367.05 48.88 C375.04 37.95, 384.42 26.53, 409.1 1.08 M369.18 51.16 C384.53 28.47, 400.26 8.79, 409.9 3.15 M372.76 48.93 C387.73 29.44, 403.19 12.57, 415.23 1.68 M374.68 50.36 C388.33 28.69, 404.14 19.45, 415.1 -1.62 M375.48 47.91 C395.13 28.65, 410.47 11.79, 420 0.93 M385.23 46.53 C393.51 37.15, 405.1 26.4, 425.28 1.81 M383.47 46.29 C392.64 32.63, 406.38 20.42, 425.02 1.78 M386.58 47.82 C402.34 31.71, 415.7 18.55, 430.43 -3.94 M389.51 46.36 C401.61 30.62, 412.46 15.55, 431.08 -0.42 M392.74 47.9 C403.05 32.75, 413.48 23.1, 437.5 -2.69 M393.89 46.58 C408.04 28.08, 425.23 8.72, 435.24 -0.29 M395.32 49.01 C410.09 35.71, 421.63 15.6, 442.87 -1.97 M396.79 47.39 C407.62 38.17, 414.97 30.11, 438.46 -0.79 M400.76 44.94 C417.65 28.55, 432.72 12.92, 442.36 1.76 M402.71 49.21 C413.08 35.77, 425.34 24.33, 446.74 0.42 M410.19 44.53 C419.55 32.41, 434.55 16.63, 451.76 -2.17 M407.42 46.7 C416.12 38.39, 427.54 29.2, 450.7 0.57 M413.46 50.45 C425.97 36.52, 439.44 15.89, 452.77 -3.85 M415.09 46.45 C427.45 33.49, 442.32 16.48, 454.79 1.44 M417.61 49.88 C437.12 32.32, 446.49 17.43, 461.58 1.91 M417.91 48.56 C436.6 27.51, 453.04 10, 460.8 -1.04 M424.84 49.36 C441.47 27.12, 452.4 15.18, 466.78 2.36 M425.26 48.33 C438.01 32.94, 448.16 20.67, 465.1 0.85 M429.1 49.43 C443.69 36.29, 452.25 24.91, 473.28 -1.69 M431.24 49.8 C439.03 36.74, 448.69 26.38, 469.53 0.98 M434 47.47 C450.78 35, 463.85 19.58, 475.54 3.11 M435.91 47.47 C446.96 36, 454.36 27.04, 477.84 1.28 M441.36 44.4 C454.06 36.07, 462.81 19.95, 478.9 1.7 M440.81 47.82 C453.24 32.69, 465.44 18.03, 480.08 1.58 M445.17 47.47 C454.49 33.25, 465.13 22.41, 487.36 -1.97 M446.15 47.05 C456.78 36.98, 467.68 23.66, 487.58 -2.04 M452.15 44.93 C464.52 33.42, 482.23 16.25, 489.64 1.89 M450.44 48.58 C462 34.6, 471.84 23.93, 494.08 0.47 M459.7 48.89 C469.11 36.45, 472.61 24.63, 495.64 3.61 M455.56 48.8 C469.99 27.67, 485.92 13.54, 499.35 -1.35 M460.4 45.99 C476.39 29.34, 492.77 13.45, 506.47 0.81 M462.43 46.6 C478.82 29.19, 495.67 12.9, 502.3 -0.77 M468.06 48.18 C482.78 34.63, 491.01 18.39, 510.93 -2.8 M468.12 49.04 C481.05 35.01, 493.36 17.96, 508.63 -0.31 M474.15 51.46 C481.69 40.62, 488.28 29.93, 511.5 -2.73 M473.48 48.96 C481.5 38.35, 491.13 27.65, 515.92 1.96 M473.87 46.63 C488.82 38.64, 498.54 26.13, 520.89 -2.94 M476.26 46.62 C487.81 36.74, 501.9 21.5, 521.3 -2.04 M486.57 50.07 C493.8 37.51, 505.43 21.47, 523.97 2.93 M482.74 47.3 C494.34 37.12, 503.1 26.62, 526.54 -0.67 M485.84 50.43 C507.18 26.45, 517.98 8.16, 530.32 -1.71 M488.85 46.96 C501.86 32.71, 515.73 17.99, 529.7 -1.06 M491.94 47.43 C511.81 32.67, 522.67 17.76, 536.21 2.35 M495.81 45.84 C508.37 28.71, 525.85 12.15, 534.24 0.59 M501.84 46.62 C510.32 32.15, 524.12 17.71, 537.12 -3.12 M499.21 46.07 C513.04 29.92, 528.27 13.87, 540.63 0.63 M501.69 50.05 C518.19 30.67, 539.02 9.83, 545.72 0.97 M504.7 49.34 C519.69 33.15, 533.35 15.03, 547.5 1.55 M508.85 51.13 C521.74 31.69, 529.11 18.96, 548.35 -2.29 M509.08 46.49 C525.8 29.5, 542.96 9.54, 551.27 1.62 M511.7 50.04 C521.14 34.67, 536.02 23.63, 555.08 1.07 M515.24 47.89 C533.81 28.92, 549.18 12.39, 555.26 0.56 M522.95 44.76 C525.83 35.76, 537.93 21.94, 564.17 -1.49 M520.63 49.33 C530.32 38.07, 539.52 26, 561.3 1.06 M528.94 46.12 C536.04 31.31, 555.7 19.43, 564.04 1.85 M525.63 49.88 C536.38 35.56, 546.57 24.57, 566.89 -1.46 M533.4 45.2 C543.17 30.89, 561.24 17, 569.86 -2.1 M532.5 46.27 C544.6 31.38, 558.1 16.2, 572.8 -1.34 M535.55 48.18 C552.18 34.41, 562.12 17.39, 577.45 -0.66 M534.55 46.53 C547.92 34.97, 558.64 21.2, 576.2 -1 M542.53 51 C551.21 40.24, 558.36 26.35, 583.19 4.12 M539.73 47.56 C555.07 31.88, 572.39 16.22, 581.63 -0.57 M547.44 50.19 C560.99 35.76, 574.9 15.56, 589.28 2.49 M547.78 48.84 C555.8 37.02, 563.12 25.79, 589.42 -0.02 M549.83 49.57 C558.42 36.23, 570 23.72, 593.02 0.03 M553.83 45.99 C561.9 35.32, 574.4 24.67, 592.08 -1.29 M557.67 47.03 C570.15 34.96, 578.49 24.37, 598.64 1.09 M557.54 48.41 C567.57 38.72, 577.88 26.25, 597.25 -1.9 M559.89 49.24 C567.96 34.96, 575.41 28.52, 603.34 3.62 M562.72 48.92 C575.38 34.97, 585.09 20.9, 604.88 -1.35 M568.39 50.44 C578.91 34.43, 594.58 16.75, 609.75 -2.18 M566.47 49.38 C579.34 38.82, 587.76 28.26, 610.81 0.53 M574.46 47.16 C581.11 35.88, 593.19 25.49, 611.96 1 M574.78 46.29 C585.48 35.31, 595.83 19.7, 615.89 1.19 M574.89 49.02 C583.48 34.87, 597.01 29.62, 623.32 0.99 M579.66 48.46 C593.2 29.59, 607.31 12.56, 620.99 1.76 M584.38 45.41 C593.14 36.88, 610.99 23.47, 620.54 9.22 M582.81 46.58 C593.63 39.8, 599.56 28.02, 618.12 6.91 M589.59 48.28 C599.8 39.32, 607.34 29.44, 620.64 9.6 M588.65 46.92 C602.14 35.08, 612.66 21.13, 618.61 12.67 M593.63 50.89 C601.49 34.63, 612.27 28.84, 620.46 16.88 M596.05 48.85 C600.48 39.88, 607.54 31.81, 619.64 19.63 M602.04 46.57 C604.1 45.78, 609.03 34.82, 623.15 21.61 M599.39 46.59 C607.36 38.73, 615.89 31.71, 617.93 24.8 M603.31 51.43 C611.02 38.64, 616.2 31.22, 619.45 29.17 M604.2 46.71 C609.47 39.48, 615.75 33.93, 618.15 31.46 M610.7 50.37 C613.6 46.87, 614.41 45.92, 622.67 35.6 M608.75 49.41 C611.54 44.5, 615.62 42.09, 619.87 35.86 M616.93 47.68 C617.02 46.33, 617.94 43.4, 619.54 43.54 M616.25 47.87 C616.5 45.83, 617.78 44.95, 619.37 43.21" stroke="#ffc9c9" stroke-width="0.5" fill="none"></path><path d="M1.55 1.23 C137.62 -1.19, 275.06 -2.71, 619.4 -1.33 M-0.6 0.71 C230.74 -1.55, 460.29 -1.39, 618.4 0.78 M621.6 2.02 C614.92 19.27, 616.26 30.05, 619.63 48.11 M621.07 1.13 C619.23 12.88, 620.91 25.59, 617.2 47.78 M617.72 48.43 C382.98 51.14, 148.79 49.5, -1.16 47.14 M619.51 47.06 C494.82 43.3, 370.9 42.92, 0.54 47.55 M-0.48 48.35 C3.42 33.64, 3.67 14.07, 3.98 0.01 M-1.87 45.9 C-0.96 27, -1.49 8.28, 1.62 1.31" stroke="#e03131" stroke-width="1" fill="none"></path></g><g transform="translate(499.02123761924213 249.64621682973143) rotate(0 278.5166015625 16.100000000000023)"><text x="0" y="25.760546874999996" font-family="Helvetica, Segoe UI Emoji" font-size="28px" fill="#1e1e1e" text-anchor="start" style="white-space: pre;" direction="ltr" dominant-baseline="alphabetic">values array - Fixed-size Primitive child array</text></g></svg>