<svg version="1.1" xmlns="http://www.w3.org/2000/svg" viewBox="0 0 2745.1732053852093 1065.8656221982455" width="2745.1732053852093" height="1065.8656221982455">
  <!-- svg-source:excalidraw -->
  
  <defs>
    <style class="style-fonts">
      @font-face {
        font-family: "Virgil";
        src: url("https://excalidraw.com/Virgil.woff2");
      }
      @font-face {
        font-family: "Cascadia";
        src: url("https://excalidraw.com/Cascadia.woff2");
      }
      @font-face {
        font-family: "Assistant";
        src: url("https://excalidraw.com/Assistant-Regular.woff2");
      }
    </style>
    
  </defs>
  <g stroke-linecap="round" transform="translate(10 141.48173764525836) rotate(0 390.4353389905203 151.59257627027318)"><path d="M1.33 -1.19 L779.75 -0.52 L779.26 303.69 L0.45 304.39" stroke="none" stroke-width="0" fill="#ffc9c9"></path><path d="M0 0 C188.12 -3.2, 377.82 -3.58, 780.87 0 M0 0 C289.4 -1.64, 578.94 -1.66, 780.87 0 M780.87 0 C782.45 79.5, 780.98 157.21, 780.87 303.19 M780.87 0 C781.67 119.15, 781.12 237.46, 780.87 303.19 M780.87 303.19 C521.07 304.62, 261.58 305.7, 0 303.19 M780.87 303.19 C548.07 306.12, 314.71 305.72, 0 303.19 M0 303.19 C-1.02 235.6, -1.74 167.3, 0 0 M0 303.19 C-2.22 187.17, -2.4 71.04, 0 0" stroke="#1e1e1e" stroke-width="2" fill="none"></path></g><g stroke-linecap="round" transform="translate(10 10) rotate(0 1355.3124400629545 25.194316158090714)"><path d="M0 0 L2710.62 0 L2710.62 50.39 L0 50.39" stroke="none" stroke-width="0" fill="#b2f2bb"></path><path d="M0 0 C1035.52 0, 2071.03 0, 2710.62 0 M0 0 C753.72 0, 1507.44 0, 2710.62 0 M2710.62 0 C2710.62 19.37, 2710.62 38.75, 2710.62 50.39 M2710.62 0 C2710.62 16.87, 2710.62 33.74, 2710.62 50.39 M2710.62 50.39 C2039.89 50.39, 1369.15 50.39, 0 50.39 M2710.62 50.39 C1798.77 50.39, 886.92 50.39, 0 50.39 M0 50.39 C0 38.4, 0 26.42, 0 0 M0 50.39 C0 30.74, 0 11.09, 0 0" stroke="#1e1e1e" stroke-width="2" fill="none"></path></g><g transform="translate(365.85830140580725 19.348222408089896) rotate(0 27.234375 16.09999999999991)"><text x="0" y="25.760546874999996" font-family="Helvetica, Segoe UI Emoji" font-size="28px" fill="#1e1e1e" text-anchor="start" style="white-space: pre;" direction="ltr" dominant-baseline="alphabetic">map</text></g><g transform="translate(1400.1125697748366 19.094316158089896) rotate(0 236.55078125 16.09999999999991)"><text x="0" y="25.760546874999996" font-family="Helvetica, Segoe UI Emoji" font-size="28px" fill="#1e1e1e" text-anchor="start" style="white-space: pre;" direction="ltr" dominant-baseline="alphabetic">Physical layout - List of Structs Layout</text></g><g stroke-linecap="round"><g transform="translate(13 200.49504000579418) rotate(0 387.6914990704699 0)"><path d="M0 0 C303.52 0.62, 607.47 1.5, 775.38 0 M0 0 C277.88 -1.16, 554.88 -1.16, 775.38 0" stroke="#1e1e1e" stroke-width="2" fill="none"></path></g></g><mask></mask><g transform="translate(343.6286983655203 154.80123076339714) rotate(0 56.900001525878906 16.09999999999991)"><text x="0" y="25.760546874999996" font-family="Helvetica, Segoe UI Emoji" font-size="28px" fill="#1e1e1e" text-anchor="start" style="white-space: pre;" direction="ltr" dominant-baseline="alphabetic">column 6</text></g><g transform="translate(284.6482296155203 226.9581512135892) rotate(0 115.5250015258789 16.09999999999991)"><text x="0" y="25.760546874999996" font-family="Helvetica, Segoe UI Emoji" font-size="28px" fill="#1e1e1e" text-anchor="start" style="white-space: pre;" direction="ltr" dominant-baseline="alphabetic">{"Dark Knight": 10}</text></g><g transform="translate(35.956823365520336 279.7340892445991) rotate(0 339.7916564941406 16.09999999999991)"><text x="0" y="25.760546874999996" font-family="Helvetica, Segoe UI Emoji" font-size="28px" fill="#1e1e1e" text-anchor="start" style="white-space: pre;" direction="ltr" dominant-baseline="alphabetic">{"Dark Knight": 8, "Meet the Parents": 4, Superman": 5}</text></g><g transform="translate(129.94412805302034 384.3156906407803) rotate(0 260.3666687011719 16.09999999999991)"><text x="0" y="25.760546874999996" font-family="Helvetica, Segoe UI Emoji" font-size="28px" fill="#1e1e1e" text-anchor="start" style="white-space: pre;" direction="ltr" dominant-baseline="alphabetic">{"Meet the Parents": 10, "Superman": null}</text></g><g transform="translate(378.6423702405203 331.86317749838327) rotate(0 21.78333282470703 16.09999999999991)"><text x="0" y="25.760546874999996" font-family="Helvetica, Segoe UI Emoji" font-size="28px" fill="#1e1e1e" text-anchor="start" style="white-space: pre;" direction="ltr" dominant-baseline="alphabetic">null</text></g><g stroke-linecap="round" transform="translate(963.6963286979502 159.34949739100102) rotate(0 72.28797794313596 18.9832559125648)"><path d="M0 0 C0 0, 0 0, 0 0 M0 0 C0 0, 0 0, 0 0 M0.49 5.63 C-0.44 4.56, 3 4.02, 4.88 0.75 M-0.97 6.14 C1.82 4.55, 2.27 2.67, 4.44 0.78 M1.96 14.65 C0.18 10.94, 5.2 7.25, 7.56 2.7 M1.13 13.31 C2.23 8.86, 8.02 3.35, 10.78 1.18 M-0.7 19.1 C2.19 16.79, 8.01 9.38, 18.39 0.39 M0.41 19.85 C3.12 12.86, 7.11 10.34, 17.25 -0.08 M-3.57 23.76 C5.41 16.93, 12.38 7.47, 21.34 -0.66 M2.26 25.73 C7.63 13.72, 15.51 6.98, 19.35 -1.63 M-1.89 32.17 C11.12 17.64, 13.17 15.35, 25.13 -1.32 M-0.83 28.53 C5.25 24.33, 11.34 16.92, 24.94 0.18 M-3.07 37.38 C13.82 24.31, 27.05 8.02, 31.66 -1.21 M1.37 35.87 C9.41 28.38, 16.19 20.05, 30.67 0.04 M7.19 36.88 C13.67 20.76, 26.1 6.46, 37.51 0.54 M3.24 39.26 C15.63 23.64, 27.49 10.2, 37.05 1.84 M11.99 39.42 C23.47 21.85, 34.21 14.23, 38.69 -0.29 M7.09 40.15 C19.92 27.83, 30.09 15.75, 41.95 0.35 M15.13 35.18 C26.92 24.5, 41.77 13.71, 48.87 1.58 M15.91 39.37 C26.17 25.65, 33.75 15.92, 47.57 -1.03 M19.42 42.29 C31.39 27.19, 46.34 5.27, 56.16 -0.67 M20.36 38.92 C33.13 25.55, 41.9 12.42, 53.99 -0.47 M22.08 38.84 C31.75 32.72, 38.94 20.93, 57.31 -3.37 M26.93 37.15 C34.14 28.79, 42.47 18.81, 58.11 -0.02 M33.01 41.36 C46.09 26.23, 54.33 11.16, 62.53 2.1 M28.98 38.6 C40.87 26.3, 50.49 15.25, 63.21 0.18 M39.52 35.34 C50.79 21.05, 64.63 11.69, 65.67 3.81 M36.22 39.69 C47.58 28.6, 54.11 17, 69.9 -0.34 M40.59 37.73 C54.83 24.36, 65.32 10.91, 73.01 -4.23 M41.7 38.49 C53.49 25.67, 63.62 12.39, 73.66 -0.69 M43.64 35.4 C53.2 26.07, 61.51 21.38, 81.52 0.46 M47.33 36.48 C55.1 29.26, 63.01 20.34, 79.81 -0.81 M50.75 39.73 C58.89 29.42, 69.23 18.46, 83.58 -0.7 M50.86 36.27 C63.07 24.98, 73.39 12.52, 85.01 0.25 M55.43 40.99 C64.63 32.89, 70.38 20.48, 93.23 3.17 M55.42 39.38 C67 29.39, 73.13 20.61, 88.31 -1.9 M60.84 38.96 C68.18 23.29, 85.3 15.07, 94.94 -1.1 M60.47 39.98 C69.82 30.28, 77.28 20.17, 96.58 0.74 M68.59 37.34 C80.39 22.31, 94.53 15.36, 101.87 3.79 M67.31 38.62 C79.22 23.33, 89.93 12.88, 99.53 -1.68 M72.94 34.29 C87.02 28.66, 97.24 14.95, 104.56 -3.93 M74.12 40.04 C87.09 22.55, 99.3 10.86, 107.26 0.89 M81.59 40.91 C90.44 26.24, 94.16 15.34, 113.28 1.42 M77.41 38.82 C90.7 27.88, 98.08 16.79, 113.2 0.15 M85.89 39.79 C92.84 27.53, 99.67 16.87, 114.01 0.26 M83.06 37.23 C91.29 30.46, 96.86 21.85, 114.97 -0.06 M89.64 35.43 C99.66 26.08, 111.44 13.3, 122.05 2.42 M87.77 38.94 C99.62 27.17, 106.56 15.77, 120.68 -1.75 M95.28 36.82 C101.98 29.28, 110.17 22.98, 123.54 1.95 M94.14 38.75 C107.41 24.79, 117.71 9.1, 127.19 1.23 M100.71 35.88 C103.04 30.35, 108.94 21.02, 135.53 -3.64 M100.07 36.35 C110.82 23.31, 124.29 10.26, 132.96 1.67 M101.46 37.98 C112.5 28.53, 125.3 14.56, 136.24 1.11 M105.86 38.11 C114.39 23.7, 127.3 13.69, 137.06 0.76 M110.85 41.22 C114.47 27.91, 128.77 24.06, 141.81 -3.89 M110.95 39.54 C119.1 30.72, 126.55 19, 144.65 1.83 M117.51 39.12 C121.99 28.98, 134.96 22.35, 141.93 7.24 M116.32 39.26 C128.2 24.68, 138.84 9.82, 147.37 3.14 M122.85 39.43 C131.81 28.95, 138.33 17.61, 149.18 7.57 M118.65 37.1 C124.59 32.16, 130.98 24.91, 145.45 10.33 M129.26 35.33 C135.04 33.7, 139.73 23, 147.92 16.85 M127.26 36.48 C130.87 31.38, 136.13 27.66, 145.28 15.16 M134.27 35.97 C132.89 30.89, 139.22 26.14, 145.82 18.54 M131.05 38.27 C134.51 35.4, 135.33 32.47, 143.79 19.8 M135.78 37.3 C140.84 32.55, 142.09 28.07, 142.69 25.67 M136.25 38.27 C139.83 34.81, 142.03 33.51, 144.82 28.43 M141.14 37.26 C142.84 38.21, 143.16 35.1, 145.09 34.85 M141.23 38.18 C143.18 37.29, 144.42 35.54, 146.02 34" stroke="#ffc9c9" stroke-width="0.5" fill="none"></path><path d="M-1.94 -1.22 C38.48 0.25, 68.16 -1.77, 145.59 -3.47 M1.17 0.13 C33.15 1.01, 69.98 -0.08, 144.86 1.84 M141.1 -2.98 C146.3 10.33, 144.34 26.81, 142.23 40.15 M144.03 0.53 C144.22 15.34, 146.6 27.92, 143.46 37.45 M146.99 35.27 C111.32 36.36, 79.88 35.63, -3.42 41.44 M145.58 37.08 C93.47 34.27, 42.36 35.46, 1.32 36.15 M-1.01 34.94 C3.99 29.62, 4.05 17.97, 0.15 -2.11 M-1.28 36.8 C-1.86 29.79, -1.34 23.28, -1.16 -1.05" stroke="#e03131" stroke-width="1" fill="none"></path></g><g transform="translate(982.0453989558904 162.93120220429137) rotate(0 56.900001525878906 16.09999999999991)"><text x="0" y="25.760546874999996" font-family="Helvetica, Segoe UI Emoji" font-size="28px" fill="#1e1e1e" text-anchor="start" style="white-space: pre;" direction="ltr" dominant-baseline="alphabetic">column 6</text></g><g transform="translate(1148.7034658870025 258.03602107157076) rotate(0 76.90833282470703 16.09999999999991)"><text x="0" y="25.760546874999996" font-family="Helvetica, Segoe UI Emoji" font-size="28px" fill="#1e1e1e" text-anchor="start" style="white-space: pre;" direction="ltr" dominant-baseline="alphabetic">Offset buffer</text></g><g transform="translate(1148.7034658870025 162.23275330356682) rotate(0 130.03334045410156 16.09999999999991)"><text x="0" y="25.760546874999996" font-family="Helvetica, Segoe UI Emoji" font-size="28px" fill="#1e1e1e" text-anchor="start" style="white-space: pre;" direction="ltr" dominant-baseline="alphabetic">Validity bitmap buffer</text></g><g stroke-linecap="round"><g transform="translate(883.652172941673 15.448471153263199) rotate(0 0 22.21342481206557)"><path d="M-1.28 0.66 C0.14 14.02, 0.24 24.73, 1.06 46.15 M0.26 0.15 C-0.82 12.38, -0.68 26.91, -0.51 44.34" stroke="#1e1e1e" stroke-width="2" fill="none"></path></g></g><mask></mask><g stroke-linecap="round" transform="translate(1440.2128441118448 144.66213091140253) rotate(0 106.74890848135556 33.31930151884626)"><path d="M-1.52 -1.35 L212.58 -0.51 L211.99 68.38 L0.08 68.41" stroke="none" stroke-width="0" fill="#a5d8ff"></path><path d="M0 0 C45.53 0.41, 91.12 -1.47, 213.5 0 M0 0 C75.49 0.84, 150.95 0.16, 213.5 0 M213.5 0 C213.73 13.06, 212.75 29.19, 213.5 66.64 M213.5 0 C214.78 16.74, 213.59 32.45, 213.5 66.64 M213.5 66.64 C159.59 66.91, 107.32 66.48, 0 66.64 M213.5 66.64 C143.46 67.44, 74.1 67.51, 0 66.64 M0 66.64 C1.71 50.36, -0.91 37.6, 0 0 M0 66.64 C0.34 49.42, 0.49 31.67, 0 0" stroke="#1e1e1e" stroke-width="2" fill="none"></path></g><g transform="translate(1483.5018519156347 163.06039018269166) rotate(0 62.266666412353516 16.09999999999991)"><text x="0" y="25.760546874999996" font-family="Helvetica, Segoe UI Emoji" font-size="28px" fill="#1e1e1e" text-anchor="start" style="white-space: pre;" direction="ltr" dominant-baseline="alphabetic">00001011</text></g><g stroke-linecap="round" transform="translate(918.1885161979502 605.8987922722854) rotate(0 133.384752834786 23.262219579720295)"><path d="M0 0 C0 0, 0 0, 0 0 M0 0 C0 0, 0 0, 0 0 M-0.58 5.52 C0.13 3.95, 2.84 2.36, 6.35 -1.21 M0.05 6.6 C1.55 3.54, 4.07 2.23, 4.27 0.3 M1.23 14.37 C1.28 8.16, 9.98 0.35, 12.19 2.25 M1.03 12.82 C2.49 9.74, 6.12 4.68, 10.13 1.13 M-1.08 15.75 C8.54 15.96, 9.11 6.77, 15.67 2.39 M0.03 18.2 C2.17 14.87, 6.03 12.91, 15.76 -1.46 M-2.44 22 C10.84 10.78, 13.52 5.31, 19.21 0.13 M-1.48 22.4 C7.14 17.14, 9.86 10.05, 22.67 0.58 M1.49 30.6 C7.5 20.12, 13.92 17.68, 25.92 3.01 M0.76 32.25 C5.39 23.15, 11.43 15.02, 25.56 1 M0.52 39.13 C13.84 19.73, 24.93 10.8, 28.45 -1.57 M-2.04 35.47 C10.12 23.72, 24.39 11.03, 33.33 -0.63 M-0.24 40.61 C10.5 32.09, 21.75 23.16, 35.6 0.77 M-1.17 42.98 C15.39 24.44, 27.26 10.56, 36.02 -0.8 M3.11 48.04 C9.33 35.87, 18.36 30.07, 45.13 -2.18 M1.78 48.56 C16.5 32.63, 28.44 17.44, 42.24 1.61 M6.1 45.34 C23.39 29.68, 32.99 16.28, 45.93 -2.62 M8.53 47.15 C16.07 35.13, 29.51 20.98, 46.2 -0.87 M13.45 42.67 C27.7 32.24, 38.72 13, 54.85 -2.35 M14.43 45.35 C21.95 36.28, 28.28 25.82, 53.24 1.45 M20.5 46.15 C36.59 29.13, 48.31 14.03, 54.87 1.82 M18.61 46.43 C32.32 28.58, 47.77 11.79, 58.78 1.15 M21.99 48.81 C31.43 34.06, 42.71 27.44, 63.94 -3.49 M21.55 48.52 C40.42 26.34, 57.16 9.28, 61.83 -0.55 M30.35 45.16 C40.08 33.87, 51.71 19.75, 65.14 -1.69 M28.11 46.41 C40.45 32.47, 49.89 19.77, 68.04 -0.01 M32.43 49.66 C43.44 28.51, 60.16 12.98, 75.5 0.25 M32.95 45.29 C45.46 37.44, 52.88 24.83, 75.12 -1.47 M39.74 47.23 C55.24 31.77, 64.88 13.87, 76.2 2.33 M39.64 46.51 C50.29 33.56, 60.88 22.22, 79.91 0.75 M45.24 43.71 C58.89 34.11, 67.8 18.91, 81.36 -2.03 M46.05 45.28 C53.77 36.33, 65.92 21.27, 83.84 -0.03 M49.52 48.44 C56.66 32.82, 61.73 26.53, 92.26 -3.41 M47.44 48.51 C59.78 34.84, 70.39 21.76, 91.94 -1.08 M57.63 44.68 C64.46 38.34, 73.56 28.24, 94.12 2.02 M53.9 48.46 C69.92 31.98, 82.87 17.47, 94.36 -0.55 M57.27 44.16 C73.44 32.07, 78.32 21.78, 98.3 3.07 M61.37 48.59 C73.6 31.11, 83.69 19.35, 101.31 0.35 M62.92 50.29 C82.63 31.04, 96.62 10.98, 107.11 -0.01 M64.51 45.96 C79.18 29.64, 96.13 10.76, 104.65 -0.98 M73.34 44.97 C83.57 38.44, 90.42 22.44, 108.02 2.99 M70.92 45.29 C85.21 28.92, 99.49 11.43, 112.82 1.28 M77.12 47.27 C87.68 30.92, 97.85 20.03, 117.77 3.49 M75.49 48.98 C87.83 32.31, 102.82 17.16, 115.69 -0.15 M80.8 44.72 C87.9 32.93, 96.16 21.59, 123.9 0.83 M81.2 47.54 C96.03 29.51, 109.15 16.97, 122.88 0.32 M87.06 47.83 C94.83 32.82, 112.26 14.23, 130.26 -2.9 M86.12 45.4 C98.88 34.01, 111.22 19.08, 126.01 -0.78 M91.51 44.52 C108.03 33.54, 121.69 18.19, 129.14 0.3 M92.94 46.63 C100.64 36.48, 110.04 27.75, 131.55 -1.56 M92.94 46.69 C113.13 30.25, 126.71 11.78, 135.5 -1.07 M95.94 48.7 C111.16 31.73, 121.01 16.19, 135.82 -0.94 M106.06 44.7 C116.57 32.66, 135.23 11.84, 143.71 -3.61 M102.51 48.22 C118.11 28.68, 132.98 15.84, 142.5 -0.99 M107.73 45.84 C118.99 34.18, 134.9 16.95, 145.83 1.57 M108.13 46.73 C122.24 31.65, 135.68 11.52, 149.61 -1.09 M113.77 44.87 C122.35 37.48, 132.51 25.78, 152.32 -0.7 M113.89 48.37 C127.62 29.48, 145.19 9.77, 155.02 -0.25 M117.14 46.5 C137.46 30.63, 146.52 16.56, 162.34 -3.12 M117.49 45.72 C134.42 30.03, 148.17 10, 159.48 0.7 M124.75 43.88 C138.01 28.88, 144.64 21.78, 160.45 2.52 M122.7 45.49 C133.36 32.03, 143.86 20.88, 164.05 0.78 M127.65 49.13 C142.69 32.77, 151.5 18.85, 166.88 -0.06 M130.43 46.29 C138.52 33.86, 152.61 23.04, 169.18 0.71 M137.83 47.81 C146 38.34, 155.31 26.5, 178.3 -1.23 M136.17 48.37 C148.03 32.68, 159.67 20.82, 176.14 0.58 M142.45 45.46 C153.38 32.21, 167.79 16.62, 178.04 1.12 M141.01 47.41 C154.25 27.37, 169.12 11.09, 178.06 1.63 M148.6 46.03 C154.19 34.27, 165.23 24.34, 188.85 -3.98 M145.15 48.2 C154.7 33.36, 166.06 21.35, 185.45 0 M153.53 50.46 C159.29 33.05, 175.39 18.77, 187.15 -2 M150.9 46.45 C161.02 34.21, 173.7 19.18, 189.12 0.49 M157.4 43.13 C173.31 27.02, 185.22 10.51, 195.79 1.49 M156.15 46.51 C169.18 33.75, 178.22 17.03, 197.78 -1.72 M157.58 46.36 C170.6 28.8, 190.09 15.14, 198.3 3.43 M161.4 47.13 C175.94 30.06, 189.37 13.42, 200.96 0.71 M169.33 42.94 C174.19 29.63, 193.03 19.87, 207.61 -2.34 M167.27 47.22 C175.65 37.71, 184.25 23.81, 206.56 1.02 M172.09 46.63 C180.59 32.38, 194 15.87, 212.33 -2.49 M169.44 47.57 C181.4 38.86, 188.66 25.43, 211.82 0.09 M178.22 48.59 C193.21 32.4, 207.73 11.98, 221.51 -1.75 M176.24 44.63 C187.07 34.74, 197.98 24.29, 216.84 0.21 M179.25 47.98 C195.3 36.27, 205.26 19.48, 218.84 -0.4 M183.56 48.24 C193.76 36.61, 203.36 23.87, 223.56 -1.2 M190 47.15 C203.02 27.61, 215.89 15.7, 231.46 0.22 M187.77 48.16 C202.61 30.48, 216.41 8.82, 229.29 -1.8 M190.05 46.4 C207.8 28.58, 220.36 19.7, 236.17 -3.73 M191.94 48.01 C206.82 30.98, 219.05 16.95, 233.67 -0.61 M201.33 46.73 C211.76 36.8, 221.82 19.13, 235.52 0.57 M196.16 47.35 C208.48 35.08, 219.02 23.84, 239.55 0.48 M204.19 45.1 C219.47 24.71, 235.28 7.75, 247.39 -2.61 M202.37 48.1 C213.38 34.35, 225.12 24.04, 243.26 -1.24 M211.64 48.93 C226.29 31.98, 237.52 13.34, 246.47 1.25 M209.37 48.37 C223.64 28.68, 236.88 13.14, 248.86 0.66 M210.13 46.56 C220.87 33.67, 234.19 26.72, 256.36 -3.94 M214.28 48.13 C228.91 31.99, 238.59 18.49, 253.06 0.23 M217.77 45.84 C235.48 34.5, 246.86 12.81, 255.85 -2.27 M219.62 47.02 C232.75 29.05, 249.94 8.46, 260.12 0.95 M225.1 44.51 C237.42 35.35, 251.98 13.99, 263.66 0.61 M222.73 46.07 C235.21 33.07, 247.23 24.07, 263.44 1.45 M229.32 44.81 C246.69 27.57, 259.11 15.5, 266.03 3.02 M230.79 45.46 C238.71 36.81, 248.96 25.95, 265.87 4.26 M231.05 47.9 C249.78 31.83, 258.17 19.23, 266.1 12.46 M234.37 46.28 C246.13 34.42, 257.13 23.2, 265.85 8.29 M236.61 44.43 C245.86 35.71, 253.08 32.3, 265.45 16.36 M238.36 48.25 C251.04 35.05, 261.77 23.01, 267.66 14.83 M246.71 48.97 C254.52 42.85, 254.19 35.35, 264.34 22.91 M247.51 47.5 C252.81 38.79, 257.36 28.67, 266.47 23.61 M250.74 50.57 C258.65 40.77, 264.68 35.49, 267.81 29.94 M249.44 46.3 C253.72 40.84, 257.64 37, 267.13 28.98 M255.65 47.1 C257.23 45.26, 262.3 38.9, 267.22 35.48 M256.12 46.79 C259.27 42.91, 264.47 38.75, 266.64 33.92 M262.31 45.75 C263.11 43.94, 262.89 44.83, 268.29 40.97 M261.96 47.83 C262.99 44.69, 264.6 43.18, 267.4 40.17" stroke="#ffc9c9" stroke-width="0.5" fill="none"></path><path d="M1.67 2.71 C95.54 2.51, 194.1 2.87, 267.23 -2.8 M-0.8 -0.14 C57.7 -2.62, 114.63 -0.39, 268.21 1.02 M268.34 2.67 C264.64 10.44, 265.98 22.15, 267.78 47.42 M265.64 -0.6 C264.65 15.05, 267.88 34.66, 265.51 45.05 M264.31 48.12 C172.78 49.67, 77.07 45.19, -2.12 45.08 M266.83 47.92 C192.29 50.24, 119.35 48.61, 0.29 45.34 M-1.14 44.12 C1.57 33.21, -1.56 22.47, 1.86 2.01 M0.12 44.68 C0.79 37.06, 0.19 22.51, -0.72 1.73" stroke="#e03131" stroke-width="1" fill="none"></path></g><g transform="translate(941.7295190327362 613.0610118520062) rotate(0 110.83333587646484 16.09999999999991)"><text x="0" y="25.760546874999996" font-family="Helvetica, Segoe UI Emoji" font-size="28px" fill="#1e1e1e" text-anchor="start" style="white-space: pre;" direction="ltr" dominant-baseline="alphabetic">child array - struct</text></g><g stroke-linecap="round"><g transform="translate(1040.3131122385398 212.2311634233365) rotate(0 3.3617866329282435 188.88050276039075)"><path d="M2.23 0.62 C2.87 143.68, 3.02 289.86, 7.7 376.53" stroke="#e03131" stroke-width="1.5" fill="none" stroke-dasharray="8 9"></path></g><g transform="translate(1040.3131122385398 212.2311634233365) rotate(0 3.3617866329282435 188.88050276039075)"><path d="M0.2 353.86 C2.25 360.51, 3.83 369.74, 8.51 375.52" stroke="#e03131" stroke-width="1.5" fill="none"></path></g><g transform="translate(1040.3131122385398 212.2311634233365) rotate(0 3.3617866329282435 188.88050276039075)"><path d="M17.29 353.28 C12.75 360.18, 7.73 369.64, 8.51 375.52" stroke="#e03131" stroke-width="1.5" fill="none"></path></g></g><mask></mask><g stroke-linecap="round" transform="translate(1440.2128441118448 237.27497250032775) rotate(0 108.20816694165012 36.86104857124201)"><path d="M0.36 -1.51 L215.14 -1.16 L214.69 73.15 L-1.2 74.24" stroke="none" stroke-width="0" fill="#a5d8ff"></path><path d="M0 0 C68.97 0.38, 141.68 0.79, 216.42 0 M0 0 C63.55 1.83, 126.93 1.67, 216.42 0 M216.42 0 C217.4 21.43, 215.42 39.07, 216.42 73.72 M216.42 0 C216.05 20.8, 215.15 40.03, 216.42 73.72 M216.42 73.72 C162.22 73.83, 111.99 71.22, 0 73.72 M216.42 73.72 C167.71 72.2, 119.01 72.72, 0 73.72 M0 73.72 C-0.67 45.83, 0.17 18.26, 0 0 M0 73.72 C-0.78 45.24, -0.55 15.68, 0 0" stroke="#1e1e1e" stroke-width="2" fill="none"></path></g><g transform="translate(1481.497182928495 258.03602107157076) rotate(0 70.05000305175781 16.09999999999991)"><text x="0" y="25.760546874999996" font-family="Helvetica, Segoe UI Emoji" font-size="28px" fill="#1e1e1e" text-anchor="start" style="white-space: pre;" direction="ltr" dominant-baseline="alphabetic">0  1  4  4  6</text></g><g stroke-linecap="round"><g transform="translate(803.6295426288773 171.5895451237484) rotate(0 72.19628174097154 -1.3719226654498016)"><path d="M0.8 -0.71 C24.86 -1.3, 119.95 -2.77, 143.72 -3.06" stroke="#e03131" stroke-width="1.5" fill="none" stroke-dasharray="8 9"></path></g><g transform="translate(803.6295426288773 171.5895451237484) rotate(0 72.19628174097154 -1.3719226654498016)"><path d="M120.35 5.83 C124.91 2.35, 131.37 -0.34, 143.72 -3.06" stroke="#e03131" stroke-width="1.5" fill="none"></path></g><g transform="translate(803.6295426288773 171.5895451237484) rotate(0 72.19628174097154 -1.3719226654498016)"><path d="M120.11 -11.27 C124.8 -10.52, 131.31 -8.97, 143.72 -3.06" stroke="#e03131" stroke-width="1.5" fill="none"></path></g></g><mask></mask><g stroke-linecap="round"><g transform="translate(1187.2380079980248 595.4955393304072) rotate(0 41.65623967247845 -66.9695126110505)"><path d="M-3.8 3.92 C26.49 -46.13, 52.8 -92.15, 80.87 -131.54" stroke="#1971c2" stroke-width="2.5" fill="none" stroke-dasharray="8 10"></path></g><g transform="translate(1187.2380079980248 595.4955393304072) rotate(0 41.65623967247845 -66.9695126110505)"><path d="M72.98 -105.31 C76.63 -116.11, 77.3 -124.18, 79.65 -130.35" stroke="#1971c2" stroke-width="2.5" fill="none"></path></g><g transform="translate(1187.2380079980248 595.4955393304072) rotate(0 41.65623967247845 -66.9695126110505)"><path d="M58.78 -114.84 C67.48 -122.17, 73.13 -126.91, 79.65 -130.35" stroke="#1971c2" stroke-width="2.5" fill="none"></path></g></g><mask></mask><g transform="translate(1277.6061159605551 421.4593004721055) rotate(0 191.64999389648438 16.09999999999991)"><text x="0" y="25.760546874999996" font-family="Helvetica, Segoe UI Emoji" font-size="28px" fill="#1971c2" text-anchor="start" style="white-space: pre;" direction="ltr" dominant-baseline="alphabetic">Variable-size Binary child array</text></g><g transform="translate(1277.6061159605551 808.7760664134339) rotate(0 187.9583282470703 16.09999999999991)"><text x="0" y="25.760546874999996" font-family="Helvetica, Segoe UI Emoji" font-size="28px" fill="#1971c2" text-anchor="start" style="white-space: pre;" direction="ltr" dominant-baseline="alphabetic">Fixed-size Primitive child array</text></g><g stroke-linecap="round"><g transform="translate(1182.6731703400264 666.1464012600345) rotate(0 46.14330192488882 66.36116878124176)"><path d="M2.21 -3.43 C28.49 40.58, 57.87 84.91, 95.26 131.04" stroke="#1971c2" stroke-width="2.5" fill="none" stroke-dasharray="8 10"></path></g><g transform="translate(1182.6731703400264 666.1464012600345) rotate(0 46.14330192488882 66.36116878124176)"><path d="M75.25 115.93 C81.71 122.07, 88.61 127.77, 96.74 130.2" stroke="#1971c2" stroke-width="2.5" fill="none"></path></g><g transform="translate(1182.6731703400264 666.1464012600345) rotate(0 46.14330192488882 66.36116878124176)"><path d="M88.8 105.5 C90.95 115, 93.64 123.94, 96.74 130.2" stroke="#1971c2" stroke-width="2.5" fill="none"></path></g></g><mask></mask><g transform="translate(1396.7397934357982 693.2392324836828) rotate(0 81.60832977294922 16.09999999999991)"><text x="0" y="25.760546874999996" font-family="Helvetica, Segoe UI Emoji" font-size="28px" fill="#1e1e1e" text-anchor="start" style="white-space: pre;" direction="ltr" dominant-baseline="alphabetic">Values buffer</text></g><g transform="translate(1397.2476059357982 597.0380361949974) rotate(0 76.90833282470703 16.09999999999991)"><text x="0" y="25.760546874999996" font-family="Helvetica, Segoe UI Emoji" font-size="28px" fill="#1e1e1e" text-anchor="start" style="white-space: pre;" direction="ltr" dominant-baseline="alphabetic">Offset buffer</text></g><g transform="translate(1397.2476059357982 500.836839906312) rotate(0 130.03334045410156 16.09999999999991)"><text x="0" y="25.760546874999996" font-family="Helvetica, Segoe UI Emoji" font-size="28px" fill="#1e1e1e" text-anchor="start" style="white-space: pre;" direction="ltr" dominant-baseline="alphabetic">Validity bitmap buffer</text></g><g stroke-linecap="round" transform="translate(1698.2334340019088 672.4781839124407) rotate(0 518.4698856916502 36.86104857124201)"><path d="M1.27 1.65 L1035.79 -0.95 L1037.2 75.5 L2 75.61" stroke="none" stroke-width="0" fill="#a5d8ff"></path><path d="M0 0 C386.94 -2.16, 774.59 -2.45, 1036.94 0 M0 0 C302.51 0.45, 604.08 0.36, 1036.94 0 M1036.94 0 C1038.48 22.41, 1038.97 40.82, 1036.94 73.72 M1036.94 0 C1035.69 25.63, 1036.58 53.4, 1036.94 73.72 M1036.94 73.72 C716.6 70.27, 395.4 71.81, 0 73.72 M1036.94 73.72 C654.47 77.85, 271.57 77.38, 0 73.72 M0 73.72 C-0.73 59.54, 2.19 44.24, 0 0 M0 73.72 C0.53 53.12, -0.12 33.72, 0 0" stroke="#1e1e1e" stroke-width="2" fill="none"></path></g><g transform="translate(1733.242382193559 693.2392324836819) rotate(0 486.6833190917969 16.09999999999991)"><text x="0" y="25.760546874999996" font-family="Helvetica, Segoe UI Emoji" font-size="28px" fill="#1e1e1e" text-anchor="start" style="white-space: pre;" direction="ltr" dominant-baseline="alphabetic">Dark KnightDark KnightMeet the ParentsSupermanMeet the ParentsSuperman</text></g><g stroke-linecap="round" transform="translate(1698.9102445082358 576.592133473905) rotate(0 178.8076067379568 35.990728694052905)"><path d="M0.26 1.78 L359.61 1.89 L359.24 72.96 L-1.4 73.38" stroke="none" stroke-width="0" fill="#a5d8ff"></path><path d="M0 0 C142.18 -0.46, 284.47 -0.26, 357.62 0 M0 0 C115.78 0.28, 231.26 0.38, 357.62 0 M357.62 0 C359.43 24.63, 358.04 51.22, 357.62 71.98 M357.62 0 C357.88 14.22, 357.14 30.75, 357.62 71.98 M357.62 71.98 C286.85 74.57, 215.47 74.3, 0 71.98 M357.62 71.98 C215.21 70.91, 73.8 71.03, 0 71.98 M0 71.98 C-1.14 47.44, -1.15 24.59, 0 0 M0 71.98 C0.85 55.86, -0.36 37.62, 0 0" stroke="#1e1e1e" stroke-width="2" fill="none"></path></g><g transform="translate(1396.7397934357982 1005.1916320823748) rotate(0 81.60832977294922 16.09999999999991)"><text x="0" y="25.760546874999996" font-family="Helvetica, Segoe UI Emoji" font-size="28px" fill="#1e1e1e" text-anchor="start" style="white-space: pre;" direction="ltr" dominant-baseline="alphabetic">Values buffer</text></g><g transform="translate(1396.7397934357982 912.6070456379921) rotate(0 130.03334045410156 16.09999999999991)"><text x="0" y="25.760546874999996" font-family="Helvetica, Segoe UI Emoji" font-size="28px" fill="#1e1e1e" text-anchor="start" style="white-space: pre;" direction="ltr" dominant-baseline="alphabetic">Validity bitmap buffer</text></g><g stroke-linecap="round" transform="translate(1697.75801397654 894.3332982458287) rotate(0 102.28569975707387 34.80312378531971)"><path d="M0.95 0 L205.08 1.3 L204.37 70.29 L-1.28 68.13" stroke="none" stroke-width="0" fill="#a5d8ff"></path><path d="M0 0 C80.39 -2.32, 160.49 0.66, 204.57 0 M0 0 C73.47 0.13, 146.8 -0.56, 204.57 0 M204.57 0 C204.73 20.81, 203.88 45.48, 204.57 69.61 M204.57 0 C204.32 14.21, 203.37 29.4, 204.57 69.61 M204.57 69.61 C151.06 68.39, 100.44 69.16, 0 69.61 M204.57 69.61 C141.69 71.01, 78.17 71.01, 0 69.61 M0 69.61 C1.83 50.42, -1.12 31.19, 0 0 M0 69.61 C0.84 44.39, 0.35 20.31, 0 0" stroke="#1e1e1e" stroke-width="2" fill="none"></path></g><g transform="translate(1736.1513191426661 913.5546849019793) rotate(0 62.266666412353516 16.09999999999991)"><text x="0" y="25.760546874999996" font-family="Helvetica, Segoe UI Emoji" font-size="28px" fill="#1e1e1e" text-anchor="start" style="white-space: pre;" direction="ltr" dominant-baseline="alphabetic">00011111</text></g><g stroke-linecap="round" transform="translate(1697.75801397654 985.781208583202) rotate(0 141.97784443477065 35.04220680752178)"><path d="M-0.2 0.69 L282.68 -1.48 L283.42 70.34 L1.74 71.29" stroke="none" stroke-width="0" fill="#a5d8ff"></path><path d="M0 0 C64.7 -3.4, 127.76 -1.27, 283.96 0 M0 0 C93.47 0.45, 185.88 1.33, 283.96 0 M283.96 0 C282.21 14.42, 283.77 32.83, 283.96 70.08 M283.96 0 C283.1 16.41, 283.21 30.83, 283.96 70.08 M283.96 70.08 C209.37 70.28, 135.79 71.17, 0 70.08 M283.96 70.08 C203.97 69.81, 123.68 70.42, 0 70.08 M0 70.08 C1.49 49.68, 2.21 31.87, 0 0 M0 70.08 C0.4 51.66, 0.18 33.89, 0 0" stroke="#1e1e1e" stroke-width="2" fill="none"></path></g><g transform="translate(1734.8501162238108 1004.7234153907239) rotate(0 101.18333435058594 16.09999999999991)"><text x="0" y="25.760546874999996" font-family="Helvetica, Segoe UI Emoji" font-size="28px" fill="#1e1e1e" text-anchor="start" style="white-space: pre;" direction="ltr" dominant-baseline="alphabetic">10  8  4  5  10  0</text></g><g transform="translate(1698.9102445082358 499.8238254564121) rotate(0 30.975000381469727 17.5)"><text x="0" y="24.528" font-family="Virgil, Segoe UI Emoji" font-size="28px" fill="#1971c2" text-anchor="start" style="white-space: pre;" direction="ltr" dominant-baseline="alphabetic">None</text></g><g transform="translate(1733.242382193559 596.9291477220368) rotate(0 147.88333129882812 16.09999999999991)"><text x="0" y="25.760546874999996" font-family="Helvetica, Segoe UI Emoji" font-size="28px" fill="#1e1e1e" text-anchor="start" style="white-space: pre;" direction="ltr" dominant-baseline="alphabetic">0  11  22  38  46  62  70</text></g></svg>