<svg version="1.1" xmlns="http://www.w3.org/2000/svg" viewBox="0 0 1291.240114500909 403.9612152475838" width="1291.240114500909" height="403.9612152475838">
  <!-- svg-source:excalidraw -->
  
  <defs>
    <style class="style-fonts">
      @font-face {
        font-family: "Virgil";
        src: url("https://excalidraw.com/Virgil.woff2");
      }
      @font-face {
        font-family: "Cascadia";
        src: url("https://excalidraw.com/Cascadia.woff2");
      }
      @font-face {
        font-family: "Assistant";
        src: url("https://excalidraw.com/Assistant-Regular.woff2");
      }
    </style>
    
  </defs>
  <g stroke-linecap="round" transform="translate(10 73.98219026569745) rotate(0 635.6200572504545 29.721659908090714)"><path d="M0.56 -2.34 L1275.12 2.4 L1269.35 60.94 L2.81 62.87" stroke="none" stroke-width="0" fill="#b2f2bb"></path><path d="M-0.6 1.53 C411.94 5.62, 824.02 4.32, 1270.49 -1.27 M0.6 0.72 C429.61 -5.57, 860.36 -4.82, 1270.79 0.62 M1272.16 -2.32 C1269.72 23.39, 1270.57 42.84, 1271.39 59.54 M1270.13 -1.03 C1271.14 14.19, 1270.58 30.31, 1269.91 58.77 M1272 59.34 C810.21 68.41, 348.1 66.75, 1.19 58.13 M1271.97 59.9 C846 68.7, 421.06 68.24, -0.15 58.88 M-3.63 57.41 C2.97 40.73, -0.79 22.69, -1.16 -2.79 M1.27 59.94 C1.42 36.55, 0.19 11.16, -1.65 0.92" stroke="#1e1e1e" stroke-width="2" fill="none"></path></g><g transform="translate(116.47694337260782 85.78691114323601) rotate(0 21.79296875 16.100000000000023)"><text x="0" y="25.760546874999996" font-family="Helvetica, Segoe UI Emoji" font-size="28px" fill="#1e1e1e" text-anchor="start" style="white-space: pre;" direction="ltr" dominant-baseline="alphabetic">null</text></g><g transform="translate(365.9454667345494 85.45714204855858) rotate(0 427.9775390625 16.100000000000023)"><text x="0" y="25.760546874999996" font-family="Helvetica, Segoe UI Emoji" font-size="28px" fill="#1e1e1e" text-anchor="start" style="white-space: pre;" direction="ltr" dominant-baseline="alphabetic">Physical layout - Null Layout (empty with one integer for array length)</text></g><g stroke-linecap="round"><g transform="translate(289.3952261513864 76.35119497274536) rotate(0 0 22.213424812065796)"><path d="M-0.94 -1.58 C0.89 16.35, 1.17 34.68, 1.79 42.66 M-0.56 0.78 C0.62 12.75, 0.04 24.55, -0.58 43.87" stroke="#1e1e1e" stroke-width="2" fill="none"></path></g></g><mask></mask><g transform="translate(26.47694337260782 10) rotate(0 32.8125 16.80000000000001)"><text x="0" y="27.0375" font-family="Cascadia, Segoe UI Emoji" font-size="28px" fill="#2f9e44" text-anchor="start" style="white-space: pre;" direction="ltr" dominant-baseline="alphabetic">null</text></g><g stroke-linecap="round" transform="translate(74.71240572949273 158.74025541537117) rotate(0 69.19198593796239 117.61047991610633)"><path d="M1.83 -0.63 L138.18 -0.04 L137.66 234.16 L0.81 236.21" stroke="none" stroke-width="0" fill="#ffc9c9"></path><path d="M0 0 C32.74 0.83, 65.39 1.08, 138.38 0 M0 0 C33.62 1.33, 67.64 1.62, 138.38 0 M138.38 0 C137.58 91.23, 137.1 180.37, 138.38 235.22 M138.38 0 C138.6 77.46, 138.43 155.03, 138.38 235.22 M138.38 235.22 C108.88 237, 80.05 236.08, 0 235.22 M138.38 235.22 C103.02 234.49, 67.33 235.37, 0 235.22 M0 235.22 C-0.69 181.23, -0.67 126.87, 0 0 M0 235.22 C1.35 182.13, 1.75 127.42, 0 0" stroke="#1e1e1e" stroke-width="2" fill="none"></path></g><g stroke-linecap="round"><g transform="translate(77.70938098191527 218.95668277590698) rotate(0 65.28792115044882 0.3806997662982212)"><path d="M0 0 C37.52 0.74, 75.98 -1.67, 130.58 0.76 M0 0 C32.38 0.27, 67.3 -1.05, 130.58 0.76" stroke="#1e1e1e" stroke-width="2" fill="none"></path></g></g><mask></mask><g transform="translate(84.0112007051689 173.25568283733196) rotate(0 56.806640625 16.100000000000023)"><text x="0" y="25.760546874999996" font-family="Helvetica, Segoe UI Emoji" font-size="28px" fill="#1e1e1e" text-anchor="start" style="white-space: pre;" direction="ltr" dominant-baseline="alphabetic">column 0</text></g><g transform="translate(119.0248725801689 244.89486555381995) rotate(0 21.79296875 16.100000000000023)"><text x="0" y="25.760546874999996" font-family="Helvetica, Segoe UI Emoji" font-size="28px" fill="#1e1e1e" text-anchor="start" style="white-space: pre;" direction="ltr" dominant-baseline="alphabetic">null</text></g><g transform="translate(119.0248725801689 291.39261065200367) rotate(0 21.79296875 16.100000000000023)"><text x="0" y="25.760546874999996" font-family="Helvetica, Segoe UI Emoji" font-size="28px" fill="#1e1e1e" text-anchor="start" style="white-space: pre;" direction="ltr" dominant-baseline="alphabetic">null</text></g><g transform="translate(119.0248725801689 337.8903557501874) rotate(0 21.79296875 16.100000000000023)"><text x="0" y="25.760546874999996" font-family="Helvetica, Segoe UI Emoji" font-size="28px" fill="#1e1e1e" text-anchor="start" style="white-space: pre;" direction="ltr" dominant-baseline="alphabetic">null</text></g><g stroke-linecap="round" transform="translate(375.57287157563724 173.6592012012968) rotate(0 72.28797794313596 18.9832559125648)"><path d="M0 0 C0 0, 0 0, 0 0 M0 0 C0 0, 0 0, 0 0 M-0.91 6.31 C0.73 5.74, 2.28 3.3, 4.37 0.2 M-0.98 6.22 C1.2 4.7, 3.85 2.39, 5.77 1.08 M-0.29 11.28 C0.46 10.57, 2.51 4.65, 8.68 1.92 M0.15 12.78 C3.17 10.13, 4.32 6.59, 10.41 0.82 M0.99 15.51 C0.52 12.71, 10.23 8.84, 13.64 -0.14 M-0.78 19 C5.38 11.78, 13.47 5.49, 15.61 0.09 M-3.49 27.35 C10.55 17.85, 18.82 7.47, 23.73 0.42 M-1.19 24.09 C6.23 17.08, 10.45 12.11, 22.83 -1.05 M-1.71 27.93 C1.84 26.51, 15.57 14.53, 29.01 -3.14 M-1.5 30.25 C7.15 18.7, 18 8.67, 25.68 -0.4 M3.65 39.91 C11.69 26.39, 13.26 17.07, 30.64 1.78 M-0.96 37.64 C11.84 22.03, 21.43 10.35, 33.28 1.76 M5.88 40.61 C16.08 25.62, 29.36 10.75, 37.92 -1.03 M2.95 41.86 C15.75 27.95, 26.49 12.78, 37.59 -1.7 M9.05 39.7 C16.8 25.62, 32.51 7.56, 44.23 2.55 M7.24 39.91 C21.14 25.6, 34.8 7.62, 43.23 -1.46 M12.12 43.56 C28.42 28.49, 35.99 15.17, 48.6 0.3 M13.38 38.59 C24.41 29.62, 31.52 14.61, 46.89 -0.27 M21.54 37.13 C33.11 22.64, 45.25 6.98, 55.65 -3.11 M17.79 40.51 C28.23 27.84, 37.67 16.64, 51.21 -1.69 M22.13 42.27 C38.66 21.86, 46.69 7.12, 57.14 -2.89 M24.57 38.54 C38.33 23.58, 50.53 10.24, 56.15 1.39 M25.08 40.96 C37.9 25.67, 55.19 9.59, 63.93 1.13 M27.4 39.17 C41.17 27.56, 51.68 10.69, 64.86 -1.97 M33.46 38.56 C46.25 26.19, 57.74 15.82, 71.52 3.76 M32.89 41.9 C43.32 28.91, 50.67 20.35, 67.04 -1.31 M42.17 43.05 C49.95 27.59, 57.74 20.97, 76 -2.32 M38.47 38.58 C46.4 31.06, 56.44 21.75, 72.86 -1.42 M43.51 40.34 C59.6 26.59, 66.66 17.03, 79.59 -3.26 M43.77 40.82 C54.17 27.1, 66.83 18.21, 80.28 1.01 M51.13 37.41 C56.73 29.78, 69.81 17.05, 82.63 -0.88 M48.47 39.35 C57.87 31.34, 66.35 22.63, 84.95 0.8 M57.57 37.68 C68.27 24.01, 80.61 16.18, 89.08 2.67 M55.71 39.39 C67.92 26.61, 84.13 10.12, 91.63 -0.36 M58.21 36.16 C75.71 25.77, 89.19 7.83, 98.49 0.11 M61.93 40.03 C70.05 29.48, 79.76 16.34, 95.96 1.46 M64.81 42.76 C75.63 24.4, 88.8 5.62, 103.57 2.3 M64.27 41.61 C72.34 31.9, 81.37 24.53, 99.93 -0.18 M73.49 37.53 C85.01 28.02, 98.27 8.08, 106.12 1.47 M70.44 41.1 C78.42 30.64, 86.48 24.1, 105.74 1.26 M78.26 41.89 C86.98 35.95, 94.87 25.79, 114.56 2.49 M78.08 39.46 C89.58 26.19, 97.43 14.81, 111.11 0.72 M78.96 41.89 C90.96 27.15, 103.17 12.87, 119.27 2.88 M80.65 41 C93.01 25.73, 105.9 15.25, 114.57 1.61 M86.83 43.49 C96.94 30.49, 105.93 22.64, 125.38 -3.75 M86.81 40.81 C95.13 30.11, 99.64 21.8, 122.11 -0.54 M91.8 36.5 C106.14 26.87, 116.1 15.18, 129.55 -0.11 M93.62 40.83 C103.39 26.7, 111.39 17.28, 125.78 1.57 M95.31 38.13 C106.29 24.86, 124.8 9.04, 135.27 2.69 M97.22 41.5 C108.2 24.44, 119.73 12.67, 132.96 -0.92 M103.06 40.47 C118.29 29.27, 128.84 9.86, 134.44 -3.57 M103.45 41.4 C110.57 28.98, 117.72 20.83, 137.75 -1.59 M108.37 38.48 C118.94 31.54, 127.75 23.33, 139.32 3.04 M109.11 41.31 C116.54 29.97, 129.07 16.71, 142.77 0.58 M113.68 37.28 C127.64 26.55, 137.09 15.14, 146.7 3.33 M113.31 39.68 C126.77 25.72, 136.69 15.82, 145.3 2.11 M122.54 39.35 C126 37.59, 132.09 29.99, 145.29 5 M119.36 39.93 C127 30.97, 134.03 22.88, 146.46 7.17 M121.12 43.82 C130.97 31.9, 137.6 25.67, 148.34 13.07 M122.12 41.86 C131.45 30.79, 137.43 21.87, 145.74 14.11 M126.22 41.68 C132.45 31.76, 140.24 25.21, 143.96 21.51 M129.9 41.01 C136.11 31.35, 141.95 25.55, 145.18 19.2 M134.74 39.19 C140.84 33.98, 142.11 34.47, 145.77 29.12 M135.71 40.06 C138.18 35.49, 139.12 33.38, 145.91 25.11 M140.01 38.17 C140.2 39.52, 144.96 34.09, 146.1 30.35 M140.01 39.97 C143.68 36.77, 145.89 34.86, 146.68 31.98" stroke="#ffc9c9" stroke-width="0.5" fill="none"></path><path d="M-2.1 0.1 C31.55 0.24, 61.4 -2.07, 145.77 0.38 M-0.33 -0.43 C40.3 0.71, 84.41 -0.29, 146.28 -0.92 M142.92 -0.16 C143.62 11.28, 147.1 23.1, 147.46 38.88 M146.4 -1.43 C143.35 11.74, 144.31 27.77, 144.84 37.43 M144.5 36.53 C85.85 39.29, 33.36 34.62, 3.38 34.08 M145.85 38.05 C103.66 36.96, 65.84 36.63, 0.68 39.29 M-1.26 37.96 C-3.87 29.34, -3.78 16.35, -3 3.63 M-1.29 36.94 C0.07 27.64, 1.33 15.77, 0.22 -0.12" stroke="#e03131" stroke-width="1" fill="none"></path></g><g transform="translate(392.59435014192604 177.24090601458806) rotate(0 56.806640625 16.100000000000023)"><text x="0" y="25.760546874999996" font-family="Helvetica, Segoe UI Emoji" font-size="28px" fill="#1e1e1e" text-anchor="start" style="white-space: pre;" direction="ltr" dominant-baseline="alphabetic">column 0</text></g><g transform="translate(579.1274590991789 248.2550165812312) rotate(0 81.2177734375 16.100000000000023)"><text x="0" y="25.760546874999996" font-family="Helvetica, Segoe UI Emoji" font-size="28px" fill="#1e1e1e" text-anchor="start" style="white-space: pre;" direction="ltr" dominant-baseline="alphabetic">Values buffer</text></g><g transform="translate(579.1274590991789 176.0812472947366) rotate(0 129.4521484375 16.100000000000023)"><text x="0" y="25.760546874999996" font-family="Helvetica, Segoe UI Emoji" font-size="28px" fill="#1e1e1e" text-anchor="start" style="white-space: pre;" direction="ltr" dominant-baseline="alphabetic">Validity bitmap buffer</text></g><g stroke-linecap="round"><g transform="translate(234.8922513272014 186.08175245846337) rotate(0 62.355851710757065 1.1889500444622172)"><path d="M-0.69 -0.66 C37.73 -3.06, 77.62 1.6, 123.12 5.79" stroke="#e03131" stroke-width="2.5" fill="none" stroke-dasharray="8 10"></path></g><g transform="translate(234.8922513272014 186.08175245846337) rotate(0 62.355851710757065 1.1889500444622172)"><path d="M98.59 11.79 C105.99 8.3, 114.12 8.3, 122.33 7.49" stroke="#e03131" stroke-width="2.5" fill="none"></path></g><g transform="translate(234.8922513272014 186.08175245846337) rotate(0 62.355851710757065 1.1889500444622172)"><path d="M100.18 -5.24 C107.08 -3.46, 114.71 1.81, 122.33 7.49" stroke="#e03131" stroke-width="2.5" fill="none"></path></g></g><mask></mask><g transform="translate(919.4240975004818 176.0812472947366) rotate(0 30.967987060546875 17.5)"><text x="0" y="24.528" font-family="Virgil, Segoe UI Emoji" font-size="28px" fill="#1971c2" text-anchor="start" style="white-space: pre;" direction="ltr" dominant-baseline="alphabetic">None</text></g><g stroke-linecap="round" transform="translate(919.4240975004818 230.06915981406837) rotate(0 36.490913297972384 34.28585676716284)"><path d="M1.6 1.34 L72.77 1.25 L71.15 68.24 L0.01 68.42" stroke="none" stroke-width="0" fill="#a5d8ff"></path><path d="M0 0 C14.86 0.79, 33.45 1.94, 72.98 0 M0 0 C27.57 -0.76, 53.16 0.06, 72.98 0 M72.98 0 C72.92 18.39, 73.72 40.37, 72.98 68.57 M72.98 0 C73.11 26.65, 73.25 53.31, 72.98 68.57 M72.98 68.57 C59.04 68.91, 42.74 68.69, 0 68.57 M72.98 68.57 C51.05 67.87, 29.99 68.83, 0 68.57 M0 68.57 C-1.44 45.29, -1.45 22.78, 0 0 M0 68.57 C-0.67 43.54, 0.27 17.86, 0 0" stroke="#1e1e1e" stroke-width="2" fill="none"></path></g><g transform="translate(949.3883180901212 248.25501658123085) rotate(0 7.7861328125 16.100000000000023)"><text x="0" y="25.760546874999996" font-family="Helvetica, Segoe UI Emoji" font-size="28px" fill="#1e1e1e" text-anchor="start" style="white-space: pre;" direction="ltr" dominant-baseline="alphabetic">3</text></g></svg>