<svg version="1.1" xmlns="http://www.w3.org/2000/svg" viewBox="0 0 1487.031130125909 503.1402763085464" width="1487.031130125909" height="503.1402763085464">
  <!-- svg-source:excalidraw -->
  
  <defs>
    <style class="style-fonts">
      @font-face {
        font-family: "Virgil";
        src: url("https://excalidraw.com/Virgil.woff2");
      }
      @font-face {
        font-family: "Cascadia";
        src: url("https://excalidraw.com/Cascadia.woff2");
      }
      @font-face {
        font-family: "Assistant";
        src: url("https://excalidraw.com/Assistant-Regular.woff2");
      }
    </style>
    
  </defs>
  <g stroke-linecap="round" transform="translate(10 10) rotate(0 733.5155650629545 29.721659908090714)"><path d="M3.27 -3.31 L1465.95 -3.25 L1463.97 60.74 L-1.33 62.79" stroke="none" stroke-width="0" fill="#b2f2bb"></path><path d="M1.37 -1.55 C522.46 0.72, 1043.12 -1.32, 1465.99 -0.74 M-0.64 -0.54 C490.84 -2.79, 979.48 -2.87, 1467.69 -0.23 M1463.27 -0.24 C1464.77 25.86, 1466.81 47.1, 1464.18 56.8 M1467.96 -0.01 C1469.43 18.23, 1466.74 36.38, 1465.99 59.47 M1467.99 59.52 C917.67 54.05, 365.04 54.41, -0.96 59.69 M1466.58 59.25 C1034.26 57.52, 599.63 57.78, -0.52 60.02 M0.6 60.01 C2.33 35.63, -3.73 15.28, -1.01 -1.31 M-0.98 59.19 C-1.51 44.93, -1.26 31.75, 0.08 0.21" stroke="#1e1e1e" stroke-width="2" fill="none"></path></g><g transform="translate(61.47694337260782 21.804720877538557) rotate(0 100.40625 16.100000000000023)"><text x="0" y="25.760546874999996" font-family="Helvetica, Segoe UI Emoji" font-size="28px" fill="#1e1e1e" text-anchor="start" style="white-space: pre;" direction="ltr" dominant-baseline="alphabetic">integer and float</text></g><g transform="translate(627.8595292345494 21.474951782861126) rotate(0 273.095703125 16.100000000000023)"><text x="0" y="25.760546874999996" font-family="Helvetica, Segoe UI Emoji" font-size="28px" fill="#1e1e1e" text-anchor="start" style="white-space: pre;" direction="ltr" dominant-baseline="alphabetic">Physical layout - Fixed-size Primitive Layout</text></g><g stroke-linecap="round" transform="translate(30.019719310085293 140.6562514274974) rotate(0 139.78411447020017 173.13945127027307)"><path d="M0.26 -0.05 L280.2 -0.44 L281.01 347.05 L0.64 346.35" stroke="none" stroke-width="0" fill="#ffc9c9"></path><path d="M0 0 C95.55 -0.09, 187.98 1.26, 279.57 0 M0 0 C76.32 0.66, 151.66 0.47, 279.57 0 M279.57 0 C282.16 115.48, 281.67 232.38, 279.57 346.28 M279.57 0 C278.53 132.23, 278.49 264.82, 279.57 346.28 M279.57 346.28 C194.29 346.49, 107.17 347.45, 0 346.28 M279.57 346.28 C187.33 347.74, 95.25 347.09, 0 346.28 M0 346.28 C-2.19 242.12, -0.4 136.18, 0 0 M0 346.28 C-1.86 247.81, -2.3 148.61, 0 0" stroke="#1e1e1e" stroke-width="2" fill="none"></path></g><g stroke-linecap="round"><g transform="translate(167.782956070949 151.802342688929) rotate(0 0 162.2596360786805)"><path d="M0 0 C-1.26 68.1, 1.02 135.3, 0 324.52 M0 0 C0.03 121.99, 0.32 244.41, 0 324.52" stroke="#1e1e1e" stroke-width="2" fill="none"></path></g></g><mask></mask><g stroke-linecap="round"><g transform="translate(38.65215869167832 202.92186011298554) rotate(0 131.4443537784407 -0.7023250374761574)"><path d="M0 0 C67.06 1.64, 136 -0.28, 262.89 -1.4 M0 0 C67.82 -0.26, 136.26 -1.31, 262.89 -1.4" stroke="#1e1e1e" stroke-width="2" fill="none"></path></g></g><mask></mask><g transform="translate(42.633619051116284 154.5271475994582) rotate(0 56.806640625 16.100000000000023)"><text x="0" y="25.760546874999996" font-family="Helvetica, Segoe UI Emoji" font-size="28px" fill="#1e1e1e" text-anchor="start" style="white-space: pre;" direction="ltr" dominant-baseline="alphabetic">column 1</text></g><g transform="translate(182.23924197476958 154.52714759945843) rotate(0 56.806640625 16.100000000000023)"><text x="0" y="25.760546874999996" font-family="Helvetica, Segoe UI Emoji" font-size="28px" fill="#1e1e1e" text-anchor="start" style="white-space: pre;" direction="ltr" dominant-baseline="alphabetic">column 2</text></g><g transform="translate(100.80176765515466 224.4736219826134) rotate(0 7.7861328125 16.100000000000023)"><text x="0" y="25.760546874999996" font-family="Helvetica, Segoe UI Emoji" font-size="28px" fill="#1e1e1e" text-anchor="start" style="white-space: pre;" direction="ltr" dominant-baseline="alphabetic">1</text></g><g transform="translate(100.80176765515466 276.8681266824219) rotate(0 7.7861328125 16.100000000000023)"><text x="0" y="25.760546874999996" font-family="Helvetica, Segoe UI Emoji" font-size="28px" fill="#1e1e1e" text-anchor="start" style="white-space: pre;" direction="ltr" dominant-baseline="alphabetic">3</text></g><g transform="translate(101.03429042036646 329.24012917914524) rotate(0 7.7861328125 16.100000000000023)"><text x="0" y="25.760546874999996" font-family="Helvetica, Segoe UI Emoji" font-size="28px" fill="#1e1e1e" text-anchor="start" style="white-space: pre;" direction="ltr" dominant-baseline="alphabetic">9</text></g><g transform="translate(101.03429042036646 433.74411067301867) rotate(0 7.7861328125 16.100000000000023)"><text x="0" y="25.760546874999996" font-family="Helvetica, Segoe UI Emoji" font-size="28px" fill="#1e1e1e" text-anchor="start" style="white-space: pre;" direction="ltr" dominant-baseline="alphabetic">2</text></g><g transform="translate(101.03429042036646 381.61213167586857) rotate(0 7.7861328125 16.100000000000023)"><text x="0" y="25.760546874999996" font-family="Helvetica, Segoe UI Emoji" font-size="28px" fill="#1e1e1e" text-anchor="start" style="white-space: pre;" direction="ltr" dominant-baseline="alphabetic">9</text></g><g transform="translate(197.19624989564068 224.9461682473982) rotate(0 19.4619140625 16.100000000000023)"><text x="0" y="25.760546874999996" font-family="Helvetica, Segoe UI Emoji" font-size="28px" fill="#1e1e1e" text-anchor="start" style="white-space: pre;" direction="ltr" dominant-baseline="alphabetic">1.2</text></g><g transform="translate(197.19624989564068 277.0931487132714) rotate(0 19.4619140625 16.100000000000023)"><text x="0" y="25.760546874999996" font-family="Helvetica, Segoe UI Emoji" font-size="28px" fill="#1e1e1e" text-anchor="start" style="white-space: pre;" direction="ltr" dominant-baseline="alphabetic">3.4</text></g><g transform="translate(197.42877266085247 329.4651512099947) rotate(0 19.4619140625 16.100000000000023)"><text x="0" y="25.760546874999996" font-family="Helvetica, Segoe UI Emoji" font-size="28px" fill="#1e1e1e" text-anchor="start" style="white-space: pre;" direction="ltr" dominant-baseline="alphabetic">9.0</text></g><g transform="translate(197.42877266085247 433.97663343823) rotate(0 19.4619140625 16.100000000000023)"><text x="0" y="25.760546874999996" font-family="Helvetica, Segoe UI Emoji" font-size="28px" fill="#1e1e1e" text-anchor="start" style="white-space: pre;" direction="ltr" dominant-baseline="alphabetic">2.9</text></g><g transform="translate(197.42877266085247 381.6046309415067) rotate(0 21.79296875 16.100000000000023)"><text x="0" y="25.760546874999996" font-family="Helvetica, Segoe UI Emoji" font-size="28px" fill="#1e1e1e" text-anchor="start" style="white-space: pre;" direction="ltr" dominant-baseline="alphabetic">null</text></g><g stroke-linecap="round" transform="translate(488.8656229108972 123.58958250516889) rotate(0 72.28797794313596 18.9832559125648)"><path d="M0 0 C0 0, 0 0, 0 0 M0 0 C0 0, 0 0, 0 0 M0.16 6.77 C2.26 4.78, 1.88 2.03, 6.06 -0.92 M-0.85 6.08 C1.04 3.7, 3.01 2.53, 5.66 0.05 M-1.96 9.74 C1.79 11.94, 5.07 4.28, 13.5 1.33 M1.28 12.15 C4.77 7.27, 8.23 1.82, 9.06 0.82 M-2.57 17.49 C8.2 11.98, 15.62 5.15, 12.67 0.69 M-0.87 17.53 C6.48 10.7, 11.39 3.45, 14.61 -0.25 M2.17 23.48 C8.28 13.86, 14.3 8.49, 25.24 -2.4 M-0.05 23.27 C6.61 19.72, 10.04 15.32, 22.99 0.45 M-3.35 33.21 C6.94 24.13, 17.78 9.76, 24.21 0.03 M0.72 29.79 C8.99 19.05, 19.6 11.22, 26.63 1.93 M2.45 33.72 C5.9 29.03, 14.4 13.52, 33.92 0.99 M0.09 35.26 C10.52 23.27, 23.34 12.52, 31.59 -0.57 M-1.47 44.23 C18.2 27.62, 31.81 14.11, 38.28 4.24 M0.24 40.09 C9.09 30.76, 17.46 22, 37.5 -0.94 M6.07 35.91 C17.31 29.55, 31.08 16.23, 42.74 -2.53 M8.65 39.78 C20.01 28.97, 26.71 16.27, 44.49 0.13 M14.57 42.15 C16.62 30.44, 27.89 21.99, 45.8 1.54 M13.02 40.32 C20.23 34.25, 28.37 23.19, 45.53 1.55 M16.5 38.52 C27.48 32.17, 37.99 17.73, 53.03 3.79 M16.81 39.26 C32.39 25.66, 44.1 8.81, 53.31 0.16 M24.09 43.03 C36.79 29.29, 44.42 12.22, 56.54 -0.76 M24.9 39.13 C29.72 31.42, 39.74 26.03, 56.6 1.2 M27.41 41.39 C40.76 21.21, 56.06 13.69, 64.99 -4.15 M30.56 41.78 C39.41 27.6, 49.87 16.52, 63.19 0.57 M37.8 36.27 C45.22 26.69, 56.8 8.99, 67.13 -0.22 M35.77 38.81 C47.3 26.42, 58.62 14.35, 68.16 -0.71 M37.93 36.49 C52.38 30.99, 58.16 11.55, 77.72 -3.35 M38.11 37.87 C49.45 25.38, 60.56 14.27, 72.86 -2.17 M41.27 42.36 C55.33 25.8, 65.55 18.02, 77.1 0.75 M43.12 41.1 C52.42 30.68, 60.82 22.43, 81.2 -1.49 M50.09 42.87 C55.68 29.39, 67.89 25.17, 81.16 -3.67 M51.21 39.47 C58.86 27.58, 67.22 18, 86.6 -0.15 M58.97 40.95 C67.17 28.06, 74.94 16.16, 88.85 2.83 M53.99 39.17 C68.66 23.28, 79.19 11.29, 88.3 -1.01 M60.79 42.73 C69.82 27.01, 77.41 16.04, 96.16 0.14 M61.17 39.96 C73.54 24.77, 85.97 12.8, 94.28 -2 M66.23 42.79 C73.25 31.73, 79.03 21.99, 99.65 1.85 M64.96 41.61 C80.16 25.18, 92.3 10.94, 101.59 -1.68 M69.79 37.4 C82.12 32.04, 88.85 24.07, 102.42 -3.52 M70.88 38.18 C81.73 28.42, 93.81 15.78, 107.29 -0.93 M77.26 41.78 C86.3 27.75, 93.28 19.62, 109.64 -3.24 M78.2 40.47 C89.89 26.17, 103.45 11.38, 112.76 -0.51 M79.74 39.33 C90.65 30.19, 95.59 19.76, 117.87 -2.39 M82.77 38.37 C94.64 26.88, 105.96 12.29, 117.95 2.03 M89.14 38.91 C95.48 30.69, 106.88 13.67, 121.85 -2.37 M85.43 39.23 C99.81 26.11, 113 11.81, 121.05 -1.03 M95.51 40.83 C105.96 28.77, 119.89 11.38, 129.28 -3.35 M90.2 38.99 C106.62 25.1, 119.22 10.41, 126.12 -0.95 M97.84 42.33 C104.87 33.19, 110.15 23.71, 134.17 1.65 M95.95 40.8 C109.05 26.93, 119.49 16.59, 133.3 -1.38 M102.81 43.11 C111.47 31.43, 124.71 13.47, 136.33 4.11 M104.05 41.67 C109.09 31.96, 115.66 22.8, 139.23 -0.01 M106.18 43.29 C117.98 24.73, 133.98 7.03, 139.37 1.16 M108.59 39.55 C116.05 30.02, 124.75 20.68, 143.88 1.79 M112.25 36.73 C128.56 29.23, 139.8 12.71, 144.91 -1.6 M112.78 39.74 C122.27 32, 129.16 24.18, 145.64 2.9 M115.88 40.18 C127.14 25.11, 139.11 14.85, 149.89 7.89 M119.78 41.26 C124.9 33.03, 135.26 20.79, 147.52 9.52 M121.98 38.64 C131.86 35.16, 139 20.76, 145.24 12.57 M125.1 39.21 C131.09 29.47, 141.7 19.89, 148.69 12.8 M127.52 38.51 C134.89 30.61, 138.76 28.06, 144.18 23.89 M131.47 39.15 C135.05 35.15, 138.29 30.36, 145.65 19.5 M133.19 37.25 C141.62 33.28, 142.82 33.24, 143.18 27.82 M133.39 39.59 C137.76 35.72, 139.66 31.73, 145.78 27.25 M140.43 41.36 C143.56 37.85, 145.18 33.28, 144.89 31.67 M139.76 38.86 C142.49 37.43, 143.16 37.39, 146.74 31.92" stroke="#ffc9c9" stroke-width="0.5" fill="none"></path><path d="M3.83 3.4 C33.36 -4.58, 71.95 -4.96, 147.25 3.02 M0.8 -0.56 C32.16 -0.31, 66.63 3.21, 143.61 -0.35 M141.67 1.91 C145.46 12.16, 145.73 27, 143.65 37.73 M145.92 -1.81 C146.64 9.42, 143.66 14.01, 144.79 36.11 M146.42 35.43 C98.56 37.37, 53.89 34.1, 2.63 34.35 M144.42 37.87 C112.12 35.78, 79.45 35.33, -1.46 39.09 M-1.08 37.93 C-0.34 27.97, 3.01 10.88, -3.54 -2.33 M1.88 38.84 C-0.95 27.3, -0.3 15.96, -0.37 1.28" stroke="#e03131" stroke-width="1" fill="none"></path></g><g transform="translate(504.8871014771862 127.17128731846037) rotate(0 56.806640625 16.100000000000023)"><text x="0" y="25.760546874999996" font-family="Helvetica, Segoe UI Emoji" font-size="28px" fill="#1e1e1e" text-anchor="start" style="white-space: pre;" direction="ltr" dominant-baseline="alphabetic">column 1</text></g><g transform="translate(698.5640982717982 201.97144533617666) rotate(0 81.2177734375 16.100000000000023)"><text x="0" y="25.760546874999996" font-family="Helvetica, Segoe UI Emoji" font-size="28px" fill="#1e1e1e" text-anchor="start" style="white-space: pre;" direction="ltr" dominant-baseline="alphabetic">Values buffer</text></g><g transform="translate(698.5640982717982 127.17128731846037) rotate(0 129.4521484375 16.100000000000023)"><text x="0" y="25.760546874999996" font-family="Helvetica, Segoe UI Emoji" font-size="28px" fill="#1e1e1e" text-anchor="start" style="white-space: pre;" direction="ltr" dominant-baseline="alphabetic">Validity bitmap buffer</text></g><g transform="translate(1029.4839503901771 128.17128731846037) rotate(0 30.967987060546875 17.5)"><text x="0" y="24.528" font-family="Virgil, Segoe UI Emoji" font-size="28px" fill="#1971c2" text-anchor="start" style="white-space: pre;" direction="ltr" dominant-baseline="alphabetic">None</text></g><g stroke-linecap="round"><g transform="translate(330.11148358197556 194.26030344996343) rotate(0 94.97458390916279 69.49081646349646)"><path d="M-3.25 -0.96 C53.36 39.53, 100.92 79.89, 191.25 135.95" stroke="#e03131" stroke-width="2.5" fill="none" stroke-dasharray="8 10"></path></g><g transform="translate(330.11148358197556 194.26030344996343) rotate(0 94.97458390916279 69.49081646349646)"><path d="M164.99 129.65 C174.27 131.55, 178.48 134.65, 192.03 134.15" stroke="#e03131" stroke-width="2.5" fill="none"></path></g><g transform="translate(330.11148358197556 194.26030344996343) rotate(0 94.97458390916279 69.49081646349646)"><path d="M174.36 115.35 C181.13 121.06, 182.79 128.04, 192.03 134.15" stroke="#e03131" stroke-width="2.5" fill="none"></path></g></g><mask></mask><g stroke-linecap="round" transform="translate(488.39020288552865 335.47576794681913) rotate(0 72.28797794313596 18.9832559125648)"><path d="M0 0 C0 0, 0 0, 0 0 M0 0 C0 0, 0 0, 0 0 M-1.3 7.42 C3.01 3.57, 3.69 0.59, 4.07 1.72 M0.46 5.95 C1.81 3.96, 2.78 2.77, 4.67 -0.4 M-0.07 12.34 C3.17 6.47, 6.68 3.07, 10.47 1.09 M-0.69 11.59 C2.74 8.73, 9.04 3.86, 10.07 -0.81 M-2.15 17.21 C2.52 17.21, 6.11 12.89, 15.48 -2.1 M1.35 16.86 C5.51 11.49, 9.02 6.48, 13.79 1.98 M-3.42 25.56 C9.25 13.87, 15.91 11.89, 18.02 1.78 M1.76 23.06 C7.15 15.49, 17.33 6.67, 19.78 -0.94 M-1.06 32.62 C4.69 20.63, 10.53 17.65, 22.29 3.7 M-1.42 29.41 C5.52 22.83, 11.51 14.19, 27.27 -0.98 M2.43 40.49 C11.18 23.92, 26.82 6.71, 34.57 -2.25 M0.96 36.06 C6 28.67, 15.22 17.09, 33.83 -1.93 M-0.05 37.44 C12.49 26.5, 23.67 10.04, 34.68 -1.26 M2.65 40.39 C14.93 28.08, 25.74 14.01, 35.65 -1.71 M8.63 37.71 C14.04 32.12, 24.39 18.3, 46.02 -0.59 M7.64 41.85 C17.01 30.06, 26.6 16.31, 42.36 -2.06 M11.91 39.76 C28 22.26, 38.63 8.11, 51.03 3.71 M13.17 41.42 C25.35 25.96, 36.64 10.15, 49.49 1.92 M18.17 42.21 C30.69 32.62, 38.88 18.56, 53.21 0.01 M17.22 38.62 C25.26 29.54, 35.28 21.31, 53.23 0.03 M21.61 40.14 C32.86 28.6, 44.37 14.22, 56.61 2.42 M24.21 40.93 C30.05 31.66, 40.45 20.42, 58.92 1.48 M32.21 38.33 C36.51 25.33, 47.98 17.97, 63.85 -0.04 M27.94 38.19 C39.04 28.57, 49.46 18.4, 63.84 1.13 M31.27 36.48 C45.93 29.14, 51 17.18, 71.58 -2.16 M35.93 40.95 C40.65 31.07, 48.62 22.92, 69.63 1.99 M41.39 42.51 C56.11 20.5, 69.32 7.4, 76.52 -1.26 M40.26 38.84 C53.93 22.11, 69.44 7.28, 73.16 1.47 M41.98 41.78 C55.61 24.55, 65.39 19.69, 78.95 4.03 M46.04 38.96 C52.05 30.56, 58.96 19.35, 78.89 1.88 M47.23 42.33 C61.51 27.29, 74.66 9.5, 88.69 3.01 M50.18 40.26 C58.99 29.67, 67.67 19.34, 85.74 0.72 M53.68 36.17 C65.69 27.99, 82.07 9.85, 88.62 -1.81 M53.84 39.89 C65.66 28.16, 75.77 18.16, 91.5 1.06 M62.13 36.49 C74.55 24.24, 84.32 17.17, 96.68 2.51 M61.27 39.58 C66.81 28.93, 77.43 19.29, 95.67 -2.03 M65.22 38.93 C82.05 23.02, 91.89 7.03, 97.37 0.64 M64.18 40.07 C78.43 26.55, 87.92 15.62, 99.85 0.84 M69.36 42.81 C82.1 26.05, 98.32 12.34, 103.71 2.14 M72.65 39.39 C83.51 28.92, 92.13 14.29, 106.61 -0.23 M74.3 36.42 C89.16 25.9, 100.54 20.15, 112.83 2.82 M75.46 39.31 C90.89 23.86, 104.88 10.56, 111.88 -0.02 M79.07 42.23 C89.16 26.34, 95.52 20.94, 119.21 -1.34 M83.01 39.69 C93.82 25.13, 109.09 9.37, 115.14 0.87 M85.51 38.16 C96.52 32.32, 99.92 18.47, 121.53 -0.68 M87.66 40.84 C99.12 24.29, 112.7 11, 123.09 -1.32 M95.61 43.58 C103.62 27.12, 110.88 21.43, 129.43 1.69 M93.97 38.68 C103.89 22.63, 120.57 9.12, 125.34 1.15 M94.3 36.79 C108.24 29.62, 112.81 23.75, 128.87 3.83 M98.32 39.32 C105.97 28.72, 113.18 20.76, 132.56 -1.42 M104.21 40.56 C117.54 29.15, 123.4 8.98, 133.57 -1.75 M104.63 41.74 C114.94 25.45, 128.85 9.96, 136.91 2.24 M111.02 40.07 C115.56 31.2, 120.33 24.69, 143.11 1.16 M106.53 40.86 C118.14 26.87, 126.97 19.63, 142.9 -1.26 M114.97 40.23 C128.83 24.86, 133.87 11.09, 145.02 -0.77 M111.74 41.95 C121.75 30.54, 132.05 19.53, 146.45 1.93 M120.86 38.87 C127.27 29.73, 137.14 20.75, 144.19 11.58 M120.96 38.99 C126.61 30.46, 135.8 19.14, 145.11 7.99 M125.55 44.05 C134.38 28.65, 137.3 24.96, 145.49 14.21 M124.24 41.07 C132.53 29.32, 140.86 18.82, 145.57 13.01 M131.92 39.22 C132.06 38, 135.42 31.37, 150.07 21.62 M127.83 38.71 C132.58 36.61, 138.15 33.01, 144.86 19.74 M136.27 40.54 C141.34 34.55, 144.83 29.33, 147.82 25.15 M134.62 38.48 C139.3 36.16, 145.04 31.17, 147.68 25.02 M141.73 39.02 C144.57 36.57, 143.77 36.03, 147.89 30.98 M139.61 40.11 C143.1 37.58, 144.28 35.3, 146.81 32.93" stroke="#ffc9c9" stroke-width="0.5" fill="none"></path><path d="M-2.99 3.79 C40.77 -0.91, 75.13 0.84, 146.77 2.12 M-1.2 -1.51 C52.78 1.47, 107.82 1.43, 142.73 -0.61 M143.46 1.38 C145.27 10.4, 145.08 27.81, 144.76 37.83 M145.65 0.56 C146.2 14.04, 144.46 30.5, 144.4 36.72 M141.17 40.29 C98.03 38.41, 56.76 42.37, -0.76 41.21 M143.59 38.29 C109.14 40.05, 70.71 41.34, 1.04 38.08 M-1.98 36.44 C-3.16 21.63, 3.95 8.35, 3.52 -3.02 M-1.87 39.57 C0.52 29.26, -0.05 19.34, -1.6 0.7" stroke="#e03131" stroke-width="1" fill="none"></path></g><g transform="translate(504.9038339425415 339.0397064934634) rotate(0 56.806640625 16.100000000000023)"><text x="0" y="25.760546874999996" font-family="Helvetica, Segoe UI Emoji" font-size="28px" fill="#1e1e1e" text-anchor="start" style="white-space: pre;" direction="ltr" dominant-baseline="alphabetic">column 2</text></g><g transform="translate(692.420210434439 438.6133724195099) rotate(0 81.2177734375 16.100000000000023)"><text x="0" y="25.760546874999996" font-family="Helvetica, Segoe UI Emoji" font-size="28px" fill="#1e1e1e" text-anchor="start" style="white-space: pre;" direction="ltr" dominant-baseline="alphabetic">Values buffer</text></g><g transform="translate(692.420210434439 335.00755125516844) rotate(0 129.4521484375 16.100000000000023)"><text x="0" y="25.760546874999996" font-family="Helvetica, Segoe UI Emoji" font-size="28px" fill="#1e1e1e" text-anchor="start" style="white-space: pre;" direction="ltr" dominant-baseline="alphabetic">Validity bitmap buffer</text></g><g stroke-linecap="round" transform="translate(1029.4839503901771 323.4085388796075) rotate(0 99.54516044630918 35.322987763148376)"><path d="M0.09 -1.67 L197.26 -0.41 L200.62 68.75 L-0.36 68.97" stroke="none" stroke-width="0" fill="#a5d8ff"></path><path d="M0 0 C75.46 -0.61, 149.89 2.33, 199.09 0 M0 0 C42.03 -1.26, 82.84 -1.18, 199.09 0 M199.09 0 C200.64 15.63, 200.41 31.15, 199.09 70.65 M199.09 0 C197.92 14.71, 198.64 27.49, 199.09 70.65 M199.09 70.65 C125.68 70.77, 55.61 70.7, 0 70.65 M199.09 70.65 C134.46 68.28, 69.49 69.75, 0 70.65 M0 70.65 C-1.05 48.21, -0.9 26.12, 0 0 M0 70.65 C-0.88 53.28, -0.56 36.26, 0 0" stroke="#1e1e1e" stroke-width="2" fill="none"></path></g><g transform="translate(1059.4481709798165 342.2486925217704) rotate(0 60.224609375 16.100000000000023)"><text x="0" y="25.760546874999996" font-family="Helvetica, Segoe UI Emoji" font-size="28px" fill="#1e1e1e" text-anchor="start" style="white-space: pre;" direction="ltr" dominant-baseline="alphabetic">00010111</text></g><g stroke-linecap="round"><g transform="translate(421.30928865138617 12.369004707047907) rotate(0 0 22.213424812065796)"><path d="M0.15 -1.8 C-1.91 18.86, -0.19 35.07, -1.05 45.05 M0.05 0.85 C-0.72 11.45, 1.09 21.78, -0.43 43.78" stroke="#1e1e1e" stroke-width="2" fill="none"></path></g></g><mask></mask><g stroke-linecap="round"><g transform="translate(115.68403594718188 120.2615330070023) rotate(0 179.60382054399417 1.3391192884345173)"><path d="M1.45 0.22 C78.59 -0.37, 157.65 2.9, 359.38 4.67" stroke="#e03131" stroke-width="2.5" fill="none" stroke-dasharray="8 10"></path></g><g transform="translate(115.68403594718188 120.2615330070023) rotate(0 179.60382054399417 1.3391192884345173)"><path d="M336.93 13.1 C340.93 9.41, 346.35 9.72, 359.52 6.24" stroke="#e03131" stroke-width="2.5" fill="none"></path></g><g transform="translate(115.68403594718188 120.2615330070023) rotate(0 179.60382054399417 1.3391192884345173)"><path d="M337.14 -4 C340.96 -3.94, 346.34 0.11, 359.52 6.24" stroke="#e03131" stroke-width="2.5" fill="none"></path></g></g><mask></mask><g stroke-linecap="round" transform="translate(1029.4839503901771 187.97144533617666) rotate(0 84.76239767297238 34.28585676716284)"><path d="M-0.91 -1.44 L169.02 1 L170.35 70.38 L-0.17 70.29" stroke="none" stroke-width="0" fill="#a5d8ff"></path><path d="M0 0 C39.09 -0.76, 77.9 -0.57, 169.52 0 M0 0 C54.1 -1.03, 106.73 -0.74, 169.52 0 M169.52 0 C169.16 13.76, 169.21 31.89, 169.52 68.57 M169.52 0 C169.8 26.37, 169.95 50.24, 169.52 68.57 M169.52 68.57 C116.06 68.06, 62.92 69.38, 0 68.57 M169.52 68.57 C119.95 69.34, 69.74 69.62, 0 68.57 M0 68.57 C1.64 44.25, -1.25 15.51, 0 0 M0 68.57 C0.23 40.19, 1.46 13.84, 0 0" stroke="#1e1e1e" stroke-width="2" fill="none"></path></g><g transform="translate(1059.4481709798165 206.15730210333936) rotate(0 54.4892578125 16.100000000000023)"><text x="0" y="25.760546874999996" font-family="Helvetica, Segoe UI Emoji" font-size="28px" fill="#1e1e1e" text-anchor="start" style="white-space: pre;" direction="ltr" dominant-baseline="alphabetic">1 3 9 9 2</text></g><g stroke-linecap="round" transform="translate(1029.4839503901771 424.5685627742207) rotate(0 149.25458517297238 34.28585676716284)"><path d="M-1.57 0.45 L297.74 -1.99 L299.11 67.36 L-0.76 69.24" stroke="none" stroke-width="0" fill="#a5d8ff"></path><path d="M0 0 C103.5 -0.39, 203.83 0.24, 298.51 0 M0 0 C93.55 -0.67, 187.57 -0.28, 298.51 0 M298.51 0 C300.62 15.78, 297.57 31.36, 298.51 68.57 M298.51 0 C298.02 24.51, 298.33 51.41, 298.51 68.57 M298.51 68.57 C229.41 66.03, 158.95 66.16, 0 68.57 M298.51 68.57 C225.71 69.61, 152.93 70.11, 0 68.57 M0 68.57 C-0.52 41.97, 1.74 15.06, 0 0 M0 68.57 C0.64 44.86, 1.1 19.31, 0 0" stroke="#1e1e1e" stroke-width="2" fill="none"></path></g><g transform="translate(1059.4481709798165 442.75441954138364) rotate(0 120.640625 16.100000000000023)"><text x="0" y="25.760546874999996" font-family="Helvetica, Segoe UI Emoji" font-size="28px" fill="#1e1e1e" text-anchor="start" style="white-space: pre;" direction="ltr" dominant-baseline="alphabetic">1.2  3.4   9.0  _  2.9</text></g></svg>