<svg version="1.1" xmlns="http://www.w3.org/2000/svg" viewBox="0 0 1543.8254002417002 1214.2513084672646" width="1543.8254002417002" height="1214.2513084672646">
  <!-- svg-source:excalidraw -->
  
  <defs>
    <style class="style-fonts">
      @font-face {
        font-family: "Virgil";
        src: url("https://excalidraw.com/Virgil.woff2");
      }
      @font-face {
        font-family: "Cascadia";
        src: url("https://excalidraw.com/Cascadia.woff2");
      }
      @font-face {
        font-family: "Assistant";
        src: url("https://excalidraw.com/Assistant-Regular.woff2");
      }
    </style>
    
  </defs>
  <rect x="0" y="0" width="1543.8254002417002" height="1214.2513084672646" fill="#ffffff"></rect><g stroke-linecap="round" transform="translate(10 10) rotate(0 761.9127001208501 29.721659908090714)"><path d="M3.91 1.78 L1524.84 -1.13 L1523.32 63.15 L-1.89 60.67" stroke="none" stroke-width="0" fill="#b2f2bb"></path><path d="M-0.16 0.21 C429.21 0.26, 857.98 -2.33, 1523.56 -0.12 M-0.76 0.32 C515.43 2.99, 1030.78 3.42, 1523.32 0.75 M1525.91 2.76 C1526.69 21.39, 1527.92 37.41, 1526.31 62.96 M1524.12 -1.81 C1521.81 18.58, 1525.35 39.29, 1523.97 57.66 M1523.59 60.64 C970.95 51.65, 417.58 51.14, -0.39 58.69 M1523.91 60.17 C1210.22 51.38, 897.28 51.49, 0.17 59.53 M1.55 56.47 C1.97 40.15, 1.63 30.73, 1.15 -2.75 M0.62 60.92 C-0.71 39.39, 0.91 23.64, 0.88 -0.01" stroke="#1e1e1e" stroke-width="2" fill="none"></path></g><g transform="translate(31.04725587260782 22.206456480041197) rotate(0 184.419921875 16.09999999999991)"><text x="0" y="25.760546874999996" font-family="Helvetica, Segoe UI Emoji" font-size="28px" fill="#1e1e1e" text-anchor="start" style="white-space: pre;" direction="ltr" dominant-baseline="alphabetic">sparse union (int, float, string)</text></g><g transform="translate(644.2892167345492 21.474951782864082) rotate(0 236.5712890625 16.09999999999991)"><text x="0" y="25.760546874999996" font-family="Helvetica, Segoe UI Emoji" font-size="28px" fill="#1e1e1e" text-anchor="start" style="white-space: pre;" direction="ltr" dominant-baseline="alphabetic">Physical layout - Sparse Union Layout</text></g><g stroke-linecap="round" transform="translate(54.507923655723516 138.14836494904375) rotate(0 115.17752649052022 234.31552221551192)"><path d="M1.3 1.13 L230.78 0.21 L229.74 468.24 L0.94 469.41" stroke="none" stroke-width="0" fill="#ffc9c9"></path><path d="M0 0 C86.16 1.57, 173.54 2.21, 230.36 0 M0 0 C63.49 -0.57, 126.88 -0.12, 230.36 0 M230.36 0 C233.22 111.31, 232.81 222.28, 230.36 468.63 M230.36 0 C231.06 160.76, 231.68 321.11, 230.36 468.63 M230.36 468.63 C168.57 467.59, 108.82 470.6, 0 468.63 M230.36 468.63 C165.06 467.28, 98.19 466.76, 0 468.63 M0 468.63 C-0.21 292.66, 0.23 117.17, 0 0 M0 468.63 C1.05 372.62, 0.96 275.98, 0 0" stroke="#1e1e1e" stroke-width="2" fill="none"></path></g><g stroke-linecap="round"><g transform="translate(54.86217207957657 199.0093235595814) rotate(0 114.22118285940815 0)"><path d="M0 0 C49.41 0.67, 97.12 -1.48, 228.44 0 M0 0 C76.92 0.19, 154.93 0.31, 228.44 0" stroke="#1e1e1e" stroke-width="2" fill="none"></path></g></g><mask></mask><g transform="translate(112.27231065045476 151.72176431718253) rotate(0 56.806640625 16.09999999999991)"><text x="0" y="25.760546874999996" font-family="Helvetica, Segoe UI Emoji" font-size="28px" fill="#1e1e1e" text-anchor="start" style="white-space: pre;" direction="ltr" dominant-baseline="alphabetic">column 9</text></g><g stroke-linecap="round" transform="translate(421.0604756576631 126.84424969478641) rotate(0 72.28797794313596 18.9832559125648)"><path d="M0 0 C0 0, 0 0, 0 0 M0 0 C0 0, 0 0, 0 0 M-0.96 5.99 C0.02 2.96, 4.24 1.41, 3.69 1.54 M-0.2 5.99 C1.52 5.19, 2.08 3.53, 5.58 0.14 M-1.29 12.61 C3.62 9.73, 3.84 8.29, 9.86 -0.79 M0.36 10.74 C2.36 9.35, 4.86 5.75, 11.24 -0.22 M3.27 15.65 C3.24 11.59, 10.15 6.77, 13.8 -1.19 M-0.51 16.98 C2.1 15.45, 8.19 10.26, 16.73 0.53 M3.62 26.21 C8.18 22.08, 12.6 16.02, 19.42 -1.72 M-1.73 24.19 C6.86 16.18, 14.67 4.76, 19.75 -0.78 M-1.11 27.27 C11.91 18.54, 13.9 12.25, 25.2 -1.06 M0.46 32.48 C7.28 22.37, 16.18 14.4, 25.88 -1.38 M-3.49 40.25 C10.99 25.89, 25.65 10.07, 31.17 3.43 M1.57 35.81 C6.69 30.99, 13.66 22.8, 30.62 -1.37 M0.62 36.19 C8.96 28.6, 18.45 20.93, 36.22 -1.23 M3.46 36.71 C16.46 25.87, 25.93 11.91, 34.91 -0.34 M10.31 39.34 C21.57 26.4, 34.17 12.38, 46.13 -0.39 M10.55 38.03 C17.95 26.34, 27.85 18.2, 43.01 -2.01 M10.83 34.03 C30.27 22.01, 42.08 9.93, 47.03 -0.52 M14.88 37.95 C28.74 24.32, 39.85 11.78, 45.87 1.16 M19.15 35.98 C26.4 29.82, 42.69 15.35, 53.42 -1.95 M19.5 37.42 C32.04 22.9, 45.05 9.41, 55.02 -0.69 M26.56 41.05 C32.36 31.58, 40.38 20.33, 57.66 0.38 M27.01 36.99 C31.55 28.25, 39.12 20.59, 57.9 0.59 M28.25 40.49 C43.71 29.68, 48.74 13.79, 61.99 -3.87 M30.98 40.21 C37.84 31.71, 44.96 23.41, 63.8 -1.5 M39.27 40.15 C45.7 20.92, 63.46 6.62, 68.02 -1.11 M37.76 37.01 C44.76 26.76, 53.81 16.97, 67.18 -0.68 M44.03 35.79 C55.65 23.43, 63.76 12.84, 76.71 1.35 M41.92 39.04 C52.24 26.56, 63.68 13.55, 73.58 1.43 M44.32 40.3 C60.11 27.8, 69.68 13.13, 77.9 -1.42 M48.09 39.11 C52.38 30.07, 61.02 21.19, 78.96 -1.29 M48.78 34.95 C61.93 24.11, 79.18 6.96, 82.29 -0.69 M50.32 38.49 C61.09 27.82, 70.71 16.36, 83.62 -0.1 M56.93 36.64 C61.2 25.1, 70.64 22.69, 86.96 1.13 M58.02 38.34 C70.44 24.83, 82.74 9.63, 91.54 0.01 M64.66 41.15 C71.82 24.33, 82.39 16.04, 99.34 1.76 M63.24 39.08 C74.76 23.81, 84.73 11.67, 96.26 -0.36 M64.21 34.39 C74.21 25.73, 84.75 19.68, 102.75 -1.66 M66.65 39.7 C75.96 28.96, 82.35 22.07, 100.29 0.43 M73.7 39.68 C81.94 21.9, 97.28 15.25, 104.34 -1.42 M72.81 37.25 C82.88 24.66, 97.52 10.33, 104.92 0.34 M81.12 40.94 C89.4 23.88, 102.61 11.33, 108.66 -3.86 M80.13 38.11 C87.16 28.33, 98.38 14.79, 109.66 1.11 M81.82 38 C98.21 22.5, 103.26 9.69, 116.96 -1.49 M84.2 37.42 C94.03 25.51, 106.82 11.17, 117.4 0.35 M86.52 33.78 C103.23 27.5, 110.77 12.6, 119.99 -1.41 M87.67 38.43 C98.79 28.14, 106.26 19.54, 121.13 -0.86 M94.8 41.64 C103.27 26.58, 115.52 12.31, 130.76 2.16 M95.66 39.9 C103.63 25.69, 113.17 14.22, 126.54 1.72 M103.12 40.52 C112.26 21.01, 125.63 8.92, 135.91 -0.12 M101.56 39.45 C110.03 28.21, 120.17 13.89, 133.28 -0.47 M102.31 38.29 C115.78 22.88, 123.09 14.81, 141.18 -1.46 M106.5 36.97 C113.3 23.26, 127.08 13.59, 138.28 -1.32 M108.89 35.67 C123.71 22.59, 133.63 12.78, 139.44 0.31 M108.49 38.68 C116.29 30.94, 122.71 23.3, 141.71 -0.76 M117.88 37.77 C123.37 28.92, 132.37 12.68, 145.55 5.02 M117.1 36.83 C123.76 24.63, 136.81 14.14, 143.64 1.69 M119.59 41.59 C126.16 26.2, 135.53 18.78, 144.97 8.11 M120.15 37.28 C130.89 29.55, 137.34 19.15, 146.59 8.98 M122.93 39.99 C130.62 32.72, 131.27 32.43, 141.84 12.89 M124.89 39.63 C131.9 30.75, 136.73 25.42, 145.44 14.9 M128.93 37.01 C134.09 29.68, 138.09 29.23, 141.85 20.31 M129.38 36.61 C137.15 33.83, 141.45 24.14, 144.22 22.02 M138 36.05 C141.22 32.43, 143.27 31.17, 146.32 29.49 M136.45 37.61 C139.24 34.18, 143.66 29.01, 144.82 27.42 M142.06 39.43 C141.68 37.85, 143.46 36.59, 145.9 34.84 M141.33 38.58 C142.44 37.75, 143.7 36.2, 146.1 33.5" stroke="#ffc9c9" stroke-width="0.5" fill="none"></path><path d="M2.09 2.76 C49.49 0.19, 98.51 -3.44, 147.06 3.51 M0.29 -1.81 C46.57 1.41, 98.24 2.33, 144.73 -1.78 M143.99 2.98 C144.09 13.05, 142.03 25.55, 143.61 36.07 M144.79 1.81 C144.03 8.66, 145.51 16.75, 145 38.17 M146.13 34.99 C107.39 36.04, 68.12 42.62, 1.15 35.22 M145.19 39.44 C98.45 34.04, 55.42 36.64, 0.88 37.96 M-1.13 37.46 C3.37 20.97, 0.89 8.03, -3.37 2.23 M-1.77 38.39 C0.41 25.51, 1.35 16.15, 1.23 0.81" stroke="#e03131" stroke-width="1" fill="none"></path></g><g transform="translate(439.4095459156033 130.42595450807858) rotate(0 56.806640625 16.09999999999991)"><text x="0" y="25.760546874999996" font-family="Helvetica, Segoe UI Emoji" font-size="28px" fill="#1e1e1e" text-anchor="start" style="white-space: pre;" direction="ltr" dominant-baseline="alphabetic">column 9</text></g><g transform="translate(606.0676128467153 129.7275056073522) rotate(0 76.8017578125 16.09999999999991)"><text x="0" y="25.760546874999996" font-family="Helvetica, Segoe UI Emoji" font-size="28px" fill="#1e1e1e" text-anchor="start" style="white-space: pre;" direction="ltr" dominant-baseline="alphabetic">Types buffer</text></g><g stroke-linecap="round"><g transform="translate(412.87960115138594 12.369004707048589) rotate(0 0 22.21342481206557)"><path d="M0.66 -0.77 C-1.54 11.52, -1.53 20.9, -1.21 46.4 M0.63 0.46 C-0.58 12.55, 0.78 25.18, -0.18 43.7" stroke="#1e1e1e" stroke-width="2" fill="none"></path></g></g><mask></mask><g stroke-linecap="round" transform="translate(897.5769910715576 112.15688321518974) rotate(0 145.55932231892507 35.6951908648889)"><path d="M1.96 0.89 L291.63 -0.57 L290.86 73.24 L-0.95 72" stroke="none" stroke-width="0" fill="#a5d8ff"></path><path d="M0 0 C111.56 1.06, 224.48 -0.33, 291.12 0 M0 0 C69.77 -0.36, 139.89 0.66, 291.12 0 M291.12 0 C290.59 16.66, 289.57 33.05, 291.12 71.39 M291.12 0 C290.31 19, 290.89 40.29, 291.12 71.39 M291.12 71.39 C207.3 73.12, 121.95 72.34, 0 71.39 M291.12 71.39 C208.85 72.56, 127.08 72.5, 0 71.39 M0 71.39 C-0.03 42.79, -1.75 17.39, 0 0 M0 71.39 C0.6 45.18, 0.97 18.05, 0 0" stroke="#1e1e1e" stroke-width="2" fill="none"></path></g><g transform="translate(938.0542151806192 130.74335879175032) rotate(0 101.1787109375 16.09999999999991)"><text x="0" y="25.760546874999996" font-family="Helvetica, Segoe UI Emoji" font-size="28px" fill="#1e1e1e" text-anchor="start" style="white-space: pre;" direction="ltr" dominant-baseline="alphabetic">0  0  1  2  1  0  2</text></g><g stroke-linecap="round"><g transform="translate(297.6218412846001 166.7681812707624) rotate(0 53.88220589296657 -10.819874948907454)"><path d="M0.09 -1.07 C17.98 -4.56, 90.69 -17.63, 108.52 -21.09" stroke="#e03131" stroke-width="1.5" fill="none" stroke-dasharray="8 9"></path></g><g transform="translate(297.6218412846001 166.7681812707624) rotate(0 53.88220589296657 -10.819874948907454)"><path d="M86.98 -8.38 C93.81 -12.22, 105.1 -19.77, 108.52 -21.09" stroke="#e03131" stroke-width="1.5" fill="none"></path></g><g transform="translate(297.6218412846001 166.7681812707624) rotate(0 53.88220589296657 -10.819874948907454)"><path d="M83.86 -25.2 C91.9 -22.32, 104.45 -23.17, 108.52 -21.09" stroke="#e03131" stroke-width="1.5" fill="none"></path></g></g><mask></mask><g stroke-linecap="round" transform="translate(381.2733309356016 544.0120597774503) rotate(0 133.384752834786 23.262219579720295)"><path d="M0 0 C0 0, 0 0, 0 0 M0 0 C0 0, 0 0, 0 0 M0.18 5.39 C1.03 4.49, 4.26 2.13, 4.44 1.23 M0.51 6.61 C1.33 4.15, 2.7 3.2, 5.07 0 M0.33 14.06 C6.43 5.83, 6.8 2.3, 12.54 -1.92 M1.43 10.77 C2.59 7.97, 4.79 6.68, 11.94 -0.36 M1.05 18.49 C8.79 14.3, 13.96 9.63, 17.82 4.09 M-0.98 17.71 C2.03 13.73, 6.73 9.81, 14.46 -1.48 M-1.28 25.05 C4.03 15.42, 13.49 10.65, 18.83 0.34 M-1.53 24.77 C6.64 19.5, 11.02 11.75, 21.61 1.62 M0.4 27.79 C4.67 25.01, 14.86 15.23, 28.73 0.09 M-1.56 30.36 C8.69 21.41, 14.11 15.54, 26.54 1.18 M-0.45 40.39 C4.36 26.88, 13.17 19.28, 32.07 -0.29 M-0.2 35.93 C8.52 24.79, 19.2 16.32, 30.86 -0.14 M0.88 44.15 C9.04 34.63, 16.15 26.9, 38.76 1.45 M0.6 41.3 C16.02 25.76, 28.2 8.38, 36.37 2.1 M-1.59 46.01 C11.61 27.35, 31.29 14.23, 44.08 0.69 M0.06 46.8 C13.45 33.13, 26.65 19.57, 42.96 1.42 M6.22 51.27 C14.21 35.02, 20.33 30.76, 50.19 1.22 M7.11 46.1 C19.08 31.65, 32.01 16.54, 47.94 -0.14 M11.3 44.16 C29.55 32.01, 42.51 13.66, 50.09 2.42 M11.21 46.92 C25.36 33.37, 34.18 19.27, 51.94 -0.68 M16.86 51.28 C26.47 36.31, 44.16 23.53, 57.18 -1.41 M15.45 46.57 C28.88 38.29, 38.8 25.28, 58.31 0.97 M21.71 46.09 C38.82 34.49, 44.59 15.65, 65.21 -1.86 M21.87 48.62 C36.17 33.23, 45.33 20.67, 62.91 0.57 M25.79 44.2 C40.04 34.57, 49.73 23.48, 69.78 -1.13 M26.85 46.23 C42.8 31.3, 56.83 13.8, 69.6 -0.1 M30.16 50.6 C40.69 37.36, 56.33 24.94, 76.4 -0.79 M34.92 45.6 C45.79 36.85, 54.87 22.55, 76.01 -1.92 M34.49 50.91 C47.43 30.65, 59.18 21.17, 81.9 -2.52 M38.22 49.26 C46.47 37.25, 58.06 26.23, 81 -0.97 M45.07 46.63 C52.79 35.65, 58.67 22.45, 82.51 3.13 M42.3 47.5 C53.49 36.68, 62.82 26.19, 86.46 -1.27 M48.31 46.4 C66.7 32.41, 77.89 10.66, 87.31 3.99 M49.53 45.76 C65.43 29.4, 81.4 8.74, 88.75 0.69 M50.73 45.23 C64.34 28.43, 78.48 13.89, 94.27 1.52 M52.99 47.92 C68.09 33.23, 84.89 13.52, 96.53 -0.7 M60.47 47.78 C71.65 35.55, 80.93 16.85, 103.69 2.07 M59.81 47.79 C69.92 34.37, 78.87 23.35, 102.17 -0.83 M63.29 47.59 C76.83 39.38, 84.44 22.81, 110.27 -3.88 M65.06 48.37 C77.22 36.55, 84.64 26.74, 107.57 -1.47 M68.07 50.31 C76.81 36.75, 90.8 24.05, 108.57 -2.46 M71.15 49.33 C84.23 31.31, 95.9 18.39, 111.62 0.65 M74.81 45 C87.51 26.34, 107.86 15.35, 116.35 -0.44 M73.64 46.3 C84.73 36.38, 96.68 24, 115.33 1.87 M80.1 51.35 C92.46 38.16, 99.68 25.06, 119.36 2.31 M80.69 46.3 C98.09 30.4, 112.25 8.72, 120.54 -0.71 M85.18 50.92 C100.44 36.19, 108.62 18.16, 128.15 0.32 M86.9 47.1 C103.68 31.02, 118.51 12.73, 128.58 -1.6 M93.39 50.4 C102.89 31.46, 119.69 13.16, 129.35 2.46 M92.66 48.58 C109.57 27.53, 122.07 8.25, 133.44 1.16 M93.54 45.63 C110.09 28.88, 127.49 11.87, 139.24 -0.73 M97.43 48.87 C103.41 39.09, 113.31 29.82, 137.19 1.43 M100.67 49.07 C114.05 36.15, 118.55 28.44, 139.71 -1.84 M102.34 47.96 C115.59 31.61, 124.36 17.33, 143.85 0.29 M108.86 45.32 C115.31 41.12, 122.7 24.82, 147.74 -1.33 M104.86 47.36 C119.09 32.35, 132.43 20.87, 146.76 1.45 M114.54 51.11 C124.85 32.85, 143.95 13.07, 151.46 3.71 M112.06 46.18 C121.25 38.89, 132.27 25.05, 154.42 -1.37 M114.03 50.55 C129.25 30.8, 142.4 14.16, 155.6 2.87 M115.91 48.54 C124.92 35.34, 135.62 29, 157.93 -1.11 M119.48 46.39 C135.01 32.74, 145.2 20.79, 165.52 -0.44 M123.23 46.91 C136.61 29.67, 149.95 13.93, 164.82 -1.93 M124.45 51.25 C141.47 38.86, 147.96 24.57, 168.69 2.37 M127.01 49.54 C139.93 33.68, 154.16 18.82, 170.44 0.11 M135.84 50.9 C149.57 26.07, 164.52 6.34, 174.69 -3.75 M132.31 47.76 C148.99 30.77, 163.99 14.94, 175.81 0.45 M139.42 51.48 C143.35 38.35, 153.46 26.53, 180.72 -2.2 M139.65 47.45 C149.28 37.03, 158.27 27.16, 179.04 1.4 M147.83 50.76 C154.26 33.51, 165.37 29.41, 187.61 2.47 M142.84 48.29 C154.94 34.57, 164.49 20.48, 185.18 -0.47 M150.09 45.41 C161.19 35.18, 169.94 29.61, 189.29 -0.11 M148.4 47.28 C158.97 36.93, 165.92 24.8, 189.59 1.01 M151.57 50.21 C166.32 33.98, 182.54 12.35, 196.83 1.03 M153.4 45.99 C169.53 31.57, 182.35 16.98, 195.82 1.02 M163.51 49.36 C176.21 29.52, 189.43 11.88, 203.89 -2.48 M160.87 46 C173.65 33.19, 187.08 20.02, 202.98 -0.9 M163.02 47.64 C177.58 33.77, 190 19.42, 210.76 -3.15 M165.65 48.26 C179.6 31.9, 193.44 16.4, 207.65 -1.44 M170.58 45.75 C182.57 25.32, 202.7 10.9, 213.85 -2.33 M169.76 48.49 C179.17 37.12, 186.55 28.23, 211.19 1.8 M178.03 43.52 C182.8 36.99, 195.65 21.65, 213.69 1 M176.3 48.49 C193.02 30.14, 208.91 11.04, 217.68 -2.26 M178.09 47.15 C191.33 33.88, 203.73 12.35, 220.41 1.48 M180.8 47.59 C193.36 32.1, 207.74 14.52, 221.24 1.15 M188.34 48.47 C204.7 31.03, 217.53 14.82, 229.77 -1.36 M185.13 45.97 C203.64 26.43, 219.66 9.66, 227.96 0.07 M192.71 48.23 C203.03 35.27, 210.33 23.35, 236.66 -3.83 M192.82 48.06 C205.05 30.63, 222.16 11.79, 231.22 -0.86 M197.53 43.25 C205.46 31.04, 218.39 20.68, 234.4 -2.14 M198.98 45.93 C211.54 31.66, 220.34 18.91, 236.96 -0.24 M204.97 49.8 C215.01 34.16, 223.17 25.85, 247.57 3.13 M201.67 46.62 C216.39 35.33, 224.76 23.7, 242.29 -0.31 M204.43 51.48 C221.76 29.26, 235.14 10.17, 252.79 2.56 M207.1 48.31 C217.73 36.76, 225.58 24.46, 250.18 0.7 M213.28 50.79 C221.85 39.39, 234.21 28.25, 258.01 -2.15 M212.3 47.9 C223.48 38.94, 230.59 28.66, 254.66 0.67 M221.69 48.64 C232.76 27, 251.55 10.56, 260.07 1.07 M219.77 48.7 C228.11 34.27, 239.5 21.84, 260.2 0.97 M223.94 48.27 C232.83 31.47, 244.18 16.8, 268.68 -2.07 M222.71 48.49 C233.62 34.09, 247.75 19.13, 263.6 1.87 M231.9 46.6 C238.55 34.64, 247.09 25.76, 270.6 4.56 M228.36 46.92 C243.43 32.22, 259.05 12.62, 268.03 3.36 M235.09 45.4 C240.26 37.59, 252.77 25.13, 268.99 7.44 M235.94 48.9 C242.79 33.67, 256.31 23.4, 268.26 9.33 M238.14 50.61 C242.09 44.59, 249.15 36.5, 268.04 13.91 M239.96 47.95 C248.55 34.75, 260.24 20.67, 269.17 14.12 M244.79 43.5 C249.6 39.1, 261.99 26.46, 271.32 19.71 M244.13 45.59 C252.57 38.68, 259.32 29.51, 269.95 18.21 M247.39 44.03 C256.91 40.35, 263.53 38.19, 268.99 24.48 M248.72 46.72 C255.75 42.77, 261.48 33.64, 269.23 27.83 M258.93 50 C263.06 41.54, 263.53 33.79, 267.33 30.97 M256.46 46.96 C257.53 45.22, 263.73 38.79, 268.43 30.34 M261.76 45.7 C264.16 44.24, 264.88 42.25, 270.65 40.1 M260.18 47.93 C263.07 45.49, 266.26 40.73, 268.83 38.45" stroke="#ffc9c9" stroke-width="0.5" fill="none"></path><path d="M1.45 -1.94 C81.56 -0.28, 163.38 -3.2, 264.49 -1.57 M-0.75 -1.09 C73.76 5.4, 147.03 4.63, 267.79 0.89 M266 1.87 C268.42 11.97, 268.61 26.6, 268.17 49.83 M265.48 -1.55 C266.75 16.76, 264.65 28.89, 266.91 47.44 M268.17 47.33 C174.06 50.24, 86.06 49.15, 0.96 46.74 M265.74 45.63 C207.8 45.96, 151.55 44.14, 0.67 46 M1.09 48.6 C2.98 28.16, 0.31 10.14, 3.12 -2.79 M-1.25 47.74 C1.96 34.66, 1.63 22.02, 1.39 -1.51" stroke="#e03131" stroke-width="1" fill="none"></path></g><g transform="translate(412.81433377038763 551.1742793571711) rotate(0 91.8134765625 16.09999999999991)"><text x="0" y="25.760546874999996" font-family="Helvetica, Segoe UI Emoji" font-size="28px" fill="#1e1e1e" text-anchor="start" style="white-space: pre;" direction="ltr" dominant-baseline="alphabetic">children arrays</text></g><g stroke-linecap="round"><g transform="translate(500.57871427410123 179.00179699993168) rotate(0 4.362662492303741 174.551819724677)"><path d="M-0.55 -0.47 C-0.47 81.86, 2.87 165.16, 6.27 347.87" stroke="#e03131" stroke-width="1.5" fill="none" stroke-dasharray="8 9"></path></g><g transform="translate(500.57871427410123 179.00179699993168) rotate(0 4.362662492303741 174.551819724677)"><path d="M-3.19 324.21 C-2.1 329.06, 1.02 334.66, 4.39 346.92" stroke="#e03131" stroke-width="1.5" fill="none"></path></g><g transform="translate(500.57871427410123 179.00179699993168) rotate(0 4.362662492303741 174.551819724677)"><path d="M13.9 323.85 C10.92 328.91, 9.96 334.6, 4.39 346.92" stroke="#e03131" stroke-width="1.5" fill="none"></path></g></g><mask></mask><g stroke-linecap="round"><g transform="translate(652.1359066478801 533.9199337578611) rotate(0 58.51239598725073 -112.32944522301887)"><path d="M-2.35 -1.61 C43.81 -85.34, 85.37 -169.48, 114.79 -224.3" stroke="#1971c2" stroke-width="2.5" fill="none" stroke-dasharray="8 10"></path></g><g transform="translate(652.1359066478801 533.9199337578611) rotate(0 58.51239598725073 -112.32944522301887)"><path d="M110.02 -200.52 C112.28 -209.75, 112.12 -219.03, 113.41 -224.09" stroke="#1971c2" stroke-width="2.5" fill="none"></path></g><g transform="translate(652.1359066478801 533.9199337578611) rotate(0 58.51239598725073 -112.32944522301887)"><path d="M94.87 -208.45 C102.79 -214.68, 108.3 -220.99, 113.41 -224.09" stroke="#1971c2" stroke-width="2.5" fill="none"></path></g></g><mask></mask><g transform="translate(776.0090110553493 555.3770571328832) rotate(0 201.49609375 16.09999999999991)"><text x="0" y="25.760546874999996" font-family="Helvetica, Segoe UI Emoji" font-size="28px" fill="#1971c2" text-anchor="start" style="white-space: pre;" direction="ltr" dominant-baseline="alphabetic">Fixed-size Primitive child array 1</text></g><g stroke-linecap="round"><g transform="translate(661.5256375829409 567.0442453660244) rotate(0 49.999761460860555 1.826113181639812)"><path d="M-3.77 -1.89 C22.26 2.3, 53.68 2.41, 101.69 6.25" stroke="#1971c2" stroke-width="2.5" fill="none" stroke-dasharray="8 10"></path></g><g transform="translate(661.5256375829409 567.0442453660244) rotate(0 49.999761460860555 1.826113181639812)"><path d="M75.79 12.23 C82.32 11.78, 91.53 9.64, 102.54 7.55" stroke="#1971c2" stroke-width="2.5" fill="none"></path></g><g transform="translate(661.5256375829409 567.0442453660244) rotate(0 49.999761460860555 1.826113181639812)"><path d="M76.95 -4.83 C83.15 -1.02, 92.07 1.12, 102.54 7.55" stroke="#1971c2" stroke-width="2.5" fill="none"></path></g></g><mask></mask><g transform="translate(895.2877778163066 448.64460727159167) rotate(0 81.2177734375 16.09999999999991)"><text x="0" y="25.760546874999996" font-family="Helvetica, Segoe UI Emoji" font-size="28px" fill="#1e1e1e" text-anchor="start" style="white-space: pre;" direction="ltr" dominant-baseline="alphabetic">Values buffer</text></g><g transform="translate(895.2877778163066 352.44341098290533) rotate(0 129.4521484375 16.09999999999991)"><text x="0" y="25.760546874999996" font-family="Helvetica, Segoe UI Emoji" font-size="28px" fill="#1e1e1e" text-anchor="start" style="white-space: pre;" direction="ltr" dominant-baseline="alphabetic">Validity bitmap buffer</text></g><g stroke-linecap="round" transform="translate(1196.9504163887443 428.1987045504975) rotate(0 138.59952578974543 35.990728694052905)"><path d="M-0.77 0.34 L275.84 1.56 L275.8 71.07 L-1.72 71.33" stroke="none" stroke-width="0" fill="#a5d8ff"></path><path d="M0 0 C86.84 1.2, 173.25 0.52, 277.2 0 M0 0 C86.37 0.71, 171.44 0.75, 277.2 0 M277.2 0 C278.02 14.31, 277.63 30.08, 277.2 71.98 M277.2 0 C276.68 15.18, 277.49 32.51, 277.2 71.98 M277.2 71.98 C182.48 74.47, 85.95 73.88, 0 71.98 M277.2 71.98 C168.43 71.99, 59.99 72.47, 0 71.98 M0 71.98 C0.83 55.01, -1.47 39.08, 0 0 M0 71.98 C-1.24 53.05, 0.08 34.42, 0 0" stroke="#1e1e1e" stroke-width="2" fill="none"></path></g><g transform="translate(894.7799653163066 744.7982031589663) rotate(0 81.2177734375 16.09999999999991)"><text x="0" y="25.760546874999996" font-family="Helvetica, Segoe UI Emoji" font-size="28px" fill="#1e1e1e" text-anchor="start" style="white-space: pre;" direction="ltr" dominant-baseline="alphabetic">Values buffer</text></g><g transform="translate(894.7799653163066 652.2136167145864) rotate(0 129.4521484375 16.09999999999991)"><text x="0" y="25.760546874999996" font-family="Helvetica, Segoe UI Emoji" font-size="28px" fill="#1e1e1e" text-anchor="start" style="white-space: pre;" direction="ltr" dominant-baseline="alphabetic">Validity bitmap buffer</text></g><g stroke-linecap="round" transform="translate(1196.1609090713341 725.9210739007331) rotate(0 163.28176969783868 35.04220680752178)"><path d="M-1.72 -0.66 L325.31 1.21 L327.72 70.07 L0.83 69.27" stroke="none" stroke-width="0" fill="#a5d8ff"></path><path d="M0 0 C104.61 1.34, 210.29 -0.33, 326.56 0 M0 0 C112.76 -0.59, 223.9 -0.73, 326.56 0 M326.56 0 C327.49 15.01, 324.33 33.12, 326.56 70.08 M326.56 0 C327.85 24.67, 327.13 48.16, 326.56 70.08 M326.56 70.08 C233.18 69.11, 137.8 69.79, 0 70.08 M326.56 70.08 C234.98 68.95, 144.59 68.16, 0 70.08 M0 70.08 C1.04 44.47, 0.78 23.09, 0 0 M0 70.08 C-0.41 43.96, -0.43 15.83, 0 0" stroke="#1e1e1e" stroke-width="2" fill="none"></path></g><g transform="translate(1236.9532066311049 744.3299864673163) rotate(0 124.5302734375 16.09999999999991)"><text x="0" y="25.760546874999996" font-family="Helvetica, Segoe UI Emoji" font-size="28px" fill="#1e1e1e" text-anchor="start" style="white-space: pre;" direction="ltr" dominant-baseline="alphabetic">_  _  1.2  _  3.4  _  _</text></g><g transform="translate(1230.8854734873019 448.5357187986301) rotate(0 101.1787109375 16.09999999999991)"><text x="0" y="25.760546874999996" font-family="Helvetica, Segoe UI Emoji" font-size="28px" fill="#1e1e1e" text-anchor="start" style="white-space: pre;" direction="ltr" dominant-baseline="alphabetic">5  _  _  _  _  4  _</text></g><g transform="translate(775.6462878410636 275.40813217571485) rotate(0 201.49609375 16.09999999999991)"><text x="0" y="25.760546874999996" font-family="Helvetica, Segoe UI Emoji" font-size="28px" fill="#1971c2" text-anchor="start" style="white-space: pre;" direction="ltr" dominant-baseline="alphabetic">Fixed-size Primitive child array 0</text></g><g stroke-linecap="round" transform="translate(1195.7981858570486 332.49016464039596) rotate(0 102.28569975707381 34.80312378531971)"><path d="M1.39 -1.51 L205.5 1.56 L202.62 69.55 L-1.92 70.55" stroke="none" stroke-width="0" fill="#a5d8ff"></path><path d="M0 0 C45.09 -2.73, 89.32 -2.66, 204.57 0 M0 0 C44.89 -2.1, 91.16 -0.94, 204.57 0 M204.57 0 C205.46 24.47, 204 47.66, 204.57 69.61 M204.57 0 C204.31 26.48, 204.8 54.44, 204.57 69.61 M204.57 69.61 C156.98 67.91, 106.97 68.75, 0 69.61 M204.57 69.61 C149.29 70.59, 95.89 71.09, 0 69.61 M0 69.61 C1.44 50.01, -1.03 31.48, 0 0 M0 69.61 C1.01 51, 0.85 32.01, 0 0" stroke="#1e1e1e" stroke-width="2" fill="none"></path></g><g transform="translate(1234.1914910231746 350.7842031287637) rotate(0 62.2890625 16.09999999999991)"><text x="0" y="25.760546874999996" font-family="Helvetica, Segoe UI Emoji" font-size="28px" fill="#1e1e1e" text-anchor="start" style="white-space: pre;" direction="ltr" dominant-baseline="alphabetic">00100001</text></g><g transform="translate(775.965119834477 868.6954342584058) rotate(0 203.6083984375 16.09999999999991)"><text x="0" y="25.760546874999996" font-family="Helvetica, Segoe UI Emoji" font-size="28px" fill="#1971c2" text-anchor="start" style="white-space: pre;" direction="ltr" dominant-baseline="alphabetic">Variable-size Binary child array 2</text></g><g transform="translate(895.09879730972 1057.7482767130605) rotate(0 83.5419921875 16.100000000000364)"><text x="0" y="25.760546874999996" font-family="Helvetica, Segoe UI Emoji" font-size="28px" fill="#1e1e1e" text-anchor="start" style="white-space: pre;" direction="ltr" dominant-baseline="alphabetic">Offsets buffer</text></g><g transform="translate(895.09879730972 965.1636902686796) rotate(0 129.4521484375 16.09999999999991)"><text x="0" y="25.760546874999996" font-family="Helvetica, Segoe UI Emoji" font-size="28px" fill="#1e1e1e" text-anchor="start" style="white-space: pre;" direction="ltr" dominant-baseline="alphabetic">Validity bitmap buffer</text></g><g stroke-linecap="round" transform="translate(1196.4797410647475 1038.7005764281748) rotate(0 156.17785532308972 35.042206807522234)"><path d="M1.67 1.08 L311.61 0.2 L310.64 68.14 L1.63 68.28" stroke="none" stroke-width="0" fill="#a5d8ff"></path><path d="M0 0 C95.87 -1.16, 194.54 -1.43, 312.36 0 M0 0 C109.79 2.29, 219.16 2.08, 312.36 0 M312.36 0 C313.43 20, 311.93 35.97, 312.36 70.08 M312.36 0 C312.39 26.99, 311.41 52.23, 312.36 70.08 M312.36 70.08 C211.3 70.34, 108.35 70.29, 0 70.08 M312.36 70.08 C232.22 69.16, 151.77 69.3, 0 70.08 M0 70.08 C-1.03 55.07, -0.16 38.44, 0 0 M0 70.08 C0.13 54.74, 0.19 38.63, 0 0" stroke="#1e1e1e" stroke-width="2" fill="none"></path></g><g transform="translate(1236.9037350530898 1057.2800600214105) rotate(0 116.744140625 16.100000000000364)"><text x="0" y="25.760546874999996" font-family="Helvetica, Segoe UI Emoji" font-size="28px" fill="#1e1e1e" text-anchor="start" style="white-space: pre;" direction="ltr" dominant-baseline="alphabetic">0  0  0  0  3  3  3  7</text></g><g stroke-linecap="round"><g transform="translate(646.6533266250104 604.3473048156839) rotate(0 58.23062119593003 131.27660085036132)"><path d="M2.93 0.46 C35.45 76.91, 69.06 156.42, 116.75 261.38" stroke="#1971c2" stroke-width="2.5" fill="none" stroke-dasharray="8 10"></path></g><g transform="translate(646.6533266250104 604.3473048156839) rotate(0 58.23062119593003 131.27660085036132)"><path d="M101.3 243.74 C105.78 247.59, 110.25 253.81, 116.95 260.61" stroke="#1971c2" stroke-width="2.5" fill="none"></path></g><g transform="translate(646.6533266250104 604.3473048156839) rotate(0 58.23062119593003 131.27660085036132)"><path d="M116.91 236.75 C116.72 242.63, 116.54 250.93, 116.95 260.61" stroke="#1971c2" stroke-width="2.5" fill="none"></path></g></g><mask></mask><g stroke-linecap="round" transform="translate(1196.1609090713341 630.9874510887084) rotate(0 102.28569975707381 34.80312378531971)"><path d="M-0.28 -1.96 L203.12 -1.04 L203.54 67.81 L0.81 69.62" stroke="none" stroke-width="0" fill="#a5d8ff"></path><path d="M0 0 C47.92 2.55, 96.29 0.58, 204.57 0 M0 0 C49.65 1.72, 100.69 1.08, 204.57 0 M204.57 0 C205.55 19.6, 203.94 37.26, 204.57 69.61 M204.57 0 C204.36 19.31, 205.17 38.67, 204.57 69.61 M204.57 69.61 C150.87 69.22, 92.72 66.84, 0 69.61 M204.57 69.61 C135.64 70.28, 64.96 70.68, 0 69.61 M0 69.61 C0.09 53.13, 0.18 34.69, 0 0 M0 69.61 C-0.27 46.62, 0.69 25.57, 0 0" stroke="#1e1e1e" stroke-width="2" fill="none"></path></g><g transform="translate(1234.5542142374602 649.693212744859) rotate(0 62.2890625 16.09999999999991)"><text x="0" y="25.760546874999996" font-family="Helvetica, Segoe UI Emoji" font-size="28px" fill="#1e1e1e" text-anchor="start" style="white-space: pre;" direction="ltr" dominant-baseline="alphabetic">00010100</text></g><g stroke-linecap="round" transform="translate(1196.4797410647475 943.5332100172809) rotate(0 102.28569975707381 34.80312378531971)"><path d="M-1.05 0.81 L203.17 1.01 L204.77 68.1 L-0.94 69.37" stroke="none" stroke-width="0" fill="#a5d8ff"></path><path d="M0 0 C50.79 0.05, 100.71 2.09, 204.57 0 M0 0 C75.72 -1.32, 152.68 -0.85, 204.57 0 M204.57 0 C204.03 16.33, 204.28 34.47, 204.57 69.61 M204.57 0 C204.71 13.88, 203.98 28.72, 204.57 69.61 M204.57 69.61 C145.29 70.62, 86.69 70.28, 0 69.61 M204.57 69.61 C158.28 71.61, 113.5 70.7, 0 69.61 M0 69.61 C-0.31 51.17, 0.88 34.99, 0 0 M0 69.61 C-0.51 45.81, 0.73 22.27, 0 0" stroke="#1e1e1e" stroke-width="2" fill="none"></path></g><g transform="translate(1234.5047426594451 962.2389716734315) rotate(0 62.2890625 16.09999999999991)"><text x="0" y="25.760546874999996" font-family="Helvetica, Segoe UI Emoji" font-size="28px" fill="#1e1e1e" text-anchor="start" style="white-space: pre;" direction="ltr" dominant-baseline="alphabetic">01001000</text></g><g transform="translate(895.09879730972 1153.2145951371058) rotate(0 81.2177734375 16.100000000000364)"><text x="0" y="25.760546874999996" font-family="Helvetica, Segoe UI Emoji" font-size="28px" fill="#1e1e1e" text-anchor="start" style="white-space: pre;" direction="ltr" dominant-baseline="alphabetic">Values buffer</text></g><g stroke-linecap="round" transform="translate(1196.4797410647475 1134.1668948522201) rotate(0 100.15306764905642 35.042206807522234)"><path d="M-1.38 -1.94 L201.31 -0.02 L200.17 70.64 L-1 71.79" stroke="none" stroke-width="0" fill="#a5d8ff"></path><path d="M0 0 C50.49 -0.31, 99.47 -0.82, 200.31 0 M0 0 C56.71 -1.25, 114.96 -1.26, 200.31 0 M200.31 0 C200.69 24.13, 199.89 43.11, 200.31 70.08 M200.31 0 C199.36 27.67, 198.81 54.69, 200.31 70.08 M200.31 70.08 C154.89 70.94, 111.72 70.86, 0 70.08 M200.31 70.08 C123.77 69.07, 45.4 68.37, 0 70.08 M0 70.08 C-0.25 42.08, 1.06 17.19, 0 0 M0 70.08 C-0.93 43.77, -0.29 19.25, 0 0" stroke="#1e1e1e" stroke-width="2" fill="none"></path></g><g transform="translate(1246.2459364940396 1152.7463784454558) rotate(0 49.79296875 16.100000000000364)"><text x="0" y="25.760546874999996" font-family="Helvetica, Segoe UI Emoji" font-size="28px" fill="#1e1e1e" text-anchor="start" style="white-space: pre;" direction="ltr" dominant-baseline="alphabetic">joemark</text></g><g transform="translate(161.89931733374374 226.9625903062515) rotate(0 7.7861328125 16.09999999999991)"><text x="0" y="25.760546874999996" font-family="Helvetica, Segoe UI Emoji" font-size="28px" fill="#1e1e1e" text-anchor="start" style="white-space: pre;" direction="ltr" dominant-baseline="alphabetic">5</text></g><g transform="translate(150.22353608374374 333.9182556840642) rotate(0 19.4619140625 16.09999999999991)"><text x="0" y="25.760546874999996" font-family="Helvetica, Segoe UI Emoji" font-size="28px" fill="#1e1e1e" text-anchor="start" style="white-space: pre;" direction="ltr" dominant-baseline="alphabetic">1.2</text></g><g transform="translate(141.06337983374374 387.39608837297055) rotate(0 28.6220703125 16.09999999999991)"><text x="0" y="25.760546874999996" font-family="Helvetica, Segoe UI Emoji" font-size="28px" fill="#1e1e1e" text-anchor="start" style="white-space: pre;" direction="ltr" dominant-baseline="alphabetic">"joe"</text></g><g transform="translate(161.89931733374374 494.35175375078325) rotate(0 7.7861328125 16.09999999999991)"><text x="0" y="25.760546874999996" font-family="Helvetica, Segoe UI Emoji" font-size="28px" fill="#1e1e1e" text-anchor="start" style="white-space: pre;" direction="ltr" dominant-baseline="alphabetic">4</text></g><g transform="translate(150.22353608374374 440.8739210618769) rotate(0 19.4619140625 16.09999999999991)"><text x="0" y="25.760546874999996" font-family="Helvetica, Segoe UI Emoji" font-size="28px" fill="#1e1e1e" text-anchor="start" style="white-space: pre;" direction="ltr" dominant-baseline="alphabetic">3.4</text></g><g transform="translate(128.63564545874374 547.8295864396896) rotate(0 41.0498046875 16.09999999999991)"><text x="0" y="25.760546874999996" font-family="Helvetica, Segoe UI Emoji" font-size="28px" fill="#1e1e1e" text-anchor="start" style="white-space: pre;" direction="ltr" dominant-baseline="alphabetic">"mark"</text></g><g transform="translate(147.89248139624374 280.44042299515786) rotate(0 21.79296875 16.09999999999991)"><text x="0" y="25.760546874999996" font-family="Helvetica, Segoe UI Emoji" font-size="28px" fill="#1e1e1e" text-anchor="start" style="white-space: pre;" direction="ltr" dominant-baseline="alphabetic">null</text></g></svg>