<svg version="1.1" xmlns="http://www.w3.org/2000/svg" viewBox="0 0 1495.3089493858786 991.8194870076786" width="1495.3089493858786" height="991.8194870076786">
  <!-- svg-source:excalidraw -->
  
  <defs>
    <style class="style-fonts">
      @font-face {
        font-family: "Virgil";
        src: url("https://excalidraw.com/Virgil.woff2");
      }
      @font-face {
        font-family: "Cascadia";
        src: url("https://excalidraw.com/Cascadia.woff2");
      }
      @font-face {
        font-family: "Assistant";
        src: url("https://excalidraw.com/Assistant-Regular.woff2");
      }
    </style>
    
  </defs>
  <g stroke-linecap="round" transform="translate(18.277819259969647 10) rotate(0 733.5155650629545 29.721659908090714)"><path d="M-3.55 1.29 L1465.25 1.38 L1465.08 60.09 L1.55 57.91" stroke="none" stroke-width="0" fill="#b2f2bb"></path><path d="M0.61 -0.33 C513.17 -8.83, 1026.67 -8.07, 1467.57 0.93 M-0.53 -0.4 C530.65 0.22, 1061.37 -0.37, 1467.57 0.51 M1469.88 3.47 C1469.48 11.73, 1466.32 32.23, 1468.13 62.18 M1465.16 -0.72 C1466.59 13.58, 1466.37 26.07, 1466.84 61.15 M1467.08 60.93 C1004.78 66.62, 545.04 67.82, 0.06 59.98 M1466.95 59.57 C989.18 55.24, 511.1 55.41, -0.37 59.02 M-2.45 60.76 C0.48 41.28, -3.93 14.36, -1.47 -1.42 M-1.53 60.47 C0.24 39.9, 1.46 16.35, -1.98 1.92" stroke="#1e1e1e" stroke-width="2" fill="none"></path></g><g transform="translate(141.32507513257747 21.804720877538784) rotate(0 34.2275390625 16.09999999999991)"><text x="0" y="25.760546874999996" font-family="Helvetica, Segoe UI Emoji" font-size="28px" fill="#1e1e1e" text-anchor="start" style="white-space: pre;" direction="ltr" dominant-baseline="alphabetic">struct</text></g><g transform="translate(672.7076609945188 21.474951782862263) rotate(0 188.3095703125 16.09999999999991)"><text x="0" y="25.760546874999996" font-family="Helvetica, Segoe UI Emoji" font-size="28px" fill="#1e1e1e" text-anchor="start" style="white-space: pre;" direction="ltr" dominant-baseline="alphabetic">Physical layout - Struct Layout</text></g><g stroke-linecap="round" transform="translate(10 138.14836494904284) rotate(0 173.33175656945323 173.13945127027296)"><path d="M-1.55 1.61 L345.75 -1.06 L347.61 347.58 L-1.57 345.06" stroke="none" stroke-width="0" fill="#ffc9c9"></path><path d="M0 0 C118.81 -1.26, 237.54 -0.8, 346.66 0 M0 0 C104.7 1.51, 209.44 1.02, 346.66 0 M346.66 0 C347.76 126.89, 349.04 255.2, 346.66 346.28 M346.66 0 C344.88 127.99, 345.07 254.98, 346.66 346.28 M346.66 346.28 C244.39 343.91, 144.05 343.77, 0 346.28 M346.66 346.28 C209.79 348.82, 73.14 348.24, 0 346.28 M0 346.28 C1.77 211.18, 1.96 74.75, 0 0 M0 346.28 C2.09 233.63, 2 121.17, 0 0" stroke="#1e1e1e" stroke-width="2" fill="none"></path></g><g stroke-linecap="round"><g transform="translate(24.17604887548987 199.00932355957866) rotate(0 157.775390625 0)"><path d="M0 0 C123.5 0.02, 245.28 -2.22, 315.55 0 M0 0 C78.93 -1.35, 157.91 -0.77, 315.55 0" stroke="#1e1e1e" stroke-width="2" fill="none"></path></g></g><mask></mask><g transform="translate(125.39870512548987 151.97567056718208) rotate(0 56.806640625 16.09999999999991)"><text x="0" y="25.760546874999996" font-family="Helvetica, Segoe UI Emoji" font-size="28px" fill="#1e1e1e" text-anchor="start" style="white-space: pre;" direction="ltr" dominant-baseline="alphabetic">column 4</text></g><g transform="translate(47.31179106298987 222.3975649757067) rotate(0 134.8935546875 16.09999999999991)"><text x="0" y="25.760546874999996" font-family="Helvetica, Segoe UI Emoji" font-size="28px" fill="#1e1e1e" text-anchor="start" style="white-space: pre;" direction="ltr" dominant-baseline="alphabetic">{"name": "joe", "id": 1}</text></g><g transform="translate(56.88015043798987 275.55378842551454) rotate(0 128.064453125 16.09999999999991)"><text x="0" y="25.760546874999996" font-family="Helvetica, Segoe UI Emoji" font-size="28px" fill="#1e1e1e" text-anchor="start" style="white-space: pre;" direction="ltr" dominant-baseline="alphabetic">{"name": null, "id": 2}</text></g><g transform="translate(160.41237700048987 327.7478677006902) rotate(0 21.79296875 16.09999999999991)"><text x="0" y="25.760546874999996" font-family="Helvetica, Segoe UI Emoji" font-size="28px" fill="#1e1e1e" text-anchor="start" style="white-space: pre;" direction="ltr" dominant-baseline="alphabetic">null</text></g><g transform="translate(24.13405668798987 431.57080166554306) rotate(0 156.6865234375 16.09999999999991)"><text x="0" y="25.760546874999996" font-family="Helvetica, Segoe UI Emoji" font-size="28px" fill="#1e1e1e" text-anchor="start" style="white-space: pre;" direction="ltr" dominant-baseline="alphabetic">{"name": "jane", "id": null}</text></g><g transform="translate(34.88405668798987 379.61205769741355) rotate(0 147.3212890625 16.09999999999991)"><text x="0" y="25.760546874999996" font-family="Helvetica, Segoe UI Emoji" font-size="28px" fill="#1e1e1e" text-anchor="start" style="white-space: pre;" direction="ltr" dominant-baseline="alphabetic">{"name": "mark", "id": 4}</text></g><g stroke-linecap="round" transform="translate(489.33829491763277 126.84424969478641) rotate(0 72.28797794313596 18.9832559125648)"><path d="M0 0 C0 0, 0 0, 0 0 M0 0 C0 0, 0 0, 0 0 M-1.55 6.65 C-0.19 5.49, 2.16 2.44, 5.07 -0.17 M-0.69 5.9 C2.01 4.52, 3.99 2.05, 5.59 -0.24 M0.77 10.64 C4.98 7.5, 9.56 1.24, 8.16 -0.12 M-0.51 11.4 C5.48 7.68, 6.51 1.53, 11.92 -1.04 M-0.44 15.47 C8.75 11.23, 15.12 1.65, 17.73 -3.49 M-1.22 19.02 C4.52 11.97, 8.39 7.14, 15.34 0.29 M1.23 22.78 C3.03 13.63, 14.19 7.52, 20.88 3.12 M-1.06 22.97 C4.79 18.6, 10.61 11.87, 21.07 0.06 M3.71 26.6 C5.78 16.88, 19.49 5.35, 27.92 -2.91 M1.58 31.24 C5.77 21, 12.58 16.03, 25.17 -1.35 M0.18 38.28 C11.99 25.14, 25.77 6.14, 30.73 1.13 M1.03 37.33 C7.15 25.15, 19.22 14.1, 33.11 1.68 M3.07 36 C10.18 22.23, 22.64 9.26, 38.76 -2.5 M4.13 36.73 C10.94 28.57, 17.67 21.32, 34.92 -1.22 M9.5 39.23 C15.47 29.4, 22.98 23.78, 42.16 2.03 M9.9 38.21 C18.31 24.54, 31.59 11.13, 44.49 0.47 M11.6 38.53 C17.96 28.45, 24.64 19.3, 48.41 2.31 M16.03 36.46 C24.23 25.46, 33.39 15.68, 46.41 1.12 M17.11 37.72 C33.57 29.46, 40.9 14.06, 53.45 -0.21 M17.72 38.98 C30.02 24.17, 42.57 10.69, 51.24 -0.11 M27.25 41.46 C30.81 26.17, 47.98 11.95, 54.26 3.89 M25.64 36.59 C36.01 25.53, 46.7 12.46, 58.37 -0.32 M33.3 41.4 C34.4 28.36, 45.28 17.24, 60.06 2.17 M28.78 38.3 C43.61 23.42, 56.96 8.57, 63.29 0.02 M35.75 34.31 C47.59 20.61, 61.66 7.97, 64.86 2.41 M37.75 36.31 C48.81 23.13, 58.42 11.37, 68.43 0.08 M40.89 40.19 C48.87 24.61, 64.1 9.18, 74.63 2.76 M39.59 36.92 C53.36 22.63, 65.76 7.87, 74.47 -0.46 M47.98 40.41 C56.24 25.33, 70.56 13.02, 79.93 1.87 M45.09 37.43 C53.16 27.48, 62.78 18.4, 79.14 1.55 M53.85 35.83 C62.05 24.51, 70.59 18.49, 83.01 0.97 M51.58 37.17 C59.5 27.66, 69.53 18.74, 84.54 1.7 M56.03 40.92 C68.85 24.51, 81.72 16.12, 86.43 -1.93 M58.27 38.33 C68.23 25.48, 79.05 10.24, 91.96 -1.1 M65.37 37.89 C67.88 25.14, 80.1 19.8, 96.21 -2 M61.06 36.99 C71.62 24.32, 81.29 13.78, 97.15 0.35 M69.17 34.8 C81.54 23.51, 94.44 11.51, 102.45 -1.37 M67.82 35.98 C75.03 28.21, 86.04 17.84, 101.22 0.51 M75.81 35.73 C83.85 26.61, 96 12.38, 106.44 0.89 M73.26 39.9 C85.99 24.98, 97.62 9.34, 105.87 -2.05 M77.86 34.83 C89.93 23.67, 97.87 16.81, 109.3 2.98 M78.19 35.96 C90.31 23.59, 105.25 6.45, 112.21 -1.61 M80.73 34.52 C96.9 27.21, 104.06 12.25, 114.45 3.21 M84.34 37.02 C91.67 26.61, 102.75 16.2, 115.48 0.3 M89.76 39.58 C98.3 26.18, 109.72 10.92, 119.48 -1.63 M89.7 38.44 C97.63 28.98, 106.72 20.81, 123.08 -1.87 M90.87 35.27 C99.21 27.62, 107.26 18.76, 128.13 2.12 M95.32 37.08 C105.72 26.94, 115.74 12.03, 126.69 -0.49 M101.69 37.47 C110.38 29.07, 114.95 20.49, 132.67 3.85 M100.6 36.19 C113.33 25.78, 122.78 11.63, 130.92 0.91 M104.16 38.78 C115.02 21.91, 124.8 13.17, 138.59 -1.17 M106.16 36.38 C114.82 24.08, 126.44 12.39, 138.12 0.58 M111.02 35.45 C118.62 30.84, 123.26 17.91, 139.72 2.29 M108.4 37.29 C115.98 28.95, 123.27 20.64, 141.7 1.5 M117.71 41.67 C130.09 21.69, 136.16 7.6, 148.18 2.63 M113.71 36.81 C126.08 24.51, 137.35 12.29, 144.31 3.35 M122.28 36.04 C122.86 34.58, 131.64 26.42, 142.17 10.18 M118.46 40.21 C127.69 30.63, 136.19 20.03, 143.77 8.1 M123.84 40.36 C128.4 32.3, 133.57 32.7, 141.14 12.4 M125.73 39.88 C131.7 32.13, 135.35 25.3, 144.47 18.02 M131.2 37.83 C136.82 34.06, 143.8 26.02, 147.81 22.47 M130.09 40.24 C133.82 31.64, 139.07 27.44, 145.51 21.11 M137.53 36.1 C137.18 33.92, 143.78 32.28, 145.69 30.3 M135.51 37.11 C137.72 34.3, 141.33 32.91, 146.2 29.37 M140.94 37.75 C141.79 37.23, 143.1 36.93, 146 33 M141.48 37.76 C142.75 36.49, 143.52 35.53, 145.55 33.79" stroke="#ffc9c9" stroke-width="0.5" fill="none"></path><path d="M2.85 3.47 C40.04 -3.27, 74.16 1.9, 145.67 2.73 M-1.88 -0.72 C29.03 3.55, 58.2 3.96, 144.39 1.71 M144.69 3.71 C141.9 11.63, 144.83 26.56, 144.74 39.3 M144.37 0.31 C143.37 13.55, 142.31 26.34, 143.66 36.91 M142.13 39.28 C95.64 38.17, 41.04 31.88, -1.47 36.55 M143.05 38.99 C93.6 41.08, 44.29 38.31, -1.98 39.89 M1.38 36.02 C0.41 31.5, -1.78 24.76, 3.33 0.15 M-0.85 38.46 C-1.43 22.39, -0.66 7.54, -1.87 -1.71" stroke="#e03131" stroke-width="1" fill="none"></path></g><g transform="translate(506.82799017557295 130.42595450807676) rotate(0 56.806640625 16.09999999999991)"><text x="0" y="25.760546874999996" font-family="Helvetica, Segoe UI Emoji" font-size="28px" fill="#1e1e1e" text-anchor="start" style="white-space: pre;" direction="ltr" dominant-baseline="alphabetic">column 4</text></g><g transform="translate(816.0306996848303 596.5441662324988) rotate(0 81.2177734375 16.09999999999991)"><text x="0" y="25.760546874999996" font-family="Helvetica, Segoe UI Emoji" font-size="28px" fill="#1e1e1e" text-anchor="start" style="white-space: pre;" direction="ltr" dominant-baseline="alphabetic">Values buffer</text></g><g transform="translate(673.4860571066849 129.7275056073513) rotate(0 129.4521484375 16.09999999999991)"><text x="0" y="25.760546874999996" font-family="Helvetica, Segoe UI Emoji" font-size="28px" fill="#1e1e1e" text-anchor="start" style="white-space: pre;" direction="ltr" dominant-baseline="alphabetic">Validity bitmap buffer</text></g><g transform="translate(816.5385121848303 500.3429699438134) rotate(0 76.5419921875 16.09999999999991)"><text x="0" y="25.760546874999996" font-family="Helvetica, Segoe UI Emoji" font-size="28px" fill="#1e1e1e" text-anchor="start" style="white-space: pre;" direction="ltr" dominant-baseline="alphabetic">Offset buffer</text></g><g transform="translate(816.5385121848303 404.14177365512796) rotate(0 129.4521484375 16.09999999999991)"><text x="0" y="25.760546874999996" font-family="Helvetica, Segoe UI Emoji" font-size="28px" fill="#1e1e1e" text-anchor="start" style="white-space: pre;" direction="ltr" dominant-baseline="alphabetic">Validity bitmap buffer</text></g><g stroke-linecap="round" transform="translate(1118.2011507572681 385.31138563796503) rotate(0 97.77667674842121 33.884218607040566)"><path d="M-0.85 0.5 L194.03 -1.03 L194.8 66.43 L-1.87 66.06" stroke="none" stroke-width="0" fill="#a5d8ff"></path><path d="M0 0 C69.13 -1.96, 141.4 -0.46, 195.55 0 M0 0 C58.5 -0.9, 118.8 -0.35, 195.55 0 M195.55 0 C197.57 17.76, 194.9 38.29, 195.55 67.77 M195.55 0 C195.35 25.04, 195.64 48.66, 195.55 67.77 M195.55 67.77 C156.52 65.9, 116.82 65.55, 0 67.77 M195.55 67.77 C127.26 68.2, 57.21 69.93, 0 67.77 M0 67.77 C0.47 52.48, 0.11 39.91, 0 0 M0 67.77 C-0.44 50.87, -0.6 31.43, 0 0" stroke="#1e1e1e" stroke-width="2" fill="none"></path></g><g transform="translate(1153.900722909407 404.14177365512796) rotate(0 60.224609375 16.09999999999991)"><text x="0" y="25.760546874999996" font-family="Helvetica, Segoe UI Emoji" font-size="28px" fill="#1e1e1e" text-anchor="start" style="white-space: pre;" direction="ltr" dominant-baseline="alphabetic">00011101</text></g><g stroke-linecap="round"><g transform="translate(346.1574204113556 12.369004707048589) rotate(0 0 22.213424812065796)"><path d="M0.08 0.67 C0.46 11.1, -0.85 25.8, 0.31 43.94 M-0.46 -0.53 C0.13 16.61, -1.13 31.32, 0.33 44.74" stroke="#1e1e1e" stroke-width="2" fill="none"></path></g></g><mask></mask><g stroke-linecap="round" transform="translate(966.1239540465087 110.87758634018792) rotate(0 88.5629044579091 34.30234021339152)"><path d="M-1.3 -0.52 L178.45 1.95 L176.06 69.3 L-1.19 69.76" stroke="none" stroke-width="0" fill="#a5d8ff"></path><path d="M0 0 C58.23 1.48, 118.37 1.19, 177.13 0 M0 0 C63.19 -1.96, 127.76 -0.78, 177.13 0 M177.13 0 C177.33 16.44, 175.12 28.49, 177.13 68.6 M177.13 0 C176.3 18.72, 176.12 36.65, 177.13 68.6 M177.13 68.6 C126.45 67.3, 80.77 67.51, 0 68.6 M177.13 68.6 C117.8 69.38, 59.84 68.83, 0 68.6 M0 68.6 C1.09 42.91, -2.35 16.86, 0 0 M0 68.6 C0.15 45.65, -0.42 23.17, 0 0" stroke="#1e1e1e" stroke-width="2" fill="none"></path></g><g transform="translate(994.5535868502984 129.55514248647705) rotate(0 60.224609375 16.09999999999991)"><text x="0" y="25.760546874999996" font-family="Helvetica, Segoe UI Emoji" font-size="28px" fill="#1e1e1e" text-anchor="start" style="white-space: pre;" direction="ltr" dominant-baseline="alphabetic">00011011</text></g><g stroke-linecap="round" transform="translate(484.7467658350316 541.3652707665469) rotate(0 117.48603631692885 21.602063329720295)"><path d="M0 0 C0 0, 0 0, 0 0 M0 0 C0 0, 0 0, 0 0 M-0.03 5.02 C-0.22 6.02, 1.51 4.35, 6.4 0.92 M-0.32 7.15 C0.74 4.97, 2.13 2.5, 4.9 0.44 M-2.49 12.26 C-0.04 8.59, 5.15 6.17, 9.42 0.54 M-1.09 12.45 C2.88 8.17, 8.29 4.19, 9.62 1.02 M3.28 14.51 C7.5 14.12, 7.69 13.16, 18.91 -3.21 M-1.54 18.66 C4.85 12.44, 10.98 3.17, 16.18 1.97 M-3.71 25.02 C8.26 12.83, 12.71 9.41, 18.14 -3.78 M1.31 24.28 C5.36 16.08, 13.77 9.17, 23.13 -0.08 M-1.24 32.2 C8.29 22.34, 22.56 10, 30.12 3.08 M-1.46 29.37 C5.75 23.63, 13.36 12.84, 27.93 1.18 M-1.72 36.14 C10.77 21.7, 16.73 11.52, 28.36 -2.38 M-0.54 35.88 C10.87 25.5, 20.67 14.77, 31.44 1.46 M-1.03 43.05 C10.18 32.74, 26.53 10.43, 37.2 2.31 M-0.63 40.88 C6.67 34.19, 17.4 24.18, 36.41 1.06 M0.07 44.6 C17.91 26.92, 34.31 13.81, 38.93 -4.02 M4.27 44.81 C12.66 34.84, 21.47 25.12, 42.88 1.82 M9.16 42.84 C17.85 33.24, 23.82 28.06, 50.4 3.96 M8.29 47.16 C19.8 28.58, 36.59 15.44, 46.92 2.06 M14.75 44.35 C27.03 32.01, 37.95 14.67, 54.18 -3.81 M12.5 45.4 C25.84 27.51, 43.58 13.54, 51.96 1.51 M18.68 48.27 C26.25 34.22, 36.77 28.39, 59.15 1.35 M17.43 45.89 C30.73 30.32, 43.9 20.31, 59.64 0.26 M22.12 43.5 C42.72 26.7, 55.5 11.25, 63.64 -3.02 M23.34 45.86 C33.75 32.93, 48.7 21.04, 65.07 -0.35 M28.68 42.8 C39.53 35.21, 47.83 26.04, 68.06 -0.4 M29.44 46.31 C42.23 30.86, 56.04 14.38, 67.69 1.29 M33.05 44.93 C42.72 35.73, 55.43 24.25, 78.02 2.85 M32.78 46.99 C49.57 27.86, 64.1 11.94, 74.53 -0.08 M40.11 44.73 C55.64 31.31, 68.05 19.12, 76.94 3.63 M39.51 47.26 C51.08 31.17, 59.58 21.74, 79.08 -1.6 M45.59 43.3 C55.35 33.64, 70.6 13.02, 85.21 -3.84 M43.71 45.15 C61.78 29.36, 74.57 11.79, 84.55 0.62 M47.13 42.12 C59.73 37.77, 71.6 27.41, 92.78 -1.82 M50.72 46.15 C65.84 30.91, 76.83 14.65, 90.72 -1.56 M56.98 45.13 C70.59 33.9, 81.29 20.02, 94.3 -2.96 M55.91 46.3 C70.59 28.6, 86.77 12.96, 97.25 0.64 M65.06 44.88 C75.1 29.55, 82.38 16.24, 101.75 -0.18 M60.06 44.99 C74.32 31.16, 85.83 21.18, 102.45 -0.16 M67.65 48.7 C75.44 34.6, 86.67 22.38, 107.56 3.46 M68.1 44.01 C77.67 33.81, 87.05 23.46, 106.66 1.45 M70.44 48.73 C83.98 28.38, 99.28 16.31, 113.23 -3.09 M72.46 44.39 C83.4 30.13, 95.58 15.99, 110.99 -1.38 M77.22 48.14 C92.2 32.98, 98.79 11.99, 115.79 3.96 M75.87 45.42 C84.6 36.69, 95.7 26.42, 116.05 1.89 M84.97 47.19 C93.46 28.02, 109.75 9.25, 123.76 1.63 M82.7 45.54 C96.5 28.85, 112 13.84, 119.98 -1.6 M88.49 45.38 C100.16 26.19, 117.14 14.8, 128.96 2.6 M85.74 45.29 C98.52 33.19, 109.13 20.56, 126.59 1.11 M91.54 43.59 C109.3 30.08, 123.7 8.99, 129.09 -2.02 M93.51 44.24 C105.09 28.28, 121.23 13.08, 133.97 0.4 M95.45 46.17 C104.45 32.06, 120.28 28.24, 136.25 3.54 M97.12 43.94 C110.23 30.16, 125.26 13.77, 139.36 1.12 M101.59 47.84 C111.32 33.29, 121.21 23.44, 144.14 1.76 M104.86 45.62 C118.73 29.04, 131.82 14.56, 144.4 1.43 M111.28 48.05 C114.52 33.15, 120.97 22.89, 144.66 3.99 M108.34 45.32 C119.89 32.83, 125.79 22.66, 148.01 1.79 M113.7 45.39 C121.69 31.25, 139.76 21.11, 151.04 0.58 M114.58 47.16 C125.8 32.93, 138.73 17.87, 155.63 -0.11 M116.35 44.4 C127.43 34.65, 137.46 23.26, 158.43 -1.01 M118.63 46.96 C133.53 31.41, 148.11 15.54, 160.1 -0.43 M121.68 45.77 C135.18 40, 145.98 24.86, 167.08 -2.11 M124.45 45.19 C136.02 35.88, 143.09 22.99, 162.92 1.77 M126.21 44.4 C139.22 32.84, 152.87 23.65, 166.94 1.35 M130.14 45.96 C140.96 31.45, 152.02 17.68, 171.1 1.49 M137.17 43.57 C146.98 28.63, 162.48 14.56, 176.76 0.92 M136.81 45.88 C145.34 34.1, 152.24 26.09, 174.44 -1.33 M139.6 45.04 C158 28.51, 172.12 12.05, 180.77 -2.25 M141.89 45.05 C155.67 30.61, 166.84 13.2, 178.38 -0.81 M145.01 47.19 C151.85 36.44, 159.28 26.25, 183.76 0.73 M143.91 43.98 C158.18 31.97, 166.15 19.73, 185.27 1.76 M150.46 43.13 C161.87 32.15, 176.08 21.94, 187.71 0.62 M151.84 46.53 C162.05 31.25, 175.29 19.5, 191.22 -1.1 M155.22 42.84 C169.78 37.86, 179.43 24.36, 198.94 0.18 M157.9 44.85 C172.76 27.49, 186.83 9.75, 195.38 -0.18 M159.89 47.28 C171.06 30.59, 181.33 19.24, 204.71 -3.74 M162.86 46.31 C173.3 27.84, 186.72 12.85, 200.79 -0.56 M167.01 46.54 C177.35 29.89, 194.35 12.65, 204.35 1.96 M168.84 46.44 C179.77 28.85, 192.89 13.58, 207.67 1.23 M172.2 41.92 C184.42 28.84, 196.95 14.79, 209.91 -3.25 M172.69 43.88 C185.12 30, 199.51 13.19, 210.2 -1.76 M180.77 44.13 C187.96 36.72, 196.15 22.57, 221.25 -3.44 M178.7 45.29 C191.71 29.81, 204.97 15.48, 217.92 -0.05 M182.88 47.31 C198.2 27.44, 207.35 14.24, 218.66 3.98 M184.01 44.33 C191.72 35.13, 200.63 25.14, 224.44 1.3 M186.1 43.26 C205.5 32.67, 219.19 12, 226.05 -1.71 M187.35 46.54 C197.54 33.55, 208.34 22.54, 228.84 1.53 M190.61 43.48 C202.04 36.07, 212.1 18.03, 231.48 -2.33 M194.39 44.34 C204.28 31.55, 216 20.55, 232.41 1.22 M197.77 45.39 C206.2 32.56, 213.56 25.19, 240.4 3.52 M198.56 45.92 C205.76 34.6, 215.52 24.23, 238.06 3.4 M201.26 46.32 C214.33 36.24, 223.03 22.11, 239.51 10.89 M206.32 46.2 C212.38 36.56, 222.66 26.34, 238.36 6.77 M211.73 41.79 C215.8 39.99, 221.32 31.83, 236.55 13.75 M210.02 43.75 C217.64 40.1, 223.11 33.05, 237.54 15.84 M215.22 48.26 C221.58 33.02, 229.02 30.42, 235.62 20.71 M212.52 44.52 C221.74 36.33, 228.9 29.3, 234.97 19.45 M217.13 49.56 C228 37.88, 229.57 30.32, 241.01 24.89 M219.31 46.95 C223.7 40.8, 231.14 33.25, 235.22 25.39 M225.96 43.55 C232.22 41.13, 235.15 37.12, 237.12 30.46 M224.65 45.32 C228.48 39.15, 234.22 34.34, 236.19 33.5 M231.51 44.56 C232.38 41.65, 236.32 41.1, 236.13 36.24 M230.33 46.28 C232.45 43.05, 233.19 42.22, 237.35 38.98" stroke="#ffc9c9" stroke-width="0.5" fill="none"></path><path d="M2 -2.6 C70.81 -0.57, 134.41 2.55, 237.16 -2.64 M1.04 -1.33 C54.52 -1.85, 111.65 -0.4, 233.99 1.1 M237.43 1.53 C232.33 5.7, 239.26 15.78, 236.26 41.42 M235.75 -0.77 C235.97 16.11, 234.63 30.56, 234.73 41.43 M233.24 41.94 C172.17 37.04, 110.99 38.01, -0.87 45.44 M233.97 44.18 C140.23 44.96, 47.56 43.32, -0.91 42.6 M-3.7 42.43 C-2.87 31.3, 0 19.99, -3.28 -3.26 M-1.47 43.84 C0.74 24.69, 0.8 8.58, 1.67 1.86" stroke="#e03131" stroke-width="1" fill="none"></path></g><g transform="translate(516.7682444013209 544.9469755798373) rotate(0 91.8134765625 16.09999999999991)"><text x="0" y="25.760546874999996" font-family="Helvetica, Segoe UI Emoji" font-size="28px" fill="#1e1e1e" text-anchor="start" style="white-space: pre;" direction="ltr" dominant-baseline="alphabetic">children arrays</text></g><g stroke-linecap="round"><g transform="translate(561.1504798732028 180.63919131808916) rotate(0 0.3414451659148199 173.03459255344842)"><path d="M-1.39 1.24 C5.52 75.01, 2.36 155.01, 1.5 347.69" stroke="#e03131" stroke-width="2.5" fill="none" stroke-dasharray="8 10"></path></g><g transform="translate(561.1504798732028 180.63919131808916) rotate(0 0.3414451659148199 173.03459255344842)"><path d="M-7.94 325.08 C-3.52 327.85, -4.18 335.33, 2.13 348.93" stroke="#e03131" stroke-width="2.5" fill="none"></path></g><g transform="translate(561.1504798732028 180.63919131808916) rotate(0 0.3414451659148199 173.03459255344842)"><path d="M9.16 325.21 C9.77 327.87, 5.31 335.32, 2.13 348.93" stroke="#e03131" stroke-width="2.5" fill="none"></path></g></g><mask></mask><g transform="translate(816.5061197101988 931.1454968918079) rotate(0 81.2177734375 16.09999999999991)"><text x="0" y="25.760546874999996" font-family="Helvetica, Segoe UI Emoji" font-size="28px" fill="#1e1e1e" text-anchor="start" style="white-space: pre;" direction="ltr" dominant-baseline="alphabetic">Values buffer</text></g><g stroke-linecap="round" transform="translate(1117.524340250941 575.7831176612563) rotate(0 140.06363569165012 36.861048571242236)"><path d="M-1.63 1.86 L278.52 0.31 L278.66 74.36 L0.04 72.19" stroke="none" stroke-width="0" fill="#a5d8ff"></path><path d="M0 0 C68.44 1.29, 136.24 2.22, 280.13 0 M0 0 C61.79 -1.82, 124.6 -1.8, 280.13 0 M280.13 0 C279.48 19.94, 281.91 37.13, 280.13 73.72 M280.13 0 C279.61 28.49, 279.28 55.97, 280.13 73.72 M280.13 73.72 C205.28 70.71, 132.65 72.73, 0 73.72 M280.13 73.72 C168.26 74.91, 56.71 74.64, 0 73.72 M0 73.72 C-0.17 53.82, 2.53 32.93, 0 0 M0 73.72 C0.41 58.63, 0.82 42.29, 0 0" stroke="#1e1e1e" stroke-width="2" fill="none"></path></g><g transform="translate(1152.5332884425911 596.5441662324984) rotate(0 76.26171875 16.09999999999991)"><text x="0" y="25.760546874999996" font-family="Helvetica, Segoe UI Emoji" font-size="28px" fill="#1e1e1e" text-anchor="start" style="white-space: pre;" direction="ltr" dominant-baseline="alphabetic">joemarkjane</text></g><g stroke-linecap="round"><g transform="translate(635.4234425052008 526.2096550247634) rotate(0 84.98217608451132 -88.23669181131982)"><path d="M3.17 -2.93 C60.77 -58.36, 118.32 -118.17, 170.5 -175.19" stroke="#1971c2" stroke-width="2.5" fill="none" stroke-dasharray="8 10"></path></g><g transform="translate(635.4234425052008 526.2096550247634) rotate(0 84.98217608451132 -88.23669181131982)"><path d="M162.68 -153.94 C164.87 -160.75, 168.21 -168.62, 170.83 -174.41" stroke="#1971c2" stroke-width="2.5" fill="none"></path></g><g transform="translate(635.4234425052008 526.2096550247634) rotate(0 84.98217608451132 -88.23669181131982)"><path d="M150.16 -165.59 C156.5 -168.33, 164.07 -172.26, 170.83 -174.41" stroke="#1971c2" stroke-width="2.5" fill="none"></path></g></g><mask></mask><g transform="translate(816.5061197101988 317.7043410596434) rotate(0 191.9326171875 16.09999999999991)"><text x="0" y="25.760546874999996" font-family="Helvetica, Segoe UI Emoji" font-size="28px" fill="#1971c2" text-anchor="start" style="white-space: pre;" direction="ltr" dominant-baseline="alphabetic">Variable-size Binary child array</text></g><g transform="translate(816.5061197101988 741.2437185614995) rotate(0 189.8203125 16.09999999999991)"><text x="0" y="25.760546874999996" font-family="Helvetica, Segoe UI Emoji" font-size="28px" fill="#1971c2" text-anchor="start" style="white-space: pre;" direction="ltr" dominant-baseline="alphabetic">Fixed-size Primitive child array</text></g><g transform="translate(816.5061197101988 838.5609104474247) rotate(0 129.4521484375 16.09999999999991)"><text x="0" y="25.760546874999996" font-family="Helvetica, Segoe UI Emoji" font-size="28px" fill="#1e1e1e" text-anchor="start" style="white-space: pre;" direction="ltr" dominant-baseline="alphabetic">Validity bitmap buffer</text></g><g stroke-linecap="round" transform="translate(1117.8213264191963 820.2871630552618) rotate(0 99.02349231514359 34.32980207966284)"><path d="M1.26 0.84 L198.92 1.51 L196.54 69.49 L1.67 67.53" stroke="none" stroke-width="0" fill="#a5d8ff"></path><path d="M0 0 C68.77 -1.33, 135.88 -1.65, 198.05 0 M0 0 C41.06 -1.01, 83.26 -1.16, 198.05 0 M198.05 0 C196.94 15.49, 199.41 27.26, 198.05 68.66 M198.05 0 C196.87 23.21, 197.34 45.22, 198.05 68.66 M198.05 68.66 C151.27 67.66, 98.69 68.27, 0 68.66 M198.05 68.66 C149.32 68.26, 98.44 70.01, 0 68.66 M0 68.66 C0.53 53.62, -1.64 38.6, 0 0 M0 68.66 C0.05 49.81, -1.2 32.49, 0 0" stroke="#1e1e1e" stroke-width="2" fill="none"></path></g><g transform="translate(1153.5208985713352 838.5609104474247) rotate(0 61.2568359375 16.09999999999991)"><text x="0" y="25.760546874999996" font-family="Helvetica, Segoe UI Emoji" font-size="28px" fill="#1e1e1e" text-anchor="start" style="white-space: pre;" direction="ltr" dominant-baseline="alphabetic">00001011</text></g><g stroke-linecap="round"><g transform="translate(641.1473695151049 598.6140534081001) rotate(0 83.76945597357246 76.87304425782645)"><path d="M-3.04 -1.45 C53.93 44.46, 102.22 92.49, 165.25 150.54" stroke="#1971c2" stroke-width="2.5" fill="none" stroke-dasharray="8 10"></path></g><g transform="translate(641.1473695151049 598.6140534081001) rotate(0 83.76945597357246 76.87304425782645)"><path d="M140.46 139.93 C149.81 142.25, 155.27 145.99, 163.91 148.67" stroke="#1971c2" stroke-width="2.5" fill="none"></path></g><g transform="translate(641.1473695151049 598.6140534081001) rotate(0 83.76945597357246 76.87304425782645)"><path d="M152.12 127.42 C158.03 133.53, 159.95 141.07, 163.91 148.67" stroke="#1971c2" stroke-width="2.5" fill="none"></path></g></g><mask></mask><g stroke-linecap="round" transform="translate(1118.2011507572681 479.8970672227206) rotate(0 137.8466692379568 35.258306819052905)"><path d="M1.38 -1.44 L276.55 0.83 L277.67 69.37 L-0.79 69.78" stroke="none" stroke-width="0" fill="#a5d8ff"></path><path d="M0 0 C80 2.41, 160.44 1.86, 275.69 0 M0 0 C69.48 0.92, 137.96 -0.21, 275.69 0 M275.69 0 C275.62 17.4, 275.87 33.82, 275.69 70.52 M275.69 0 C276.43 20.15, 276.24 39.07, 275.69 70.52 M275.69 70.52 C190.65 69.02, 103.42 69.77, 0 70.52 M275.69 70.52 C187.96 68.96, 99.06 68.7, 0 70.52 M0 70.52 C-0.02 53.6, 0.79 37.3, 0 0 M0 70.52 C0.48 50.33, -0.71 30.39, 0 0" stroke="#1e1e1e" stroke-width="2" fill="none"></path></g><g transform="translate(1149.2844736410582 499.0553740417736) rotate(0 92.3671875 16.09999999999991)"><text x="0" y="25.760546874999996" font-family="Helvetica, Segoe UI Emoji" font-size="28px" fill="#1e1e1e" text-anchor="start" style="white-space: pre;" direction="ltr" dominant-baseline="alphabetic">0  3  3  3  7  11</text></g><g stroke-linecap="round" transform="translate(1117.524340250941 911.7350733926351) rotate(0 100.89190693477059 35.04220680752178)"><path d="M0.94 1.23 L202.26 0.93 L202.54 70.73 L0.76 69.61" stroke="none" stroke-width="0" fill="#a5d8ff"></path><path d="M0 0 C49.69 0.25, 100.11 0.7, 201.78 0 M0 0 C53.68 -1.61, 106.45 -2.22, 201.78 0 M201.78 0 C201.54 19.03, 200.33 37.21, 201.78 70.08 M201.78 0 C201.35 14.17, 201.9 30.19, 201.78 70.08 M201.78 70.08 C125.66 69.81, 48.12 69.16, 0 70.08 M201.78 70.08 C126.21 70.13, 48.12 69.49, 0 70.08 M0 70.08 C-0.27 52.39, 0.51 35.36, 0 0 M0 70.08 C1.06 56.9, -0.13 41.91, 0 0" stroke="#1e1e1e" stroke-width="2" fill="none"></path></g><g transform="translate(1154.6164424982117 930.6772802001569) rotate(0 70.0478515625 16.09999999999991)"><text x="0" y="25.760546874999996" font-family="Helvetica, Segoe UI Emoji" font-size="28px" fill="#1e1e1e" text-anchor="start" style="white-space: pre;" direction="ltr" dominant-baseline="alphabetic">1  2  _  4  _</text></g><g stroke-linecap="round"><g transform="translate(369.42237778674235 154.33002287103818) rotate(0 53.217387450451554 -4.635749969673498)"><path d="M-0.39 -0.9 C17.18 -2.5, 88.79 -8.56, 106.4 -10.07" stroke="#e03131" stroke-width="2.5" fill="none" stroke-dasharray="8 10"></path></g><g transform="translate(369.42237778674235 154.33002287103818) rotate(0 53.217387450451554 -4.635749969673498)"><path d="M83.72 0.45 C90.91 -3.55, 99.75 -9.42, 106.4 -10.07" stroke="#e03131" stroke-width="2.5" fill="none"></path></g><g transform="translate(369.42237778674235 154.33002287103818) rotate(0 53.217387450451554 -4.635749969673498)"><path d="M82.27 -16.59 C89.95 -14.08, 99.34 -13.45, 106.4 -10.07" stroke="#e03131" stroke-width="2.5" fill="none"></path></g></g><mask></mask></svg>