<svg version="1.1" xmlns="http://www.w3.org/2000/svg" viewBox="0 0 1277.753786375909 704.8071429714123" width="1277.753786375909" height="704.8071429714123">
  <!-- svg-source:excalidraw -->
  
  <defs>
    <style class="style-fonts">
      @font-face {
        font-family: "Virgil";
        src: url("https://excalidraw.com/Virgil.woff2");
      }
      @font-face {
        font-family: "Cascadia";
        src: url("https://excalidraw.com/Cascadia.woff2");
      }
      @font-face {
        font-family: "Assistant";
        src: url("https://excalidraw.com/Assistant-Regular.woff2");
      }
    </style>
    
  </defs>
  <g stroke-linecap="round" transform="translate(10 10) rotate(0 628.8768931879545 29.721659908090714)"><path d="M-3.44 3.79 L1258.4 -1.46 L1254.08 60.23 L-0.69 60.47" stroke="none" stroke-width="0" fill="#b2f2bb"></path><path d="M-0.16 0.3 C486.53 -6.75, 975.42 -7.08, 1259.07 0.09 M0.04 -0.69 C395.9 -4.66, 792.42 -3.96, 1257.27 -0.78 M1261.35 2.09 C1257.78 16.25, 1253.57 28.5, 1260.97 57.03 M1257.7 1.74 C1259.59 18.49, 1257.54 35.1, 1256.92 60.59 M1257.48 60.76 C997.52 59.16, 733.76 59.14, 1.45 60.93 M1256.97 59.56 C909.94 66.95, 562.84 67.62, 0.58 59.17 M3.44 57.46 C2.21 41.73, -0.73 32.15, -1.61 -1.7 M-0.2 60.54 C0.75 41.81, -0.55 25.82, 0.66 -0.51" stroke="#1e1e1e" stroke-width="2" fill="none"></path></g><g transform="translate(109.04725587260782 21.487338065038784) rotate(0 49.0068359375 16.100000000000023)"><text x="0" y="25.760546874999996" font-family="Helvetica, Segoe UI Emoji" font-size="28px" fill="#1e1e1e" text-anchor="start" style="white-space: pre;" direction="ltr" dominant-baseline="alphabetic">list view</text></g><g transform="translate(524.4298417345495 21.580746053695293) rotate(0 284.5583190917969 16.100000000000023)"><text x="0" y="25.760546874999996" font-family="Helvetica, Segoe UI Emoji" font-size="28px" fill="#1e1e1e" text-anchor="start" style="white-space: pre;" direction="ltr" dominant-baseline="alphabetic">Physical layout -Variable-size List View Layout</text></g><g stroke-linecap="round" transform="translate(34.47075881438661 138.45938388311697) rotate(0 132.19540239859825 177.15667817297117)"><path d="M-0.94 -0.48 L262.79 -0.22 L265.54 355.04 L1.25 352.75" stroke="none" stroke-width="0" fill="#ffc9c9"></path><path d="M0 0 C77.35 -1.62, 152.82 -1.65, 264.39 0 M0 0 C79.23 -1.85, 159.73 -2.48, 264.39 0 M264.39 0 C263.06 76.39, 263.64 154.26, 264.39 354.31 M264.39 0 C264.24 108.94, 264.21 219.35, 264.39 354.31 M264.39 354.31 C162.34 354.84, 57.09 354.51, 0 354.31 M264.39 354.31 C184.28 353.7, 104.02 352.23, 0 354.31 M0 354.31 C1.75 257.2, 2.04 159.62, 0 0 M0 354.31 C-2.61 271.6, -2.69 188.15, 0 0" stroke="#1e1e1e" stroke-width="2" fill="none"></path></g><g stroke-linecap="round"><g transform="translate(42.59934501629016 197.44747572704955) rotate(0 125.80054181061894 -0.7103877226369377)"><path d="M0 0 C98.89 -0.47, 196.89 -1.21, 251.6 -0.94 M0 0 C101.07 -1.37, 200.05 -1.88, 251.6 -0.94" stroke="#1e1e1e" stroke-width="2" fill="none"></path></g></g><mask></mask><g transform="translate(108.09389558798478 152.03998658497426) rotate(0 56.900001525878906 16.100000000000023)"><text x="0" y="25.760546874999996" font-family="Helvetica, Segoe UI Emoji" font-size="28px" fill="#1e1e1e" text-anchor="start" style="white-space: pre;" direction="ltr" dominant-baseline="alphabetic">column 3</text></g><g transform="translate(99.73549715048478 222.92289435143175) rotate(0 66.92500305175781 16.09999999999991)"><text x="0" y="25.760546874999996" font-family="Helvetica, Segoe UI Emoji" font-size="28px" fill="#1e1e1e" text-anchor="start" style="white-space: pre;" direction="ltr" dominant-baseline="alphabetic">[12, -7, 25]</text></g><g transform="translate(144.87319246298478 273.9127489762868) rotate(0 21.78333282470703 16.09999999999991)"><text x="0" y="25.760546874999996" font-family="Helvetica, Segoe UI Emoji" font-size="28px" fill="#1e1e1e" text-anchor="start" style="white-space: pre;" direction="ltr" dominant-baseline="alphabetic">null</text></g><g transform="translate(60.811669025484775 325.6386115598116) rotate(0 105.84166717529297 16.09999999999991)"><text x="0" y="25.760546874999996" font-family="Helvetica, Segoe UI Emoji" font-size="28px" fill="#1e1e1e" text-anchor="start" style="white-space: pre;" direction="ltr" dominant-baseline="alphabetic">[0, -127, 127, 50]</text></g><g transform="translate(158.88686433798478 377.07418067323397) rotate(0 7.7833333015441895 16.09999999999991)"><text x="0" y="25.760546874999996" font-family="Helvetica, Segoe UI Emoji" font-size="28px" fill="#1e1e1e" text-anchor="start" style="white-space: pre;" direction="ltr" dominant-baseline="alphabetic">[]</text></g><g stroke-linecap="round" transform="translate(432.8279698766406 122.4298817100464) rotate(0 72.28797794313596 18.9832559125648)"><path d="M0 0 C0 0, 0 0, 0 0 M0 0 C0 0, 0 0, 0 0 M-0.45 5.12 C1.2 5.27, 3.91 0.52, 6.23 -0.97 M-0.62 6.82 C1.51 4.03, 3.3 2.89, 4.65 1.1 M2.18 12.96 C0.88 6.77, 6.35 -0.16, 12.06 -2.79 M1.26 11.36 C3.72 7.29, 4.54 4.07, 10.46 1.4 M-3.77 18.58 C4.59 11.85, 8.01 8.52, 12.72 0.73 M-0.59 18.92 C1.89 16.05, 6.74 8.41, 15.23 -1.19 M-0.73 27.72 C8.08 15.67, 13.29 8.57, 20.53 -2.98 M-1.27 23.93 C5.42 19.64, 9.69 15.48, 22.96 -2.04 M1.37 29.29 C11.86 19.19, 20.27 6.04, 26.8 3.81 M-0.57 30.17 C7.2 22.33, 15.8 15.02, 25.06 -0.89 M-1.85 39.76 C8.63 20.06, 26.65 8.11, 30.43 -2.71 M-1.94 38.63 C13.8 24.09, 22.83 9.59, 31.58 -0.95 M0.47 41.87 C12.53 28.51, 21.29 21.49, 40.26 2.25 M4.15 36.66 C14.63 25.58, 26.06 15.03, 36.4 1.13 M5.24 35.73 C20.98 27.4, 34.27 8.5, 39.59 2.75 M10.07 39.97 C16.11 31.09, 24.12 20.79, 40.77 0.84 M15.12 37.22 C21.6 25.48, 38.94 12.57, 44.15 0.92 M13.93 37.9 C21.49 26.92, 33.45 18.44, 46.47 -0.55 M16.55 40.8 C32.99 26.94, 39.57 17.96, 50.62 -0.3 M20.68 39.09 C31.35 25.29, 46.72 10.45, 51.45 1.67 M22.89 35.7 C33.43 21.8, 45.23 9.67, 54.62 -2.43 M24.41 38.57 C33.54 28.85, 38.31 22.55, 58.92 1.22 M28.45 40.73 C39.81 33.01, 48.19 19.06, 63.23 3.32 M29.49 39.41 C39.12 31.56, 43.8 19.77, 65 -1.51 M36.99 38.99 C40.69 24.81, 54.74 17.33, 64.97 -1.2 M34.2 38.34 C47.04 23.59, 57.31 13.18, 67.84 2.15 M39.72 36.63 C46.9 26.16, 56.39 20.26, 74.29 1.66 M39.83 39.39 C51.31 28.29, 59.43 18.75, 75.23 -1.23 M43.78 37.62 C57.02 22.45, 69.58 12.56, 77.61 4.11 M46.35 39.46 C57.31 24.55, 71.26 9.58, 77.75 -1.5 M50.27 38.49 C61.52 26.17, 74.9 8.44, 85.78 3.65 M53.49 38.03 C60.12 29.26, 70.15 20.51, 84.38 0.58 M58.73 35.04 C65.21 26.21, 74.76 17.51, 88.09 -2.14 M56.37 38.71 C71.44 22.08, 82.98 9.12, 91.62 -0.9 M61.15 41.17 C71.03 24.8, 85.95 8.95, 96.8 -0.91 M62.67 38.93 C70.26 31.85, 74.67 22.95, 95.13 0.52 M70.45 39.55 C82.17 23.84, 93.1 15.33, 101.08 -2.71 M68.18 39.48 C81.71 22.05, 94.65 9.86, 98.85 1.36 M74.52 40.42 C81.05 22.92, 92.13 12.08, 103.57 -1.33 M74.02 38.23 C84.8 26.37, 95.66 10.16, 106.61 -2.22 M80.68 40.32 C94.02 23.17, 104.94 7.3, 114.35 -3.48 M78.16 39.67 C92.09 24.07, 103.78 8.28, 111.27 -0.76 M85.68 40.85 C93.69 29.84, 98.39 19.54, 114.79 2.68 M84.64 36.63 C91.77 25.75, 103.42 13.08, 117.71 -1.16 M88.25 39.41 C99.74 30.34, 104.91 15.96, 118.83 -1.46 M87.12 35.8 C100.21 26.89, 109.18 12.74, 123.17 -0.75 M91.04 39.95 C103.68 29.91, 106.21 19.05, 130.26 -1.95 M94.05 39.42 C106.52 22.46, 119.16 11.37, 125.74 -1.49 M97.16 35.74 C103.35 31.21, 113.81 19.87, 130.57 -0.79 M100.29 38.89 C109.93 24.72, 118.13 12.24, 131.26 0.47 M104.14 36.09 C117.9 25.59, 126.72 19.87, 136.92 2.84 M104.21 36.41 C114.16 27.85, 124.33 16.02, 138.49 0.39 M107.84 41.87 C116.19 28.77, 130.83 13.01, 142.71 3.28 M110.7 39.33 C118.32 26.1, 130.93 14.54, 142.69 -1.45 M115.65 36.5 C126.62 25.4, 128.08 16.64, 148.88 2.23 M115.53 38.02 C124.56 26.58, 135.07 14.4, 146.19 4.93 M119.84 40.98 C129.58 27.72, 135.1 24.9, 149.04 10.17 M121.79 39.78 C128.7 31.73, 134.84 23.69, 146.52 11.51 M125.36 41.31 C127.58 29.65, 137.32 31.32, 142.08 14.08 M126.85 39.19 C129.59 30.5, 136.13 25.36, 144.25 14.92 M127.86 39.36 C130.27 37.56, 137.64 34.91, 143.52 18.81 M131.46 39.74 C132.46 33.76, 137.17 29.7, 145.34 20.58 M135.04 36.35 C139.74 36.1, 141.37 32.51, 144.86 27.88 M135.85 38.92 C139.15 34.5, 143.75 30.39, 144.14 26.97 M141.24 38.64 C142.25 37.58, 144.74 34.84, 146.48 33.94 M141.94 37.76 C143.1 36.73, 143.7 35.69, 144.95 33.49" stroke="#ffc9c9" stroke-width="0.5" fill="none"></path><path d="M0.65 -2.32 C33.94 -1.36, 63.31 -2.18, 141.99 2.1 M1.79 -0.64 C31.11 -0.19, 59.81 -3.1, 143.6 0.07 M148.33 0.59 C140.42 8.18, 140.35 17.88, 143.41 39.46 M146.4 1.56 C143.2 12.84, 142.94 23.38, 143.64 37.48 M146.03 40.47 C109.66 36.31, 79.65 36.95, 2.5 37.83 M143.36 37.75 C111.57 39.21, 75.81 38.64, 1.88 38.34 M-2.57 40.11 C-1.98 19.95, 3.07 10.99, 1.07 -2.2 M-1.93 39.22 C0.03 28.44, 0.3 22.01, -0.82 1.08" stroke="#e03131" stroke-width="1" fill="none"></path></g><g transform="translate(449.8494484429299 125.3131376226113) rotate(0 56.900001525878906 16.100000000000023)"><text x="0" y="25.760546874999996" font-family="Helvetica, Segoe UI Emoji" font-size="28px" fill="#1e1e1e" text-anchor="start" style="white-space: pre;" direction="ltr" dominant-baseline="alphabetic">column 3</text></g><g transform="translate(622.6375523678089 125.3131376226113) rotate(0 130.03334045410156 16.100000000000023)"><text x="0" y="25.760546874999996" font-family="Helvetica, Segoe UI Emoji" font-size="28px" fill="#1e1e1e" text-anchor="start" style="white-space: pre;" direction="ltr" dominant-baseline="alphabetic">Validity bitmap buffer</text></g><g stroke-linecap="round"><g transform="translate(376.26241492295514 15.338940182868555) rotate(0 -0.6026480402952359 22.69382243230416)"><path d="M-1.29 1.05 C-1.78 14.24, 0.96 28.38, -0.64 45.35 M-0.49 0.04 C-0.71 15.2, 0.05 32.63, 0.15 43.51" stroke="#1e1e1e" stroke-width="2" fill="none"></path></g></g><mask></mask><g stroke-linecap="round"><g transform="translate(315.8514682455125 176.20834646289222) rotate(0 50.169638511059475 -17.448651111151662)"><path d="M-3.65 1.9 C30.64 -7.44, 55.87 -19.1, 103.99 -36.79" stroke="#e03131" stroke-width="2.5" fill="none" stroke-dasharray="8 10"></path></g><g transform="translate(315.8514682455125 176.20834646289222) rotate(0 50.169638511059475 -17.448651111151662)"><path d="M83.23 -19.53 C91.35 -23.33, 95.07 -28.74, 105.12 -37.35" stroke="#e03131" stroke-width="2.5" fill="none"></path></g><g transform="translate(315.8514682455125 176.20834646289222) rotate(0 50.169638511059475 -17.448651111151662)"><path d="M77.17 -35.52 C86.88 -34.9, 92.28 -35.85, 105.12 -37.35" stroke="#e03131" stroke-width="2.5" fill="none"></path></g></g><mask></mask><g stroke-linecap="round" transform="translate(918.283822434207 107.06868710544836) rotate(0 100.55863544604938 33.77222580332102)"><path d="M1.59 1.63 L202.1 -1.28 L202.19 66.86 L-1.81 69.39" stroke="none" stroke-width="0" fill="#a5d8ff"></path><path d="M0 0 C71.7 0.75, 141.17 -0.03, 201.12 0 M0 0 C71.3 1.64, 142.95 1.02, 201.12 0 M201.12 0 C199.92 20.92, 199.88 42.6, 201.12 67.54 M201.12 0 C201.76 17.65, 202.28 37.37, 201.12 67.54 M201.12 67.54 C158.56 64.96, 113.64 64.36, 0 67.54 M201.12 67.54 C143.57 67.5, 84.15 67.89, 0 67.54 M0 67.54 C-1.71 52.01, -0.54 34.85, 0 0 M0 67.54 C-0.68 48.43, 0.59 28.65, 0 0" stroke="#1e1e1e" stroke-width="2" fill="none"></path></g><g transform="translate(959.6591758363459 125.3131376226113) rotate(0 62.266666412353516 16.100000000000023)"><text x="0" y="25.760546874999996" font-family="Helvetica, Segoe UI Emoji" font-size="28px" fill="#1e1e1e" text-anchor="start" style="white-space: pre;" direction="ltr" dominant-baseline="alphabetic">00011101</text></g><g stroke-linecap="round"><g transform="translate(504.02823693879475 171.56557923613104) rotate(0 18.03635746007211 130.47759409027083)"><path d="M0.11 -1.85 C4.84 72.6, 20.42 144.3, 35.96 262.81" stroke="#e03131" stroke-width="2.5" fill="none" stroke-dasharray="8 10"></path></g><g transform="translate(504.02823693879475 171.56557923613104) rotate(0 18.03635746007211 130.47759409027083)"><path d="M24.23 239.6 C25.88 247.17, 32.26 253.12, 34.13 262.32" stroke="#e03131" stroke-width="2.5" fill="none"></path></g><g transform="translate(504.02823693879475 171.56557923613104) rotate(0 18.03635746007211 130.47759409027083)"><path d="M41.15 237.16 C38.18 245.32, 39.95 251.93, 34.13 262.32" stroke="#e03131" stroke-width="2.5" fill="none"></path></g></g><mask></mask><g transform="translate(499.3952779293445 636.5588474513743) rotate(0 81.60832977294922 16.09999999999991)"><text x="0" y="25.760546874999996" font-family="Helvetica, Segoe UI Emoji" font-size="28px" fill="#1e1e1e" text-anchor="start" style="white-space: pre;" direction="ltr" dominant-baseline="alphabetic">Values buffer</text></g><g transform="translate(622.1621323424404 218.09573982881966) rotate(0 76.90833282470703 16.09999999999991)"><text x="0" y="25.760546874999996" font-family="Helvetica, Segoe UI Emoji" font-size="28px" fill="#1e1e1e" text-anchor="start" style="white-space: pre;" direction="ltr" dominant-baseline="alphabetic">Offset buffer</text></g><g transform="translate(499.3952779293445 545.8723785941929) rotate(0 130.03334045410156 16.09999999999991)"><text x="0" y="25.760546874999996" font-family="Helvetica, Segoe UI Emoji" font-size="28px" fill="#1e1e1e" text-anchor="start" style="white-space: pre;" direction="ltr" dominant-baseline="alphabetic">Validity bitmap buffer</text></g><g stroke-linecap="round" transform="translate(831.0674027686412 615.7977988801322) rotate(0 201.70976564776896 39.50467204564006)"><path d="M-0.82 1.08 L402.87 -1.46 L402.29 78.34 L-0.61 77.91" stroke="none" stroke-width="0" fill="#a5d8ff"></path><path d="M0 0 C116.5 -0.41, 232.41 0.18, 403.42 0 M0 0 C151.86 -1.61, 304.54 -2.05, 403.42 0 M403.42 0 C404.06 18.62, 401.76 33.07, 403.42 79.01 M403.42 0 C402.86 20.35, 403 41.92, 403.42 79.01 M403.42 79.01 C307.63 79.83, 210.73 81.25, 0 79.01 M403.42 79.01 C275.19 80.49, 146.71 80.66, 0 79.01 M0 79.01 C-0.19 61.36, -2.13 45.69, 0 0 M0 79.01 C0.74 49.64, 0.87 21.82, 0 0" stroke="#1e1e1e" stroke-width="2" fill="none"></path></g><g transform="translate(866.0763509602913 636.5588474513743) rotate(0 164.98333740234375 16.09999999999991)"><text x="0" y="25.760546874999996" font-family="Helvetica, Segoe UI Emoji" font-size="28px" fill="#1e1e1e" text-anchor="start" style="white-space: pre;" direction="ltr" dominant-baseline="alphabetic">0  -127  127  50  12  -7  25</text></g><g stroke-linecap="round" transform="translate(917.639291184207 201.46504217811412) rotate(0 110.76723108025385 34.27865343344513)"><path d="M-1.13 -0.67 L220.92 -1.1 L221.47 68.32 L1.26 69.2" stroke="none" stroke-width="0" fill="#a5d8ff"></path><path d="M0 0 C76.36 -3.19, 151.5 -3.41, 221.53 0 M0 0 C77.71 0.37, 157.3 0.78, 221.53 0 M221.53 0 C220.31 23.52, 222.25 49.64, 221.53 68.56 M221.53 0 C221 16.04, 222.13 33, 221.53 68.56 M221.53 68.56 C162.67 71.73, 104.58 71.21, 0 68.56 M221.53 68.56 C168.52 68.7, 117.47 68.14, 0 68.56 M0 68.56 C1.81 49.83, 1.73 34.92, 0 0 M0 68.56 C-0.49 51.25, -0.35 32.13, 0 0" stroke="#1e1e1e" stroke-width="2" fill="none"></path></g><g transform="translate(959.4126888171928 219.65089894527705) rotate(0 70.05000305175781 16.100000000000023)"><text x="0" y="25.760546874999996" font-family="Helvetica, Segoe UI Emoji" font-size="28px" fill="#1e1e1e" text-anchor="start" style="white-space: pre;" direction="ltr" dominant-baseline="alphabetic">4  7  0  0  3</text></g><g transform="translate(831.0674027686412 544.0492015108593) rotate(0 30.975000381469727 17.5)"><text x="0" y="24.528" font-family="Virgil, Segoe UI Emoji" font-size="28px" fill="#1971c2" text-anchor="start" style="white-space: pre;" direction="ltr" dominant-baseline="alphabetic">None</text></g><g transform="translate(624.4365319889876 315.4148067629958) rotate(0 66.39167022705078 16.09999999999991)"><text x="0" y="25.760546874999996" font-family="Helvetica, Segoe UI Emoji" font-size="28px" fill="#1e1e1e" text-anchor="start" style="white-space: pre;" direction="ltr" dominant-baseline="alphabetic">Size buffer</text></g><g stroke-linecap="round" transform="translate(920.5582220807541 297.2361533295507) rotate(0 108.85074221323077 34.278653433445015)"><path d="M1.03 -1.31 L218.44 0.88 L215.72 68.66 L1.8 69.98" stroke="none" stroke-width="0" fill="#a5d8ff"></path><path d="M0 0 C52.83 2.43, 103.19 0.06, 217.7 0 M0 0 C84.2 1.12, 169.01 1.31, 217.7 0 M217.7 0 C219.46 27.68, 217.42 52.43, 217.7 68.56 M217.7 0 C216.24 19.35, 217.13 37.64, 217.7 68.56 M217.7 68.56 C141.29 70.8, 66.63 70.87, 0 68.56 M217.7 68.56 C166.55 69.2, 114.93 69.26, 0 68.56 M0 68.56 C-2.24 50.72, -0.92 31.29, 0 0 M0 68.56 C-1.54 41.51, -1.14 17.25, 0 0" stroke="#1e1e1e" stroke-width="2" fill="none"></path></g><g transform="translate(963.33161971374 315.4220100967141) rotate(0 70.05000305175781 16.09999999999991)"><text x="0" y="25.760546874999996" font-family="Helvetica, Segoe UI Emoji" font-size="28px" fill="#1e1e1e" text-anchor="start" style="white-space: pre;" direction="ltr" dominant-baseline="alphabetic">3  0  4  0  2</text></g><g stroke-linecap="round" transform="translate(459.4751790783214 449.0823804775473) rotate(0 309.57588006692885 23.725389222577405)"><path d="M0 0 C0 0, 0 0, 0 0 M0 0 C0 0, 0 0, 0 0 M0.57 5.93 C-0.17 4.98, 1.83 3.54, 6.07 1.44 M-0.57 6.95 C1.42 5.25, 3.21 3.65, 4.54 -0.05 M-2.29 13.48 C1.76 9.82, 4.43 5.99, 13.1 0.79 M-0.01 10.84 C3.41 6.9, 7.32 6.02, 9.53 -0.68 M-2.98 16.69 C4.71 11.46, 6.99 12.36, 12.27 -0.15 M-0.04 17.45 C4.39 13.31, 6.54 9.65, 15.55 1.41 M0.02 23.42 C6.96 15.57, 18.64 5.2, 17.7 0.5 M-1.24 23.08 C6.76 15.06, 14.42 7.26, 22.8 -0.16 M0.51 34.23 C12.43 14.94, 23.16 3.95, 25.54 -2.84 M-1.05 29.55 C9.36 17.95, 16.51 9.31, 27.21 0.39 M0.69 39.4 C7.95 21.69, 25.74 12.92, 33.03 0.07 M0.84 36.89 C7.65 28.26, 18.43 15.81, 32.74 -1.22 M-0.16 42.22 C7.94 27.41, 23.85 23.3, 33.1 -1.71 M-1.1 40.9 C8.22 30.32, 20.03 19.02, 36.27 2.14 M0.21 49.32 C7.73 33.98, 16.42 27.09, 42.87 -1.56 M-1.17 46.32 C15.57 29.6, 33.54 8.06, 43.22 -1.37 M5.57 51.09 C15.26 40.93, 21.97 27.91, 49.66 3.42 M7.11 46.12 C20.33 34.4, 30.62 18.19, 48.62 -0.92 M11.33 46.05 C22.78 27.62, 43.04 12.04, 55.51 3.22 M12.38 48.75 C25.68 28.1, 41.71 10.88, 52.83 -1.4 M14.19 48.48 C28.29 38.46, 37.71 24.62, 55.1 1.61 M18.12 48.66 C31.51 31.37, 46.09 10.82, 58.56 -1.79 M25.55 48.46 C34.27 35.75, 41.07 28.11, 64.36 -1.09 M23.22 49.23 C33.56 35.89, 44.51 24.5, 62.6 -1.55 M28.01 50.65 C38.92 26.52, 61.14 9.16, 66.39 2.77 M25.6 48.34 C43.33 28.4, 59.05 11.72, 68.84 1.06 M33.37 44.99 C49.09 32.45, 58.75 16.18, 71.97 2.86 M31.33 48.07 C46.98 31.55, 60.74 16.86, 75.99 -1.48 M39.09 45.48 C48.83 39.44, 55.52 26.92, 81.62 -2.29 M38.27 48.24 C52.04 31.41, 66.68 16.58, 78.63 -0.24 M46.37 44.93 C62.48 31.54, 76.24 9.65, 82.01 1.33 M41.15 48.12 C54.47 33.8, 63.78 22.52, 86.9 -0.29 M47.93 46.46 C60.98 38.38, 71.25 24.44, 88.03 -1.89 M46.62 48.75 C54.98 37.68, 66.5 28.97, 91.57 0.99 M57.3 46.47 C65.74 33.64, 78.83 10.81, 99.26 -2.57 M53.56 46.82 C64.03 36.21, 74.63 27.34, 95.68 -0.53 M58.12 49.69 C73.9 34.91, 86.22 21.08, 101.97 -3.48 M57.56 48.57 C70.42 34.69, 80.04 26.26, 99.69 1.98 M64 44.64 C82.44 29.56, 93.66 16.63, 105.64 3.14 M65.85 48.15 C79.94 30.42, 97.55 12.76, 105.09 -0.17 M72.44 46.42 C79.02 34.17, 92.21 17.94, 112.93 -1.63 M70.45 49.23 C82.17 35.28, 93.35 22.43, 111.51 -1.47 M77.45 47.39 C87.04 32.15, 106.77 7.8, 115.54 0.09 M75.77 46.66 C89.5 33.16, 105.79 14.34, 115.71 0.11 M79.43 52.01 C95.69 27.58, 114.4 10.19, 123.5 -2.04 M79.76 48.07 C87.71 36.56, 97.14 28.6, 119.95 1.01 M81.76 51.52 C98.42 35.79, 110.19 17.4, 130.43 0.5 M85.51 47.48 C98.41 33.49, 107.91 19.65, 128.48 1.96 M92.74 50.71 C101.06 36.66, 107.53 23.05, 133.4 2.48 M90.39 46.98 C106.75 30.11, 120.29 15.73, 134.39 -1.65 M98.15 50.69 C107.05 36.76, 116.15 21.88, 134.95 3.75 M97.68 46.27 C107.38 34.16, 121.62 16.34, 136.84 1.85 M103.18 51.63 C112.33 32.76, 128.93 19.84, 139.51 -0.04 M101.68 48.41 C110.79 37.66, 121.09 28.18, 144.63 -1.97 M104.98 51.48 C121.07 32.45, 131.52 14.29, 147.51 1.33 M107.34 49.28 C117.69 35.58, 124.23 24.36, 149.33 0.03 M110.65 48.76 C120.15 35, 132.63 21.25, 151.79 -0.65 M111.4 47.38 C120.42 40.75, 127.68 28.1, 152.91 -1.89 M117.73 49.29 C131.87 34.15, 146.94 10.79, 155.66 1.6 M118 49.31 C127.17 35.59, 137.16 23.49, 156.89 1.35 M124.2 44.96 C134.53 34.99, 137.8 28.08, 161.35 -1.56 M123.78 47.49 C132.7 34.03, 147.06 22.76, 165.92 -0.8 M124.99 44.44 C137.13 28.78, 152.39 17.36, 172.06 -2.2 M129.57 49.72 C143.96 28.02, 159.17 10.93, 168.94 -0.81 M129.99 51.98 C142.44 35.15, 161.47 22.89, 172.41 -0.09 M133.46 48.87 C143.75 31.62, 160.06 17.17, 174.79 0.48 M136.51 50.11 C151.84 36.73, 156.17 23.69, 178.5 0.05 M138.43 48.44 C148.06 36.54, 159.39 22.12, 181.32 -0.47 M147.32 50.43 C150.59 36, 164.53 24.61, 186.34 3.31 M145.52 48.24 C153.58 33.49, 166.99 21.17, 187.05 -0.32 M151.13 44.34 C163.36 33.05, 172.02 20.3, 189.9 3.34 M149.39 45.96 C160.56 34.51, 172.11 21.61, 192.29 0.87 M156.6 45.8 C169.36 31.24, 181.24 20.94, 193.6 -2.92 M155.5 46.86 C165.4 32.35, 182.55 18, 194.72 1.12 M156.83 50.06 C169.88 40.47, 176.72 24.15, 198.3 3.53 M159.7 49.32 C170.42 37.35, 178.02 24.44, 202.58 -1.7 M163.37 44.46 C179.59 27.01, 196.87 8.66, 205.8 -1.49 M165.36 46.56 C179.56 34.07, 193.35 18.36, 206.23 -0.35 M170.05 47.84 C179.69 37.26, 190.88 26.7, 212.86 -2.63 M170.37 48.91 C182.92 30.41, 197.88 13.66, 211.33 -0.54 M174.29 45.64 C190.27 37.26, 205.35 20.95, 215.68 -2.22 M175.51 49.75 C185.82 36.66, 194.59 25.71, 218.44 0.69 M182.35 44.84 C189.69 29.73, 207.83 17.24, 219.89 -1.54 M180.85 47.38 C198.22 27.64, 213.18 10.24, 224.14 0.57 M189.17 49.46 C204.14 32.05, 216.04 14.73, 229.08 -2.06 M184.77 47.38 C200.15 30.27, 215.66 13, 228.66 0.25 M188.41 47.36 C204.99 35.57, 214.15 19.72, 230.78 -2.69 M193.03 48.23 C204.22 33.28, 217.31 15.02, 233.02 -1.6 M192.91 48.92 C215.54 28.24, 225.86 16.21, 240.32 -0.32 M198.43 46.97 C211.86 28.14, 228.63 11.8, 237.98 1.62 M204.71 49.84 C215.47 29.66, 230.62 11.89, 242.09 1.26 M201.91 48.77 C211.11 37.7, 220.84 24.65, 244.45 -1.73 M203.56 45.87 C222.82 28.33, 241.66 13.83, 250.83 -1.7 M208.2 48.6 C217.6 33.66, 229.72 20.26, 249.9 0.41 M212.87 51.58 C223.8 32.98, 234.7 20.73, 251.48 2.58 M210.92 48.85 C226.5 33.87, 239.47 16.54, 255.33 -1.91 M216.28 51.06 C233.86 29.01, 243.76 11.44, 257.17 4.21 M216.23 48.92 C228.59 32.52, 240.3 22.87, 258.38 1.05 M223.6 48.75 C229.48 39.02, 242.62 24.52, 265.74 2.36 M223.93 46.9 C234.75 33.43, 251.49 17.19, 264.99 0.31 M227.36 44.11 C243.92 28, 261.29 7.17, 269.7 -0.02 M227.11 49.14 C241.35 33.98, 253.92 23.15, 270.48 1.79 M236.76 50.41 C241.05 36.06, 255.96 29.73, 276.78 2.6 M233.25 47.92 C247.67 33.58, 262.8 19.17, 275.21 -0.05 M242.22 45.49 C248.37 40.18, 263.81 22.25, 279.9 -2.96 M239.87 47.03 C253.85 29.96, 269.03 10.41, 281.69 -0.58 M241.33 46.49 C253.17 32.85, 271.5 21.45, 285.66 -1.83 M243.63 47.44 C254.91 35.27, 267.72 25.96, 286.2 0.59 M251.4 44.59 C260.38 33.77, 276.41 21.68, 292.36 3.68 M251.97 48.91 C264.92 34.17, 275.53 19.43, 291.94 1.3 M255.41 47.79 C273.37 34.59, 283.29 14.62, 294.52 0.8 M256.24 47.6 C269.02 31.95, 283.25 15.63, 296.62 -1.61 M262.56 47.63 C270.83 32.61, 282.01 17.6, 300.83 1.08 M259.31 45.7 C271.53 36.52, 281.19 22.84, 301.61 1.37 M262.23 45.98 C281.92 25.29, 299.58 7.48, 306.67 -0.89 M264.71 49.06 C280.14 32.19, 294.16 18.21, 307.56 -1.96 M268.51 45.73 C285.58 34.56, 299.64 21.58, 312.15 -0.7 M272.23 48.83 C285.71 29.69, 299.99 12.7, 311.5 0.11 M274.15 45.62 C287.99 28.79, 301.83 15.51, 318.53 -1.41 M275.09 47.07 C289.16 36.38, 299.77 21.69, 318.53 0.82 M278.49 47.65 C296.96 34.44, 307.97 12.89, 322.29 -2.74 M282.86 47.1 C289.94 34.66, 302.87 22.34, 322.87 0.58 M284.64 48.14 C297.17 34.71, 317.48 16.41, 327.62 -2.39 M285.88 47.42 C293.44 39.68, 302.82 26.29, 327.51 0.56 M288.85 44.73 C296.99 41.34, 313.25 30.36, 332.37 -1.23 M291.71 47.57 C301.91 37.02, 311.44 26.53, 333.38 0.38 M300.31 51.84 C310.3 35.8, 321.51 24.5, 340.62 3.41 M296.02 46.49 C308.68 34.75, 319.79 21.54, 338.9 -0.34 M303.12 47.46 C315.88 36.33, 326.23 19.7, 340.62 -3.49 M303.78 48.15 C313.53 35.91, 325.06 22.94, 345.16 -0.3 M308.88 51.89 C322.21 27.57, 340.17 13.53, 348.67 0.85 M308.87 47.18 C322.32 33.59, 333.3 19.69, 350.87 1.83 M310.59 50.47 C326.2 30.47, 343.97 11.15, 358.38 -3.98 M311.17 46.53 C329.71 31.74, 346.63 13.1, 356.77 1.28 M319.21 48.36 C331.32 27.16, 347.96 13.15, 361.98 -2.58 M320.23 47.01 C331.11 34.34, 339.21 22.24, 362.03 1.08 M325.65 49.25 C330.9 35.92, 342.41 24.61, 362.13 -0.26 M324.39 49 C332.8 38.08, 339.28 30.02, 367.21 -1.59 M329.27 46.16 C341.7 26.29, 357.86 16.88, 373.95 3.74 M330.37 46.01 C345.47 33.33, 357.81 17.46, 371.42 2.25 M331.87 48.16 C341.09 34.02, 351.79 23.14, 373.49 -1.03 M332.42 46.38 C347.72 29.98, 361.5 14.18, 375.9 -1.03 M342.18 47.1 C351.05 30.6, 361.38 23.63, 379.74 -1.46 M339.95 46.81 C354.19 32.65, 366.71 14.09, 381.19 1.99 M345.9 44.43 C361.45 34.54, 368.01 20.5, 387.17 -2.12 M346.64 50.07 C359.08 30.29, 376.63 14.78, 386.72 1.37 M350.16 49.87 C365.53 31.07, 383.83 6.38, 391.65 1.45 M350.1 46.57 C360.47 35.93, 373.2 22.3, 391.94 1.49 M353.53 44.19 C365.45 37.38, 376.31 25.17, 395.03 -2.47 M356.92 48.03 C367.63 33.62, 380.17 18.13, 395.97 -1.39 M358.55 50 C375.91 27.65, 395.11 7.3, 399.09 0.95 M362.37 49.05 C378.34 29.19, 390.97 13.08, 402.69 -1.46 M365.69 46.43 C375.79 37.28, 392.83 24.12, 410.05 -4.16 M367.5 48.78 C383.79 29.44, 396.82 12.38, 408.4 -1.76 M369.85 47.93 C389.32 26.5, 407.01 5.97, 416.59 2.4 M370.76 48.53 C383.33 32.1, 397.46 16.99, 414.91 -0.53 M378.41 51.01 C383.27 35.1, 398 24.67, 418.33 3.62 M377.12 49.4 C388.41 36.98, 399.72 25.05, 417.2 -1.63 M383.65 48.96 C390.42 35.01, 401.38 24.42, 427.83 4.06 M381.71 45.89 C395.81 33.46, 406.74 22.65, 424.5 -0.84 M388.85 50.67 C400.33 31.17, 415.53 17.25, 427.1 -3.44 M386.93 47.54 C398.71 36.31, 410.77 24.14, 427.97 -0.32 M396.03 48.03 C399.25 36.91, 412.9 25.56, 433.6 -2.97 M393.43 49.3 C404.26 32.45, 420.26 18.17, 433.79 1.09 M395.32 47.02 C408.8 33.58, 418.29 23.98, 440.72 3.18 M396.51 49.4 C412.67 34.26, 422.99 20.44, 438.79 1.41 M402.16 50.68 C419.43 34.45, 428.25 14.91, 443.81 -2.7 M402.53 47.25 C414.24 37.91, 422.63 25.08, 443.57 1.26 M405.22 50.56 C426.57 27.62, 437.32 18.12, 452.66 0.94 M407.88 49.76 C423.61 32.17, 435.95 19.82, 452.14 1.37 M416.34 45.58 C425.54 41.08, 429.45 27.78, 453.5 -2.26 M412.11 49.04 C422.83 36.52, 430.29 28.27, 457.04 0.27 M419.09 48.66 C427.15 32.02, 439.01 22.32, 461.52 -3.87 M417.52 47.95 C430.27 33.14, 445.76 18.58, 462.95 -0.1 M426.7 49.55 C437.89 33.86, 446.36 16.43, 466.84 0.09 M426.34 49.79 C437.84 32.9, 449.21 20.26, 467.85 -0.75 M430.61 45.54 C443.61 29.93, 463.13 13.89, 470.39 0.68 M428.32 47.86 C444.43 34.31, 456.64 19.94, 469.95 0.71 M434.45 52.26 C447.21 42.65, 454.83 30.66, 473.13 -1.03 M433.86 47.17 C446.99 32.1, 459.82 17.12, 476.11 -0.07 M442.56 46.34 C453.2 40.34, 465.84 22.6, 481.41 -2.87 M441.63 45.96 C452.18 32.33, 466.82 18.59, 482.25 -0.24 M445.96 48.26 C461.35 34.08, 474.11 18.18, 486.77 -2.14 M443.71 49.42 C460.9 30.37, 473.27 16.29, 488.33 0.56 M450.86 49.02 C460.31 36.23, 475.92 21.7, 491.93 -0.83 M453.21 47.26 C457.88 37.51, 467.1 25.74, 491.44 1.86 M456.69 44.98 C468.13 38.95, 478.55 29.28, 499.31 1.13 M457.39 47.35 C467.89 34.69, 480.97 21.06, 497.47 -0.03 M460.55 44.48 C471.64 38.04, 480.72 23.12, 505.03 0.6 M461.29 49.34 C472 33.07, 486.3 18.95, 502.2 1.63 M467.25 46.72 C480.87 32.84, 494.72 18.51, 511.41 -1.98 M468.84 46.31 C479.47 31.88, 493.31 16.7, 506.94 1.58 M469.8 48.43 C485.08 29.02, 504.27 9.63, 512.96 0.1 M474.51 46.36 C485.63 34.93, 496.2 21.67, 515.66 0.24 M475.38 46.67 C491.33 28.16, 511.15 14, 516.87 2.64 M476.42 46.24 C488.83 31.89, 504.96 18.79, 518.58 1.33 M485.89 45.51 C496.49 35.12, 508.62 14.12, 521.06 1.22 M483.97 49.01 C495.94 29.8, 510.37 13.76, 525.36 1.44 M491.92 50.87 C497.26 40.09, 507.46 20.78, 526.6 -2.01 M486.95 49.63 C501.78 29.14, 518.53 11.13, 528.67 -0.26 M493.25 45.19 C509.2 32.55, 525.02 10.22, 531.8 -3.6 M495.18 48.58 C504.61 37.26, 513.52 27.64, 533.31 -0.47 M500.85 46.25 C515 30.29, 531.82 9.11, 544.64 -0.07 M499.66 49.52 C509.93 37.19, 517.08 27.82, 539.91 -2.11 M501.41 49.84 C514.58 40.22, 520.85 21.7, 544.81 -1.08 M504.12 48.88 C519.85 28.49, 532.86 15.48, 545.94 -0.64 M507.28 48.61 C519.12 35.91, 533.72 15.19, 552.16 1.2 M510.24 49.53 C522.8 31.39, 538.12 15.59, 549.45 1.44 M512.39 47.47 C533.45 30.95, 547.2 6.91, 556.79 2.97 M512.53 47.09 C529.45 32.69, 545.49 13.88, 558.12 0.37 M521.44 46.64 C529.13 35.53, 541.9 17.77, 563.45 3.42 M518.81 47.84 C527.84 36.22, 538.1 28.06, 560.9 0.6 M523.28 48.67 C539.14 33.22, 554.41 7.23, 569.61 -0.4 M526.56 46.63 C538.6 31.46, 552.89 18.34, 565.15 0.54 M534.67 49.88 C543.78 38.23, 548.68 27.55, 569.93 1.08 M529.92 49.18 C543.47 32.33, 557.78 14.53, 572.27 -1.88 M538.35 51.18 C547.44 31.82, 565.82 9.9, 574.25 0.74 M536.83 49.79 C550.61 34.57, 562.59 20.31, 578.79 0.43 M543.47 48.77 C551.61 33.44, 561.09 17.89, 579.47 -1.71 M540.58 48.87 C551.76 34.96, 562.44 24.85, 583.37 2.1 M547.64 44.89 C562.79 33.1, 573.75 12.5, 590.8 -0.8 M545.05 46.65 C556.15 36.1, 568.06 22.04, 587.21 -0.85 M549.42 46.6 C564.83 37.03, 570.73 21.37, 595.06 -2.21 M552.22 48.75 C563.79 33.72, 575.75 19.91, 594.42 -1.08 M558.31 44.51 C570.69 33.56, 588.52 21.71, 596.51 0.65 M555.38 47.85 C569.79 32.94, 582.22 19.66, 599.03 -1.62 M559.26 51.55 C575.48 33.1, 589.91 19.95, 602.84 -2.56 M562.7 49.27 C570.99 36.05, 583.21 25.25, 602.09 1.8 M570.66 49.68 C575.27 37.14, 587.97 22.57, 605.71 -0.37 M566.4 48.61 C576.61 34.75, 586.93 25.98, 611.31 -1.64 M576.84 44.68 C581.12 33.81, 597.14 24.77, 614.71 3.25 M574.33 49.4 C590.24 30.94, 603.8 12.62, 614.17 -0.24 M578.1 44.88 C589.11 35.21, 603.13 14.77, 621.23 4.35 M579.14 48.69 C587.76 34.9, 597.88 23.04, 620.9 -1.36 M587.15 43.91 C595.63 34.08, 610.81 20.3, 622.48 4.1 M585.86 46.7 C590.71 40.72, 601.81 30.44, 619.62 4.42 M591.17 47.47 C593.1 35.22, 603.65 29.17, 618.5 13.66 M589.07 48.43 C602 35.22, 613.53 19.84, 620.53 11.15 M596.28 48.05 C604.23 33.67, 613.68 28.55, 615.65 16.5 M596.47 49.29 C605.16 35.06, 615.97 26.06, 618.43 18.68 M597.54 51.7 C603.11 43.4, 605.19 34.16, 621.08 25.41 M598.08 48.72 C603.83 40.38, 610.4 32.78, 618.42 24.51 M607.46 44.77 C611.7 41.57, 616.44 39.74, 616.07 33.51 M605.79 47.84 C610.95 43.35, 614.14 39.09, 620.26 29.7 M610.03 45.53 C612.42 47.29, 614.67 40.03, 622.86 37.44 M610.42 47.29 C613.13 46.34, 616.23 42.93, 621.02 37.08 M614.95 48.56 C618.09 46.12, 619.71 44.1, 620.84 42.61 M615.19 47.65 C617.41 45.96, 617.34 45.08, 619.18 42.65" stroke="#ffc9c9" stroke-width="0.5" fill="none"></path><path d="M0.56 0.41 C242.64 0.25, 481.96 -0.51, 620.72 -1.48 M-0.01 -0.38 C131.45 -1.19, 263.3 -0.24, 619.75 -0.29 M615.31 -3.7 C615.74 17.83, 616.66 27.89, 619.91 43.49 M618.43 -0.2 C619.19 13.14, 617.29 24.56, 617.76 48.65 M618.66 47.41 C471.32 51.42, 323.5 50.28, 0.18 48.8 M618.73 48.13 C379.25 51.05, 138.5 51.21, -0.12 48.07 M-3.76 44.35 C-1.11 34.98, 1.04 12.51, -0.77 -3.06 M-1.33 47.27 C2.02 31.87, -0.19 18.13, -1.38 0.83" stroke="#e03131" stroke-width="1" fill="none"></path></g><g transform="translate(499.02123761924213 454.66408529083765) rotate(0 275.9083251953125 16.09999999999991)"><text x="0" y="25.760546874999996" font-family="Helvetica, Segoe UI Emoji" font-size="28px" fill="#1e1e1e" text-anchor="start" style="white-space: pre;" direction="ltr" dominant-baseline="alphabetic">values array - Fixed-size Primitive child array</text></g><g transform="translate(121.11282551823854 432.4453211224536) rotate(0 46.70000076293945 16.09999999999991)"><text x="0" y="25.760546874999996" font-family="Helvetica, Segoe UI Emoji" font-size="28px" fill="#1e1e1e" text-anchor="start" style="white-space: pre;" direction="ltr" dominant-baseline="alphabetic">[50, 12]</text></g></svg>