<svg version="1.1" xmlns="http://www.w3.org/2000/svg" viewBox="0 0 1487.031130125909 493.0622872014401" width="1487.031130125909" height="493.0622872014401">
  <!-- svg-source:excalidraw -->
  
  <defs>
    <style class="style-fonts">
      @font-face {
        font-family: "Virgil";
        src: url("https://excalidraw.com/Virgil.woff2");
      }
      @font-face {
        font-family: "Cascadia";
        src: url("https://excalidraw.com/Cascadia.woff2");
      }
      @font-face {
        font-family: "Assistant";
        src: url("https://excalidraw.com/Assistant-Regular.woff2");
      }
    </style>
    
  </defs>
  <g stroke-linecap="round" transform="translate(1028.6245753901771 277.43154790352264) rotate(0 135.3646112146389 37.32296614216284)"><path d="M-0.16 -0.13 L270.38 0.88 L269.2 74.76 L-1.1 76.09" stroke="none" stroke-width="0" fill="#a5d8ff"></path><path d="M0 0 C99.08 -0.77, 197.98 0.42, 270.73 0 M0 0 C103.23 -0.36, 205.67 -0.22, 270.73 0 M270.73 0 C268.9 15.58, 268.92 36.77, 270.73 74.65 M270.73 0 C269.41 29.71, 270.65 56.86, 270.73 74.65 M270.73 74.65 C188.37 75.73, 105.98 73.88, 0 74.65 M270.73 74.65 C202.59 74.18, 132.47 73.87, 0 74.65 M0 74.65 C-2 55.98, -1.56 36.6, 0 0 M0 74.65 C0.93 51.11, 0.28 25.98, 0 0" stroke="#1e1e1e" stroke-width="2" fill="none"></path></g><g transform="translate(1059.0184834798165 296.9585505040186) rotate(0 101.18333435058594 16.09999999999991)"><text x="0" y="25.760546874999996" font-family="Helvetica, Segoe UI Emoji" font-size="28px" fill="#1e1e1e" text-anchor="start" style="white-space: pre;" direction="ltr" dominant-baseline="alphabetic">0 6 10 20 20 26 </text></g><g stroke-linecap="round" transform="translate(10 10) rotate(0 733.5155650629545 29.721659908090714)"><path d="M-2.7 3.75 L1469.27 -2.77 L1467.11 62.3 L-0.1 57.91" stroke="none" stroke-width="0" fill="#b2f2bb"></path><path d="M1.2 0.39 C384.18 0.19, 770.61 0.15, 1466.67 -0.65 M0.08 -0.78 C578.88 -9.18, 1157.53 -9.54, 1467.55 0.31 M1468.09 -3.05 C1470.89 14.4, 1471.02 37.32, 1466.55 62.99 M1466.95 1.74 C1466.3 18.71, 1468.41 33.62, 1466.21 58.66 M1466.77 61.01 C1172.06 53.01, 879.83 52.4, 0.14 59.95 M1466.72 59.08 C1143.77 56.87, 821.37 56.6, 0.54 58.86 M-1.72 59.12 C3.41 42.3, -0.21 27.95, -2.91 -1.83 M-0.14 58.23 C-1.01 43.66, 2.79 31.98, -1.72 -0.33" stroke="#1e1e1e" stroke-width="2" fill="none"></path></g><g transform="translate(126.47694337260782 21.80472087753833) rotate(0 34.234375 16.100000000000023)"><text x="0" y="25.760546874999996" font-family="Helvetica, Segoe UI Emoji" font-size="28px" fill="#1e1e1e" text-anchor="start" style="white-space: pre;" direction="ltr" dominant-baseline="alphabetic">string</text></g><g transform="translate(627.8595292345494 21.4749517828609) rotate(0 273.35833740234375 16.100000000000023)"><text x="0" y="25.760546874999996" font-family="Helvetica, Segoe UI Emoji" font-size="28px" fill="#1e1e1e" text-anchor="start" style="white-space: pre;" direction="ltr" dominant-baseline="alphabetic">Physical layout - Variable-size Binary Layout</text></g><g stroke-linecap="round" transform="translate(53.38939957264165 136.78338466089394) rotate(0 115.17752649052022 173.13945127027307)"><path d="M1.58 -1.16 L231.69 -1.47 L229.84 345.96 L-1.68 345.42" stroke="none" stroke-width="0" fill="#ffc9c9"></path><path d="M0 0 C58 0.28, 118.36 0.79, 230.36 0 M0 0 C87.11 1.7, 173.99 1.32, 230.36 0 M230.36 0 C231.46 127.18, 231.6 251.68, 230.36 346.28 M230.36 0 C228.18 135.54, 228.67 271.22, 230.36 346.28 M230.36 346.28 C152.3 345.11, 72.13 346.9, 0 346.28 M230.36 346.28 C181.23 345.6, 133.26 345.37, 0 346.28 M0 346.28 C2.01 208.72, 1.69 71.2, 0 0 M0 346.28 C-2.1 269.71, -1.94 193.57, 0 0" stroke="#1e1e1e" stroke-width="2" fill="none"></path></g><g stroke-linecap="round"><g transform="translate(54.34574320375373 197.64434327142976) rotate(0 114.22118285940815 0.5926706190916775)"><path d="M0 0 C60.55 0.37, 116.83 0.93, 228.44 0 M0 0 C63.63 1.68, 126.23 1.48, 228.44 0" stroke="#1e1e1e" stroke-width="2" fill="none"></path></g></g><mask></mask><g transform="translate(112.99466043816187 150.65428083285474) rotate(0 56.900001525878906 16.100000000000023)"><text x="0" y="25.760546874999996" font-family="Helvetica, Segoe UI Emoji" font-size="28px" fill="#1e1e1e" text-anchor="start" style="white-space: pre;" direction="ltr" dominant-baseline="alphabetic">column 3</text></g><g transform="translate(116.59329325066187 223.1398177160097) rotate(0 51.625 16.100000000000023)"><text x="0" y="25.760546874999996" font-family="Helvetica, Segoe UI Emoji" font-size="28px" fill="#1e1e1e" text-anchor="start" style="white-space: pre;" direction="ltr" dominant-baseline="alphabetic">"python"</text></g><g transform="translate(131.37942606316187 275.53432241581845) rotate(0 36.94166564941406 16.100000000000023)"><text x="0" y="25.760546874999996" font-family="Helvetica, Segoe UI Emoji" font-size="28px" fill="#1e1e1e" text-anchor="start" style="white-space: pre;" direction="ltr" dominant-baseline="alphabetic">"data"</text></g><g transform="translate(89.76692301140406 327.906324912542) rotate(0 79.05000305175781 16.09999999999991)"><text x="0" y="25.760546874999996" font-family="Helvetica, Segoe UI Emoji" font-size="28px" fill="#1e1e1e" text-anchor="start" style="white-space: pre;" direction="ltr" dominant-baseline="alphabetic">"conference"</text></g><g transform="translate(122.83450418816187 432.1987178647487) rotate(0 45.71666717529297 16.09999999999991)"><text x="0" y="25.760546874999996" font-family="Helvetica, Segoe UI Emoji" font-size="28px" fill="#1e1e1e" text-anchor="start" style="white-space: pre;" direction="ltr" dominant-baseline="alphabetic">"Berlin"</text></g><g transform="translate(146.77395731316187 380.27832740926533) rotate(0 21.78333282470703 16.09999999999991)"><text x="0" y="25.760546874999996" font-family="Helvetica, Segoe UI Emoji" font-size="28px" fill="#1e1e1e" text-anchor="start" style="white-space: pre;" direction="ltr" dominant-baseline="alphabetic">null</text></g><g stroke-linecap="round" transform="translate(488.8656229108974 183.5895825051689) rotate(0 72.28797794313596 18.9832559125648)"><path d="M0 0 C0 0, 0 0, 0 0 M0 0 C0 0, 0 0, 0 0 M-0.9 7.81 C2.3 2.54, 2.35 0.52, 3.8 0.42 M-0.14 6.13 C2.11 3.32, 3.69 1.1, 4.21 0.51 M-2.29 12.36 C5.1 11.38, 7.99 3.53, 11.03 -1.6 M-0.19 12.64 C3.31 9.65, 4.6 6.12, 12.09 0.4 M-2.16 19.53 C5.23 15.54, 12.98 4.22, 19.23 4.16 M-0.1 19.98 C4.35 16.56, 6.29 12.96, 14.29 -1.47 M-0.8 26.44 C2.42 20.15, 14.76 14.99, 17.73 -0.22 M-1.29 25.74 C7.86 16.53, 13.61 7.59, 23.13 -1.22 M1.17 32.76 C5.22 27.02, 14.59 18.71, 22.45 -1.24 M-0.95 28.68 C6.32 21.99, 14.26 13.5, 24.62 1.02 M-1.3 35.97 C11.35 24.58, 17.26 15.78, 28.06 0.87 M0.43 36.89 C10.9 21.86, 22.68 9.79, 32.1 1.37 M4.96 35.85 C12.95 27.85, 19.98 24.69, 40.14 -3.49 M4.35 36.33 C9.04 28.8, 17.69 21.74, 36.69 0.98 M12.07 39.64 C19.25 23.97, 32.15 10.04, 45.63 -0.59 M9.25 39.73 C16.7 30.09, 24.56 19.95, 43.96 -1.4 M16.86 38.41 C20.73 27.17, 35.45 20.21, 44.88 3.47 M14.27 38.97 C27.08 21.72, 38.78 7.88, 48.04 -0.73 M20.86 35.85 C32.73 30.13, 35.27 11.65, 54.1 -0.59 M21.46 37.67 C27.84 27.92, 40.25 14.52, 52.25 -1.13 M23.46 34.5 C32.96 23.38, 49.54 14.63, 57.39 3.6 M27.03 37.3 C33.12 28.45, 41.64 17.1, 59.2 0.81 M29.97 40.54 C41.73 26.67, 52.15 18.97, 65.24 2.75 M31.5 37.88 C43.76 23.85, 55.02 11.72, 63.45 0.61 M38.05 40.49 C42.01 29.84, 55.52 16.1, 66.51 -1.29 M36.35 38.51 C45.15 25.44, 60.25 9.68, 69.6 -1.42 M37.74 38.03 C52.84 24.22, 59.47 11.69, 70.95 1.17 M42.07 38.09 C53.58 24.39, 64.16 10.54, 72.95 0.35 M46 38.65 C59.27 25.73, 65.05 13.45, 77.2 0.49 M44.89 35.87 C59.1 25.75, 67.08 10.34, 77.61 1.62 M50.64 38.51 C61.56 24.51, 76.38 10.83, 83.26 0.32 M50.79 40.11 C62.23 25.27, 72.83 17.03, 85.11 0.66 M60.87 41.1 C72.4 22.71, 77.74 9.57, 86.54 -1.49 M56.24 36.7 C70.73 24.77, 80.94 9.14, 88.55 -0.96 M59.25 38.05 C77.82 21.7, 86.07 7.98, 94.32 -4.3 M62.23 37.79 C73.37 23.81, 85.74 9.06, 97.21 -1.82 M68.28 33.84 C76.39 31.48, 80.26 19.94, 99.76 0.21 M66.95 38.39 C79.91 26.5, 89.02 13.97, 98.68 0.02 M70.29 34.6 C79.07 29.76, 87.39 16.19, 108.41 -3.31 M71.89 37.04 C85.65 24.6, 95.3 13.05, 107.48 -0.39 M82.02 40.77 C84.8 24.22, 98.3 13.32, 114.19 -1.08 M78.48 36.39 C89.28 26.24, 97.21 14.56, 111.18 1.77 M82.59 35.97 C94.62 30.88, 100.52 20, 117.26 3.3 M82.2 39.85 C91.73 28.68, 96.58 22.17, 114.41 -1.55 M87.99 35.64 C102.4 25.93, 115.38 7.94, 119.28 -2.17 M89.24 36.21 C99.09 29.16, 105.28 19.71, 120.19 1.6 M95.11 35.86 C105.68 31.4, 107.63 20.75, 126.71 3.15 M94.56 36.27 C102.81 31.41, 108.47 21.61, 127.41 0.04 M100.22 38.07 C103.77 27.8, 111.08 18.25, 128.64 2 M98.58 37.43 C110.34 27.7, 121.69 16.07, 130.76 0.86 M106.95 37.83 C119 24.95, 126.64 10.69, 136.77 0 M105.27 36.39 C114.45 25.74, 121.05 16.32, 138.87 2.02 M112.19 42.32 C122.71 22.96, 128.9 12.17, 139.96 2.37 M110.13 38.44 C121.73 26.07, 133.1 11.01, 142.91 0.97 M117.32 39.33 C124.19 30.73, 129.25 24.5, 141.58 5.75 M113.58 38.39 C123.5 31.21, 128.91 19.7, 144.13 2.34 M123.5 38.28 C131.27 28.4, 138.81 14.08, 142.57 9.59 M118.41 37.43 C130.12 27.61, 134.36 20.92, 147.04 9.22 M125.55 39.68 C129.44 35.5, 134.66 22.56, 144.13 17.96 M125.7 36.5 C131.9 31.16, 137.51 25.37, 144.19 16.82 M127.89 39.94 C134.22 31.8, 142.23 25.48, 148.98 18.79 M132.94 36.92 C133.75 35.21, 140.41 29.82, 143.59 23.61 M138.24 39.32 C140.18 32.89, 142.14 31.8, 143.52 29.78 M135.39 37.34 C138.99 35.14, 140.95 34.23, 144.46 29.32 M141.09 37.14 C143.37 38.12, 144.48 36.65, 144.86 33.32 M141.37 37.83 C143.31 36.27, 144.26 35.78, 146.09 34.29" stroke="#ffc9c9" stroke-width="0.5" fill="none"></path><path d="M1.99 1.67 C39.13 0.2, 83.93 -2.15, 144.99 -2.48 M1.04 0.65 C41.25 2.18, 82.58 0.42, 146.2 -0.41 M143.62 3.15 C141.92 12.6, 141.3 18.82, 143.94 34.62 M144.16 -0.2 C145.08 8.3, 143.6 18.42, 143.23 36.31 M142.19 41.95 C105.66 31.92, 59.25 32.65, 3.75 40.2 M144.53 37.2 C112.68 38.48, 76.97 39.12, -0.78 36.91 M1.76 35.64 C0.11 20.01, -4.35 6.73, -2.84 -3.89 M1.94 39.87 C0.6 26.14, -0.2 12.93, -0.35 0.88" stroke="#e03131" stroke-width="1" fill="none"></path></g><g transform="translate(504.8871014771862 187.17128731846014) rotate(0 56.900001525878906 16.100000000000023)"><text x="0" y="25.760546874999996" font-family="Helvetica, Segoe UI Emoji" font-size="28px" fill="#1e1e1e" text-anchor="start" style="white-space: pre;" direction="ltr" dominant-baseline="alphabetic">column 3</text></g><g transform="translate(692.420210434439 294.67178996233906) rotate(0 83.90833282470703 16.09999999999991)"><text x="0" y="25.760546874999996" font-family="Helvetica, Segoe UI Emoji" font-size="28px" fill="#1e1e1e" text-anchor="start" style="white-space: pre;" direction="ltr" dominant-baseline="alphabetic">Offsets buffer</text></g><g transform="translate(691.9447904090705 402.01832033617666) rotate(0 81.60832977294922 16.09999999999991)"><text x="0" y="25.760546874999996" font-family="Helvetica, Segoe UI Emoji" font-size="28px" fill="#1e1e1e" text-anchor="start" style="white-space: pre;" direction="ltr" dominant-baseline="alphabetic">Values buffer</text></g><g transform="translate(692.420210434439 187.32525958850147) rotate(0 130.03334045410156 16.100000000000023)"><text x="0" y="25.760546874999996" font-family="Helvetica, Segoe UI Emoji" font-size="28px" fill="#1e1e1e" text-anchor="start" style="white-space: pre;" direction="ltr" dominant-baseline="alphabetic">Validity bitmap buffer</text></g><g stroke-linecap="round" transform="translate(1029.4839503901771 172.47029485813528) rotate(0 96.17927140393363 35.227237555911984)"><path d="M-1.94 0.56 L192.47 1.59 L194.3 72.36 L0.64 71.08" stroke="none" stroke-width="0" fill="#a5d8ff"></path><path d="M0 0 C72.44 0.46, 146.21 2.32, 192.36 0 M0 0 C46.31 1.25, 92.3 0.98, 192.36 0 M192.36 0 C192.73 21.13, 191.47 40.21, 192.36 70.45 M192.36 0 C191.81 16.69, 190.98 33.99, 192.36 70.45 M192.36 70.45 C115.16 67.45, 40.49 69.92, 0 70.45 M192.36 70.45 C147.97 71.45, 104.35 71.05, 0 70.45 M0 70.45 C-0.73 54.44, 1.98 33.37, 0 0 M0 70.45 C-0.33 45.29, 0.1 21.28, 0 0" stroke="#1e1e1e" stroke-width="2" fill="none"></path></g><g transform="translate(1059.0184834798165 189.64703704196472) rotate(0 62.266666412353516 16.100000000000023)"><text x="0" y="25.760546874999996" font-family="Helvetica, Segoe UI Emoji" font-size="28px" fill="#1e1e1e" text-anchor="start" style="white-space: pre;" direction="ltr" dominant-baseline="alphabetic">00010111</text></g><g stroke-linecap="round"><g transform="translate(356.4527810856807 12.36900470704768) rotate(0 -0.48492010435711563 21.767972599709765)"><path d="M-1.16 1.34 C-1.57 12.19, -0.42 23.73, -0.86 44.26 M0.28 -0.73 C-0.55 16.36, -0.76 32.98, -0.07 43.82" stroke="#1e1e1e" stroke-width="2" fill="none"></path></g></g><mask></mask><g stroke-linecap="round"><g transform="translate(309.06980107062805 172.90681259666417) rotate(0 83.7948434459064 16.10023255234978)"><path d="M-2.94 -1.02 C62.35 7.31, 124.63 23.24, 170.53 33.23" stroke="#e03131" stroke-width="2.5" fill="none" stroke-dasharray="8 10"></path></g><g transform="translate(309.06980107062805 172.90681259666417) rotate(0 83.7948434459064 16.10023255234978)"><path d="M144.26 35.89 C154.82 33.36, 163.67 33.67, 172.14 32.81" stroke="#e03131" stroke-width="2.5" fill="none"></path></g><g transform="translate(309.06980107062805 172.90681259666417) rotate(0 83.7948434459064 16.10023255234978)"><path d="M148.02 19.21 C157.06 23.02, 164.49 29.65, 172.14 32.81" stroke="#e03131" stroke-width="2.5" fill="none"></path></g></g><mask></mask><g stroke-linecap="round" transform="translate(1028.6245753901771 385.65451969891) rotate(0 200.63804871463913 34.28585676716284)"><path d="M-1.53 0.11 L400.18 1.44 L402.89 68.77 L-0.8 67.94" stroke="none" stroke-width="0" fill="#a5d8ff"></path><path d="M0 0 C87.67 -0.05, 173.41 0.5, 401.28 0 M0 0 C90.77 0.77, 182.26 0.89, 401.28 0 M401.28 0 C402.58 12.65, 400.54 27.39, 401.28 68.57 M401.28 0 C401.68 27.72, 401.63 53.62, 401.28 68.57 M401.28 68.57 C251.28 67.1, 101.72 68.61, 0 68.57 M401.28 68.57 C247.27 69.67, 93.5 69.04, 0 68.57 M0 68.57 C1.05 50.22, 2.07 33.59, 0 0 M0 68.57 C-0.3 41.41, -0.39 14.81, 0 0" stroke="#1e1e1e" stroke-width="2" fill="none"></path></g><g transform="translate(1059.0184834798165 404.2700639660725) rotate(0 173.60000610351562 16.09999999999991)"><text x="0" y="25.760546874999996" font-family="Helvetica, Segoe UI Emoji" font-size="28px" fill="#1e1e1e" text-anchor="start" style="white-space: pre;" direction="ltr" dominant-baseline="alphabetic">pythondataconferenceBerlin</text></g></svg>