<svg version="1.1" xmlns="http://www.w3.org/2000/svg" viewBox="0 0 1266.933473875909 601.8372074955921" width="1266.933473875909" height="601.8372074955921">
  <!-- svg-source:excalidraw -->
  
  <defs>
    <style class="style-fonts">
      @font-face {
        font-family: "Virgil";
        src: url("https://excalidraw.com/Virgil.woff2");
      }
      @font-face {
        font-family: "Cascadia";
        src: url("https://excalidraw.com/Cascadia.woff2");
      }
      @font-face {
        font-family: "Assistant";
        src: url("https://excalidraw.com/Assistant-Regular.woff2");
      }
    </style>
    
  </defs>
  <g stroke-linecap="round" transform="translate(10 10) rotate(0 623.4667369379545 29.721659908090714)"><path d="M-0.37 4 L1244.02 2.35 L1247.14 59.08 L-1.97 63.01" stroke="none" stroke-width="0" fill="#b2f2bb"></path><path d="M0.27 0.85 C473.54 -1.79, 949.4 0.43, 1247.11 -0.44 M-0.45 0.18 C337.82 -7.85, 677.01 -8.67, 1246.74 0.69 M1250.75 -2.52 C1243.07 20.05, 1246.34 43.45, 1244.05 62.5 M1248.56 -0.21 C1247.57 15.21, 1246.44 28.89, 1246.17 61.43 M1246.45 59.98 C846.67 62.65, 450.47 61.13, -1.44 60.1 M1247.73 60.08 C813.68 66.29, 380.19 66.06, -0.26 59.18 M-2.23 59.63 C-0.49 41.79, -2.89 19.92, 2.7 2.98 M0.62 60.35 C-0.23 42.05, 1.63 23.18, -1 -1.76" stroke="#1e1e1e" stroke-width="2" fill="none"></path></g><g transform="translate(132.064450531087 21.804720877538784) rotate(0 17.1103515625 16.100000000000023)"><text x="0" y="25.760546874999996" font-family="Helvetica, Segoe UI Emoji" font-size="28px" fill="#1e1e1e" text-anchor="start" style="white-space: pre;" direction="ltr" dominant-baseline="alphabetic">list</text></g><g transform="translate(524.1124589220494 21.898128866195634) rotate(0 255.01666259765625 16.100000000000023)"><text x="0" y="25.760546874999996" font-family="Helvetica, Segoe UI Emoji" font-size="28px" fill="#1e1e1e" text-anchor="start" style="white-space: pre;" direction="ltr" dominant-baseline="alphabetic">Physical layout - Variable-size List Layout</text></g><g stroke-linecap="round" transform="translate(30.77056223031775 140.84633104300815) rotate(0 132.19540239859825 150.23285004797123)"><path d="M1.94 -1.07 L263.73 -0.65 L265.06 302.3 L1.15 299.35" stroke="none" stroke-width="0" fill="#ffc9c9"></path><path d="M0 0 C54.51 -1.36, 108.23 -0.61, 264.39 0 M0 0 C100.09 -0.33, 201.53 -1.14, 264.39 0 M264.39 0 C265.04 83.79, 267.7 164.52, 264.39 300.47 M264.39 0 C264.62 68.23, 264.72 137.16, 264.39 300.47 M264.39 300.47 C173.07 302.25, 82.28 301.35, 0 300.47 M264.39 300.47 C198.53 302.63, 132.59 302.31, 0 300.47 M0 300.47 C3 199.23, 0.83 100.82, 0 0 M0 300.47 C0.18 196.53, -0.08 91.24, 0 0" stroke="#1e1e1e" stroke-width="2" fill="none"></path></g><g stroke-linecap="round"><g transform="translate(38.89914843222141 199.47754025122936) rotate(0 125.80054181061894 -0.4718183585096085)"><path d="M0 0 C86.12 0.55, 174.48 -1, 251.6 -0.94 M0 0 C81.72 -1.37, 162.31 -0.3, 251.6 -0.94" stroke="#1e1e1e" stroke-width="2" fill="none"></path></g></g><mask></mask><g transform="translate(104.39369900391603 154.0700511091543) rotate(0 56.900001525878906 16.100000000000023)"><text x="0" y="25.760546874999996" font-family="Helvetica, Segoe UI Emoji" font-size="28px" fill="#1e1e1e" text-anchor="start" style="white-space: pre;" direction="ltr" dominant-baseline="alphabetic">column 1</text></g><g transform="translate(96.36987803739521 224.95295887561178) rotate(0 66.92500305175781 16.100000000000023)"><text x="0" y="25.760546874999996" font-family="Helvetica, Segoe UI Emoji" font-size="28px" fill="#1e1e1e" text-anchor="start" style="white-space: pre;" direction="ltr" dominant-baseline="alphabetic">[12, -7, 25]</text></g><g transform="translate(141.17299587891603 275.9428135004671) rotate(0 21.78333282470703 16.100000000000023)"><text x="0" y="25.760546874999996" font-family="Helvetica, Segoe UI Emoji" font-size="28px" fill="#1e1e1e" text-anchor="start" style="white-space: pre;" direction="ltr" dominant-baseline="alphabetic">null</text></g><g transform="translate(57.111472441416026 327.66867608399184) rotate(0 105.84166717529297 16.100000000000023)"><text x="0" y="25.760546874999996" font-family="Helvetica, Segoe UI Emoji" font-size="28px" fill="#1e1e1e" text-anchor="start" style="white-space: pre;" direction="ltr" dominant-baseline="alphabetic">[0, -127, 127, 50]</text></g><g transform="translate(155.18666775391603 379.10424519741355) rotate(0 7.7833333015441895 16.100000000000023)"><text x="0" y="25.760546874999996" font-family="Helvetica, Segoe UI Emoji" font-size="28px" fill="#1e1e1e" text-anchor="start" style="white-space: pre;" direction="ltr" dominant-baseline="alphabetic">[]</text></g><g stroke-linecap="round" transform="translate(429.1277732925719 124.45994623422644) rotate(0 72.28797794313596 18.9832559125648)"><path d="M0 0 C0 0, 0 0, 0 0 M0 0 C0 0, 0 0, 0 0 M-0.73 7.44 C0.26 5.24, 3.25 4.56, 5.32 -0.73 M-0.41 6.69 C1.73 4.37, 2.85 2.74, 5.15 1 M0.57 13.57 C5.23 8.35, 4.22 4.69, 8.27 -0.81 M-1.15 13.61 C3.15 7.97, 6.08 4.73, 11.84 -1.31 M-0.99 15.35 C4.74 15.06, 10.1 10.84, 17.79 -3.31 M0.14 18.08 C6.74 10.43, 13.47 3.29, 14.79 -1.62 M0.35 25.64 C3.2 14.59, 12.77 14.37, 21.23 -3.28 M-0.11 24.28 C4.54 20.72, 10.83 13.39, 20.21 -1.23 M-3.03 33.03 C11.38 16.02, 20.21 12.12, 25.32 4.1 M0.63 31.33 C11.48 17.38, 21.59 5.22, 26.02 0.57 M1.99 33.49 C2.92 27.69, 11.15 23.41, 31.65 -1.87 M-0.43 37.88 C9.06 27.95, 16.05 15.25, 32.5 -1.68 M0.11 43.95 C12.03 30.69, 25.22 16.94, 37.54 -0.42 M2.86 41.88 C14.63 27.09, 25.48 12.07, 35.9 1.54 M6.42 40.15 C14.72 32.53, 21.8 16.62, 40.04 -1.99 M8.33 40.47 C19.99 22.56, 34.57 7.65, 44.38 0.01 M14.54 36.84 C27.52 25.91, 36.3 13.8, 45.45 2.96 M13.47 40.4 C22.87 31.14, 28.44 21.39, 47.32 1.22 M21.22 41.75 C33.53 23.98, 43.97 13.19, 49.31 3.26 M19.9 38.05 C33.32 23.95, 43.58 11.14, 51.26 -0.28 M25.19 37.89 C36.29 22.95, 47.86 13.59, 61.92 2.21 M24.12 39.87 C29.88 29.17, 40.01 20.29, 57.23 -1.5 M31.17 38.77 C41.37 29.55, 52.07 14.02, 64.3 0.9 M29.37 39.75 C43.37 25.26, 56.46 8.28, 64.63 -1.68 M35.38 43.65 C41.83 28.96, 51.84 24.49, 65.72 1.41 M35.04 40.38 C42.05 32.17, 49.97 23.07, 68.64 -0.82 M37.51 36.8 C51.66 31.07, 54.41 18.93, 75.7 -1.91 M40.5 38.65 C52.79 24.29, 67.42 7.28, 76.04 1.59 M42.29 38.76 C53.81 22.72, 67.88 10.22, 81.48 -3.22 M46.51 38.98 C55.3 24.55, 71.19 13.62, 78.63 0.03 M47.39 41.55 C62.41 23.05, 70.91 12.27, 84.07 -1.9 M51.1 38.74 C62.97 24.18, 76.51 9.82, 85.08 0.25 M53 43.99 C60.23 27.36, 66.76 18.67, 91.71 0.66 M54.9 41.62 C66 28.31, 75.74 17.54, 90.33 0.72 M57.79 42.86 C76.91 24.52, 93 6.8, 91.87 0.33 M61.07 38.97 C74.3 22.82, 86.96 8.42, 95.43 -2.04 M68.44 36.25 C78.78 25.78, 84.34 17.41, 100.77 1.5 M64.63 39.22 C76.63 27.96, 90.28 11.02, 100.95 -0.1 M71.61 38.7 C84.07 23.34, 93.83 11.96, 103.4 0.31 M72.36 41.21 C82.96 23.61, 97.88 9.27, 106.82 -0.69 M75.45 36.56 C85.23 28.89, 94.33 25.88, 110.94 3.9 M76.17 39.62 C82.87 29.58, 93.47 20.02, 109.74 -0.88 M81.6 43.14 C89.73 24.09, 105.3 18.05, 116.2 -1.56 M80.97 38.29 C91.17 30.09, 98.47 18.99, 114.38 -1.41 M86.71 38.07 C98.33 27.55, 102.93 19.37, 122.34 -3.43 M86.07 39.62 C95.59 31.31, 104.66 18.61, 122.04 -1.11 M93.74 39.17 C95.49 29.28, 106.05 24.25, 123.66 -3.02 M92.34 38.7 C101.18 29.96, 108.66 23.74, 127.29 0.77 M100.78 38.05 C108.81 26.01, 122 10.4, 132.97 0.34 M98.93 40.92 C110.35 27.33, 120.6 13.08, 133.23 -1.35 M105.83 39.6 C109.78 26.4, 122.39 19.95, 135.07 -3.4 M103.91 39.63 C113.95 28.46, 127.3 12.48, 136.81 2.01 M110.12 37.92 C124.75 24.48, 133.35 7.36, 146.72 -3.81 M107.44 38.2 C117.31 29.26, 126.33 19.24, 144.76 0.77 M111.62 43.65 C121.82 36.03, 129.2 22.9, 144.92 2.83 M113.21 39.46 C123.16 27.71, 131.42 18.86, 145.61 0.17 M117.04 43.18 C127.08 29.69, 135.94 19.62, 150.13 5.49 M120.31 39.04 C127.27 32.43, 133.97 23.17, 144.93 6.88 M127.35 41.92 C131.38 33.47, 140.01 21.87, 143.04 16.87 M124.53 38.76 C133.01 28.8, 142.35 19.34, 145.85 13.59 M125.74 39.5 C137.27 37.2, 141.76 24.78, 146.76 20.94 M130.34 39.99 C132.58 32.71, 139.57 27.41, 147.24 20.7 M135.1 41.02 C140.79 38.72, 142.09 27.86, 145.62 25.33 M136.02 40.95 C137.23 34.96, 140.28 32.98, 146.21 26.66 M141.29 40.23 C140.51 39.5, 142.94 37.14, 146.13 34.18 M139.34 39.16 C142.09 39.19, 143.12 36.45, 146.74 32.95" stroke="#ffc9c9" stroke-width="0.5" fill="none"></path><path d="M3.81 -2.52 C46.95 -2.52, 100.02 0.4, 141.69 3.06 M1.62 -0.21 C36.46 2.25, 71.69 0.98, 143.81 1.99 M143.38 1.33 C140.73 12.91, 146.95 21.25, 140.96 39.6 M146.56 1.6 C146.04 12.71, 146.71 25.34, 143.92 37.32 M142.34 38.16 C96.95 41.8, 46.31 39.77, 2.7 40.94 M145.19 38.87 C99.54 40.16, 57.55 39.32, -1 36.21 M2.35 38.17 C-1.12 24.96, 2.81 15.01, 1.26 -0.23 M-1.41 36.67 C-0.32 23.82, -1.58 10.61, 0.18 0.7" stroke="#e03131" stroke-width="1" fill="none"></path></g><g transform="translate(446.14925185886113 127.34320214679121) rotate(0 56.900001525878906 16.100000000000023)"><text x="0" y="25.760546874999996" font-family="Helvetica, Segoe UI Emoji" font-size="28px" fill="#1e1e1e" text-anchor="start" style="white-space: pre;" direction="ltr" dominant-baseline="alphabetic">column 1</text></g><g transform="translate(618.93735578374 127.34320214679121) rotate(0 130.03334045410156 16.100000000000023)"><text x="0" y="25.760546874999996" font-family="Helvetica, Segoe UI Emoji" font-size="28px" fill="#1e1e1e" text-anchor="start" style="white-space: pre;" direction="ltr" dominant-baseline="alphabetic">Validity bitmap buffer</text></g><g stroke-linecap="round"><g transform="translate(337.56221833888617 12.369004707048589) rotate(0 0 22.213424812065796)"><path d="M-1.81 0.82 C1.21 14.68, 1.67 30.36, 1.6 45.7 M-0.33 -0.32 C0.77 13.15, 1.01 23.91, 0.05 44.58" stroke="#1e1e1e" stroke-width="2" fill="none"></path></g></g><mask></mask><g stroke-linecap="round"><g transform="translate(311.56998445906277 168.8299504112972) rotate(0 52.65858428366465 -14.76629680752626)"><path d="M1.91 0.99 C26.97 -3.51, 50.96 -11.56, 104.33 -25.64" stroke="#e03131" stroke-width="2.5" fill="none" stroke-dasharray="8 10"></path></g><g transform="translate(311.56998445906277 168.8299504112972) rotate(0 52.65858428366465 -14.76629680752626)"><path d="M84.86 -10.74 C90.03 -12.56, 94.8 -16.5, 103.84 -23.7" stroke="#e03131" stroke-width="2.5" fill="none"></path></g><g transform="translate(311.56998445906277 168.8299504112972) rotate(0 52.65858428366465 -14.76629680752626)"><path d="M80.38 -27.24 C86.4 -25.38, 92.17 -25.63, 103.84 -23.7" stroke="#e03131" stroke-width="2.5" fill="none"></path></g></g><mask></mask><g stroke-linecap="round" transform="translate(914.5836258501381 107.0577360046284) rotate(0 99.51461292843612 36.699941665086044)"><path d="M0.84 0.99 L198.26 0.47 L199.97 73.69 L-1.41 71.44" stroke="none" stroke-width="0" fill="#a5d8ff"></path><path d="M0 0 C69.26 1.5, 137.3 0.78, 199.03 0 M0 0 C54.48 0.74, 109.95 1.99, 199.03 0 M199.03 0 C198.92 27.32, 197.72 52.54, 199.03 73.4 M199.03 0 C198.78 27.52, 199.88 54.41, 199.03 73.4 M199.03 73.4 C150.88 73.07, 101.37 73.89, 0 73.4 M199.03 73.4 C119.49 74.48, 39.36 75.46, 0 73.4 M0 73.4 C1.24 53.14, -1.36 31.18, 0 0 M0 73.4 C-0.67 56.65, 0.18 39.23, 0 0" stroke="#1e1e1e" stroke-width="2" fill="none"></path></g><g transform="translate(954.2374037850163 127.34320214679121) rotate(0 62.266666412353516 16.100000000000023)"><text x="0" y="25.760546874999996" font-family="Helvetica, Segoe UI Emoji" font-size="28px" fill="#1e1e1e" text-anchor="start" style="white-space: pre;" direction="ltr" dominant-baseline="alphabetic">00001101</text></g><g stroke-linecap="round" transform="translate(459.64437700547546 349.44655138284884) rotate(0 309.57588006692885 23.72538922257735)"><path d="M0 0 C0 0, 0 0, 0 0 M0 0 C0 0, 0 0, 0 0 M0 5 C2.06 6.32, 0.66 3.55, 3.58 -1.14 M0.04 6.58 C1.78 5.15, 2.03 3.69, 5.73 0.95 M-1.23 15.09 C1.74 6.82, 3.64 2.85, 10.41 -1.92 M-1.32 12.78 C4.12 8.51, 5.1 3.6, 10.07 -0.32 M3.67 20.7 C4.04 11.32, 6.37 10.78, 17.68 0.45 M-1.9 19.22 C4.9 13.74, 8.61 11.77, 13.69 2.02 M-2.02 26.06 C3.44 15.44, 14.54 5.17, 24.1 -1.2 M-0.12 22.59 C9.91 15.76, 14.75 6.74, 21.11 -1.84 M1.23 27.82 C3.39 22.78, 11.84 12.09, 25.04 -3.15 M0.58 32.08 C5.37 23.28, 12.23 16.83, 27.63 -0.41 M2.61 33.12 C12.53 22.39, 23.41 10.09, 30.65 0.55 M1.25 34.89 C6.93 26.12, 15.91 19.17, 33.11 1.64 M-2.59 43.82 C10.1 32.55, 24.34 16.89, 35.32 -3.13 M-0.33 42.01 C13.98 26.47, 27.58 11.35, 35.16 0.86 M0.52 47.35 C12.82 30.79, 30.73 16.84, 45.68 1.01 M-0.32 49.16 C16.37 27.55, 32.94 12.94, 40.99 0.33 M4.3 45.55 C24.63 25.49, 37.92 13.75, 50.12 3.72 M5.05 47.78 C22.39 33.03, 36.3 13.72, 48.85 -0.92 M8.37 47.65 C24.97 30.69, 36.3 17.68, 54.76 2.47 M13.01 48.09 C27.11 31.09, 41.69 15.68, 51.84 1.44 M20.66 46.3 C31.67 34.3, 40.19 14.21, 60.97 -3.24 M15.28 49.34 C30.41 30.14, 44.25 14.19, 59.34 -1.56 M22.34 50.18 C36.52 30.49, 49.3 11.84, 61.35 3.32 M22.8 46.46 C32.86 36.24, 42.4 25.27, 64.83 1.14 M27.83 51.24 C38.93 34.51, 59.97 16.26, 65.24 3.43 M25.68 47.41 C36.38 37.9, 46.06 26.29, 67.33 2.07 M30.3 51.91 C53.23 28.29, 65.9 11.89, 70.74 -1.91 M30.49 46.62 C40.78 36.56, 50.31 27.57, 75.2 0.53 M37.65 48.4 C53.64 31.54, 67.81 11.72, 82.19 3.34 M36.23 46.32 C45.26 37.31, 57.55 24.53, 79.58 0.03 M42.01 49.92 C54.12 34.57, 67.29 24.3, 82.15 1.43 M43.6 49.91 C51.29 35.06, 61.27 28.1, 86.23 1.63 M47.13 46.69 C63.13 32.93, 70.82 17.32, 88.95 0.18 M46.32 48.11 C63.73 30.18, 80.24 13.22, 88.92 1.34 M57.1 49.43 C60.31 37.68, 73.68 25.93, 96.64 0.11 M51.7 48.57 C65.06 31.52, 79.6 20.07, 97.29 -0.57 M57.17 48.88 C72.82 33.44, 85.88 12.83, 100.52 -2.2 M57.37 49.5 C72.63 34.78, 84.4 20.84, 102.24 1.91 M65.07 47.77 C78.33 32, 86.44 21.19, 109.14 1.04 M62.43 49.79 C76.33 34.5, 86.51 19.71, 107.8 -2.18 M68.55 48.11 C76.65 32.45, 86.58 24.19, 113.79 0.16 M68.89 46.39 C83.18 34.23, 92.32 18.88, 112.49 0.65 M77.31 50.41 C81.52 36.24, 93.27 20.52, 115.83 -0.01 M73.49 47.7 C89.41 30.93, 101.65 15.08, 116.57 -1.58 M76.58 48.92 C96.75 33.65, 107.64 21.6, 123.51 3.36 M81.11 46.9 C97.37 30.86, 112.09 13.32, 122.68 -0.65 M87.07 46.93 C100.04 31.79, 112.1 13.05, 124.7 2.61 M84.63 47.36 C102.97 29.47, 115.03 13.5, 128.47 1.49 M94.47 51.96 C104.65 29.49, 124.29 16.01, 130.31 3.59 M90.33 48.04 C103.81 32.74, 117.97 13.25, 133.88 -1.22 M93.48 51.05 C104.04 38.64, 119.53 19.64, 135.68 -3.08 M97.7 48.79 C104.81 34.47, 117.05 23.1, 138.45 -1.49 M97.29 45.99 C114.61 31.51, 122.8 20.53, 140.7 -2.79 M100.9 47.8 C110.55 38.12, 120.05 24.04, 141.23 -1.38 M109.56 44.6 C124.77 27.35, 134.68 17.25, 151.2 -1.67 M108.57 46.92 C123.44 27.91, 139.62 13.47, 146.17 1.14 M109.96 47.93 C126.05 30.41, 139.38 16.73, 151.05 -3.33 M113.24 49.07 C118.48 37.97, 129.2 27.51, 153.94 1.51 M114.17 49.55 C127.68 33.62, 145.91 17.92, 159.59 2.36 M119.2 47.62 C128.35 31.93, 142.36 16.89, 159.36 1.98 M119.32 46.79 C138.39 29.65, 153.74 9.29, 163.64 -1.44 M123.84 47.72 C137.7 31.1, 153.51 13.02, 163.26 1 M132.07 47.98 C136.31 37.27, 148.36 26.6, 167.03 0.66 M129.59 47.71 C141.82 32.34, 154.54 15.8, 169.83 -1.43 M130.06 51.73 C141.24 39.12, 151.71 26.05, 178.57 -0.41 M133.24 48.51 C145.98 35.7, 155.46 22.08, 174.52 1.6 M137.9 46.12 C148.23 40.68, 155.55 25.18, 181.59 -2.99 M137.83 46.95 C151.46 34.41, 166.04 15.64, 181.42 1.36 M140.74 52.02 C155.87 33.19, 167.92 14.95, 185.88 -3.4 M142.04 49.18 C157.3 33.47, 166.95 22.43, 187.11 -1.24 M152.17 50.29 C161.61 33.07, 169.26 21.25, 189.22 -0.69 M148.05 48.03 C161.05 35.6, 170.99 25.07, 190.06 1.78 M151.8 49.06 C171.12 33.01, 179.69 14.77, 197.42 2.56 M154.91 48.39 C170.35 27.19, 188.13 8.29, 194.48 -1.16 M161.24 50.96 C168.89 32.6, 181.87 21.66, 201.74 3.58 M158.44 48.57 C168.3 33.96, 181.5 24.37, 199.73 0.17 M165.58 48.38 C174.41 32.15, 187.29 19.7, 206.96 -1.45 M164.59 49.72 C179.85 29.77, 194.36 11.08, 208.14 -0.83 M172.73 47.47 C178.89 36.95, 190.22 25.96, 208.84 1.97 M168.63 49.9 C178.07 35.33, 188.55 23.44, 210.46 1.81 M178.25 51.63 C192.45 28.98, 206.95 10.11, 214.13 -2.21 M175.86 49.72 C186.02 38.21, 194.89 28.4, 217.67 -0.01 M178.08 45.03 C198.33 29.43, 209.27 12.67, 226.08 -1.24 M182.24 50 C188.92 36.45, 200.4 26.64, 222.38 0.93 M187.89 48.58 C199.36 28.31, 217.49 16.78, 224.43 -2.39 M185.59 49.85 C202.86 31.34, 217.47 12.03, 226.7 0.5 M188.63 51.22 C206.73 35.03, 222.31 18.08, 230.92 2.35 M191.01 48.07 C206.06 28.48, 224.62 11.11, 231.64 0.68 M194.45 49.13 C208.4 38.25, 213.43 23.34, 240.6 4.23 M198.7 48.52 C209.22 33.57, 216.54 23.64, 236.28 -0.42 M198.26 49.02 C214.94 28.32, 233.15 11.16, 242.66 1.27 M201.38 49.5 C213.72 36.47, 226.25 21.56, 242.48 1.16 M207.73 51.32 C222.21 27.94, 235.76 11.42, 249.19 -2.26 M208.16 49.09 C219.02 36.88, 227.68 24.94, 247.48 0.79 M214.74 45.5 C230.46 33.67, 245.53 9.86, 250.51 -3.84 M213.87 46.59 C230 29.92, 241.91 15.46, 255.19 -0.59 M215.43 49.28 C228.09 40.37, 236.39 27.86, 256.69 0.58 M219.01 47.83 C231.9 29.36, 246.78 13.43, 257.48 0.88 M219.69 47.89 C238.7 25.51, 253.65 8.37, 261.53 -0.2 M223.06 46.6 C233.34 36.11, 242.79 23.26, 266.12 1.39 M231.13 49.3 C239.63 35.58, 251.37 19.84, 268.09 2.62 M228.38 45.97 C240.36 34.42, 254.53 18.99, 270.15 -1.2 M232.62 47.51 C246.39 36.11, 260.79 16.23, 276.66 -2.91 M233.58 47.72 C245.31 30.78, 260.52 17.78, 275.71 -1.98 M238.26 45.77 C253.84 30.69, 267.06 14.3, 278.28 1.8 M237.41 49.67 C250.1 38.17, 257.01 24.42, 279.45 0.42 M246.91 51.84 C252.01 35.17, 258.46 30.59, 282.73 1.06 M244.13 47.08 C256.2 33.12, 270.07 20.84, 284.42 1.14 M246.15 45.23 C266.69 30.29, 277.62 13.7, 288.02 -3.79 M251.36 46.02 C261.84 37.52, 267.24 27.1, 289.4 -1.45 M253.81 44.46 C271.97 32.16, 284.66 10.57, 300.42 -3.15 M255.48 48.74 C265.01 37.06, 275.64 26.26, 296.81 -0.46 M257.98 50.31 C272.47 32.26, 291.24 15.91, 303.93 0.08 M259.5 47.05 C273.15 36.03, 282.78 24.37, 302.06 0.96 M266.46 49.08 C278.8 35.34, 288.04 20.58, 304.31 -2.26 M266.44 47.71 C278.82 31.04, 293.73 17.26, 309.47 -1.06 M270.83 43.8 C284.38 33.09, 303.52 15.01, 314.53 3.73 M271.2 45.75 C286.32 31.12, 297.85 15.15, 313.58 -1.67 M279.87 49.54 C284.03 36.41, 293.98 25.65, 318.83 -2.86 M277.92 49.92 C291.69 33.92, 302.74 15.37, 319.09 -2 M282.97 45.36 C295.21 34.37, 313.65 12.01, 322.19 -2.37 M283.22 48.77 C292.02 36.34, 306.89 19.59, 322.16 0.28 M286.9 45.81 C300.33 38.52, 308.73 23.8, 330.31 0.57 M288.85 48.26 C302.32 27.29, 322.32 10.12, 330.38 0.31 M288.56 44.49 C301.93 36.12, 308.48 30.34, 335.16 -3.63 M290.35 49.44 C301.43 36.68, 312.49 24.23, 332.06 -0.61 M294.33 45.97 C309.56 31.95, 327.45 21.67, 342.94 1.67 M296.26 46.53 C312.9 29.95, 322.93 14.42, 340.14 -1.59 M305.61 45.1 C313.03 38.24, 327.87 25.8, 343.59 -1.35 M301.48 48.32 C317.54 31.05, 333.67 12.45, 345.59 -0.84 M306.77 50.23 C320.84 34.29, 328.55 25.25, 346.14 -1.02 M307.21 47.5 C319.84 33.34, 333.67 15.37, 348.58 -1.48 M314.7 46.48 C323.23 36.91, 332.79 18.74, 351.47 3.33 M314.22 50.12 C321.62 38.28, 334.32 24.52, 355.16 -1.97 M318.74 50.94 C327.92 35.25, 336.1 22.25, 357.15 0.89 M318.84 48.85 C333.58 31.28, 349.61 11.94, 361.93 1.55 M322.27 52.01 C332.28 33.12, 346 23.69, 368.69 1.35 M322.24 48.49 C337.37 35.67, 346.29 20.29, 367.21 1.37 M330.62 48.55 C341.44 34.77, 354.59 15.15, 369.14 -1.82 M330.36 47.22 C340.1 31.05, 356.6 17.72, 372.5 -0.4 M336.64 45.22 C348.34 37.27, 358.57 17.27, 379 -0.18 M335.26 50.05 C348.53 28.3, 364.29 12.11, 378.26 1.5 M340.66 51.66 C346.99 34, 359.25 30.3, 377.8 1 M339.02 46.16 C355.55 28.68, 371.21 12.38, 381.35 0.94 M344 45.77 C360.22 32.58, 374.54 11.91, 388.03 -2.06 M343.09 46.31 C359.14 33.32, 370.85 17.76, 386.87 1.68 M352.99 44.97 C358.82 39.04, 366.87 26.33, 388.7 -0.38 M352.16 48.17 C359.44 35.55, 368.37 27.93, 393.58 -1.19 M356.43 45.43 C372.69 32.68, 381.49 20.82, 399.29 3.04 M355.57 49.75 C367.28 38.07, 375.33 25.66, 397.7 0.09 M361.62 45.32 C371.98 31.77, 386.68 24.5, 401.29 -3.55 M363.15 46.71 C374.23 32.46, 387.09 18.84, 402.35 -0.64 M363.86 48.1 C375.74 34.99, 384.92 30.38, 406.17 -1.4 M366.63 49.79 C379.99 28.94, 396.01 11.01, 409.43 -2.13 M374.43 45.69 C381.21 38.86, 391.69 22.74, 416.88 -1.99 M371.46 46.15 C385.27 33.1, 400.02 14.98, 412.91 1.69 M374.12 45.8 C389.93 33.74, 397.23 22.73, 415.9 0.2 M378.24 48.77 C385.61 38.78, 394.86 25.83, 418.82 -0.93 M381.18 47.14 C394.86 32.59, 412.94 14.9, 422.67 -1.05 M382.59 45.8 C398.15 33.78, 412.4 18.39, 422.55 1.83 M388.89 50.69 C399.94 31.26, 418.47 14.5, 425.63 -0.45 M388.46 49.96 C399.59 35.61, 410.9 20.77, 428.72 -1.3 M392.84 51.66 C410.36 31.97, 426.67 6.65, 431.73 -1.95 M391.45 48.67 C402.15 35.18, 413.11 23.76, 432.61 0.75 M395.74 47.04 C410.71 31.3, 420.9 16.43, 438.37 -3.5 M399.39 49.61 C412.73 31.82, 424.9 17.2, 440 -1.29 M404.22 51.08 C417.62 27.49, 428.9 11.89, 442.99 -1.79 M405.02 46.44 C415.6 35.5, 427.62 22.97, 444.53 0.37 M408.13 47.25 C422.68 31.11, 437.4 12.4, 446.99 -1.01 M409.2 48.85 C418.75 38.61, 428.5 27.06, 451.61 -0.04 M414.06 47.6 C427.4 34.84, 441.79 15.1, 457.28 -1.56 M414.31 47.99 C431.74 28.96, 448.76 11.71, 455.77 -0.48 M417.36 51.85 C435.91 28, 451.59 14.41, 458.24 -0.87 M420.11 49.79 C433.8 31.33, 448.91 13.18, 460.56 -1.72 M427.61 50.81 C437.97 35.65, 454.49 20.47, 469.28 1.91 M425.11 48.4 C435.02 34.64, 443.31 22.69, 467.9 -2 M432.63 49.49 C438.97 38.58, 443.8 28.92, 468.12 -2.12 M430.43 47.47 C440.53 35.6, 453.7 20.91, 473.29 1.17 M432 46.44 C447.64 30.69, 468.73 13.5, 475.58 -0.11 M433.22 49.65 C441.3 39.47, 450.81 30.38, 478.5 0.53 M441.02 48.94 C454.29 29.22, 469.72 15.43, 480.42 2.07 M442.51 49.86 C455.04 31.94, 469.88 15.03, 480.22 0.81 M444.23 44.31 C461.25 36.83, 472.1 18.98, 490.61 3.78 M444.55 48.7 C461.9 29.47, 477.65 10.54, 489.26 0.76 M447.45 47.1 C463.06 38.78, 469.97 29.41, 494.88 -3.09 M450.76 45.86 C466.52 30.47, 479.96 11.1, 491.92 -1.41 M455.2 46.4 C474.54 27.38, 488.4 9, 498.69 -2.9 M455.04 49.42 C473.16 31.8, 486.19 12.01, 497.89 1.29 M458.75 45.01 C474.41 32.41, 486.71 21.41, 501.75 -1.01 M461.68 49.32 C471.39 36.53, 477.81 27.42, 501.63 2.07 M469.64 46.78 C477.14 36.78, 481.89 27.26, 510.01 -0.5 M466.71 46.63 C475.92 37, 487.89 24.23, 510.21 1.66 M475.62 47.8 C484.93 39.1, 492.74 26.95, 513.16 1.04 M473.8 47.02 C484.19 34.71, 500.18 16.77, 512.7 1.75 M474.2 47.67 C486.21 38.27, 498.47 19.83, 520.64 2.76 M475.62 50.08 C491.72 32.48, 507.43 14.73, 520.06 -1.67 M484.62 48.75 C498.6 33.42, 509.04 15.21, 523.12 3.87 M481.72 46.7 C496.56 32.35, 507.51 18.03, 526.5 -0.92 M485.37 51.41 C504.81 29.14, 516.48 15.3, 528.53 2.79 M487.92 48.46 C502.69 31.36, 512.71 18.35, 529.36 0.72 M490.19 45.27 C507.14 34.6, 519.81 19.65, 531.52 0.47 M492.13 49 C506.24 33.71, 519.09 18.2, 534.48 -1.57 M501.55 44.47 C509.71 40.53, 516.08 23.96, 541.49 -0.4 M499.81 49.39 C507.48 36.93, 516.67 25.3, 540.09 -0.83 M506.66 46.88 C521.43 34.77, 529.19 18.71, 544.1 -0.1 M503.75 47.52 C521.75 31.07, 536.65 9.62, 546.16 -0.88 M510.98 45.42 C518.19 40.66, 531.3 24.07, 553.22 -2.66 M509.54 47.45 C519.11 33.88, 530.8 22.12, 550.3 0.98 M517.56 51.98 C526.26 29.66, 547.25 12.25, 556.49 3.4 M514.72 49.55 C525.18 36.77, 535.06 27.28, 557.11 -0.6 M523.8 48.98 C530.38 31.53, 542.32 18.82, 559.28 -3.7 M521.45 48.13 C535.69 33.38, 551.06 16.04, 562.09 -1.65 M526.27 44.85 C537.79 37.47, 550.54 24.17, 570.21 -3.71 M525.2 49.06 C540.68 29.1, 555.86 10.27, 568.98 0.46 M532.02 50 C546.02 27.94, 565.09 12.05, 573.13 0.87 M529.93 47.88 C539.1 37.69, 548.54 27.62, 573.64 0.44 M536.08 48.13 C552.6 29.62, 569.88 10.48, 576.63 -3.96 M537.47 47.21 C551.96 28.42, 566.98 10.87, 577.45 -1.57 M541.5 51.43 C557.54 33.68, 563.77 18.33, 585.41 4.33 M539.41 46.08 C550.2 35.37, 558.56 25.81, 582.51 2.12 M544.81 47.86 C556.71 31.83, 576.04 19.43, 589.01 -3.76 M546.49 49.34 C558.98 31.43, 573.09 18.4, 588.3 0.38 M548.02 48.36 C560.65 33.9, 567.4 25.37, 590.64 1.82 M552.43 49.03 C567.29 28.38, 581.11 12.47, 592.32 0.9 M560.15 50.17 C569.71 42.26, 574.49 27.4, 602.48 -1.4 M555.32 49.75 C575.19 29.62, 588.74 11.03, 597.34 0.3 M561.19 44.01 C571.65 34.15, 580.91 22.03, 607.23 2.88 M561.54 46 C579.88 28.28, 594.7 9.42, 604.76 1.52 M567.66 49.36 C579.99 36.52, 595.81 19.2, 610.05 -3.05 M567.07 47.64 C581.84 29.23, 599.01 10.4, 610.47 -0.86 M572.54 49.7 C584.14 35.85, 590.36 31.71, 616.12 -3.61 M573.39 49.17 C588.18 30.52, 600.96 15.76, 614.26 0.87 M578.8 51.81 C588.78 41.8, 594.06 29.09, 617.94 2.02 M576.89 47.18 C587.29 39.47, 596.33 27.42, 618.98 1.54 M587.43 44.92 C594.36 37.73, 603.74 29.48, 618.88 5.44 M584.68 49.67 C594.54 38.46, 602.11 24.59, 618.04 6.84 M590.88 52.05 C600.82 39.05, 605.66 24.93, 621.72 10.46 M588.03 49.47 C600.64 32.83, 611.21 20.58, 619.7 12.86 M593.12 49.23 C601.72 43.4, 605.98 39.68, 615.55 19.91 M594.17 49.57 C600.35 41.16, 608.23 32.88, 617.99 18.98 M603.09 48.74 C600.52 40.78, 605.84 35.36, 617.86 21.16 M599.77 48.54 C605 41.72, 608.4 36.53, 618.55 23.55 M606.75 50.36 C606.57 44.95, 611.19 44.45, 623.26 33.55 M606.69 45.87 C610.93 42.65, 614.46 36.74, 619.29 29.46 M608.91 45.5 C611.32 41.13, 619.64 38.25, 622.14 36.53 M611.13 47.54 C612.84 44.14, 616.97 40.04, 621.23 37.91 M616.83 46.61 C616.75 47.67, 618.09 44.18, 620.33 43.55 M616.17 47.32 C617.29 46.66, 617.93 45.15, 619.77 43.31" stroke="#ffc9c9" stroke-width="0.5" fill="none"></path><path d="M-0.39 1.56 C246.44 -3.68, 494.07 -2.62, 620.62 0.92 M0.44 -0.36 C151.23 -0.21, 303 -0.72, 618.51 0.43 M620.42 1.36 C619.17 13.69, 616.06 31.03, 623.15 44.54 M618.17 1.78 C618.76 17.65, 619.09 35.52, 619.29 46.32 M619.18 46.23 C478.01 46.94, 335.81 47.47, 0.79 46.83 M618.59 46.67 C418.86 48.82, 218.59 47.83, 0.37 47.77 M-2.75 44.82 C-3.59 29.45, 1.75 13.51, -1.51 0.15 M-1.07 47.92 C1.23 37.27, 0.69 22.53, 0.99 0.24" stroke="#e03131" stroke-width="1" fill="none"></path></g><g transform="translate(499.1904355463962 355.0282561961392) rotate(0 275.9083251953125 16.100000000000023)"><text x="0" y="25.760546874999996" font-family="Helvetica, Segoe UI Emoji" font-size="28px" fill="#1e1e1e" text-anchor="start" style="white-space: pre;" direction="ltr" dominant-baseline="alphabetic">values array - Fixed-size Primitive child array</text></g><g stroke-linecap="round"><g transform="translate(507.6929957118683 175.75189376031142) rotate(0 12.783235292708326 78.98874771191691)"><path d="M-1.29 1.35 C12.14 65.22, 16.39 125.87, 26.17 160.15" stroke="#e03131" stroke-width="2.5" fill="none" stroke-dasharray="8 10"></path></g><g transform="translate(507.6929957118683 175.75189376031142) rotate(0 12.783235292708326 78.98874771191691)"><path d="M12.4 139.55 C19.99 148.52, 22.25 155.92, 26.48 161.24" stroke="#e03131" stroke-width="2.5" fill="none"></path></g><g transform="translate(507.6929957118683 175.75189376031142) rotate(0 12.783235292708326 78.98874771191691)"><path d="M29.15 136.09 C30.06 146.38, 25.67 155.15, 26.48 161.24" stroke="#e03131" stroke-width="2.5" fill="none"></path></g></g><mask></mask><g transform="translate(499.1904355463962 533.5889119755543) rotate(0 81.60832977294922 16.100000000000023)"><text x="0" y="25.760546874999996" font-family="Helvetica, Segoe UI Emoji" font-size="28px" fill="#1e1e1e" text-anchor="start" style="white-space: pre;" direction="ltr" dominant-baseline="alphabetic">Values buffer</text></g><g transform="translate(618.4619357583715 220.12580435300004) rotate(0 76.90833282470703 16.100000000000023)"><text x="0" y="25.760546874999996" font-family="Helvetica, Segoe UI Emoji" font-size="28px" fill="#1e1e1e" text-anchor="start" style="white-space: pre;" direction="ltr" dominant-baseline="alphabetic">Offset buffer</text></g><g transform="translate(499.1904355463962 442.479266035039) rotate(0 130.03334045410156 16.100000000000023)"><text x="0" y="25.760546874999996" font-family="Helvetica, Segoe UI Emoji" font-size="28px" fill="#1e1e1e" text-anchor="start" style="white-space: pre;" direction="ltr" dominant-baseline="alphabetic">Validity bitmap buffer</text></g><g stroke-linecap="round" transform="translate(830.3672061845723 512.827863404312) rotate(0 201.70976564776896 39.50467204564006)"><path d="M-0.28 1.24 L404.77 1.25 L403.22 80.7 L1.48 78.91" stroke="none" stroke-width="0" fill="#a5d8ff"></path><path d="M0 0 C137.22 0.51, 275.06 -0.02, 403.42 0 M0 0 C103.93 -1.23, 209.32 -0.31, 403.42 0 M403.42 0 C402.95 27.7, 402.57 57.16, 403.42 79.01 M403.42 0 C403.59 31.39, 402.98 61.26, 403.42 79.01 M403.42 79.01 C259.46 77.41, 113.81 75.99, 0 79.01 M403.42 79.01 C274.44 77.2, 144.42 77.65, 0 79.01 M0 79.01 C-1.26 62.44, -0.23 45.09, 0 0 M0 79.01 C0.81 57.36, 0.78 38.02, 0 0" stroke="#1e1e1e" stroke-width="2" fill="none"></path></g><g transform="translate(865.3761543762224 533.5889119755541) rotate(0 164.98333740234375 16.100000000000023)"><text x="0" y="25.760546874999996" font-family="Helvetica, Segoe UI Emoji" font-size="28px" fill="#1e1e1e" text-anchor="start" style="white-space: pre;" direction="ltr" dominant-baseline="alphabetic">12  -7  25  0  -127  127  50</text></g><g stroke-linecap="round" transform="translate(914.5836258501381 201.94715091955482) rotate(0 101.15230388298585 34.27865343344513)"><path d="M-1.72 0.04 L202.75 1.03 L203.3 68.51 L0.59 69.75" stroke="none" stroke-width="0" fill="#a5d8ff"></path><path d="M0 0 C78.11 -2.23, 160.25 -0.79, 202.3 0 M0 0 C58.4 0.98, 117.22 1.3, 202.3 0 M202.3 0 C201.37 22.55, 201.85 44.34, 202.3 68.56 M202.3 0 C201.99 21.03, 202.75 42.94, 202.3 68.56 M202.3 68.56 C148.01 68.84, 97.51 69.54, 0 68.56 M202.3 68.56 C158.71 67.51, 114.2 68.28, 0 68.56 M0 68.56 C-0.19 49.6, 0.82 31.38, 0 0 M0 68.56 C-0.37 49.09, 0.58 29.68, 0 0" stroke="#1e1e1e" stroke-width="2" fill="none"></path></g><g transform="translate(957.357023483124 220.13300768671752) rotate(0 58.375 16.100000000000023)"><text x="0" y="25.760546874999996" font-family="Helvetica, Segoe UI Emoji" font-size="28px" fill="#1e1e1e" text-anchor="start" style="white-space: pre;" direction="ltr" dominant-baseline="alphabetic">0 3 3 7 7 </text></g><g transform="translate(830.3672061845723 441.0792660350389) rotate(0 30.975000381469727 17.5)"><text x="0" y="24.528" font-family="Virgil, Segoe UI Emoji" font-size="28px" fill="#1971c2" text-anchor="start" style="white-space: pre;" direction="ltr" dominant-baseline="alphabetic">None</text></g></svg>