<svg xmlns="http://www.w3.org/2000/svg" xmlns:xlink="http://www.w3.org/1999/xlink" xmlns:lucid="lucid" width="1110" height="420"><g transform="translate(-90 -160)" lucid:page-tab-id="0_0"><path d="M0 0h1760v1360H0z" fill="#fff"/><path d="M440 246a6 6 0 0 1 6-6h228a6 6 0 0 1 6 6v108a6 6 0 0 1-6 6H446a6 6 0 0 1-6-6z" stroke="#3a414a" fill="#edf5ff"/><path d="M320 286a6 6 0 0 1 6-6h708a6 6 0 0 1 6 6v28a6 6 0 0 1-6 6H326a6 6 0 0 1-6-6z" stroke="#3a414a" fill="#fff"/><path d="M160 276a6 6 0 0 1 6-6h228a6 6 0 0 1 6 6v48a6 6 0 0 1-6 6H166a6 6 0 0 1-6-6z" stroke="#000" stroke-opacity="0" fill="#fff" fill-opacity="0"/><use xlink:href="#a" transform="matrix(1,0,0,1,165,275) translate(86.60493827160494 30.27777777777778)"/><path d="M440 186a6 6 0 0 1 6-6h228a6 6 0 0 1 6 6v48a6 6 0 0 1-6 6H446a6 6 0 0 1-6-6z" stroke="#000" stroke-opacity="0" fill="#fff" fill-opacity="0"/><use xlink:href="#b" transform="matrix(1,0,0,1,445,185) translate(82.9320987654321 30.27777777777778)"/><path d="M440 446a6 6 0 0 1 6-6h228a6 6 0 0 1 6 6v108a6 6 0 0 1-6 6H446a6 6 0 0 1-6-6z" stroke="#3a414a" fill="#edf5ff"/><path d="M460 486a6 6 0 0 1 6-6h708a6 6 0 0 1 6 6v28a6 6 0 0 1-6 6H466a6 6 0 0 1-6-6z" stroke="#3a414a" fill="#fff"/><path d="M160 476a6 6 0 0 1 6-6h228a6 6 0 0 1 6 6v48a6 6 0 0 1-6 6H166a6 6 0 0 1-6-6z" stroke="#000" stroke-opacity="0" fill="#fff" fill-opacity="0"/><use xlink:href="#a" transform="matrix(1,0,0,1,165,475) translate(86.60493827160494 30.27777777777778)"/><path d="M440 386a6 6 0 0 1 6-6h228a6 6 0 0 1 6 6v48a6 6 0 0 1-6 6H446a6 6 0 0 1-6-6z" stroke="#000" stroke-opacity="0" fill="#fff" fill-opacity="0"/><use xlink:href="#b" transform="matrix(1,0,0,1,445,385) translate(82.9320987654321 30.27777777777778)"/><path d="M660 480v4.44m0 4.45v8.88m0 4.44v8.9m0 4.44V520" stroke="#3a414a" fill="none"/><path d="M660.5 480h-1v-.5h1zM660.5 520.5h-1v-.5h1z" stroke="#3a414a" stroke-width=".05" fill="#3a414a"/><path d="M860 480v4.5m0 4.5v9m0 4.5v9m0 4.5v4.5" stroke="#3a414a" fill="none"/><path d="M860.5 480h-1v-.5h1z" stroke="#3a414a" stroke-width=".05" fill="#3a414a"/><path d="M860 520.5v.5M1020 480v4.5m0 4.5v9m0 4.5v9m0 4.5v4.5" stroke="#3a414a" fill="none"/><path d="M1020.5 480h-1v-.5h1z" stroke="#3a414a" stroke-width=".05" fill="#3a414a"/><path d="M1020 520.5v.5" stroke="#3a414a" fill="none"/><path d="M110 450h100v100H110z" fill="none"/><path d="M184.3 503.5c2-.3 3.5-1.6 3.5-4.2 0-2.9-1.9-4.7-4.7-4.9-3.3-.5-8.8-.6-12-.8-.7-2.3-.5-3.1.4-5.1 3.1-3.4 4.7-6.7 4.2-11.3-.1-1.7-1.7-4.4-2.9-4.6-2-.3-2.6 1.4-4.1 3.8-1.5 2.6-2.3 3.2-4.1 6.3-1.8 3.1-2 3.8-8.5 8.4-5.9 4.1-5.1 5.6-12 6.9-1.2.3-4.8.9-9.8.9-1.2 0-2.2 2.7-2.2 11.4 0 8.6 1 11.3 2.2 11.3 5.5 0 9.9.2 12.8 1.1 4.9 2.1 11.2 3.3 15.7 3.9 8.7 1.3 12.3.8 15 .1v-.1c1.5-.4 2.5-1.4 3-3.1.4-1.6.2-2.7-.8-3.3l.8-.1c2.4-.4 4-1.6 4.3-4.3.2-1.9-.4-3.2-1.7-3.7 2.3 0 4.1-1.1 4.4-4.1.4-2.6-1.3-4.4-3.5-4.5" fill="#403f3f"/><path d="M112.5 252.5h95v95h-95z" fill="none"/><path d="M184.4 279.48c-5.2 0-9.4-.3-12.15-1.05-4.65-2-10.63-3.13-14.9-3.7-8.28-1.24-11.7-.76-14.26-.1-1.44.48-2.38 1.43-2.86 3.05-.38 1.5-.2 2.56.76 3.13l-.76.1c-2.28.4-3.8 1.43-4.1 4.1-.17 1.8.4 3.03 1.63 3.5-2.2 0-3.9 1.05-4.18 3.8-.4 2.57 1.13 4.28 3.3 4.38-1.9.28-3.3 1.5-3.3 4 0 2.74 1.8 4.45 4.46 4.64 3.13.38 8.35.57 11.4.76.66 2.2.47 2.94-.4 4.85-2.93 3.22-4.45 6.36-3.97 10.73.08 1.6 1.6 4.18 2.74 4.37 1.9.3 2.47-1.33 3.9-3.6 1.42-2.48 2.18-3.05 3.9-6 1.7-2.94 1.9-3.6 8.07-7.98 5.6-3.9 4.85-5.4 11.4-6.64 1.15-.2 4.56-.75 9.3-.75 1.16 0 2.1-2.57 2.1-10.84 0-8.15-.94-10.72-2.1-10.72" fill="#403f3f"/><defs><path fill="#3a414a" d="M160-131c35 5 61 23 61 61C221 17 115-2 30 0v-248c76 3 177-17 177 60 0 33-19 50-47 57zm-97-11c50-1 110 9 110-42 0-47-63-36-110-37v79zm0 115c55-2 124 14 124-45 0-56-70-42-124-44v89" id="c"/><path fill="#3a414a" d="M141-36C126-15 110 5 73 4 37 3 15-17 15-53c-1-64 63-63 125-63 3-35-9-54-41-54-24 1-41 7-42 31l-33-3c5-37 33-52 76-52 45 0 72 20 72 64v82c-1 20 7 32 28 27v20c-31 9-61-2-59-35zM48-53c0 20 12 33 32 33 41-3 63-29 60-74-43 2-92-5-92 41" id="d"/><path fill="#3a414a" d="M59-47c-2 24 18 29 38 22v24C64 9 27 4 27-40v-127H5v-23h24l9-43h21v43h35v23H59v120" id="e"/><path fill="#3a414a" d="M96-169c-40 0-48 33-48 73s9 75 48 75c24 0 41-14 43-38l32 2c-6 37-31 61-74 61-59 0-76-41-82-99-10-93 101-131 147-64 4 7 5 14 7 22l-32 3c-4-21-16-35-41-35" id="f"/><path fill="#3a414a" d="M106-169C34-169 62-67 57 0H25v-261h32l-1 103c12-21 28-36 61-36 89 0 53 116 60 194h-32v-121c2-32-8-49-39-48" id="g"/><g id="a"><use transform="matrix(0.06172839506172839,0,0,0.06172839506172839,0,0)" xlink:href="#c"/><use transform="matrix(0.06172839506172839,0,0,0.06172839506172839,14.814814814814813,0)" xlink:href="#d"/><use transform="matrix(0.06172839506172839,0,0,0.06172839506172839,27.160493827160494,0)" xlink:href="#e"/><use transform="matrix(0.06172839506172839,0,0,0.06172839506172839,33.333333333333336,0)" xlink:href="#f"/><use transform="matrix(0.06172839506172839,0,0,0.06172839506172839,44.44444444444444,0)" xlink:href="#g"/></g><path fill="#3a414a" d="M212-179c-10-28-35-45-73-45-59 0-87 40-87 99 0 60 29 101 89 101 43 0 62-24 78-52l27 14C228-24 195 4 139 4 59 4 22-46 18-125c-6-104 99-153 187-111 19 9 31 26 39 46" id="h"/><path fill="#3a414a" d="M100-194c63 0 86 42 84 106H49c0 40 14 67 53 68 26 1 43-12 49-29l28 8c-11 28-37 45-77 45C44 4 14-33 15-96c1-61 26-98 85-98zm52 81c6-60-76-77-97-28-3 7-6 17-6 28h103" id="i"/><g id="b"><use transform="matrix(0.06172839506172839,0,0,0.06172839506172839,0,0)" xlink:href="#h"/><use transform="matrix(0.06172839506172839,0,0,0.06172839506172839,15.987654320987653,0)" xlink:href="#d"/><use transform="matrix(0.06172839506172839,0,0,0.06172839506172839,28.333333333333332,0)" xlink:href="#f"/><use transform="matrix(0.06172839506172839,0,0,0.06172839506172839,39.44444444444444,0)" xlink:href="#g"/><use transform="matrix(0.06172839506172839,0,0,0.06172839506172839,51.79012345679012,0)" xlink:href="#i"/></g></defs></g></svg>