<svg xmlns="http://www.w3.org/2000/svg" viewBox="0 0 329.21 164.93"><defs><style>.cls-1{fill:none;stroke:#000;stroke-linecap:round;stroke-miterlimit:10;stroke-width:0.75px;stroke-dasharray:0.75 3;}.cls-2{fill:#f3971f;}.cls-3{fill:#f29720;}</style></defs><title>DataFUSION-Logo-Dark</title><g id="Layer_2" data-name="Layer 2"><g id="logo"><path class="cls-1" d="M257.26,112.82c16,20.72,25.14,36.57,22,39.34"/><path class="cls-1" d="M184.24,37.13c6.55,4.41,15.83,12.47,26.43,23"/><path class="cls-1" d="M279.27,33.78c2.93,2.93-6.55,19.11-22,39.28"/><path class="cls-1" d="M208.83,127.75c-16.9,16.49-31,27-34,24.41"/><path class="cls-1" d="M227,19.05c3.86,0,7.25,18.31,9.11,39.88"/><path class="cls-1" d="M235.79,127.32c-1.91,19-5.12,37.24-8.75,37.24"/><path d="M0,.43H11.23a22,22,0,0,1,9.69,2.13,17.62,17.62,0,0,1,7.24,6.49A18.43,18.43,0,0,1,31,19.27a18.39,18.39,0,0,1-2.88,10.31,17.8,17.8,0,0,1-7.32,6.49,22.44,22.44,0,0,1-9.72,2.1H0ZM2.77,3.09V35.51H11a20,20,0,0,0,6.23-1,18.25,18.25,0,0,0,5.45-2.91,13.58,13.58,0,0,0,4-5.13,17.18,17.18,0,0,0,1.49-7.27,16.82,16.82,0,0,0-1.52-7.29,13.19,13.19,0,0,0-4-5.06A18.94,18.94,0,0,0,11.13,3.09Z"/><path d="M68.88,26H51.65L47,38.17H44.24L59,0H61.7L76.5,38.17H73.63ZM68,23.58,60.21,3.71,52.57,23.58Z"/><path d="M112.87,3.09H100.35V38.17H97.59V3.09H85.5V.43h27.37Z"/><path d="M146.45,26H129.21l-4.68,12.19h-2.72L136.56,0h2.71l14.8,38.17H151.2Zm-.93-2.4L137.78,3.71l-7.64,19.87Z"/><path d="M35.64,62.68H6.7a1.2,1.2,0,0,0-1.2,1.2V89.33a1.2,1.2,0,0,0,1.2,1.2H27.78a1.2,1.2,0,0,1,1.2,1.2v2.48a1.2,1.2,0,0,1-1.2,1.2H6.7a1.2,1.2,0,0,0-1.2,1.2v30.75a1,1,0,0,1-1,1H1.3a1,1,0,0,1-1-1V58.9a1.2,1.2,0,0,1,1.2-1.2h34.1a1.21,1.21,0,0,1,1.21,1.2v2.57A1.21,1.21,0,0,1,35.64,62.68Z"/><path d="M104,57.7a.94.94,0,0,1,1,.95v45q-.1,11.83-8,19.35t-19.85,7.51q-12.14,0-19.95-7.46t-7.91-19.5V58.65a1,1,0,0,1,1-.95h3.18a1,1,0,0,1,.95.95v45a21.46,21.46,0,0,0,6.61,15.76q6.42,6.12,16.17,6.12a22.55,22.55,0,0,0,16.12-6.12q6.47-6.11,6.57-15.76v-45a.94.94,0,0,1,.94-.95Z"/><path d="M139.56,55.41a29,29,0,0,1,13.79,3.05,1.09,1.09,0,0,1,.42,1.48l-1.3,2.37a1.1,1.1,0,0,1-1.38.48,31.23,31.23,0,0,0-11.93-2.5q-7.66,0-11.94,3.77A12.45,12.45,0,0,0,123,73.87a12.09,12.09,0,0,0,.5,3.62,8.63,8.63,0,0,0,1.85,3.18c.9,1,1.69,1.88,2.36,2.58a13.84,13.84,0,0,0,3.41,2.31l3.6,1.9,4.18,2.19,4,2.08q7.9,4.08,11.78,8.2t4,11.6q.1,9-6.61,14a26.07,26.07,0,0,1-16,5,36.05,36.05,0,0,1-10.7-1.69,37.09,37.09,0,0,1-7.41-3.07,1.1,1.1,0,0,1-.36-1.56L119,122a1.08,1.08,0,0,1,1.41-.35,33.62,33.62,0,0,0,16.54,4A20.46,20.46,0,0,0,148.32,122q5-3.5,4.87-10.47a13,13,0,0,0-1.19-5.19,12,12,0,0,0-3.37-4.13,31.66,31.66,0,0,0-4.27-3L138.73,96l-5.63-3.21-5.63-3.2a25.57,25.57,0,0,1-4.82-3.67,16,16,0,0,1-3.78-5.33,16.21,16.21,0,0,1-1.3-6.56q0-8.86,6.32-13.73T139.56,55.41Z"/><path d="M175,128.24h-3a1.09,1.09,0,0,1-1.09-1.09V58.79A1.09,1.09,0,0,1,172,57.7h3a1.09,1.09,0,0,1,1.09,1.09v68.36A1.09,1.09,0,0,1,175,128.24Z"/><path class="cls-2" d="M227,55.41a39.08,39.08,0,0,1,20.14,5.67A37.52,37.52,0,0,1,256,68.35,33.31,33.31,0,0,1,262.21,79a39.44,39.44,0,0,1,2.38,13.93q-.09,15.42-9.65,25.67Q244.31,130.23,227,130.53a39.35,39.35,0,0,1-10.05-1.34,39.75,39.75,0,0,1-18.85-11.7,33.13,33.13,0,0,1-6.22-10.64,39.18,39.18,0,0,1-2.39-13.93q0-16.11,10.79-26.81T227,55.41Zm0,4.68a32.37,32.37,0,0,0-14.18,3A27.74,27.74,0,0,0,202.71,71a37.51,37.51,0,0,0-5.77,10.5,33.82,33.82,0,0,0-2,11.39q0,14.13,9.05,23.53t23,9.4A31.48,31.48,0,0,0,244.35,121a30.34,30.34,0,0,0,11.14-12.24,35.59,35.59,0,0,0,3.63-15.87q0-14.33-9.05-23.53T227,60.09Z"/><path d="M328.12,128.24h-3.51a1.11,1.11,0,0,1-.9-.47L283.84,69.5a1.08,1.08,0,0,0-2,.61v57a1.09,1.09,0,0,1-1.09,1.09h-2.7a1.09,1.09,0,0,1-1.09-1.09V58.79a1.09,1.09,0,0,1,1.09-1.09h3.14a1.1,1.1,0,0,1,.89.47l40.25,58.49a1.09,1.09,0,0,0,2-.62V58.79a1.09,1.09,0,0,1,1.09-1.09h2.69a1.09,1.09,0,0,1,1.09,1.09v68.36A1.09,1.09,0,0,1,328.12,128.24Z"/><path d="M173.49,30.7a3.21,3.21,0,0,1,2.63.9,3.61,3.61,0,0,1,.95,2.59,3.34,3.34,0,0,1-1,2.48,3.46,3.46,0,0,1-2.58,1,3.52,3.52,0,0,1-2.49-6A3.38,3.38,0,0,1,173.49,30.7Z"/><path d="M279.46,152.37a2.92,2.92,0,0,1-2.49.42,11.78,11.78,0,0,1-2.29-.74,31.34,31.34,0,0,1-4.15-2.26,91.5,91.5,0,0,1-7.65-5.46c-4.92-3.86-9.58-8-14.16-12.28-9.15-8.5-17.79-17.52-26.19-26.75s-16.44-18.79-24.14-28.62q-5.73-7.41-11.08-15.11a156.2,156.2,0,0,1-9.82-16,.46.46,0,0,1,.81-.44h0c1.56,2.69,3.23,5.3,4.94,7.89s3.52,5.12,5.34,7.64c3.62,5,7.43,10,11.29,14.84,7.7,9.76,15.82,19.19,24.08,28.5S240.84,122.3,249.76,131c4.47,4.32,9.06,8.52,13.83,12.49a91.19,91.19,0,0,0,7.41,5.61,34.64,34.64,0,0,0,4,2.32,11.28,11.28,0,0,0,2.12.78,2.38,2.38,0,0,0,2-.21h0a.29.29,0,0,1,.4,0A.28.28,0,0,1,279.46,152.37Z"/><path d="M279.18,33.88a2.64,2.64,0,0,0-2.29-.18,11.63,11.63,0,0,0-2.3.92,36.9,36.9,0,0,0-4.29,2.61c-2.76,1.91-5.38,4-7.94,6.21-5.13,4.36-10.06,9-14.86,13.69-9.56,9.5-18.83,19.3-27.69,29.46s-17.56,20.47-25.69,31.22c-4.1,5.34-8.07,10.79-11.74,16.43-1.83,2.82-3.62,5.67-5.17,8.64a37.25,37.25,0,0,0-2.06,4.56,12.64,12.64,0,0,0-.62,2.38A2.52,2.52,0,0,0,175,152h0a.24.24,0,0,1,0,.33.22.22,0,0,1-.31,0,2.08,2.08,0,0,1-.66-1.23,4.34,4.34,0,0,1-.05-1.34,11.94,11.94,0,0,1,.53-2.54,37.13,37.13,0,0,1,1.92-4.75,98.74,98.74,0,0,1,4.91-8.91c3.57-5.77,7.44-11.33,11.43-16.8s8.21-10.76,12.48-16,8.63-10.42,13.14-15.46,9.07-10,13.74-14.92,9.44-9.69,14.37-14.33,10-9.18,15.24-13.41a100.81,100.81,0,0,1,8.22-6,36.53,36.53,0,0,1,4.45-2.5,12.69,12.69,0,0,1,2.43-.84,2.92,2.92,0,0,1,2.56.36.14.14,0,1,1-.17.21Z"/><path d="M227,19.35a3.59,3.59,0,0,0-2,.84,9.09,9.09,0,0,0-1.47,1.73,20.85,20.85,0,0,0-2.11,4.16,62.3,62.3,0,0,0-2.7,9,163.56,163.56,0,0,0-3.13,18.7,318.24,318.24,0,0,0-2,37.93q0,9.51.52,19c.32,6.33.81,12.65,1.54,18.94a171.5,171.5,0,0,0,3,18.75,66.25,66.25,0,0,0,2.7,9.08,22.89,22.89,0,0,0,2.08,4.21c.21.34.47.63.69.94a10.71,10.71,0,0,0,.81.84,4.11,4.11,0,0,0,1,.6,2.22,2.22,0,0,0,.52.2.72.72,0,0,1,.56.23h0a0,0,0,0,1,0,0h0a.74.74,0,0,1-.63.06,1.94,1.94,0,0,1-.59-.19,4.82,4.82,0,0,1-1.07-.64,10.1,10.1,0,0,1-.87-.86c-.25-.32-.53-.62-.75-.95a23.42,23.42,0,0,1-2.26-4.25,65.38,65.38,0,0,1-3-9.1,171.4,171.4,0,0,1-3.62-18.78c-.88-6.31-1.51-12.65-2-19s-.64-12.73-.68-19.1.18-12.75.55-19.11.9-12.72,1.78-19a164.9,164.9,0,0,1,3.56-18.81,64.19,64.19,0,0,1,3.07-9.11,21.75,21.75,0,0,1,2.35-4.24,9.39,9.39,0,0,1,1.7-1.81,4.19,4.19,0,0,1,2.4-.88.28.28,0,0,1,.29.29.29.29,0,0,1-.27.3Z"/><path class="cls-3" d="M173.48,29.89a4,4,0,0,1,3.25,1.1,4.46,4.46,0,0,1,1.17,3.2,4.16,4.16,0,0,1-1.23,3.07,4.33,4.33,0,0,1-3.19,1.23,4.3,4.3,0,1,1,0-8.6Z"/></g></g></svg>