<svg xmlns="http://www.w3.org/2000/svg" xmlns:xlink="http://www.w3.org/1999/xlink" xmlns:lucid="lucid" width="1720" height="831.67"><g transform="translate(-19.999999999999943 -98.33333333333323)" lucid:page-tab-id="0_0"><path d="M0 0h1760v1360H0z" fill="#fff"/><path d="M720 226a6 6 0 0 1 6-6h408a6 6 0 0 1 6 6v468a6 6 0 0 1-6 6H726a6 6 0 0 1-6-6z" stroke="#3a414a" fill="#fff"/><use xlink:href="#a" transform="matrix(1,0,0,1,724.9988060067355,225) translate(155.0308641975309 238.09027777777777)"/><use xlink:href="#b" transform="matrix(1,0,0,1,724.9988060067355,225) translate(210.58641975308643 238.09027777777777)"/><path d="M281.96 300.44l56.07 12.47 226.9 60.1 32.3 5.8 30.9 4.18 31.48 2.92 33.6 1.7 3.56.06" stroke="#3a414a" stroke-width="4" stroke-linejoin="round" fill="none"/><path d="M282 300.45l-2-.45" stroke="#3a414a" stroke-width="4" fill="none"/><path d="M713.03 387.9l-14.34 4.43.13-9.27z" stroke="#3a414a" stroke-width="4" fill="#3a414a"/><path d="M282.2 698.8l22.86-12.64 24.55-14.93 25.02-16.7 27.82-20.32 91.84-72.48 9.73-6.5 7.88-4.8 6.8-3.75 6.55-3.27 7.06-3.16 7.9-3.15 9.46-3.3 12.9-3.92 91.32-24.48 21.24-7.44 21.28-8.48 22.38-10.02 2.06-1.03" stroke="#3a414a" stroke-width="5" stroke-linejoin="round" fill="none"/><path d="M282.25 698.76L280 700" stroke="#3a414a" stroke-width="5" fill="none"/><path d="M715.84 470.95l-10.7 10.5-4.13-8.28z" stroke="#3a414a" stroke-width="5" fill="#3a414a"/><path d="M360 286a6 6 0 0 1 6-6h88a6 6 0 0 1 6 6v68a6 6 0 0 1-6 6h-88a6 6 0 0 1-6-6zm10-6v80m-10-70h100M520 346a6 6 0 0 1 6-6h88a6 6 0 0 1 6 6v68a6 6 0 0 1-6 6h-88a6 6 0 0 1-6-6zm10-6v80m-10-70h100M540 486a6 6 0 0 1 6-6h88a6 6 0 0 1 6 6v68a6 6 0 0 1-6 6h-88a6 6 0 0 1-6-6zm10-6v80m-10-70h100M360 566a6 6 0 0 1 6-6h88a6 6 0 0 1 6 6v68a6 6 0 0 1-6 6h-88a6 6 0 0 1-6-6zm10-6v80m-10-70h100" stroke="#3a414a" fill="#fff"/><path d="M1142.5 470.67h344.1" stroke="#3a414a" stroke-width="4" fill="none"/><path d="M1142.55 472.67h-2.05v-4h2.05z" stroke="#3a414a" stroke-width=".05" fill="#3a414a"/><path d="M1502.86 470.67l-14.27 4.63v-9.27z" stroke="#3a414a" stroke-width="4" fill="#3a414a"/><path d="M1220 426a6 6 0 0 1 6-6h88a6 6 0 0 1 6 6v68a6 6 0 0 1-6 6h-88a6 6 0 0 1-6-6zm10-6v80m-10-70h100M1380 426a6 6 0 0 1 6-6h88a6 6 0 0 1 6 6v68a6 6 0 0 1-6 6h-88a6 6 0 0 1-6-6zm10-6v80m-10-70h100" stroke="#3a414a" fill="#fff"/><path d="M300.47 320.18l9.5 3.67 28.23 12.74 5.36 1.55 5.16 1.04 5.48.6 4.8.18" stroke="#6f7681" stroke-linejoin="round" fill="none"/><path d="M300.48 320.2l-.48-.2" stroke="#6f7681" fill="none"/><path d="M359.5 339.5v1l-.53-.02.03-1z" stroke="#6f7681" stroke-width=".05" fill="#6f7681"/><path d="M300.47 280.17l10.6 3.73 27.24 11.1 5.86 1.52 5.7.97 6.13.5 3 .07" stroke="#6f7681" stroke-linejoin="round" fill="none"/><path d="M300.48 280.17L300 280" stroke="#6f7681" fill="none"/><path d="M359.5 297.58v1h-.52l.02-1z" stroke="#6f7681" stroke-width=".05" fill="#6f7681"/><path d="M460.5 380H519" stroke="#6f7681" stroke-linejoin="round" fill="none"/><path d="M460.5 380h-.5" stroke="#6f7681" fill="none"/><path d="M519.5 380.5h-.5v-1h.5z" stroke="#6f7681" stroke-width=".05" fill="#6f7681"/><path d="M500.37 320.33l20.78 18.62.85 1.3" stroke="#6f7681" stroke-linejoin="round" fill="none"/><path d="M500.38 320.34L500 320" stroke="#6f7681" fill="none"/><path d="M522.7 340.42l-.52.32-.3.26-.3-.48.83-.54z" stroke="#6f7681" stroke-width=".05" fill="#6f7681"/><path d="M480.46 519.8l8.9-3.62 28.76-13.88 5.07-1.58 4.85-1.08 5.12-.7 5.72-.27h.1" stroke="#6f7681" stroke-linejoin="round" fill="none"/><path d="M480.47 519.8l-.47.2" stroke="#6f7681" fill="none"/><path d="M539.5 499.17h-.5l-.02-1h.52z" stroke="#6f7681" stroke-width=".05" fill="#6f7681"/><path d="M484 587.7l5.3-3.76 7.02-6.04 18.16-17.15 3.67-2.62 3.2-1.86 3-1.4 3.04-1.12 3.15-.83 3.42-.58 3.84-.3 1.2-.03" stroke="#6f7681" stroke-linejoin="round" fill="none"/><path d="M484 587.7l-.42.3" stroke="#6f7681" fill="none"/><path d="M539.5 552.5h-.5l-.02-1h.52z" stroke="#6f7681" stroke-width=".05" fill="#6f7681"/><path d="M260.46 619.8l7.48-3.34 8.7-4.4 12.66-7.3 22.95-13.7 6.1-3.1 5.04-2.25 4.54-1.75 4.33-1.43 4.27-1.17 4.3-.95 4.45-.75 4.66-.55 5-.34 4.04-.08" stroke="#6f7681" stroke-linejoin="round" fill="none"/><path d="M260.47 619.8l-.47.2" stroke="#6f7681" fill="none"/><path d="M359.5 579.17h-.5l-.02-1h.52z" stroke="#6f7681" stroke-width=".05" fill="#6f7681"/><path d="M260.46 659.8l7.8-3.32 9.12-4.46 15-8.36 19.44-11.04 6.45-3.15 5.25-2.24 4.72-1.74 4.5-1.42 4.43-1.14 4.5-.92 4.65-.7 4.92-.5 5.3-.28 2.46-.03" stroke="#6f7681" stroke-linejoin="round" fill="none"/><path d="M260.47 659.8l-.47.2" stroke="#6f7681" fill="none"/><path d="M359.5 621h-.5l-.02-1h.52z" stroke="#6f7681" stroke-width=".05" fill="#6f7681"/><path d="M1180.5 438.67h38.5" stroke="#6f7681" stroke-linejoin="round" fill="none"/><path d="M1180.5 438.67h-.5" stroke="#6f7681" fill="none"/><path d="M1219.5 439.17h-.5v-1h.5z" stroke="#6f7681" stroke-width=".05" fill="#6f7681"/><path d="M1180.46 499.8l11.13-4.66 13.76-6.2 5.26-1.42 5.37-.73 3-.12" stroke="#6f7681" stroke-linejoin="round" fill="none"/><path d="M1180.47 499.8l-.47.2" stroke="#6f7681" fill="none"/><path d="M1219.5 487.17h-.5l-.03-1h.53z" stroke="#6f7681" stroke-width=".05" fill="#6f7681"/><path d="M1340.5 440.1l33.58 7.7 4.92.18" stroke="#6f7681" stroke-linejoin="round" fill="none"/><path d="M1340.5 440.1l-.5-.1" stroke="#6f7681" fill="none"/><path d="M1379.5 447.5v1l-.53-.02.03-1z" stroke="#6f7681" stroke-width=".05" fill="#6f7681"/><path d="M1340.45 499.8l9.58-4.34 15.25-7.63 4.84-1.46 4.86-.8 4.02-.2" stroke="#6f7681" stroke-linejoin="round" fill="none"/><path d="M1340.47 499.8l-.47.2" stroke="#6f7681" fill="none"/><path d="M1379.5 485.83l-.5.03-.04-1 .54-.03z" stroke="#6f7681" stroke-width=".05" fill="#6f7681"/><path d="M40 124.33a6 6 0 0 1 6-6h228a6 6 0 0 1 6 6v51.34a6 6 0 0 1-6 6H46a6 6 0 0 1-6-6z" stroke="#000" stroke-opacity="0" fill="#fff" fill-opacity="0"/><use xlink:href="#c" transform="matrix(1,0,0,1,45,123.33333333333334) translate(48.58024691358027 38.93055555555554)"/><path d="M40 219.33a6 6 0 0 1 6-6h228a6 6 0 0 1 6 6V324a6 6 0 0 1-6 6H46a6 6 0 0 1-6-6z" stroke="#000" stroke-opacity="0" fill="#fff" fill-opacity="0"/><use xlink:href="#d" transform="matrix(1,0,0,1,44.99999999999997,218.33333333333331) translate(19.160493827160565 58.32638888888887)"/><use xlink:href="#e" transform="matrix(1,0,0,1,44.99999999999997,218.33333333333331) translate(102.03703703703705 58.32638888888887)"/><path d="M40 309.33a6 6 0 0 1 6-6h228a6 6 0 0 1 6 6V414a6 6 0 0 1-6 6H46a6 6 0 0 1-6-6z" stroke="#000" stroke-opacity="0" fill="#fff" fill-opacity="0"/><use xlink:href="#f" transform="matrix(1,0,0,1,45,308.33333333333337) translate(1.9197530864198313 58.32638888888887)"/><use xlink:href="#e" transform="matrix(1,0,0,1,45,308.33333333333337) translate(119.27777777777779 58.32638888888887)"/><path d="M40 426a6 6 0 0 1 6-6h228a6 6 0 0 1 6 6v104.67a6 6 0 0 1-6 6H46a6 6 0 0 1-6-6z" stroke="#000" stroke-opacity="0" fill="#fff" fill-opacity="0"/><use xlink:href="#g" transform="matrix(1,0,0,1,45,425) translate(58.09259259259263 41.60763888888887)"/><use xlink:href="#h" transform="matrix(1,0,0,1,45,425) translate(41.71604938271609 78.94097222222217)"/><use xlink:href="#i" transform="matrix(1,0,0,1,45,425) translate(112.49382716049382 78.94097222222217)"/><path d="M40 566a6 6 0 0 1 6-6h228a6 6 0 0 1 6 6v104.67a6 6 0 0 1-6 6H46a6 6 0 0 1-6-6z" stroke="#000" stroke-opacity="0" fill="#fff" fill-opacity="0"/><use xlink:href="#j" transform="matrix(1,0,0,1,45,565) translate(58.95679012345683 58.32638888888887)"/><path d="M40 682.67a6 6 0 0 1 6-6h228a6 6 0 0 1 6 6v104.66a6 6 0 0 1-6 6H46a6 6 0 0 1-6-6z" stroke="#000" stroke-opacity="0" fill="#fff" fill-opacity="0"/><use xlink:href="#k" transform="matrix(1,0,0,1,44.99999999999994,681.6666666666666) translate(12.376543209876615 41.60763888888887)"/><use xlink:href="#l" transform="matrix(1,0,0,1,44.99999999999994,681.6666666666666) translate(98.7098765432099 41.60763888888887)"/><use xlink:href="#m" transform="matrix(1,0,0,1,44.99999999999994,681.6666666666666) translate(64.0987654320988 78.94097222222217)"/><use xlink:href="#n" transform="matrix(1,0,0,1,44.99999999999994,681.6666666666666) translate(93.4814814814815 78.94097222222217)"/><path d="M40 799.33a6 6 0 0 1 6-6h228a6 6 0 0 1 6 6V904a6 6 0 0 1-6 6H46a6 6 0 0 1-6-6z" stroke="#000" stroke-opacity="0" fill="#fff" fill-opacity="0"/><use xlink:href="#o" transform="matrix(1,0,0,1,44.99999999999996,798.3333333333333) translate(102.03703703703704 58.32638888888887)"/><path d="M1480 124.33a6 6 0 0 1 6-6h228a6 6 0 0 1 6 6v51.34a6 6 0 0 1-6 6h-228a6 6 0 0 1-6-6z" stroke="#000" stroke-opacity="0" fill="#fff" fill-opacity="0"/><use xlink:href="#p" transform="matrix(1,0,0,1,1484.9988060067355,123.33333333333323) translate(42.46913580246917 38.93055555555554)"/><path d="M1480 219.33a6 6 0 0 1 6-6h228a6 6 0 0 1 6 6V324a6 6 0 0 1-6 6h-228a6 6 0 0 1-6-6z" stroke="#000" stroke-opacity="0" fill="#fff" fill-opacity="0"/><use xlink:href="#d" transform="matrix(1,0,0,1,1484.9988060067355,218.3333333333331) translate(19.160493827160565 58.32638888888887)"/><use xlink:href="#e" transform="matrix(1,0,0,1,1484.9988060067355,218.3333333333331) translate(102.03703703703705 58.32638888888887)"/><path d="M1480 309.33a6 6 0 0 1 6-6h228a6 6 0 0 1 6 6V414a6 6 0 0 1-6 6h-228a6 6 0 0 1-6-6z" stroke="#000" stroke-opacity="0" fill="#fff" fill-opacity="0"/><use xlink:href="#f" transform="matrix(1,0,0,1,1484.9988060067355,308.3333333333333) translate(1.9197530864198313 58.32638888888887)"/><use xlink:href="#e" transform="matrix(1,0,0,1,1484.9988060067355,308.3333333333333) translate(119.27777777777779 58.32638888888887)"/><path d="M1480 426a6 6 0 0 1 6-6h228a6 6 0 0 1 6 6v104.67a6 6 0 0 1-6 6h-228a6 6 0 0 1-6-6z" stroke="#000" stroke-opacity="0" fill="#fff" fill-opacity="0"/><g><use xlink:href="#g" transform="matrix(1,0,0,1,1484.9988060067355,424.99999999999983) translate(58.09259259259263 41.60763888888887)"/><use xlink:href="#h" transform="matrix(1,0,0,1,1484.9988060067355,424.99999999999983) translate(41.71604938271609 78.94097222222217)"/><use xlink:href="#i" transform="matrix(1,0,0,1,1484.9988060067355,424.99999999999983) translate(112.49382716049382 78.94097222222217)"/></g><path d="M1480 566a6 6 0 0 1 6-6h228a6 6 0 0 1 6 6v104.67a6 6 0 0 1-6 6h-228a6 6 0 0 1-6-6z" stroke="#000" stroke-opacity="0" fill="#fff" fill-opacity="0"/><g><use xlink:href="#j" transform="matrix(1,0,0,1,1484.9988060067355,564.9999999999998) translate(58.95679012345683 58.32638888888887)"/></g><path d="M1480 682.67a6 6 0 0 1 6-6h228a6 6 0 0 1 6 6v104.66a6 6 0 0 1-6 6h-228a6 6 0 0 1-6-6z" stroke="#000" stroke-opacity="0" fill="#fff" fill-opacity="0"/><g><use xlink:href="#k" transform="matrix(1,0,0,1,1484.9988060067355,681.6666666666663) translate(12.376543209876615 41.60763888888887)"/><use xlink:href="#l" transform="matrix(1,0,0,1,1484.9988060067355,681.6666666666663) translate(98.7098765432099 41.60763888888887)"/><use xlink:href="#m" transform="matrix(1,0,0,1,1484.9988060067355,681.6666666666663) translate(64.0987654320988 78.94097222222217)"/><use xlink:href="#n" transform="matrix(1,0,0,1,1484.9988060067355,681.6666666666663) translate(93.4814814814815 78.94097222222217)"/></g><path d="M1480 799.33a6 6 0 0 1 6-6h228a6 6 0 0 1 6 6V904a6 6 0 0 1-6 6h-228a6 6 0 0 1-6-6z" stroke="#000" stroke-opacity="0" fill="#fff" fill-opacity="0"/><g><use xlink:href="#o" transform="matrix(1,0,0,1,1484.9988060067355,798.333333333333) translate(102.03703703703704 58.32638888888887)"/></g><path d="M820 124.33a6 6 0 0 1 6-6h228a6 6 0 0 1 6 6v51.34a6 6 0 0 1-6 6H826a6 6 0 0 1-6-6z" stroke="#000" stroke-opacity="0" fill="#fff" fill-opacity="0"/><g><use xlink:href="#q" transform="matrix(1,0,0,1,825,123.33333333333323) translate(6.604938271604979 38.93055555555554)"/></g><defs><path fill="#3a414a" d="M30 0v-248h187v28H63v79h144v27H63v87h162V0H30" id="r"/><path fill="#3a414a" d="M141 0L90-78 38 0H4l68-98-65-92h35l48 74 47-74h35l-64 92 68 98h-35" id="s"/><path fill="#3a414a" d="M100-194c63 0 86 42 84 106H49c0 40 14 67 53 68 26 1 43-12 49-29l28 8c-11 28-37 45-77 45C44 4 14-33 15-96c1-61 26-98 85-98zm52 81c6-60-76-77-97-28-3 7-6 17-6 28h103" id="t"/><path fill="#3a414a" d="M96-169c-40 0-48 33-48 73s9 75 48 75c24 0 41-14 43-38l32 2c-6 37-31 61-74 61-59 0-76-41-82-99-10-93 101-131 147-64 4 7 5 14 7 22l-32 3c-4-21-16-35-41-35" id="u"/><g id="a"><use transform="matrix(0.06172839506172839,0,0,0.06172839506172839,0,0)" xlink:href="#r"/><use transform="matrix(0.06172839506172839,0,0,0.06172839506172839,14.814814814814813,0)" xlink:href="#s"/><use transform="matrix(0.06172839506172839,0,0,0.06172839506172839,25.925925925925924,0)" xlink:href="#t"/><use transform="matrix(0.06172839506172839,0,0,0.06172839506172839,38.2716049382716,0)" xlink:href="#u"/></g><path fill="#3a414a" d="M30-248c87 1 191-15 191 75 0 78-77 80-158 76V0H30v-248zm33 125c57 0 124 11 124-50 0-59-68-47-124-48v98" id="v"/><path fill="#3a414a" d="M24 0v-261h32V0H24" id="w"/><path fill="#3a414a" d="M141-36C126-15 110 5 73 4 37 3 15-17 15-53c-1-64 63-63 125-63 3-35-9-54-41-54-24 1-41 7-42 31l-33-3c5-37 33-52 76-52 45 0 72 20 72 64v82c-1 20 7 32 28 27v20c-31 9-61-2-59-35zM48-53c0 20 12 33 32 33 41-3 63-29 60-74-43 2-92-5-92 41" id="x"/><path fill="#3a414a" d="M117-194c89-4 53 116 60 194h-32v-121c0-31-8-49-39-48C34-167 62-67 57 0H25l-1-190h30c1 10-1 24 2 32 11-22 29-35 61-36" id="y"/><g id="b"><use transform="matrix(0.06172839506172839,0,0,0.06172839506172839,0,0)" xlink:href="#v"/><use transform="matrix(0.06172839506172839,0,0,0.06172839506172839,14.814814814814813,0)" xlink:href="#w"/><use transform="matrix(0.06172839506172839,0,0,0.06172839506172839,19.691358024691354,0)" xlink:href="#x"/><use transform="matrix(0.06172839506172839,0,0,0.06172839506172839,32.03703703703703,0)" xlink:href="#y"/></g><path fill="#3a414a" d="M24 0v-248h52V0H24" id="z"/><path fill="#3a414a" d="M135-194c87-1 58 113 63 194h-50c-7-57 23-157-34-157-59 0-34 97-39 157H25l-1-190h47c2 12-1 28 3 38 12-26 28-41 61-42" id="A"/><path fill="#3a414a" d="M135-194c53 0 70 44 70 98 0 56-19 98-73 100-31 1-45-17-59-34 3 33 2 69 2 105H25l-1-265h48c2 10 0 23 3 31 11-24 29-35 60-35zM114-30c33 0 39-31 40-66 0-38-9-64-40-64-56 0-55 130 0 130" id="B"/><path fill="#3a414a" d="M85 4C-2 5 27-109 22-190h50c7 57-23 150 33 157 60-5 35-97 40-157h50l1 190h-47c-2-12 1-28-3-38-12 25-28 42-61 42" id="C"/><path fill="#3a414a" d="M115-3C79 11 28 4 28-45v-112H4v-33h27l15-45h31v45h36v33H77v99c-1 23 16 31 38 25v30" id="D"/><path fill="#3a414a" d="M137-138c1-29-70-34-71-4 15 46 118 7 119 86 1 83-164 76-172 9l43-7c4 19 20 25 44 25 33 8 57-30 24-41C81-84 22-81 20-136c-2-80 154-74 161-7" id="E"/><g id="c"><use transform="matrix(0.12345679012345674,0,0,0.12345679012345674,0,0)" xlink:href="#z"/><use transform="matrix(0.12345679012345674,0,0,0.12345679012345674,12.345679012345673,0)" xlink:href="#A"/><use transform="matrix(0.12345679012345674,0,0,0.12345679012345674,39.3827160493827,0)" xlink:href="#B"/><use transform="matrix(0.12345679012345674,0,0,0.12345679012345674,66.41975308641973,0)" xlink:href="#C"/><use transform="matrix(0.12345679012345674,0,0,0.12345679012345674,93.45679012345676,0)" xlink:href="#D"/><use transform="matrix(0.12345679012345674,0,0,0.12345679012345674,108.14814814814811,0)" xlink:href="#E"/></g><path fill="#3a414a" d="M30 0v-248h33v221h125V0H30" id="F"/><path fill="#3a414a" d="M100-194c62-1 85 37 85 99 1 63-27 99-86 99S16-35 15-95c0-66 28-99 85-99zM99-20c44 1 53-31 53-75 0-43-8-75-51-75s-53 32-53 75 10 74 51 75" id="G"/><g id="d"><use transform="matrix(0.08641975308641969,0,0,0.08641975308641969,0,0)" xlink:href="#F"/><use transform="matrix(0.08641975308641969,0,0,0.08641975308641969,17.28395061728394,0)" xlink:href="#G"/><use transform="matrix(0.08641975308641969,0,0,0.08641975308641969,34.56790123456788,0)" xlink:href="#u"/><use transform="matrix(0.08641975308641969,0,0,0.08641975308641969,50.12345679012342,0)" xlink:href="#x"/><use transform="matrix(0.08641975308641969,0,0,0.08641975308641969,67.40740740740736,0)" xlink:href="#w"/></g><path fill="#3a414a" d="M185-189c-5-48-123-54-124 2 14 75 158 14 163 119 3 78-121 87-175 55-17-10-28-26-33-46l33-7c5 56 141 63 141-1 0-78-155-14-162-118-5-82 145-84 179-34 5 7 8 16 11 25" id="H"/><path fill="#3a414a" d="M59-47c-2 24 18 29 38 22v24C64 9 27 4 27-40v-127H5v-23h24l9-43h21v43h35v23H59v120" id="I"/><path fill="#3a414a" d="M114-163C36-179 61-72 57 0H25l-1-190h30c1 12-1 29 2 39 6-27 23-49 58-41v29" id="J"/><path fill="#3a414a" d="M177-190C167-65 218 103 67 71c-23-6-38-20-44-43l32-5c15 47 100 32 89-28v-30C133-14 115 1 83 1 29 1 15-40 15-95c0-56 16-97 71-98 29-1 48 16 59 35 1-10 0-23 2-32h30zM94-22c36 0 50-32 50-73 0-42-14-75-50-75-39 0-46 34-46 75s6 73 46 73" id="K"/><g id="e"><use transform="matrix(0.08641975308641969,0,0,0.08641975308641969,0,0)" xlink:href="#H"/><use transform="matrix(0.08641975308641969,0,0,0.08641975308641969,20.740740740740726,0)" xlink:href="#I"/><use transform="matrix(0.08641975308641969,0,0,0.08641975308641969,29.382716049382694,0)" xlink:href="#G"/><use transform="matrix(0.08641975308641969,0,0,0.08641975308641969,46.66666666666662,0)" xlink:href="#J"/><use transform="matrix(0.08641975308641969,0,0,0.08641975308641969,56.95061728395057,0)" xlink:href="#x"/><use transform="matrix(0.08641975308641969,0,0,0.08641975308641969,74.23456790123451,0)" xlink:href="#K"/><use transform="matrix(0.08641975308641969,0,0,0.08641975308641969,91.51851851851845,0)" xlink:href="#t"/></g><path fill="#3a414a" d="M233-177c-1 41-23 64-60 70L243 0h-38l-65-103H63V0H30v-248c88 3 205-21 203 71zM63-129c60-2 137 13 137-47 0-61-80-42-137-45v92" id="L"/><path fill="#3a414a" d="M210-169c-67 3-38 105-44 169h-31v-121c0-29-5-50-35-48C34-165 62-65 56 0H25l-1-190h30c1 10-1 24 2 32 10-44 99-50 107 0 11-21 27-35 58-36 85-2 47 119 55 194h-31v-121c0-29-5-49-35-48" id="M"/><g id="f"><use transform="matrix(0.08641975308641969,0,0,0.08641975308641969,0,0)" xlink:href="#L"/><use transform="matrix(0.08641975308641969,0,0,0.08641975308641969,22.3827160493827,0)" xlink:href="#t"/><use transform="matrix(0.08641975308641969,0,0,0.08641975308641969,39.66666666666664,0)" xlink:href="#M"/><use transform="matrix(0.08641975308641969,0,0,0.08641975308641969,65.50617283950614,0)" xlink:href="#G"/><use transform="matrix(0.08641975308641969,0,0,0.08641975308641969,82.79012345679007,0)" xlink:href="#I"/><use transform="matrix(0.08641975308641969,0,0,0.08641975308641969,91.43209876543203,0)" xlink:href="#t"/></g><path fill="#3a414a" d="M190 0L58-211 59 0H30v-248h39L202-35l-2-213h31V0h-41" id="N"/><path fill="#3a414a" d="M206 0h-36l-40-164L89 0H53L-1-190h32L70-26l43-164h34l41 164 42-164h31" id="O"/><path fill="#3a414a" d="M143 0L79-87 56-68V0H24v-261h32v163l83-92h37l-77 82L181 0h-38" id="P"/><g id="g"><use transform="matrix(0.08641975308641969,0,0,0.08641975308641969,0,0)" xlink:href="#N"/><use transform="matrix(0.08641975308641969,0,0,0.08641975308641969,22.3827160493827,0)" xlink:href="#t"/><use transform="matrix(0.08641975308641969,0,0,0.08641975308641969,39.66666666666664,0)" xlink:href="#I"/><use transform="matrix(0.08641975308641969,0,0,0.08641975308641969,48.30864197530861,0)" xlink:href="#O"/><use transform="matrix(0.08641975308641969,0,0,0.08641975308641969,70.69135802469131,0)" xlink:href="#G"/><use transform="matrix(0.08641975308641969,0,0,0.08641975308641969,87.97530864197525,0)" xlink:href="#J"/><use transform="matrix(0.08641975308641969,0,0,0.08641975308641969,98.2592592592592,0)" xlink:href="#P"/></g><path fill="#3a414a" d="M87 75C49 33 22-17 22-94c0-76 28-126 65-167h31c-38 41-64 92-64 168S80 34 118 75H87" id="Q"/><path fill="#3a414a" d="M33 0v-38h34V0H33" id="R"/><g id="h"><use transform="matrix(0.08641975308641969,0,0,0.08641975308641969,0,0)" xlink:href="#Q"/><use transform="matrix(0.08641975308641969,0,0,0.08641975308641969,10.283950617283944,0)" xlink:href="#t"/><use transform="matrix(0.08641975308641969,0,0,0.08641975308641969,27.56790123456788,0)" xlink:href="#R"/><use transform="matrix(0.08641975308641969,0,0,0.08641975308641969,36.20987654320985,0)" xlink:href="#K"/><use transform="matrix(0.08641975308641969,0,0,0.08641975308641969,53.49382716049379,0)" xlink:href="#R"/></g><path fill="#3a414a" d="M101-234c-31-9-42 10-38 44h38v23H63V0H32v-167H5v-23h27c-7-52 17-82 69-68v24" id="S"/><path fill="#3a414a" d="M24-231v-30h32v30H24zM24 0v-190h32V0H24" id="T"/><path fill="#3a414a" d="M106-169C34-169 62-67 57 0H25v-261h32l-1 103c12-21 28-36 61-36 89 0 53 116 60 194h-32v-121c2-32-8-49-39-48" id="U"/><path fill="#3a414a" d="M33-261c38 41 65 92 65 168S71 34 33 75H2C39 34 66-17 66-93S39-220 2-261h31" id="V"/><g id="i"><use transform="matrix(0.08641975308641969,0,0,0.08641975308641969,0,0)" xlink:href="#S"/><use transform="matrix(0.08641975308641969,0,0,0.08641975308641969,8.64197530864197,0)" xlink:href="#w"/><use transform="matrix(0.08641975308641969,0,0,0.08641975308641969,15.469135802469125,0)" xlink:href="#T"/><use transform="matrix(0.08641975308641969,0,0,0.08641975308641969,22.296296296296287,0)" xlink:href="#K"/><use transform="matrix(0.08641975308641969,0,0,0.08641975308641969,39.580246913580226,0)" xlink:href="#U"/><use transform="matrix(0.08641975308641969,0,0,0.08641975308641969,56.86419753086416,0)" xlink:href="#I"/><use transform="matrix(0.08641975308641969,0,0,0.08641975308641969,65.50617283950614,0)" xlink:href="#V"/></g><path fill="#3a414a" d="M240 0l2-218c-23 76-54 145-80 218h-23L58-218 59 0H30v-248h44l77 211c21-75 51-140 76-211h43V0h-30" id="W"/><path fill="#3a414a" d="M179-190L93 31C79 59 56 82 12 73V49c39 6 53-20 64-50L1-190h34L92-34l54-156h33" id="X"/><g id="j"><use transform="matrix(0.08641975308641969,0,0,0.08641975308641969,0,0)" xlink:href="#W"/><use transform="matrix(0.08641975308641969,0,0,0.08641975308641969,25.83950617283949,0)" xlink:href="#t"/><use transform="matrix(0.08641975308641969,0,0,0.08641975308641969,43.12345679012343,0)" xlink:href="#M"/><use transform="matrix(0.08641975308641969,0,0,0.08641975308641969,68.96296296296292,0)" xlink:href="#G"/><use transform="matrix(0.08641975308641969,0,0,0.08641975308641969,86.24691358024685,0)" xlink:href="#J"/><use transform="matrix(0.08641975308641969,0,0,0.08641975308641969,96.5308641975308,0)" xlink:href="#X"/></g><path fill="#3a414a" d="M140-251c81 0 123 46 123 126C263-46 219 4 140 4 59 4 17-45 17-125s42-126 123-126zm0 227c63 0 89-41 89-101s-29-99-89-99c-61 0-89 39-89 99S79-25 140-24" id="Y"/><g id="k"><use transform="matrix(0.08641975308641969,0,0,0.08641975308641969,0,0)" xlink:href="#Y"/><use transform="matrix(0.08641975308641969,0,0,0.08641975308641969,24.197530864197514,0)" xlink:href="#I"/><use transform="matrix(0.08641975308641969,0,0,0.08641975308641969,32.839506172839485,0)" xlink:href="#U"/><use transform="matrix(0.08641975308641969,0,0,0.08641975308641969,50.123456790123434,0)" xlink:href="#t"/><use transform="matrix(0.08641975308641969,0,0,0.08641975308641969,67.40740740740736,0)" xlink:href="#J"/></g><path fill="#3a414a" d="M115-194c53 0 69 39 70 98 0 66-23 100-70 100C84 3 66-7 56-30L54 0H23l1-261h32v101c10-23 28-34 59-34zm-8 174c40 0 45-34 45-75 0-40-5-75-45-74-42 0-51 32-51 76 0 43 10 73 51 73" id="Z"/><path fill="#3a414a" d="M135-143c-3-34-86-38-87 0 15 53 115 12 119 90S17 21 10-45l28-5c4 36 97 45 98 0-10-56-113-15-118-90-4-57 82-63 122-42 12 7 21 19 24 35" id="aa"/><g id="l"><use transform="matrix(0.08641975308641969,0,0,0.08641975308641969,0,0)" xlink:href="#F"/><use transform="matrix(0.08641975308641969,0,0,0.08641975308641969,17.28395061728394,0)" xlink:href="#T"/><use transform="matrix(0.08641975308641969,0,0,0.08641975308641969,24.111111111111093,0)" xlink:href="#Z"/><use transform="matrix(0.08641975308641969,0,0,0.08641975308641969,41.395061728395035,0)" xlink:href="#J"/><use transform="matrix(0.08641975308641969,0,0,0.08641975308641969,51.67901234567898,0)" xlink:href="#x"/><use transform="matrix(0.08641975308641969,0,0,0.08641975308641969,68.96296296296292,0)" xlink:href="#J"/><use transform="matrix(0.08641975308641969,0,0,0.08641975308641969,79.24691358024687,0)" xlink:href="#T"/><use transform="matrix(0.08641975308641969,0,0,0.08641975308641969,86.07407407407402,0)" xlink:href="#t"/><use transform="matrix(0.08641975308641969,0,0,0.08641975308641969,103.35802469135795,0)" xlink:href="#aa"/></g><path fill="#3a414a" d="M234-2c-28 10-62 0-77-18C117 19 8 12 13-65c3-43 29-61 60-76-25-40-17-114 47-108 35 3 59 15 59 50 0 44-40 53-71 69 14 26 32 50 51 72 14-21 24-43 30-72l26 8c-9 33-21 57-38 82 13 13 33 22 57 15v23zM97-151c25-10 52-18 56-48-1-18-13-29-33-29-42 0-39 50-23 77zM42-66c-3 51 71 58 98 28-20-24-41-51-56-80-23 10-40 24-42 52" id="ab"/><use transform="matrix(0.08641975308641969,0,0,0.08641975308641969,0,0)" xlink:href="#ab" id="m"/><path fill="#3a414a" d="M127-220V0H93v-220H8v-28h204v28h-85" id="ac"/><g id="n"><use transform="matrix(0.08641975308641969,0,0,0.08641975308641969,0,0)" xlink:href="#ac"/><use transform="matrix(0.08641975308641969,0,0,0.08641975308641969,15.469135802469125,0)" xlink:href="#G"/><use transform="matrix(0.08641975308641969,0,0,0.08641975308641969,32.75308641975306,0)" xlink:href="#G"/><use transform="matrix(0.08641975308641969,0,0,0.08641975308641969,50.037037037036995,0)" xlink:href="#w"/><use transform="matrix(0.08641975308641969,0,0,0.08641975308641969,56.86419753086416,0)" xlink:href="#aa"/></g><g id="o"><use transform="matrix(0.08641975308641969,0,0,0.08641975308641969,0,0)" xlink:href="#R"/><use transform="matrix(0.08641975308641969,0,0,0.08641975308641969,8.64197530864197,0)" xlink:href="#R"/><use transform="matrix(0.08641975308641969,0,0,0.08641975308641969,17.28395061728394,0)" xlink:href="#R"/></g><path fill="#3a414a" d="M140-251c80 0 125 45 125 126S219 4 139 4C58 4 15-44 15-125s44-126 125-126zm-1 214c52 0 73-35 73-88 0-50-21-86-72-86-52 0-73 35-73 86s22 88 72 88" id="ad"/><g id="p"><use transform="matrix(0.12345679012345674,0,0,0.12345679012345674,0,0)" xlink:href="#ad"/><use transform="matrix(0.12345679012345674,0,0,0.12345679012345674,34.567901234567884,0)" xlink:href="#C"/><use transform="matrix(0.12345679012345674,0,0,0.12345679012345674,61.60493827160491,0)" xlink:href="#D"/><use transform="matrix(0.12345679012345674,0,0,0.12345679012345674,76.29629629629626,0)" xlink:href="#B"/><use transform="matrix(0.12345679012345674,0,0,0.12345679012345674,103.33333333333329,0)" xlink:href="#C"/><use transform="matrix(0.12345679012345674,0,0,0.12345679012345674,130.37037037037032,0)" xlink:href="#D"/></g><path fill="#3a414a" d="M136-208V0H84v-208H4v-40h212v40h-80" id="ae"/><path fill="#3a414a" d="M135-150c-39-12-60 13-60 57V0H25l-1-190h47c2 13-1 29 3 40 6-28 27-53 61-41v41" id="af"/><path fill="#3a414a" d="M133-34C117-15 103 5 69 4 32 3 11-16 11-54c-1-60 55-63 116-61 1-26-3-47-28-47-18 1-26 9-28 27l-52-2c7-38 36-58 82-57s74 22 75 68l1 82c-1 14 12 18 25 15v27c-30 8-71 5-69-32zm-48 3c29 0 43-24 42-57-32 0-66-3-65 30 0 17 8 27 23 27" id="ag"/><path fill="#3a414a" d="M121-226c-27-7-43 5-38 36h38v33H83V0H34v-157H6v-33h28c-9-59 32-81 87-68v32" id="ah"/><path fill="#3a414a" d="M110-194c64 0 96 36 96 99 0 64-35 99-97 99-61 0-95-36-95-99 0-62 34-99 96-99zm-1 164c35 0 45-28 45-65 0-40-10-65-43-65-34 0-45 26-45 65 0 36 10 65 43 65" id="ai"/><path fill="#3a414a" d="M220-157c-53 9-28 100-34 157h-49v-107c1-27-5-49-29-50C55-147 81-57 75 0H25l-1-190h47c2 12-1 28 3 38 10-53 101-56 108 0 13-22 24-43 59-42 82 1 51 116 57 194h-49v-107c-1-25-5-48-29-50" id="aj"/><g id="q"><use transform="matrix(0.12345679012345674,0,0,0.12345679012345674,0,0)" xlink:href="#ae"/><use transform="matrix(0.12345679012345674,0,0,0.12345679012345674,24.56790123456789,0)" xlink:href="#af"/><use transform="matrix(0.12345679012345674,0,0,0.12345679012345674,41.85185185185183,0)" xlink:href="#ag"/><use transform="matrix(0.12345679012345674,0,0,0.12345679012345674,66.54320987654319,0)" xlink:href="#A"/><use transform="matrix(0.12345679012345674,0,0,0.12345679012345674,93.58024691358021,0)" xlink:href="#E"/><use transform="matrix(0.12345679012345674,0,0,0.12345679012345674,118.27160493827157,0)" xlink:href="#ah"/><use transform="matrix(0.12345679012345674,0,0,0.12345679012345674,132.9629629629629,0)" xlink:href="#ai"/><use transform="matrix(0.12345679012345674,0,0,0.12345679012345674,159.99999999999994,0)" xlink:href="#af"/><use transform="matrix(0.12345679012345674,0,0,0.12345679012345674,177.2839506172839,0)" xlink:href="#aj"/></g></defs></g></svg>