<svg xmlns="http://www.w3.org/2000/svg" xmlns:xlink="http://www.w3.org/1999/xlink" xmlns:lucid="lucid" width="1020" height="600"><g transform="translate(-180 -240)" lucid:page-tab-id="0_0"><path d="M0 0h1760v1360H0z" fill="#fff"/><g filter="url(#a)"><path d="M200 280a20 20 0 0 1 20-20h260a20 20 0 0 1 20 20v520a20 20 0 0 1-20 20H220a20 20 0 0 1-20-20z" stroke="#747474" stroke-width="3" fill="#f2f3f5"/><path d="M315 338.32h183.5v3H315zM295 317.5c0 20.7-16.8 37.5-37.5 37.5S220 338.2 220 317.5s16.8-37.5 37.5-37.5 37.5 16.8 37.5 37.5z" fill="#979ea8"/><use xlink:href="#b" transform="matrix(1,0,0,1,315,304.68) translate(0 20.02)"/><use xlink:href="#c" transform="matrix(1,0,0,1,315,356.32) translate(0 15.265)"/><use xlink:href="#d" transform="matrix(1,0,0,1,315,390.54999999999995) translate(0 15.265)"/><use xlink:href="#e" transform="matrix(1,0,0,1,315,390.54999999999995) translate(62.474999999999994 15.265)"/><use xlink:href="#f" transform="matrix(1,0,0,1,315,424.78) translate(0 15.265)"/><use xlink:href="#g" transform="matrix(1,0,0,1,315,459.01) translate(0 15.265)"/><use xlink:href="#h" transform="matrix(1,0,0,1,315,459.01) translate(52.44 15.265)"/><g><use xlink:href="#i" transform="matrix(1,0,0,1,315,493.23999999999995) translate(0 15.265)"/></g></g><g filter="url(#j)"><path d="M200 580a20 20 0 0 1 20-20h260a20 20 0 0 1 20 20v220a20 20 0 0 1-20 20H220a20 20 0 0 1-20-20z" stroke="#747474" stroke-width="3" fill="#dfe3e8"/><path d="M220 638.32h278.5v3H220z" fill="#e5e5e5"/><use xlink:href="#k" transform="matrix(1,0,0,1,220,604.68) translate(35.94999999999999 20.02)"/><use xlink:href="#l" transform="matrix(1,0,0,1,220,604.68) translate(81.88999999999999 20.02)"/><use xlink:href="#m" transform="matrix(1,0,0,1,220,604.68) translate(133.15 20.02)"/><use xlink:href="#n" transform="matrix(1,0,0,1,220,604.68) translate(161.27 20.02)"/><g><use xlink:href="#o" transform="matrix(1,0,0,1,220,656.3199999999999) translate(0 15.265)"/><use xlink:href="#p" transform="matrix(1,0,0,1,220,656.3199999999999) translate(67.03500000000001 15.265)"/></g><g><use xlink:href="#i" transform="matrix(1,0,0,1,220,690.55) translate(0 15.265)"/></g></g><g filter="url(#q)"><path d="M520 280a20 20 0 0 1 20-20h300a20 20 0 0 1 20 20v520a20 20 0 0 1-20 20H540a20 20 0 0 1-20-20z" stroke="#747474" stroke-width="3" fill="#f2f3f5"/><path d="M635 338.32h223.5v3H635zM615 317.5c0 20.7-16.8 37.5-37.5 37.5S540 338.2 540 317.5s16.8-37.5 37.5-37.5 37.5 16.8 37.5 37.5z" fill="#979ea8"/><use xlink:href="#r" transform="matrix(1,0,0,1,635,304.68) translate(0 20.02)"/><use xlink:href="#s" transform="matrix(1,0,0,1,635,356.32) translate(0 15.265)"/><use xlink:href="#t" transform="matrix(1,0,0,1,635,390.54999999999995) translate(0 15.265)"/><use xlink:href="#u" transform="matrix(1,0,0,1,635,390.54999999999995) translate(65.07 15.265)"/><use xlink:href="#v" transform="matrix(1,0,0,1,635,424.78) translate(0 15.265)"/><use xlink:href="#w" transform="matrix(1,0,0,1,635,459.01) translate(0 15.265)"/><g><use xlink:href="#x" transform="matrix(1,0,0,1,635,493.23999999999995) translate(0 15.265)"/></g></g><g filter="url(#y)"><path d="M520 580a20 20 0 0 1 20-20h300a20 20 0 0 1 20 20v220a20 20 0 0 1-20 20H540a20 20 0 0 1-20-20z" stroke="#747474" stroke-width="3" fill="#dfe3e8"/><path d="M540 638.32h318.5v3H540z" fill="#e5e5e5"/><use xlink:href="#k" transform="matrix(1,0,0,1,540,604.68) translate(17.48999999999998 20.02)"/><use xlink:href="#z" transform="matrix(1,0,0,1,540,604.68) translate(63.429999999999986 20.02)"/><use xlink:href="#A" transform="matrix(1,0,0,1,540,604.68) translate(140.34999999999997 20.02)"/><use xlink:href="#m" transform="matrix(1,0,0,1,540,604.68) translate(191.60999999999999 20.02)"/><use xlink:href="#n" transform="matrix(1,0,0,1,540,604.68) translate(219.73 20.02)"/><g><use xlink:href="#B" transform="matrix(1,0,0,1,540,656.3199999999999) translate(0 15.265)"/></g><g><use xlink:href="#C" transform="matrix(1,0,0,1,540,690.55) translate(0 15.265)"/></g><g><use xlink:href="#D" transform="matrix(1,0,0,1,540,724.78) translate(0 15.265)"/></g></g><g filter="url(#a)"><path d="M880 280a20 20 0 0 1 20-20h260a20 20 0 0 1 20 20v520a20 20 0 0 1-20 20H900a20 20 0 0 1-20-20z" stroke="#747474" stroke-width="3" fill="#f2f3f5"/><path d="M995 338.32h183.5v3H995zM975 317.5c0 20.7-16.8 37.5-37.5 37.5S900 338.2 900 317.5s16.8-37.5 37.5-37.5 37.5 16.8 37.5 37.5z" fill="#979ea8"/><use xlink:href="#E" transform="matrix(1,0,0,1,995,304.68) translate(0 20.02)"/><use xlink:href="#F" transform="matrix(1,0,0,1,995,356.32) translate(0 15.265)"/><use xlink:href="#G" transform="matrix(1,0,0,1,995,390.54999999999995) translate(0 15.265)"/><use xlink:href="#H" transform="matrix(1,0,0,1,995,424.78) translate(0 15.265)"/></g><defs><path d="M44-355c0-231 126-370 357-373 102-1 196 37 249 90l-74 84c-41-35-99-61-170-61-157-2-225 105-226 260 0 151 70 260 223 258 77-1 135-32 177-71l79 86C603-26 509 20 399 19 169 16 44-126 44-355" id="I"/><path d="M314-534c172 0 271 101 271 272C585-92 485 14 314 14 144 14 44-93 44-262c0-171 98-272 270-272zm0 100c-102 0-140 71-140 172 0 102 39 177 141 177s142-75 142-177-40-172-143-172" id="J"/><path d="M380-422c-108-21-177 50-177 149V0H78c-4-180 9-350-9-520h120c6 28 5 55 10 72 34-65 100-96 186-82" id="K"/><path d="M295-534c175 0 256 137 237 320H170c10 80 57 129 145 129 69-1 102-19 149-47l54 80c-56 41-119 66-211 66C138 14 46-91 44-260c-2-161 90-274 251-274zm117 226c-3-74-41-132-118-132-79 0-120 59-125 132h243" id="L"/><g id="b"><use transform="matrix(0.02,0,0,0.02,0,0)" xlink:href="#I"/><use transform="matrix(0.02,0,0,0.02,13.06,0)" xlink:href="#J"/><use transform="matrix(0.02,0,0,0.02,25.66,0)" xlink:href="#K"/><use transform="matrix(0.02,0,0,0.02,33.22,0)" xlink:href="#L"/></g><path d="M339-708c123 1 213 48 213 173 0 88-60 143-128 162 94 11 159 73 159 177C583-58 480-1 344 0H90v-708h249zm-21 307c84 0 146-41 145-124 0-77-48-115-144-115H176v239h142zm174 196c-2-92-65-133-161-132H176v268c152 2 319 17 316-136" id="M"/><path d="M270 14C144 14 79-74 79-197v-312h86v300c0 89 37 155 125 155 95 0 154-86 154-183v-272h85c3 170-7 349 7 509h-81c-5-20-3-53-9-81-37 63-95 95-176 95" id="N"/><path d="M104-509c-11-136 44-213 171-213 33 0 62 4 89 13l-19 61c-85-20-162 3-156 97v42h128v65H189V0h-85v-444H15v-54" id="O"/><path d="M288-523c162-3 241 129 226 299H136c6 100 61 171 167 170 70-1 110-20 156-50l38 55c-54 38-112 62-199 63C141 16 48-99 50-257c3-159 80-263 238-266zm145 233c-2-96-49-168-146-168-96 0-149 75-152 168h298" id="P"/><path d="M353-447c-118-18-182 64-182 174V0H86c-3-170 7-349-7-509h81c5 22 3 54 9 81 32-70 98-104 189-92" id="Q"/><g id="c"><use transform="matrix(0.015,0,0,0.015,0,0)" xlink:href="#M"/><use transform="matrix(0.015,0,0,0.015,9.315,0)" xlink:href="#N"/><use transform="matrix(0.015,0,0,0.015,18.54,0)" xlink:href="#O"/><use transform="matrix(0.015,0,0,0.015,23.49,0)" xlink:href="#O"/><use transform="matrix(0.015,0,0,0.015,28.439999999999998,0)" xlink:href="#P"/><use transform="matrix(0.015,0,0,0.015,36.915,0)" xlink:href="#Q"/></g><path d="M834 0h-87c-1-201 4-407 0-605L493 0h-67c-85-201-167-406-255-605l2 605H90v-708h131c81 196 158 395 241 589l240-589h132V0" id="R"/><path d="M315-453c-88 0-144 74-144 161V0H86c-3-170 7-349-7-509h81c5 17 3 46 9 72 30-48 90-86 168-86 89 0 140 43 168 103 32-60 90-104 179-103 122 1 187 78 187 197V0h-85v-314c-1-78-37-142-120-139-97 3-146 77-146 174V0h-85v-316c-1-77-39-137-120-137" id="S"/><path d="M305-523c165 3 256 102 256 267 0 164-91 270-256 270C141 14 52-92 50-256c-2-160 95-269 255-267zm0 68c-116 0-167 83-167 199S190-54 305-54c116 0 169-86 169-202 0-117-53-199-169-199" id="T"/><path d="M245 124c-31 80-63 130-160 133-26 0-50-4-71-12l17-63C159 220 168 89 202 3L4-509h92c50 139 97 282 150 419l136-419h87" id="U"/><g id="d"><use transform="matrix(0.015,0,0,0.015,0,0)" xlink:href="#R"/><use transform="matrix(0.015,0,0,0.015,13.844999999999999,0)" xlink:href="#P"/><use transform="matrix(0.015,0,0,0.015,22.32,0)" xlink:href="#S"/><use transform="matrix(0.015,0,0,0.015,36.57,0)" xlink:href="#T"/><use transform="matrix(0.015,0,0,0.015,45.735,0)" xlink:href="#Q"/><use transform="matrix(0.015,0,0,0.015,51.495,0)" xlink:href="#U"/></g><path d="M329-708c148 1 256 75 253 230-3 151-104 233-251 233H179V0H90v-708h239zm162 231c0-108-70-160-170-160H178v320h145c95 0 168-60 168-160" id="V"/><path d="M172-708V0H87v-708h85" id="W"/><g id="e"><use transform="matrix(0.015,0,0,0.015,0,0)" xlink:href="#V"/><use transform="matrix(0.015,0,0,0.015,8.715,0)" xlink:href="#T"/><use transform="matrix(0.015,0,0,0.015,17.88,0)" xlink:href="#T"/><use transform="matrix(0.015,0,0,0.015,27.044999999999998,0)" xlink:href="#W"/></g><path d="M495-172H163L97 0H4l280-708h93L655 0h-96zm-307-69h282L329-624" id="X"/><path d="M206 14C109 15 40-41 42-139c1-169 156-177 340-175 7-97-33-143-126-142-54 0-105 14-153 43l-30-57c57-35 120-53 188-53 141 0 204 63 206 202 1 110-5 220 7 321h-78c-5-29-7-52-7-69h-3c-38 54-89 83-180 83zm22-67c89-2 148-53 154-135v-66s-251-9-252 110c0 59 38 91 98 91" id="Y"/><g id="f"><use transform="matrix(0.015,0,0,0.015,0,0)" xlink:href="#X"/><use transform="matrix(0.015,0,0,0.015,9.9,0)" xlink:href="#Q"/><use transform="matrix(0.015,0,0,0.015,15.36,0)" xlink:href="#Q"/><use transform="matrix(0.015,0,0,0.015,20.52,0)" xlink:href="#Y"/><use transform="matrix(0.015,0,0,0.015,28.32,0)" xlink:href="#U"/></g><path d="M571-480c1 116-68 180-159 207L590 0H488L327-259H179V0H90v-708h233c148 3 246 78 248 228zm-91 0c0-100-69-157-163-157H178v310h142c93 0 160-56 160-153" id="Z"/><path d="M50-255c-6-191 150-312 344-253 29 10 54 23 77 40l-34 59c-39-29-84-43-135-43-113-1-166 83-166 197 0 112 54 199 165 197 46 0 92-14 137-43l31 60C418-4 360 14 295 14 131 13 55-96 50-255" id="aa"/><path d="M50-253c3-155 81-270 235-270 68 0 123 22 166 66v-251h85v595c0 37 2 74 7 113h-79c-6-29-4-58-9-76-38 60-99 90-182 90C125 14 47-103 50-253zM292-54c94 1 159-71 159-165v-160c-36-45-79-74-154-75-104-1-159 92-159 201 0 111 50 197 154 199" id="ab"/><g id="g"><use transform="matrix(0.015,0,0,0.015,0,0)" xlink:href="#Z"/><use transform="matrix(0.015,0,0,0.015,9.135,0)" xlink:href="#P"/><use transform="matrix(0.015,0,0,0.015,17.61,0)" xlink:href="#aa"/><use transform="matrix(0.015,0,0,0.015,24.915,0)" xlink:href="#T"/><use transform="matrix(0.015,0,0,0.015,34.08,0)" xlink:href="#Q"/><use transform="matrix(0.015,0,0,0.015,39.255,0)" xlink:href="#ab"/></g><path d="M328 1C218 40 105-8 105-130v-314H15v-55l89-10v-125l86-30v155h135v65H190v307c-6 76 60 95 125 75" id="ac"/><path d="M324-452c-91 0-152 70-152 160V0H87v-708h85c1 89-3 184 2 270 34-50 90-85 174-85 123 0 188 80 188 194V0h-85v-312c-1-82-40-140-127-140" id="ad"/><g id="h"><use transform="matrix(0.015,0,0,0.015,0,0)" xlink:href="#M"/><use transform="matrix(0.015,0,0,0.015,9.405,0)" xlink:href="#Y"/><use transform="matrix(0.015,0,0,0.015,17.505,0)" xlink:href="#ac"/><use transform="matrix(0.015,0,0,0.015,22.665,0)" xlink:href="#aa"/><use transform="matrix(0.015,0,0,0.015,30.21,0)" xlink:href="#ad"/></g><path d="M540-633H317V0h-89v-633H4v-75h536v75" id="ae"/><path d="M348-523c153 3 225 113 225 268 0 159-84 269-242 269-64 0-119-22-166-67l-8 53H87v-708h85v272h3c32-52 90-88 173-87zM321-54c109 1 165-89 165-201 0-111-49-200-153-200-99 0-161 67-161 165v169c40 39 78 65 149 67" id="af"/><g id="i"><use transform="matrix(0.015,0,0,0.015,0,0)" xlink:href="#ae"/><use transform="matrix(0.015,0,0,0.015,8.174999999999999,0)" xlink:href="#Y"/><use transform="matrix(0.015,0,0,0.015,16.365,0)" xlink:href="#af"/><use transform="matrix(0.015,0,0,0.015,25.695,0)" xlink:href="#W"/><use transform="matrix(0.015,0,0,0.015,29.565,0)" xlink:href="#P"/></g><filter id="a" filterUnits="objectBoundingBox" x="-.02" y="0" width="1.03" height="1.02"><feOffset result="offOut" in="SourceAlpha" dy="3"/><feGaussianBlur result="blurOut" in="offOut" stdDeviation="2.5"/><feColorMatrix result="colorOut" in="blurOut" values="0 0 0 0 0.018823529411764708 0 0 0 0 0.018823529411764708 0 0 0 0 0.018823529411764708 0 0 0 0.2 0"/><feBlend in="SourceGraphic" in2="colorOut"/></filter><path d="M249 131C150-1 57-141 57-354s93-352 192-485l79 51c-76 124-137 246-137 434S252-44 328 80" id="ag"/><path d="M330-430c-79 0-127 62-127 141V0H78c-4-180 9-350-9-520h120c5 20 4 44 10 60 33-43 94-75 172-74 122 1 190 74 190 190V0H436v-317c-1-69-32-113-106-113" id="ah"/><path d="M266 14c-103 1-166-60-165-163v-271H15v-80l85-15v-123l126-44v167h129v95H226v259c-6 69 55 85 113 68l18 92c-25 10-56 15-91 15" id="ai"/><g id="k"><use transform="matrix(0.02,0,0,0.02,0,0)" xlink:href="#ag"/><use transform="matrix(0.02,0,0,0.02,7.7,0)" xlink:href="#ah"/><use transform="matrix(0.02,0,0,0.02,20.36,0)" xlink:href="#J"/><use transform="matrix(0.02,0,0,0.02,32.86,0)" xlink:href="#ai"/></g><path d="M269 14C141 14 72-75 72-200v-320h126v301c0 78 28 134 105 134 81 0 128-71 128-153v-282h125c4 175-9 357 9 520H445c-6-24-5-47-10-61-37 50-92 75-166 75" id="aj"/><path d="M39-378c0-175 271-194 382-101l-50 79c-41-25-82-38-123-38-83 0-118 83-42 107 98 31 223 49 223 175C429 33 141 56 23-45l54-78c39 24 75 33 132 40 84 10 127-92 48-118-99-33-218-48-218-177" id="ak"/><path d="M44-257c2-159 83-277 241-277 59 0 108 17 147 52v-226h125c4 237-9 482 8 708H449c-6-26-5-51-10-65-38 51-88 79-175 79C113 16 42-104 44-257zM298-85c79 1 134-62 134-142v-152c-34-36-77-54-128-54-90 1-130 79-130 176S212-88 298-85" id="al"/><g id="l"><use transform="matrix(0.02,0,0,0.02,0,0)" xlink:href="#aj"/><use transform="matrix(0.02,0,0,0.02,12.379999999999997,0)" xlink:href="#ak"/><use transform="matrix(0.02,0,0,0.02,21.6,0)" xlink:href="#L"/><use transform="matrix(0.02,0,0,0.02,33.18,0)" xlink:href="#al"/></g><path d="M366-534c151 0 227 122 225 273-2 163-86 275-250 275-55 0-106-18-152-54l-8 40H78v-708h125v245h3c35-47 89-71 160-71zM324-85c97 0 138-75 138-176 0-98-35-170-123-173-77-2-136 64-136 141v166c37 24 66 41 121 42" id="am"/><path d="M291 104c-34 93-75 150-187 153-33 0-63-5-89-15l24-93C152 186 175 85 200 4L-2-520h136c43 130 83 263 129 390l114-390h129" id="an"/><g id="m"><use transform="matrix(0.02,0,0,0.02,0,0)" xlink:href="#am"/><use transform="matrix(0.02,0,0,0.02,12.64,0)" xlink:href="#an"/></g><path d="M479-153H191L134 0H-3l272-708h135L675 0H533zM226-253h219L336-574" id="ao"/><path d="M44-261c0-170 96-273 266-273 65 0 123 19 174 56l-47 87c-40-26-82-39-126-39-98-1-141 69-141 169 0 97 44 171 139 170 41 0 84-13 129-40l45 89C436-9 374 14 299 14 127 14 44-98 44-261" id="ap"/><path d="M136-839c99 133 192 271 192 485 0 212-93 353-192 485L57 80c76-124 137-246 137-434S133-664 57-788" id="aq"/><g id="n"><use transform="matrix(0.02,0,0,0.02,0,0)" xlink:href="#ao"/><use transform="matrix(0.02,0,0,0.02,13.36,0)" xlink:href="#ap"/><use transform="matrix(0.02,0,0,0.02,23.340000000000003,0)" xlink:href="#L"/><use transform="matrix(0.02,0,0,0.02,34.92,0)" xlink:href="#K"/><use transform="matrix(0.02,0,0,0.02,42.480000000000004,0)" xlink:href="#J"/><use transform="matrix(0.02,0,0,0.02,55.08,0)" xlink:href="#aq"/></g><path d="M49-355c0-228 122-371 351-371 102 0 185 35 240 87l-52 57c-44-40-106-67-185-68-174-3-262 122-262 295-1 171 88 297 260 294 84 0 152-36 197-80l54 59C596-25 507 18 398 17 170 15 49-128 49-355" id="ar"/><path d="M323-452c-91 0-152 70-152 160V0H86c-3-170 7-349-7-509h81c5 17 3 46 9 72 33-51 94-86 177-86 122 0 189 80 189 194V0h-85v-312c-1-82-40-140-127-140" id="as"/><path d="M221-244l-49 46V0H87v-708h85v414l231-215h102L280-299 527 0H421" id="at"/><g id="o"><use transform="matrix(0.015,0,0,0.015,0,0)" xlink:href="#ar"/><use transform="matrix(0.015,0,0,0.015,10.11,0)" xlink:href="#ad"/><use transform="matrix(0.015,0,0,0.015,19.305,0)" xlink:href="#N"/><use transform="matrix(0.015,0,0,0.015,28.53,0)" xlink:href="#as"/><use transform="matrix(0.015,0,0,0.015,37.74,0)" xlink:href="#at"/><use transform="matrix(0.015,0,0,0.015,45.37500000000001,0)" xlink:href="#P"/><use transform="matrix(0.015,0,0,0.015,53.85000000000001,0)" xlink:href="#ab"/></g><g id="p"><use transform="matrix(0.015,0,0,0.015,0,0)" xlink:href="#X"/><use transform="matrix(0.015,0,0,0.015,9.9,0)" xlink:href="#Q"/><use transform="matrix(0.015,0,0,0.015,15.36,0)" xlink:href="#Q"/><use transform="matrix(0.015,0,0,0.015,20.52,0)" xlink:href="#Y"/><use transform="matrix(0.015,0,0,0.015,28.32,0)" xlink:href="#U"/></g><filter id="j" filterUnits="objectBoundingBox" x="-.02" y="-.01" width="1.03" height="1.04"><feOffset result="offOut" in="SourceAlpha" dy="3"/><feGaussianBlur result="blurOut" in="offOut" stdDeviation="2.5"/><feColorMatrix result="colorOut" in="blurOut" values="0 0 0 0 0.018823529411764708 0 0 0 0 0.018823529411764708 0 0 0 0 0.018823529411764708 0 0 0 0.2 0"/><feBlend in="SourceGraphic" in2="colorOut"/></filter><path d="M323-431c-76 0-120 65-120 142V0H78c-4-180 9-350-9-520h120c5 21 4 44 10 59 33-42 89-73 163-73 79 0 131 31 166 86 39-57 97-86 173-86 125 1 193 81 193 202V0H769v-314c-1-70-28-117-100-117-78 0-121 72-120 149V0H423v-324c-1-62-33-107-100-107" id="au"/><path d="M367-534c156 0 224 117 224 273 0 157-81 275-237 275-60 0-110-17-151-50v280H78v-645c0-25-3-65-9-119h120c6 27 5 51 10 62 40-51 96-76 168-76zM324-85c97 0 138-75 138-176 0-99-35-171-124-173-77-2-135 64-135 141v166c37 24 66 41 121 42" id="av"/><g id="r"><use transform="matrix(0.02,0,0,0.02,0,0)" xlink:href="#I"/><use transform="matrix(0.02,0,0,0.02,13.06,0)" xlink:href="#J"/><use transform="matrix(0.02,0,0,0.02,25.66,0)" xlink:href="#au"/><use transform="matrix(0.02,0,0,0.02,44.980000000000004,0)" xlink:href="#av"/><use transform="matrix(0.02,0,0,0.02,57.7,0)" xlink:href="#aj"/><use transform="matrix(0.02,0,0,0.02,70.38,0)" xlink:href="#ai"/><use transform="matrix(0.02,0,0,0.02,77.78,0)" xlink:href="#L"/></g><path d="M520-635H179v242h302v72H179V0H90v-708h430v73" id="aw"/><path d="M172 0H87v-509h85V0zm-42-631c-37 0-55-19-56-52 0-36 19-54 56-54s55 18 55 54c-1 33-19 52-55 52" id="ax"/><g id="s"><use transform="matrix(0.015,0,0,0.015,0,0)" xlink:href="#aw"/><use transform="matrix(0.015,0,0,0.015,7.32,0)" xlink:href="#N"/><use transform="matrix(0.015,0,0,0.015,16.545,0)" xlink:href="#as"/><use transform="matrix(0.015,0,0,0.015,25.755000000000003,0)" xlink:href="#aa"/><use transform="matrix(0.015,0,0,0.015,33.6,0)" xlink:href="#ac"/><use transform="matrix(0.015,0,0,0.015,38.955,0)" xlink:href="#ax"/><use transform="matrix(0.015,0,0,0.015,42.824999999999996,0)" xlink:href="#T"/><use transform="matrix(0.015,0,0,0.015,51.989999999999995,0)" xlink:href="#as"/></g><g id="t"><use transform="matrix(0.015,0,0,0.015,0,0)" xlink:href="#aw"/><use transform="matrix(0.015,0,0,0.015,7.32,0)" xlink:href="#N"/><use transform="matrix(0.015,0,0,0.015,16.545,0)" xlink:href="#as"/><use transform="matrix(0.015,0,0,0.015,25.755000000000003,0)" xlink:href="#aa"/><use transform="matrix(0.015,0,0,0.015,33.6,0)" xlink:href="#ac"/><use transform="matrix(0.015,0,0,0.015,38.955,0)" xlink:href="#ax"/><use transform="matrix(0.015,0,0,0.015,42.824999999999996,0)" xlink:href="#T"/><use transform="matrix(0.015,0,0,0.015,51.989999999999995,0)" xlink:href="#as"/></g><path d="M247 257c-129 0-227-40-227-153C20 28 64-4 125-36c-33-15-49-37-49-67 0-43 35-68 74-79-60-24-100-74-100-157 0-151 154-213 302-170h177v68l-113-12c32 23 55 66 54 122 0 115-87 172-209 172-52 0-107 9-107 49 0 27 32 41 97 42 94 1 163 14 205 38s63 59 63 107c0 132-124 180-272 180zM129-341c1 79 47 121 131 121 87 0 131-39 131-118-1-77-49-121-131-121-76 0-132 44-131 118zm121 534c101 0 185-23 185-109 0-54-41-66-99-78-36-7-85-10-148-10-49 23-85 46-85 104 0 62 49 93 147 93" id="ay"/><path d="M41-381c-4-162 252-177 353-88l-38 53c-39-27-82-41-128-41-98 0-143 107-54 139 97 35 229 46 229 174C403 35 133 53 25-45l39-53c42 28 78 41 142 45 80 4 134-58 99-129-26-31-59-35-113-51-89-25-148-50-151-148" id="az"/><g id="u"><use transform="matrix(0.015,0,0,0.015,0,0)" xlink:href="#Z"/><use transform="matrix(0.015,0,0,0.015,9.135,0)" xlink:href="#P"/><use transform="matrix(0.015,0,0,0.015,17.61,0)" xlink:href="#ay"/><use transform="matrix(0.015,0,0,0.015,25.89,0)" xlink:href="#ax"/><use transform="matrix(0.015,0,0,0.015,29.76,0)" xlink:href="#az"/><use transform="matrix(0.015,0,0,0.015,36.39,0)" xlink:href="#ac"/><use transform="matrix(0.015,0,0,0.015,41.745,0)" xlink:href="#Q"/><use transform="matrix(0.015,0,0,0.015,47.504999999999995,0)" xlink:href="#U"/></g><path d="M316-708c234 0 367 116 367 353C683-126 546 1 318 0H90v-708h226zm-7 634c186-1 284-92 283-281 0-187-94-280-282-280H178v561h131" id="aA"/><g id="v"><use transform="matrix(0.015,0,0,0.015,0,0)" xlink:href="#aA"/><use transform="matrix(0.015,0,0,0.015,10.83,0)" xlink:href="#Y"/><use transform="matrix(0.015,0,0,0.015,18.93,0)" xlink:href="#ac"/><use transform="matrix(0.015,0,0,0.015,24.285,0)" xlink:href="#N"/><use transform="matrix(0.015,0,0,0.015,33.51,0)" xlink:href="#S"/></g><path d="M519-637H178v238h297v68H178v258h358V0H90v-708h429v71" id="aB"/><path d="M517 0H415L259-214 109 0H9l198-267L31-509h97l135 193 134-193h92L315-267" id="aC"/><path d="M349-523c153 3 224 114 224 268 0 156-81 269-235 269-65 0-120-21-167-63v293H86v-639c0-37-2-75-7-114h81c5 21 3 52 9 78 33-55 92-94 180-92zM320-54c111 1 165-88 165-201 0-111-49-200-153-200-99 0-161 67-161 165v169c42 40 76 65 149 67" id="aD"/><g id="w"><use transform="matrix(0.015,0,0,0.015,0,0)" xlink:href="#aB"/><use transform="matrix(0.015,0,0,0.015,8.445,0)" xlink:href="#aC"/><use transform="matrix(0.015,0,0,0.015,16.335,0)" xlink:href="#aD"/><use transform="matrix(0.015,0,0,0.015,25.665,0)" xlink:href="#Q"/><use transform="matrix(0.015,0,0,0.015,30.84,0)" xlink:href="#P"/><use transform="matrix(0.015,0,0,0.015,39.315,0)" xlink:href="#az"/><use transform="matrix(0.015,0,0,0.015,45.945,0)" xlink:href="#az"/><use transform="matrix(0.015,0,0,0.015,52.575,0)" xlink:href="#ax"/><use transform="matrix(0.015,0,0,0.015,56.445,0)" xlink:href="#T"/><use transform="matrix(0.015,0,0,0.015,65.61,0)" xlink:href="#as"/></g><g id="x"><use transform="matrix(0.015,0,0,0.015,0,0)" xlink:href="#aB"/><use transform="matrix(0.015,0,0,0.015,8.445,0)" xlink:href="#aC"/><use transform="matrix(0.015,0,0,0.015,15.945,0)" xlink:href="#P"/><use transform="matrix(0.015,0,0,0.015,24.42,0)" xlink:href="#aa"/><use transform="matrix(0.015,0,0,0.015,31.965000000000007,0)" xlink:href="#M"/><use transform="matrix(0.015,0,0,0.015,41.370000000000005,0)" xlink:href="#Y"/><use transform="matrix(0.015,0,0,0.015,49.47,0)" xlink:href="#ac"/><use transform="matrix(0.015,0,0,0.015,54.629999999999995,0)" xlink:href="#aa"/><use transform="matrix(0.015,0,0,0.015,62.175,0)" xlink:href="#ad"/></g><filter id="q" filterUnits="objectBoundingBox" x="-.01" y="0" width="1.03" height="1.02"><feOffset result="offOut" in="SourceAlpha" dy="3"/><feGaussianBlur result="blurOut" in="offOut" stdDeviation="2.5"/><feColorMatrix result="colorOut" in="blurOut" values="0 0 0 0 0.018823529411764708 0 0 0 0 0.018823529411764708 0 0 0 0 0.018823529411764708 0 0 0 0.2 0"/><feBlend in="SourceGraphic" in2="colorOut"/></filter><path d="M203 0H78v-520h125V0zm-62-611c-51 0-77-26-77-71 0-48 26-72 77-72s77 26 77 72c0 45-28 71-77 71" id="aE"/><path d="M203-708V0H78v-708h125" id="aF"/><g id="z"><use transform="matrix(0.02,0,0,0.02,0,0)" xlink:href="#al"/><use transform="matrix(0.02,0,0,0.02,12.700000000000001,0)" xlink:href="#aE"/><use transform="matrix(0.02,0,0,0.02,18.34,0)" xlink:href="#K"/><use transform="matrix(0.02,0,0,0.02,25.900000000000002,0)" xlink:href="#L"/><use transform="matrix(0.02,0,0,0.02,37.48,0)" xlink:href="#ap"/><use transform="matrix(0.02,0,0,0.02,48.099999999999994,0)" xlink:href="#ai"/><use transform="matrix(0.02,0,0,0.02,55.800000000000004,0)" xlink:href="#aF"/><use transform="matrix(0.02,0,0,0.02,61.44,0)" xlink:href="#an"/></g><g id="A"><use transform="matrix(0.02,0,0,0.02,0,0)" xlink:href="#aj"/><use transform="matrix(0.02,0,0,0.02,12.379999999999997,0)" xlink:href="#ak"/><use transform="matrix(0.02,0,0,0.02,21.6,0)" xlink:href="#L"/><use transform="matrix(0.02,0,0,0.02,33.18,0)" xlink:href="#al"/></g><path d="M519-192C526 49 168 67 30-66l45-56c53 42 105 63 193 64 90 1 164-42 161-131-3-108-85-124-177-151-113-33-191-67-197-195-9-210 320-235 451-122l-40 58c-51-32-98-52-175-53-81-1-152 34-149 111 4 95 69 103 160 131 125 38 213 72 217 218" id="aG"/><g id="B"><use transform="matrix(0.015,0,0,0.015,0,0)" xlink:href="#M"/><use transform="matrix(0.015,0,0,0.015,9.315,0)" xlink:href="#N"/><use transform="matrix(0.015,0,0,0.015,18.54,0)" xlink:href="#O"/><use transform="matrix(0.015,0,0,0.015,23.49,0)" xlink:href="#O"/><use transform="matrix(0.015,0,0,0.015,28.439999999999998,0)" xlink:href="#P"/><use transform="matrix(0.015,0,0,0.015,36.915,0)" xlink:href="#Q"/><use transform="matrix(0.015,0,0,0.015,42.375,0)" xlink:href="#aG"/><use transform="matrix(0.015,0,0,0.015,50.76,0)" xlink:href="#aD"/><use transform="matrix(0.015,0,0,0.015,60.089999999999996,0)" xlink:href="#Y"/><use transform="matrix(0.015,0,0,0.015,68.28,0)" xlink:href="#as"/></g><g id="C"><use transform="matrix(0.015,0,0,0.015,0,0)" xlink:href="#X"/><use transform="matrix(0.015,0,0,0.015,9.9,0)" xlink:href="#Q"/><use transform="matrix(0.015,0,0,0.015,15.36,0)" xlink:href="#Q"/><use transform="matrix(0.015,0,0,0.015,20.52,0)" xlink:href="#Y"/><use transform="matrix(0.015,0,0,0.015,28.32,0)" xlink:href="#U"/><use transform="matrix(0.015,0,0,0.015,35.43,0)" xlink:href="#aG"/><use transform="matrix(0.015,0,0,0.015,43.815,0)" xlink:href="#aD"/><use transform="matrix(0.015,0,0,0.015,53.144999999999996,0)" xlink:href="#Y"/><use transform="matrix(0.015,0,0,0.015,61.334999999999994,0)" xlink:href="#as"/></g><g id="D"><use transform="matrix(0.015,0,0,0.015,0,0)" xlink:href="#aB"/><use transform="matrix(0.015,0,0,0.015,8.445,0)" xlink:href="#aC"/><use transform="matrix(0.015,0,0,0.015,15.945,0)" xlink:href="#P"/><use transform="matrix(0.015,0,0,0.015,24.42,0)" xlink:href="#aa"/><use transform="matrix(0.015,0,0,0.015,31.965000000000007,0)" xlink:href="#aG"/><use transform="matrix(0.015,0,0,0.015,40.35,0)" xlink:href="#aD"/><use transform="matrix(0.015,0,0,0.015,49.68,0)" xlink:href="#Y"/><use transform="matrix(0.015,0,0,0.015,57.87,0)" xlink:href="#as"/></g><filter id="y" filterUnits="objectBoundingBox" x="-.01" y="-.01" width="1.03" height="1.04"><feOffset result="offOut" in="SourceAlpha" dy="3"/><feGaussianBlur result="blurOut" in="offOut" stdDeviation="2.5"/><feColorMatrix result="colorOut" in="blurOut" values="0 0 0 0 0.018823529411764708 0 0 0 0 0.018823529411764708 0 0 0 0 0.018823529411764708 0 0 0 0.2 0"/><feBlend in="SourceGraphic" in2="colorOut"/></filter><g id="E"><use transform="matrix(0.02,0,0,0.02,0,0)" xlink:href="#ao"/><use transform="matrix(0.02,0,0,0.02,13.36,0)" xlink:href="#ap"/><use transform="matrix(0.02,0,0,0.02,23.340000000000003,0)" xlink:href="#L"/><use transform="matrix(0.02,0,0,0.02,34.92,0)" xlink:href="#K"/><use transform="matrix(0.02,0,0,0.02,42.480000000000004,0)" xlink:href="#J"/></g><g id="F"><use transform="matrix(0.015,0,0,0.015,0,0)" xlink:href="#aA"/><use transform="matrix(0.015,0,0,0.015,10.98,0)" xlink:href="#P"/><use transform="matrix(0.015,0,0,0.015,19.455,0)" xlink:href="#aa"/><use transform="matrix(0.015,0,0,0.015,27,0)" xlink:href="#W"/><use transform="matrix(0.015,0,0,0.015,30.869999999999997,0)" xlink:href="#Y"/><use transform="matrix(0.015,0,0,0.015,39.06,0)" xlink:href="#Q"/><use transform="matrix(0.015,0,0,0.015,44.220000000000006,0)" xlink:href="#Y"/><use transform="matrix(0.015,0,0,0.015,52.32,0)" xlink:href="#ac"/><use transform="matrix(0.015,0,0,0.015,57.675,0)" xlink:href="#ax"/><use transform="matrix(0.015,0,0,0.015,61.544999999999995,0)" xlink:href="#T"/><use transform="matrix(0.015,0,0,0.015,70.71,0)" xlink:href="#as"/></g><g id="G"><use transform="matrix(0.015,0,0,0.015,0,0)" xlink:href="#aB"/><use transform="matrix(0.015,0,0,0.015,8.445,0)" xlink:href="#aC"/><use transform="matrix(0.015,0,0,0.015,15.945,0)" xlink:href="#P"/><use transform="matrix(0.015,0,0,0.015,24.42,0)" xlink:href="#aa"/><use transform="matrix(0.015,0,0,0.015,31.965000000000007,0)" xlink:href="#V"/><use transform="matrix(0.015,0,0,0.015,41.13,0)" xlink:href="#W"/><use transform="matrix(0.015,0,0,0.015,45,0)" xlink:href="#Y"/><use transform="matrix(0.015,0,0,0.015,53.19,0)" xlink:href="#as"/></g><path d="M90-708h102c138 196 274 394 414 588l-2-588h83V0H585C447-196 311-394 171-588l2 588H90v-708" id="aH"/><g id="H"><use transform="matrix(0.015,0,0,0.015,0,0)" xlink:href="#aB"/><use transform="matrix(0.015,0,0,0.015,8.445,0)" xlink:href="#aC"/><use transform="matrix(0.015,0,0,0.015,15.945,0)" xlink:href="#P"/><use transform="matrix(0.015,0,0,0.015,24.42,0)" xlink:href="#aa"/><use transform="matrix(0.015,0,0,0.015,31.965000000000007,0)" xlink:href="#aH"/><use transform="matrix(0.015,0,0,0.015,43.605000000000004,0)" xlink:href="#T"/><use transform="matrix(0.015,0,0,0.015,52.77,0)" xlink:href="#ab"/><use transform="matrix(0.015,0,0,0.015,62.085,0)" xlink:href="#P"/></g></defs></g></svg>