<svg xmlns="http://www.w3.org/2000/svg" xmlns:xlink="http://www.w3.org/1999/xlink" xmlns:lucid="lucid" width="920" height="600"><g transform="translate(-160 -160)" lucid:page-tab-id="0_0"><path d="M0 0h1760v1360H0z" fill="#fff"/><path d="M400 246a6 6 0 0 1 6-6h28a6 6 0 0 1 6 6v108a6 6 0 0 1-6 6h-28a6 6 0 0 1-6-6zM460 246a6 6 0 0 1 6-6h28a6 6 0 0 1 6 6v108a6 6 0 0 1-6 6h-28a6 6 0 0 1-6-6zM520 246a6 6 0 0 1 6-6h28a6 6 0 0 1 6 6v108a6 6 0 0 1-6 6h-28a6 6 0 0 1-6-6zM640 246a6 6 0 0 1 6-6h28a6 6 0 0 1 6 6v108a6 6 0 0 1-6 6h-28a6 6 0 0 1-6-6zM700 246a6 6 0 0 1 6-6h28a6 6 0 0 1 6 6v108a6 6 0 0 1-6 6h-28a6 6 0 0 1-6-6zM400 506a6 6 0 0 1 6-6h148a6 6 0 0 1 6 6v28a6 6 0 0 1-6 6H406a6 6 0 0 1-6-6z" stroke="#3a414a" fill="#edf5ff"/><use xlink:href="#a" transform="matrix(1,0,0,1,412,512) translate(18.092592592592588 17.77777777777778)"/><path d="M360 186a6 6 0 0 1 6-6h228a6 6 0 0 1 6 6v48a6 6 0 0 1-6 6H366a6 6 0 0 1-6-6z" stroke="#000" stroke-opacity="0" fill="#fff" fill-opacity="0"/><use xlink:href="#b" transform="matrix(1,0,0,1,365,185) translate(80.06172839506172 30.27777777777778)"/><path d="M560 186a6 6 0 0 1 6-6h228a6 6 0 0 1 6 6v48a6 6 0 0 1-6 6H566a6 6 0 0 1-6-6z" stroke="#000" stroke-opacity="0" fill="#fff" fill-opacity="0"/><use xlink:href="#b" transform="matrix(1,0,0,1,565,185) translate(80.06172839506172 30.27777777777778)"/><path d="M480 499l-.1-4.33-.28-4.43-.43-4.1-.57-3.82-.7-3.6-.8-3.44-.9-3.3-1.05-3.18-1.16-3.12-1.3-3.08-1.45-3.1-1.64-3.13-1.88-3.26-2.22-3.48-2.7-3.9-3.66-4.8-8.82-10.52-9.52-11.32-3.65-4.8-2.7-3.9-2.23-3.5-1.88-3.25-1.64-3.14-1.46-3.1-1.3-3.08-1.15-3.12-1.04-3.2-.92-3.28-.8-3.43-.7-3.62-.12-.86" stroke="#3a414a" stroke-linejoin="round" fill="none"/><path d="M480.5 499.5h-1v-.5l1-.02z" stroke="#3a414a" stroke-width=".05" fill="#3a414a"/><path d="M420.12 362.1l5.7 13.9-9.24.7z" stroke="#3a414a" fill="#3a414a"/><path d="M480 499V376.88" stroke="#3a414a" stroke-linejoin="round" fill="none"/><path d="M480.5 499.5h-1v-.5h1z" stroke="#3a414a" stroke-width=".05" fill="#3a414a"/><path d="M480 362.12l4.63 14.26h-9.26z" stroke="#3a414a" fill="#3a414a"/><path d="M480.5 499.48l2.38-.1 2.67-.22 2.5-.3 2.35-.4 2.2-.48 2.1-.53 2-.6 1.93-.67 1.83-.72 1.77-.8 1.7-.83 1.66-.9 1.6-.98 1.56-1.04 1.54-1.1 1.5-1.2 1.5-1.27 1.45-1.37 1.45-1.48 1.43-1.6 1.42-1.7 1.42-1.88 1.42-2.03 1.4-2.23 1.42-2.45 1.42-2.72 1.42-3 1.43-3.4 1.4-3.82 1.44-4.38 1.4-5.05 1.4-5.93 1.36-7.1 1.28-8.7 1.18-11.17.97-15.6.42-24.85" stroke="#3a414a" stroke-linejoin="round" fill="none"/><path d="M480.5 499.48l-.5.02" stroke="#3a414a" fill="none"/><path d="M540 362.12l4.5 14.3-9.28-.08z" stroke="#3a414a" fill="#3a414a"/><path d="M620 506a6 6 0 0 1 6-6h148a6 6 0 0 1 6 6v28a6 6 0 0 1-6 6H626a6 6 0 0 1-6-6z" stroke="#3a414a" fill="#edf5ff"/><use xlink:href="#a" transform="matrix(1,0,0,1,632,512) translate(18.092592592592588 17.77777777777778)"/><path d="M699 499l-.15-6.75-.4-6.37-.6-5.7-.75-5.16-.92-4.78-1.05-4.5-1.2-4.3-1.38-4.25-1.6-4.3-1.9-4.53-2.46-5.2-4.15-7.88-10.04-18.46-2.45-5.2-1.9-4.54-1.6-4.3-1.38-4.23-1.2-4.3-1.05-4.5-.92-4.8-.76-5.16-.3-2.94" stroke="#3a414a" stroke-linejoin="round" fill="none"/><path d="M699.5 499.5h-1v-.5l1-.02z" stroke="#3a414a" stroke-width=".05" fill="#3a414a"/><path d="M660.08 362.12l5.36 14-9.26.48z" stroke="#3a414a" fill="#3a414a"/><path d="M700 499l.27-12.8.65-10.55.93-8.88 1.17-7.9 1.46-7.65 2-8.55 9.04-33.9 1.46-7.63 1.17-7.9.93-8.9.46-7.46" stroke="#3a414a" stroke-linejoin="round" fill="none"/><path d="M700.5 499v.5h-1v-.52z" stroke="#3a414a" stroke-width=".05" fill="#3a414a"/><path d="M719.96 362.12l4.23 14.4-9.28-.27z" stroke="#3a414a" fill="#3a414a"/><path d="M400 706a6 6 0 0 1 6-6h148a6 6 0 0 1 6 6v28a6 6 0 0 1-6 6H406a6 6 0 0 1-6-6z" stroke="#3a414a" fill="#e3fae3"/><use xlink:href="#c" transform="matrix(1,0,0,1,412,712) translate(3.864197530864203 17.77777777777778)"/><path d="M180 546a6 6 0 0 1 6-6h148a6 6 0 0 1 6 6v108a6 6 0 0 1-6 6H186a6 6 0 0 1-6-6z" stroke="#3a414a" fill="#e3fae3"/><use xlink:href="#d" transform="matrix(1,0,0,1,192,552) translate(27.290123456790127 53.77777777777778)"/><path d="M480 699V556.88" stroke="#3a414a" stroke-linejoin="round" fill="none"/><path d="M480.5 699.5h-1v-.5h1z" stroke="#3a414a" stroke-width=".05" fill="#3a414a"/><path d="M480 542.12l4.63 14.26h-9.26z" stroke="#3a414a" fill="#3a414a"/><path d="M480 699l.04-1.28.1-1.74.18-1.7.25-1.65.3-1.65.4-1.62.44-1.62.54-1.6.6-1.62.68-1.62.77-1.63.85-1.66.98-1.67 1.1-1.72 1.22-1.76 1.38-1.82 1.57-1.9 1.77-1.96 2.02-2.06 2.3-2.18 2.7-2.32 3.13-2.48 3.7-2.7 4.46-2.94 5.43-3.3 6.87-3.76 9.05-4.48 12.98-5.76 24.55-9.62 63.8-23.94 12.97-5.76 9.05-4.48 6.87-3.77 5.44-3.28 4.46-2.95 3.7-2.7 3.14-2.47 2.7-2.32 2.3-2.18 2.03-2.06 1.77-1.97 1.56-1.9 1.4-1.8 1.22-1.78 1.1-1.73.97-1.68.86-1.67.78-1.63.27-.66" stroke="#3a414a" stroke-linejoin="round" fill="none"/><path d="M480.5 699v.5h-1v-.52z" stroke="#3a414a" stroke-width=".05" fill="#3a414a"/><path d="M699.68 542.1l1.7 14.9-9.1-1.86z" stroke="#3a414a" fill="#3a414a"/><path d="M399 720l-.4-.04-.43-.04-.44-.07-.43-.08-.43-.1-.43-.12-.43-.14-.43-.15-.44-.2-.45-.2-.46-.24-.48-.27-.48-.3-.5-.35-.52-.4-.54-.44-.57-.5-.6-.6-.63-.68-.67-.78-.73-.9-.78-1.1-.86-1.28-.94-1.56-1.05-1.9-1.2-2.4-1.36-3.1-1.63-4.16-2.06-5.94-2.9-9.76-14.3-54.12-2.07-5.94-1.64-4.16-1.38-3.1-1.2-2.4-1.04-1.9-.85-1.4" stroke="#3a414a" stroke-linejoin="round" fill="none"/><path d="M399.5 719.5v1h-.52l.02-1z" stroke="#3a414a" stroke-width=".05" fill="#3a414a"/><path d="M341.8 600.94l14.3 4.57-5.4 7.53z" stroke="#3a414a" fill="#3a414a"/><path d="M720 706a6 6 0 0 1 6-6h148a6 6 0 0 1 6 6v28a6 6 0 0 1-6 6H726a6 6 0 0 1-6-6z" stroke="#3a414a" fill="#e3fae3"/><use xlink:href="#e" transform="matrix(1,0,0,1,732,712) translate(14.913580246913583 17.77777777777778)"/><path d="M800 699l-.03-.73-.07-1.2-.13-1.2-.17-1.18-.23-1.2-.27-1.16-.33-1.17-.38-1.18-.45-1.2-.5-1.2-.6-1.23-.64-1.24-.73-1.28-.83-1.32-.95-1.36-1.08-1.4-1.22-1.48-1.38-1.55-1.6-1.62-1.83-1.72-2.13-1.82-2.48-1.97-2.94-2.1-3.5-2.33-4.2-2.55-5.2-2.85-6.5-3.22-8.42-3.74-11.3-4.44-16.22-5.63-26.97-8.07-140.47-37.4-16.22-5.62-11.3-4.45-8.4-3.75-6.52-3.22-5.2-2.85-4.2-2.55-3.5-2.32-2.93-2.12-2.47-1.96-2.12-1.83-1.82-1.73-1.6-1.62-1.38-1.54-1.22-1.46-1.07-1.4-.94-1.37-.83-1.32-.06-.1" stroke="#3a414a" stroke-linejoin="round" fill="none"/><path d="M800.5 699.5h-1v-.5l1-.03z" stroke="#3a414a" stroke-width=".05" fill="#3a414a"/><path d="M480.45 542.05l8.4 12.44-8.92 2.55z" stroke="#3a414a" fill="#3a414a"/><path d="M800 699l-.08-3.35-.23-3.62-.37-3.43-.48-3.28-.6-3.14-.7-3.03-.83-2.94-.93-2.86-1.06-2.82-1.17-2.78-1.3-2.77-1.46-2.78-1.6-2.8-1.82-2.86-2.04-2.94-2.32-3.05-2.68-3.24-3.15-3.5-3.87-3.92-5.02-4.7-7.8-6.72-28.8-23.63-5.03-4.7-3.86-3.94-3.14-3.5-2.68-3.25-2.32-3.05-2.04-2.94-1.8-2.85-1.63-2.8-1.46-2.76-1.3-2.78-1.18-2.78-1.05-2.82-.92-2.87-.82-2.95-.7-3.03-.2-1.04" stroke="#3a414a" stroke-linejoin="round" fill="none"/><path d="M800.5 699.5h-1v-.5l1-.02z" stroke="#3a414a" stroke-width=".05" fill="#3a414a"/><path d="M700.15 542.1l5.97 13.77-9.23.88z" stroke="#3a414a" fill="#3a414a"/><path d="M900 546a6 6 0 0 1 6-6h148a6 6 0 0 1 6 6v108a6 6 0 0 1-6 6H906a6 6 0 0 1-6-6z" stroke="#3a414a" fill="#fff3d9"/><use xlink:href="#f" transform="matrix(1,0,0,1,912,552) translate(39.01851851851852 38.77777777777778)"/><use xlink:href="#g" transform="matrix(1,0,0,1,912,552) translate(21.73456790123457 65.44444444444446)"/><path d="M800 699l.14-4.97.4-5.34.66-5.23.9-5.1 1.15-4.97 1.38-4.86 1.6-4.74 1.83-4.6 2.04-4.5 2.24-4.33 2.45-4.2 2.65-4.07 2.84-3.92 3.02-3.76 3.2-3.6 3.4-3.43 3.56-3.27 3.7-3.08 3.9-2.9 4.02-2.7 4.17-2.5 4.3-2.3 4.45-2.1 4.58-1.87 4.7-1.66 4.83-1.44 4.95-1.2 5.07-.97 1.03-.13" stroke="#3a414a" stroke-linejoin="round" fill="none"/><path d="M800.5 699v.5h-1v-.53z" stroke="#3a414a" stroke-width=".05" fill="#3a414a"/><path d="M897.9 600.13L884 605.85l-.72-9.24z" stroke="#3a414a" fill="#3a414a"/><defs><path fill="#3a414a" d="M205 0l-28-72H64L36 0H1l101-248h38L239 0h-34zm-38-99l-47-123c-12 45-31 82-46 123h93" id="h"/><path fill="#3a414a" d="M114-163C36-179 61-72 57 0H25l-1-190h30c1 12-1 29 2 39 6-27 23-49 58-41v29" id="i"/><path fill="#3a414a" d="M141-36C126-15 110 5 73 4 37 3 15-17 15-53c-1-64 63-63 125-63 3-35-9-54-41-54-24 1-41 7-42 31l-33-3c5-37 33-52 76-52 45 0 72 20 72 64v82c-1 20 7 32 28 27v20c-31 9-61-2-59-35zM48-53c0 20 12 33 32 33 41-3 63-29 60-74-43 2-92-5-92 41" id="j"/><path fill="#3a414a" d="M179-190L93 31C79 59 56 82 12 73V49c39 6 53-20 64-50L1-190h34L92-34l54-156h33" id="k"/><path fill="#3a414a" d="M30-248c118-7 216 8 213 122C240-48 200 0 122 0H30v-248zM63-27c89 8 146-16 146-99s-60-101-146-95v194" id="l"/><path fill="#3a414a" d="M59-47c-2 24 18 29 38 22v24C64 9 27 4 27-40v-127H5v-23h24l9-43h21v43h35v23H59v120" id="m"/><g id="a"><use transform="matrix(0.06172839506172839,0,0,0.06172839506172839,0,0)" xlink:href="#h"/><use transform="matrix(0.06172839506172839,0,0,0.06172839506172839,14.814814814814813,0)" xlink:href="#i"/><use transform="matrix(0.06172839506172839,0,0,0.06172839506172839,22.160493827160494,0)" xlink:href="#i"/><use transform="matrix(0.06172839506172839,0,0,0.06172839506172839,29.50617283950617,0)" xlink:href="#j"/><use transform="matrix(0.06172839506172839,0,0,0.06172839506172839,41.85185185185185,0)" xlink:href="#k"/><use transform="matrix(0.06172839506172839,0,0,0.06172839506172839,52.96296296296296,0)" xlink:href="#l"/><use transform="matrix(0.06172839506172839,0,0,0.06172839506172839,68.95061728395062,0)" xlink:href="#j"/><use transform="matrix(0.06172839506172839,0,0,0.06172839506172839,81.2962962962963,0)" xlink:href="#m"/><use transform="matrix(0.06172839506172839,0,0,0.06172839506172839,87.46913580246914,0)" xlink:href="#j"/></g><path fill="#3a414a" d="M160-131c35 5 61 23 61 61C221 17 115-2 30 0v-248c76 3 177-17 177 60 0 33-19 50-47 57zm-97-11c50-1 110 9 110-42 0-47-63-36-110-37v79zm0 115c55-2 124 14 124-45 0-56-70-42-124-44v89" id="n"/><path fill="#3a414a" d="M84 4C-5 8 30-112 23-190h32v120c0 31 7 50 39 49 72-2 45-101 50-169h31l1 190h-30c-1-10 1-25-2-33-11 22-28 36-60 37" id="o"/><path fill="#3a414a" d="M101-234c-31-9-42 10-38 44h38v23H63V0H32v-167H5v-23h27c-7-52 17-82 69-68v24" id="p"/><path fill="#3a414a" d="M100-194c63 0 86 42 84 106H49c0 40 14 67 53 68 26 1 43-12 49-29l28 8c-11 28-37 45-77 45C44 4 14-33 15-96c1-61 26-98 85-98zm52 81c6-60-76-77-97-28-3 7-6 17-6 28h103" id="q"/><path fill="#3a414a" d="M135-143c-3-34-86-38-87 0 15 53 115 12 119 90S17 21 10-45l28-5c4 36 97 45 98 0-10-56-113-15-118-90-4-57 82-63 122-42 12 7 21 19 24 35" id="r"/><g id="b"><use transform="matrix(0.06172839506172839,0,0,0.06172839506172839,0,0)" xlink:href="#n"/><use transform="matrix(0.06172839506172839,0,0,0.06172839506172839,14.814814814814813,0)" xlink:href="#o"/><use transform="matrix(0.06172839506172839,0,0,0.06172839506172839,27.160493827160494,0)" xlink:href="#p"/><use transform="matrix(0.06172839506172839,0,0,0.06172839506172839,32.901234567901234,0)" xlink:href="#p"/><use transform="matrix(0.06172839506172839,0,0,0.06172839506172839,39.074074074074076,0)" xlink:href="#q"/><use transform="matrix(0.06172839506172839,0,0,0.06172839506172839,51.41975308641975,0)" xlink:href="#i"/><use transform="matrix(0.06172839506172839,0,0,0.06172839506172839,58.76543209876543,0)" xlink:href="#r"/></g><path fill="#3a414a" d="M233-177c-1 41-23 64-60 70L243 0h-38l-65-103H63V0H30v-248c88 3 205-21 203 71zM63-129c60-2 137 13 137-47 0-61-80-42-137-45v92" id="s"/><path fill="#3a414a" d="M96-169c-40 0-48 33-48 73s9 75 48 75c24 0 41-14 43-38l32 2c-6 37-31 61-74 61-59 0-76-41-82-99-10-93 101-131 147-64 4 7 5 14 7 22l-32 3c-4-21-16-35-41-35" id="t"/><path fill="#3a414a" d="M100-194c62-1 85 37 85 99 1 63-27 99-86 99S16-35 15-95c0-66 28-99 85-99zM99-20c44 1 53-31 53-75 0-43-8-75-51-75s-53 32-53 75 10 74 51 75" id="u"/><path fill="#3a414a" d="M85-194c31 0 48 13 60 33l-1-100h32l1 261h-30c-2-10 0-23-3-31C134-8 116 4 85 4 32 4 16-35 15-94c0-66 23-100 70-100zm9 24c-40 0-46 34-46 75 0 40 6 74 45 74 42 0 51-32 51-76 0-42-9-74-50-73" id="v"/><path fill="#3a414a" d="M106-169C34-169 62-67 57 0H25v-261h32l-1 103c12-21 28-36 61-36 89 0 53 116 60 194h-32v-121c2-32-8-49-39-48" id="w"/><g id="c"><use transform="matrix(0.06172839506172839,0,0,0.06172839506172839,0,0)" xlink:href="#s"/><use transform="matrix(0.06172839506172839,0,0,0.06172839506172839,15.987654320987653,0)" xlink:href="#q"/><use transform="matrix(0.06172839506172839,0,0,0.06172839506172839,28.333333333333332,0)" xlink:href="#t"/><use transform="matrix(0.06172839506172839,0,0,0.06172839506172839,39.44444444444444,0)" xlink:href="#u"/><use transform="matrix(0.06172839506172839,0,0,0.06172839506172839,51.79012345679012,0)" xlink:href="#i"/><use transform="matrix(0.06172839506172839,0,0,0.06172839506172839,59.1358024691358,0)" xlink:href="#v"/><use transform="matrix(0.06172839506172839,0,0,0.06172839506172839,71.48148148148148,0)" xlink:href="#n"/><use transform="matrix(0.06172839506172839,0,0,0.06172839506172839,86.29629629629629,0)" xlink:href="#j"/><use transform="matrix(0.06172839506172839,0,0,0.06172839506172839,98.64197530864197,0)" xlink:href="#m"/><use transform="matrix(0.06172839506172839,0,0,0.06172839506172839,104.81481481481481,0)" xlink:href="#t"/><use transform="matrix(0.06172839506172839,0,0,0.06172839506172839,115.92592592592592,0)" xlink:href="#w"/></g><path fill="#3a414a" d="M185-189c-5-48-123-54-124 2 14 75 158 14 163 119 3 78-121 87-175 55-17-10-28-26-33-46l33-7c5 56 141 63 141-1 0-78-155-14-162-118-5-82 145-84 179-34 5 7 8 16 11 25" id="x"/><path fill="#3a414a" d="M210-169c-67 3-38 105-44 169h-31v-121c0-29-5-50-35-48C34-165 62-65 56 0H25l-1-190h30c1 10-1 24 2 32 10-44 99-50 107 0 11-21 27-35 58-36 85-2 47 119 55 194h-31v-121c0-29-5-49-35-48" id="y"/><g id="d"><use transform="matrix(0.06172839506172839,0,0,0.06172839506172839,0,0)" xlink:href="#x"/><use transform="matrix(0.06172839506172839,0,0,0.06172839506172839,14.814814814814813,0)" xlink:href="#t"/><use transform="matrix(0.06172839506172839,0,0,0.06172839506172839,25.925925925925924,0)" xlink:href="#w"/><use transform="matrix(0.06172839506172839,0,0,0.06172839506172839,38.2716049382716,0)" xlink:href="#q"/><use transform="matrix(0.06172839506172839,0,0,0.06172839506172839,50.61728395061728,0)" xlink:href="#y"/><use transform="matrix(0.06172839506172839,0,0,0.06172839506172839,69.07407407407406,0)" xlink:href="#j"/></g><path fill="#3a414a" d="M30 0v-248h187v28H63v79h144v27H63v87h162V0H30" id="z"/><path fill="#3a414a" d="M141 0L90-78 38 0H4l68-98-65-92h35l48 74 47-74h35l-64 92 68 98h-35" id="A"/><g id="e"><use transform="matrix(0.06172839506172839,0,0,0.06172839506172839,0,0)" xlink:href="#z"/><use transform="matrix(0.06172839506172839,0,0,0.06172839506172839,14.814814814814813,0)" xlink:href="#A"/><use transform="matrix(0.06172839506172839,0,0,0.06172839506172839,25.925925925925924,0)" xlink:href="#q"/><use transform="matrix(0.06172839506172839,0,0,0.06172839506172839,38.2716049382716,0)" xlink:href="#t"/><use transform="matrix(0.06172839506172839,0,0,0.06172839506172839,49.38271604938271,0)" xlink:href="#n"/><use transform="matrix(0.06172839506172839,0,0,0.06172839506172839,64.19753086419752,0)" xlink:href="#j"/><use transform="matrix(0.06172839506172839,0,0,0.06172839506172839,76.5432098765432,0)" xlink:href="#m"/><use transform="matrix(0.06172839506172839,0,0,0.06172839506172839,82.71604938271604,0)" xlink:href="#t"/><use transform="matrix(0.06172839506172839,0,0,0.06172839506172839,93.82716049382715,0)" xlink:href="#w"/></g><g id="f"><use transform="matrix(0.06172839506172839,0,0,0.06172839506172839,0,0)" xlink:href="#h"/><use transform="matrix(0.06172839506172839,0,0,0.06172839506172839,14.814814814814813,0)" xlink:href="#t"/><use transform="matrix(0.06172839506172839,0,0,0.06172839506172839,25.925925925925924,0)" xlink:href="#q"/><use transform="matrix(0.06172839506172839,0,0,0.06172839506172839,38.2716049382716,0)" xlink:href="#i"/><use transform="matrix(0.06172839506172839,0,0,0.06172839506172839,45.61728395061728,0)" xlink:href="#u"/></g><path fill="#3a414a" d="M240 0l2-218c-23 76-54 145-80 218h-23L58-218 59 0H30v-248h44l77 211c21-75 51-140 76-211h43V0h-30" id="B"/><g id="g"><use transform="matrix(0.06172839506172839,0,0,0.06172839506172839,0,0)" xlink:href="#B"/><use transform="matrix(0.06172839506172839,0,0,0.06172839506172839,18.456790123456788,0)" xlink:href="#q"/><use transform="matrix(0.06172839506172839,0,0,0.06172839506172839,30.80246913580247,0)" xlink:href="#m"/><use transform="matrix(0.06172839506172839,0,0,0.06172839506172839,36.97530864197531,0)" xlink:href="#j"/><use transform="matrix(0.06172839506172839,0,0,0.06172839506172839,49.32098765432099,0)" xlink:href="#v"/><use transform="matrix(0.06172839506172839,0,0,0.06172839506172839,61.666666666666664,0)" xlink:href="#j"/><use transform="matrix(0.06172839506172839,0,0,0.06172839506172839,74.01234567901234,0)" xlink:href="#m"/><use transform="matrix(0.06172839506172839,0,0,0.06172839506172839,80.18518518518518,0)" xlink:href="#j"/></g></defs></g></svg>