<svg xmlns="http://www.w3.org/2000/svg" xmlns:xlink="http://www.w3.org/1999/xlink" xmlns:lucid="lucid" width="440" height="800"><g transform="translate(-140 -140)" lucid:page-tab-id="0_0"><path d="M0 0h1760v1360H0z" fill="#fff"/><path d="M160 160h80v40h-80zM240 160h80v40h-80zM320 160h80v40h-80z" fill="#dfe3e8"/><path d="M160 200h80v40h-80zM240 200h80v40h-80zM320 200h80v40h-80zM160 240h80v40h-80zM240 240h80v40h-80zM320 240h80v40h-80z" fill="#fff"/><path d="M160 160v40M240 160v40M320 160v40M400 160v40M160 200v40M240 200v40M320 200v40M400 200v40M160 240v40M240 240v40M320 240v40M400 240v40M160 160h80M240 160h80M320 160h80M160 200h80M240 200h80M320 200h80M160 240h80M160 280h80M240 240h80M240 280h80M320 240h80M320 280h80" stroke="#3a414a" fill="none"/><use xlink:href="#a" transform="matrix(1,0,0,1,165,165) translate(27.592592592592595 19.444444444444443)"/><use xlink:href="#b" transform="matrix(1,0,0,1,245,165) translate(27.592592592592595 19.444444444444443)"/><use xlink:href="#c" transform="matrix(1,0,0,1,325,165) translate(28.24074074074074 19.444444444444443)"/><use xlink:href="#d" transform="matrix(1,0,0,1,165,205) translate(28.82716049382716 19.444444444444443)"/><use xlink:href="#e" transform="matrix(1,0,0,1,245,205) translate(28.82716049382716 19.444444444444443)"/><use xlink:href="#f" transform="matrix(1,0,0,1,325,205) translate(19.75308641975309 19.444444444444443)"/><use xlink:href="#d" transform="matrix(1,0,0,1,165,245) translate(28.82716049382716 19.444444444444443)"/><use xlink:href="#g" transform="matrix(1,0,0,1,245,245) translate(28.82716049382716 19.444444444444443)"/><use xlink:href="#f" transform="matrix(1,0,0,1,325,245) translate(19.75308641975309 19.444444444444443)"/><path d="M160 326a6 6 0 0 1 6-6h148a6 6 0 0 1 6 6v108a6 6 0 0 1-6 6H166a6 6 0 0 1-6-6z" stroke="#3a414a" fill="#fff"/><use xlink:href="#h" transform="matrix(1,0,0,1,172,332) translate(14.913580246913583 53.77777777777778)"/><path d="M360 326a6 6 0 0 1 6-6h188a6 6 0 0 1 6 6v28a6 6 0 0 1-6 6H366a6 6 0 0 1-6-6z" stroke="#3a414a" fill="#edf5ff"/><use xlink:href="#i" transform="matrix(1,0,0,1,372,332) translate(33.74074074074074 17.77777777777778)"/><use xlink:href="#j" transform="matrix(1,0,0,1,372,332) translate(92.87654320987654 17.77777777777778)"/><use xlink:href="#k" transform="matrix(1,0,0,1,372,332) translate(123.74074074074073 17.77777777777778)"/><path d="M360 366a6 6 0 0 1 6-6h188a6 6 0 0 1 6 6v28a6 6 0 0 1-6 6H366a6 6 0 0 1-6-6z" stroke="#3a414a" fill="#edf5ff"/><use xlink:href="#i" transform="matrix(1,0,0,1,372,372) translate(33.74074074074074 17.77777777777778)"/><use xlink:href="#l" transform="matrix(1,0,0,1,372,372) translate(92.87654320987654 17.77777777777778)"/><use xlink:href="#m" transform="matrix(1,0,0,1,372,372) translate(123.74074074074073 17.77777777777778)"/><path d="M360 406a6 6 0 0 1 6-6h188a6 6 0 0 1 6 6v28a6 6 0 0 1-6 6H366a6 6 0 0 1-6-6z" stroke="#3a414a" fill="#edf5ff"/><use xlink:href="#i" transform="matrix(1,0,0,1,372,412) translate(15.592592592592595 17.77777777777778)"/><use xlink:href="#n" transform="matrix(1,0,0,1,372,412) translate(74.7283950617284 17.77777777777778)"/><use xlink:href="#o" transform="matrix(1,0,0,1,372,412) translate(123.74074074074075 17.77777777777778)"/><path d="M160 486a6 6 0 0 1 6-6h148a6 6 0 0 1 6 6v108a6 6 0 0 1-6 6H166a6 6 0 0 1-6-6z" stroke="#3a414a" fill="#fff"/><use xlink:href="#h" transform="matrix(1,0,0,1,172,492) translate(14.913580246913583 53.77777777777778)"/><path d="M360 486a6 6 0 0 1 6-6h188a6 6 0 0 1 6 6v28a6 6 0 0 1-6 6H366a6 6 0 0 1-6-6z" stroke="#3a414a" fill="#fff0f0"/><use xlink:href="#p" transform="matrix(1,0,0,1,372,492) translate(47.32098765432099 17.77777777777778)"/><use xlink:href="#q" transform="matrix(1,0,0,1,372,492) translate(116.33333333333333 17.77777777777778)"/><path d="M360 526a6 6 0 0 1 6-6h188a6 6 0 0 1 6 6v28a6 6 0 0 1-6 6H366a6 6 0 0 1-6-6z" stroke="#3a414a" fill="#edf5ff"/><use xlink:href="#i" transform="matrix(1,0,0,1,372,532) translate(33.74074074074074 17.77777777777778)"/><use xlink:href="#l" transform="matrix(1,0,0,1,372,532) translate(92.87654320987654 17.77777777777778)"/><use xlink:href="#m" transform="matrix(1,0,0,1,372,532) translate(123.74074074074073 17.77777777777778)"/><path d="M360 566a6 6 0 0 1 6-6h188a6 6 0 0 1 6 6v28a6 6 0 0 1-6 6H366a6 6 0 0 1-6-6z" stroke="#3a414a" fill="#edf5ff"/><use xlink:href="#i" transform="matrix(1,0,0,1,372,572) translate(15.592592592592595 17.77777777777778)"/><use xlink:href="#n" transform="matrix(1,0,0,1,372,572) translate(74.7283950617284 17.77777777777778)"/><use xlink:href="#o" transform="matrix(1,0,0,1,372,572) translate(123.74074074074075 17.77777777777778)"/><path d="M160 646a6 6 0 0 1 6-6h148a6 6 0 0 1 6 6v108a6 6 0 0 1-6 6H166a6 6 0 0 1-6-6z" stroke="#3a414a" fill="#fff"/><use xlink:href="#h" transform="matrix(1,0,0,1,172,652) translate(14.913580246913583 53.77777777777778)"/><path d="M360 646a6 6 0 0 1 6-6h188a6 6 0 0 1 6 6v28a6 6 0 0 1-6 6H366a6 6 0 0 1-6-6z" stroke="#3a414a" fill="#edf5ff"/><use xlink:href="#i" transform="matrix(1,0,0,1,372,652) translate(33.74074074074074 17.77777777777778)"/><use xlink:href="#j" transform="matrix(1,0,0,1,372,652) translate(92.87654320987654 17.77777777777778)"/><use xlink:href="#k" transform="matrix(1,0,0,1,372,652) translate(123.74074074074073 17.77777777777778)"/><path d="M360 686a6 6 0 0 1 6-6h188a6 6 0 0 1 6 6v28a6 6 0 0 1-6 6H366a6 6 0 0 1-6-6z" stroke="#3a414a" fill="#edf5ff"/><g><use xlink:href="#i" transform="matrix(1,0,0,1,372,692) translate(33.74074074074074 17.77777777777778)"/><use xlink:href="#l" transform="matrix(1,0,0,1,372,692) translate(92.87654320987654 17.77777777777778)"/><use xlink:href="#m" transform="matrix(1,0,0,1,372,692) translate(123.74074074074073 17.77777777777778)"/></g><path d="M360 726a6 6 0 0 1 6-6h188a6 6 0 0 1 6 6v28a6 6 0 0 1-6 6H366a6 6 0 0 1-6-6z" stroke="#3a414a" fill="#fff0f0"/><g><use xlink:href="#p" transform="matrix(1,0,0,1,372,732) translate(38.24691358024692 17.77777777777778)"/><use xlink:href="#r" transform="matrix(1,0,0,1,372,732) translate(107.25925925925927 17.77777777777778)"/></g><path d="M160 806a6 6 0 0 1 6-6h148a6 6 0 0 1 6 6v108a6 6 0 0 1-6 6H166a6 6 0 0 1-6-6z" stroke="#3a414a" fill="#fff"/><g><use xlink:href="#h" transform="matrix(1,0,0,1,172,812) translate(14.913580246913583 53.77777777777778)"/></g><path d="M360 806a6 6 0 0 1 6-6h188a6 6 0 0 1 6 6v28a6 6 0 0 1-6 6H366a6 6 0 0 1-6-6z" stroke="#3a414a" fill="#fff0f0"/><g><use xlink:href="#p" transform="matrix(1,0,0,1,372.00000000000006,812) translate(47.32098765432099 17.77777777777778)"/><use xlink:href="#q" transform="matrix(1,0,0,1,372.00000000000006,812) translate(116.33333333333333 17.77777777777778)"/></g><path d="M360 846a6 6 0 0 1 6-6h188a6 6 0 0 1 6 6v28a6 6 0 0 1-6 6H366a6 6 0 0 1-6-6z" stroke="#3a414a" fill="#edf5ff"/><g><use xlink:href="#i" transform="matrix(1,0,0,1,372.00000000000006,852) translate(33.74074074074074 17.77777777777778)"/><use xlink:href="#l" transform="matrix(1,0,0,1,372.00000000000006,852) translate(92.87654320987654 17.77777777777778)"/><use xlink:href="#m" transform="matrix(1,0,0,1,372.00000000000006,852) translate(123.74074074074073 17.77777777777778)"/></g><path d="M360 886a6 6 0 0 1 6-6h188a6 6 0 0 1 6 6v28a6 6 0 0 1-6 6H366a6 6 0 0 1-6-6z" stroke="#3a414a" fill="#fff0f0"/><g><use xlink:href="#p" transform="matrix(1,0,0,1,372.00000000000006,892) translate(38.24691358024692 17.77777777777778)"/><use xlink:href="#r" transform="matrix(1,0,0,1,372.00000000000006,892) translate(107.25925925925927 17.77777777777778)"/></g><defs><path d="M182 0l-62-99L58 0H3l86-130-79-118h55l55 88 55-88h55l-75 118L237 0h-55" id="s"/><use transform="matrix(0.06172839506172839,0,0,0.06172839506172839,0,0)" xlink:href="#s" id="a"/><path d="M146-102V0H94v-102L6-248h54l60 105 60-105h54" id="t"/><use transform="matrix(0.06172839506172839,0,0,0.06172839506172839,0,0)" xlink:href="#t" id="b"/><path d="M210 0H11v-37l134-170H24v-41h178v36L68-41h142V0" id="u"/><use transform="matrix(0.06172839506172839,0,0,0.06172839506172839,0,0)" xlink:href="#u" id="c"/><path d="M27 0v-27h64v-190l-56 39v-29l58-41h29v221h61V0H27" id="v"/><use transform="matrix(0.06172839506172839,0,0,0.06172839506172839,0,0)" xlink:href="#v" id="d"/><path d="M101-251c82-7 93 87 43 132L82-64C71-53 59-42 53-27h129V0H18c2-99 128-94 128-182 0-28-16-43-45-43s-46 15-49 41l-32-3c6-41 34-60 81-64" id="w"/><use transform="matrix(0.06172839506172839,0,0,0.06172839506172839,0,0)" xlink:href="#w" id="e"/><path d="M109-170H84l-4-78h32zm-65 0H19l-4-78h33" id="x"/><path d="M205 0l-28-72H64L36 0H1l101-248h38L239 0h-34zm-38-99l-47-123c-12 45-31 82-46 123h93" id="y"/><g id="f"><use transform="matrix(0.06172839506172839,0,0,0.06172839506172839,0,0)" xlink:href="#x"/><use transform="matrix(0.06172839506172839,0,0,0.06172839506172839,7.8395061728395055,0)" xlink:href="#y"/><use transform="matrix(0.06172839506172839,0,0,0.06172839506172839,22.65432098765432,0)" xlink:href="#x"/></g><path d="M54-142c48-35 137-8 131 61C196 18 31 33 14-55l32-4c7 23 22 37 52 37 35-1 51-22 54-58 4-55-73-65-99-34H22l8-134h141v27H59" id="z"/><use transform="matrix(0.06172839506172839,0,0,0.06172839506172839,0,0)" xlink:href="#z" id="g"/><path fill="#3a414a" d="M30 0v-248h187v28H63v79h144v27H63v87h162V0H30" id="A"/><path fill="#3a414a" d="M141 0L90-78 38 0H4l68-98-65-92h35l48 74 47-74h35l-64 92 68 98h-35" id="B"/><path fill="#3a414a" d="M100-194c63 0 86 42 84 106H49c0 40 14 67 53 68 26 1 43-12 49-29l28 8c-11 28-37 45-77 45C44 4 14-33 15-96c1-61 26-98 85-98zm52 81c6-60-76-77-97-28-3 7-6 17-6 28h103" id="C"/><path fill="#3a414a" d="M96-169c-40 0-48 33-48 73s9 75 48 75c24 0 41-14 43-38l32 2c-6 37-31 61-74 61-59 0-76-41-82-99-10-93 101-131 147-64 4 7 5 14 7 22l-32 3c-4-21-16-35-41-35" id="D"/><path fill="#3a414a" d="M160-131c35 5 61 23 61 61C221 17 115-2 30 0v-248c76 3 177-17 177 60 0 33-19 50-47 57zm-97-11c50-1 110 9 110-42 0-47-63-36-110-37v79zm0 115c55-2 124 14 124-45 0-56-70-42-124-44v89" id="E"/><path fill="#3a414a" d="M141-36C126-15 110 5 73 4 37 3 15-17 15-53c-1-64 63-63 125-63 3-35-9-54-41-54-24 1-41 7-42 31l-33-3c5-37 33-52 76-52 45 0 72 20 72 64v82c-1 20 7 32 28 27v20c-31 9-61-2-59-35zM48-53c0 20 12 33 32 33 41-3 63-29 60-74-43 2-92-5-92 41" id="F"/><path fill="#3a414a" d="M59-47c-2 24 18 29 38 22v24C64 9 27 4 27-40v-127H5v-23h24l9-43h21v43h35v23H59v120" id="G"/><path fill="#3a414a" d="M106-169C34-169 62-67 57 0H25v-261h32l-1 103c12-21 28-36 61-36 89 0 53 116 60 194h-32v-121c2-32-8-49-39-48" id="H"/><g id="h"><use transform="matrix(0.06172839506172839,0,0,0.06172839506172839,0,0)" xlink:href="#A"/><use transform="matrix(0.06172839506172839,0,0,0.06172839506172839,14.814814814814813,0)" xlink:href="#B"/><use transform="matrix(0.06172839506172839,0,0,0.06172839506172839,25.925925925925924,0)" xlink:href="#C"/><use transform="matrix(0.06172839506172839,0,0,0.06172839506172839,38.2716049382716,0)" xlink:href="#D"/><use transform="matrix(0.06172839506172839,0,0,0.06172839506172839,49.38271604938271,0)" xlink:href="#E"/><use transform="matrix(0.06172839506172839,0,0,0.06172839506172839,64.19753086419752,0)" xlink:href="#F"/><use transform="matrix(0.06172839506172839,0,0,0.06172839506172839,76.5432098765432,0)" xlink:href="#G"/><use transform="matrix(0.06172839506172839,0,0,0.06172839506172839,82.71604938271604,0)" xlink:href="#D"/><use transform="matrix(0.06172839506172839,0,0,0.06172839506172839,93.82716049382715,0)" xlink:href="#H"/></g><path fill="#3a414a" d="M205 0l-28-72H64L36 0H1l101-248h38L239 0h-34zm-38-99l-47-123c-12 45-31 82-46 123h93" id="I"/><path fill="#3a414a" d="M114-163C36-179 61-72 57 0H25l-1-190h30c1 12-1 29 2 39 6-27 23-49 58-41v29" id="J"/><path fill="#3a414a" d="M179-190L93 31C79 59 56 82 12 73V49c39 6 53-20 64-50L1-190h34L92-34l54-156h33" id="K"/><g id="i"><use transform="matrix(0.06172839506172839,0,0,0.06172839506172839,0,0)" xlink:href="#I"/><use transform="matrix(0.06172839506172839,0,0,0.06172839506172839,14.814814814814813,0)" xlink:href="#J"/><use transform="matrix(0.06172839506172839,0,0,0.06172839506172839,22.160493827160494,0)" xlink:href="#J"/><use transform="matrix(0.06172839506172839,0,0,0.06172839506172839,29.50617283950617,0)" xlink:href="#F"/><use transform="matrix(0.06172839506172839,0,0,0.06172839506172839,41.85185185185185,0)" xlink:href="#K"/></g><path fill="#3a414a" d="M26 75v-336h71v23H56V52h41v23H26" id="L"/><path fill="#3a414a" d="M27 0v-27h64v-190l-56 39v-29l58-41h29v221h61V0H27" id="M"/><path fill="#3a414a" d="M68-38c1 34 0 65-14 84H32c9-13 17-26 17-46H33v-38h35" id="N"/><g id="j"><use transform="matrix(0.06172839506172839,0,0,0.06172839506172839,0,0)" xlink:href="#L"/><use transform="matrix(0.06172839506172839,0,0,0.06172839506172839,6.172839506172839,0)" xlink:href="#M"/><use transform="matrix(0.06172839506172839,0,0,0.06172839506172839,18.51851851851852,0)" xlink:href="#N"/></g><path fill="#3a414a" d="M3 75V52h41v-290H3v-23h71V75H3" id="O"/><g id="k"><use transform="matrix(0.06172839506172839,0,0,0.06172839506172839,0,0)" xlink:href="#M"/><use transform="matrix(0.06172839506172839,0,0,0.06172839506172839,12.345679012345679,0)" xlink:href="#O"/></g><path fill="#3a414a" d="M101-251c82-7 93 87 43 132L82-64C71-53 59-42 53-27h129V0H18c2-99 128-94 128-182 0-28-16-43-45-43s-46 15-49 41l-32-3c6-41 34-60 81-64" id="P"/><g id="l"><use transform="matrix(0.06172839506172839,0,0,0.06172839506172839,0,0)" xlink:href="#L"/><use transform="matrix(0.06172839506172839,0,0,0.06172839506172839,6.172839506172839,0)" xlink:href="#P"/><use transform="matrix(0.06172839506172839,0,0,0.06172839506172839,18.51851851851852,0)" xlink:href="#N"/></g><path fill="#3a414a" d="M54-142c48-35 137-8 131 61C196 18 31 33 14-55l32-4c7 23 22 37 52 37 35-1 51-22 54-58 4-55-73-65-99-34H22l8-134h141v27H59" id="Q"/><g id="m"><use transform="matrix(0.06172839506172839,0,0,0.06172839506172839,0,0)" xlink:href="#Q"/><use transform="matrix(0.06172839506172839,0,0,0.06172839506172839,12.345679012345679,0)" xlink:href="#O"/></g><path fill="#3a414a" d="M109-170H84l-4-78h32zm-65 0H19l-4-78h33" id="R"/><g id="n"><use transform="matrix(0.06172839506172839,0,0,0.06172839506172839,0,0)" xlink:href="#L"/><use transform="matrix(0.06172839506172839,0,0,0.06172839506172839,6.172839506172839,0)" xlink:href="#R"/><use transform="matrix(0.06172839506172839,0,0,0.06172839506172839,14.012345679012345,0)" xlink:href="#I"/><use transform="matrix(0.06172839506172839,0,0,0.06172839506172839,28.827160493827158,0)" xlink:href="#R"/><use transform="matrix(0.06172839506172839,0,0,0.06172839506172839,36.666666666666664,0)" xlink:href="#N"/></g><g id="o"><use transform="matrix(0.06172839506172839,0,0,0.06172839506172839,0,0)" xlink:href="#R"/><use transform="matrix(0.06172839506172839,0,0,0.06172839506172839,7.8395061728395055,0)" xlink:href="#I"/><use transform="matrix(0.06172839506172839,0,0,0.06172839506172839,22.65432098765432,0)" xlink:href="#R"/><use transform="matrix(0.06172839506172839,0,0,0.06172839506172839,30.493827160493826,0)" xlink:href="#O"/></g><path fill="#3a414a" d="M185-189c-5-48-123-54-124 2 14 75 158 14 163 119 3 78-121 87-175 55-17-10-28-26-33-46l33-7c5 56 141 63 141-1 0-78-155-14-162-118-5-82 145-84 179-34 5 7 8 16 11 25" id="S"/><path fill="#3a414a" d="M24 0v-261h32V0H24" id="T"/><g id="p"><use transform="matrix(0.06172839506172839,0,0,0.06172839506172839,0,0)" xlink:href="#S"/><use transform="matrix(0.06172839506172839,0,0,0.06172839506172839,14.814814814814813,0)" xlink:href="#D"/><use transform="matrix(0.06172839506172839,0,0,0.06172839506172839,25.925925925925924,0)" xlink:href="#F"/><use transform="matrix(0.06172839506172839,0,0,0.06172839506172839,38.2716049382716,0)" xlink:href="#T"/><use transform="matrix(0.06172839506172839,0,0,0.06172839506172839,43.148148148148145,0)" xlink:href="#F"/><use transform="matrix(0.06172839506172839,0,0,0.06172839506172839,55.49382716049382,0)" xlink:href="#J"/></g><use transform="matrix(0.06172839506172839,0,0,0.06172839506172839,0,0)" xlink:href="#M" id="q"/><g id="r"><use transform="matrix(0.06172839506172839,0,0,0.06172839506172839,0,0)" xlink:href="#R"/><use transform="matrix(0.06172839506172839,0,0,0.06172839506172839,7.8395061728395055,0)" xlink:href="#I"/><use transform="matrix(0.06172839506172839,0,0,0.06172839506172839,22.65432098765432,0)" xlink:href="#R"/></g></defs></g></svg>