<svg xmlns="http://www.w3.org/2000/svg" xmlns:xlink="http://www.w3.org/1999/xlink" xmlns:lucid="lucid" width="900" height="736.67"><g transform="translate(-100 -80)" lucid:page-tab-id="0_0"><path d="M0 0h1760v1360H0z" fill="#fff"/><path d="M180 286a6 6 0 0 1 6-6h188a6 6 0 0 1 6 6v65a6 6 0 0 1-6 6H186a6 6 0 0 1-6-6z" fill="#fff"/><path d="M180 286a6 6 0 0 1 6-6h188a6 6 0 0 1 6 6v65a6 6 0 0 1-6 6H186a6 6 0 0 1-6-6zM180 320h200" stroke="#3a414a" fill="none"/><use xlink:href="#a" transform="matrix(1,0,0,1,190,280) translate(64.69135802469137 24.444444444444443)"/><use xlink:href="#b" transform="matrix(1,0,0,1,185,322.5) translate(0 20.444444444444443)"/><path d="M460 286a6 6 0 0 1 6-6h188a6 6 0 0 1 6 6v56a6 6 0 0 1-6 6H466a6 6 0 0 1-6-6z" fill="#fff"/><path d="M460 286a6 6 0 0 1 6-6h188a6 6 0 0 1 6 6v56a6 6 0 0 1-6 6H466a6 6 0 0 1-6-6zM460 320h200" stroke="#3a414a" fill="none"/><use xlink:href="#c" transform="matrix(1,0,0,1,470,280) translate(65.4320987654321 24.444444444444443)"/><path d="M740 286a6 6 0 0 1 6-6h188a6 6 0 0 1 6 6v56a6 6 0 0 1-6 6H746a6 6 0 0 1-6-6z" fill="#fff"/><path d="M740 286a6 6 0 0 1 6-6h188a6 6 0 0 1 6 6v56a6 6 0 0 1-6 6H746a6 6 0 0 1-6-6zM740 320h200" stroke="#3a414a" fill="none"/><use xlink:href="#d" transform="matrix(1,0,0,1,750,280) translate(55.49382716049383 24.444444444444443)"/><path d="M381 300.5h38.75a.25.25 0 0 0 .25-.25.25.25 0 0 1 .25-.25h22.87" stroke="#3a414a" fill="none"/><path d="M381 301h-.5v-1h.5z" stroke="#3a414a" stroke-width=".05" fill="#3a414a"/><path d="M457.88 300l-14.26 4.63v-9.26z" stroke="#3a414a" fill="#3a414a"/><path d="M661 300H723.12" stroke="#3a414a" fill="none"/><path d="M661 300.5h-.5v-1h.5z" stroke="#3a414a" stroke-width=".05" fill="#3a414a"/><path d="M737.88 300l-14.26 4.63v-9.26z" stroke="#3a414a" fill="#3a414a"/><path d="M480 386a6 6 0 0 1 6-6h148a6 6 0 0 1 6 6v56a6 6 0 0 1-6 6H486a6 6 0 0 1-6-6z" stroke="#3a414a" fill="#f2f3f5"/><use xlink:href="#e" transform="matrix(1,0,0,1,492,392) translate(11.271604938271615 26.02777777777778)"/><use xlink:href="#f" transform="matrix(1,0,0,1,492,392) translate(35.90123456790124 26.02777777777778)"/><use xlink:href="#g" transform="matrix(1,0,0,1,492,392) translate(55.037037037037045 26.02777777777778)"/><use xlink:href="#h" transform="matrix(1,0,0,1,492,392) translate(80.90123456790124 26.02777777777778)"/><use xlink:href="#i" transform="matrix(1,0,0,1,492,392) translate(100.03703703703704 26.02777777777778)"/><path d="M540 486a6 6 0 0 1 6-6h28a6 6 0 0 1 6 6v40a6 6 0 0 1-6 6h-28a6 6 0 0 1-6-6zM580 566a6 6 0 0 1 6-6h28a6 6 0 0 1 6 6v40a6 6 0 0 1-6 6h-28a6 6 0 0 1-6-6zM500 566a6 6 0 0 1 6-6h28a6 6 0 0 1 6 6v40a6 6 0 0 1-6 6h-28a6 6 0 0 1-6-6zM540 646a6 6 0 0 1 6-6h28a6 6 0 0 1 6 6v40a6 6 0 0 1-6 6h-28a6 6 0 0 1-6-6zM460 646a6 6 0 0 1 6-6h28a6 6 0 0 1 6 6v40a6 6 0 0 1-6 6h-28a6 6 0 0 1-6-6z" stroke="#3a414a" fill="#fff"/><path d="M559.97 533l-.02.32-.15.8-.25.76-.37.8-.53.82-.75.92-1.12 1.05-1.8 1.3-3.25 1.8-20.07 8" stroke="#3a414a" stroke-linejoin="round" fill="none"/><path d="M560.47 533.04l-1-.06.03-.48h1z" stroke="#3a414a" stroke-width=".05" fill="#3a414a"/><path d="M521.23 558.45l7.86-12.78 6 7.06z" stroke="#3a414a" fill="#3a414a"/><path d="M560.03 533l.02.32.15.8.25.76.37.8.53.82.75.92 1.12 1.05 1.8 1.3 3.25 1.8 20.07 8" stroke="#3a414a" stroke-linejoin="round" fill="none"/><path d="M560.53 532.98l-1 .06-.03-.54h1z" stroke="#3a414a" stroke-width=".05" fill="#3a414a"/><path d="M598.77 558.45l-13.87-5.72 6-7.06z" stroke="#3a414a" fill="#3a414a"/><path d="M519.97 613l-.02.32-.15.8-.25.76-.37.8-.53.82-.75.92-1.12 1.05-1.8 1.3-3.25 1.8-20.07 8" stroke="#3a414a" stroke-linejoin="round" fill="none"/><path d="M520.47 613.04l-1-.06.03-.48h1z" stroke="#3a414a" stroke-width=".05" fill="#3a414a"/><path d="M481.23 638.45l7.86-12.78 6 7.06z" stroke="#3a414a" fill="#3a414a"/><path d="M525.7 613l.13 1.24.44 1.57.78 1.57 1.3 1.68 2.34 2.1 11.5 7.03" stroke="#3a414a" stroke-linejoin="round" fill="none"/><path d="M526.2 612.97l-1 .1-.04-.57h1z" stroke="#3a414a" stroke-width=".05" fill="#3a414a"/><path d="M551.57 638.3l-13.1-7.3 6.8-6.3z" stroke="#3a414a" fill="#3a414a"/><path d="M760 386a6 6 0 0 1 6-6h148a6 6 0 0 1 6 6v56a6 6 0 0 1-6 6H766a6 6 0 0 1-6-6z" stroke="#3a414a" fill="#f2f3f5"/><use xlink:href="#j" transform="matrix(1,0,0,1,772,392) translate(43.61728395061729 26.02777777777778)"/><use xlink:href="#f" transform="matrix(1,0,0,1,772,392) translate(60.90123456790124 26.02777777777778)"/><use xlink:href="#k" transform="matrix(1,0,0,1,772,392) translate(80.03703703703704 26.02777777777778)"/><path d="M820 486a6 6 0 0 1 6-6h28a6 6 0 0 1 6 6v40a6 6 0 0 1-6 6h-28a6 6 0 0 1-6-6zM860 566a6 6 0 0 1 6-6h28a6 6 0 0 1 6 6v40a6 6 0 0 1-6 6h-28a6 6 0 0 1-6-6zM780 566a6 6 0 0 1 6-6h28a6 6 0 0 1 6 6v40a6 6 0 0 1-6 6h-28a6 6 0 0 1-6-6z" stroke="#3a414a" fill="#fff"/><path d="M839.97 533l-.02.32-.15.8-.25.76-.37.8-.53.82-.75.92-1.12 1.05-1.8 1.3-3.25 1.8-20.07 8" stroke="#3a414a" stroke-linejoin="round" fill="none"/><path d="M840.47 533.04l-1-.06.03-.48h1z" stroke="#3a414a" stroke-width=".05" fill="#3a414a"/><path d="M801.23 558.45l7.86-12.78 6 7.06z" stroke="#3a414a" fill="#3a414a"/><path d="M840.03 533l.02.32.15.8.25.76.37.8.53.82.75.92 1.12 1.05 1.8 1.3 3.25 1.8 20.07 8" stroke="#3a414a" stroke-linejoin="round" fill="none"/><path d="M840.53 532.98l-1 .06-.03-.54h1z" stroke="#3a414a" stroke-width=".05" fill="#3a414a"/><path d="M878.77 558.45l-13.87-5.72 6-7.06z" stroke="#3a414a" fill="#3a414a"/><path d="M120 686a6 6 0 0 1 6-6h848a6 6 0 0 1 6 6v104.67a6 6 0 0 1-6 6H126a6 6 0 0 1-6-6z" stroke="#000" stroke-opacity="0" fill="#fff" fill-opacity="0"/><use xlink:href="#l" transform="matrix(1,0,0,1,125,685) translate(26.512345679012412 57.90277777777778)"/><use xlink:href="#m" transform="matrix(1,0,0,1,125,685) translate(59.84567901234575 57.90277777777778)"/><use xlink:href="#n" transform="matrix(1,0,0,1,125,685) translate(161.0185185185186 57.90277777777778)"/><use xlink:href="#o" transform="matrix(1,0,0,1,125,685) translate(209.10493827160502 57.90277777777778)"/><use xlink:href="#p" transform="matrix(1,0,0,1,125,685) translate(231.26543209876553 57.90277777777778)"/><use xlink:href="#q" transform="matrix(1,0,0,1,125,685) translate(249.78395061728406 57.90277777777778)"/><use xlink:href="#r" transform="matrix(1,0,0,1,125,685) translate(312.6851851851853 57.90277777777778)"/><use xlink:href="#s" transform="matrix(1,0,0,1,125,685) translate(337.3765432098766 57.90277777777778)"/><use xlink:href="#t" transform="matrix(1,0,0,1,125,685) translate(404.04320987654324 57.90277777777778)"/><use xlink:href="#u" transform="matrix(1,0,0,1,125,685) translate(447.2530864197531 57.90277777777778)"/><use xlink:href="#s" transform="matrix(1,0,0,1,125,685) translate(507.74691358024694 57.90277777777778)"/><use xlink:href="#v" transform="matrix(1,0,0,1,125,685) translate(574.4135802469136 57.90277777777778)"/><use xlink:href="#w" transform="matrix(1,0,0,1,125,685) translate(622.5 57.90277777777778)"/><use xlink:href="#x" transform="matrix(1,0,0,1,125,685) translate(674.2283950617284 57.90277777777778)"/><use xlink:href="#y" transform="matrix(1,0,0,1,125,685) translate(698.9197530864196 57.90277777777778)"/><path d="M200 100h80v40h-80zM280 100h80v40h-80zM200 140h80v40h-80zM280 140h80v40h-80zM200 180h80v40h-80zM280 180h80v40h-80zM200 220h80v40h-80zM280 220h80v40h-80z" fill="#fff"/><path d="M200 100v40M280 100v40M360 100v40M200 140v40M280 140v40M360 140v40M200 180v40M280 180v40M360 180v40M200 220v40M280 220v40M360 220v40M200 100h80M280 100h80M200 140h80M280 140h80M200 180h80M280 180h80M200 220h80M200 260h80M280 220h80M280 260h80" stroke="#3a414a" fill="none"/><use xlink:href="#z" transform="matrix(1,0,0,1,205,105) translate(29.444444444444443 19.444444444444443)"/><use xlink:href="#A" transform="matrix(1,0,0,1,285,105) translate(29.444444444444443 19.444444444444443)"/><use xlink:href="#B" transform="matrix(1,0,0,1,205,145) translate(28.82716049382716 19.444444444444443)"/><use xlink:href="#C" transform="matrix(1,0,0,1,285,145) translate(28.82716049382716 19.444444444444443)"/><use xlink:href="#D" transform="matrix(1,0,0,1,205,185) translate(22.654320987654323 19.444444444444443)"/><use xlink:href="#E" transform="matrix(1,0,0,1,285,185) translate(28.82716049382716 19.444444444444443)"/><use xlink:href="#F" transform="matrix(1,0,0,1,205,225) translate(16.48148148148148 19.444444444444443)"/><use xlink:href="#G" transform="matrix(1,0,0,1,285,225) translate(28.82716049382716 19.444444444444443)"/><path d="M480 100h80v40h-80zM560 100h80v40h-80z" fill="#fff"/><path d="M480 140h80v40h-80zM560 140h80v40h-80z" fill="#fff0f0"/><path d="M480 180h80v40h-80zM560 180h80v40h-80zM480 220h80v40h-80zM560 220h80v40h-80z" fill="#fff"/><path d="M480 100v40M560 100v40M640 100v40M480 140v40M560 140v40M640 140v40M480 180v40M560 180v40M640 180v40M480 220v40M560 220v40M640 220v40M480 100h80M560 100h80M480 140h80M560 140h80M480 180h80M560 180h80M480 220h80M480 260h80M560 220h80M560 260h80" stroke="#3a414a" fill="none"/><use xlink:href="#z" transform="matrix(1,0,0,1,485,105) translate(29.444444444444443 19.444444444444443)"/><use xlink:href="#A" transform="matrix(1,0,0,1,565,105) translate(29.444444444444443 19.444444444444443)"/><use xlink:href="#B" transform="matrix(1,0,0,1,485,145) translate(28.82716049382716 19.444444444444443)"/><use xlink:href="#C" transform="matrix(1,0,0,1,565,145) translate(28.82716049382716 19.444444444444443)"/><use xlink:href="#H" transform="matrix(1,0,0,1,485,185) translate(22.654320987654323 19.444444444444443)"/><use xlink:href="#E" transform="matrix(1,0,0,1,565,185) translate(28.82716049382716 19.444444444444443)"/><use xlink:href="#F" transform="matrix(1,0,0,1,485,225) translate(16.48148148148148 19.444444444444443)"/><use xlink:href="#G" transform="matrix(1,0,0,1,565,225) translate(28.82716049382716 19.444444444444443)"/><path d="M720 120h80v40h-80zM800 120h80v40h-80z" fill="#fff"/><path d="M880 120h80v40h-80z" fill="#e3fae3"/><path d="M720 160h80v40h-80zM800 160h80v40h-80z" fill="#fff"/><path d="M880 160h80v40h-80z" fill="#e3fae3"/><path d="M720 200h80v40h-80zM800 200h80v40h-80z" fill="#fff"/><path d="M880 200h80v40h-80z" fill="#e3fae3"/><path d="M720 120v40M800 120v40M880 120v40M960 120v40M720 160v40M800 160v40M880 160v40M960 160v40M720 200v40M800 200v40M880 200v40M960 200v40M720 120h80M800 120h80M880 120h80M720 160h80M800 160h80M880 160h80M720 200h80M720 240h80M800 200h80M800 240h80M880 200h80M880 240h80" stroke="#3a414a" fill="none"/><g><use xlink:href="#z" transform="matrix(1,0,0,1,725,125) translate(29.444444444444443 19.444444444444443)"/></g><g><use xlink:href="#A" transform="matrix(1,0,0,1,805,125) translate(29.444444444444443 19.444444444444443)"/></g><g><use xlink:href="#I" transform="matrix(1,0,0,1,885,125) translate(10.617283950617288 19.444444444444443)"/><use xlink:href="#J" transform="matrix(1,0,0,1,885,125) translate(27.901234567901238 19.444444444444443)"/><use xlink:href="#K" transform="matrix(1,0,0,1,885,125) translate(47.03703703703704 19.444444444444443)"/></g><g><use xlink:href="#H" transform="matrix(1,0,0,1,725,165) translate(22.654320987654323 19.444444444444443)"/></g><g><use xlink:href="#E" transform="matrix(1,0,0,1,805,165) translate(28.82716049382716 19.444444444444443)"/></g><g><use xlink:href="#L" transform="matrix(1,0,0,1,885,165) translate(28.82716049382716 19.444444444444443)"/></g><g><use xlink:href="#F" transform="matrix(1,0,0,1,725,205) translate(16.48148148148148 19.444444444444443)"/></g><g><use xlink:href="#G" transform="matrix(1,0,0,1,805,205) translate(28.82716049382716 19.444444444444443)"/></g><g><use xlink:href="#B" transform="matrix(1,0,0,1,885,205) translate(28.82716049382716 19.444444444444443)"/></g><defs><path fill="#3a414a" d="M185-189c-5-48-123-54-124 2 14 75 158 14 163 119 3 78-121 87-175 55-17-10-28-26-33-46l33-7c5 56 141 63 141-1 0-78-155-14-162-118-5-82 145-84 179-34 5 7 8 16 11 25" id="M"/><path fill="#3a414a" d="M96-169c-40 0-48 33-48 73s9 75 48 75c24 0 41-14 43-38l32 2c-6 37-31 61-74 61-59 0-76-41-82-99-10-93 101-131 147-64 4 7 5 14 7 22l-32 3c-4-21-16-35-41-35" id="N"/><path fill="#3a414a" d="M141-36C126-15 110 5 73 4 37 3 15-17 15-53c-1-64 63-63 125-63 3-35-9-54-41-54-24 1-41 7-42 31l-33-3c5-37 33-52 76-52 45 0 72 20 72 64v82c-1 20 7 32 28 27v20c-31 9-61-2-59-35zM48-53c0 20 12 33 32 33 41-3 63-29 60-74-43 2-92-5-92 41" id="O"/><path fill="#3a414a" d="M117-194c89-4 53 116 60 194h-32v-121c0-31-8-49-39-48C34-167 62-67 57 0H25l-1-190h30c1 10-1 24 2 32 11-22 29-35 61-36" id="P"/><g id="a"><use transform="matrix(0.06172839506172839,0,0,0.06172839506172839,0,0)" xlink:href="#M"/><use transform="matrix(0.06172839506172839,0,0,0.06172839506172839,14.814814814814813,0)" xlink:href="#N"/><use transform="matrix(0.06172839506172839,0,0,0.06172839506172839,25.925925925925924,0)" xlink:href="#O"/><use transform="matrix(0.06172839506172839,0,0,0.06172839506172839,38.2716049382716,0)" xlink:href="#P"/></g><path fill="#3a414a" d="M210-169c-67 3-38 105-44 169h-31v-121c0-29-5-50-35-48C34-165 62-65 56 0H25l-1-190h30c1 10-1 24 2 32 10-44 99-50 107 0 11-21 27-35 58-36 85-2 47 119 55 194h-31v-121c0-29-5-49-35-48" id="Q"/><path fill="#3a414a" d="M179-190L93 31C79 59 56 82 12 73V49c39 6 53-20 64-50L1-190h34L92-34l54-156h33" id="R"/><path fill="#3a414a" d="M-5 72V49h209v23H-5" id="S"/><path fill="#3a414a" d="M85-194c31 0 48 13 60 33l-1-100h32l1 261h-30c-2-10 0-23-3-31C134-8 116 4 85 4 32 4 16-35 15-94c0-66 23-100 70-100zm9 24c-40 0-46 34-46 75 0 40 6 74 45 74 42 0 51-32 51-76 0-42-9-74-50-73" id="T"/><path fill="#3a414a" d="M59-47c-2 24 18 29 38 22v24C64 9 27 4 27-40v-127H5v-23h24l9-43h21v43h35v23H59v120" id="U"/><path fill="#3a414a" d="M135-143c-3-34-86-38-87 0 15 53 115 12 119 90S17 21 10-45l28-5c4 36 97 45 98 0-10-56-113-15-118-90-4-57 82-63 122-42 12 7 21 19 24 35" id="V"/><path fill="#3a414a" d="M100-194c63 0 86 42 84 106H49c0 40 14 67 53 68 26 1 43-12 49-29l28 8c-11 28-37 45-77 45C44 4 14-33 15-96c1-61 26-98 85-98zm52 81c6-60-76-77-97-28-3 7-6 17-6 28h103" id="W"/><g id="b"><use transform="matrix(0.06172839506172839,0,0,0.06172839506172839,0,0)" xlink:href="#Q"/><use transform="matrix(0.06172839506172839,0,0,0.06172839506172839,18.456790123456788,0)" xlink:href="#R"/><use transform="matrix(0.06172839506172839,0,0,0.06172839506172839,29.5679012345679,0)" xlink:href="#S"/><use transform="matrix(0.06172839506172839,0,0,0.06172839506172839,41.913580246913575,0)" xlink:href="#T"/><use transform="matrix(0.06172839506172839,0,0,0.06172839506172839,54.25925925925925,0)" xlink:href="#O"/><use transform="matrix(0.06172839506172839,0,0,0.06172839506172839,66.60493827160494,0)" xlink:href="#U"/><use transform="matrix(0.06172839506172839,0,0,0.06172839506172839,72.77777777777777,0)" xlink:href="#O"/><use transform="matrix(0.06172839506172839,0,0,0.06172839506172839,85.12345679012346,0)" xlink:href="#V"/><use transform="matrix(0.06172839506172839,0,0,0.06172839506172839,96.23456790123457,0)" xlink:href="#W"/><use transform="matrix(0.06172839506172839,0,0,0.06172839506172839,108.58024691358025,0)" xlink:href="#U"/></g><path fill="#3a414a" d="M63-220v92h138v28H63V0H30v-248h175v28H63" id="X"/><path fill="#3a414a" d="M24-231v-30h32v30H24zM24 0v-190h32V0H24" id="Y"/><path fill="#3a414a" d="M24 0v-261h32V0H24" id="Z"/><path fill="#3a414a" d="M114-163C36-179 61-72 57 0H25l-1-190h30c1 12-1 29 2 39 6-27 23-49 58-41v29" id="aa"/><g id="c"><use transform="matrix(0.06172839506172839,0,0,0.06172839506172839,0,0)" xlink:href="#X"/><use transform="matrix(0.06172839506172839,0,0,0.06172839506172839,13.518518518518517,0)" xlink:href="#Y"/><use transform="matrix(0.06172839506172839,0,0,0.06172839506172839,18.39506172839506,0)" xlink:href="#Z"/><use transform="matrix(0.06172839506172839,0,0,0.06172839506172839,23.2716049382716,0)" xlink:href="#U"/><use transform="matrix(0.06172839506172839,0,0,0.06172839506172839,29.44444444444444,0)" xlink:href="#W"/><use transform="matrix(0.06172839506172839,0,0,0.06172839506172839,41.79012345679012,0)" xlink:href="#aa"/></g><path fill="#3a414a" d="M30-248c87 1 191-15 191 75 0 78-77 80-158 76V0H30v-248zm33 125c57 0 124 11 124-50 0-59-68-47-124-48v98" id="ab"/><path fill="#3a414a" d="M100-194c62-1 85 37 85 99 1 63-27 99-86 99S16-35 15-95c0-66 28-99 85-99zM99-20c44 1 53-31 53-75 0-43-8-75-51-75s-53 32-53 75 10 74 51 75" id="ac"/><path fill="#3a414a" d="M24-231v-30h32v30H24zM-9 49c24 4 33-6 33-30v-209h32V24c2 40-23 58-65 49V49" id="ad"/><g id="d"><use transform="matrix(0.06172839506172839,0,0,0.06172839506172839,0,0)" xlink:href="#ab"/><use transform="matrix(0.06172839506172839,0,0,0.06172839506172839,14.814814814814813,0)" xlink:href="#aa"/><use transform="matrix(0.06172839506172839,0,0,0.06172839506172839,22.160493827160494,0)" xlink:href="#ac"/><use transform="matrix(0.06172839506172839,0,0,0.06172839506172839,34.50617283950617,0)" xlink:href="#ad"/><use transform="matrix(0.06172839506172839,0,0,0.06172839506172839,39.382716049382715,0)" xlink:href="#W"/><use transform="matrix(0.06172839506172839,0,0,0.06172839506172839,51.72839506172839,0)" xlink:href="#N"/><use transform="matrix(0.06172839506172839,0,0,0.06172839506172839,62.839506172839506,0)" xlink:href="#U"/></g><path fill="#3a414a" d="M87 75C49 33 22-17 22-94c0-76 28-126 65-167h31c-38 41-64 92-64 168S80 34 118 75H87" id="ae"/><path fill="#3a414a" d="M141 0L90-78 38 0H4l68-98-65-92h35l48 74 47-74h35l-64 92 68 98h-35" id="af"/><g id="e"><use transform="matrix(0.06172839506172839,0,0,0.06172839506172839,0,0)" xlink:href="#ae"/><use transform="matrix(0.06172839506172839,0,0,0.06172839506172839,7.345679012345679,0)" xlink:href="#af"/></g><path fill="#3a414a" d="M118-107v75H92v-75H18v-26h74v-75h26v75h74v26h-74" id="ag"/><use transform="matrix(0.06172839506172839,0,0,0.06172839506172839,0,0)" xlink:href="#ag" id="f"/><path fill="#3a414a" d="M155-56V0h-30v-56H8v-25l114-167h33v167h35v25h-35zm-30-156c-27 46-58 90-88 131h88v-131" id="ah"/><path fill="#3a414a" d="M33-261c38 41 65 92 65 168S71 34 33 75H2C39 34 66-17 66-93S39-220 2-261h31" id="ai"/><g id="g"><use transform="matrix(0.06172839506172839,0,0,0.06172839506172839,0,0)" xlink:href="#ah"/><use transform="matrix(0.06172839506172839,0,0,0.06172839506172839,12.345679012345679,0)" xlink:href="#ai"/></g><path fill="#3a414a" d="M18-100v-36l175-74v27L42-118l151 64v27" id="aj"/><use transform="matrix(0.06172839506172839,0,0,0.06172839506172839,0,0)" xlink:href="#aj" id="h"/><path fill="#3a414a" d="M101-251c82-7 93 87 43 132L82-64C71-53 59-42 53-27h129V0H18c2-99 128-94 128-182 0-28-16-43-45-43s-46 15-49 41l-32-3c6-41 34-60 81-64" id="ak"/><path fill="#3a414a" d="M101-251c68 0 85 55 85 127S166 4 100 4C33 4 14-52 14-124c0-73 17-127 87-127zm-1 229c47 0 54-49 54-102s-4-102-53-102c-51 0-55 48-55 102 0 53 5 102 54 102" id="al"/><g id="i"><use transform="matrix(0.06172839506172839,0,0,0.06172839506172839,0,0)" xlink:href="#ak"/><use transform="matrix(0.06172839506172839,0,0,0.06172839506172839,12.345679012345679,0)" xlink:href="#al"/></g><use transform="matrix(0.06172839506172839,0,0,0.06172839506172839,0,0)" xlink:href="#R" id="j"/><use transform="matrix(0.06172839506172839,0,0,0.06172839506172839,0,0)" xlink:href="#ak" id="k"/><path fill="#3a414a" d="M205 0l-28-72H64L36 0H1l101-248h38L239 0h-34zm-38-99l-47-123c-12 45-31 82-46 123h93" id="am"/><g id="l"><use transform="matrix(0.06172839506172839,0,0,0.06172839506172839,0,0)" xlink:href="#am"/><use transform="matrix(0.06172839506172839,0,0,0.06172839506172839,14.814814814814813,0)" xlink:href="#P"/></g><path fill="#3a414a" d="M84 4C-5 8 30-112 23-190h32v120c0 31 7 50 39 49 72-2 45-101 50-169h31l1 190h-30c-1-10 1-25-2-33-11 22-28 36-60 37" id="an"/><g id="m"><use transform="matrix(0.06172839506172839,0,0,0.06172839506172839,0,0)" xlink:href="#W"/><use transform="matrix(0.06172839506172839,0,0,0.06172839506172839,12.345679012345679,0)" xlink:href="#af"/><use transform="matrix(0.06172839506172839,0,0,0.06172839506172839,23.45679012345679,0)" xlink:href="#W"/><use transform="matrix(0.06172839506172839,0,0,0.06172839506172839,35.80246913580247,0)" xlink:href="#N"/><use transform="matrix(0.06172839506172839,0,0,0.06172839506172839,46.91358024691358,0)" xlink:href="#an"/><use transform="matrix(0.06172839506172839,0,0,0.06172839506172839,59.25925925925926,0)" xlink:href="#U"/><use transform="matrix(0.06172839506172839,0,0,0.06172839506172839,65.4320987654321,0)" xlink:href="#Y"/><use transform="matrix(0.06172839506172839,0,0,0.06172839506172839,70.30864197530865,0)" xlink:href="#ac"/><use transform="matrix(0.06172839506172839,0,0,0.06172839506172839,82.65432098765433,0)" xlink:href="#P"/></g><path fill="#3a414a" d="M115-194c55 1 70 41 70 98S169 2 115 4C84 4 66-9 55-30l1 105H24l-1-265h31l2 30c10-21 28-34 59-34zm-8 174c40 0 45-34 45-75s-6-73-45-74c-42 0-51 32-51 76 0 43 10 73 51 73" id="ao"/><g id="n"><use transform="matrix(0.06172839506172839,0,0,0.06172839506172839,0,0)" xlink:href="#ao"/><use transform="matrix(0.06172839506172839,0,0,0.06172839506172839,12.345679012345679,0)" xlink:href="#Z"/><use transform="matrix(0.06172839506172839,0,0,0.06172839506172839,17.22222222222222,0)" xlink:href="#O"/><use transform="matrix(0.06172839506172839,0,0,0.06172839506172839,29.5679012345679,0)" xlink:href="#P"/></g><g id="o"><use transform="matrix(0.06172839506172839,0,0,0.06172839506172839,0,0)" xlink:href="#Y"/><use transform="matrix(0.06172839506172839,0,0,0.06172839506172839,4.876543209876543,0)" xlink:href="#V"/></g><use transform="matrix(0.06172839506172839,0,0,0.06172839506172839,0,0)" xlink:href="#O" id="p"/><path fill="#3a414a" d="M177-190C167-65 218 103 67 71c-23-6-38-20-44-43l32-5c15 47 100 32 89-28v-30C133-14 115 1 83 1 29 1 15-40 15-95c0-56 16-97 71-98 29-1 48 16 59 35 1-10 0-23 2-32h30zM94-22c36 0 50-32 50-73 0-42-14-75-50-75-39 0-46 34-46 75s6 73 46 73" id="ap"/><path fill="#3a414a" d="M106-169C34-169 62-67 57 0H25v-261h32l-1 103c12-21 28-36 61-36 89 0 53 116 60 194h-32v-121c2-32-8-49-39-48" id="aq"/><g id="q"><use transform="matrix(0.06172839506172839,0,0,0.06172839506172839,0,0)" xlink:href="#ap"/><use transform="matrix(0.06172839506172839,0,0,0.06172839506172839,12.345679012345679,0)" xlink:href="#aa"/><use transform="matrix(0.06172839506172839,0,0,0.06172839506172839,19.691358024691358,0)" xlink:href="#O"/><use transform="matrix(0.06172839506172839,0,0,0.06172839506172839,32.03703703703704,0)" xlink:href="#ao"/><use transform="matrix(0.06172839506172839,0,0,0.06172839506172839,44.382716049382715,0)" xlink:href="#aq"/></g><path fill="#3a414a" d="M101-234c-31-9-42 10-38 44h38v23H63V0H32v-167H5v-23h27c-7-52 17-82 69-68v24" id="ar"/><g id="r"><use transform="matrix(0.06172839506172839,0,0,0.06172839506172839,0,0)" xlink:href="#ac"/><use transform="matrix(0.06172839506172839,0,0,0.06172839506172839,12.345679012345679,0)" xlink:href="#ar"/></g><g id="s"><use transform="matrix(0.06172839506172839,0,0,0.06172839506172839,0,0)" xlink:href="#P"/><use transform="matrix(0.06172839506172839,0,0,0.06172839506172839,12.345679012345679,0)" xlink:href="#ac"/><use transform="matrix(0.06172839506172839,0,0,0.06172839506172839,24.691358024691358,0)" xlink:href="#T"/><use transform="matrix(0.06172839506172839,0,0,0.06172839506172839,37.03703703703704,0)" xlink:href="#W"/><use transform="matrix(0.06172839506172839,0,0,0.06172839506172839,49.382716049382715,0)" xlink:href="#V"/></g><g id="t"><use transform="matrix(0.06172839506172839,0,0,0.06172839506172839,0,0)" xlink:href="#O"/><use transform="matrix(0.06172839506172839,0,0,0.06172839506172839,12.345679012345679,0)" xlink:href="#P"/><use transform="matrix(0.06172839506172839,0,0,0.06172839506172839,24.691358024691358,0)" xlink:href="#T"/></g><g id="u"><use transform="matrix(0.06172839506172839,0,0,0.06172839506172839,0,0)" xlink:href="#U"/><use transform="matrix(0.06172839506172839,0,0,0.06172839506172839,6.172839506172839,0)" xlink:href="#aq"/><use transform="matrix(0.06172839506172839,0,0,0.06172839506172839,18.51851851851852,0)" xlink:href="#W"/><use transform="matrix(0.06172839506172839,0,0,0.06172839506172839,30.864197530864196,0)" xlink:href="#V"/><use transform="matrix(0.06172839506172839,0,0,0.06172839506172839,41.9753086419753,0)" xlink:href="#W"/></g><g id="v"><use transform="matrix(0.06172839506172839,0,0,0.06172839506172839,0,0)" xlink:href="#Q"/><use transform="matrix(0.06172839506172839,0,0,0.06172839506172839,18.456790123456788,0)" xlink:href="#O"/><use transform="matrix(0.06172839506172839,0,0,0.06172839506172839,30.80246913580247,0)" xlink:href="#R"/></g><g id="w"><use transform="matrix(0.06172839506172839,0,0,0.06172839506172839,0,0)" xlink:href="#aa"/><use transform="matrix(0.06172839506172839,0,0,0.06172839506172839,7.345679012345679,0)" xlink:href="#W"/><use transform="matrix(0.06172839506172839,0,0,0.06172839506172839,19.691358024691358,0)" xlink:href="#ar"/><use transform="matrix(0.06172839506172839,0,0,0.06172839506172839,25.864197530864196,0)" xlink:href="#W"/><use transform="matrix(0.06172839506172839,0,0,0.06172839506172839,38.20987654320987,0)" xlink:href="#aa"/></g><g id="x"><use transform="matrix(0.06172839506172839,0,0,0.06172839506172839,0,0)" xlink:href="#U"/><use transform="matrix(0.06172839506172839,0,0,0.06172839506172839,6.172839506172839,0)" xlink:href="#ac"/></g><path fill="#3a414a" d="M33 0v-38h34V0H33" id="as"/><g id="y"><use transform="matrix(0.06172839506172839,0,0,0.06172839506172839,0,0)" xlink:href="#W"/><use transform="matrix(0.06172839506172839,0,0,0.06172839506172839,12.345679012345679,0)" xlink:href="#af"/><use transform="matrix(0.06172839506172839,0,0,0.06172839506172839,23.45679012345679,0)" xlink:href="#ao"/><use transform="matrix(0.06172839506172839,0,0,0.06172839506172839,35.80246913580247,0)" xlink:href="#aa"/><use transform="matrix(0.06172839506172839,0,0,0.06172839506172839,43.148148148148145,0)" xlink:href="#W"/><use transform="matrix(0.06172839506172839,0,0,0.06172839506172839,55.49382716049382,0)" xlink:href="#V"/><use transform="matrix(0.06172839506172839,0,0,0.06172839506172839,66.60493827160494,0)" xlink:href="#V"/><use transform="matrix(0.06172839506172839,0,0,0.06172839506172839,77.71604938271605,0)" xlink:href="#Y"/><use transform="matrix(0.06172839506172839,0,0,0.06172839506172839,82.5925925925926,0)" xlink:href="#ac"/><use transform="matrix(0.06172839506172839,0,0,0.06172839506172839,94.93827160493828,0)" xlink:href="#P"/><use transform="matrix(0.06172839506172839,0,0,0.06172839506172839,107.28395061728396,0)" xlink:href="#V"/><use transform="matrix(0.06172839506172839,0,0,0.06172839506172839,118.39506172839508,0)" xlink:href="#as"/></g><path d="M141 0L90-78 38 0H4l68-98-65-92h35l48 74 47-74h35l-64 92 68 98h-35" id="at"/><use transform="matrix(0.06172839506172839,0,0,0.06172839506172839,0,0)" xlink:href="#at" id="z"/><path d="M179-190L93 31C79 59 56 82 12 73V49c39 6 53-20 64-50L1-190h34L92-34l54-156h33" id="au"/><use transform="matrix(0.06172839506172839,0,0,0.06172839506172839,0,0)" xlink:href="#au" id="A"/><path d="M54-142c48-35 137-8 131 61C196 18 31 33 14-55l32-4c7 23 22 37 52 37 35-1 51-22 54-58 4-55-73-65-99-34H22l8-134h141v27H59" id="av"/><use transform="matrix(0.06172839506172839,0,0,0.06172839506172839,0,0)" xlink:href="#av" id="B"/><path d="M27 0v-27h64v-190l-56 39v-29l58-41h29v221h61V0H27" id="aw"/><use transform="matrix(0.06172839506172839,0,0,0.06172839506172839,0,0)" xlink:href="#aw" id="C"/><path d="M101-251c68 0 85 55 85 127S166 4 100 4C33 4 14-52 14-124c0-73 17-127 87-127zm-1 229c47 0 54-49 54-102s-4-102-53-102c-51 0-55 48-55 102 0 53 5 102 54 102" id="ax"/><g id="D"><use transform="matrix(0.06172839506172839,0,0,0.06172839506172839,0,0)" xlink:href="#av"/><use transform="matrix(0.06172839506172839,0,0,0.06172839506172839,12.345679012345679,0)" xlink:href="#ax"/></g><path d="M101-251c82-7 93 87 43 132L82-64C71-53 59-42 53-27h129V0H18c2-99 128-94 128-182 0-28-16-43-45-43s-46 15-49 41l-32-3c6-41 34-60 81-64" id="ay"/><use transform="matrix(0.06172839506172839,0,0,0.06172839506172839,0,0)" xlink:href="#ay" id="E"/><g id="F"><use transform="matrix(0.06172839506172839,0,0,0.06172839506172839,0,0)" xlink:href="#av"/><use transform="matrix(0.06172839506172839,0,0,0.06172839506172839,12.345679012345679,0)" xlink:href="#ax"/><use transform="matrix(0.06172839506172839,0,0,0.06172839506172839,24.691358024691358,0)" xlink:href="#ax"/></g><path d="M126-127c33 6 58 20 58 59 0 88-139 92-164 29-3-8-5-16-6-25l32-3c6 27 21 44 54 44 32 0 52-15 52-46 0-38-36-46-79-43v-28c39 1 72-4 72-42 0-27-17-43-46-43-28 0-47 15-49 41l-32-3c6-42 35-63 81-64 48-1 79 21 79 65 0 36-21 52-52 59" id="az"/><use transform="matrix(0.06172839506172839,0,0,0.06172839506172839,0,0)" xlink:href="#az" id="G"/><path d="M64 0c3-98 48-159 88-221H18v-27h164v26C143-157 98-101 97 0H64" id="aA"/><g id="H"><use transform="matrix(0.06172839506172839,0,0,0.06172839506172839,0,0)" xlink:href="#aw"/><use transform="matrix(0.06172839506172839,0,0,0.06172839506172839,12.345679012345679,0)" xlink:href="#aA"/></g><use transform="matrix(0.06172839506172839,0,0,0.06172839506172839,0,0)" xlink:href="#au" id="I"/><path d="M118-107v75H92v-75H18v-26h74v-75h26v75h74v26h-74" id="aB"/><use transform="matrix(0.06172839506172839,0,0,0.06172839506172839,0,0)" xlink:href="#aB" id="J"/><use transform="matrix(0.06172839506172839,0,0,0.06172839506172839,0,0)" xlink:href="#ay" id="K"/><path d="M155-56V0h-30v-56H8v-25l114-167h33v167h35v25h-35zm-30-156c-27 46-58 90-88 131h88v-131" id="aC"/><use transform="matrix(0.06172839506172839,0,0,0.06172839506172839,0,0)" xlink:href="#aC" id="L"/></defs></g></svg>