<?xml version="1.0" encoding="utf-8"?>
<!-- Generator: Adobe Illustrator 21.1.0, SVG Export Plug-In . SVG Version: 6.00 Build 0)  -->
<svg version="1.1" id="Calque_1" xmlns="http://www.w3.org/2000/svg" xmlns:xlink="http://www.w3.org/1999/xlink" x="0px" y="0px"
	 viewBox="0 0 173.4 52.4" style="enable-background:new 0 0 173.4 52.4;" width="554.584222" height="167.590618" xml:space="preserve">
<style type="text/css">
	.st0{fill:#D8E448;}
	.st1{opacity:0.28;fill:#D8E448;enable-background:new    ;}
</style>
<path class="st0" d="M42.8,8.5c0.8-0.3,2.2-0.5,4-0.7v44.6H4.9c0.2,0,0.4-0.1,0.5-0.1c2.5-0.8,4.5-2,4.6-2.1c2-1.3,3.6-3.1,4.9-5.1
	c0.4-0.6,5.2-7.8,8.6-12.9c3.4,5.1,8.2,12.3,8.6,12.9c1.2,2,2.9,3.8,4.9,5.1c0,0.1,2.1,1.3,4.6,2.1c0.2,0,0.4,0.1,0.5,0.1h4.8v-2.2
	c-1.8-0.2-3.2-0.4-4-0.7c-2-0.6-3.5-1.6-3.5-1.6c-1.5-0.9-2.6-2.1-3.5-3.4c-0.4-0.7-6.6-9.9-10.1-15.3c0,0-0.1-0.1-0.1-0.2
	s0.1-0.1,0.1-0.2c3.5-5.3,9.7-14.6,10.1-15.3c0.9-1.3,2-2.5,3.5-3.4C39.2,10.2,40.7,9.2,42.8,8.5z M65.4,30.1
	c-4.6-1.3-7.4-2.5-7.4-6.3c0-4.4,3.1-5.7,7-5.7c2.6,0,5,0.4,7.2,1.5l0.9-2C70.5,16.3,67.7,16,65,16c-4.7,0-9.2,2.2-9.2,7.7
	s4,7.2,8.7,8.5c4.5,1.2,8.1,2.1,8.1,6.2c0,4.9-3.5,6.5-7.4,6.5c-2.6,0-5.2-0.5-7.4-1.5l-1,1.9c2.5,1.1,5.4,1.6,8.5,1.6
	c5.1,0,9.6-2.3,9.6-8.5C74.9,32.8,70.6,31.5,65.4,30.1z M11,44.5c0.4-0.7,6.6-9.9,10.1-15.3c0-0.1,0.1-0.1,0.1-0.2s-0.1-0.1-0.1-0.2
	c-3.5-5.3-9.7-14.6-10.1-15.3c-0.9-1.3-2-2.5-3.5-3.4c0,0-1.5-1-3.5-1.6C3.2,8.3,1.8,8,0,7.8v42.4c1.8-0.2,3.2-0.4,4-0.7
	c2-0.6,3.5-1.6,3.5-1.6C9,46.9,10.2,45.8,11,44.5z M9.9,7.9c2,1.3,3.6,3.1,4.9,5.1c0.4,0.6,5.2,7.8,8.6,12.9
	c3.4-5.1,8.2-12.3,8.6-12.9c1.2-2,2.9-3.8,4.9-5.1c0-0.1,2.1-1.3,4.6-2.1c0.2,0,0.4-0.1,0.5-0.1H5c0.2,0,0.4,0.1,0.5,0.2
	C7.8,6.6,9.9,7.8,9.9,7.9z M173.4,0v46.9c-0.8-0.1-1.6-0.3-2.3-0.5v-4c-1.9,3.1-5.2,4.6-10,4.6c-8.9,0-12.4-5-12.4-15.5
	S152.2,16,161,16c4.9,0,8.1,1.5,10,4.6V0.5C171.8,0.3,172.6,0.1,173.4,0z M171.1,31.5c0-8-1.7-13.4-10-13.4c-8.4,0-10,5.3-10,13.4
	s1.7,13.4,10,13.4C169.4,44.9,171.1,39.6,171.1,31.5z M86.2,47l2.3-1.2V16.5h-2.3V47z M130.4,15.9h-1.3c-5.1,0-7.6,2.5-8.9,5.8
	c-1.3-3.4-3.8-5.8-8.9-5.8H110c-8.8,0-10,7.4-10,13.8v15.6c0.7,0.6,1.5,1.1,2.4,1.5V30.5c0-7.3,1.1-12.4,8-12.4h0.6
	c6.9,0,8,5.1,8,12.4v14.7l2.4-0.1V30.5c0-7.3,1.1-12.4,8-12.4h0.6c6.9,0,8,5.1,8,12.4V47c0.8-0.4,1.7-0.9,2.4-1.5V29.8
	C140.4,23.3,139.1,15.9,130.4,15.9z M86.2,12.3h2.3V9.9h-2.3V12.3z"/>
<path class="st1" d="M46.7,50.2v2.2h-4.8c-0.2,0-0.4-0.1-0.5-0.1c-2.5-0.8-4.5-2-4.6-2.1c-2-1.3-3.6-3.1-4.9-5.1
	c-0.4-0.6-5.2-7.8-8.6-12.9c0.8-1.2,1.5-2.3,2.1-3.1c0,0.1,0.1,0.1,0.1,0.2c3.5,5.3,9.7,14.6,10.1,15.3c0.9,1.3,2,2.5,3.5,3.4
	c0,0,1.5,1,3.5,1.6C43.5,49.7,44.9,50,46.7,50.2z M9.9,7.9c0-0.1-2.1-1.3-4.6-2.1C5.2,5.7,5,5.7,4.8,5.7H0v2.2C1.8,8,3.2,8.3,4,8.5
	c2,0.6,3.5,1.6,3.5,1.6C9,11,10.1,12.2,11,13.5c0.4,0.7,6.6,9.9,10.1,15.3c0,0.1,0.1,0.1,0.1,0.2c0.6-0.8,1.3-1.9,2.1-3.1
	c-3.4-5.1-8.2-12.3-8.6-12.9C13.5,11,11.9,9.2,9.9,7.9z"/>
</svg>
