<?xml version="1.0" encoding="UTF-8" standalone="no"?>
<!-- Created with Inkscape (http://www.inkscape.org/) -->

<svg
   version="1.1"
   id="svg2"
   width="1978"
   height="723"
   viewBox="0 0 1978 723"
   sodipodi:docname="arrow-vectorized.svg"
   inkscape:version="1.1 (1:1.1+202106031931+af4d65493e)"
   xmlns:inkscape="http://www.inkscape.org/namespaces/inkscape"
   xmlns:sodipodi="http://sodipodi.sourceforge.net/DTD/sodipodi-0.dtd"
   xmlns="http://www.w3.org/2000/svg"
   xmlns:svg="http://www.w3.org/2000/svg">
  <defs
     id="defs6" />
  <sodipodi:namedview
     id="namedview4"
     pagecolor="#ffffff"
     bordercolor="#666666"
     borderopacity="1.0"
     inkscape:pageshadow="2"
     inkscape:pageopacity="0.0"
     inkscape:pagecheckerboard="0"
     showgrid="false"
     showguides="true"
     inkscape:guide-bbox="true"
     inkscape:zoom="0.70710678"
     inkscape:cx="869.74134"
     inkscape:cy="201.52543"
     inkscape:window-width="1867"
     inkscape:window-height="1016"
     inkscape:window-x="53"
     inkscape:window-y="27"
     inkscape:window-maximized="1"
     inkscape:current-layer="text3227" />
  <g
     inkscape:groupmode="layer"
     inkscape:label="Image"
     id="g8">
    <path
       style="fill:#000000;stroke:#000080;stroke-width:1px;stroke-linecap:butt;stroke-linejoin:miter;stroke-opacity:1"
       d="M 1171.5069,46.304588 V 166.78715 l 189.9364,189.97451 -188.9855,189.9364 v 119.9424 l 308.9279,-310.86782 z"
       id="path38104" />
    <path
       style="fill:#000000;stroke:#000080;stroke-width:1px;stroke-linecap:butt;stroke-linejoin:miter;stroke-opacity:1"
       d="M 1369.8777,46.304588 V 166.78715 l 189.9364,189.97451 -188.9855,189.9364 v 119.9424 l 308.9279,-310.86782 z"
       id="path38204" />
    <path
       style="fill:#000000;stroke:#000080;stroke-width:1px;stroke-linecap:butt;stroke-linejoin:miter;stroke-opacity:1"
       d="M 1568.2485,46.304588 V 166.78715 l 189.9364,189.97451 -188.9855,189.9364 v 119.9424 l 308.9279,-310.86782 z"
       id="path38244" />
    <g
       aria-label="APACHE"
       id="text3227"
       style="font-size:101.195px;line-height:1.25;letter-spacing:0.78px;word-spacing:0px;stroke-width:2.52988">
      <path
         d="m 197.38735,213.64142 -26.41189,-72.05084 h -6.47648 l -26.51309,72.05084 h 8.19679 l 5.76812,-16.2924 h 31.47164 l 5.76812,16.2924 z m -16.1912,-22.97127 h -26.91787 l 13.56013,-38.04932 z"
         style="font-family:'DIN Pro';-inkscape-font-specification:'DIN Pro'"
         id="path38661" />
      <path
         d="m 258.88416,162.74033 c 0,-12.85176 -9.20874,-21.14975 -22.2629,-21.14975 h -26.81667 v 72.05084 h 7.69082 v -29.65014 h 19.12585 c 13.05416,0 22.2629,-8.39918 22.2629,-21.25095 z m -7.69082,0 c 0,9.51233 -6.17289,14.36969 -15.17925,14.36969 h -18.51868 v -28.63818 h 18.51868 c 9.00636,0 15.17925,4.75616 15.17925,14.26849 z"
         style="font-family:'DIN Pro';-inkscape-font-specification:'DIN Pro'"
         id="path38663" />
      <path
         d="m 319.47021,213.64142 -26.4119,-72.05084 h -6.47648 l -26.51309,72.05084 h 8.1968 l 5.76811,-16.2924 h 31.47165 l 5.76811,16.2924 z m -16.1912,-22.97127 h -26.91787 l 13.56013,-38.04932 z"
         style="font-family:'DIN Pro';-inkscape-font-specification:'DIN Pro'"
         id="path38665" />
      <path
         d="m 378.33593,192.79525 h -7.69082 c -1.9227,8.90516 -8.29799,14.57208 -17.30434,14.57208 -4.85736,0 -9.10755,-1.72032 -12.44699,-5.05975 -4.55377,-4.65497 -5.05975,-9.91711 -5.05975,-24.69158 0,-14.77447 0.50598,-20.03661 5.05975,-24.69158 3.33944,-3.33944 7.58963,-5.05975 12.44699,-5.05975 9.00635,0 15.17925,5.66692 17.10195,14.57208 h 7.89321 c -2.52987,-13.45894 -11.94101,-21.45334 -24.99516,-21.45334 -7.48843,0 -13.56013,2.63107 -18.01271,7.08365 -6.78007,6.78006 -7.18485,13.05415 -7.18485,29.54894 0,16.49478 0.40478,22.76887 7.18485,29.54894 4.45258,4.45258 10.52428,7.08365 18.01271,7.08365 12.95296,0 22.46529,-7.99441 24.99516,-21.45334 z"
         style="font-family:'DIN Pro';-inkscape-font-specification:'DIN Pro'"
         id="path38667" />
      <path
         d="m 445.70215,213.64142 v -72.05084 h -7.69082 v 32.2812 h -34.20391 v -32.2812 h -7.69082 v 72.05084 h 7.69082 v -32.88838 h 34.20391 v 32.88838 z"
         style="font-family:'DIN Pro';-inkscape-font-specification:'DIN Pro'"
         id="path38669" />
      <path
         d="m 512.05643,213.64142 v -6.88126 h -37.03737 v -26.00712 h 31.57284 v -6.88126 h -31.57284 v -25.39994 h 37.03737 v -6.88126 h -44.72819 v 72.05084 z"
         style="font-family:'DIN Pro';-inkscape-font-specification:'DIN Pro'"
         id="path38671" />
    </g>
    <g
       aria-label="ARROW"
       id="text23319"
       style="font-size:310.002px;line-height:1.25;letter-spacing:-7.8px;word-spacing:0px;stroke-width:7.75009">
      <path
         d="M 330.52501,473.91098 249.92448,253.18955 h -33.79022 l -80.29052,220.72143 h 44.95029 l 13.33009,-39.06025 h 78.43051 l 13.02008,39.06025 z M 261.08456,398.58049 H 206.2142 l 27.90018,-80.29052 z"
         style="font-weight:bold;font-family:'DIN Pro';-inkscape-font-specification:'DIN Pro Bold'"
         id="path38692" />
      <path
         d="M 517.09582,473.91098 467.8055,378.74036 c 21.39014,-7.75005 40.30026,-26.97017 40.30026,-57.97037 0,-36.89024 -26.66017,-67.58044 -71.61046,-67.58044 h -86.49057 v 220.72143 h 43.09028 v -88.04057 h 31.00021 l 43.09028,88.04057 z M 465.01548,320.76999 c 0,17.05011 -12.40008,29.14018 -31.3102,29.14018 H 393.09501 V 291.6298 h 40.61027 c 18.91012,0 31.3102,12.09007 31.3102,29.14019 z"
         style="font-weight:bold;font-family:'DIN Pro';-inkscape-font-specification:'DIN Pro Bold'"
         id="path38694" />
      <path
         d="M 712.03692,473.91098 662.7466,378.74036 c 21.39014,-7.75005 40.30026,-26.97017 40.30026,-57.97037 0,-36.89024 -26.66017,-67.58044 -71.61046,-67.58044 h -86.49057 v 220.72143 h 43.09028 v -88.04057 h 31.00021 l 43.09028,88.04057 z M 659.95658,320.76999 c 0,17.05011 -12.40008,29.14018 -31.3102,29.14018 H 588.03611 V 291.6298 h 40.61027 c 18.91012,0 31.3102,12.09007 31.3102,29.14019 z"
         style="font-weight:bold;font-family:'DIN Pro';-inkscape-font-specification:'DIN Pro Bold'"
         id="path38696" />
      <path
         d="m 892.40785,363.55026 c 0,-42.16027 -0.62,-66.96043 -22.63015,-88.97057 -14.88009,-14.8801 -33.48022,-23.25016 -58.90038,-23.25016 -25.42017,0 -44.33029,8.37006 -59.21039,23.25016 -22.01014,22.01014 -22.32014,46.8103 -22.32014,88.97057 0,42.16028 0.31,66.96044 22.32014,88.97058 14.8801,14.8801 33.79022,23.25015 59.21039,23.25015 25.42016,0 44.02029,-8.37005 58.90038,-23.25015 22.01015,-22.01014 22.63015,-46.8103 22.63015,-88.97058 z m -43.09028,0 c 0,42.16028 -2.79002,52.39034 -10.85007,61.6904 -6.20004,7.13005 -15.8101,12.09008 -27.59018,12.09008 -11.78008,0 -21.39014,-4.96003 -27.90018,-12.09008 -8.06005,-9.30006 -10.54007,-19.53012 -10.54007,-61.6904 0,-42.16027 2.48002,-52.70034 10.54007,-62.0004 6.51004,-7.13005 16.1201,-11.78008 27.90018,-11.78008 11.78008,0 21.39014,4.65003 27.59018,11.78008 8.06005,9.30006 10.85007,19.84013 10.85007,62.0004 z"
         style="font-weight:bold;font-family:'DIN Pro';-inkscape-font-specification:'DIN Pro Bold'"
         id="path38698" />
      <path
         d="m 1172.9094,253.18955 h -44.9503 l -34.4102,139.1909 -40.3003,-139.1909 h -32.2402 l -40.30024,139.1909 -34.10022,-139.1909 h -44.95029 l 58.90038,220.72143 h 35.96024 l 40.61023,-133.92087 40.6103,133.92087 h 35.9602 z"
         style="font-weight:bold;font-family:'DIN Pro';-inkscape-font-specification:'DIN Pro Bold'"
         id="path38700" />
    </g>
  </g>
</svg>
