
<svg width="276" height="77" viewBox="0 0 276 77" fill="none" xmlns="http://www.w3.org/2000/svg">
    <path d="M270.046 11.5891L270.046 11.5891C270.566 10.3565 269.332 9.089 268.086 9.62327L249.603 17.5458L249.8 18.0054L249.603 17.5458C248.312 18.0994 248.425 19.9782 249.778 20.3676L249.778 20.3676L256.976 22.4391L256.976 22.4391C257.138 22.4859 257.267 22.6145 257.315 22.7818L259.371 30.0321L259.852 29.8957L259.371 30.0321C259.757 31.3911 261.63 31.5107 262.181 30.2071L261.72 30.0125L262.181 30.2071L270.046 11.5891Z" fill="#0097E6" stroke="#0097E6"/>
    <g filter="url(#filter0_di)">
        <path d="M30.9609 42.4766C30.9609 41.8672 30.7734 41.4609 30.3984 41.2578C30.0391 41.0547 29.5078 40.9531 28.8047 40.9531H17.9297V39.2656H28.8047C31.3672 39.2656 32.6484 40.3359 32.6484 42.4766C32.6484 43.6797 32.2969 44.5469 31.5938 45.0781C30.8906 45.6094 29.9609 45.875 28.8047 45.875H17.9297V44.1875H28.8047C30.2422 44.1875 30.9609 43.6172 30.9609 42.4766ZM16.9922 56H15.3047V27.3125H28.8047C29.8672 27.3125 30.7734 27.6406 31.5234 28.2969C32.2734 28.9375 32.6484 29.7422 32.6484 30.7109C32.6484 31.9922 32.2969 32.9219 31.5938 33.5C30.8906 34.0625 29.9609 34.3438 28.8047 34.3438H17.9297V32.6562H28.8047C30.2422 32.6562 30.9609 32.0078 30.9609 30.7109C30.9609 30.1797 30.7578 29.7656 30.3516 29.4688C29.9453 29.1562 29.4297 29 28.8047 29H16.9922V56ZM17.9297 36.0312H28.8047C30.3516 36.0312 31.6562 35.5703 32.7188 34.6484C33.7969 33.7109 34.3359 32.3984 34.3359 30.7109C34.3359 29.3516 33.7734 28.1641 32.6484 27.1484C31.5391 26.1328 30.2578 25.625 28.8047 25.625H13.6172V56H11.9297V23.9375H28.8047C30.7266 23.9375 32.4062 24.6172 33.8438 25.9766C35.2969 27.3203 36.0234 28.8984 36.0234 30.7109C36.0234 32.1328 35.6875 33.375 35.0156 34.4375C34.3594 35.5 33.4688 36.3203 32.3438 36.8984C34.7969 37.7734 36.0234 39.5547 36.0234 42.2422C36.0234 44.3672 35.3203 46.0703 33.9141 47.3516C32.5078 48.6172 30.8047 49.25 28.8047 49.25H17.9297V47.5625H28.8047C30.3516 47.5625 31.6562 47.1016 32.7188 46.1797C33.7969 45.2422 34.3359 43.9297 34.3359 42.2422C34.3359 41.1016 33.9297 40.0938 33.1172 39.2188C32.3047 38.3438 31.1094 37.8359 29.5312 37.6953C29.375 37.7109 29.1328 37.7188 28.8047 37.7188H17.9297V36.0312ZM39.3984 30.7109C39.3984 32.8984 38.625 34.875 37.0781 36.6406C38.625 38.3594 39.3984 40.2266 39.3984 42.2422C39.3984 44.1953 38.9062 45.9766 37.9219 47.5859C36.9531 49.1797 35.6562 50.4219 34.0312 51.3125C32.4219 52.1875 30.6797 52.625 28.8047 52.625H17.9297V50.9375H28.8047C31.2422 50.9375 33.3359 50.125 35.0859 48.5C36.8359 46.8594 37.7109 44.7734 37.7109 42.2422C37.7109 41.3359 37.4766 40.3359 37.0078 39.2422C36.5547 38.1328 35.9219 37.2891 35.1094 36.7109C36.8438 35.0859 37.7109 33.0859 37.7109 30.7109C37.7109 28.4297 36.8203 26.4531 35.0391 24.7812C33.2578 23.0938 31.1797 22.25 28.8047 22.25H10.2422V56H8.55469V20.5625H28.8047C30.6641 20.5625 32.4062 21.0234 34.0312 21.9453C35.6719 22.8516 36.9766 24.0938 37.9453 25.6719C38.9141 27.2344 39.3984 28.9141 39.3984 30.7109ZM39 36.7344C40.3906 34.875 41.0859 32.8672 41.0859 30.7109C41.0859 28.6016 40.5234 26.6406 39.3984 24.8281C38.2891 23 36.7891 21.5547 34.8984 20.4922C33.0078 19.4141 30.9766 18.875 28.8047 18.875H6.86719V56H5.17969V17.1875H28.8047C31.2734 17.1875 33.5781 17.7969 35.7188 19.0156C37.875 20.2344 39.5859 21.8906 40.8516 23.9844C42.1328 26.0625 42.7734 28.3047 42.7734 30.7109C42.7734 33.0078 42.125 35.0234 40.8281 36.7578C42.125 38.5547 42.7734 40.3828 42.7734 42.2422C42.7734 44.3359 42.3984 46.2578 41.6484 48.0078C40.8984 49.7422 39.8828 51.1875 38.6016 52.3438C37.3359 53.5 35.8594 54.3984 34.1719 55.0391C32.4844 55.6797 30.6953 56 28.8047 56H17.9297V54.3125H28.8047C30.4453 54.3125 32.0156 54.0078 33.5156 53.3984C35.0156 52.7734 36.3203 51.9297 37.4297 50.8672C38.5391 49.8047 39.4219 48.5234 40.0781 47.0234C40.75 45.5234 41.0859 43.9297 41.0859 42.2422C41.0859 41.4922 40.9062 40.5938 40.5469 39.5469C40.2031 38.4844 39.6875 37.5469 39 36.7344ZM70.5234 39.3594C70.5234 37.3594 69.9062 35.8125 68.6719 34.7188C67.4375 33.625 65.8047 33.0781 63.7734 33.0781C62.0547 33.0781 60.5781 33.6719 59.3438 34.8594C58.1094 36.0469 57.4922 37.4688 57.4922 39.125C57.4922 40.0625 57.6172 40.9062 57.8672 41.6562C58.1172 42.3906 58.4531 43.0078 58.875 43.5078C59.3125 43.9922 59.8281 44.3984 60.4219 44.7266C61.0156 45.0391 61.6328 45.2656 62.2734 45.4062C62.9297 45.5469 63.625 45.6172 64.3594 45.6172C66.1406 45.6172 67.7656 45.1797 69.2344 44.3047V45.9922C67.7188 46.7891 66.0859 47.1875 64.3359 47.1875C63.2109 47.1875 62.1484 47.0391 61.1484 46.7422C60.1641 46.4297 59.2656 45.9688 58.4531 45.3594C57.6406 44.7344 56.9922 43.8906 56.5078 42.8281C56.0391 41.75 55.8047 40.5156 55.8047 39.125C55.8047 36.9688 56.5625 35.1406 58.0781 33.6406C59.5938 32.1406 61.4922 31.3906 63.7734 31.3906C66.2891 31.3906 68.3203 32.1016 69.8672 33.5234C71.4297 34.9297 72.2109 36.875 72.2109 39.3594V56H70.5234V39.3594ZM75.5859 39.3594V56H73.8984V39.3594C73.8984 36.4062 72.9531 34.0625 71.0625 32.3281C69.1719 30.5781 66.7422 29.7031 63.7734 29.7031C61.0234 29.7031 58.7266 30.6172 56.8828 32.4453C55.0391 34.2734 54.1172 36.5 54.1172 39.125C54.1172 40.7188 54.3906 42.1484 54.9375 43.4141C55.5 44.6797 56.2578 45.6953 57.2109 46.4609C58.1641 47.2266 59.2266 47.8125 60.3984 48.2188C61.5859 48.6094 62.8359 48.8047 64.1484 48.8047C65.9297 48.8047 67.625 48.3906 69.2344 47.5625V49.3438C67.5469 50.0469 65.8438 50.3984 64.125 50.3984C62.5781 50.3984 61.1094 50.1641 59.7188 49.6953C58.3281 49.2109 57.0859 48.5156 55.9922 47.6094C54.8984 46.6875 54.0312 45.5 53.3906 44.0469C52.75 42.5781 52.4297 40.9375 52.4297 39.125C52.4297 36.0469 53.5156 33.4297 55.6875 31.2734C57.875 29.1016 60.5703 28.0156 63.7734 28.0156C66.0234 28.0156 68.0391 28.4766 69.8203 29.3984C71.6016 30.3047 73.0078 31.625 74.0391 33.3594C75.0703 35.0938 75.5859 37.0938 75.5859 39.3594ZM78.9609 39.3594V56H77.2734V39.3594C77.2734 36.7812 76.6797 34.5 75.4922 32.5156C74.3203 30.5156 72.7109 28.9844 70.6641 27.9219C68.6172 26.8594 66.3203 26.3281 63.7734 26.3281C61.3516 26.3281 59.1406 26.9062 57.1406 28.0625C55.1406 29.2031 53.5703 30.75 52.4297 32.7031C51.3047 34.6562 50.7422 36.7969 50.7422 39.125C50.7422 41.125 51.1094 42.9531 51.8438 44.6094C52.5781 46.25 53.5625 47.6016 54.7969 48.6641C56.0469 49.7266 57.4609 50.5547 59.0391 51.1484C60.6328 51.7266 62.2969 52.0156 64.0312 52.0156C65.7969 52.0156 67.5312 51.6484 69.2344 50.9141V52.625C67.4531 53.2969 65.7031 53.6328 63.9844 53.6328C61.2812 53.6328 58.7969 53.0234 56.5312 51.8047C54.2656 50.5859 52.4531 48.8594 51.0938 46.625C49.7344 44.3906 49.0547 41.8906 49.0547 39.125C49.0547 37.1562 49.4297 35.2812 50.1797 33.5C50.9453 31.7188 51.9766 30.1797 53.2734 28.8828C54.5703 27.5859 56.1328 26.5547 57.9609 25.7891C59.7891 25.0234 61.7266 24.6406 63.7734 24.6406C66.6328 24.6406 69.2109 25.25 71.5078 26.4688C73.8203 27.6875 75.6406 29.4219 76.9688 31.6719C78.2969 33.9219 78.9609 36.4844 78.9609 39.3594ZM82.3359 39.3594V56H80.6484V39.3594C80.6484 36.1719 79.9062 33.3281 78.4219 30.8281C76.9375 28.3125 74.9141 26.375 72.3516 25.0156C69.7891 23.6406 66.9297 22.9531 63.7734 22.9531C60.7422 22.9531 57.9688 23.6797 55.4531 25.1328C52.9375 26.5859 50.9609 28.5547 49.5234 31.0391C48.0859 33.5078 47.3672 36.2031 47.3672 39.125C47.3672 41.0469 47.6719 42.875 48.2812 44.6094C48.9062 46.3281 49.75 47.8359 50.8125 49.1328C51.8906 50.4141 53.125 51.5234 54.5156 52.4609C55.9219 53.3984 57.4297 54.1094 59.0391 54.5938C60.6641 55.0781 62.3125 55.3203 63.9844 55.3203C65.8281 55.3203 67.5781 54.9688 69.2344 54.2656V56C67.5 56.6094 65.7188 56.9141 63.8906 56.9141C62 56.9141 60.1562 56.6484 58.3594 56.1172C56.5781 55.5859 54.9219 54.8047 53.3906 53.7734C51.875 52.7266 50.5391 51.5 49.3828 50.0938C48.2266 48.6719 47.3203 47.0156 46.6641 45.125C46.0078 43.2344 45.6797 41.2344 45.6797 39.125C45.6797 36.7031 46.1328 34.3984 47.0391 32.2109C47.9609 30.0078 49.2109 28.1094 50.7891 26.5156C52.3828 24.9062 54.3047 23.6328 56.5547 22.6953C58.8203 21.7422 61.2266 21.2656 63.7734 21.2656C66.3672 21.2656 68.8047 21.7031 71.0859 22.5781C73.3672 23.4531 75.3359 24.6719 76.9922 26.2344C78.6484 27.7812 79.9531 29.6875 80.9062 31.9531C81.8594 34.2188 82.3359 36.6875 82.3359 39.3594ZM86.5078 22.25H88.1953V56H86.5078V22.25ZM96.6328 22.25H98.3203V47.5625H110.766V49.25H98.3203V50.9375H110.766V52.625H98.3203V54.3125H110.766V56H96.6328V22.25ZM93.2578 22.25H94.9453V56H93.2578V22.25ZM89.8828 22.25H91.5703V56H89.8828V22.25ZM114.492 22.25H116.18V56H114.492V22.25ZM124.617 22.25H126.305V47.5625H138.75V49.25H126.305V50.9375H138.75V52.625H126.305V54.3125H138.75V56H124.617V22.25ZM121.242 22.25H122.93V56H121.242V22.25ZM117.867 22.25H119.555V56H117.867V22.25ZM152.602 22.25H154.289V56H152.602V22.25ZM149.227 22.25H150.914V56H149.227V22.25ZM145.852 22.25H147.539V56H145.852V22.25ZM142.477 22.25H144.164V56H142.477V22.25ZM174.211 39.9453H171.539C168.258 39.9453 165.734 39.2812 163.969 37.9531C162.203 36.6094 161.32 34.7656 161.32 32.4219C161.32 30.2344 162.359 28.4141 164.438 26.9609C166.516 25.4922 169.43 24.7578 173.18 24.7578C175.68 24.7578 178.008 25.1016 180.164 25.7891C182.336 26.4766 184.141 27.4453 185.578 28.6953L184.266 29.75C182.984 28.7031 181.375 27.8906 179.438 27.3125C177.5 26.7344 175.414 26.4453 173.18 26.4453C169.883 26.4453 167.359 27.0078 165.609 28.1328C163.875 29.2578 163.008 30.6875 163.008 32.4219C163.008 34.2969 163.719 35.7422 165.141 36.7578C166.578 37.7578 168.711 38.2578 171.539 38.2578H174.117C177.445 38.2578 179.992 38.9297 181.758 40.2734C183.539 41.6016 184.43 43.4375 184.43 45.7812C184.43 47.9688 183.391 49.7969 181.312 51.2656C179.234 52.7188 176.32 53.4453 172.57 53.4453C170.07 53.4453 167.734 53.1016 165.562 52.4141C163.406 51.7266 161.609 50.7578 160.172 49.5078L161.484 48.4531C162.766 49.5 164.375 50.3125 166.312 50.8906C168.25 51.4688 170.336 51.7578 172.57 51.7578C175.867 51.7578 178.383 51.1953 180.117 50.0703C181.867 48.9453 182.742 47.5156 182.742 45.7812C182.742 43.9062 182.023 42.4688 180.586 41.4688C179.164 40.4531 177.039 39.9453 174.211 39.9453ZM174.211 43.3203H171.539C167.195 43.3203 163.844 42.3359 161.484 40.3672C159.125 38.3828 157.945 35.7344 157.945 32.4219C157.945 30.9062 158.281 29.4844 158.953 28.1562C159.625 26.8281 160.586 25.6641 161.836 24.6641C163.102 23.6484 164.711 22.8516 166.664 22.2734C168.617 21.6797 170.789 21.3828 173.18 21.3828C176.195 21.3828 179.016 21.8438 181.641 22.7656C184.266 23.6719 186.453 24.9453 188.203 26.5859L186.844 27.5938C185.25 26.1562 183.258 25.0469 180.867 24.2656C178.477 23.4688 175.914 23.0703 173.18 23.0703C168.961 23.0703 165.648 23.9609 163.242 25.7422C160.836 27.5234 159.633 29.75 159.633 32.4219C159.633 35.25 160.664 37.4922 162.727 39.1484C164.789 40.8047 167.727 41.6328 171.539 41.6328H174.117C178.742 41.6328 181.055 43.0156 181.055 45.7812C181.055 47.0312 180.344 48.0625 178.922 48.875C177.516 49.6719 175.398 50.0703 172.57 50.0703C170.586 50.0703 168.742 49.8438 167.039 49.3906C165.336 48.9219 163.93 48.2578 162.82 47.3984L164.156 46.3672C166.109 47.7109 168.914 48.3828 172.57 48.3828C174.914 48.3828 176.633 48.1406 177.727 47.6562C178.82 47.1719 179.367 46.5469 179.367 45.7812C179.367 44.8906 178.984 44.2578 178.219 43.8828C177.453 43.5078 176.117 43.3203 174.211 43.3203ZM174.211 36.5703H171.539C166.977 36.5703 164.695 35.1875 164.695 32.4219C164.695 31.1719 165.398 30.1484 166.805 29.3516C168.227 28.5391 170.352 28.1328 173.18 28.1328C175.164 28.1328 177.008 28.3672 178.711 28.8359C180.414 29.2891 181.82 29.9453 182.93 30.8047L181.594 31.8359C179.641 30.4922 176.836 29.8203 173.18 29.8203C170.836 29.8203 169.117 30.0625 168.023 30.5469C166.93 31.0312 166.383 31.6562 166.383 32.4219C166.383 33.3125 166.766 33.9453 167.531 34.3203C168.297 34.6953 169.633 34.8828 171.539 34.8828H174.211C178.555 34.8828 181.906 35.875 184.266 37.8594C186.625 39.8281 187.805 42.4688 187.805 45.7812C187.805 47.2969 187.469 48.7188 186.797 50.0469C186.125 51.375 185.156 52.5469 183.891 53.5625C182.641 54.5625 181.039 55.3594 179.086 55.9531C177.133 56.5312 174.961 56.8203 172.57 56.8203C169.555 56.8203 166.734 56.3672 164.109 55.4609C161.484 54.5391 159.297 53.2578 157.547 51.6172L158.906 50.6094C160.5 52.0469 162.492 53.1641 164.883 53.9609C167.273 54.7422 169.836 55.1328 172.57 55.1328C176.789 55.1328 180.102 54.2422 182.508 52.4609C184.914 50.6797 186.117 48.4531 186.117 45.7812C186.117 42.9531 185.086 40.7109 183.023 39.0547C180.961 37.3984 178.023 36.5703 174.211 36.5703ZM197.484 31.6016H199.172V56H197.484V31.6016ZM190.734 23.9375V22.25H216.047V23.9375H190.734ZM190.734 27.3125V25.625H216.047V27.3125H190.734ZM190.734 30.6875V29H216.047V30.6875H190.734ZM207.609 31.6016H209.297V56H207.609V31.6016ZM204.234 31.6016H205.922V56H204.234V31.6016ZM200.859 31.6016H202.547V56H200.859V31.6016ZM243.727 39.3594C243.727 37.3594 243.109 35.8125 241.875 34.7188C240.641 33.625 239.008 33.0781 236.977 33.0781C235.258 33.0781 233.781 33.6719 232.547 34.8594C231.312 36.0469 230.695 37.4688 230.695 39.125C230.695 40.0625 230.82 40.9062 231.07 41.6562C231.32 42.3906 231.656 43.0078 232.078 43.5078C232.516 43.9922 233.031 44.3984 233.625 44.7266C234.219 45.0391 234.836 45.2656 235.477 45.4062C236.133 45.5469 236.828 45.6172 237.562 45.6172C239.344 45.6172 240.969 45.1797 242.438 44.3047V45.9922C240.922 46.7891 239.289 47.1875 237.539 47.1875C236.414 47.1875 235.352 47.0391 234.352 46.7422C233.367 46.4297 232.469 45.9688 231.656 45.3594C230.844 44.7344 230.195 43.8906 229.711 42.8281C229.242 41.75 229.008 40.5156 229.008 39.125C229.008 36.9688 229.766 35.1406 231.281 33.6406C232.797 32.1406 234.695 31.3906 236.977 31.3906C239.492 31.3906 241.523 32.1016 243.07 33.5234C244.633 34.9297 245.414 36.875 245.414 39.3594V56H243.727V39.3594ZM248.789 39.3594V56H247.102V39.3594C247.102 36.4062 246.156 34.0625 244.266 32.3281C242.375 30.5781 239.945 29.7031 236.977 29.7031C234.227 29.7031 231.93 30.6172 230.086 32.4453C228.242 34.2734 227.32 36.5 227.32 39.125C227.32 40.7188 227.594 42.1484 228.141 43.4141C228.703 44.6797 229.461 45.6953 230.414 46.4609C231.367 47.2266 232.43 47.8125 233.602 48.2188C234.789 48.6094 236.039 48.8047 237.352 48.8047C239.133 48.8047 240.828 48.3906 242.438 47.5625V49.3438C240.75 50.0469 239.047 50.3984 237.328 50.3984C235.781 50.3984 234.312 50.1641 232.922 49.6953C231.531 49.2109 230.289 48.5156 229.195 47.6094C228.102 46.6875 227.234 45.5 226.594 44.0469C225.953 42.5781 225.633 40.9375 225.633 39.125C225.633 36.0469 226.719 33.4297 228.891 31.2734C231.078 29.1016 233.773 28.0156 236.977 28.0156C239.227 28.0156 241.242 28.4766 243.023 29.3984C244.805 30.3047 246.211 31.625 247.242 33.3594C248.273 35.0938 248.789 37.0938 248.789 39.3594ZM252.164 39.3594V56H250.477V39.3594C250.477 36.7812 249.883 34.5 248.695 32.5156C247.523 30.5156 245.914 28.9844 243.867 27.9219C241.82 26.8594 239.523 26.3281 236.977 26.3281C234.555 26.3281 232.344 26.9062 230.344 28.0625C228.344 29.2031 226.773 30.75 225.633 32.7031C224.508 34.6562 223.945 36.7969 223.945 39.125C223.945 41.125 224.312 42.9531 225.047 44.6094C225.781 46.25 226.766 47.6016 228 48.6641C229.25 49.7266 230.664 50.5547 232.242 51.1484C233.836 51.7266 235.5 52.0156 237.234 52.0156C239 52.0156 240.734 51.6484 242.438 50.9141V52.625C240.656 53.2969 238.906 53.6328 237.188 53.6328C234.484 53.6328 232 53.0234 229.734 51.8047C227.469 50.5859 225.656 48.8594 224.297 46.625C222.938 44.3906 222.258 41.8906 222.258 39.125C222.258 37.1562 222.633 35.2812 223.383 33.5C224.148 31.7188 225.18 30.1797 226.477 28.8828C227.773 27.5859 229.336 26.5547 231.164 25.7891C232.992 25.0234 234.93 24.6406 236.977 24.6406C239.836 24.6406 242.414 25.25 244.711 26.4688C247.023 27.6875 248.844 29.4219 250.172 31.6719C251.5 33.9219 252.164 36.4844 252.164 39.3594ZM255.539 39.3594V56H253.852V39.3594C253.852 36.1719 253.109 33.3281 251.625 30.8281C250.141 28.3125 248.117 26.375 245.555 25.0156C242.992 23.6406 240.133 22.9531 236.977 22.9531C233.945 22.9531 231.172 23.6797 228.656 25.1328C226.141 26.5859 224.164 28.5547 222.727 31.0391C221.289 33.5078 220.57 36.2031 220.57 39.125C220.57 41.0469 220.875 42.875 221.484 44.6094C222.109 46.3281 222.953 47.8359 224.016 49.1328C225.094 50.4141 226.328 51.5234 227.719 52.4609C229.125 53.3984 230.633 54.1094 232.242 54.5938C233.867 55.0781 235.516 55.3203 237.188 55.3203C239.031 55.3203 240.781 54.9688 242.438 54.2656V56C240.703 56.6094 238.922 56.9141 237.094 56.9141C235.203 56.9141 233.359 56.6484 231.562 56.1172C229.781 55.5859 228.125 54.8047 226.594 53.7734C225.078 52.7266 223.742 51.5 222.586 50.0938C221.43 48.6719 220.523 47.0156 219.867 45.125C219.211 43.2344 218.883 41.2344 218.883 39.125C218.883 36.7031 219.336 34.3984 220.242 32.2109C221.164 30.0078 222.414 28.1094 223.992 26.5156C225.586 24.9062 227.508 23.6328 229.758 22.6953C232.023 21.7422 234.43 21.2656 236.977 21.2656C239.57 21.2656 242.008 21.7031 244.289 22.5781C246.57 23.4531 248.539 24.6719 250.195 26.2344C251.852 27.7812 253.156 29.6875 254.109 31.9531C255.062 34.2188 255.539 36.6875 255.539 39.3594Z" fill="#0097E6"/>
        <path d="M30.3984 41.2578L30.1524 41.6932L30.1603 41.6975L30.3984 41.2578ZM17.9297 40.9531H17.4297V41.4531H17.9297V40.9531ZM17.9297 39.2656V38.7656H17.4297V39.2656H17.9297ZM17.9297 45.875H17.4297V46.375H17.9297V45.875ZM17.9297 44.1875V43.6875H17.4297V44.1875H17.9297ZM16.9922 56V56.5H17.4922V56H16.9922ZM15.3047 56H14.8047V56.5H15.3047V56ZM15.3047 27.3125V26.8125H14.8047V27.3125H15.3047ZM31.5234 28.2969L31.1942 28.6732L31.1987 28.6771L31.5234 28.2969ZM31.5938 33.5L31.9061 33.8905L31.9113 33.8862L31.5938 33.5ZM17.9297 34.3438H17.4297V34.8438H17.9297V34.3438ZM17.9297 32.6562V32.1562H17.4297V32.6562H17.9297ZM30.3516 29.4688L30.0466 29.8652L30.0566 29.8724L30.3516 29.4688ZM16.9922 29V28.5H16.4922V29H16.9922ZM17.9297 36.0312V35.5312H17.4297V36.0312H17.9297ZM32.7188 34.6484L33.0464 35.0261L33.0468 35.0257L32.7188 34.6484ZM32.6484 27.1484L32.3108 27.5172L32.3134 27.5196L32.6484 27.1484ZM13.6172 25.625V25.125H13.1172V25.625H13.6172ZM13.6172 56V56.5H14.1172V56H13.6172ZM11.9297 56H11.4297V56.5H11.9297V56ZM11.9297 23.9375V23.4375H11.4297V23.9375H11.9297ZM33.8438 25.9766L33.5002 26.3399L33.5043 26.3437L33.8438 25.9766ZM35.0156 34.4375L34.593 34.1703L34.5902 34.1748L35.0156 34.4375ZM32.3438 36.8984L32.1152 36.4537L31.0882 36.9815L32.1758 37.3694L32.3438 36.8984ZM33.9141 47.3516L34.2486 47.7232L34.2508 47.7212L33.9141 47.3516ZM17.9297 49.25H17.4297V49.75H17.9297V49.25ZM17.9297 47.5625V47.0625H17.4297V47.5625H17.9297ZM32.7188 46.1797L33.0464 46.5573L33.0468 46.557L32.7188 46.1797ZM29.5312 37.6953L29.5756 37.1973L29.5285 37.1931L29.4815 37.1978L29.5312 37.6953ZM17.9297 37.7188H17.4297V38.2188H17.9297V37.7188ZM37.0781 36.6406L36.702 36.3111L36.4095 36.6451L36.7065 36.9751L37.0781 36.6406ZM37.9219 47.5859L37.4953 47.325L37.4946 47.3262L37.9219 47.5859ZM34.0312 51.3125L34.2701 51.7518L34.2716 51.751L34.0312 51.3125ZM17.9297 52.625H17.4297V53.125H17.9297V52.625ZM17.9297 50.9375V50.4375H17.4297V50.9375H17.9297ZM35.0859 48.5L35.4262 48.8664L35.4279 48.8648L35.0859 48.5ZM37.0078 39.2422L36.5449 39.4313L36.5482 39.4391L37.0078 39.2422ZM35.1094 36.7109L34.7675 36.3461L34.3215 36.764L34.8195 37.1183L35.1094 36.7109ZM35.0391 24.7812L34.6952 25.1442L34.6969 25.1458L35.0391 24.7812ZM10.2422 22.25V21.75H9.74219V22.25H10.2422ZM10.2422 56V56.5H10.7422V56H10.2422ZM8.55469 56H8.05469V56.5H8.55469V56ZM8.55469 20.5625V20.0625H8.05469V20.5625H8.55469ZM34.0312 21.9453L33.7845 22.3802L33.7895 22.383L34.0312 21.9453ZM37.9453 25.6719L37.5192 25.9335L37.5204 25.9353L37.9453 25.6719ZM39 36.7344L38.5996 36.4349L38.3613 36.7536L38.6183 37.0573L39 36.7344ZM39.3984 24.8281L38.971 25.0875L38.9736 25.0918L39.3984 24.8281ZM34.8984 20.4922L34.6507 20.9265L34.6535 20.9281L34.8984 20.4922ZM6.86719 18.875V18.375H6.36719V18.875H6.86719ZM6.86719 56V56.5H7.36719V56H6.86719ZM5.17969 56H4.67969V56.5H5.17969V56ZM5.17969 17.1875V16.6875H4.67969V17.1875H5.17969ZM35.7188 19.0156L35.4714 19.4501L35.4727 19.4509L35.7188 19.0156ZM40.8516 23.9844L40.4236 24.243L40.426 24.2468L40.8516 23.9844ZM40.8281 36.7578L40.4277 36.4584L40.2077 36.7526L40.4227 37.0504L40.8281 36.7578ZM41.6484 48.0078L42.1074 48.2063L42.108 48.2048L41.6484 48.0078ZM38.6016 52.3438L38.2666 51.9725L38.2643 51.9746L38.6016 52.3438ZM17.9297 56H17.4297V56.5H17.9297V56ZM17.9297 54.3125V53.8125H17.4297V54.3125H17.9297ZM33.5156 53.3984L33.7038 53.8617L33.7079 53.86L33.5156 53.3984ZM40.0781 47.0234L39.6218 46.819L39.62 46.823L40.0781 47.0234ZM40.5469 39.5469L40.0711 39.7008L40.074 39.7092L40.5469 39.5469ZM31.4609 42.4766C31.4609 41.772 31.238 41.1439 30.6366 40.8182L30.1603 41.6975C30.3089 41.7779 30.4609 41.9624 30.4609 42.4766H31.4609ZM30.6445 40.8225C30.1744 40.5568 29.5408 40.4531 28.8047 40.4531V41.4531C29.4748 41.4531 29.9037 41.5525 30.1524 41.6931L30.6445 40.8225ZM28.8047 40.4531H17.9297V41.4531H28.8047V40.4531ZM18.4297 40.9531V39.2656H17.4297V40.9531H18.4297ZM17.9297 39.7656H28.8047V38.7656H17.9297V39.7656ZM28.8047 39.7656C30.0286 39.7656 30.8534 40.0231 31.3669 40.4521C31.8633 40.8667 32.1484 41.5093 32.1484 42.4766H33.1484C33.1484 41.3032 32.793 40.3403 32.0081 39.6846C31.2403 39.0433 30.1433 38.7656 28.8047 38.7656V39.7656ZM32.1484 42.4766C32.1484 43.5844 31.8284 44.2742 31.2923 44.6792L31.8952 45.4771C32.7654 44.8196 33.1484 43.775 33.1484 42.4766H32.1484ZM31.2923 44.6792C30.6997 45.127 29.8861 45.375 28.8047 45.375V46.375C30.0358 46.375 31.0816 46.0918 31.8952 45.4771L31.2923 44.6792ZM28.8047 45.375H17.9297V46.375H28.8047V45.375ZM18.4297 45.875V44.1875H17.4297V45.875H18.4297ZM17.9297 44.6875H28.8047V43.6875H17.9297V44.6875ZM28.8047 44.6875C29.5761 44.6875 30.2471 44.5367 30.7327 44.1514C31.2403 43.7487 31.4609 43.1587 31.4609 42.4766H30.4609C30.4609 42.9351 30.3222 43.2005 30.1111 43.3681C29.8779 43.5531 29.4707 43.6875 28.8047 43.6875V44.6875ZM16.9922 55.5H15.3047V56.5H16.9922V55.5ZM15.8047 56V27.3125H14.8047V56H15.8047ZM15.3047 27.8125H28.8047V26.8125H15.3047V27.8125ZM28.8047 27.8125C29.7548 27.8125 30.5417 28.1022 31.1942 28.6732L31.8527 27.9206C31.0052 27.179 29.9796 26.8125 28.8047 26.8125V27.8125ZM31.1987 28.6771C31.8398 29.2247 32.1484 29.8915 32.1484 30.7109H33.1484C33.1484 29.5929 32.7071 28.6503 31.8482 27.9167L31.1987 28.6771ZM32.1484 30.7109C32.1484 31.9064 31.8223 32.6648 31.2762 33.1138L31.9113 33.8862C32.7715 33.1789 33.1484 32.078 33.1484 30.7109H32.1484ZM31.2814 33.1096C30.6895 33.5831 29.8801 33.8438 28.8047 33.8438V34.8438C30.0418 34.8438 31.0918 34.5419 31.9061 33.8904L31.2814 33.1096ZM28.8047 33.8438H17.9297V34.8438H28.8047V33.8438ZM18.4297 34.3438V32.6562H17.4297V34.3438H18.4297ZM17.9297 33.1562H28.8047V32.1562H17.9297V33.1562ZM28.8047 33.1562C29.5885 33.1562 30.2698 32.9806 30.7568 32.5412C31.2536 32.0929 31.4609 31.4505 31.4609 30.7109H30.4609C30.4609 31.2683 30.3089 31.5985 30.0869 31.7987C29.8552 32.0077 29.4584 32.1562 28.8047 32.1562V33.1562ZM31.4609 30.7109C31.4609 30.0306 31.1899 29.4621 30.6466 29.0651L30.0566 29.8724C30.3258 30.0692 30.4609 30.3288 30.4609 30.7109H31.4609ZM30.6564 29.0724C30.1449 28.679 29.5151 28.5 28.8047 28.5V29.5C29.3442 29.5 29.7457 29.6335 30.0467 29.8651L30.6564 29.0724ZM28.8047 28.5H16.9922V29.5H28.8047V28.5ZM16.4922 29V56H17.4922V29H16.4922ZM17.9297 36.5312H28.8047V35.5312H17.9297V36.5312ZM28.8047 36.5312C30.459 36.5312 31.8837 36.0349 33.0464 35.0261L32.3911 34.2708C31.4288 35.1057 30.2441 35.5312 28.8047 35.5312V36.5312ZM33.0468 35.0257C34.2542 33.9759 34.8359 32.5143 34.8359 30.7109H33.8359C33.8359 32.2826 33.3395 33.446 32.3907 34.2711L33.0468 35.0257ZM34.8359 30.7109C34.8359 29.1929 34.2001 27.8756 32.9835 26.7773L32.3134 27.5196C33.3468 28.4525 33.8359 29.5102 33.8359 30.7109H34.8359ZM32.9861 26.7796C31.7881 25.6829 30.3875 25.125 28.8047 25.125V26.125C30.1281 26.125 31.2901 26.5827 32.3108 27.5172L32.9861 26.7796ZM28.8047 25.125H13.6172V26.125H28.8047V25.125ZM13.1172 25.625V56H14.1172V25.625H13.1172ZM13.6172 55.5H11.9297V56.5H13.6172V55.5ZM12.4297 56V23.9375H11.4297V56H12.4297ZM11.9297 24.4375H28.8047V23.4375H11.9297V24.4375ZM28.8047 24.4375C30.5947 24.4375 32.1525 25.0654 33.5002 26.3398L34.1873 25.6133C32.66 24.169 30.8585 23.4375 28.8047 23.4375V24.4375ZM33.5043 26.3437C34.8656 27.6025 35.5234 29.0515 35.5234 30.7109H36.5234C36.5234 28.7454 35.7282 27.0381 34.1832 25.6095L33.5043 26.3437ZM35.5234 30.7109C35.5234 32.0509 35.2079 33.1979 34.593 34.1703L35.4382 34.7047C36.1671 33.5521 36.5234 32.2147 36.5234 30.7109H35.5234ZM34.5902 34.1748C33.9825 35.1588 33.1603 35.9166 32.1152 36.4537L32.5723 37.3432C33.7772 36.724 34.7363 35.8412 35.441 34.7002L34.5902 34.1748ZM32.1758 37.3694C33.3241 37.779 34.1493 38.3866 34.6917 39.1742C35.235 39.9631 35.5234 40.975 35.5234 42.2422H36.5234C36.5234 40.8219 36.1986 39.5994 35.5153 38.6071C34.8311 37.6134 33.8166 36.8929 32.5117 36.4275L32.1758 37.3694ZM35.5234 42.2422C35.5234 44.2448 34.8668 45.8071 33.5773 46.982L34.2508 47.7212C35.7738 46.3335 36.5234 44.4896 36.5234 42.2422H35.5234ZM33.5796 46.9799C32.2707 48.1579 30.6889 48.75 28.8047 48.75V49.75C30.9205 49.75 32.7449 49.0765 34.2485 47.7232L33.5796 46.9799ZM28.8047 48.75H17.9297V49.75H28.8047V48.75ZM18.4297 49.25V47.5625H17.4297V49.25H18.4297ZM17.9297 48.0625H28.8047V47.0625H17.9297V48.0625ZM28.8047 48.0625C30.459 48.0625 31.8837 47.5662 33.0464 46.5573L32.3911 45.802C31.4288 46.6369 30.2441 47.0625 28.8047 47.0625V48.0625ZM33.0468 46.557C34.2542 45.5071 34.8359 44.0456 34.8359 42.2422H33.8359C33.8359 43.8138 33.3395 44.9773 32.3907 45.8024L33.0468 46.557ZM34.8359 42.2422C34.8359 40.969 34.3775 39.8412 33.4836 38.8785L32.7508 39.559C33.4818 40.3463 33.8359 41.2341 33.8359 42.2422H34.8359ZM33.4836 38.8785C32.5626 37.8867 31.2359 37.3452 29.5756 37.1973L29.4869 38.1933C30.9829 38.3266 32.0468 38.8008 32.7508 39.559L33.4836 38.8785ZM29.4815 37.1978C29.3514 37.2108 29.13 37.2188 28.8047 37.2188V38.2188C29.1356 38.2188 29.3986 38.2111 29.581 38.1928L29.4815 37.1978ZM28.8047 37.2188H17.9297V38.2188H28.8047V37.2188ZM18.4297 37.7188V36.0312H17.4297V37.7188H18.4297ZM38.8984 30.7109C38.8984 32.7679 38.1754 34.6295 36.702 36.3111L37.4542 36.9701C39.0746 35.1205 39.8984 33.0289 39.8984 30.7109H38.8984ZM36.7065 36.9751C38.1837 38.6165 38.8984 40.3682 38.8984 42.2422H39.8984C39.8984 40.0849 39.0663 38.1023 37.4498 36.3061L36.7065 36.9751ZM38.8984 42.2422C38.8984 44.1067 38.4299 45.7971 37.4953 47.325L38.3484 47.8468C39.3826 46.1561 39.8984 44.284 39.8984 42.2422H38.8984ZM37.4946 47.3262C36.5711 48.8455 35.3385 50.0259 33.7909 50.874L34.2716 51.751C35.974 50.8179 37.3351 49.5138 38.3491 47.8456L37.4946 47.3262ZM33.7924 50.8732C32.2581 51.7074 30.5983 52.125 28.8047 52.125V53.125C30.7611 53.125 32.5856 52.6676 34.2701 51.7518L33.7924 50.8732ZM28.8047 52.125H17.9297V53.125H28.8047V52.125ZM18.4297 52.625V50.9375H17.4297V52.625H18.4297ZM17.9297 51.4375H28.8047V50.4375H17.9297V51.4375ZM28.8047 51.4375C31.3655 51.4375 33.5816 50.5792 35.4262 48.8664L34.7457 48.1336C33.0903 49.6708 31.1189 50.4375 28.8047 50.4375V51.4375ZM35.4279 48.8648C37.2848 47.1239 38.2109 44.9031 38.2109 42.2422H37.2109C37.2109 44.6438 36.3871 46.5948 34.744 48.1352L35.4279 48.8648ZM38.2109 42.2422C38.2109 41.2506 37.9549 40.1827 37.4674 39.0452L36.5482 39.4391C36.9983 40.4892 37.2109 41.4213 37.2109 42.2422H38.2109ZM37.4707 39.0531C36.989 37.8739 36.3033 36.9468 35.3993 36.3035L34.8195 37.1183C35.5405 37.6313 36.1203 38.3917 36.5449 39.4313L37.4707 39.0531ZM35.4512 37.0758C37.2864 35.3564 38.2109 33.2243 38.2109 30.7109H37.2109C37.2109 32.9476 36.4011 34.8155 34.7675 36.3461L35.4512 37.0758ZM38.2109 30.7109C38.2109 28.281 37.2552 26.1756 35.3812 24.4167L34.6969 25.1458C36.3854 26.7307 37.2109 28.5784 37.2109 30.7109H38.2109ZM35.3829 24.4183C33.5122 22.646 31.3122 21.75 28.8047 21.75V22.75C31.0471 22.75 33.0034 23.5415 34.6952 25.1442L35.3829 24.4183ZM28.8047 21.75H10.2422V22.75H28.8047V21.75ZM9.74219 22.25V56H10.7422V22.25H9.74219ZM10.2422 55.5H8.55469V56.5H10.2422V55.5ZM9.05469 56V20.5625H8.05469V56H9.05469ZM8.55469 21.0625H28.8047V20.0625H8.55469V21.0625ZM28.8047 21.0625C30.5771 21.0625 32.2344 21.5008 33.7845 22.3802L34.278 21.5104C32.5781 20.5461 30.751 20.0625 28.8047 20.0625V21.0625ZM33.7895 22.383C35.3554 23.248 36.5962 24.4299 37.5192 25.9335L38.3714 25.4103C37.3569 23.7576 35.9883 22.4551 34.273 21.5076L33.7895 22.383ZM37.5204 25.9353C38.4413 27.4207 38.8984 29.0094 38.8984 30.7109H39.8984C39.8984 28.8187 39.3869 27.0481 38.3703 25.4084L37.5204 25.9353ZM39.4004 37.0338C40.8504 35.0951 41.5859 32.9836 41.5859 30.7109H40.5859C40.5859 32.7508 39.9308 34.6549 38.5996 36.4349L39.4004 37.0338ZM41.5859 30.7109C41.5859 28.5073 40.9968 26.4552 39.8233 24.5644L38.9736 25.0918C40.0501 26.8261 40.5859 28.6959 40.5859 30.7109H41.5859ZM39.8259 24.5687C38.6712 22.666 37.1079 21.1603 35.1434 20.0563L34.6535 20.9281C36.4702 21.949 37.9069 23.334 38.971 25.0875L39.8259 24.5687ZM35.1461 20.0578C33.1802 18.9368 31.0636 18.375 28.8047 18.375V19.375C30.8895 19.375 32.8354 19.8913 34.6508 20.9265L35.1461 20.0578ZM28.8047 18.375H6.86719V19.375H28.8047V18.375ZM6.36719 18.875V56H7.36719V18.875H6.36719ZM6.86719 55.5H5.17969V56.5H6.86719V55.5ZM5.67969 56V17.1875H4.67969V56H5.67969ZM5.17969 17.6875H28.8047V16.6875H5.17969V17.6875ZM28.8047 17.6875C31.1869 17.6875 33.4063 18.2744 35.4714 19.4501L35.9661 18.5811C33.7499 17.3193 31.36 16.6875 28.8047 16.6875V17.6875ZM35.4727 19.4509C37.5552 20.6279 39.2031 22.2238 40.4237 24.243L41.2795 23.7257C39.9688 21.5575 38.1948 19.8408 35.9648 18.5803L35.4727 19.4509ZM40.426 24.2468C41.6593 26.2472 42.2734 28.3988 42.2734 30.7109H43.2734C43.2734 28.2106 42.6063 25.8778 41.2772 23.722L40.426 24.2468ZM42.2734 30.7109C42.2734 32.9068 41.6559 34.8159 40.4277 36.4584L41.2286 37.0572C42.5941 35.231 43.2734 33.1088 43.2734 30.7109H42.2734ZM40.4227 37.0504C41.6702 38.7789 42.2734 40.5068 42.2734 42.2422H43.2734C43.2734 40.2588 42.5798 38.3305 41.2336 36.4652L40.4227 37.0504ZM42.2734 42.2422C42.2734 44.275 41.9096 46.129 41.1889 47.8109L42.108 48.2048C42.8872 46.3866 43.2734 44.3969 43.2734 42.2422H42.2734ZM41.1895 47.8094C40.4652 49.4842 39.4897 50.8687 38.2666 51.9726L38.9365 52.7149C40.2759 51.5063 41.3316 50.0001 42.1074 48.2063L41.1895 47.8094ZM38.2643 51.9746C37.0477 53.0861 35.6261 53.9522 33.9944 54.5716L34.3493 55.5065C36.0927 54.8447 37.6242 53.9139 38.9388 52.7129L38.2643 51.9746ZM33.9944 54.5716C32.3663 55.1897 30.6376 55.5 28.8047 55.5V56.5C30.753 56.5 32.6025 56.1697 34.3493 55.5065L33.9944 54.5716ZM28.8047 55.5H17.9297V56.5H28.8047V55.5ZM18.4297 56V54.3125H17.4297V56H18.4297ZM17.9297 54.8125H28.8047V53.8125H17.9297V54.8125ZM28.8047 54.8125C30.5089 54.8125 32.1432 54.4957 33.7038 53.8617L33.3274 52.9352C31.888 53.52 30.3817 53.8125 28.8047 53.8125V54.8125ZM33.7079 53.86C35.2615 53.2126 36.6191 52.3359 37.7755 51.2283L37.0838 50.5061C36.0215 51.5235 34.7697 52.3342 33.3233 52.9369L33.7079 53.86ZM37.7755 51.2283C38.9356 50.1172 39.8553 48.7803 40.5362 47.2238L39.62 46.823C38.9885 48.2666 38.1425 49.4922 37.0838 50.5061L37.7755 51.2283ZM40.5344 47.2278C41.2359 45.6618 41.5859 43.9982 41.5859 42.2422H40.5859C40.5859 43.8612 40.2641 45.3851 39.6218 46.819L40.5344 47.2278ZM41.5859 42.2422C41.5859 41.4174 41.3894 40.4612 41.0198 39.3845L40.074 39.7092C40.4231 40.7263 40.5859 41.567 40.5859 42.2422H41.5859ZM41.0226 39.393C40.6598 38.2716 40.1133 37.276 39.3817 36.4114L38.6183 37.0573C39.2617 37.8177 39.7464 38.6971 40.0712 39.7008L41.0226 39.393ZM57.8672 41.6562L57.3928 41.8144L57.3939 41.8174L57.8672 41.6562ZM58.875 43.5078L58.4929 43.8302L58.4983 43.8367L58.5039 43.843L58.875 43.5078ZM60.4219 44.7266L60.18 45.1643L60.189 45.169L60.4219 44.7266ZM62.2734 45.4062L62.1662 45.8946L62.1687 45.8952L62.2734 45.4062ZM69.2344 44.3047H69.7344V43.4248L68.9785 43.8751L69.2344 44.3047ZM69.2344 45.9922L69.4671 46.4347L69.7344 46.2942V45.9922H69.2344ZM61.1484 46.7422L60.9971 47.2188L61.0061 47.2215L61.1484 46.7422ZM58.4531 45.3594L58.1482 45.7557L58.1531 45.7594L58.4531 45.3594ZM56.5078 42.8281L56.0492 43.0275L56.0529 43.0355L56.5078 42.8281ZM69.8672 33.5234L69.5288 33.8916L69.5327 33.8951L69.8672 33.5234ZM72.2109 56V56.5H72.7109V56H72.2109ZM70.5234 56H70.0234V56.5H70.5234V56ZM75.5859 56V56.5H76.0859V56H75.5859ZM73.8984 56H73.3984V56.5H73.8984V56ZM71.0625 32.3281L70.7229 32.6951L70.7245 32.6966L71.0625 32.3281ZM54.9375 43.4141L54.4785 43.6124L54.4806 43.6171L54.9375 43.4141ZM60.3984 48.2188L60.2346 48.6912L60.2422 48.6937L60.3984 48.2188ZM69.2344 47.5625H69.7344V46.7429L69.0056 47.1179L69.2344 47.5625ZM69.2344 49.3438L69.4267 49.8053L69.7344 49.6771V49.3438H69.2344ZM59.7188 49.6953L59.5543 50.1675L59.559 50.1691L59.7188 49.6953ZM55.9922 47.6094L55.6699 47.9917L55.6732 47.9944L55.9922 47.6094ZM53.3906 44.0469L52.9323 44.2468L52.9331 44.2486L53.3906 44.0469ZM55.6875 31.2734L56.0398 31.6283L56.0398 31.6283L55.6875 31.2734ZM69.8203 29.3984L69.5905 29.8425L69.5936 29.8441L69.8203 29.3984ZM78.9609 56V56.5H79.4609V56H78.9609ZM77.2734 56H76.7734V56.5H77.2734V56ZM75.4922 32.5156L75.0608 32.7684L75.0631 32.7724L75.4922 32.5156ZM57.1406 28.0625L57.3883 28.4968L57.3909 28.4954L57.1406 28.0625ZM52.4297 32.7031L51.9979 32.451L51.9964 32.4536L52.4297 32.7031ZM51.8438 44.6094L51.3867 44.812L51.3874 44.8137L51.8438 44.6094ZM54.7969 48.6641L54.4707 49.043L54.4731 49.045L54.7969 48.6641ZM59.0391 51.1484L58.863 51.6164L58.8686 51.6185L59.0391 51.1484ZM69.2344 50.9141H69.7344V50.154L69.0364 50.4549L69.2344 50.9141ZM69.2344 52.625L69.4108 53.0928L69.7344 52.9708V52.625H69.2344ZM50.1797 33.5L49.7203 33.3025L49.7189 33.306L50.1797 33.5ZM71.5078 26.4688L71.2735 26.9104L71.2747 26.9111L71.5078 26.4688ZM82.3359 56V56.5H82.8359V56H82.3359ZM80.6484 56H80.1484V56.5H80.6484V56ZM78.4219 30.8281L77.9913 31.0822L77.9919 31.0834L78.4219 30.8281ZM72.3516 25.0156L72.1152 25.4562L72.1172 25.4573L72.3516 25.0156ZM49.5234 31.0391L49.9555 31.2907L49.9562 31.2895L49.5234 31.0391ZM48.2812 44.6094L47.8095 44.7751L47.8114 44.7802L48.2812 44.6094ZM50.8125 49.1328L50.4257 49.4497L50.4299 49.4547L50.8125 49.1328ZM54.5156 52.4609L54.2361 52.8755L54.2383 52.877L54.5156 52.4609ZM59.0391 54.5938L58.895 55.0725L58.8962 55.0729L59.0391 54.5938ZM69.2344 54.2656H69.7344V53.5102L69.039 53.8054L69.2344 54.2656ZM69.2344 56L69.4001 56.4717L69.7344 56.3543V56H69.2344ZM58.3594 56.1172L58.2165 56.5963L58.2176 56.5967L58.3594 56.1172ZM53.3906 53.7734L53.1064 54.1849L53.1113 54.1882L53.3906 53.7734ZM49.3828 50.0938L48.9949 50.4092L48.9966 50.4113L49.3828 50.0938ZM47.0391 32.2109L46.5778 32.0179L46.5771 32.0196L47.0391 32.2109ZM50.7891 26.5156L50.4338 26.1638L50.4338 26.1638L50.7891 26.5156ZM56.5547 22.6953L56.747 23.1569L56.7486 23.1562L56.5547 22.6953ZM76.9922 26.2344L76.6491 26.5981L76.6509 26.5998L76.9922 26.2344ZM71.0234 39.3594C71.0234 37.2494 70.3675 35.5531 69.0035 34.3445L68.3403 35.093C69.445 36.0719 70.0234 37.4694 70.0234 39.3594H71.0234ZM69.0035 34.3445C67.6577 33.1521 65.8974 32.5781 63.7734 32.5781V33.5781C65.712 33.5781 67.2173 34.0979 68.3403 35.093L69.0035 34.3445ZM63.7734 32.5781C61.9259 32.5781 60.325 33.2216 58.9971 34.499L59.6904 35.2197C60.8313 34.1222 62.1834 33.5781 63.7734 33.5781V32.5781ZM58.9971 34.499C57.6685 35.7772 56.9922 37.3276 56.9922 39.125H57.9922C57.9922 37.6099 58.5502 36.3166 59.6904 35.2197L58.9971 34.499ZM56.9922 39.125C56.9922 40.1065 57.123 41.0049 57.3928 41.8144L58.3415 41.4981C58.1113 40.8076 57.9922 40.0185 57.9922 39.125H56.9922ZM57.3939 41.8174C57.6603 42.6 58.0241 43.2747 58.4929 43.8302L59.2571 43.1854C58.8822 42.741 58.5741 42.1812 58.3405 41.4951L57.3939 41.8174ZM58.5039 43.843C58.98 44.37 59.5398 44.8104 60.18 45.1642L60.6637 44.2889C60.1165 43.9865 59.645 43.6144 59.2461 43.1727L58.5039 43.843ZM60.189 45.169C60.8215 45.5019 61.4808 45.7442 62.1662 45.8946L62.3806 44.9179C61.7848 44.7871 61.2098 44.5762 60.6547 44.2841L60.189 45.169ZM62.1687 45.8952C62.8624 46.0438 63.5931 46.1172 64.3594 46.1172V45.1172C63.6569 45.1172 62.997 45.0499 62.3782 44.9173L62.1687 45.8952ZM64.3594 46.1172C66.2268 46.1172 67.9408 45.6573 69.4903 44.7342L68.9785 43.8751C67.5904 44.7021 66.0545 45.1172 64.3594 45.1172V46.1172ZM68.7344 44.3047V45.9922H69.7344V44.3047H68.7344ZM69.0017 45.5496C67.5594 46.3079 66.0067 46.6875 64.3359 46.6875V47.6875C66.1652 47.6875 67.8781 47.2702 69.4671 46.4347L69.0017 45.5496ZM64.3359 46.6875C63.2554 46.6875 62.2411 46.545 61.2907 46.2629L61.0061 47.2215C62.0558 47.5331 63.1665 47.6875 64.3359 47.6875V46.6875ZM61.2997 46.2656C60.3679 45.9698 59.5199 45.5345 58.7531 44.9594L58.1531 45.7594C59.0113 46.403 59.9602 46.8896 60.9971 47.2187L61.2997 46.2656ZM58.758 44.9631C58.0187 44.3944 57.418 43.6194 56.9628 42.6207L56.0529 43.0355C56.5663 44.1619 57.2625 45.0744 58.1483 45.7557L58.758 44.9631ZM56.9663 42.6288C56.5295 41.624 56.3047 40.4594 56.3047 39.125H55.3047C55.3047 40.5719 55.5486 41.876 56.0493 43.0275L56.9663 42.6288ZM56.3047 39.125C56.3047 37.1006 57.0103 35.4009 58.4298 33.996L57.7264 33.2852C56.1147 34.8803 55.3047 36.8369 55.3047 39.125H56.3047ZM58.4298 33.996C59.8449 32.5956 61.6137 31.8906 63.7734 31.8906V30.8906C61.3706 30.8906 59.3426 31.6857 57.7264 33.2852L58.4298 33.996ZM63.7734 31.8906C66.1899 31.8906 68.0918 32.5707 69.5288 33.8916L70.2056 33.1553C68.5488 31.6325 66.3882 30.8906 63.7734 30.8906V31.8906ZM69.5327 33.8951C70.9706 35.1892 71.7109 36.9885 71.7109 39.3594H72.7109C72.7109 36.7615 71.8888 34.6702 70.2017 33.1518L69.5327 33.8951ZM71.7109 39.3594V56H72.7109V39.3594H71.7109ZM72.2109 55.5H70.5234V56.5H72.2109V55.5ZM71.0234 56V39.3594H70.0234V56H71.0234ZM75.0859 39.3594V56H76.0859V39.3594H75.0859ZM75.5859 55.5H73.8984V56.5H75.5859V55.5ZM74.3984 56V39.3594H73.3984V56H74.3984ZM74.3984 39.3594C74.3984 36.2894 73.4103 33.8034 71.4005 31.9597L70.7245 32.6966C72.4959 34.3216 73.3984 36.5231 73.3984 39.3594H74.3984ZM71.4021 31.9612C69.405 30.1126 66.8476 29.2031 63.7734 29.2031V30.2031C66.6368 30.2031 68.9387 31.0436 70.7229 32.6951L71.4021 31.9612ZM63.7734 29.2031C60.9002 29.2031 58.4741 30.1634 56.5308 32.0903L57.2349 32.8004C58.979 31.071 61.1467 30.2031 63.7734 30.2031V29.2031ZM56.5308 32.0903C54.5912 34.0134 53.6172 36.3683 53.6172 39.125H54.6172C54.6172 36.6317 55.487 34.5334 57.2349 32.8004L56.5308 32.0903ZM53.6172 39.125C53.6172 40.7764 53.9007 42.2751 54.4785 43.6124L55.3965 43.2157C54.8806 42.0217 54.6172 40.6611 54.6172 39.125H53.6172ZM54.4806 43.6171C55.0711 44.9458 55.8747 46.0289 56.8978 46.8507L57.5241 46.0711C56.6409 45.3617 55.9289 44.4136 55.3944 43.211L54.4806 43.6171ZM56.8978 46.8507C57.8963 47.6528 59.0094 48.2664 60.2347 48.6912L60.5622 47.7463C59.4437 47.3586 58.4319 46.8003 57.5241 46.0711L56.8978 46.8507ZM60.2422 48.6937C61.4826 49.1017 62.7855 49.3047 64.1484 49.3047V48.3047C62.8863 48.3047 61.6893 48.117 60.5547 47.7438L60.2422 48.6937ZM64.1484 49.3047C66.0106 49.3047 67.7842 48.871 69.4631 48.0071L69.0056 47.1179C67.4658 47.9102 65.8488 48.3047 64.1484 48.3047V49.3047ZM68.7344 47.5625V49.3438H69.7344V47.5625H68.7344ZM69.0421 48.8822C67.4116 49.5616 65.7736 49.8984 64.125 49.8984V50.8984C65.9139 50.8984 67.6822 50.5322 69.4267 49.8053L69.0421 48.8822ZM64.125 49.8984C62.6295 49.8984 61.2149 49.672 59.8785 49.2215L59.559 50.1691C61.0039 50.6561 62.5268 50.8984 64.125 50.8984V49.8984ZM59.8832 49.2231C58.5468 48.7576 57.3574 48.0912 56.3112 47.2244L55.6732 47.9944C56.8145 48.9401 58.1095 49.6642 59.5543 50.1675L59.8832 49.2231ZM56.3144 47.2271C55.2851 46.3595 54.4614 45.2363 53.8481 43.8452L52.9331 44.2486C53.6011 45.7637 54.5118 47.0155 55.67 47.9917L56.3144 47.2271ZM53.8489 43.847C53.2392 42.449 52.9297 40.8777 52.9297 39.125H51.9297C51.9297 40.9973 52.2608 42.7072 52.9323 44.2468L53.8489 43.847ZM52.9297 39.125C52.9297 36.1792 53.9631 33.69 56.0398 31.6283L55.3352 30.9186C53.0682 33.1693 51.9297 35.9145 51.9297 39.125H52.9297ZM56.0398 31.6283C58.1296 29.5534 60.6965 28.5156 63.7734 28.5156V27.5156C60.4441 27.5156 57.6204 28.6498 55.3352 30.9186L56.0398 31.6283ZM63.7734 28.5156C65.9533 28.5156 67.8885 28.9617 69.5905 29.8425L70.0501 28.9544C68.1896 27.9915 66.0936 27.5156 63.7734 27.5156V28.5156ZM69.5936 29.8441C71.2897 30.707 72.6259 31.961 73.6093 33.6149L74.4688 33.1038C73.3897 31.289 71.9134 29.9024 70.047 28.9528L69.5936 29.8441ZM73.6093 33.6149C74.5891 35.2628 75.0859 37.1724 75.0859 39.3594H76.0859C76.0859 37.0151 75.5515 34.9247 74.4688 33.1038L73.6093 33.6149ZM78.4609 39.3594V56H79.4609V39.3594H78.4609ZM78.9609 55.5H77.2734V56.5H78.9609V55.5ZM77.7734 56V39.3594H76.7734V56H77.7734ZM77.7734 39.3594C77.7734 36.7015 77.1603 34.3295 75.9212 32.2589L75.0631 32.7724C76.199 34.6705 76.7734 36.861 76.7734 39.3594H77.7734ZM75.9236 32.2629C74.7043 30.1819 73.0254 28.5843 70.8944 27.4781L70.4337 28.3656C72.3964 29.3845 73.9363 30.8493 75.0608 32.7684L75.9236 32.2629ZM70.8944 27.4781C68.7692 26.3749 66.392 25.8281 63.7734 25.8281V26.8281C66.2486 26.8281 68.4652 27.3438 70.4337 28.3656L70.8944 27.4781ZM63.7734 25.8281C61.2681 25.8281 58.9702 26.4272 56.8904 27.6296L57.3909 28.4954C59.3111 27.3853 61.435 26.8281 63.7734 26.8281V25.8281ZM56.8929 27.6282C54.8181 28.8115 53.1837 30.4206 51.9979 32.451L52.8615 32.9553C53.957 31.0794 55.4632 29.5948 57.3883 28.4968L56.8929 27.6282ZM51.9964 32.4536C50.8262 34.4852 50.2422 36.7123 50.2422 39.125H51.2422C51.2422 36.8815 51.7832 34.8273 52.863 32.9527L51.9964 32.4536ZM50.2422 39.125C50.2422 41.1875 50.6212 43.0856 51.3867 44.812L52.3008 44.4067C51.5976 42.8206 51.2422 41.0625 51.2422 39.125H50.2422ZM51.3874 44.8137C52.1486 46.5143 53.1751 47.9278 54.4707 49.043L55.1231 48.2851C53.9499 47.2753 53.0076 45.9857 52.3001 44.4051L51.3874 44.8137ZM54.4731 49.045C55.7681 50.1459 57.2325 51.003 58.863 51.6164L59.2151 50.6805C57.6894 50.1064 56.3256 49.3073 55.1207 48.2831L54.4731 49.045ZM58.8686 51.6185C60.5182 52.2169 62.2401 52.5156 64.0312 52.5156V51.5156C62.3537 51.5156 60.7474 51.2362 59.2096 50.6784L58.8686 51.6185ZM64.0312 52.5156C65.8684 52.5156 67.6699 52.1331 69.4324 51.3732L69.0364 50.4549C67.3926 51.1637 65.7254 51.5156 64.0312 51.5156V52.5156ZM68.7344 50.9141V52.625H69.7344V50.9141H68.7344ZM69.0579 52.1572C67.327 52.8101 65.6367 53.1328 63.9844 53.1328V54.1328C65.7696 54.1328 67.5792 53.7837 69.4108 53.0928L69.0579 52.1572ZM63.9844 53.1328C61.3596 53.1328 58.9572 52.5419 56.7681 51.3644L56.2944 52.245C58.6365 53.5049 61.2029 54.1328 63.9844 54.1328V53.1328ZM56.7681 51.3644C54.5822 50.1885 52.8348 48.5248 51.5209 46.3651L50.6666 46.8849C52.0714 49.1939 53.949 50.9834 56.2944 52.245L56.7681 51.3644ZM51.5209 46.3651C50.212 44.2136 49.5547 41.8045 49.5547 39.125H48.5547C48.5547 41.9768 49.2568 44.5676 50.6666 46.8849L51.5209 46.3651ZM49.5547 39.125C49.5547 37.2216 49.9169 35.4127 50.6405 33.694L49.7189 33.306C48.9425 35.1498 48.5547 37.0909 48.5547 39.125H49.5547ZM50.6391 33.6974C51.3811 31.9711 52.3775 30.4859 53.627 29.2364L52.9199 28.5293C51.5756 29.8735 50.5095 31.4664 49.7203 33.3026L50.6391 33.6974ZM53.627 29.2364C54.8743 27.9891 56.381 26.9928 58.1541 26.2503L57.7678 25.3279C55.8846 26.1166 54.2663 27.1828 52.9199 28.5293L53.627 29.2364ZM58.1541 26.2503C59.919 25.5111 61.7907 25.1406 63.7734 25.1406V24.1406C61.6625 24.1406 59.6591 24.5358 57.7678 25.3279L58.1541 26.2503ZM63.7734 25.1406C66.5594 25.1406 69.0558 25.7337 71.2735 26.9104L71.7422 26.0271C69.3661 24.7663 66.7062 24.1406 63.7734 24.1406V25.1406ZM71.2747 26.9111C73.5052 28.0866 75.2572 29.7559 76.5382 31.926L77.3993 31.4177C76.0241 29.0879 74.1354 27.2884 71.7409 26.0264L71.2747 26.9111ZM76.5382 31.926C77.8164 34.0915 78.4609 36.5645 78.4609 39.3594H79.4609C79.4609 36.4042 78.7774 33.7523 77.3993 31.4177L76.5382 31.926ZM81.8359 39.3594V56H82.8359V39.3594H81.8359ZM82.3359 55.5H80.6484V56.5H82.3359V55.5ZM81.1484 56V39.3594H80.1484V56H81.1484ZM81.1484 39.3594C81.1484 36.091 80.3864 33.1574 78.8518 30.5729L77.9919 31.0834C79.4261 33.4988 80.1484 36.2528 80.1484 39.3594H81.1484ZM78.8525 30.574C77.3216 27.9795 75.2305 25.9768 72.5859 24.5739L72.1172 25.4573C74.5977 26.7732 76.5534 28.6455 77.9913 31.0822L78.8525 30.574ZM72.588 24.575C69.9467 23.1578 67.005 22.4531 63.7734 22.4531V23.4531C66.8544 23.4531 69.6314 24.1235 72.1152 25.4562L72.588 24.575ZM63.7734 22.4531C60.6584 22.4531 57.7981 23.2009 55.203 24.6999L55.7032 25.5658C58.1394 24.1585 60.826 23.4531 63.7734 23.4531V22.4531ZM55.203 24.6999C52.6125 26.1962 50.5726 28.2275 49.0907 30.7887L49.9562 31.2895C51.3493 28.8819 53.2625 26.9757 55.7032 25.5658L55.203 24.6999ZM49.0913 30.7875C47.6083 33.3344 46.8672 36.1168 46.8672 39.125H47.8672C47.8672 36.2894 48.5636 33.6812 49.9555 31.2907L49.0913 30.7875ZM46.8672 39.125C46.8672 41.1007 47.1806 42.9851 47.8095 44.7751L48.753 44.4436C48.1632 42.7649 47.8672 40.993 47.8672 39.125H46.8672ZM47.8114 44.7802C48.4539 46.5472 49.3244 48.1054 50.4257 49.4497L51.1993 48.8159C50.1756 47.5665 49.3586 46.1091 48.7511 44.4385L47.8114 44.7802ZM50.4299 49.4547C51.538 50.7716 52.8071 51.9121 54.2361 52.8755L54.7951 52.0464C53.4429 51.1348 52.2433 50.0566 51.1951 48.8109L50.4299 49.4547ZM54.2383 52.877C55.6854 53.8417 57.238 54.5739 58.895 55.0725L59.1832 54.115C57.6213 53.6449 56.1584 52.9552 54.793 52.0449L54.2383 52.877ZM58.8962 55.0729C60.5669 55.5709 62.2634 55.8203 63.9844 55.8203V54.8203C62.3616 54.8203 60.7612 54.5853 59.1819 54.1146L58.8962 55.0729ZM63.9844 55.8203C65.8936 55.8203 67.7102 55.4559 69.4298 54.7259L69.039 53.8054C67.4461 54.4816 65.7627 54.8203 63.9844 54.8203V55.8203ZM68.7344 54.2656V56H69.7344V54.2656H68.7344ZM69.0686 55.5283C67.3872 56.119 65.662 56.4141 63.8906 56.4141V57.4141C65.7755 57.4141 67.6128 57.0997 69.4001 56.4717L69.0686 55.5283ZM63.8906 56.4141C62.0476 56.4141 60.2516 56.1552 58.5011 55.6377L58.2176 56.5967C60.0609 57.1417 61.9524 57.4141 63.8906 57.4141V56.4141ZM58.5023 55.638C56.7692 55.1211 55.1589 54.3615 53.6699 53.3587L53.1113 54.1882C54.6848 55.2479 56.3871 56.0507 58.2165 56.5963L58.5023 55.638ZM53.6748 53.362C52.1969 52.3412 50.8954 51.1462 49.769 49.7762L48.9966 50.4113C50.1827 51.8538 51.5531 53.1119 53.1065 54.1848L53.6748 53.362ZM49.7707 49.7783C48.6545 48.4056 47.7753 46.8017 47.1364 44.961L46.1917 45.289C46.8653 47.2296 47.7986 48.9382 48.9949 50.4092L49.7707 49.7783ZM47.1364 44.961C46.4994 43.1259 46.1797 41.1816 46.1797 39.125H45.1797C45.1797 41.2872 45.5162 43.3428 46.1917 45.289L47.1364 44.961ZM46.1797 39.125C46.1797 36.7673 46.6205 34.5277 47.501 32.4023L46.5771 32.0196C45.6452 34.2691 45.1797 36.639 45.1797 39.125H46.1797ZM47.5003 32.4039C48.399 30.2562 49.6143 28.4126 51.1444 26.8674L50.4338 26.1638C48.8076 27.8061 47.5229 29.7594 46.5778 32.0179L47.5003 32.4039ZM51.1443 26.8674C52.6881 25.3085 54.5533 24.0709 56.747 23.1569L56.3624 22.2338C54.056 23.1948 52.0775 24.504 50.4338 26.1638L51.1443 26.8674ZM56.7486 23.1562C58.9506 22.2298 61.2907 21.7656 63.7734 21.7656V20.7656C61.1624 20.7656 58.69 21.2546 56.3608 22.2344L56.7486 23.1562ZM63.7734 21.7656C66.3098 21.7656 68.6862 22.1932 70.9069 23.045L71.265 22.1113C68.9231 21.213 66.4246 20.7656 63.7734 20.7656V21.7656ZM70.9069 23.045C73.1317 23.8983 75.0436 25.0835 76.6491 26.5981L77.3353 25.8707C75.6282 24.2602 73.6026 23.0079 71.265 22.1113L70.9069 23.045ZM76.6509 26.5998C78.2514 28.0946 79.5172 29.9408 80.4454 32.147L81.3671 31.7592C80.389 29.4342 79.0455 27.4679 77.3335 25.869L76.6509 26.5998ZM80.4454 32.147C81.3705 34.3461 81.8359 36.7482 81.8359 39.3594H82.8359C82.8359 36.6268 82.3482 34.0914 81.3671 31.7592L80.4454 32.147ZM86.5078 22.25V21.75H86.0078V22.25H86.5078ZM88.1953 22.25H88.6953V21.75H88.1953V22.25ZM88.1953 56V56.5H88.6953V56H88.1953ZM86.5078 56H86.0078V56.5H86.5078V56ZM96.6328 22.25V21.75H96.1328V22.25H96.6328ZM98.3203 22.25H98.8203V21.75H98.3203V22.25ZM98.3203 47.5625H97.8203V48.0625H98.3203V47.5625ZM110.766 47.5625H111.266V47.0625H110.766V47.5625ZM110.766 49.25V49.75H111.266V49.25H110.766ZM98.3203 49.25V48.75H97.8203V49.25H98.3203ZM98.3203 50.9375H97.8203V51.4375H98.3203V50.9375ZM110.766 50.9375H111.266V50.4375H110.766V50.9375ZM110.766 52.625V53.125H111.266V52.625H110.766ZM98.3203 52.625V52.125H97.8203V52.625H98.3203ZM98.3203 54.3125H97.8203V54.8125H98.3203V54.3125ZM110.766 54.3125H111.266V53.8125H110.766V54.3125ZM110.766 56V56.5H111.266V56H110.766ZM96.6328 56H96.1328V56.5H96.6328V56ZM93.2578 22.25V21.75H92.7578V22.25H93.2578ZM94.9453 22.25H95.4453V21.75H94.9453V22.25ZM94.9453 56V56.5H95.4453V56H94.9453ZM93.2578 56H92.7578V56.5H93.2578V56ZM89.8828 22.25V21.75H89.3828V22.25H89.8828ZM91.5703 22.25H92.0703V21.75H91.5703V22.25ZM91.5703 56V56.5H92.0703V56H91.5703ZM89.8828 56H89.3828V56.5H89.8828V56ZM86.5078 22.75H88.1953V21.75H86.5078V22.75ZM87.6953 22.25V56H88.6953V22.25H87.6953ZM88.1953 55.5H86.5078V56.5H88.1953V55.5ZM87.0078 56V22.25H86.0078V56H87.0078ZM96.6328 22.75H98.3203V21.75H96.6328V22.75ZM97.8203 22.25V47.5625H98.8203V22.25H97.8203ZM98.3203 48.0625H110.766V47.0625H98.3203V48.0625ZM110.266 47.5625V49.25H111.266V47.5625H110.266ZM110.766 48.75H98.3203V49.75H110.766V48.75ZM97.8203 49.25V50.9375H98.8203V49.25H97.8203ZM98.3203 51.4375H110.766V50.4375H98.3203V51.4375ZM110.266 50.9375V52.625H111.266V50.9375H110.266ZM110.766 52.125H98.3203V53.125H110.766V52.125ZM97.8203 52.625V54.3125H98.8203V52.625H97.8203ZM98.3203 54.8125H110.766V53.8125H98.3203V54.8125ZM110.266 54.3125V56H111.266V54.3125H110.266ZM110.766 55.5H96.6328V56.5H110.766V55.5ZM97.1328 56V22.25H96.1328V56H97.1328ZM93.2578 22.75H94.9453V21.75H93.2578V22.75ZM94.4453 22.25V56H95.4453V22.25H94.4453ZM94.9453 55.5H93.2578V56.5H94.9453V55.5ZM93.7578 56V22.25H92.7578V56H93.7578ZM89.8828 22.75H91.5703V21.75H89.8828V22.75ZM91.0703 22.25V56H92.0703V22.25H91.0703ZM91.5703 55.5H89.8828V56.5H91.5703V55.5ZM90.3828 56V22.25H89.3828V56H90.3828ZM114.492 22.25V21.75H113.992V22.25H114.492ZM116.18 22.25H116.68V21.75H116.18V22.25ZM116.18 56V56.5H116.68V56H116.18ZM114.492 56H113.992V56.5H114.492V56ZM124.617 22.25V21.75H124.117V22.25H124.617ZM126.305 22.25H126.805V21.75H126.305V22.25ZM126.305 47.5625H125.805V48.0625H126.305V47.5625ZM138.75 47.5625H139.25V47.0625H138.75V47.5625ZM138.75 49.25V49.75H139.25V49.25H138.75ZM126.305 49.25V48.75H125.805V49.25H126.305ZM126.305 50.9375H125.805V51.4375H126.305V50.9375ZM138.75 50.9375H139.25V50.4375H138.75V50.9375ZM138.75 52.625V53.125H139.25V52.625H138.75ZM126.305 52.625V52.125H125.805V52.625H126.305ZM126.305 54.3125H125.805V54.8125H126.305V54.3125ZM138.75 54.3125H139.25V53.8125H138.75V54.3125ZM138.75 56V56.5H139.25V56H138.75ZM124.617 56H124.117V56.5H124.617V56ZM121.242 22.25V21.75H120.742V22.25H121.242ZM122.93 22.25H123.43V21.75H122.93V22.25ZM122.93 56V56.5H123.43V56H122.93ZM121.242 56H120.742V56.5H121.242V56ZM117.867 22.25V21.75H117.367V22.25H117.867ZM119.555 22.25H120.055V21.75H119.555V22.25ZM119.555 56V56.5H120.055V56H119.555ZM117.867 56H117.367V56.5H117.867V56ZM114.492 22.75H116.18V21.75H114.492V22.75ZM115.68 22.25V56H116.68V22.25H115.68ZM116.18 55.5H114.492V56.5H116.18V55.5ZM114.992 56V22.25H113.992V56H114.992ZM124.617 22.75H126.305V21.75H124.617V22.75ZM125.805 22.25V47.5625H126.805V22.25H125.805ZM126.305 48.0625H138.75V47.0625H126.305V48.0625ZM138.25 47.5625V49.25H139.25V47.5625H138.25ZM138.75 48.75H126.305V49.75H138.75V48.75ZM125.805 49.25V50.9375H126.805V49.25H125.805ZM126.305 51.4375H138.75V50.4375H126.305V51.4375ZM138.25 50.9375V52.625H139.25V50.9375H138.25ZM138.75 52.125H126.305V53.125H138.75V52.125ZM125.805 52.625V54.3125H126.805V52.625H125.805ZM126.305 54.8125H138.75V53.8125H126.305V54.8125ZM138.25 54.3125V56H139.25V54.3125H138.25ZM138.75 55.5H124.617V56.5H138.75V55.5ZM125.117 56V22.25H124.117V56H125.117ZM121.242 22.75H122.93V21.75H121.242V22.75ZM122.43 22.25V56H123.43V22.25H122.43ZM122.93 55.5H121.242V56.5H122.93V55.5ZM121.742 56V22.25H120.742V56H121.742ZM117.867 22.75H119.555V21.75H117.867V22.75ZM119.055 22.25V56H120.055V22.25H119.055ZM119.555 55.5H117.867V56.5H119.555V55.5ZM118.367 56V22.25H117.367V56H118.367ZM152.602 22.25V21.75H152.102V22.25H152.602ZM154.289 22.25H154.789V21.75H154.289V22.25ZM154.289 56V56.5H154.789V56H154.289ZM152.602 56H152.102V56.5H152.602V56ZM149.227 22.25V21.75H148.727V22.25H149.227ZM150.914 22.25H151.414V21.75H150.914V22.25ZM150.914 56V56.5H151.414V56H150.914ZM149.227 56H148.727V56.5H149.227V56ZM145.852 22.25V21.75H145.352V22.25H145.852ZM147.539 22.25H148.039V21.75H147.539V22.25ZM147.539 56V56.5H148.039V56H147.539ZM145.852 56H145.352V56.5H145.852V56ZM142.477 22.25V21.75H141.977V22.25H142.477ZM144.164 22.25H144.664V21.75H144.164V22.25ZM144.164 56V56.5H144.664V56H144.164ZM142.477 56H141.977V56.5H142.477V56ZM152.602 22.75H154.289V21.75H152.602V22.75ZM153.789 22.25V56H154.789V22.25H153.789ZM154.289 55.5H152.602V56.5H154.289V55.5ZM153.102 56V22.25H152.102V56H153.102ZM149.227 22.75H150.914V21.75H149.227V22.75ZM150.414 22.25V56H151.414V22.25H150.414ZM150.914 55.5H149.227V56.5H150.914V55.5ZM149.727 56V22.25H148.727V56H149.727ZM145.852 22.75H147.539V21.75H145.852V22.75ZM147.039 22.25V56H148.039V22.25H147.039ZM147.539 55.5H145.852V56.5H147.539V55.5ZM146.352 56V22.25H145.352V56H146.352ZM142.477 22.75H144.164V21.75H142.477V22.75ZM143.664 22.25V56H144.664V22.25H143.664ZM144.164 55.5H142.477V56.5H144.164V55.5ZM142.977 56V22.25H141.977V56H142.977ZM163.969 37.9531L163.666 38.351L163.668 38.3527L163.969 37.9531ZM164.438 26.9609L164.724 27.3707L164.726 27.3693L164.438 26.9609ZM180.164 25.7891L180.012 26.2654L180.013 26.2658L180.164 25.7891ZM185.578 28.6953L185.891 29.0851L186.358 28.7104L185.906 28.318L185.578 28.6953ZM184.266 29.75L183.949 30.1372L184.263 30.3935L184.579 30.1398L184.266 29.75ZM165.609 28.1328L165.339 27.7122L165.337 27.7133L165.609 28.1328ZM165.141 36.7578L164.85 37.1647L164.855 37.1683L165.141 36.7578ZM181.758 40.2734L181.455 40.6713L181.459 40.6743L181.758 40.2734ZM181.312 51.2656L181.599 51.6754L181.601 51.6739L181.312 51.2656ZM165.562 52.4141L165.411 52.8904L165.412 52.8908L165.562 52.4141ZM160.172 49.5078L159.859 49.1181L159.392 49.4927L159.844 49.8851L160.172 49.5078ZM161.484 48.4531L161.801 48.0659L161.487 47.8096L161.171 48.0634L161.484 48.4531ZM180.117 50.0703L179.847 49.6497L179.845 49.6508L180.117 50.0703ZM180.586 41.4688L180.295 41.8756L180.3 41.8792L180.586 41.4688ZM161.484 40.3672L161.163 40.7498L161.164 40.7511L161.484 40.3672ZM161.836 24.6641L162.148 25.0545L162.149 25.054L161.836 24.6641ZM166.664 22.2734L166.806 22.7529L166.809 22.7518L166.664 22.2734ZM181.641 22.7656L181.475 23.2374L181.477 23.2383L181.641 22.7656ZM188.203 26.5859L188.501 26.9876L188.982 26.6309L188.545 26.2212L188.203 26.5859ZM186.844 27.5938L186.509 27.965L186.813 28.2391L187.142 27.9954L186.844 27.5938ZM180.867 24.2656L180.709 24.74L180.712 24.7409L180.867 24.2656ZM178.922 48.875L179.168 49.31L179.17 49.3091L178.922 48.875ZM167.039 49.3906L166.906 49.8727L166.911 49.8738L167.039 49.3906ZM162.82 47.3984L162.515 47.0026L162.003 47.3977L162.514 47.7937L162.82 47.3984ZM164.156 46.3672L164.44 45.9553L164.139 45.7486L163.851 45.9714L164.156 46.3672ZM166.805 29.3516L167.051 29.7866L167.053 29.7857L166.805 29.3516ZM178.711 28.8359L178.578 29.318L178.582 29.3191L178.711 28.8359ZM182.93 30.8047L183.235 31.2005L183.747 30.8054L183.236 30.4094L182.93 30.8047ZM181.594 31.8359L181.31 32.2479L181.611 32.4545L181.899 32.2317L181.594 31.8359ZM184.266 37.8594L183.944 38.242L183.945 38.2433L184.266 37.8594ZM183.891 53.5625L184.203 53.9529L184.204 53.9525L183.891 53.5625ZM179.086 55.9531L179.228 56.4326L179.231 56.4315L179.086 55.9531ZM164.109 55.4609L163.944 55.9327L163.946 55.9336L164.109 55.4609ZM157.547 51.6172L157.249 51.2155L156.768 51.5723L157.205 51.982L157.547 51.6172ZM158.906 50.6094L159.241 50.2381L158.937 49.964L158.608 50.2077L158.906 50.6094ZM164.883 53.9609L164.725 54.4353L164.727 54.4362L164.883 53.9609ZM174.211 39.4453H171.539V40.4453H174.211V39.4453ZM171.539 39.4453C168.316 39.4453 165.915 38.7917 164.269 37.5535L163.668 38.3527C165.553 39.7708 168.2 40.4453 171.539 40.4453V39.4453ZM164.272 37.5552C162.638 36.3121 161.82 34.6197 161.82 32.4219H160.82C160.82 34.9115 161.768 36.9067 163.666 38.351L164.272 37.5552ZM161.82 32.4219C161.82 30.4254 162.755 28.7474 164.724 27.3707L164.151 26.5512C161.964 28.0807 160.82 30.0433 160.82 32.4219H161.82ZM164.726 27.3693C166.688 25.9823 169.487 25.2578 173.18 25.2578V24.2578C169.373 24.2578 166.343 25.002 164.149 26.5526L164.726 27.3693ZM173.18 25.2578C175.633 25.2578 177.91 25.5951 180.012 26.2654L180.316 25.3127C178.106 24.608 175.726 24.2578 173.18 24.2578V25.2578ZM180.013 26.2658C182.132 26.9366 183.873 27.8754 185.25 29.0726L185.906 28.318C184.408 27.0152 182.54 26.0166 180.315 25.3124L180.013 26.2658ZM185.265 28.3056L183.952 29.3602L184.579 30.1398L185.891 29.0851L185.265 28.3056ZM184.582 29.3628C183.24 28.266 181.568 27.4263 179.58 26.8334L179.295 27.7916C181.182 28.3549 182.729 29.1403 183.949 30.1372L184.582 29.3628ZM179.58 26.8334C177.592 26.24 175.457 25.9453 173.18 25.9453V26.9453C175.371 26.9453 177.408 27.2287 179.295 27.7916L179.58 26.8334ZM173.18 25.9453C169.838 25.9453 167.204 26.5133 165.339 27.7122L165.88 28.5534C167.515 27.5023 169.927 26.9453 173.18 26.9453V25.9453ZM165.337 27.7133C163.492 28.91 162.508 30.4836 162.508 32.4219H163.508C163.508 30.8914 164.258 29.6056 165.881 28.5523L165.337 27.7133ZM162.508 32.4219C162.508 34.4445 163.286 36.0474 164.85 37.1647L165.431 36.3509C164.152 35.4369 163.508 34.1492 163.508 32.4219H162.508ZM164.855 37.1683C166.414 38.2525 168.666 38.7578 171.539 38.7578V37.7578C168.756 37.7578 166.743 37.2632 165.426 36.3474L164.855 37.1683ZM171.539 38.7578H174.117V37.7578H171.539V38.7578ZM174.117 38.7578C177.388 38.7578 179.81 39.4196 181.455 40.6713L182.061 39.8756C180.174 38.4398 177.503 37.7578 174.117 37.7578V38.7578ZM181.459 40.6743C183.106 41.9021 183.93 43.5853 183.93 45.7812H184.93C184.93 43.2897 183.972 41.301 182.057 39.8726L181.459 40.6743ZM183.93 45.7812C183.93 47.7782 182.994 49.4647 181.024 50.8573L181.601 51.6739C183.787 50.129 184.93 48.1593 184.93 45.7812H183.93ZM181.026 50.8559C179.063 52.2283 176.264 52.9453 172.57 52.9453V53.9453C176.376 53.9453 179.405 53.2092 181.599 51.6754L181.026 50.8559ZM172.57 52.9453C170.117 52.9453 167.832 52.608 165.713 51.9374L165.412 52.8908C167.637 53.5951 170.024 53.9453 172.57 53.9453V52.9453ZM165.714 51.9377C163.611 51.267 161.877 50.3283 160.5 49.1305L159.844 49.8851C161.341 51.1874 163.201 52.1861 165.411 52.8904L165.714 51.9377ZM160.485 49.8976L161.798 48.8429L161.171 48.0634L159.859 49.1181L160.485 49.8976ZM161.168 48.8403C162.51 49.9372 164.182 50.7768 166.17 51.3698L166.455 50.4115C164.568 49.8482 163.021 49.0628 161.801 48.0659L161.168 48.8403ZM166.17 51.3698C168.158 51.9631 170.293 52.2578 172.57 52.2578V51.2578C170.379 51.2578 168.342 50.9744 166.455 50.4115L166.17 51.3698ZM172.57 52.2578C175.911 52.2578 178.539 51.69 180.389 50.4898L179.845 49.6508C178.227 50.7006 175.823 51.2578 172.57 51.2578V52.2578ZM180.388 50.4909C182.248 49.2951 183.242 47.7216 183.242 45.7812H182.242C182.242 47.3096 181.487 48.5955 179.847 49.6497L180.388 50.4909ZM183.242 45.7812C183.242 43.7562 182.454 42.1593 180.871 41.0583L180.3 41.8792C181.593 42.7782 182.242 44.0563 182.242 45.7812H183.242ZM180.877 41.0619C179.332 39.9586 177.084 39.4453 174.211 39.4453V40.4453C176.994 40.4453 178.996 40.9477 180.295 41.8756L180.877 41.0619ZM174.211 42.8203H171.539V43.8203H174.211V42.8203ZM171.539 42.8203C167.265 42.8203 164.043 41.8513 161.805 39.9833L161.164 40.7511C163.644 42.8206 167.126 43.8203 171.539 43.8203V42.8203ZM161.806 39.9845C159.569 38.1029 158.445 35.5993 158.445 32.4219H157.445C157.445 35.8695 158.681 38.6627 161.163 40.7498L161.806 39.9845ZM158.445 32.4219C158.445 30.9832 158.763 29.6388 159.399 28.382L158.507 27.9305C157.799 29.33 157.445 30.8293 157.445 32.4219H158.445ZM159.399 28.382C160.036 27.1224 160.95 26.0132 162.148 25.0545L161.524 24.2736C160.222 25.3149 159.214 26.5338 158.507 27.9305L159.399 28.382ZM162.149 25.054C163.353 24.088 164.9 23.3171 166.806 22.7529L166.522 21.794C164.522 22.386 162.85 23.2089 161.523 24.2741L162.149 25.054ZM166.809 22.7518C168.708 22.1746 170.83 21.8828 173.18 21.8828V20.8828C170.748 20.8828 168.526 21.1848 166.519 21.7951L166.809 22.7518ZM173.18 21.8828C176.144 21.8828 178.907 22.3357 181.475 23.2374L181.806 22.2939C179.124 21.3518 176.247 20.8828 173.18 20.8828V21.8828ZM181.477 23.2383C184.046 24.1251 186.17 25.3652 187.861 26.9507L188.545 26.2212C186.736 24.5254 184.485 23.2186 181.804 22.293L181.477 23.2383ZM187.905 26.1843L186.546 27.1921L187.142 27.9954L188.501 26.9876L187.905 26.1843ZM187.179 27.2225C185.525 25.7308 183.468 24.5896 181.023 23.7904L180.712 24.7409C183.047 25.5041 184.975 26.5817 186.509 27.965L187.179 27.2225ZM181.025 23.7913C178.58 22.976 175.963 22.5703 173.18 22.5703V23.5703C175.865 23.5703 178.374 23.9615 180.709 24.74L181.025 23.7913ZM173.18 22.5703C168.896 22.5703 165.466 23.474 162.945 25.3403L163.54 26.1441C165.831 24.4479 169.025 23.5703 173.18 23.5703V22.5703ZM162.945 25.3403C160.429 27.2028 159.133 29.5708 159.133 32.4219H160.133C160.133 29.9292 161.243 27.8441 163.54 26.1441L162.945 25.3403ZM159.133 32.4219C159.133 35.3895 160.224 37.7798 162.413 39.5383L163.04 38.7586C161.104 37.2045 160.133 35.1105 160.133 32.4219H159.133ZM162.413 39.5383C164.597 41.2914 167.662 42.1328 171.539 42.1328V41.1328C167.792 41.1328 164.982 40.318 163.04 38.7586L162.413 39.5383ZM171.539 42.1328H174.117V41.1328H171.539V42.1328ZM174.117 42.1328C176.396 42.1328 178.022 42.4764 179.064 43.0991C180.064 43.6973 180.555 44.5686 180.555 45.7812H181.555C181.555 44.2282 180.889 43.0254 179.577 42.2408C178.306 41.4806 176.463 41.1328 174.117 41.1328V42.1328ZM180.555 45.7812C180.555 46.796 179.995 47.6857 178.674 48.4409L179.17 49.3091C180.692 48.4393 181.555 47.2665 181.555 45.7812H180.555ZM178.675 48.44C177.381 49.1732 175.368 49.5703 172.57 49.5703V50.5703C175.429 50.5703 177.65 50.1705 179.168 49.31L178.675 48.44ZM172.57 49.5703C170.624 49.5703 168.824 49.3481 167.168 48.9074L166.911 49.8738C168.66 50.3394 170.548 50.5703 172.57 50.5703V49.5703ZM167.172 48.9086C165.516 48.4528 164.173 47.8137 163.127 47.0032L162.514 47.7937C163.687 48.702 165.156 49.3909 166.906 49.8727L167.172 48.9086ZM163.126 47.7942L164.462 46.763L163.851 45.9714L162.515 47.0026L163.126 47.7942ZM163.873 46.7791C165.943 48.2036 168.864 48.8828 172.57 48.8828V47.8828C168.964 47.8828 166.275 47.2183 164.44 45.9553L163.873 46.7791ZM172.57 48.8828C174.93 48.8828 176.736 48.6419 177.929 48.1134L177.524 47.1991C176.53 47.6394 174.898 47.8828 172.57 47.8828V48.8828ZM177.929 48.1134C179.09 47.5995 179.867 46.8449 179.867 45.7812H178.867C178.867 46.2488 178.551 46.7443 177.524 47.1991L177.929 48.1134ZM179.867 45.7812C179.867 45.2634 179.755 44.7889 179.508 44.3799C179.26 43.9695 178.894 43.6569 178.439 43.4338L177.999 44.3318C178.309 44.4838 178.518 44.675 178.652 44.8975C178.788 45.1212 178.867 45.4085 178.867 45.7812H179.867ZM178.439 43.4338C177.561 43.0038 176.122 42.8203 174.211 42.8203V43.8203C176.113 43.8203 177.346 44.0119 177.999 44.3318L178.439 43.4338ZM174.211 36.0703H171.539V37.0703H174.211V36.0703ZM171.539 36.0703C169.292 36.0703 167.69 35.7269 166.665 35.1056C165.681 34.5088 165.195 33.6377 165.195 32.4219H164.195C164.195 33.9717 164.85 35.1748 166.147 35.9608C167.403 36.7223 169.224 37.0703 171.539 37.0703V36.0703ZM165.195 32.4219C165.195 31.4056 165.749 30.5247 167.051 29.7866L166.558 28.9166C165.048 29.7721 164.195 30.9382 164.195 32.4219H165.195ZM167.053 29.7857C168.362 29.0373 170.383 28.6328 173.18 28.6328V27.6328C170.32 27.6328 168.091 28.0408 166.557 28.9174L167.053 29.7857ZM173.18 28.6328C175.125 28.6328 176.923 28.8625 178.578 29.318L178.844 28.3539C177.092 27.8719 175.203 27.6328 173.18 27.6328V28.6328ZM178.582 29.3191C180.237 29.7593 181.578 30.3905 182.623 31.2L183.236 30.4094C182.062 29.5002 180.591 28.8188 178.839 28.3527L178.582 29.3191ZM182.624 30.4089L181.288 31.4401L181.899 32.2317L183.235 31.2005L182.624 30.4089ZM181.877 31.424C179.807 29.9995 176.886 29.3203 173.18 29.3203V30.3203C176.786 30.3203 179.475 30.9849 181.31 32.2479L181.877 31.424ZM173.18 29.3203C170.82 29.3203 169.014 29.5613 167.821 30.0897L168.226 31.004C169.22 30.5637 170.852 30.3203 173.18 30.3203V29.3203ZM167.821 30.0897C166.66 30.6037 165.883 31.3582 165.883 32.4219H166.883C166.883 31.9543 167.199 31.4588 168.226 31.004L167.821 30.0897ZM165.883 32.4219C165.883 32.9397 165.995 33.4142 166.242 33.8233C166.49 34.2336 166.856 34.5463 167.311 34.7693L167.751 33.8713C167.441 33.7194 167.232 33.5281 167.098 33.3057C166.962 33.0819 166.883 32.7947 166.883 32.4219H165.883ZM167.311 34.7693C168.189 35.1994 169.628 35.3828 171.539 35.3828V34.3828C169.637 34.3828 168.404 34.1913 167.751 33.8713L167.311 34.7693ZM171.539 35.3828H174.211V34.3828H171.539V35.3828ZM174.211 35.3828C178.484 35.3828 181.705 36.3593 183.944 38.242L184.587 37.4767C182.107 35.3907 178.625 34.3828 174.211 34.3828V35.3828ZM183.945 38.2433C186.181 40.1089 187.305 42.6039 187.305 45.7812H188.305C188.305 42.3336 187.069 39.5473 184.586 37.4755L183.945 38.2433ZM187.305 45.7812C187.305 47.2199 186.987 48.5643 186.351 49.8212L187.243 50.2726C187.951 48.8732 188.305 47.3738 188.305 45.7812H187.305ZM186.351 49.8212C185.714 51.0801 184.793 52.1975 183.578 53.1725L184.204 53.9525C185.52 52.8963 186.536 51.6699 187.243 50.2726L186.351 49.8212ZM183.578 53.1721C182.389 54.1232 180.849 54.8946 178.941 55.4747L179.231 56.4315C181.229 55.8242 182.892 55.0018 184.203 53.9529L183.578 53.1721ZM178.944 55.4737C177.044 56.0361 174.921 56.3203 172.57 56.3203V57.3203C175.001 57.3203 177.221 57.0264 179.228 56.4326L178.944 55.4737ZM172.57 56.3203C169.605 56.3203 166.841 55.8749 164.273 54.9883L163.946 55.9336C166.628 56.8594 169.504 57.3203 172.57 57.3203V56.3203ZM164.275 54.9892C161.705 54.0867 159.581 52.8385 157.889 51.2524L157.205 51.982C159.013 53.6771 161.264 54.9914 163.944 55.9327L164.275 54.9892ZM157.845 52.0188L159.204 51.011L158.608 50.2077L157.249 51.2155L157.845 52.0188ZM158.571 50.9807C160.224 52.4717 162.28 53.6204 164.725 54.4353L165.041 53.4866C162.704 52.7078 160.776 51.6221 159.241 50.2381L158.571 50.9807ZM164.727 54.4362C167.172 55.2352 169.788 55.6328 172.57 55.6328V54.6328C169.884 54.6328 167.374 54.2492 165.038 53.4857L164.727 54.4362ZM172.57 55.6328C176.854 55.6328 180.284 54.7292 182.805 52.8628L182.21 52.0591C179.919 53.7552 176.725 54.6328 172.57 54.6328V55.6328ZM182.805 52.8628C185.321 51.0003 186.617 48.6324 186.617 45.7812H185.617C185.617 48.2739 184.507 50.359 182.21 52.0591L182.805 52.8628ZM186.617 45.7812C186.617 42.8136 185.526 40.4233 183.337 38.6648L182.71 39.4445C184.646 40.9986 185.617 43.0926 185.617 45.7812H186.617ZM183.337 38.6648C181.153 36.9117 178.088 36.0703 174.211 36.0703V37.0703C177.958 37.0703 180.768 37.8851 182.71 39.4445L183.337 38.6648ZM197.484 31.6016V31.1016H196.984V31.6016H197.484ZM199.172 31.6016H199.672V31.1016H199.172V31.6016ZM199.172 56V56.5H199.672V56H199.172ZM197.484 56H196.984V56.5H197.484V56ZM190.734 23.9375H190.234V24.4375H190.734V23.9375ZM190.734 22.25V21.75H190.234V22.25H190.734ZM216.047 22.25H216.547V21.75H216.047V22.25ZM216.047 23.9375V24.4375H216.547V23.9375H216.047ZM190.734 27.3125H190.234V27.8125H190.734V27.3125ZM190.734 25.625V25.125H190.234V25.625H190.734ZM216.047 25.625H216.547V25.125H216.047V25.625ZM216.047 27.3125V27.8125H216.547V27.3125H216.047ZM190.734 30.6875H190.234V31.1875H190.734V30.6875ZM190.734 29V28.5H190.234V29H190.734ZM216.047 29H216.547V28.5H216.047V29ZM216.047 30.6875V31.1875H216.547V30.6875H216.047ZM207.609 31.6016V31.1016H207.109V31.6016H207.609ZM209.297 31.6016H209.797V31.1016H209.297V31.6016ZM209.297 56V56.5H209.797V56H209.297ZM207.609 56H207.109V56.5H207.609V56ZM204.234 31.6016V31.1016H203.734V31.6016H204.234ZM205.922 31.6016H206.422V31.1016H205.922V31.6016ZM205.922 56V56.5H206.422V56H205.922ZM204.234 56H203.734V56.5H204.234V56ZM200.859 31.6016V31.1016H200.359V31.6016H200.859ZM202.547 31.6016H203.047V31.1016H202.547V31.6016ZM202.547 56V56.5H203.047V56H202.547ZM200.859 56H200.359V56.5H200.859V56ZM197.484 32.1016H199.172V31.1016H197.484V32.1016ZM198.672 31.6016V56H199.672V31.6016H198.672ZM199.172 55.5H197.484V56.5H199.172V55.5ZM197.984 56V31.6016H196.984V56H197.984ZM191.234 23.9375V22.25H190.234V23.9375H191.234ZM190.734 22.75H216.047V21.75H190.734V22.75ZM215.547 22.25V23.9375H216.547V22.25H215.547ZM216.047 23.4375H190.734V24.4375H216.047V23.4375ZM191.234 27.3125V25.625H190.234V27.3125H191.234ZM190.734 26.125H216.047V25.125H190.734V26.125ZM215.547 25.625V27.3125H216.547V25.625H215.547ZM216.047 26.8125H190.734V27.8125H216.047V26.8125ZM191.234 30.6875V29H190.234V30.6875H191.234ZM190.734 29.5H216.047V28.5H190.734V29.5ZM215.547 29V30.6875H216.547V29H215.547ZM216.047 30.1875H190.734V31.1875H216.047V30.1875ZM207.609 32.1016H209.297V31.1016H207.609V32.1016ZM208.797 31.6016V56H209.797V31.6016H208.797ZM209.297 55.5H207.609V56.5H209.297V55.5ZM208.109 56V31.6016H207.109V56H208.109ZM204.234 32.1016H205.922V31.1016H204.234V32.1016ZM205.422 31.6016V56H206.422V31.6016H205.422ZM205.922 55.5H204.234V56.5H205.922V55.5ZM204.734 56V31.6016H203.734V56H204.734ZM200.859 32.1016H202.547V31.1016H200.859V32.1016ZM202.047 31.6016V56H203.047V31.6016H202.047ZM202.547 55.5H200.859V56.5H202.547V55.5ZM201.359 56V31.6016H200.359V56H201.359ZM231.07 41.6562L230.596 41.8144L230.597 41.8174L231.07 41.6562ZM232.078 43.5078L231.696 43.8302L231.701 43.8367L231.707 43.843L232.078 43.5078ZM233.625 44.7266L233.383 45.1643L233.392 45.169L233.625 44.7266ZM235.477 45.4062L235.369 45.8946L235.372 45.8952L235.477 45.4062ZM242.438 44.3047H242.938V43.4248L242.182 43.8751L242.438 44.3047ZM242.438 45.9922L242.67 46.4347L242.938 46.2942V45.9922H242.438ZM234.352 46.7422L234.2 47.2188L234.209 47.2215L234.352 46.7422ZM231.656 45.3594L231.351 45.7557L231.356 45.7594L231.656 45.3594ZM229.711 42.8281L229.252 43.0275L229.256 43.0355L229.711 42.8281ZM243.07 33.5234L242.732 33.8916L242.736 33.8951L243.07 33.5234ZM245.414 56V56.5H245.914V56H245.414ZM243.727 56H243.227V56.5H243.727V56ZM248.789 56V56.5H249.289V56H248.789ZM247.102 56H246.602V56.5H247.102V56ZM244.266 32.3281L243.926 32.6951L243.928 32.6966L244.266 32.3281ZM228.141 43.4141L227.682 43.6124L227.684 43.6171L228.141 43.4141ZM233.602 48.2188L233.438 48.6912L233.445 48.6937L233.602 48.2188ZM242.438 47.5625H242.938V46.7429L242.209 47.1179L242.438 47.5625ZM242.438 49.3438L242.63 49.8053L242.938 49.6771V49.3438H242.438ZM232.922 49.6953L232.757 50.1675L232.762 50.1691L232.922 49.6953ZM229.195 47.6094L228.873 47.9917L228.876 47.9944L229.195 47.6094ZM226.594 44.0469L226.135 44.2468L226.136 44.2486L226.594 44.0469ZM228.891 31.2734L229.243 31.6283L229.243 31.6283L228.891 31.2734ZM243.023 29.3984L242.794 29.8425L242.797 29.8441L243.023 29.3984ZM252.164 56V56.5H252.664V56H252.164ZM250.477 56H249.977V56.5H250.477V56ZM248.695 32.5156L248.264 32.7684L248.266 32.7724L248.695 32.5156ZM230.344 28.0625L230.591 28.4968L230.594 28.4954L230.344 28.0625ZM225.633 32.7031L225.201 32.451L225.2 32.4536L225.633 32.7031ZM225.047 44.6094L224.59 44.812L224.591 44.8137L225.047 44.6094ZM228 48.6641L227.674 49.043L227.676 49.045L228 48.6641ZM232.242 51.1484L232.066 51.6164L232.072 51.6185L232.242 51.1484ZM242.438 50.9141H242.938V50.154L242.24 50.4549L242.438 50.9141ZM242.438 52.625L242.614 53.0928L242.938 52.9708V52.625H242.438ZM223.383 33.5L222.923 33.3025L222.922 33.306L223.383 33.5ZM244.711 26.4688L244.477 26.9104L244.478 26.9111L244.711 26.4688ZM255.539 56V56.5H256.039V56H255.539ZM253.852 56H253.352V56.5H253.852V56ZM251.625 30.8281L251.194 31.0822L251.195 31.0834L251.625 30.8281ZM245.555 25.0156L245.318 25.4562L245.32 25.4573L245.555 25.0156ZM222.727 31.0391L223.159 31.2907L223.159 31.2895L222.727 31.0391ZM221.484 44.6094L221.013 44.7751L221.014 44.7802L221.484 44.6094ZM224.016 49.1328L223.629 49.4497L223.633 49.4547L224.016 49.1328ZM227.719 52.4609L227.439 52.8755L227.441 52.877L227.719 52.4609ZM232.242 54.5938L232.098 55.0725L232.099 55.0729L232.242 54.5938ZM242.438 54.2656H242.938V53.5102L242.242 53.8054L242.438 54.2656ZM242.438 56L242.603 56.4717L242.938 56.3543V56H242.438ZM231.562 56.1172L231.42 56.5963L231.421 56.5967L231.562 56.1172ZM226.594 53.7734L226.31 54.1849L226.314 54.1882L226.594 53.7734ZM222.586 50.0938L222.198 50.4092L222.2 50.4113L222.586 50.0938ZM220.242 32.2109L219.781 32.0179L219.78 32.0196L220.242 32.2109ZM223.992 26.5156L223.637 26.1638L223.637 26.1638L223.992 26.5156ZM229.758 22.6953L229.95 23.1569L229.952 23.1562L229.758 22.6953ZM250.195 26.2344L249.852 26.5981L249.854 26.5998L250.195 26.2344ZM244.227 39.3594C244.227 37.2494 243.571 35.5531 242.207 34.3445L241.543 35.093C242.648 36.0719 243.227 37.4694 243.227 39.3594H244.227ZM242.207 34.3445C240.861 33.1521 239.1 32.5781 236.977 32.5781V33.5781C238.915 33.5781 240.42 34.0979 241.543 35.093L242.207 34.3445ZM236.977 32.5781C235.129 32.5781 233.528 33.2216 232.2 34.499L232.894 35.2197C234.034 34.1222 235.387 33.5781 236.977 33.5781V32.5781ZM232.2 34.499C230.872 35.7772 230.195 37.3276 230.195 39.125H231.195C231.195 37.6099 231.753 36.3166 232.894 35.2197L232.2 34.499ZM230.195 39.125C230.195 40.1065 230.326 41.0049 230.596 41.8144L231.545 41.4981C231.314 40.8076 231.195 40.0185 231.195 39.125H230.195ZM230.597 41.8174C230.863 42.6 231.227 43.2747 231.696 43.8302L232.46 43.1854C232.085 42.741 231.777 42.1812 231.544 41.4951L230.597 41.8174ZM231.707 43.843C232.183 44.37 232.743 44.8104 233.383 45.1642L233.867 44.2889C233.32 43.9865 232.848 43.6144 232.449 43.1727L231.707 43.843ZM233.392 45.169C234.025 45.5019 234.684 45.7442 235.369 45.8946L235.584 44.9179C234.988 44.7871 234.413 44.5762 233.858 44.2841L233.392 45.169ZM235.372 45.8952C236.066 46.0438 236.796 46.1172 237.562 46.1172V45.1172C236.86 45.1172 236.2 45.0499 235.581 44.9173L235.372 45.8952ZM237.562 46.1172C239.43 46.1172 241.144 45.6573 242.693 44.7342L242.182 43.8751C240.794 44.7021 239.258 45.1172 237.562 45.1172V46.1172ZM241.938 44.3047V45.9922H242.938V44.3047H241.938ZM242.205 45.5496C240.763 46.3079 239.21 46.6875 237.539 46.6875V47.6875C239.368 47.6875 241.081 47.2702 242.67 46.4347L242.205 45.5496ZM237.539 46.6875C236.458 46.6875 235.444 46.545 234.494 46.2629L234.209 47.2215C235.259 47.5331 236.37 47.6875 237.539 47.6875V46.6875ZM234.503 46.2656C233.571 45.9698 232.723 45.5345 231.956 44.9594L231.356 45.7594C232.214 46.403 233.163 46.8896 234.2 47.2187L234.503 46.2656ZM231.961 44.9631C231.222 44.3944 230.621 43.6194 230.166 42.6207L229.256 43.0355C229.769 44.1619 230.466 45.0744 231.351 45.7557L231.961 44.9631ZM230.169 42.6288C229.733 41.624 229.508 40.4594 229.508 39.125H228.508C228.508 40.5719 228.752 41.876 229.252 43.0275L230.169 42.6288ZM229.508 39.125C229.508 37.1006 230.213 35.4009 231.633 33.996L230.93 33.2852C229.318 34.8803 228.508 36.8369 228.508 39.125H229.508ZM231.633 33.996C233.048 32.5956 234.817 31.8906 236.977 31.8906V30.8906C234.574 30.8906 232.546 31.6857 230.93 33.2852L231.633 33.996ZM236.977 31.8906C239.393 31.8906 241.295 32.5707 242.732 33.8916L243.409 33.1553C241.752 31.6325 239.591 30.8906 236.977 30.8906V31.8906ZM242.736 33.8951C244.174 35.1892 244.914 36.9885 244.914 39.3594H245.914C245.914 36.7615 245.092 34.6702 243.405 33.1518L242.736 33.8951ZM244.914 39.3594V56H245.914V39.3594H244.914ZM245.414 55.5H243.727V56.5H245.414V55.5ZM244.227 56V39.3594H243.227V56H244.227ZM248.289 39.3594V56H249.289V39.3594H248.289ZM248.789 55.5H247.102V56.5H248.789V55.5ZM247.602 56V39.3594H246.602V56H247.602ZM247.602 39.3594C247.602 36.2894 246.613 33.8034 244.604 31.9597L243.928 32.6966C245.699 34.3216 246.602 36.5231 246.602 39.3594H247.602ZM244.605 31.9612C242.608 30.1126 240.051 29.2031 236.977 29.2031V30.2031C239.84 30.2031 242.142 31.0436 243.926 32.6951L244.605 31.9612ZM236.977 29.2031C234.103 29.2031 231.677 30.1634 229.734 32.0903L230.438 32.8004C232.182 31.071 234.35 30.2031 236.977 30.2031V29.2031ZM229.734 32.0903C227.794 34.0134 226.82 36.3683 226.82 39.125H227.82C227.82 36.6317 228.69 34.5334 230.438 32.8004L229.734 32.0903ZM226.82 39.125C226.82 40.7764 227.104 42.2751 227.682 43.6124L228.6 43.2157C228.084 42.0217 227.82 40.6611 227.82 39.125H226.82ZM227.684 43.6171C228.274 44.9458 229.078 46.0289 230.101 46.8507L230.727 46.0711C229.844 45.3617 229.132 44.4136 228.598 43.211L227.684 43.6171ZM230.101 46.8507C231.099 47.6528 232.213 48.2664 233.438 48.6912L233.765 47.7463C232.647 47.3586 231.635 46.8003 230.727 46.0711L230.101 46.8507ZM233.445 48.6937C234.686 49.1017 235.989 49.3047 237.352 49.3047V48.3047C236.089 48.3047 234.892 48.117 233.758 47.7438L233.445 48.6937ZM237.352 49.3047C239.214 49.3047 240.987 48.871 242.666 48.0071L242.209 47.1179C240.669 47.9102 239.052 48.3047 237.352 48.3047V49.3047ZM241.938 47.5625V49.3438H242.938V47.5625H241.938ZM242.245 48.8822C240.615 49.5616 238.977 49.8984 237.328 49.8984V50.8984C239.117 50.8984 240.885 50.5322 242.63 49.8053L242.245 48.8822ZM237.328 49.8984C235.833 49.8984 234.418 49.672 233.082 49.2215L232.762 50.1691C234.207 50.6561 235.73 50.8984 237.328 50.8984V49.8984ZM233.086 49.2231C231.75 48.7576 230.56 48.0912 229.514 47.2244L228.876 47.9944C230.018 48.9401 231.313 49.6642 232.757 50.1675L233.086 49.2231ZM229.518 47.2271C228.488 46.3595 227.665 45.2363 227.051 43.8452L226.136 44.2486C226.804 45.7637 227.715 47.0155 228.873 47.9917L229.518 47.2271ZM227.052 43.847C226.442 42.449 226.133 40.8777 226.133 39.125H225.133C225.133 40.9973 225.464 42.7072 226.135 44.2468L227.052 43.847ZM226.133 39.125C226.133 36.1792 227.166 33.69 229.243 31.6283L228.538 30.9186C226.271 33.1693 225.133 35.9145 225.133 39.125H226.133ZM229.243 31.6283C231.333 29.5534 233.9 28.5156 236.977 28.5156V27.5156C233.647 27.5156 230.824 28.6498 228.538 30.9186L229.243 31.6283ZM236.977 28.5156C239.156 28.5156 241.092 28.9617 242.794 29.8425L243.253 28.9544C241.393 27.9915 239.297 27.5156 236.977 27.5156V28.5156ZM242.797 29.8441C244.493 30.707 245.829 31.961 246.812 33.6149L247.672 33.1038C246.593 31.289 245.117 29.9024 243.25 28.9528L242.797 29.8441ZM246.812 33.6149C247.792 35.2628 248.289 37.1724 248.289 39.3594H249.289C249.289 37.0151 248.755 34.9247 247.672 33.1038L246.812 33.6149ZM251.664 39.3594V56H252.664V39.3594H251.664ZM252.164 55.5H250.477V56.5H252.164V55.5ZM250.977 56V39.3594H249.977V56H250.977ZM250.977 39.3594C250.977 36.7015 250.363 34.3295 249.124 32.2589L248.266 32.7724C249.402 34.6705 249.977 36.861 249.977 39.3594H250.977ZM249.127 32.2629C247.907 30.1819 246.229 28.5843 244.098 27.4781L243.637 28.3656C245.6 29.3845 247.139 30.8493 248.264 32.7684L249.127 32.2629ZM244.098 27.4781C241.972 26.3749 239.595 25.8281 236.977 25.8281V26.8281C239.452 26.8281 241.668 27.3438 243.637 28.3656L244.098 27.4781ZM236.977 25.8281C234.471 25.8281 232.173 26.4272 230.093 27.6296L230.594 28.4954C232.514 27.3853 234.638 26.8281 236.977 26.8281V25.8281ZM230.096 27.6282C228.021 28.8115 226.387 30.4206 225.201 32.451L226.065 32.9553C227.16 31.0794 228.666 29.5948 230.591 28.4968L230.096 27.6282ZM225.2 32.4536C224.029 34.4852 223.445 36.7123 223.445 39.125H224.445C224.445 36.8815 224.986 34.8273 226.066 32.9527L225.2 32.4536ZM223.445 39.125C223.445 41.1875 223.824 43.0856 224.59 44.812L225.504 44.4067C224.801 42.8206 224.445 41.0625 224.445 39.125H223.445ZM224.591 44.8137C225.352 46.5143 226.378 47.9278 227.674 49.043L228.326 48.2851C227.153 47.2753 226.211 45.9857 225.503 44.4051L224.591 44.8137ZM227.676 49.045C228.971 50.1459 230.436 51.003 232.066 51.6164L232.418 50.6805C230.893 50.1064 229.529 49.3073 228.324 48.2831L227.676 49.045ZM232.072 51.6185C233.721 52.2169 235.443 52.5156 237.234 52.5156V51.5156C235.557 51.5156 233.951 51.2362 232.413 50.6784L232.072 51.6185ZM237.234 52.5156C239.072 52.5156 240.873 52.1331 242.635 51.3732L242.24 50.4549C240.596 51.1637 238.928 51.5156 237.234 51.5156V52.5156ZM241.938 50.9141V52.625H242.938V50.9141H241.938ZM242.261 52.1572C240.53 52.8101 238.84 53.1328 237.188 53.1328V54.1328C238.973 54.1328 240.782 53.7837 242.614 53.0928L242.261 52.1572ZM237.188 53.1328C234.563 53.1328 232.16 52.5419 229.971 51.3644L229.498 52.245C231.84 53.5049 234.406 54.1328 237.188 54.1328V53.1328ZM229.971 51.3644C227.785 50.1885 226.038 48.5248 224.724 46.3651L223.87 46.8849C225.275 49.1939 227.152 50.9834 229.498 52.245L229.971 51.3644ZM224.724 46.3651C223.415 44.2136 222.758 41.8045 222.758 39.125H221.758C221.758 41.9768 222.46 44.5676 223.87 46.8849L224.724 46.3651ZM222.758 39.125C222.758 37.2216 223.12 35.4127 223.844 33.694L222.922 33.306C222.146 35.1498 221.758 37.0909 221.758 39.125H222.758ZM223.842 33.6974C224.584 31.9711 225.581 30.4859 226.83 29.2364L226.123 28.5293C224.779 29.8735 223.713 31.4664 222.923 33.3026L223.842 33.6974ZM226.83 29.2364C228.077 27.9891 229.584 26.9928 231.357 26.2503L230.971 25.3279C229.088 26.1166 227.469 27.1828 226.123 28.5293L226.83 29.2364ZM231.357 26.2503C233.122 25.5111 234.994 25.1406 236.977 25.1406V24.1406C234.866 24.1406 232.862 24.5358 230.971 25.3279L231.357 26.2503ZM236.977 25.1406C239.763 25.1406 242.259 25.7337 244.477 26.9104L244.945 26.0271C242.569 24.7663 239.909 24.1406 236.977 24.1406V25.1406ZM244.478 26.9111C246.708 28.0866 248.46 29.7559 249.741 31.926L250.602 31.4177C249.227 29.0879 247.339 27.2884 244.944 26.0264L244.478 26.9111ZM249.741 31.926C251.019 34.0915 251.664 36.5645 251.664 39.3594H252.664C252.664 36.4042 251.981 33.7523 250.602 31.4177L249.741 31.926ZM255.039 39.3594V56H256.039V39.3594H255.039ZM255.539 55.5H253.852V56.5H255.539V55.5ZM254.352 56V39.3594H253.352V56H254.352ZM254.352 39.3594C254.352 36.091 253.59 33.1574 252.055 30.5729L251.195 31.0834C252.629 33.4988 253.352 36.2528 253.352 39.3594H254.352ZM252.056 30.574C250.525 27.9795 248.434 25.9768 245.789 24.5739L245.32 25.4573C247.801 26.7732 249.757 28.6455 251.194 31.0822L252.056 30.574ZM245.791 24.575C243.15 23.1578 240.208 22.4531 236.977 22.4531V23.4531C240.058 23.4531 242.835 24.1235 245.318 25.4562L245.791 24.575ZM236.977 22.4531C233.861 22.4531 231.001 23.2009 228.406 24.6999L228.906 25.5658C231.343 24.1585 234.029 23.4531 236.977 23.4531V22.4531ZM228.406 24.6999C225.816 26.1962 223.776 28.2275 222.294 30.7887L223.159 31.2895C224.552 28.8819 226.466 26.9757 228.906 25.5658L228.406 24.6999ZM222.294 30.7875C220.811 33.3344 220.07 36.1168 220.07 39.125H221.07C221.07 36.2894 221.767 33.6812 223.159 31.2907L222.294 30.7875ZM220.07 39.125C220.07 41.1007 220.384 42.9851 221.013 44.7751L221.956 44.4436C221.366 42.7649 221.07 40.993 221.07 39.125H220.07ZM221.014 44.7802C221.657 46.5472 222.528 48.1054 223.629 49.4497L224.402 48.8159C223.379 47.5665 222.562 46.1091 221.954 44.4385L221.014 44.7802ZM223.633 49.4547C224.741 50.7716 226.01 51.9121 227.439 52.8755L227.998 52.0464C226.646 51.1348 225.446 50.0566 224.398 48.8109L223.633 49.4547ZM227.441 52.877C228.888 53.8417 230.441 54.5739 232.098 55.0725L232.386 54.115C230.824 53.6449 229.362 52.9552 227.996 52.0449L227.441 52.877ZM232.099 55.0729C233.77 55.5709 235.467 55.8203 237.188 55.8203V54.8203C235.565 54.8203 233.964 54.5853 232.385 54.1146L232.099 55.0729ZM237.188 55.8203C239.097 55.8203 240.913 55.4559 242.633 54.7259L242.242 53.8054C240.649 54.4816 238.966 54.8203 237.188 54.8203V55.8203ZM241.938 54.2656V56H242.938V54.2656H241.938ZM242.272 55.5283C240.59 56.119 238.865 56.4141 237.094 56.4141V57.4141C238.979 57.4141 240.816 57.0997 242.603 56.4717L242.272 55.5283ZM237.094 56.4141C235.251 56.4141 233.455 56.1552 231.704 55.6377L231.421 56.5967C233.264 57.1417 235.156 57.4141 237.094 57.4141V56.4141ZM231.705 55.638C229.972 55.1211 228.362 54.3615 226.873 53.3587L226.314 54.1882C227.888 55.2479 229.59 56.0507 231.42 56.5963L231.705 55.638ZM226.878 53.362C225.4 52.3412 224.099 51.1462 222.972 49.7762L222.2 50.4113C223.386 51.8538 224.756 53.1119 226.31 54.1848L226.878 53.362ZM222.974 49.7783C221.858 48.4056 220.978 46.8017 220.34 44.961L219.395 45.289C220.068 47.2296 221.002 48.9382 222.198 50.4092L222.974 49.7783ZM220.34 44.961C219.703 43.1259 219.383 41.1816 219.383 39.125H218.383C218.383 41.2872 218.719 43.3428 219.395 45.289L220.34 44.961ZM219.383 39.125C219.383 36.7673 219.824 34.5277 220.704 32.4023L219.78 32.0196C218.848 34.2691 218.383 36.639 218.383 39.125H219.383ZM220.703 32.4039C221.602 30.2562 222.817 28.4126 224.347 26.8674L223.637 26.1638C222.011 27.8061 220.726 29.7594 219.781 32.0179L220.703 32.4039ZM224.347 26.8674C225.891 25.3085 227.756 24.0709 229.95 23.1569L229.566 22.2338C227.259 23.1948 225.281 24.504 223.637 26.1638L224.347 26.8674ZM229.952 23.1562C232.154 22.2298 234.494 21.7656 236.977 21.7656V20.7656C234.366 20.7656 231.893 21.2546 229.564 22.2344L229.952 23.1562ZM236.977 21.7656C239.513 21.7656 241.889 22.1932 244.11 23.045L244.468 22.1113C242.126 21.213 239.628 20.7656 236.977 20.7656V21.7656ZM244.11 23.045C246.335 23.8983 248.247 25.0835 249.852 26.5981L250.538 25.8707C248.831 24.2602 246.806 23.0079 244.468 22.1113L244.11 23.045ZM249.854 26.5998C251.455 28.0946 252.72 29.9408 253.648 32.147L254.57 31.7592C253.592 29.4342 252.249 27.4679 250.537 25.869L249.854 26.5998ZM253.648 32.147C254.574 34.3461 255.039 36.7482 255.039 39.3594H256.039C256.039 36.6268 255.551 34.0914 254.57 31.7592L253.648 32.147Z" fill="#0097E6"/>
    </g>
    <defs>
        <filter id="filter0_di" x="0.679688" y="16.6875" width="259.359" height="48.7266" filterUnits="userSpaceOnUse" color-interpolation-filters="sRGB">
            <feFlood flood-opacity="0" result="BackgroundImageFix"/>
            <feColorMatrix in="SourceAlpha" type="matrix" values="0 0 0 0 0 0 0 0 0 0 0 0 0 0 0 0 0 0 127 0"/>
            <feOffset dy="4"/>
            <feGaussianBlur stdDeviation="2"/>
            <feColorMatrix type="matrix" values="0 0 0 0 0 0 0 0 0 0 0 0 0 0 0 0 0 0 0.25 0"/>
            <feBlend mode="normal" in2="BackgroundImageFix" result="effect1_dropShadow"/>
            <feBlend mode="normal" in="SourceGraphic" in2="effect1_dropShadow" result="shape"/>
            <feColorMatrix in="SourceAlpha" type="matrix" values="0 0 0 0 0 0 0 0 0 0 0 0 0 0 0 0 0 0 127 0" result="hardAlpha"/>
            <feOffset dy="2"/>
            <feGaussianBlur stdDeviation="2"/>
            <feComposite in2="hardAlpha" operator="arithmetic" k2="-1" k3="1"/>
            <feColorMatrix type="matrix" values="0 0 0 0 0 0 0 0 0 0 0 0 0 0 0 0 0 0 0.25 0"/>
            <feBlend mode="normal" in2="shape" result="effect2_innerShadow"/>
        </filter>
    </defs>
</svg>
